<?xml version="1.0" standalone="no"?>
<!DOCTYPE svg PUBLIC "-//W3C//DTD SVG 1.1//EN" "http://www.w3.org/Graphics/SVG/1.1/DTD/svg11.dtd" >
<svg xmlns="http://www.w3.org/2000/svg" xmlns:xlink="http://www.w3.org/1999/xlink" version="1.1">
<metadata>
Created by FontForge 20170731 at Tue Jan 17 17:53:42 2012
 By Aleksey,,,
Copyright (c) 2011 - 2012 Linotype Corp., www.linotype.com. All rights reserved. This font software may not be reproduced, modified, disclosed or transferred without the express written approval of Linotype Corp. Neue Haas Grotesk is a trademark of Linotype Corp. registered in the U.S. Patent and Trademark Office and may be registered in certain other jurisdictions in the name of Linotype Corp. or its licensee Linotype GmbH. This typeface is original artwork of Christian Schwartz. The design may be protected in certain jurisdictions.
</metadata>
<defs>
<font id="NHaasGroteskDSPro-66MdIt" horiz-adv-x="492" >
  <font-face 
    font-family="NeueHaasGroteskDisp Pro Md"
    font-weight="500"
    font-style="italic"
    font-stretch="normal"
    units-per-em="1000"
    panose-1="2 11 6 4 2 2 2 9 2 4"
    ascent="771"
    descent="-229"
    x-height="513"
    cap-height="715"
    bbox="-208 -263 1159 930"
    underline-thickness="20"
    underline-position="-153"
    slope="-11"
    unicode-range="U+000D-FB04"
  />
<missing-glyph 
 />
    <glyph glyph-name="f_f" unicode="ff" horiz-adv-x="602" 
d="M163 0h-133l81 419h-67l18 94h67l11 57q15 77 62 109t115 33q34 0 72 -6l-20 -104q-21 3 -38 3q-28 0 -41.5 -11.5t-19.5 -41.5l-8 -39h150l12 61q15 77 62 109.5t115 33.5q34 0 72 -6l-20 -104q-21 3 -38 3q-28 0 -41.5 -12t-19.5 -42l-9 -43h89l-18 -94h-89l-81 -419
h-133l81 419h-150z" />
    <glyph glyph-name="fi" unicode="fi" horiz-adv-x="539" 
d="M62 513h67l12 61q15 77 62 109.5t115 33.5q34 0 72 -6l-20 -104q-21 3 -38 3q-28 0 -41.5 -12t-19.5 -42l-9 -43h89l-18 -94h-89l-81 -419h-133l81 419h-67zM411 513h134l-99 -513h-134zM450 715h134l-23 -122h-134z" />
    <glyph glyph-name="fl" unicode="fl" horiz-adv-x="543" 
d="M62 513h67l12 61q15 77 62 109.5t115 33.5q34 0 72 -6l-20 -104q-21 3 -38 3q-28 0 -41.5 -12t-19.5 -42l-9 -43h89l-18 -94h-89l-81 -419h-133l81 419h-67zM452 715h134l-138 -715h-134z" />
    <glyph glyph-name="f_f_i" unicode="ffi" horiz-adv-x="822" 
d="M163 0h-133l81 419h-67l18 94h67l11 57q15 77 62 109t115 33q34 0 72 -6l-20 -104q-21 3 -38 3q-28 0 -41.5 -11.5t-19.5 -41.5l-8 -39h150l12 61q15 77 62 109.5t115 33.5q34 0 72 -6l-20 -104q-21 3 -38 3q-28 0 -41.5 -12t-19.5 -42l-9 -43h89l-18 -94h-89l-81 -419
h-133l81 419h-150zM694 513h134l-99 -513h-134zM733 715h134l-23 -122h-134z" />
    <glyph glyph-name="f_f_l" unicode="ffl" horiz-adv-x="826" 
d="M163 0h-133l81 419h-67l18 94h67l11 57q15 77 62 109t115 33q34 0 72 -6l-20 -104q-21 3 -38 3q-28 0 -41.5 -11.5t-19.5 -41.5l-8 -39h150l12 61q15 77 62 109.5t115 33.5q34 0 72 -6l-20 -104q-21 3 -38 3q-28 0 -41.5 -12t-19.5 -42l-9 -43h89l-18 -94h-89l-81 -419
h-133l81 419h-150zM735 715h134l-138 -715h-134z" />
    <glyph glyph-name=".notdef" 
 />
    <glyph glyph-name=".null" horiz-adv-x="0" 
 />
    <glyph glyph-name=".null" horiz-adv-x="0" 
 />
    <glyph glyph-name="nonmarkingreturn" unicode="&#xd;" horiz-adv-x="0" 
 />
    <glyph glyph-name="space" unicode=" " horiz-adv-x="174" 
 />
    <glyph glyph-name="exclam" unicode="!" horiz-adv-x="250" 
d="M113 557l30 158h140l-32 -168l-104 -338h-65zM32 145h144l-28 -145h-144z" />
    <glyph glyph-name="quotedbl" unicode="&#x22;" horiz-adv-x="376" 
d="M307 715h117l-48 -251h-117zM128 715h117l-48 -251h-117z" />
    <glyph glyph-name="numbersign" unicode="#" horiz-adv-x="562" 
d="M104 513h94l49 173h91l-48 -173h106l49 173h91l-49 -173h96l-30 -105h-95l-33 -121h95l-30 -104h-95l-50 -183h-92l51 183h-106l-51 -183h-92l51 183h-95l30 104h95l32 121h-95zM227 287h107l32 121h-106z" />
    <glyph glyph-name="dollar" unicode="$" horiz-adv-x="582" 
d="M271 -12l-16 -85h-59l17 89q-47 6 -87 22.5t-68.5 44t-43.5 66t-12 89.5h131q-3 -54 24 -80t77 -34l38 198q-44 16 -79 33.5t-60 40t-38.5 52t-13.5 70.5q0 49 18.5 87.5t52 64.5t80 40t103.5 14h15l12 59h59l-13 -65q40 -7 74 -22.5t58.5 -41t37.5 -61.5t11 -83h-130
q2 38 -16.5 63t-55.5 36l-34 -174q49 -17 86.5 -36t62.5 -43t38 -55t13 -72q0 -54 -21 -95t-58 -68t-87.5 -40.5t-108.5 -13.5h-7zM416 188q0 15 -3.5 26.5t-13.5 22t-27.5 20t-44.5 20.5l-35 -180q25 1 47.5 6.5t39.5 17t27 28t10 39.5zM212 512q-1 -29 18 -45.5t68 -35.5
l32 162q-21 0 -42 -4t-37.5 -13.5t-27.5 -25t-11 -38.5z" />
    <glyph glyph-name="percent" unicode="%" horiz-adv-x="804" 
d="M209 301q-38 0 -67 13t-48.5 34.5t-29.5 50.5t-10 62q0 49 13.5 92.5t39 76t61.5 51.5t80 19q39 0 68 -13t48.5 -35t29.5 -51t10 -61q0 -49 -13.5 -92.5t-38.5 -76t-61 -51.5t-82 -19zM624 686h86l-496 -686h-86zM157 455q0 -15 2 -29t8 -25t16.5 -17.5t27.5 -6.5
q23 0 40 15t28 39.5t16.5 55t5.5 61.5q0 13 -2.5 26.5t-9 24.5t-17 18t-26.5 7q-23 0 -39.5 -15t-27.5 -39.5t-16.5 -54.5t-5.5 -60zM588 -16q-38 0 -67 13t-48.5 34.5t-29.5 50.5t-10 62q0 49 13.5 92.5t39 76t61.5 51.5t80 19q39 0 68 -13t48.5 -35t29.5 -51t10 -61
q0 -49 -13.5 -92.5t-38.5 -76t-61 -51.5t-82 -19zM536 138q0 -15 2 -29t8 -25t16.5 -17.5t27.5 -6.5q23 0 40 15t28 39.5t16.5 55t5.5 61.5q0 13 -2.5 26.5t-9 24.5t-17 18t-26.5 7q-23 0 -39.5 -15t-27.5 -39.5t-16.5 -54.5t-5.5 -60z" />
    <glyph glyph-name="ampersand" unicode="&#x26;" horiz-adv-x="637" 
d="M232 -15q-47 0 -88.5 12t-72.5 36.5t-49 61.5t-18 87q0 43 16 78t42.5 62.5t61 47.5t70.5 33q-18 29 -28.5 61t-10.5 69q0 39 14 72t39.5 56t61 36t77.5 13q32 0 64 -9t58 -28t42.5 -48.5t16.5 -71.5q0 -35 -12 -63t-33 -50t-49.5 -39.5t-61.5 -32.5l77 -131
q14 26 26.5 59t22.5 71h119q-16 -72 -43.5 -132t-61.5 -105l79 -130h-155l-25 41q-32 -22 -76 -39t-103 -17zM145 191q0 -44 26 -70.5t73 -26.5q32 0 60 10.5t54 29.5l-111 184q-19 -8 -37.5 -19.5t-32.5 -27t-23 -36t-9 -44.5zM344 608q-26 0 -43.5 -19.5t-17.5 -49.5
q0 -24 10 -46.5t27 -45.5q32 16 56 39t24 61q0 23 -13.5 42t-42.5 19z" />
    <glyph glyph-name="quotesingle" unicode="'" horiz-adv-x="198" 
d="M128 715h117l-48 -251h-117z" />
    <glyph glyph-name="parenleft" unicode="(" horiz-adv-x="340" 
d="M142 -131q-33 67 -54.5 146.5t-21.5 170.5q0 83 17.5 160t49.5 148t77.5 136t102.5 124h121q-52 -61 -95.5 -129.5t-74.5 -143t-48 -153t-17 -159.5q0 -89 14 -160t39 -140h-110v0z" />
    <glyph glyph-name="parenright" unicode=")" horiz-adv-x="340" 
d="M218 754q33 -67 54.5 -146.5t21.5 -170.5q0 -83 -17.5 -160t-49.5 -148t-77.5 -136t-102.5 -124h-121q52 61 95.5 129.5t74.5 142.5t48 153t17 160q0 89 -14 160t-39 140h110v0z" />
    <glyph glyph-name="asterisk" unicode="*" horiz-adv-x="384" 
d="M98 443l86 90l-96 41l34 67l98 -43l22 117h76l-22 -122l108 28l13 -70l-112 -27l49 -95l-68 -39l-49 98l-86 -94z" />
    <glyph glyph-name="plus" unicode="+" horiz-adv-x="560" 
d="M57 377h194l39 204h103l-39 -204h194l-19 -98h-194l-40 -204h-103l40 204h-194z" />
    <glyph glyph-name="comma" unicode="," horiz-adv-x="215" 
d="M-37 -116q36 14 60.5 41t32.5 75h-71l28 145h144l-28 -142q-17 -83 -64 -121t-112 -48z" />
    <glyph glyph-name="hyphen" unicode="-" horiz-adv-x="334" 
d="M41 304h267l-22 -113h-267z" />
    <glyph glyph-name="period" unicode="." horiz-adv-x="215" 
d="M13 145h144l-28 -145h-144z" />
    <glyph glyph-name="slash" unicode="/" horiz-adv-x="407" 
d="M371 715h112l-408 -715h-112z" />
    <glyph glyph-name="zero" unicode="0" horiz-adv-x="622" 
d="M290 -16q-61 0 -108 20.5t-79 57t-48.5 88.5t-16.5 115q0 81 22 159t64 139.5t104.5 99t143.5 37.5q58 0 103.5 -20.5t77 -57t47.5 -88.5t16 -115q0 -79 -18.5 -156.5t-58 -139.5t-101 -100.5t-148.5 -38.5zM177 259q0 -31 5 -60t18.5 -51t36 -35.5t58.5 -13.5
q52 0 87 33.5t56 83t30 106t9 103.5q0 31 -5 60t-18 51t-35.5 35.5t-57.5 13.5t-62 -16t-47.5 -43t-34.5 -61t-23 -70.5t-13 -71.5t-4 -64z" />
    <glyph glyph-name="one" unicode="1" horiz-adv-x="376" 
d="M211 478h-152l18 90q36 1 66.5 7.5t55.5 21t43.5 37t29.5 56.5h116l-134 -690h-135z" />
    <glyph glyph-name="two" unicode="2" horiz-adv-x="538" 
d="M-24 0q9 53 28.5 94t46 73.5t59 58t66.5 46.5q55 34 97.5 59t71 49t43 51t14.5 66q0 37 -21.5 62t-63.5 25q-49 0 -81.5 -32.5t-46.5 -107.5h-127q14 122 84 188.5t182 66.5q46 0 85.5 -13t68.5 -38.5t45 -62t16 -82.5q0 -52 -17 -91.5t-45.5 -70.5t-64.5 -55.5
t-75 -46.5q-27 -15 -55 -30.5t-52.5 -31.5t-44.5 -32t-30 -34h322l-21 -111h-484z" />
    <glyph glyph-name="three" unicode="3" horiz-adv-x="558" 
d="M265 -15q-65 0 -113.5 19t-79.5 52.5t-45 78.5t-9 98h130q-4 -62 25 -101t97 -39q55 0 85.5 31t30.5 85q0 48 -29 75.5t-88 27.5h-30l20 102h43q47 0 80 24.5t33 74.5q0 35 -22.5 59t-67.5 24q-57 0 -87.5 -35.5t-39.5 -87.5h-130q6 49 26.5 90.5t54.5 71.5t80 47t102 17
q52 0 93 -13t69.5 -36t43.5 -55t15 -69q0 -65 -37.5 -106.5t-99.5 -58.5v-2q22 -7 42 -19t35 -30.5t23.5 -44t8.5 -58.5q0 -49 -19 -89.5t-53 -70t-82 -46t-105 -16.5z" />
    <glyph glyph-name="four" unicode="4" horiz-adv-x="585" 
d="M313 151h-311l29 145l383 397h135l-84 -435h103l-22 -107h-103l-28 -151h-130zM136 258h199l50 262h-2l-247 -259v-3z" />
    <glyph glyph-name="five" unicode="5" horiz-adv-x="559" 
d="M245 -15q-50 0 -94.5 13.5t-78.5 40.5t-53.5 67t-19.5 92h135q3 -45 33 -72.5t85 -27.5q28 0 53.5 9.5t44 28.5t29.5 45.5t11 61.5q0 53 -28.5 83t-82.5 30q-34 0 -61 -12t-48 -33h-122l111 374h413l-22 -113h-312l-46 -154h2q25 22 59.5 35.5t76.5 13.5q43 0 80 -14.5
t64 -41t42.5 -65t15.5 -86.5q0 -63 -22.5 -114t-61 -87t-91 -55t-112.5 -19z" />
    <glyph glyph-name="six" unicode="6" horiz-adv-x="575" 
d="M284 -15q-60 0 -106.5 19.5t-78.5 55.5t-48.5 86.5t-15.5 112.5q0 46 8.5 97t25.5 100t42.5 92.5t60.5 75.5q39 36 85.5 55.5t108.5 19.5q41 0 78.5 -9.5t66 -31t47 -55t21.5 -81.5h-129q-3 35 -26 54.5t-66 19.5q-33 0 -60 -15t-48 -42t-36.5 -63t-25.5 -78h2
q28 32 68.5 52t93.5 20q41 0 77.5 -15t64.5 -43.5t44 -69t16 -91.5q0 -57 -20.5 -105.5t-56 -84.5t-85 -56t-108.5 -20zM166 213q0 -54 31.5 -88t85.5 -34q60 0 99.5 40t39.5 109q0 53 -28 88t-85 35q-30 0 -56.5 -10.5t-45.5 -30t-30 -47.5t-11 -62z" />
    <glyph glyph-name="seven" unicode="7" horiz-adv-x="522" 
d="M75 0q18 94 56 179t85 158t97.5 131.5t95.5 100.5v2h-329l22 114h480l-21 -109q-54 -48 -106.5 -108.5t-98 -133t-81 -156.5t-54.5 -178h-146v0z" />
    <glyph glyph-name="eight" unicode="8" horiz-adv-x="587" 
d="M277 -15q-47 0 -94.5 11t-86 35t-62 63t-23.5 95q1 75 43.5 122.5t111.5 67.5v3q-37 20 -55 52.5t-18 70.5q0 48 21 84.5t56 60.5t80.5 36.5t95.5 12.5q45 0 87.5 -9.5t75.5 -30t53.5 -54t20.5 -81.5q0 -50 -32 -92t-89 -65v-3q45 -20 69.5 -60t24.5 -91
q0 -57 -22.5 -100t-61 -71.5t-89 -42.5t-106.5 -14zM150 199q0 -52 37 -78.5t94 -26.5q28 0 52.5 7t43 22t29.5 38t11 54q0 27 -10 46.5t-27.5 32.5t-40.5 19.5t-50 6.5q-25 0 -50 -7t-44.5 -21.5t-32 -37.5t-12.5 -55zM226 503q-1 -46 29 -67.5t78 -21.5q24 0 44.5 5.5
t36.5 17t25 29.5t9 43q0 43 -29 65t-75 22q-23 0 -44.5 -5.5t-37.5 -16.5t-26 -29t-10 -42z" />
    <glyph glyph-name="nine" unicode="9" horiz-adv-x="587" 
d="M258 -15q-42 0 -82 10.5t-71.5 32t-52 55.5t-23.5 81h132q5 -30 30 -53t72 -23q36 0 63.5 14.5t47.5 41t33.5 63.5t23.5 83h-2q-28 -29 -66.5 -50.5t-90.5 -21.5q-47 0 -86.5 14.5t-68 41.5t-44.5 65.5t-16 87.5q0 61 22 111t59.5 86t88 55.5t107.5 19.5q114 0 182 -67
t68 -201q0 -44 -6.5 -92.5t-20 -95.5t-33.5 -89.5t-46 -73.5q-39 -46 -92.5 -70.5t-127.5 -24.5zM192 445q-1 -57 30.5 -87.5t88.5 -30.5q60 0 101 36.5t41 107.5q0 55 -30.5 88.5t-87.5 33.5q-31 0 -57 -11t-45 -30.5t-30 -46.5t-11 -60z" />
    <glyph glyph-name="colon" unicode=":" horiz-adv-x="220" 
d="M74 446h144l-28 -145h-144zM16 145h144l-28 -145h-144z" />
    <glyph glyph-name="semicolon" unicode=";" horiz-adv-x="220" 
d="M74 446h144l-28 -145h-144zM-34 -116q36 14 60.5 41t32.5 75h-71l28 145h144l-28 -142q-17 -83 -64 -121t-112 -48z" />
    <glyph glyph-name="less" unicode="&#x3c;" 
d="M42 255l23 116l438 170l-23 -118l-231 -83q-15 -5 -32 -10.5t-32 -10.5q-18 -5 -35 -11v-2l30 -10q13 -5 28 -10.5t28 -10.5l200 -84l-22 -112z" />
    <glyph glyph-name="equal" unicode="=" horiz-adv-x="553" 
d="M88 455h457l-19 -96h-457zM51 262h457l-19 -96h-457z" />
    <glyph glyph-name="greater" unicode="&#x3e;" 
d="M470 365l-23 -116l-438 -170l23 118l231 83q14 5 31.5 10.5t32.5 10.5q18 5 35 11v2l-30 10q-13 5 -28 10.5t-28 10.5l-200 84l22 112z" />
    <glyph glyph-name="question" unicode="?" horiz-adv-x="529" 
d="M179 209q9 47 22.5 77.5t31 51.5t39 35.5t47.5 29.5q19 10 37.5 20.5t33.5 25t24.5 33.5t9.5 46q0 43 -26 64.5t-70 21.5q-51 0 -90 -30.5t-50 -95.5h-130q10 55 33.5 99t59.5 75.5t82 48.5t101 17q46 0 87.5 -12t72 -36t48.5 -59.5t18 -82.5q0 -69 -33.5 -114.5
t-97.5 -84.5q-32 -19 -54 -31.5t-37 -25.5t-24 -29.5t-14 -43.5h-121zM156 145h144l-28 -145h-144z" />
    <glyph glyph-name="at" unicode="@" horiz-adv-x="887" 
d="M383 78q-72 0 -115 44.5t-43 123.5q0 46 14 94.5t42 88.5t69.5 65t96.5 25q44 0 71 -20t40 -54h2l14 63h125l-63 -274q-9 -39 -2.5 -59.5t36.5 -20.5q31 0 53.5 19.5t36.5 49t20.5 65.5t6.5 69q0 70 -22.5 123t-63 87.5t-97 52t-124.5 17.5q-73 0 -137 -25t-112 -73
t-75.5 -117t-27.5 -157q0 -67 19 -122t56.5 -94.5t93.5 -61t130 -21.5q54 0 99.5 10t87.5 27l26 -66q-93 -46 -216 -46q-85 0 -156 24.5t-122 72t-79 117t-28 159.5q0 94 33 176.5t91.5 143t139.5 95.5t178 35q79 0 149.5 -23t123.5 -67.5t84.5 -110.5t31.5 -153
q0 -45 -11 -94.5t-36 -91t-65.5 -68.5t-98.5 -27q-59 0 -91 21.5t-44 58.5h-3q-26 -38 -63 -59.5t-75 -21.5zM423 174q29 0 50 15.5t34.5 40t20 53.5t6.5 56q0 38 -17 61.5t-51 23.5q-29 0 -49.5 -15.5t-34 -40t-20 -54.5t-6.5 -59q0 -35 17.5 -58t49.5 -23z" />
    <glyph glyph-name="A" unicode="A" horiz-adv-x="634" 
d="M415 153h-247l-72 -153h-145l366 715h148l118 -715h-148zM220 263h181l-25 201q-2 15 -3 35t-3 37q-2 20 -3 42h-2q-8 -22 -17 -42q-8 -17 -16 -36.5t-15 -33.5z" />
    <glyph glyph-name="B" unicode="B" horiz-adv-x="640" 
d="M142 715h287q45 0 82.5 -10.5t65.5 -33.5q26 -21 41 -53t15 -76q0 -63 -34.5 -106t-97.5 -61v-3q111 -31 110 -149q0 -87 -66 -150q-37 -35 -87.5 -54t-123.5 -19h-330zM170 119h165q60 0 95.5 26.5t35.5 83.5q0 46 -28 68.5t-73 22.5h-156zM378 426q22 0 43 4t37 15
t26 30t10 48q0 34 -19.5 54.5t-64.5 20.5h-147l-33 -172h148z" />
    <glyph glyph-name="C" unicode="C" horiz-adv-x="673" 
d="M331 -15q-71 0 -126.5 22.5t-93 63t-57 96.5t-19.5 122q0 82 25.5 161t74.5 141t120 100t162 38q54 0 101 -14t81.5 -43.5t56 -75t24.5 -108.5h-141q-10 120 -133 120q-59 0 -101 -28.5t-70 -74.5t-41 -102.5t-13 -111.5q0 -37 8 -71t27 -60t50 -41.5t76 -15.5
q63 0 105.5 33.5t61.5 93.5h141q-15 -57 -42.5 -104t-69.5 -79q-45 -34 -93 -48t-114 -14z" />
    <glyph glyph-name="D" unicode="D" horiz-adv-x="659" 
d="M142 715h227q66 0 119.5 -19t92 -57.5t59 -95t20.5 -131.5q0 -103 -25.5 -177t-78.5 -130q-47 -50 -118.5 -77.5t-152.5 -27.5h-281zM286 125q112 0 170.5 75.5t58.5 207.5q0 89 -41 136t-123 47h-90l-90 -466h115z" />
    <glyph glyph-name="E" unicode="E" horiz-adv-x="593" 
d="M142 715h498l-23 -121h-355l-31 -161h312l-23 -118h-312l-38 -195h363l-23 -120h-506z" />
    <glyph glyph-name="F" unicode="F" horiz-adv-x="568" 
d="M142 715h489l-23 -122h-346l-34 -173h301l-24 -123h-301l-57 -297h-143z" />
    <glyph glyph-name="G" unicode="G" horiz-adv-x="711" 
d="M528 88h-2q-35 -49 -87.5 -76t-118.5 -27q-63 0 -115 20t-90 58.5t-59 95t-21 130.5q0 83 27.5 162.5t78.5 141t123 99t161 37.5q55 0 103.5 -14.5t85.5 -43.5t60 -74t27 -107h-139q-6 57 -45 88.5t-103 31.5q-57 0 -100.5 -27.5t-73 -72.5t-44.5 -102t-15 -117
q0 -90 41.5 -140t128.5 -50q78 0 131 45.5t66 122.5h-169l21 111h296l-73 -380h-107z" />
    <glyph glyph-name="H" unicode="H" horiz-adv-x="657" 
d="M142 715h143l-54 -281h263l54 281h143l-138 -715h-143l61 316h-263l-61 -316h-143z" />
    <glyph glyph-name="I" unicode="I" horiz-adv-x="253" 
d="M143 715h143l-138 -715h-143z" />
    <glyph glyph-name="J" unicode="J" horiz-adv-x="506" 
d="M207 -12q-49 0 -91 12t-70.5 39t-40.5 69t0 102l11 56h128l-11 -57q-20 -106 76 -106q46 0 67.5 24.5t29.5 69.5l100 518h142l-102 -530q-8 -42 -25.5 -78t-46 -62.5t-70 -41.5t-97.5 -15z" />
    <glyph glyph-name="K" unicode="K" horiz-adv-x="648" 
d="M291 344l-94 -83l-50 -261h-143l138 715h143l-55 -286l307 286h176l-312 -280l204 -435h-156z" />
    <glyph glyph-name="L" unicode="L" horiz-adv-x="535" 
d="M142 715h143l-115 -595h320l-23 -120h-463z" />
    <glyph glyph-name="M" unicode="M" horiz-adv-x="801" 
d="M142 715h199l27 -353q3 -38 4.5 -74t2.5 -65q1 -33 2 -64h1q10 28 21 59q10 26 23 59t29 67l172 371h206l-138 -715h-133l79 410q5 23 11 49t11 49q6 26 13 52h-2q-9 -22 -19 -46q-8 -20 -18.5 -44t-21.5 -47l-197 -423h-136l-34 422q-2 20 -2.5 44t-1.5 45q-1 25 -1 49
h-2q-3 -27 -7 -53q-3 -23 -7.5 -49t-8.5 -48l-79 -410h-131z" />
    <glyph glyph-name="N" unicode="N" horiz-adv-x="661" 
d="M142 715h143l146 -399q6 -17 11 -34.5t9 -33.5q4 -18 9 -36h2q3 21 7 43q3 19 6.5 40.5t7.5 40.5l73 379h139l-138 -715h-136l-153 398q-7 17 -12.5 35.5t-9.5 32.5q-4 17 -8 32h-2q-3 -22 -7 -44q-3 -19 -6.5 -40.5t-7.5 -40.5l-72 -373h-139z" />
    <glyph glyph-name="O" unicode="O" horiz-adv-x="713" 
d="M346 -16q-69 0 -126 21t-98.5 60.5t-64 96.5t-22.5 129q0 86 24.5 165.5t72 140t117 96.5t159.5 36q69 0 126 -22t97.5 -63t62.5 -98.5t22 -128.5q0 -84 -23.5 -162.5t-70 -138.5t-116 -96t-160.5 -36zM181 294q0 -40 9.5 -75t30 -61t53 -41t78.5 -15q60 0 102 29
t67.5 74.5t37 100.5t11.5 107q0 42 -10 78t-31 62.5t-53 42t-77 15.5q-59 0 -100.5 -29.5t-67.5 -75t-38 -102t-12 -110.5z" />
    <glyph glyph-name="P" unicode="P" horiz-adv-x="624" 
d="M142 715h275q51 0 93 -14t72 -41t46.5 -66.5t16.5 -89.5q0 -57 -19.5 -102.5t-55 -77t-85 -48.5t-109.5 -17h-174l-50 -259h-148zM225 376h144q25 0 48 7t41 21.5t28.5 37.5t10.5 55q0 44 -25 68.5t-74 24.5h-132z" />
    <glyph glyph-name="Q" unicode="Q" horiz-adv-x="713" 
d="M346 -16q-69 0 -126 21t-98.5 60.5t-64 96.5t-22.5 129q0 86 24.5 165.5t72 140t117 96.5t159.5 36q69 0 126 -22t97.5 -63t62.5 -98.5t22 -128.5q0 -91 -27 -174t-81 -144l62 -60l-82 -81l-70 68q-36 -20 -79 -31t-93 -11zM181 294q0 -40 9.5 -75t30 -61t53 -41
t78.5 -15q40 0 74 13l-66 65l82 80l73 -71q30 48 42.5 107.5t12.5 116.5q0 42 -10 78t-31 62.5t-53 42t-77 15.5q-59 0 -100.5 -29.5t-67.5 -75t-38 -102t-12 -110.5z" />
    <glyph glyph-name="R" unicode="R" horiz-adv-x="637" 
d="M142 715h288q53 0 93.5 -14t67.5 -39t41 -60t14 -77q0 -78 -42.5 -124t-114.5 -64v-3q43 -14 65.5 -43t22.5 -80q0 -31 -4 -73.5t-4 -84.5q0 -17 3 -29.5t11 -16.5v-7h-138q-6 7 -8.5 21t-2.5 32q0 34 3 70.5t3 67.5q0 96 -108 96h-130l-55 -287h-143zM224 398h149
q26 0 49.5 6t41.5 19.5t28.5 34.5t10.5 51q0 44 -23.5 67t-71.5 23h-145z" />
    <glyph glyph-name="S" unicode="S" horiz-adv-x="612" 
d="M292 -16q-62 0 -116.5 14t-94 43t-61 73.5t-18.5 106.5h139q-2 -34 9 -57t32 -37.5t50 -20.5t64 -6q27 0 51.5 5t43.5 16.5t30.5 29t11.5 42.5q0 19 -7 33t-25 27t-48 26t-75 30q-48 17 -85.5 35t-63.5 41t-39.5 53.5t-13.5 72.5q0 51 18.5 91.5t53 68.5t82.5 42.5
t107 14.5q55 0 104.5 -12t86 -39t57.5 -69.5t18 -102.5h-137q2 53 -32.5 81t-101.5 28q-20 0 -41 -4t-38.5 -14t-29 -26t-11.5 -40q0 -18 6.5 -30.5t23 -23.5t45 -21.5t70.5 -25.5q53 -18 94 -38.5t68.5 -46t41.5 -57.5t14 -75q0 -57 -21.5 -99.5t-59 -71t-89.5 -43
t-113 -14.5z" />
    <glyph glyph-name="T" unicode="T" horiz-adv-x="585" 
d="M103 715h556l-23 -121h-207l-115 -594h-143l115 594h-206z" />
    <glyph glyph-name="U" unicode="U" horiz-adv-x="642" 
d="M299 -12q-66 0 -118.5 16t-86.5 48.5t-47.5 82t-0.5 116.5l90 464h143l-92 -475q-13 -64 13.5 -100.5t101.5 -36.5q34 0 58.5 9t41.5 24.5t27.5 37.5t15.5 48l95 493h142l-98 -506q-21 -107 -91 -164t-194 -57z" />
    <glyph glyph-name="V" unicode="V" horiz-adv-x="597" 
d="M86 715h148l47 -405q2 -21 4 -43.5t4 -40.5q2 -21 3 -41h2q7 19 16 39q7 17 16 37.5t18 39.5l196 414h146l-362 -715h-130z" />
    <glyph glyph-name="W" unicode="W" horiz-adv-x="892" 
d="M88 715h145l21 -355q2 -26 2.5 -53.5t0.5 -50.5v-54h2q9 26 20 53q9 23 19 50.5t21 53.5l142 356h135l17 -355q1 -24 1.5 -52t1.5 -51q1 -28 1 -55h2q10 27 21 55q9 24 20 51.5t22 52.5l148 354h141l-320 -715h-133l-21 385q-2 21 -2.5 44t-0.5 43v45h-2q-7 -21 -15 -44
q-7 -20 -15 -43t-17 -45l-155 -385h-131z" />
    <glyph glyph-name="X" unicode="X" horiz-adv-x="623" 
d="M249 382l-137 333h153l85 -231h2l171 231h154l-265 -348l154 -367h-160l-91 265h-2l-194 -265h-162z" />
    <glyph glyph-name="Y" unicode="Y" horiz-adv-x="607" 
d="M230 280l-140 435h147l61 -205q5 -17 9.5 -35.5t8.5 -34.5q4 -18 8 -37h2l21 35q9 15 20.5 33t23.5 35l145 209h155l-319 -439l-53 -276h-143z" />
    <glyph glyph-name="Z" unicode="Z" horiz-adv-x="606" 
d="M-3 105l468 490v3h-348l22 117h519l-22 -117l-453 -476v-3h365l-22 -119h-549z" />
    <glyph glyph-name="bracketleft" unicode="[" horiz-adv-x="371" 
d="M159 754h281l-21 -104h-152l-130 -677h152l-21 -104h-281z" />
    <glyph glyph-name="backslash" unicode="\" horiz-adv-x="460" 
d="M84 715h101l230 -715h-101z" />
    <glyph glyph-name="bracketright" unicode="]" horiz-adv-x="371" 
d="M-29 -27h153l130 677h-153l21 104h282l-172 -885h-282z" />
    <glyph glyph-name="asciicircum" unicode="^" horiz-adv-x="440" 
d="M248 715h112l107 -287h-120l-59 172h-2l-121 -172h-122z" />
    <glyph glyph-name="underscore" unicode="_" horiz-adv-x="416" 
d="M-69 -85h420l-16 -83h-420z" />
    <glyph glyph-name="grave" unicode="`" 
d="M186 718h146l41 -141h-102z" />
    <glyph glyph-name="a" unicode="a" horiz-adv-x="514" 
d="M313 0q-5 8 -6.5 23.5t-0.5 32.5h-2q-23 -25 -55.5 -46.5t-87.5 -21.5q-30 0 -59 8.5t-52 27t-37.5 47t-14.5 68.5q0 51 19 82.5t51 50t74 26.5t89 12q36 3 61.5 6t41 9.5t23 17.5t7.5 30q0 28 -21 42.5t-59 14.5q-42 0 -69 -17.5t-36 -55.5h-120q13 79 71.5 124
t158.5 45q48 0 88 -11t67.5 -35t38.5 -63t1 -95l-48 -246q-5 -26 -3.5 -44t7.5 -27v-5h-127zM127 151q0 -35 21.5 -52.5t55.5 -17.5q26 0 47.5 7.5t37.5 20.5t26 29t14 34l16 81q-20 -9 -42.5 -14.5t-55.5 -11.5q-18 -3 -39 -5.5t-39 -9.5t-30 -21t-12 -40z" />
    <glyph glyph-name="b" unicode="b" horiz-adv-x="559" 
d="M293 -15q-48 0 -90.5 20.5t-64.5 69.5h-2l-14 -75h-129l138 715h134l-51 -262h3q26 32 62.5 53t84.5 21q43 0 76 -16t56 -44.5t35 -68.5t12 -87q0 -62 -15 -120.5t-46 -104.5t-78 -73.5t-111 -27.5zM169 216q0 -24 6 -45t18.5 -37.5t32.5 -26t48 -9.5q36 0 61 19t40.5 48
t22.5 65t7 71q0 22 -4.5 43.5t-15.5 37.5t-29.5 26t-45.5 10q-37 0 -63.5 -19t-44 -48.5t-25.5 -65.5t-8 -69z" />
    <glyph glyph-name="c" unicode="c" horiz-adv-x="514" 
d="M245 -15q-47 0 -88.5 13.5t-73 41t-49.5 70.5t-18 102t19 115.5t55 101t88 71.5t118 27q43 0 80.5 -10.5t66 -33t46 -58.5t20.5 -86h-131q-4 37 -24.5 58.5t-61.5 21.5q-37 0 -64 -19t-44 -49.5t-25.5 -68t-8.5 -74.5q0 -25 5.5 -46t18 -36.5t32 -24t47.5 -8.5
q38 0 65.5 21t41.5 67h130q-21 -93 -85.5 -144.5t-159.5 -51.5z" />
    <glyph glyph-name="d" unicode="d" horiz-adv-x="563" 
d="M208 -15q-44 0 -79 16t-59.5 45t-38 71t-13.5 93q0 59 17.5 116t50.5 101.5t81 72t108 27.5q51 0 87.5 -21.5t56.5 -61.5h3l52 271h134l-138 -715h-129l10 56h-2q-27 -35 -60 -53t-81 -18zM154 218q0 -26 5 -48t16.5 -38.5t30.5 -26t46 -9.5q36 0 63 18t44.5 46t26 63
t8.5 68q0 55 -25 91t-79 36q-35 0 -61 -18.5t-42.5 -48t-24.5 -65t-8 -68.5z" />
    <glyph glyph-name="e" unicode="e" horiz-adv-x="532" 
d="M149 219q0 -61 23 -95.5t82 -34.5q35 0 63 15.5t42 48.5h132q-24 -72 -79 -115q-65 -51 -160 -53q-50 0 -93 14t-75 43t-50 73.5t-18 105.5q0 56 19.5 110.5t55.5 98t87 70.5t113 27q42 0 72.5 -8t56.5 -25q58 -38 79 -110t7 -165h-357zM288 423q-53 0 -83.5 -33
t-43.5 -78h221q1 22 -4 42.5t-16.5 35.5t-29.5 24t-44 9z" />
    <glyph glyph-name="f" unicode="f" horiz-adv-x="319" 
d="M62 513h67l12 61q15 77 62 109.5t115 33.5q34 0 72 -6l-20 -104q-21 3 -38 3q-28 0 -41.5 -12t-19.5 -42l-9 -43h89l-18 -94h-89l-81 -419h-133l81 419h-67z" />
    <glyph glyph-name="g" unicode="g" horiz-adv-x="551" 
d="M218 -175q-38 0 -74.5 9t-66 28t-49.5 49.5t-25 73.5h136q6 -28 26 -43t56 -15q48 0 75 29.5t36 78.5l10 52h-3q-26 -26 -53.5 -41t-72.5 -15q-44 0 -79.5 15.5t-60.5 43t-39 66t-14 84.5q0 56 17.5 108t49.5 91.5t78.5 63.5t104.5 24q50 0 87.5 -20t56.5 -56h2l12 62
h129l-95 -491q-9 -47 -27 -80.5t-46 -59.5q-31 -29 -71 -43t-100 -14zM252 139q32 0 57 14t42.5 37t26.5 53t9 62q-1 50 -26.5 82t-75.5 32q-31 0 -55.5 -13.5t-41.5 -37t-26 -54t-9 -64.5q0 -48 24.5 -79.5t74.5 -31.5z" />
    <glyph glyph-name="h" unicode="h" horiz-adv-x="536" 
d="M213 442h3q31 43 65.5 64t89.5 21q38 0 67.5 -15t48 -41.5t25 -64t-2.5 -82.5l-62 -324h-134l60 308q10 51 -8.5 78t-61.5 27q-24 0 -44.5 -10t-36 -28t-26 -42.5t-15.5 -52.5l-54 -280h-134l138 715h134z" />
    <glyph glyph-name="i" unicode="i" horiz-adv-x="220" 
d="M92 513h134l-99 -513h-134zM131 715h134l-23 -122h-134z" />
    <glyph glyph-name="j" unicode="j" horiz-adv-x="220" 
d="M-33 -169q-18 0 -39 2t-43 8l18 96q18 -1 33 0t25.5 6t17.5 14t10 25l103 531h134l-106 -545q-9 -45 -21.5 -68.5t-31.5 -38.5q-39 -30 -100 -30zM131 715h134l-23 -122h-134z" />
    <glyph glyph-name="k" unicode="k" horiz-adv-x="523" 
d="M233 232l-76 -68l-31 -164h-133l138 715h133l-78 -401l201 199h164l-214 -201l143 -312h-149z" />
    <glyph glyph-name="l" unicode="l" horiz-adv-x="224" 
d="M133 715h134l-138 -715h-134z" />
    <glyph glyph-name="m" unicode="m" horiz-adv-x="812" 
d="M92 513h129l-14 -75h3q26 42 61 65.5t83 23.5q52 0 82 -27.5t41 -70.5h2q35 53 77 75.5t93 22.5q34 0 63.5 -13.5t48.5 -39.5t26 -65t-3 -90l-61 -319h-134l61 315q9 48 -8.5 73t-52.5 25q-43 0 -71 -35t-39 -95l-54 -283h-134l61 315q9 48 -8.5 73t-52.5 25
q-43 0 -71 -35t-39 -95l-54 -283h-134z" />
    <glyph glyph-name="n" unicode="n" horiz-adv-x="536" 
d="M208 432h3q33 48 69 71.5t91 23.5q38 0 67.5 -15t48 -41.5t25 -64t-2.5 -82.5l-62 -324h-134l60 308q10 51 -8.5 78t-61.5 27q-24 0 -44 -10t-35.5 -28t-26.5 -42.5t-16 -52.5l-54 -280h-134l99 513h131z" />
    <glyph glyph-name="o" unicode="o" horiz-adv-x="561" 
d="M258 -15q-50 0 -94 15.5t-76.5 45.5t-51.5 74.5t-19 103.5q0 61 20.5 116t58.5 96.5t91 66t119 24.5q49 0 92 -15t75.5 -45t51 -73.5t18.5 -100.5q0 -62 -20 -117.5t-57 -98t-89.5 -67.5t-118.5 -25zM151 216q0 -26 6 -49.5t19.5 -41.5t34 -28.5t50.5 -10.5q39 0 67 19
t46 49.5t26.5 68t8.5 74.5q0 25 -6 48.5t-19.5 41.5t-34 28.5t-50.5 10.5q-39 0 -67 -19t-46 -49t-26.5 -67.5t-8.5 -74.5z" />
    <glyph glyph-name="p" unicode="p" horiz-adv-x="562" 
d="M92 513h129l-12 -63h3q27 35 66 56t91 21q43 0 76 -17t55.5 -47t34 -71t11.5 -89q0 -54 -14.5 -110.5t-45 -102.5t-78.5 -75.5t-115 -29.5q-47 0 -87.5 21t-62.5 66h-2l-47 -240h-134zM168 215q0 -23 6 -44.5t19 -38t33 -26t47 -9.5q38 0 64 18t42 47t23 65t7 71
q0 22 -5 44t-16.5 38.5t-30.5 27t-46 10.5q-36 0 -63 -18.5t-44.5 -48t-26.5 -65.5t-9 -71z" />
    <glyph glyph-name="q" unicode="q" horiz-adv-x="563" 
d="M205 -15q-88 0 -137.5 57t-49.5 168q0 59 17 116t50 101.5t80.5 72t109.5 27.5q51 0 90 -21t59 -61h3l13 68h129l-132 -681h-134l44 228h-2q-23 -35 -59 -55t-81 -20zM154 219q0 -25 4 -47t14.5 -38.5t29 -26t47.5 -9.5q35 0 62 17t46 44.5t28.5 62.5t9.5 71
q0 58 -25.5 92.5t-76.5 34.5q-37 0 -63 -19t-43 -48t-25 -65t-8 -69z" />
    <glyph glyph-name="r" unicode="r" horiz-adv-x="348" 
d="M205 431h3q23 38 55 63t80 25q14 0 23.5 -1t14.5 -3l-23 -118h-3q-70 9 -116.5 -25t-63.5 -122l-48 -250h-134l99 513h129z" />
    <glyph glyph-name="s" unicode="s" horiz-adv-x="472" 
d="M224 -15q-47 0 -87.5 10t-71.5 32t-50.5 56.5t-22.5 82.5h127q4 -33 28 -58t77 -25q37 0 60.5 13.5t23.5 42.5q0 28 -31 42.5t-88 33.5q-29 10 -56 21.5t-47 29t-32 41.5t-12 58q0 39 15 69t41.5 51t63 31.5t80.5 10.5q43 0 80 -11t64.5 -32t45 -53t20.5 -74h-123
q-5 30 -26.5 52t-64.5 22q-14 0 -27.5 -2.5t-24.5 -8.5t-18 -15.5t-7 -24.5q0 -13 8.5 -22t24.5 -16t39 -14.5t53 -17.5q28 -9 54 -21.5t46 -30.5t32.5 -42.5t12.5 -58.5q0 -83 -54.5 -127.5t-152.5 -44.5z" />
    <glyph glyph-name="t" unicode="t" horiz-adv-x="322" 
d="M63 513h65l31 160h131l-31 -160h86l-17 -90h-86l-52 -267q-6 -30 3.5 -43t34.5 -13h12.5t13.5 1q7 0 14 1l-19 -100q-9 -1 -20 -2q-9 -1 -20 -1h-21q-39 0 -67.5 7.5t-45.5 24.5t-22 44.5t3 67.5l55 280h-65z" />
    <glyph glyph-name="u" unicode="u" horiz-adv-x="530" 
d="M320 73h-3q-30 -42 -66 -64.5t-87 -22.5q-81 0 -119.5 54t-20.5 149l62 324h134l-60 -308q-21 -106 64 -106q48 0 79 36t43 98l54 280h134l-99 -513h-129z" />
    <glyph glyph-name="v" unicode="v" horiz-adv-x="478" 
d="M51 513h136l32 -259q2 -21 4 -38t3 -29q1 -14 2 -25h2q4 11 9 24q5 11 12 26.5t16 34.5l124 266h134l-261 -513h-128z" />
    <glyph glyph-name="w" unicode="w" horiz-adv-x="728" 
d="M53 513h130l19 -238q1 -16 2 -33.5t2 -31.5q1 -17 1 -33h2q6 16 13 34q6 14 13 31.5t14 33.5l103 237h114l28 -237q2 -17 3 -34.5t2 -31.5q1 -17 2 -33h2q6 16 13 33q6 14 12.5 31.5t13.5 33.5l96 238h132l-229 -513h-120l-27 252q-2 15 -3 32.5t-3 32.5q-2 18 -3 35h-2
q-6 -17 -13 -35l-13 -32.5t-14 -32.5l-111 -252h-121z" />
    <glyph glyph-name="x" unicode="x" horiz-adv-x="510" 
d="M179 274l-114 239h145l62 -156h2l109 156h146l-200 -253l126 -260h-149l-69 170h-2l-132 -170h-149z" />
    <glyph glyph-name="y" unicode="y" horiz-adv-x="488" 
d="M8 -62h43q43 0 66 23.5t23 71.5q0 35 -17 115l-74 365h140l35 -233q2 -18 5 -38.5t5 -37.5q3 -20 5 -40h2q7 20 15 40q7 17 15.5 37.5t16.5 38.5l106 233h136l-265 -538q-19 -39 -38 -66t-41 -44t-50 -25t-65 -8h-84z" />
    <glyph glyph-name="z" unicode="z" horiz-adv-x="461" 
d="M-7 102l303 303v3h-228l21 105h387l-21 -107l-297 -296v-3h256l-21 -107h-420z" />
    <glyph glyph-name="braceleft" unicode="{" horiz-adv-x="371" 
d="M249 -131q-53 0 -91.5 10.5t-62 34t-31 61t3.5 91.5l25 123q8 38 -5 58t-61 23l19 97q48 2 68.5 18.5t27.5 54.5l25 135q10 57 28.5 92.5t44 54.5t59 25.5t74.5 6.5h67l-21 -106h-41q-20 0 -34 -4t-23.5 -13.5t-16 -25.5t-10.5 -40l-29 -157q-8 -45 -28.5 -64t-52.5 -30
v-3q28 -14 38.5 -39t1.5 -70l-29 -146q-9 -47 10 -64t61 -17h23l-21 -106h-19z" />
    <glyph glyph-name="bar" unicode="|" horiz-adv-x="247" 
d="M102 754h82v-885h-82v885z" />
    <glyph glyph-name="braceright" unicode="}" horiz-adv-x="371" 
d="M141 754q52 0 91 -10.5t62.5 -34t31 -61t-3.5 -91.5l-24 -119q-8 -38 5 -58t61 -23l-19 -97q-48 -2 -68.5 -18.5t-27.5 -54.5l-26 -139q-10 -55 -28 -90t-44 -54.5t-59.5 -27t-74.5 -7.5h-67l21 106h41q20 0 34 4t23.5 13.5t15.5 25.5t11 40l30 161q8 45 28.5 64t52.5 30
v3q-28 14 -38.5 39t-1.5 70l28 142q9 47 -10 64t-61 17h-23l21 106h19z" />
    <glyph glyph-name="asciitilde" unicode="~" horiz-adv-x="419" 
d="M35 250q10 82 45 119t83 37q21 0 39.5 -6t35 -13.5t31 -13.5t26.5 -6q18 0 26.5 9t12.5 29h88q-8 -72 -37.5 -112t-83.5 -40q-21 0 -40.5 6t-37.5 13t-33 13t-27 6q-29 0 -39 -41h-89v0z" />
    <glyph glyph-name="uni00A0" unicode="&#xa0;" horiz-adv-x="174" 
 />
    <glyph glyph-name="exclamdown" unicode="&#xa1;" horiz-adv-x="250" 
d="M150 31l-30 -158h-140l32 168l104 338h65zM231 443h-144l28 145h144z" />
    <glyph glyph-name="cent" unicode="&#xa2;" horiz-adv-x="514" 
d="M244 -15l-16 -85h-59l17 91q-36 7 -67.5 24t-54 44t-35.5 65t-13 88q0 58 19 114.5t54 100.5t86 71.5t116 28.5l13 66h59l-14 -70q66 -12 110.5 -56t49.5 -128h-131q-3 27 -15 46.5t-35 28.5l-63 -322q33 4 57.5 25.5t37.5 63.5h130q-21 -93 -85.5 -144.5t-159.5 -51.5
h-1zM150 208q0 -38 13.5 -67t44.5 -41l62 318q-32 -6 -54.5 -27t-37 -50.5t-21.5 -64t-7 -68.5z" />
    <glyph glyph-name="sterling" unicode="&#xa3;" horiz-adv-x="570" 
d="M99 375q-8 24 -14.5 48.5t-6.5 52.5q0 52 19.5 93.5t54 70.5t81 44t99.5 15q60 0 105 -14t75 -44q32 -30 46.5 -74.5t9.5 -112.5h-134q4 74 -24.5 104.5t-78.5 30.5q-48 0 -79 -28.5t-31 -86.5q0 -24 5.5 -48.5t12.5 -50.5h148l-17 -85h-114q1 -5 1 -9v-8q0 -24 -9 -45.5
t-23 -40.5t-32 -34.5t-37 -28.5l1 -2q17 6 34.5 11.5t40.5 5.5t41 -4.5t34.5 -10t33.5 -10t38 -4.5q29 0 55 13t46 30l52 -103q-30 -28 -70 -46t-86 -18q-33 0 -59 7.5t-49.5 16t-47.5 16t-53 7.5q-30 0 -56 -13t-50 -28l-57 104q21 13 42.5 30t39 38t28.5 46t11 53
q0 7 -0.5 13.5t-1.5 13.5h-89l17 85h48z" />
    <glyph glyph-name="currency" unicode="&#xa4;" horiz-adv-x="520" 
d="M275 146q-53 0 -92 19l-66 -67l-84 82l64 64q-25 47 -25 105q0 57 25 104l-64 66l84 82l65 -68q42 20 93 20q50 0 92 -20l66 68l84 -82l-66 -66q26 -46 26 -104q0 -57 -25 -104l65 -65l-84 -82l-66 67q-43 -19 -92 -19zM275 238q42 0 64 30t22 81t-22 81.5t-64 30.5
q-43 0 -66 -30.5t-23 -81.5t23 -81t66 -30z" />
    <glyph glyph-name="yen" unicode="&#xa5;" horiz-adv-x="599" 
d="M73 322h148l-138 364h149l64 -199q5 -14 8.5 -29.5t7.5 -28.5l8 -30h2q8 14 18 29q8 13 17.5 28.5t20.5 29.5l143 200h153l-278 -364h147l-11 -58h-171l-13 -64h171l-11 -58h-171l-27 -142h-131l27 142h-168l11 58h168l13 64h-168z" />
    <glyph glyph-name="brokenbar" unicode="&#xa6;" horiz-adv-x="210" 
d="M64 261h83v-392h-83v392zM64 754h83v-379h-83v379z" />
    <glyph glyph-name="section" unicode="&#xa7;" horiz-adv-x="582" 
d="M552 266q0 -61 -33 -95.5t-102 -59.5q39 -47 39 -103q0 -43 -16 -76t-44.5 -56t-67 -35t-82.5 -12q-52 0 -93.5 13.5t-71 39.5t-45 65t-14.5 89h129q1 -45 23 -73t71 -28q33 0 55 16t22 50q0 14 -7 26t-22 24.5t-39 26.5t-59 33q-81 44 -118 86t-37 101q0 60 36.5 95.5
t98.5 52.5q-27 37 -27 85q0 43 16 74.5t43 52.5t62 31t74 10q41 0 77.5 -9t64.5 -30t45 -54.5t18 -82.5h-121q-2 35 -23 55t-60 20q-26 0 -48 -12t-22 -41q0 -12 5.5 -22.5t18 -21.5t33.5 -23.5t53 -29.5q34 -18 65 -36.5t53.5 -40t36 -47t13.5 -58.5zM317 338
q-24 13 -45.5 25.5t-39.5 26.5q-27 -8 -44.5 -25t-17.5 -43q0 -12 3 -22.5t13 -22t30 -25.5t54 -33q23 -14 44 -26t39 -25q31 7 50 23.5t19 40.5q0 16 -5.5 28.5t-18.5 24.5t-33 24.5t-48 28.5z" />
    <glyph glyph-name="dieresis" unicode="&#xa8;" 
d="M375 695h124l-23 -114h-124zM158 695h124l-23 -114h-124z" />
    <glyph glyph-name="copyright" unicode="&#xa9;" horiz-adv-x="815" 
d="M424 -17q-77 0 -144.5 28t-117 77.5t-78 118t-28.5 148.5t28.5 148.5t78 118.5t117 78t144.5 28t144 -28t116.5 -78t78 -118.5t28.5 -148.5t-28.5 -148.5t-78 -118t-116.5 -77.5t-144 -28zM424 32q66 0 122.5 24.5t98 67.5t65 102.5t23.5 128.5t-23.5 128.5t-65 102.5
t-98 67.5t-122.5 24.5t-123 -24.5t-98.5 -67.5t-65 -102.5t-23.5 -128.5t23.5 -128.5t65 -102.5t98.5 -67.5t123 -24.5zM427 133q-48 0 -87.5 17t-67.5 47t-43.5 71t-15.5 90t15 90.5t43 72t68 47.5t89 17q41 0 74.5 -12t57.5 -33t38.5 -50t18.5 -63h-108q-5 28 -26 46.5
t-56 18.5q-51 0 -76 -38.5t-25 -95.5q0 -58 27.5 -95.5t74.5 -37.5q38 0 59.5 21.5t25.5 51.5h108q-2 -34 -16 -64t-37 -52q-50 -49 -141 -49z" />
    <glyph glyph-name="ordfeminine" unicode="&#xaa;" horiz-adv-x="474" 
d="M186 226q-27 0 -53 7.5t-46 23.5t-32 40.5t-12 58.5q0 44 16 71.5t43.5 44t64.5 24.5t79 11q62 5 90.5 13.5t28.5 41.5q0 23 -17 36t-49 13q-35 0 -57 -15t-30 -46h-114q12 69 63 109t143 40q38 0 70.5 -7t57.5 -24q30 -21 44 -57.5t3 -93.5l-41 -213q-9 -48 3 -63v-5
h-119q-5 7 -6.5 21t-0.5 29h-2q-22 -24 -52 -42t-75 -18zM230 311q42 0 69.5 21.5t35.5 54.5l14 69q-17 -8 -37 -12t-48 -9q-15 -3 -32.5 -5.5t-32 -9t-24 -19t-9.5 -33.5q0 -29 18 -43t46 -14z" />
    <glyph glyph-name="guillemotleft" unicode="&#xab;" horiz-adv-x="440" 
d="M228 196l25 132l167 129l-26 -132l-93 -71v-2l65 -71l-23 -122zM41 196l25 132l167 129l-26 -132l-93 -71v-2l65 -71l-23 -122z" />
    <glyph glyph-name="logicalnot" unicode="&#xac;" horiz-adv-x="505" 
d="M65 418h417l-53 -273h-103l33 175h-314z" />
    <glyph glyph-name="uni00AD" unicode="&#xad;" horiz-adv-x="334" 
d="M41 304h267l-22 -113h-267z" />
    <glyph glyph-name="registered" unicode="&#xae;" horiz-adv-x="522" 
d="M306 244q-50 0 -94 18.5t-76 50.5t-50.5 76.5t-18.5 96.5t18.5 96.5t50.5 76.5t76 50.5t94 18.5t93.5 -18.5t76 -50.5t51 -76.5t18.5 -96.5t-18.5 -96.5t-51 -76.5t-76 -50.5t-93.5 -18.5zM306 281q42 0 78 15.5t62 43t40.5 65t14.5 81.5t-14.5 81.5t-40.5 64.5t-62 42.5
t-78 15.5t-77.5 -15.5t-62 -42.5t-41 -64.5t-14.5 -81.5t14.5 -81.5t41 -65t62 -43t77.5 -15.5zM204 616h124q38 0 65 -19.5t27 -55.5q0 -46 -44 -61v-2q18 -5 26 -16.5t12 -29.5q5 -24 4.5 -43.5t7.5 -23.5v-5h-68q-5 3 -7 21.5t-4 37.5q-3 34 -40 34h-34v-93h-69v256z
M273 503h43q36 0 36 29t-36 29h-43v-58z" />
    <glyph glyph-name="macron" unicode="&#xaf;" 
d="M196 687h280l-18 -95h-280z" />
    <glyph glyph-name="degree" unicode="&#xb0;" horiz-adv-x="350" 
d="M233 418q-30 0 -56.5 11t-46.5 29.5t-31.5 44t-11.5 55.5t11.5 55.5t31.5 45t46.5 30.5t56.5 11t56.5 -11t46.5 -30.5t31.5 -45t11.5 -55.5t-11.5 -55.5t-31.5 -44t-46.5 -29.5t-56.5 -11zM233 481q34 0 54 22.5t20 54.5t-20 55.5t-54 23.5t-53.5 -23.5t-19.5 -55.5
t19.5 -54.5t53.5 -22.5z" />
    <glyph glyph-name="plusminus" unicode="&#xb1;" horiz-adv-x="560" 
d="M64 417h195l31 164h103l-31 -164h193l-19 -98h-194l-31 -164h-103l31 164h-194zM3 98h491l-19 -98h-491z" />
    <glyph glyph-name="twosuperior" unicode="&#xb2;" horiz-adv-x="350" 
d="M32 318q9 56 37 90t62 57q35 23 64.5 39t54.5 33q19 13 29.5 26t10.5 36q0 20 -11.5 31.5t-32.5 11.5q-26 0 -43.5 -19t-25.5 -55h-97q11 76 59 115.5t117 39.5q27 0 52 -7.5t44 -22t30.5 -36.5t11.5 -50q0 -24 -7.5 -43.5t-20 -35.5t-29 -28.5t-33.5 -23.5t-34.5 -20.5
t-34 -18.5t-31 -18.5t-23.5 -19.5h180l-16 -81h-313v0z" />
    <glyph glyph-name="threesuperior" unicode="&#xb3;" horiz-adv-x="355" 
d="M207 309q-36 0 -65.5 9.5t-51 28t-33 45.5t-9.5 61h98q-1 -31 14.5 -49.5t48.5 -18.5q27 0 43 15t16 41q0 49 -59 49h-22l14 69h26q26 0 43.5 12t17.5 36q0 20 -13.5 31t-34.5 11q-28 0 -44 -17t-21 -41h-96q9 58 53.5 95t114.5 37q62 0 102 -28t40 -79q-1 -34 -22 -57
t-53 -34v-1q24 -10 41 -30.5t17 -54.5q0 -32 -13.5 -56t-36.5 -40.5t-52.5 -25t-62.5 -8.5z" />
    <glyph glyph-name="acute" unicode="&#xb4;" 
d="M347 577h-105l74 141h157z" />
    <glyph glyph-name="mu" unicode="&#xb5;" horiz-adv-x="535" 
d="M188 -14q-22 0 -36 6t-22 15h-3l-34 -175h-133l131 681h134l-60 -308q-21 -106 64 -106q48 0 79 36t43 98l54 280h134l-99 -513h-129l14 73h-3q-30 -42 -61 -64.5t-73 -22.5z" />
    <glyph glyph-name="paragraph" unicode="&#xb6;" horiz-adv-x="559" 
d="M245 341q-85 0 -129.5 43t-44.5 115q0 48 17.5 91.5t55.5 75.5q55 49 158 49h291l-138 -715h-89l123 634h-68l-123 -634h-88l66 341h-31z" />
    <glyph glyph-name="periodcentered" unicode="&#xb7;" horiz-adv-x="215" 
d="M60 388h144l-28 -145h-144z" />
    <glyph glyph-name="cedilla" unicode="&#xb8;" 
d="M146 -192q-40 0 -64 7.5t-44 21.5l21 32q14 -7 32 -11t36 -4q8 0 18 1t19 5t15 11t6 18q0 12 -10.5 18.5t-25.5 6.5q-11 0 -20 -2t-18 -5l-12 22l73 71h58l-61 -50v-2q37 5 66 -9.5t30 -49.5q0 -22 -10.5 -37.5t-27.5 -25t-38 -14t-43 -4.5z" />
    <glyph glyph-name="onesuperior" unicode="&#xb9;" horiz-adv-x="247" 
d="M155 568h-89l13 69q46 2 78.5 20.5t47.5 60.5h82l-78 -400h-103z" />
    <glyph glyph-name="ordmasculine" unicode="&#xba;" horiz-adv-x="504" 
d="M271 222q-44 0 -83.5 13t-68.5 39t-46 65t-17 91q0 54 18 103t51 86t79.5 58.5t103.5 21.5q43 0 82 -13t69 -38.5t47.5 -64t17.5 -89.5q0 -55 -17.5 -104.5t-50.5 -86.5t-80 -59t-105 -22zM273 316q33 0 56.5 17t38 43.5t21.5 58.5t7 63q0 21 -5 40.5t-16 34.5t-28 24
t-41 9q-33 0 -56 -17t-38 -44t-22 -59.5t-7 -63.5q0 -21 5 -40.5t15.5 -34t28 -23t41.5 -8.5z" />
    <glyph glyph-name="guillemotright" unicode="&#xbb;" horiz-adv-x="440" 
d="M211 320l-25 -132l-167 -129l26 132l93 71v2l-65 71l23 122zM398 320l-25 -132l-167 -129l26 132l93 71v2l-65 71l23 122z" />
    <glyph glyph-name="onequarter" unicode="&#xbc;" horiz-adv-x="775" 
d="M583 84h-186l17 91l227 226h102l-47 -242h59l-14 -75h-60l-16 -84h-98zM655 715h90l-604 -715h-90zM161 568h-89l13 69q46 2 78.5 20.5t47.5 60.5h82l-78 -400h-103zM492 159h106l26 132h-2l-130 -130v-2z" />
    <glyph glyph-name="onehalf" unicode="&#xbd;" horiz-adv-x="785" 
d="M161 568h-89l13 69q46 2 78.5 20.5t47.5 60.5h82l-78 -400h-103zM638 715h90l-604 -715h-90zM423 0q9 56 37 90t62 57q35 23 64.5 39t54.5 33q19 13 29.5 26t10.5 36q0 20 -11.5 31.5t-32.5 11.5q-26 0 -43.5 -19t-25.5 -55h-97q11 76 59 115.5t117 39.5q27 0 52 -7.5
t44 -22t30.5 -36.5t11.5 -50q0 -24 -7.5 -43.5t-20 -35.5t-29 -28.5t-33.5 -23.5t-34.5 -20.5t-34 -18.5t-31 -18.5t-23.5 -19.5h180l-16 -81h-313z" />
    <glyph glyph-name="threequarters" unicode="&#xbe;" horiz-adv-x="820" 
d="M628 84h-186l17 91l227 226h102l-47 -242h59l-14 -75h-60l-16 -84h-98zM210 309q-36 0 -65.5 9.5t-51 28t-33 45.5t-9.5 61h98q-1 -31 14.5 -49.5t48.5 -18.5q27 0 43 15t16 41q0 49 -59 49h-22l14 69h26q26 0 43.5 12t17.5 36q0 20 -13.5 31t-34.5 11q-28 0 -44 -17
t-21 -41h-96q9 58 53.5 95t114.5 37q62 0 102 -28t40 -79q-1 -34 -22 -57t-53 -34v-1q24 -10 41 -30.5t17 -54.5q0 -32 -13.5 -56t-36.5 -40.5t-52.5 -25t-62.5 -8.5zM720 715h90l-604 -715h-90zM537 159h106l26 132h-2l-130 -130v-2z" />
    <glyph glyph-name="questiondown" unicode="&#xbf;" horiz-adv-x="517" 
d="M356 379q-9 -47 -22.5 -77.5t-31 -51.5t-39.5 -35.5t-47 -29.5q-19 -10 -37.5 -20.5t-33.5 -25t-24.5 -33.5t-9.5 -46q0 -43 26 -64.5t70 -21.5q51 0 90 30.5t50 95.5h130q-10 -55 -33.5 -99t-59.5 -75.5t-82 -48.5t-101 -17q-47 0 -88 12t-71.5 36t-48.5 59.5t-18 82.5
q0 69 33.5 114.5t97.5 84.5q32 19 54 31.5t37 25.5t24 29.5t14 43.5h121zM379 443h-144l28 145h144z" />
    <glyph glyph-name="Agrave" unicode="&#xc0;" horiz-adv-x="634" 
d="M415 153h-247l-72 -153h-145l366 715h148l118 -715h-148zM220 263h181l-25 201q-2 15 -3 35t-3 37q-2 20 -3 42h-2q-8 -22 -17 -42q-8 -17 -16 -36.5t-15 -33.5zM277 878h145l29 -125h-102z" />
    <glyph glyph-name="Aacute" unicode="&#xc1;" horiz-adv-x="634" 
d="M415 153h-247l-72 -153h-145l366 715h148l118 -715h-148zM220 263h181l-25 201q-2 15 -3 35t-3 37q-2 20 -3 42h-2q-8 -22 -17 -42q-8 -17 -16 -36.5t-15 -33.5zM446 753h-104l60 125h155z" />
    <glyph glyph-name="Acircumflex" unicode="&#xc2;" horiz-adv-x="634" 
d="M415 153h-247l-72 -153h-145l366 715h148l118 -715h-148zM220 263h181l-25 201q-2 15 -3 35t-3 37q-2 20 -3 42h-2q-8 -22 -17 -42q-8 -17 -16 -36.5t-15 -33.5zM340 867h144l75 -114h-113l-37 59h-2l-58 -59h-120z" />
    <glyph glyph-name="Atilde" unicode="&#xc3;" horiz-adv-x="634" 
d="M415 153h-247l-72 -153h-145l366 715h148l118 -715h-148zM220 263h181l-25 201q-2 15 -3 35t-3 37q-2 20 -3 42h-2q-8 -22 -17 -42q-8 -17 -16 -36.5t-15 -33.5zM457 755q-18 0 -33.5 5t-29 11.5t-25 11.5t-21.5 5q-23 0 -30 -31h-71q9 59 36 88.5t64 29.5
q18 0 33.5 -5.5t29 -12t25 -12t21.5 -5.5q14 0 21 8.5t12 22.5h71q-8 -51 -34 -83.5t-69 -32.5z" />
    <glyph glyph-name="Adieresis" unicode="&#xc4;" horiz-adv-x="634" 
d="M415 153h-247l-72 -153h-145l366 715h148l118 -715h-148zM220 263h181l-25 201q-2 15 -3 35t-3 37q-2 20 -3 42h-2q-8 -22 -17 -42q-8 -17 -16 -36.5t-15 -33.5zM452 867h126l-23 -114h-126zM253 867h126l-23 -114h-126z" />
    <glyph glyph-name="Aring" unicode="&#xc5;" horiz-adv-x="634" 
d="M415 153h-247l-72 -153h-145l366 715h148l118 -715h-148zM402 742q-40 0 -68.5 27t-28.5 67q0 19 7.5 36.5t21 30t31 20t37.5 7.5t37.5 -7.5t31 -20t21 -30t7.5 -36.5q0 -40 -28.5 -67t-68.5 -27zM220 263h181l-25 201q-2 15 -3 35t-3 37q-2 20 -3 42h-2q-8 -22 -17 -42
q-8 -17 -16 -36.5t-15 -33.5zM402 789q20 0 32.5 13.5t12.5 33.5t-12.5 33.5t-32.5 13.5t-32.5 -13.5t-12.5 -33.5t12.5 -33.5t32.5 -13.5z" />
    <glyph glyph-name="AE" unicode="&#xc6;" horiz-adv-x="941" 
d="M388 153h-212l-76 -153h-146l368 715h666l-23 -121h-348l-31 -161h305l-23 -118h-305l-38 -195h356l-23 -120h-499zM228 258h181l64 336h-78z" />
    <glyph glyph-name="Ccedilla" unicode="&#xc7;" horiz-adv-x="673" 
d="M268 -192q-40 0 -64 7.5t-44 21.5l21 32q14 -7 32 -11t36 -4q8 0 18 1t19 5t15 11t6 18q0 12 -10.5 18.5t-25.5 6.5q-11 0 -20 -2t-18 -5l-12 22l61 59q-60 7 -106 32.5t-77.5 65t-47.5 91.5t-16 112q0 82 25.5 161t74.5 141t120 100t162 38q54 0 101 -14t81.5 -43.5
t56 -75t24.5 -108.5h-141q-10 120 -133 120q-59 0 -101 -28.5t-70 -74.5t-41 -102.5t-13 -111.5q0 -37 8 -71t27 -60t50 -41.5t76 -15.5q63 0 105.5 33.5t61.5 93.5h141q-15 -57 -42.5 -104t-69.5 -79q-45 -34 -92.5 -47.5t-112.5 -14.5l-42 -35v-2q37 5 66 -9.5t30 -49.5
q0 -22 -10.5 -37.5t-27.5 -25t-38 -14t-43 -4.5z" />
    <glyph glyph-name="Egrave" unicode="&#xc8;" horiz-adv-x="593" 
d="M142 715h498l-23 -121h-355l-31 -161h312l-23 -118h-312l-38 -195h363l-23 -120h-506zM287 878h145l29 -125h-102z" />
    <glyph glyph-name="Eacute" unicode="&#xc9;" horiz-adv-x="593" 
d="M142 715h498l-23 -121h-355l-31 -161h312l-23 -118h-312l-38 -195h363l-23 -120h-506zM454 753h-104l60 125h155z" />
    <glyph glyph-name="Ecircumflex" unicode="&#xca;" horiz-adv-x="593" 
d="M142 715h498l-23 -121h-355l-31 -161h312l-23 -118h-312l-38 -195h363l-23 -120h-506zM351 867h144l75 -114h-113l-37 59h-2l-58 -59h-120z" />
    <glyph glyph-name="Edieresis" unicode="&#xcb;" horiz-adv-x="593" 
d="M142 715h498l-23 -121h-355l-31 -161h312l-23 -118h-312l-38 -195h363l-23 -120h-506zM460 867h126l-23 -114h-126zM261 867h126l-23 -114h-126z" />
    <glyph glyph-name="Igrave" unicode="&#xcc;" horiz-adv-x="253" 
d="M143 715h143l-138 -715h-143zM102 878h145l29 -125h-102z" />
    <glyph glyph-name="Iacute" unicode="&#xcd;" horiz-adv-x="253" 
d="M143 715h143l-138 -715h-143zM262 753h-104l60 125h155z" />
    <glyph glyph-name="Icircumflex" unicode="&#xce;" horiz-adv-x="253" 
d="M143 715h143l-138 -715h-143zM159 867h144l75 -114h-113l-37 59h-2l-58 -59h-120z" />
    <glyph glyph-name="Idieresis" unicode="&#xcf;" horiz-adv-x="253" 
d="M143 715h143l-138 -715h-143zM278 867h126l-23 -114h-126zM79 867h126l-23 -114h-126z" />
    <glyph glyph-name="Eth" unicode="&#xd0;" horiz-adv-x="669" 
d="M73 305h-62l21 114h63l57 296h227q66 0 119.5 -19t92 -57.5t59 -95t20.5 -131.5q0 -103 -25.5 -177t-78.5 -130q-47 -50 -118.5 -77.5t-152.5 -27.5h-281zM296 125q112 0 170.5 75.5t58.5 207.5q0 89 -41 136t-123 47h-90l-33 -172h162l-21 -114h-163l-35 -180h115z" />
    <glyph glyph-name="Ntilde" unicode="&#xd1;" horiz-adv-x="661" 
d="M142 715h143l146 -399q6 -17 11 -34.5t9 -33.5q4 -18 9 -36h2q3 21 7 43q3 19 6.5 40.5t7.5 40.5l73 379h139l-138 -715h-136l-153 398q-7 17 -12.5 35.5t-9.5 32.5q-4 17 -8 32h-2q-3 -22 -7 -44q-3 -19 -6.5 -40.5t-7.5 -40.5l-72 -373h-139zM481 755q-18 0 -33.5 5
t-29 11.5t-25 11.5t-21.5 5q-23 0 -30 -31h-71q9 59 36 88.5t64 29.5q18 0 33.5 -5.5t29 -12t25 -12t21.5 -5.5q14 0 21 8.5t12 22.5h71q-8 -51 -34 -83.5t-69 -32.5z" />
    <glyph glyph-name="Ograve" unicode="&#xd2;" horiz-adv-x="713" 
d="M346 -16q-69 0 -126 21t-98.5 60.5t-64 96.5t-22.5 129q0 86 24.5 165.5t72 140t117 96.5t159.5 36q69 0 126 -22t97.5 -63t62.5 -98.5t22 -128.5q0 -84 -23.5 -162.5t-70 -138.5t-116 -96t-160.5 -36zM181 294q0 -40 9.5 -75t30 -61t53 -41t78.5 -15q60 0 102 29
t67.5 74.5t37 100.5t11.5 107q0 42 -10 78t-31 62.5t-53 42t-77 15.5q-59 0 -100.5 -29.5t-67.5 -75t-38 -102t-12 -110.5zM305 878h145l29 -125h-102z" />
    <glyph glyph-name="Oacute" unicode="&#xd3;" horiz-adv-x="713" 
d="M346 -16q-69 0 -126 21t-98.5 60.5t-64 96.5t-22.5 129q0 86 24.5 165.5t72 140t117 96.5t159.5 36q69 0 126 -22t97.5 -63t62.5 -98.5t22 -128.5q0 -84 -23.5 -162.5t-70 -138.5t-116 -96t-160.5 -36zM181 294q0 -40 9.5 -75t30 -61t53 -41t78.5 -15q60 0 102 29
t67.5 74.5t37 100.5t11.5 107q0 42 -10 78t-31 62.5t-53 42t-77 15.5q-59 0 -100.5 -29.5t-67.5 -75t-38 -102t-12 -110.5zM472 753h-104l60 125h155z" />
    <glyph glyph-name="Ocircumflex" unicode="&#xd4;" horiz-adv-x="713" 
d="M346 -16q-69 0 -126 21t-98.5 60.5t-64 96.5t-22.5 129q0 86 24.5 165.5t72 140t117 96.5t159.5 36q69 0 126 -22t97.5 -63t62.5 -98.5t22 -128.5q0 -84 -23.5 -162.5t-70 -138.5t-116 -96t-160.5 -36zM181 294q0 -40 9.5 -75t30 -61t53 -41t78.5 -15q60 0 102 29
t67.5 74.5t37 100.5t11.5 107q0 42 -10 78t-31 62.5t-53 42t-77 15.5q-59 0 -100.5 -29.5t-67.5 -75t-38 -102t-12 -110.5zM368 867h144l75 -114h-113l-37 59h-2l-58 -59h-120z" />
    <glyph glyph-name="Otilde" unicode="&#xd5;" horiz-adv-x="713" 
d="M346 -16q-69 0 -126 21t-98.5 60.5t-64 96.5t-22.5 129q0 86 24.5 165.5t72 140t117 96.5t159.5 36q69 0 126 -22t97.5 -63t62.5 -98.5t22 -128.5q0 -84 -23.5 -162.5t-70 -138.5t-116 -96t-160.5 -36zM181 294q0 -40 9.5 -75t30 -61t53 -41t78.5 -15q60 0 102 29
t67.5 74.5t37 100.5t11.5 107q0 42 -10 78t-31 62.5t-53 42t-77 15.5q-59 0 -100.5 -29.5t-67.5 -75t-38 -102t-12 -110.5zM481 755q-18 0 -33.5 5t-29 11.5t-25 11.5t-21.5 5q-23 0 -30 -31h-71q9 59 36 88.5t64 29.5q18 0 33.5 -5.5t29 -12t25 -12t21.5 -5.5q14 0 21 8.5
t12 22.5h71q-8 -51 -34 -83.5t-69 -32.5z" />
    <glyph glyph-name="Odieresis" unicode="&#xd6;" horiz-adv-x="713" 
d="M346 -16q-69 0 -126 21t-98.5 60.5t-64 96.5t-22.5 129q0 86 24.5 165.5t72 140t117 96.5t159.5 36q69 0 126 -22t97.5 -63t62.5 -98.5t22 -128.5q0 -84 -23.5 -162.5t-70 -138.5t-116 -96t-160.5 -36zM181 294q0 -40 9.5 -75t30 -61t53 -41t78.5 -15q60 0 102 29
t67.5 74.5t37 100.5t11.5 107q0 42 -10 78t-31 62.5t-53 42t-77 15.5q-59 0 -100.5 -29.5t-67.5 -75t-38 -102t-12 -110.5zM483 867h126l-23 -114h-126zM284 867h126l-23 -114h-126z" />
    <glyph glyph-name="multiply" unicode="&#xd7;" horiz-adv-x="559" 
d="M224 325l-135 170l76 64l133 -167l185 167l63 -70l-189 -171l135 -169l-76 -64l-133 167l-185 -167l-62 70z" />
    <glyph glyph-name="Oslash" unicode="&#xd8;" horiz-adv-x="713" 
d="M346 -16q-64 0 -117.5 18t-94.5 52l-72 -76l-44 43l73 79q-27 37 -41.5 85t-14.5 106q0 86 24 165.5t71.5 140t116.5 96.5t159 36q63 0 115.5 -18t92.5 -52l62 67l46 -43l-65 -70q29 -38 44 -87.5t15 -108.5q0 -84 -23.5 -162.5t-70 -138.5t-116 -96t-160.5 -36zM571 413
q0 56 -13 94l-336 -358q42 -47 130 -47q60 0 102 29t68 74.5t37.5 100.5t11.5 107zM180 294q0 -25 2.5 -47t8.5 -41l334 358q-42 47 -126 47q-59 0 -101 -29.5t-68 -75t-38 -102t-12 -110.5z" />
    <glyph glyph-name="Ugrave" unicode="&#xd9;" horiz-adv-x="642" 
d="M299 -12q-66 0 -118.5 16t-86.5 48.5t-47.5 82t-0.5 116.5l90 464h143l-92 -475q-13 -64 13.5 -100.5t101.5 -36.5q34 0 58.5 9t41.5 24.5t27.5 37.5t15.5 48l95 493h142l-98 -506q-21 -107 -91 -164t-194 -57zM298 878h145l29 -125h-102z" />
    <glyph glyph-name="Uacute" unicode="&#xda;" horiz-adv-x="642" 
d="M299 -12q-66 0 -118.5 16t-86.5 48.5t-47.5 82t-0.5 116.5l90 464h143l-92 -475q-13 -64 13.5 -100.5t101.5 -36.5q34 0 58.5 9t41.5 24.5t27.5 37.5t15.5 48l95 493h142l-98 -506q-21 -107 -91 -164t-194 -57zM464 753h-104l60 125h155z" />
    <glyph glyph-name="Ucircumflex" unicode="&#xdb;" horiz-adv-x="642" 
d="M299 -12q-66 0 -118.5 16t-86.5 48.5t-47.5 82t-0.5 116.5l90 464h143l-92 -475q-13 -64 13.5 -100.5t101.5 -36.5q34 0 58.5 9t41.5 24.5t27.5 37.5t15.5 48l95 493h142l-98 -506q-21 -107 -91 -164t-194 -57zM362 867h144l75 -114h-113l-37 59h-2l-58 -59h-120z" />
    <glyph glyph-name="Udieresis" unicode="&#xdc;" horiz-adv-x="642" 
d="M299 -12q-66 0 -118.5 16t-86.5 48.5t-47.5 82t-0.5 116.5l90 464h143l-92 -475q-13 -64 13.5 -100.5t101.5 -36.5q34 0 58.5 9t41.5 24.5t27.5 37.5t15.5 48l95 493h142l-98 -506q-21 -107 -91 -164t-194 -57zM472 867h126l-23 -114h-126zM273 867h126l-23 -114h-126z
" />
    <glyph glyph-name="Yacute" unicode="&#xdd;" horiz-adv-x="607" 
d="M230 280l-140 435h147l61 -205q5 -17 9.5 -35.5t8.5 -34.5q4 -18 8 -37h2l21 35q9 15 20.5 33t23.5 35l145 209h155l-319 -439l-53 -276h-143zM440 753h-104l60 125h155z" />
    <glyph glyph-name="Thorn" unicode="&#xde;" horiz-adv-x="620" 
d="M142 715h148l-21 -109h127q51 0 93 -14t72 -41t46.5 -66.5t16.5 -89.5q0 -57 -19.5 -102.5t-55 -77t-85 -48t-109.5 -16.5h-174l-29 -151h-148zM205 269h144q25 0 48 7t41 22t28.5 38t10.5 55q0 44 -25 68.5t-74 24.5h-132z" />
    <glyph glyph-name="germandbls" unicode="&#xdf;" horiz-adv-x="542" 
d="M277 -9q-52 0 -97 13l20 97h2q16 -5 30 -6.5t27 -1.5q60 0 92.5 44.5t32.5 119.5q0 54 -25.5 85t-79.5 31h-26l16 82h35q45 0 75.5 26.5t30.5 75.5q0 33 -22 52.5t-55 19.5q-85 0 -104 -101l-102 -528h-134l104 540q8 42 28 77t50 59.5t70 38.5t89 14q40 0 76.5 -10
t64 -31t44 -52t16.5 -73q0 -56 -30.5 -93.5t-85.5 -57.5v-3q47 -21 71.5 -63t24.5 -96t-16 -101t-47 -82.5t-75 -55.5t-100 -20z" />
    <glyph glyph-name="agrave" unicode="&#xe0;" horiz-adv-x="514" 
d="M313 0q-5 8 -6.5 23.5t-0.5 32.5h-2q-23 -25 -55.5 -46.5t-87.5 -21.5q-30 0 -59 8.5t-52 27t-37.5 47t-14.5 68.5q0 51 19 82.5t51 50t74 26.5t89 12q36 3 61.5 6t41 9.5t23 17.5t7.5 30q0 28 -21 42.5t-59 14.5q-42 0 -69 -17.5t-36 -55.5h-120q13 79 71.5 124
t158.5 45q48 0 88 -11t67.5 -35t38.5 -63t1 -95l-48 -246q-5 -26 -3.5 -44t7.5 -27v-5h-127zM127 151q0 -35 21.5 -52.5t55.5 -17.5q26 0 47.5 7.5t37.5 20.5t26 29t14 34l16 81q-20 -9 -42.5 -14.5t-55.5 -11.5q-18 -3 -39 -5.5t-39 -9.5t-30 -21t-12 -40zM177 718h146
l41 -141h-102z" />
    <glyph glyph-name="aacute" unicode="&#xe1;" horiz-adv-x="514" 
d="M313 0q-5 8 -6.5 23.5t-0.5 32.5h-2q-23 -25 -55.5 -46.5t-87.5 -21.5q-30 0 -59 8.5t-52 27t-37.5 47t-14.5 68.5q0 51 19 82.5t51 50t74 26.5t89 12q36 3 61.5 6t41 9.5t23 17.5t7.5 30q0 28 -21 42.5t-59 14.5q-42 0 -69 -17.5t-36 -55.5h-120q13 79 71.5 124
t158.5 45q48 0 88 -11t67.5 -35t38.5 -63t1 -95l-48 -246q-5 -26 -3.5 -44t7.5 -27v-5h-127zM127 151q0 -35 21.5 -52.5t55.5 -17.5q26 0 47.5 7.5t37.5 20.5t26 29t14 34l16 81q-20 -9 -42.5 -14.5t-55.5 -11.5q-18 -3 -39 -5.5t-39 -9.5t-30 -21t-12 -40zM360 577h-105
l74 141h157z" />
    <glyph glyph-name="acircumflex" unicode="&#xe2;" horiz-adv-x="514" 
d="M313 0q-5 8 -6.5 23.5t-0.5 32.5h-2q-23 -25 -55.5 -46.5t-87.5 -21.5q-30 0 -59 8.5t-52 27t-37.5 47t-14.5 68.5q0 51 19 82.5t51 50t74 26.5t89 12q36 3 61.5 6t41 9.5t23 17.5t7.5 30q0 28 -21 42.5t-59 14.5q-42 0 -69 -17.5t-36 -55.5h-120q13 79 71.5 124
t158.5 45q48 0 88 -11t67.5 -35t38.5 -63t1 -95l-48 -246q-5 -26 -3.5 -44t7.5 -27v-5h-127zM127 151q0 -35 21.5 -52.5t55.5 -17.5q26 0 47.5 7.5t37.5 20.5t26 29t14 34l16 81q-20 -9 -42.5 -14.5t-55.5 -11.5q-18 -3 -39 -5.5t-39 -9.5t-30 -21t-12 -40zM257 707h142
l76 -126h-113l-37 69h-2l-58 -69h-120z" />
    <glyph glyph-name="atilde" unicode="&#xe3;" horiz-adv-x="514" 
d="M313 0q-5 8 -6.5 23.5t-0.5 32.5h-2q-23 -25 -55.5 -46.5t-87.5 -21.5q-30 0 -59 8.5t-52 27t-37.5 47t-14.5 68.5q0 51 19 82.5t51 50t74 26.5t89 12q36 3 61.5 6t41 9.5t23 17.5t7.5 30q0 28 -21 42.5t-59 14.5q-42 0 -69 -17.5t-36 -55.5h-120q13 79 71.5 124
t158.5 45q48 0 88 -11t67.5 -35t38.5 -63t1 -95l-48 -246q-5 -26 -3.5 -44t7.5 -27v-5h-127zM127 151q0 -35 21.5 -52.5t55.5 -17.5q26 0 47.5 7.5t37.5 20.5t26 29t14 34l16 81q-20 -9 -42.5 -14.5t-55.5 -11.5q-18 -3 -39 -5.5t-39 -9.5t-30 -21t-12 -40zM368 575
q-18 0 -32.5 5t-27.5 11.5t-23.5 11.5t-20.5 5q-23 0 -30 -31h-71q10 59 36.5 88.5t63.5 29.5q18 0 33 -5.5t27.5 -12t23 -12t20.5 -5.5q14 0 21 8.5t12 22.5h71q-9 -51 -34.5 -83.5t-68.5 -32.5z" />
    <glyph glyph-name="adieresis" unicode="&#xe4;" horiz-adv-x="514" 
d="M313 0q-5 8 -6.5 23.5t-0.5 32.5h-2q-23 -25 -55.5 -46.5t-87.5 -21.5q-30 0 -59 8.5t-52 27t-37.5 47t-14.5 68.5q0 51 19 82.5t51 50t74 26.5t89 12q36 3 61.5 6t41 9.5t23 17.5t7.5 30q0 28 -21 42.5t-59 14.5q-42 0 -69 -17.5t-36 -55.5h-120q13 79 71.5 124
t158.5 45q48 0 88 -11t67.5 -35t38.5 -63t1 -95l-48 -246q-5 -26 -3.5 -44t7.5 -27v-5h-127zM127 151q0 -35 21.5 -52.5t55.5 -17.5q26 0 47.5 7.5t37.5 20.5t26 29t14 34l16 81q-20 -9 -42.5 -14.5t-55.5 -11.5q-18 -3 -39 -5.5t-39 -9.5t-30 -21t-12 -40zM383 695h124
l-23 -114h-124zM166 695h124l-23 -114h-124z" />
    <glyph glyph-name="aring" unicode="&#xe5;" horiz-adv-x="514" 
d="M313 0q-5 8 -6.5 23.5t-0.5 32.5h-2q-23 -25 -55.5 -46.5t-87.5 -21.5q-30 0 -59 8.5t-52 27t-37.5 47t-14.5 68.5q0 51 19 82.5t51 50t74 26.5t89 12q36 3 61.5 6t41 9.5t23 17.5t7.5 30q0 28 -21 42.5t-59 14.5q-42 0 -69 -17.5t-36 -55.5h-120q13 79 71.5 124
t158.5 45q48 0 88 -11t67.5 -35t38.5 -63t1 -95l-48 -246q-5 -26 -3.5 -44t7.5 -27v-5h-127zM127 151q0 -35 21.5 -52.5t55.5 -17.5q26 0 47.5 7.5t37.5 20.5t26 29t14 34l16 81q-20 -9 -42.5 -14.5t-55.5 -11.5q-18 -3 -39 -5.5t-39 -9.5t-30 -21t-12 -40zM319 561
q-40 0 -68.5 27t-28.5 67q0 19 7.5 36.5t21 30t31 20t37.5 7.5t37.5 -7.5t31 -20t21 -30t7.5 -36.5q0 -40 -28.5 -67t-68.5 -27zM319 608q20 0 32.5 13.5t12.5 33.5t-12.5 33.5t-32.5 13.5t-32.5 -13.5t-12.5 -33.5t12.5 -33.5t32.5 -13.5z" />
    <glyph glyph-name="ae" unicode="&#xe6;" horiz-adv-x="855" 
d="M289 526q54 0 96.5 -14.5t66.5 -46.5q32 29 73 45.5t89 16.5q42 0 72.5 -8t56.5 -25q58 -38 79 -110t7 -165h-357q0 -61 23 -95.5t82 -34.5q35 0 63 15.5t42 48.5h132q-24 -72 -79 -115q-65 -51 -160 -53q-66 0 -117 24t-80 75q-15 -21 -33 -38.5t-42 -30t-55 -20
t-70 -7.5q-38 0 -70.5 8.5t-57 27t-38.5 47t-14 68.5q0 51 19 82.5t51 49.5t74 25.5t89 11.5q36 3 61.5 6.5t41 10t23 18t7.5 30.5q0 28 -21 42.5t-59 14.5q-42 0 -69 -17.5t-36 -55.5h-120q13 79 71.5 124t158.5 45zM127 151q0 -35 21.5 -52.5t55.5 -17.5q53 0 85.5 28
t41.5 72l14 70q-20 -9 -42.5 -14.5t-55.5 -11.5q-18 -3 -39 -5.5t-39 -9t-30 -20t-12 -39.5zM611 423q-53 0 -83.5 -33t-43.5 -78h221q1 22 -4 42.5t-16.5 35.5t-29.5 24t-44 9z" />
    <glyph glyph-name="ccedilla" unicode="&#xe7;" horiz-adv-x="514" 
d="M183 -192q-40 0 -64 7.5t-44 21.5l21 32q14 -7 32 -11t36 -4q8 0 18 1t19 5t15 11t6 18q0 12 -10.5 18.5t-25.5 6.5q-11 0 -20 -2t-18 -5l-12 22l61 60q-39 6 -72 22.5t-57 44t-38 66.5t-14 90q0 59 19 115.5t55 101t88 71.5t118 27q43 0 80.5 -10.5t66 -33t46 -58.5
t20.5 -86h-131q-4 37 -24.5 58.5t-61.5 21.5q-37 0 -64 -19t-44 -49.5t-25.5 -68t-8.5 -74.5q0 -25 5.5 -46t18 -36.5t32 -24t47.5 -8.5q38 0 65.5 21t41.5 67h130q-21 -92 -84.5 -143t-157.5 -53l-42 -35v-2q37 5 66 -9.5t30 -49.5q0 -22 -10.5 -37.5t-27.5 -25t-38 -14
t-43 -4.5z" />
    <glyph glyph-name="egrave" unicode="&#xe8;" horiz-adv-x="532" 
d="M149 219q0 -61 23 -95.5t82 -34.5q35 0 63 15.5t42 48.5h132q-24 -72 -79 -115q-65 -51 -160 -53q-50 0 -93 14t-75 43t-50 73.5t-18 105.5q0 56 19.5 110.5t55.5 98t87 70.5t113 27q42 0 72.5 -8t56.5 -25q58 -38 79 -110t7 -165h-357zM288 423q-53 0 -83.5 -33
t-43.5 -78h221q1 22 -4 42.5t-16.5 35.5t-29.5 24t-44 9zM170 718h146l41 -141h-102z" />
    <glyph glyph-name="eacute" unicode="&#xe9;" horiz-adv-x="532" 
d="M149 219q0 -61 23 -95.5t82 -34.5q35 0 63 15.5t42 48.5h132q-24 -72 -79 -115q-65 -51 -160 -53q-50 0 -93 14t-75 43t-50 73.5t-18 105.5q0 56 19.5 110.5t55.5 98t87 70.5t113 27q42 0 72.5 -8t56.5 -25q58 -38 79 -110t7 -165h-357zM288 423q-53 0 -83.5 -33
t-43.5 -78h221q1 22 -4 42.5t-16.5 35.5t-29.5 24t-44 9zM355 577h-105l74 141h157z" />
    <glyph glyph-name="ecircumflex" unicode="&#xea;" horiz-adv-x="532" 
d="M149 219q0 -61 23 -95.5t82 -34.5q35 0 63 15.5t42 48.5h132q-24 -72 -79 -115q-65 -51 -160 -53q-50 0 -93 14t-75 43t-50 73.5t-18 105.5q0 56 19.5 110.5t55.5 98t87 70.5t113 27q42 0 72.5 -8t56.5 -25q58 -38 79 -110t7 -165h-357zM249 707h142l76 -126h-113l-37 69
h-2l-58 -69h-120zM288 423q-53 0 -83.5 -33t-43.5 -78h221q1 22 -4 42.5t-16.5 35.5t-29.5 24t-44 9z" />
    <glyph glyph-name="edieresis" unicode="&#xeb;" horiz-adv-x="532" 
d="M149 219q0 -61 23 -95.5t82 -34.5q35 0 63 15.5t42 48.5h132q-24 -72 -79 -115q-65 -51 -160 -53q-50 0 -93 14t-75 43t-50 73.5t-18 105.5q0 56 19.5 110.5t55.5 98t87 70.5t113 27q42 0 72.5 -8t56.5 -25q58 -38 79 -110t7 -165h-357zM288 423q-53 0 -83.5 -33
t-43.5 -78h221q1 22 -4 42.5t-16.5 35.5t-29.5 24t-44 9zM373 695h124l-23 -114h-124zM156 695h124l-23 -114h-124z" />
    <glyph glyph-name="igrave" unicode="&#xec;" horiz-adv-x="220" 
d="M92 513h134l-99 -513h-134zM38 718h146l41 -141h-102z" />
    <glyph glyph-name="iacute" unicode="&#xed;" horiz-adv-x="220" 
d="M92 513h134l-99 -513h-134zM224 577h-105l74 141h157z" />
    <glyph glyph-name="icircumflex" unicode="&#xee;" horiz-adv-x="220" 
d="M92 513h134l-99 -513h-134zM117 707h136l53 -126h-104l-22 66h-2l-43 -66h-108z" />
    <glyph glyph-name="idieresis" unicode="&#xef;" horiz-adv-x="220" 
d="M92 513h134l-99 -513h-134zM211 695h106l-23 -114h-106zM70 695h106l-23 -114h-106z" />
    <glyph glyph-name="eth" unicode="&#xf0;" horiz-adv-x="561" 
d="M287 630q-23 23 -47 44t-49 41h161q30 -22 56 -48l104 32l14 -53l-78 -24q41 -51 68 -122t27 -168q0 -83 -20 -147.5t-57 -109t-89.5 -67.5t-117.5 -23q-51 0 -95.5 15.5t-77 46t-51 75t-18.5 103.5q0 61 20.5 114.5t56 93.5t84.5 63t106 23q38 0 65.5 -15t47.5 -41h2
q-14 35 -31.5 65t-39.5 57l-144 -43l-14 53zM151 217q0 -26 6 -50t19 -42t33.5 -28.5t50.5 -10.5q39 0 67 19t46 49.5t26.5 68t8.5 74.5q0 25 -6.5 48t-20 40.5t-34 28t-49.5 10.5q-39 0 -66.5 -18.5t-45.5 -48t-26.5 -66.5t-8.5 -74z" />
    <glyph glyph-name="ntilde" unicode="&#xf1;" horiz-adv-x="536" 
d="M208 432h3q33 48 69 71.5t91 23.5q38 0 67.5 -15t48 -41.5t25 -64t-2.5 -82.5l-62 -324h-134l60 308q10 51 -8.5 78t-61.5 27q-24 0 -44 -10t-35.5 -28t-26.5 -42.5t-16 -52.5l-54 -280h-134l99 513h131zM383 575q-18 0 -32.5 5t-27.5 11.5t-23.5 11.5t-20.5 5
q-23 0 -30 -31h-71q10 59 36.5 88.5t63.5 29.5q18 0 33 -5.5t27.5 -12t23 -12t20.5 -5.5q14 0 21 8.5t12 22.5h71q-9 -51 -34.5 -83.5t-68.5 -32.5z" />
    <glyph glyph-name="ograve" unicode="&#xf2;" horiz-adv-x="561" 
d="M258 -15q-50 0 -94 15.5t-76.5 45.5t-51.5 74.5t-19 103.5q0 61 20.5 116t58.5 96.5t91 66t119 24.5q49 0 92 -15t75.5 -45t51 -73.5t18.5 -100.5q0 -62 -20 -117.5t-57 -98t-89.5 -67.5t-118.5 -25zM151 216q0 -26 6 -49.5t19.5 -41.5t34 -28.5t50.5 -10.5q39 0 67 19
t46 49.5t26.5 68t8.5 74.5q0 25 -6 48.5t-19.5 41.5t-34 28.5t-50.5 10.5q-39 0 -67 -19t-46 -49t-26.5 -67.5t-8.5 -74.5zM182 718h146l41 -141h-102z" />
    <glyph glyph-name="oacute" unicode="&#xf3;" horiz-adv-x="561" 
d="M258 -15q-50 0 -94 15.5t-76.5 45.5t-51.5 74.5t-19 103.5q0 61 20.5 116t58.5 96.5t91 66t119 24.5q49 0 92 -15t75.5 -45t51 -73.5t18.5 -100.5q0 -62 -20 -117.5t-57 -98t-89.5 -67.5t-118.5 -25zM151 216q0 -26 6 -49.5t19.5 -41.5t34 -28.5t50.5 -10.5q39 0 67 19
t46 49.5t26.5 68t8.5 74.5q0 25 -6 48.5t-19.5 41.5t-34 28.5t-50.5 10.5q-39 0 -67 -19t-46 -49t-26.5 -67.5t-8.5 -74.5zM372 577h-105l74 141h157z" />
    <glyph glyph-name="ocircumflex" unicode="&#xf4;" horiz-adv-x="561" 
d="M258 -15q-50 0 -94 15.5t-76.5 45.5t-51.5 74.5t-19 103.5q0 61 20.5 116t58.5 96.5t91 66t119 24.5q49 0 92 -15t75.5 -45t51 -73.5t18.5 -100.5q0 -62 -20 -117.5t-57 -98t-89.5 -67.5t-118.5 -25zM151 216q0 -26 6 -49.5t19.5 -41.5t34 -28.5t50.5 -10.5q39 0 67 19
t46 49.5t26.5 68t8.5 74.5q0 25 -6 48.5t-19.5 41.5t-34 28.5t-50.5 10.5q-39 0 -67 -19t-46 -49t-26.5 -67.5t-8.5 -74.5zM263 707h142l76 -126h-113l-37 69h-2l-58 -69h-120z" />
    <glyph glyph-name="otilde" unicode="&#xf5;" horiz-adv-x="561" 
d="M258 -15q-50 0 -94 15.5t-76.5 45.5t-51.5 74.5t-19 103.5q0 61 20.5 116t58.5 96.5t91 66t119 24.5q49 0 92 -15t75.5 -45t51 -73.5t18.5 -100.5q0 -62 -20 -117.5t-57 -98t-89.5 -67.5t-118.5 -25zM151 216q0 -26 6 -49.5t19.5 -41.5t34 -28.5t50.5 -10.5q39 0 67 19
t46 49.5t26.5 68t8.5 74.5q0 25 -6 48.5t-19.5 41.5t-34 28.5t-50.5 10.5q-39 0 -67 -19t-46 -49t-26.5 -67.5t-8.5 -74.5zM367 575q-18 0 -32.5 5t-27.5 11.5t-23.5 11.5t-20.5 5q-23 0 -30 -31h-71q10 59 36.5 88.5t63.5 29.5q18 0 33 -5.5t27.5 -12t23 -12t20.5 -5.5
q14 0 21 8.5t12 22.5h71q-9 -51 -34.5 -83.5t-68.5 -32.5z" />
    <glyph glyph-name="odieresis" unicode="&#xf6;" horiz-adv-x="561" 
d="M258 -15q-50 0 -94 15.5t-76.5 45.5t-51.5 74.5t-19 103.5q0 61 20.5 116t58.5 96.5t91 66t119 24.5q49 0 92 -15t75.5 -45t51 -73.5t18.5 -100.5q0 -62 -20 -117.5t-57 -98t-89.5 -67.5t-118.5 -25zM151 216q0 -26 6 -49.5t19.5 -41.5t34 -28.5t50.5 -10.5q39 0 67 19
t46 49.5t26.5 68t8.5 74.5q0 25 -6 48.5t-19.5 41.5t-34 28.5t-50.5 10.5q-39 0 -67 -19t-46 -49t-26.5 -67.5t-8.5 -74.5zM392 695h124l-23 -114h-124zM175 695h124l-23 -114h-124z" />
    <glyph glyph-name="divide" unicode="&#xf7;" horiz-adv-x="560" 
d="M198 207h143l-26 -133h-143zM271 582h143l-26 -132h-143zM57 377h491l-19 -98h-491z" />
    <glyph glyph-name="oslash" unicode="&#xf8;" horiz-adv-x="561" 
d="M259 -15q-44 0 -82.5 11t-69.5 33l-62 -65l-39 37l62 65q-24 29 -37.5 68.5t-13.5 89.5q0 61 20.5 116t58.5 96.5t91 66t119 24.5q44 0 82.5 -12t69.5 -35l58 61l39 -37l-59 -62q23 -29 35 -66t12 -83q0 -62 -20 -117.5t-57 -98t-89.5 -67.5t-117.5 -25zM149 216
q0 -34 7 -56l223 236q-30 30 -80 30q-39 0 -67 -19t-46.5 -49t-27.5 -67.5t-9 -74.5zM411 297q0 27 -6 48l-221 -234q28 -25 77 -25q39 0 67.5 19t46.5 49.5t27 68t9 74.5z" />
    <glyph glyph-name="ugrave" unicode="&#xf9;" horiz-adv-x="530" 
d="M320 73h-3q-30 -42 -66 -64.5t-87 -22.5q-81 0 -119.5 54t-20.5 149l62 324h134l-60 -308q-21 -106 64 -106q48 0 79 36t43 98l54 280h134l-99 -513h-129zM186 718h146l41 -141h-102z" />
    <glyph glyph-name="uacute" unicode="&#xfa;" horiz-adv-x="530" 
d="M320 73h-3q-30 -42 -66 -64.5t-87 -22.5q-81 0 -119.5 54t-20.5 149l62 324h134l-60 -308q-21 -106 64 -106q48 0 79 36t43 98l54 280h134l-99 -513h-129zM369 577h-105l74 141h157z" />
    <glyph glyph-name="ucircumflex" unicode="&#xfb;" horiz-adv-x="530" 
d="M320 73h-3q-30 -42 -66 -64.5t-87 -22.5q-81 0 -119.5 54t-20.5 149l62 324h134l-60 -308q-21 -106 64 -106q48 0 79 36t43 98l54 280h134l-99 -513h-129zM268 707h142l76 -126h-113l-37 69h-2l-58 -69h-120z" />
    <glyph glyph-name="udieresis" unicode="&#xfc;" horiz-adv-x="530" 
d="M320 73h-3q-30 -42 -66 -64.5t-87 -22.5q-81 0 -119.5 54t-20.5 149l62 324h134l-60 -308q-21 -106 64 -106q48 0 79 36t43 98l54 280h134l-99 -513h-129zM393 695h124l-23 -114h-124zM176 695h124l-23 -114h-124z" />
    <glyph glyph-name="yacute" unicode="&#xfd;" horiz-adv-x="488" 
d="M8 -62h43q43 0 66 23.5t23 71.5q0 35 -17 115l-74 365h140l35 -233q2 -18 5 -38.5t5 -37.5q3 -20 5 -40h2q7 20 15 40q7 17 15.5 37.5t16.5 38.5l106 233h136l-265 -538q-19 -39 -38 -66t-41 -44t-50 -25t-65 -8h-84zM347 577h-105l74 141h157z" />
    <glyph glyph-name="thorn" unicode="&#xfe;" horiz-adv-x="562" 
d="M131 715h134l-51 -262h3q27 32 63.5 53t88.5 21q43 0 76 -17t55.5 -47t34 -71t11.5 -89q0 -54 -14.5 -110.5t-45 -102.5t-78.5 -75.5t-115 -29.5q-47 0 -87.5 21t-62.5 66h-2l-47 -240h-134zM168 215q0 -23 6 -44.5t19 -38t33 -26t47 -9.5q38 0 64 18t42 47t23 65t7 71
q0 22 -5 44t-16.5 38.5t-30.5 27t-46 10.5q-36 0 -63 -18.5t-44.5 -48t-26.5 -65.5t-9 -71z" />
    <glyph glyph-name="ydieresis" unicode="&#xff;" horiz-adv-x="488" 
d="M8 -62h43q43 0 66 23.5t23 71.5q0 35 -17 115l-74 365h140l35 -233q2 -18 5 -38.5t5 -37.5q3 -20 5 -40h2q7 20 15 40q7 17 15.5 37.5t16.5 38.5l106 233h136l-265 -538q-19 -39 -38 -66t-41 -44t-50 -25t-65 -8h-84zM368 695h124l-23 -114h-124zM151 695h124l-23 -114
h-124z" />
    <glyph glyph-name="Amacron" unicode="&#x100;" horiz-adv-x="634" 
d="M415 153h-247l-72 -153h-145l366 715h148l118 -715h-148zM220 263h181l-25 201q-2 15 -3 35t-3 37q-2 20 -3 42h-2q-8 -22 -17 -42q-8 -17 -16 -36.5t-15 -33.5zM275 857h280l-18 -95h-280z" />
    <glyph glyph-name="amacron" unicode="&#x101;" horiz-adv-x="514" 
d="M313 0q-5 8 -6.5 23.5t-0.5 32.5h-2q-23 -25 -55.5 -46.5t-87.5 -21.5q-30 0 -59 8.5t-52 27t-37.5 47t-14.5 68.5q0 51 19 82.5t51 50t74 26.5t89 12q36 3 61.5 6t41 9.5t23 17.5t7.5 30q0 28 -21 42.5t-59 14.5q-42 0 -69 -17.5t-36 -55.5h-120q13 79 71.5 124
t158.5 45q48 0 88 -11t67.5 -35t38.5 -63t1 -95l-48 -246q-5 -26 -3.5 -44t7.5 -27v-5h-127zM127 151q0 -35 21.5 -52.5t55.5 -17.5q26 0 47.5 7.5t37.5 20.5t26 29t14 34l16 81q-20 -9 -42.5 -14.5t-55.5 -11.5q-18 -3 -39 -5.5t-39 -9.5t-30 -21t-12 -40zM193 687h280
l-18 -95h-280z" />
    <glyph glyph-name="Abreve" unicode="&#x102;" horiz-adv-x="634" 
d="M415 153h-247l-72 -153h-145l366 715h148l118 -715h-148zM220 263h181l-25 201q-2 15 -3 35t-3 37q-2 20 -3 42h-2q-8 -22 -17 -42q-8 -17 -16 -36.5t-15 -33.5zM403 749q-66 0 -101 38t-36 95h76q2 -22 17.5 -35t46.5 -13q29 0 47 13.5t25 34.5h77q-11 -58 -50.5 -95.5
t-101.5 -37.5z" />
    <glyph glyph-name="abreve" unicode="&#x103;" horiz-adv-x="514" 
d="M313 0q-5 8 -6.5 23.5t-0.5 32.5h-2q-23 -25 -55.5 -46.5t-87.5 -21.5q-30 0 -59 8.5t-52 27t-37.5 47t-14.5 68.5q0 51 19 82.5t51 50t74 26.5t89 12q36 3 61.5 6t41 9.5t23 17.5t7.5 30q0 28 -21 42.5t-59 14.5q-42 0 -69 -17.5t-36 -55.5h-120q13 79 71.5 124
t158.5 45q48 0 88 -11t67.5 -35t38.5 -63t1 -95l-48 -246q-5 -26 -3.5 -44t7.5 -27v-5h-127zM127 151q0 -35 21.5 -52.5t55.5 -17.5q26 0 47.5 7.5t37.5 20.5t26 29t14 34l16 81q-20 -9 -42.5 -14.5t-55.5 -11.5q-18 -3 -39 -5.5t-39 -9.5t-30 -21t-12 -40zM317 573
q-66 0 -101 38t-36 95h76q2 -22 17.5 -35t46.5 -13q29 0 47 13.5t25 34.5h77q-11 -58 -50.5 -95.5t-101.5 -37.5z" />
    <glyph glyph-name="Aogonek" unicode="&#x104;" horiz-adv-x="634" 
d="M506 -174q-20 0 -38.5 4.5t-32.5 14t-23 24t-9 34.5q0 34 22.5 58t51.5 39h-42l-20 153h-247l-72 -153h-145l366 715h148l117 -711q-9 -6 -22 -14.5t-24 -18.5t-19 -21.5t-8 -22.5q0 -23 31 -23q8 0 15 2t13 4h2l-15 -76q-8 -3 -20 -5.5t-29 -2.5zM220 263h181l-25 201
q-2 15 -3 35t-3 37q-2 20 -3 42h-2q-8 -22 -17 -42q-8 -17 -16 -36.5t-15 -33.5z" />
    <glyph glyph-name="aogonek" unicode="&#x105;" horiz-adv-x="514" 
d="M313 0q-5 8 -6.5 23.5t-0.5 32.5h-2q-23 -25 -55.5 -46.5t-87.5 -21.5q-30 0 -59 8.5t-52 27t-37.5 47t-14.5 68.5q0 51 19 82.5t51 50t74 26.5t89 12q36 3 61.5 6t41 9.5t23 17.5t7.5 30q0 28 -21 42.5t-59 14.5q-42 0 -69 -17.5t-36 -55.5h-120q13 79 71.5 124
t158.5 45q48 0 88 -11t67.5 -35t38.5 -63t1 -95l-48 -246q-5 -26 -3.5 -44t7.5 -27v-5q-8 -4 -19.5 -12t-22.5 -17.5t-19 -21t-8 -22.5q0 -23 31 -23q8 0 15 2t13 4h2l-15 -76q-8 -3 -20 -5.5t-29 -2.5q-20 0 -38.5 4.5t-32.5 14t-23 24t-9 34.5q0 18 7 33t19 26.5
t27.5 20.5t31.5 17h-37zM127 151q0 -35 21.5 -52.5t55.5 -17.5q26 0 47.5 7.5t37.5 20.5t26 29t14 34l16 81q-20 -9 -42.5 -14.5t-55.5 -11.5q-18 -3 -39 -5.5t-39 -9.5t-30 -21t-12 -40z" />
    <glyph glyph-name="Cacute" unicode="&#x106;" horiz-adv-x="673" 
d="M331 -15q-71 0 -126.5 22.5t-93 63t-57 96.5t-19.5 122q0 82 25.5 161t74.5 141t120 100t162 38q54 0 101 -14t81.5 -43.5t56 -75t24.5 -108.5h-141q-10 120 -133 120q-59 0 -101 -28.5t-70 -74.5t-41 -102.5t-13 -111.5q0 -37 8 -71t27 -60t50 -41.5t76 -15.5
q63 0 105.5 33.5t61.5 93.5h141q-15 -57 -42.5 -104t-69.5 -79q-45 -34 -93 -48t-114 -14zM478 753h-104l60 125h155z" />
    <glyph glyph-name="cacute" unicode="&#x107;" horiz-adv-x="514" 
d="M245 -15q-47 0 -88.5 13.5t-73 41t-49.5 70.5t-18 102t19 115.5t55 101t88 71.5t118 27q43 0 80.5 -10.5t66 -33t46 -58.5t20.5 -86h-131q-4 37 -24.5 58.5t-61.5 21.5q-37 0 -64 -19t-44 -49.5t-25.5 -68t-8.5 -74.5q0 -25 5.5 -46t18 -36.5t32 -24t47.5 -8.5
q38 0 65.5 21t41.5 67h130q-21 -93 -85.5 -144.5t-159.5 -51.5zM362 577h-105l74 141h157z" />
    <glyph glyph-name="Ccircumflex" unicode="&#x108;" horiz-adv-x="673" 
d="M331 -15q-71 0 -126.5 22.5t-93 63t-57 96.5t-19.5 122q0 82 25.5 161t74.5 141t120 100t162 38q54 0 101 -14t81.5 -43.5t56 -75t24.5 -108.5h-141q-10 120 -133 120q-59 0 -101 -28.5t-70 -74.5t-41 -102.5t-13 -111.5q0 -37 8 -71t27 -60t50 -41.5t76 -15.5
q63 0 105.5 33.5t61.5 93.5h141q-15 -57 -42.5 -104t-69.5 -79q-45 -34 -93 -48t-114 -14zM370 867h144l75 -114h-113l-37 59h-2l-58 -59h-120z" />
    <glyph glyph-name="ccircumflex" unicode="&#x109;" horiz-adv-x="514" 
d="M245 -15q-47 0 -88.5 13.5t-73 41t-49.5 70.5t-18 102t19 115.5t55 101t88 71.5t118 27q43 0 80.5 -10.5t66 -33t46 -58.5t20.5 -86h-131q-4 37 -24.5 58.5t-61.5 21.5q-37 0 -64 -19t-44 -49.5t-25.5 -68t-8.5 -74.5q0 -25 5.5 -46t18 -36.5t32 -24t47.5 -8.5
q38 0 65.5 21t41.5 67h130q-21 -93 -85.5 -144.5t-159.5 -51.5zM254 707h142l76 -126h-113l-37 69h-2l-58 -69h-120z" />
    <glyph glyph-name="Cdotaccent" unicode="&#x10a;" horiz-adv-x="673" 
d="M331 -15q-71 0 -126.5 22.5t-93 63t-57 96.5t-19.5 122q0 82 25.5 161t74.5 141t120 100t162 38q54 0 101 -14t81.5 -43.5t56 -75t24.5 -108.5h-141q-10 120 -133 120q-59 0 -101 -28.5t-70 -74.5t-41 -102.5t-13 -111.5q0 -37 8 -71t27 -60t50 -41.5t76 -15.5
q63 0 105.5 33.5t61.5 93.5h141q-15 -57 -42.5 -104t-69.5 -79q-45 -34 -93 -48t-114 -14zM378 871h134l-24 -118h-134z" />
    <glyph glyph-name="cdotaccent" unicode="&#x10b;" horiz-adv-x="514" 
d="M245 -15q-47 0 -88.5 13.5t-73 41t-49.5 70.5t-18 102t19 115.5t55 101t88 71.5t118 27q43 0 80.5 -10.5t66 -33t46 -58.5t20.5 -86h-131q-4 37 -24.5 58.5t-61.5 21.5q-37 0 -64 -19t-44 -49.5t-25.5 -68t-8.5 -74.5q0 -25 5.5 -46t18 -36.5t32 -24t47.5 -8.5
q38 0 65.5 21t41.5 67h130q-21 -93 -85.5 -144.5t-159.5 -51.5zM264 715h134l-23 -122h-134z" />
    <glyph glyph-name="Ccaron" unicode="&#x10c;" horiz-adv-x="673" 
d="M331 -15q-71 0 -126.5 22.5t-93 63t-57 96.5t-19.5 122q0 82 25.5 161t74.5 141t120 100t162 38q54 0 101 -14t81.5 -43.5t56 -75t24.5 -108.5h-141q-10 120 -133 120q-59 0 -101 -28.5t-70 -74.5t-41 -102.5t-13 -111.5q0 -37 8 -71t27 -60t50 -41.5t76 -15.5
q63 0 105.5 33.5t61.5 93.5h141q-15 -57 -42.5 -104t-69.5 -79q-45 -34 -93 -48t-114 -14zM494 753h-144l-75 114h113l37 -59h2l58 59h120z" />
    <glyph glyph-name="ccaron" unicode="&#x10d;" horiz-adv-x="514" 
d="M245 -15q-47 0 -88.5 13.5t-73 41t-49.5 70.5t-18 102t19 115.5t55 101t88 71.5t118 27q43 0 80.5 -10.5t66 -33t46 -58.5t20.5 -86h-131q-4 37 -24.5 58.5t-61.5 21.5q-37 0 -64 -19t-44 -49.5t-25.5 -68t-8.5 -74.5q0 -25 5.5 -46t18 -36.5t32 -24t47.5 -8.5
q38 0 65.5 21t41.5 67h130q-21 -93 -85.5 -144.5t-159.5 -51.5zM381 576h-142l-76 126h113l37 -69h2l58 69h120z" />
    <glyph glyph-name="Dcaron" unicode="&#x10e;" horiz-adv-x="659" 
d="M142 715h227q66 0 119.5 -19t92 -57.5t59 -95t20.5 -131.5q0 -103 -25.5 -177t-78.5 -130q-47 -50 -118.5 -77.5t-152.5 -27.5h-281zM286 125q112 0 170.5 75.5t58.5 207.5q0 89 -41 136t-123 47h-90l-90 -466h115zM455 753h-144l-75 114h113l37 -59h2l58 59h120z" />
    <glyph glyph-name="dcaron" unicode="&#x10f;" horiz-adv-x="563" 
d="M208 -15q-44 0 -79 16t-59.5 45t-38 71t-13.5 93q0 59 17.5 116t50.5 101.5t81 72t108 27.5q51 0 87.5 -21.5t56.5 -61.5h3l52 271h134l-138 -715h-129l10 56h-2q-27 -35 -60 -53t-81 -18zM154 218q0 -26 5 -48t16.5 -38.5t30.5 -26t46 -9.5q36 0 63 18t44.5 46t26 63
t8.5 68q0 55 -25 91t-79 36q-35 0 -61 -18.5t-42.5 -48t-24.5 -65t-8 -68.5zM622 566q29 2 47 13t22 35h-58l19 101h122l-17 -91q-11 -55 -48 -78t-96 -24z" />
    <glyph glyph-name="Dcroat" unicode="&#x110;" horiz-adv-x="669" 
d="M73 305h-62l21 114h63l57 296h227q66 0 119.5 -19t92 -57.5t59 -95t20.5 -131.5q0 -103 -25.5 -177t-78.5 -130q-47 -50 -118.5 -77.5t-152.5 -27.5h-281zM296 125q112 0 170.5 75.5t58.5 207.5q0 89 -41 136t-123 47h-90l-33 -172h162l-21 -114h-163l-35 -180h115z" />
    <glyph glyph-name="dcroat" unicode="&#x111;" horiz-adv-x="563" 
d="M208 -15q-44 0 -79 16t-59.5 45t-38 71t-13.5 93q0 59 17.5 116t50.5 101.5t81 72t108 27.5q51 0 87.5 -21.5t56.5 -61.5h3l24 127h-129l15 78h129l13 66h134l-13 -66h53l-15 -78h-53l-110 -571h-129l10 56h-2q-27 -35 -60 -53t-81 -18zM154 218q0 -26 5 -48t16.5 -38.5
t30.5 -26t46 -9.5q36 0 63 18t44.5 46t26 63t8.5 68q0 55 -25 91t-79 36q-35 0 -61 -18.5t-42.5 -48t-24.5 -65t-8 -68.5z" />
    <glyph glyph-name="Emacron" unicode="&#x112;" horiz-adv-x="593" 
d="M142 715h498l-23 -121h-355l-31 -161h312l-23 -118h-312l-38 -195h363l-23 -120h-506zM289 857h280l-18 -95h-280z" />
    <glyph glyph-name="emacron" unicode="&#x113;" horiz-adv-x="532" 
d="M149 219q0 -61 23 -95.5t82 -34.5q35 0 63 15.5t42 48.5h132q-24 -72 -79 -115q-65 -51 -160 -53q-50 0 -93 14t-75 43t-50 73.5t-18 105.5q0 56 19.5 110.5t55.5 98t87 70.5t113 27q42 0 72.5 -8t56.5 -25q58 -38 79 -110t7 -165h-357zM180 687h280l-18 -95h-280z
M288 423q-53 0 -83.5 -33t-43.5 -78h221q1 22 -4 42.5t-16.5 35.5t-29.5 24t-44 9z" />
    <glyph glyph-name="Ebreve" unicode="&#x114;" horiz-adv-x="593" 
d="M142 715h498l-23 -121h-355l-31 -161h312l-23 -118h-312l-38 -195h363l-23 -120h-506zM418 749q-66 0 -101 38t-36 95h76q2 -22 17.5 -35t46.5 -13q29 0 47 13.5t25 34.5h77q-11 -58 -50.5 -95.5t-101.5 -37.5z" />
    <glyph glyph-name="ebreve" unicode="&#x115;" horiz-adv-x="532" 
d="M149 219q0 -61 23 -95.5t82 -34.5q35 0 63 15.5t42 48.5h132q-24 -72 -79 -115q-65 -51 -160 -53q-50 0 -93 14t-75 43t-50 73.5t-18 105.5q0 56 19.5 110.5t55.5 98t87 70.5t113 27q42 0 72.5 -8t56.5 -25q58 -38 79 -110t7 -165h-357zM302 573q-66 0 -101 38t-36 95h76
q2 -22 17.5 -35t46.5 -13q29 0 47 13.5t25 34.5h77q-11 -58 -50.5 -95.5t-101.5 -37.5zM288 423q-53 0 -83.5 -33t-43.5 -78h221q1 22 -4 42.5t-16.5 35.5t-29.5 24t-44 9z" />
    <glyph glyph-name="Edotaccent" unicode="&#x116;" horiz-adv-x="593" 
d="M142 715h498l-23 -121h-355l-31 -161h312l-23 -118h-312l-38 -195h363l-23 -120h-506zM360 871h134l-24 -118h-134z" />
    <glyph glyph-name="edotaccent" unicode="&#x117;" horiz-adv-x="532" 
d="M149 219q0 -61 23 -95.5t82 -34.5q35 0 63 15.5t42 48.5h132q-24 -72 -79 -115q-65 -51 -160 -53q-50 0 -93 14t-75 43t-50 73.5t-18 105.5q0 56 19.5 110.5t55.5 98t87 70.5t113 27q42 0 72.5 -8t56.5 -25q58 -38 79 -110t7 -165h-357zM288 423q-53 0 -83.5 -33
t-43.5 -78h221q1 22 -4 42.5t-16.5 35.5t-29.5 24t-44 9zM262 715h134l-23 -122h-134z" />
    <glyph glyph-name="Eogonek" unicode="&#x118;" horiz-adv-x="593" 
d="M142 715h498l-23 -121h-355l-31 -161h312l-23 -118h-312l-38 -195h363l-23 -120h-51q-6 -4 -17.5 -12t-22.5 -17.5t-19 -21t-8 -22.5q0 -23 31 -23q8 0 15 2t13 4h2l-15 -76q-8 -3 -20 -5.5t-29 -2.5q-20 0 -38.5 4.5t-32.5 14t-23 24t-9 34.5q0 33 21.5 57.5t50.5 39.5
h-354z" />
    <glyph glyph-name="eogonek" unicode="&#x119;" horiz-adv-x="532" 
d="M491 153q-14 -42 -37 -73t-59 -57q-21 -15 -39 -27t-31.5 -23t-21 -22t-7.5 -23q0 -11 7.5 -17.5t23.5 -6.5q8 0 15 2t13 4h2l-15 -76q-8 -3 -20 -5.5t-29 -2.5q-20 0 -38.5 4.5t-32.5 14t-23 24t-9 34.5q0 30 17.5 49t42.5 33q-50 0 -92.5 14t-74 43t-49.5 73.5
t-18 105.5q0 56 19.5 110.5t55.5 98t87 70.5t113 27q42 0 72.5 -8t56.5 -25q58 -38 79 -110t7 -165h-357q0 -61 23 -95.5t82 -34.5q35 0 63 15.5t42 48.5h132zM288 423q-53 0 -83.5 -33t-43.5 -78h221q1 22 -4 42.5t-16.5 35.5t-29.5 24t-44 9z" />
    <glyph glyph-name="Ecaron" unicode="&#x11a;" horiz-adv-x="593" 
d="M142 715h498l-23 -121h-355l-31 -161h312l-23 -118h-312l-38 -195h363l-23 -120h-506zM480 753h-144l-75 114h113l37 -59h2l58 59h120z" />
    <glyph glyph-name="ecaron" unicode="&#x11b;" horiz-adv-x="532" 
d="M149 219q0 -61 23 -95.5t82 -34.5q35 0 63 15.5t42 48.5h132q-24 -72 -79 -115q-65 -51 -160 -53q-50 0 -93 14t-75 43t-50 73.5t-18 105.5q0 56 19.5 110.5t55.5 98t87 70.5t113 27q42 0 72.5 -8t56.5 -25q58 -38 79 -110t7 -165h-357zM372 576h-142l-76 126h113l37 -69
h2l58 69h120zM288 423q-53 0 -83.5 -33t-43.5 -78h221q1 22 -4 42.5t-16.5 35.5t-29.5 24t-44 9z" />
    <glyph glyph-name="Gcircumflex" unicode="&#x11c;" horiz-adv-x="711" 
d="M528 88h-2q-35 -49 -87.5 -76t-118.5 -27q-63 0 -115 20t-90 58.5t-59 95t-21 130.5q0 83 27.5 162.5t78.5 141t123 99t161 37.5q55 0 103.5 -14.5t85.5 -43.5t60 -74t27 -107h-139q-6 57 -45 88.5t-103 31.5q-57 0 -100.5 -27.5t-73 -72.5t-44.5 -102t-15 -117
q0 -90 41.5 -140t128.5 -50q78 0 131 45.5t66 122.5h-169l21 111h296l-73 -380h-107zM374 867h144l75 -114h-113l-37 59h-2l-58 -59h-120z" />
    <glyph glyph-name="gcircumflex" unicode="&#x11d;" horiz-adv-x="551" 
d="M218 -175q-38 0 -74.5 9t-66 28t-49.5 49.5t-25 73.5h136q6 -28 26 -43t56 -15q48 0 75 29.5t36 78.5l10 52h-3q-26 -26 -53.5 -41t-72.5 -15q-44 0 -79.5 15.5t-60.5 43t-39 66t-14 84.5q0 56 17.5 108t49.5 91.5t78.5 63.5t104.5 24q50 0 87.5 -20t56.5 -56h2l12 62
h129l-95 -491q-9 -47 -27 -80.5t-46 -59.5q-31 -29 -71 -43t-100 -14zM252 139q32 0 57 14t42.5 37t26.5 53t9 62q-1 50 -26.5 82t-75.5 32q-31 0 -55.5 -13.5t-41.5 -37t-26 -54t-9 -64.5q0 -48 24.5 -79.5t74.5 -31.5zM265 707h142l76 -126h-113l-37 69h-2l-58 -69h-120z
" />
    <glyph glyph-name="Gbreve" unicode="&#x11e;" horiz-adv-x="711" 
d="M528 88h-2q-35 -49 -87.5 -76t-118.5 -27q-63 0 -115 20t-90 58.5t-59 95t-21 130.5q0 83 27.5 162.5t78.5 141t123 99t161 37.5q55 0 103.5 -14.5t85.5 -43.5t60 -74t27 -107h-139q-6 57 -45 88.5t-103 31.5q-57 0 -100.5 -27.5t-73 -72.5t-44.5 -102t-15 -117
q0 -90 41.5 -140t128.5 -50q78 0 131 45.5t66 122.5h-169l21 111h296l-73 -380h-107zM438 749q-66 0 -101 38t-36 95h76q2 -22 17.5 -35t46.5 -13q29 0 47 13.5t25 34.5h77q-11 -58 -50.5 -95.5t-101.5 -37.5z" />
    <glyph glyph-name="gbreve" unicode="&#x11f;" horiz-adv-x="551" 
d="M218 -175q-38 0 -74.5 9t-66 28t-49.5 49.5t-25 73.5h136q6 -28 26 -43t56 -15q48 0 75 29.5t36 78.5l10 52h-3q-26 -26 -53.5 -41t-72.5 -15q-44 0 -79.5 15.5t-60.5 43t-39 66t-14 84.5q0 56 17.5 108t49.5 91.5t78.5 63.5t104.5 24q50 0 87.5 -20t56.5 -56h2l12 62
h129l-95 -491q-9 -47 -27 -80.5t-46 -59.5q-31 -29 -71 -43t-100 -14zM252 139q32 0 57 14t42.5 37t26.5 53t9 62q-1 50 -26.5 82t-75.5 32q-31 0 -55.5 -13.5t-41.5 -37t-26 -54t-9 -64.5q0 -48 24.5 -79.5t74.5 -31.5zM320 573q-66 0 -101 38t-36 95h76q2 -22 17.5 -35
t46.5 -13q29 0 47 13.5t25 34.5h77q-11 -58 -50.5 -95.5t-101.5 -37.5z" />
    <glyph glyph-name="Gdotaccent" unicode="&#x120;" horiz-adv-x="711" 
d="M528 88h-2q-35 -49 -87.5 -76t-118.5 -27q-63 0 -115 20t-90 58.5t-59 95t-21 130.5q0 83 27.5 162.5t78.5 141t123 99t161 37.5q55 0 103.5 -14.5t85.5 -43.5t60 -74t27 -107h-139q-6 57 -45 88.5t-103 31.5q-57 0 -100.5 -27.5t-73 -72.5t-44.5 -102t-15 -117
q0 -90 41.5 -140t128.5 -50q78 0 131 45.5t66 122.5h-169l21 111h296l-73 -380h-107zM386 871h134l-24 -118h-134z" />
    <glyph glyph-name="gdotaccent" unicode="&#x121;" horiz-adv-x="551" 
d="M218 -175q-38 0 -74.5 9t-66 28t-49.5 49.5t-25 73.5h136q6 -28 26 -43t56 -15q48 0 75 29.5t36 78.5l10 52h-3q-26 -26 -53.5 -41t-72.5 -15q-44 0 -79.5 15.5t-60.5 43t-39 66t-14 84.5q0 56 17.5 108t49.5 91.5t78.5 63.5t104.5 24q50 0 87.5 -20t56.5 -56h2l12 62
h129l-95 -491q-9 -47 -27 -80.5t-46 -59.5q-31 -29 -71 -43t-100 -14zM252 139q32 0 57 14t42.5 37t26.5 53t9 62q-1 50 -26.5 82t-75.5 32q-31 0 -55.5 -13.5t-41.5 -37t-26 -54t-9 -64.5q0 -48 24.5 -79.5t74.5 -31.5zM277 715h134l-23 -122h-134z" />
    <glyph glyph-name="Gcommaaccent" unicode="&#x122;" horiz-adv-x="711" 
d="M528 88h-2q-35 -49 -87.5 -76t-118.5 -27q-63 0 -115 20t-90 58.5t-59 95t-21 130.5q0 83 27.5 162.5t78.5 141t123 99t161 37.5q55 0 103.5 -14.5t85.5 -43.5t60 -74t27 -107h-139q-6 57 -45 88.5t-103 31.5q-57 0 -100.5 -27.5t-73 -72.5t-44.5 -102t-15 -117
q0 -90 41.5 -140t128.5 -50q78 0 131 45.5t66 122.5h-169l21 111h296l-73 -380h-107zM228 -219q26 5 47 19.5t26 44.5h-59l21 107h122l-20 -102q-6 -29 -19.5 -49.5t-32.5 -33.5t-43 -20t-51 -10z" />
    <glyph glyph-name="gcommaaccent" unicode="&#x123;" horiz-adv-x="551" 
d="M218 -175q-38 0 -74.5 9t-66 28t-49.5 49.5t-25 73.5h136q6 -28 26 -43t56 -15q48 0 75 29.5t36 78.5l10 52h-3q-26 -26 -53.5 -41t-72.5 -15q-44 0 -79.5 15.5t-60.5 43t-39 66t-14 84.5q0 56 17.5 108t49.5 91.5t78.5 63.5t104.5 24q50 0 87.5 -20t56.5 -56h2l12 62
h129l-95 -491q-9 -47 -27 -80.5t-46 -59.5q-31 -29 -71 -43t-100 -14zM252 139q32 0 57 14t42.5 37t26.5 53t9 62q-1 50 -26.5 82t-75.5 32q-31 0 -55.5 -13.5t-41.5 -37t-26 -54t-9 -64.5q0 -48 24.5 -79.5t74.5 -31.5zM415 772q-26 -5 -47 -19.5t-26 -44.5h59l-21 -107
h-122l20 102q6 29 19.5 49.5t32.5 33.5t43 20t51 10z" />
    <glyph glyph-name="Hcircumflex" unicode="&#x124;" horiz-adv-x="657" 
d="M142 715h143l-54 -281h263l54 281h143l-138 -715h-143l61 316h-263l-61 -316h-143zM362 867h144l75 -114h-113l-37 59h-2l-58 -59h-120z" />
    <glyph glyph-name="hcircumflex" unicode="&#x125;" horiz-adv-x="536" 
d="M213 442h3q31 43 65.5 64t89.5 21q38 0 67.5 -15t48 -41.5t25 -64t-2.5 -82.5l-62 -324h-134l60 308q10 51 -8.5 78t-61.5 27q-24 0 -44.5 -10t-36 -28t-26 -42.5t-15.5 -52.5l-54 -280h-134l138 715h134zM300 867h144l75 -114h-113l-37 59h-2l-58 -59h-120z" />
    <glyph glyph-name="Hbar" unicode="&#x126;" horiz-adv-x="657" 
d="M62 593h56l24 122h143l-24 -122h263l24 122h143l-24 -122h58l-17 -83h-57l-98 -510h-143l61 316h-263l-61 -316h-143l98 510h-57zM494 434l14 76h-263l-14 -76h263z" />
    <glyph glyph-name="hbar" unicode="&#x127;" horiz-adv-x="536" 
d="M252 649h131l-15 -78h-131l-24 -129h3q31 43 65.5 64t89.5 21q38 0 67.5 -15t48 -41.5t25 -64t-2.5 -82.5l-62 -324h-134l60 308q10 51 -8.5 78t-61.5 27q-24 0 -44.5 -10t-36 -28t-26 -42.5t-15.5 -52.5l-54 -280h-134l110 571h-51l15 78h51l13 66h134z" />
    <glyph glyph-name="Itilde" unicode="&#x128;" horiz-adv-x="253" 
d="M143 715h143l-138 -715h-143zM278 755q-18 0 -33.5 5t-29 11.5t-25 11.5t-21.5 5q-23 0 -30 -31h-71q9 59 36 88.5t64 29.5q18 0 33.5 -5.5t29 -12t25 -12t21.5 -5.5q14 0 21 8.5t12 22.5h71q-8 -51 -34 -83.5t-69 -32.5z" />
    <glyph glyph-name="itilde" unicode="&#x129;" horiz-adv-x="220" 
d="M92 513h134l-99 -513h-134zM222 575q-16 0 -29.5 5t-25 11.5t-20.5 11.5t-15 5q-22 0 -27 -31h-68q6 59 31 88.5t58 29.5q16 0 30 -5.5t25.5 -12t21 -12t16.5 -5.5q12 0 18 8.5t10 22.5h68q-5 -51 -29.5 -83.5t-63.5 -32.5z" />
    <glyph glyph-name="Imacron" unicode="&#x12a;" horiz-adv-x="253" 
d="M143 715h143l-138 -715h-143zM96 857h280l-18 -95h-280z" />
    <glyph glyph-name="imacron" unicode="&#x12b;" horiz-adv-x="220" 
d="M92 513h134l-99 -513h-134zM73 687h240l-18 -95h-240z" />
    <glyph glyph-name="Ibreve" unicode="&#x12c;" horiz-adv-x="253" 
d="M143 715h143l-138 -715h-143zM229 749q-66 0 -101 38t-36 95h76q2 -22 17.5 -35t46.5 -13q29 0 47 13.5t25 34.5h77q-11 -58 -50.5 -95.5t-101.5 -37.5z" />
    <glyph glyph-name="ibreve" unicode="&#x12d;" horiz-adv-x="220" 
d="M92 513h134l-99 -513h-134zM176 573q-66 0 -101 38t-36 95h76q2 -22 17.5 -35t46.5 -13q29 0 47 13.5t25 34.5h77q-11 -58 -50.5 -95.5t-101.5 -37.5z" />
    <glyph glyph-name="Iogonek" unicode="&#x12e;" horiz-adv-x="253" 
d="M143 715h143l-137 -710q-10 -6 -23 -14.5t-25 -19t-20 -22t-8 -22.5q0 -23 31 -23q8 0 15 2t13 4h2l-15 -76q-8 -3 -20 -5.5t-29 -2.5q-20 0 -38.5 4.5t-32.5 14t-23 24t-9 34.5q0 34 22.5 58t51.5 39h-36z" />
    <glyph glyph-name="iogonek" unicode="&#x12f;" horiz-adv-x="220" 
d="M92 513h134l-98 -509q-9 -6 -21.5 -14.5t-24 -18.5t-19.5 -21.5t-8 -22.5q0 -23 31 -23q8 0 15 2t13 4h2l-15 -76q-8 -3 -20 -5.5t-29 -2.5q-20 0 -38.5 4.5t-32.5 14t-23 24t-9 34.5q0 18 7 33t19 26.5t27.5 20.5t31.5 17h-41zM131 715h134l-23 -122h-134z" />
    <glyph glyph-name="Idotaccent" unicode="&#x130;" horiz-adv-x="253" 
d="M143 715h143l-138 -715h-143zM177 871h134l-24 -118h-134z" />
    <glyph glyph-name="dotlessi" unicode="&#x131;" horiz-adv-x="220" 
d="M92 513h134l-99 -513h-134z" />
    <glyph glyph-name="IJ" unicode="&#x132;" horiz-adv-x="755" 
d="M143 715h143l-138 -715h-143zM456 -12q-49 0 -91 12t-70.5 39t-40.5 69t0 102l11 56h128l-11 -57q-20 -106 76 -106q46 0 67.5 24.5t29.5 69.5l100 518h142l-102 -530q-8 -42 -25.5 -78t-46 -62.5t-70 -41.5t-97.5 -15z" />
    <glyph glyph-name="ij" unicode="&#x133;" horiz-adv-x="440" 
d="M92 513h134l-99 -513h-134zM131 715h134l-23 -122h-134zM187 -169q-18 0 -39 2t-43 8l18 96q18 -1 33 0t25.5 6t17.5 14t10 25l103 531h134l-106 -545q-9 -45 -21.5 -68.5t-31.5 -38.5q-39 -30 -100 -30zM351 715h134l-23 -122h-134z" />
    <glyph glyph-name="Jcircumflex" unicode="&#x134;" horiz-adv-x="506" 
d="M207 -12q-49 0 -91 12t-70.5 39t-40.5 69t0 102l11 56h128l-11 -57q-20 -106 76 -106q46 0 67.5 24.5t29.5 69.5l100 518h142l-102 -530q-8 -42 -25.5 -78t-46 -62.5t-70 -41.5t-97.5 -15zM424 867h144l75 -114h-113l-37 59h-2l-58 -59h-120z" />
    <glyph glyph-name="jcircumflex" unicode="&#x135;" horiz-adv-x="220" 
d="M117 707h136l53 -126h-104l-22 66h-2l-43 -66h-108zM-33 -169q-18 0 -39 2t-43 8l18 96q18 -1 33 0t25.5 6t17.5 14t10 25l103 531h134l-106 -545q-9 -45 -21.5 -68.5t-31.5 -38.5q-39 -30 -100 -30z" />
    <glyph glyph-name="Kcommaaccent" unicode="&#x136;" horiz-adv-x="648" 
d="M291 344l-94 -83l-50 -261h-143l138 715h143l-55 -286l307 286h176l-312 -280l204 -435h-156zM192 -219q26 5 47 19.5t26 44.5h-59l21 107h122l-20 -102q-6 -29 -19.5 -49.5t-32.5 -33.5t-43 -20t-51 -10z" />
    <glyph glyph-name="kcommaaccent" unicode="&#x137;" horiz-adv-x="523" 
d="M233 232l-76 -68l-31 -164h-133l138 715h133l-78 -401l201 199h164l-214 -201l143 -312h-149zM131 -219q26 5 47 19.5t26 44.5h-59l21 107h122l-20 -102q-6 -29 -19.5 -49.5t-32.5 -33.5t-43 -20t-51 -10z" />
    <glyph glyph-name="kgreenlandic" unicode="&#x138;" horiz-adv-x="523" 
d="M233 232l-76 -68l-31 -164h-133l99 513h133l-39 -199l201 199h164l-214 -201l143 -312h-149z" />
    <glyph glyph-name="Lacute" unicode="&#x139;" horiz-adv-x="535" 
d="M142 715h143l-115 -595h320l-23 -120h-463zM269 753h-104l60 125h155z" />
    <glyph glyph-name="lacute" unicode="&#x13a;" horiz-adv-x="224" 
d="M133 715h134l-138 -715h-134zM255 753h-104l60 125h155z" />
    <glyph glyph-name="Lcommaaccent" unicode="&#x13b;" horiz-adv-x="535" 
d="M142 715h143l-115 -595h320l-23 -120h-463zM136 -219q26 5 47 19.5t26 44.5h-59l21 107h122l-20 -102q-6 -29 -19.5 -49.5t-32.5 -33.5t-43 -20t-51 -10z" />
    <glyph glyph-name="lcommaaccent" unicode="&#x13c;" horiz-adv-x="224" 
d="M133 715h134l-138 -715h-134zM-43 -219q26 5 47 19.5t26 44.5h-59l21 107h122l-20 -102q-6 -29 -19.5 -49.5t-32.5 -33.5t-43 -20t-51 -10z" />
    <glyph glyph-name="Lcaron" unicode="&#x13d;" horiz-adv-x="535" 
d="M142 715h143l-115 -595h320l-23 -120h-463zM349 566q29 2 47 13t22 35h-58l19 101h122l-17 -91q-11 -55 -48 -78t-96 -24z" />
    <glyph glyph-name="lcaron" unicode="&#x13e;" horiz-adv-x="224" 
d="M133 715h134l-138 -715h-134zM281 566q29 2 47 13t22 35h-58l19 101h122l-17 -91q-11 -55 -48 -78t-96 -24z" />
    <glyph glyph-name="Ldot" unicode="&#x13f;" horiz-adv-x="535" 
d="M142 715h143l-115 -595h320l-23 -120h-463zM371 408h144l-28 -145h-144z" />
    <glyph glyph-name="ldot" unicode="&#x140;" horiz-adv-x="386" 
d="M262 408h144l-28 -145h-144zM133 715h134l-138 -715h-134z" />
    <glyph glyph-name="Lslash" unicode="&#x141;" horiz-adv-x="540" 
d="M3 297l69 30l75 388h143l-62 -320l218 95l-20 -102l-218 -95l-33 -173h320l-23 -120h-463l43 225l-68 -30z" />
    <glyph glyph-name="lslash" unicode="&#x142;" horiz-adv-x="254" 
d="M11 316l65 43l69 356h134l-49 -256l74 49l-20 -103l-74 -49l-69 -356h-134l49 256l-65 -43z" />
    <glyph glyph-name="Nacute" unicode="&#x143;" horiz-adv-x="661" 
d="M142 715h143l146 -399q6 -17 11 -34.5t9 -33.5q4 -18 9 -36h2q3 21 7 43q3 19 6.5 40.5t7.5 40.5l73 379h139l-138 -715h-136l-153 398q-7 17 -12.5 35.5t-9.5 32.5q-4 17 -8 32h-2q-3 -22 -7 -44q-3 -19 -6.5 -40.5t-7.5 -40.5l-72 -373h-139zM479 753h-104l60 125h155z
" />
    <glyph glyph-name="nacute" unicode="&#x144;" horiz-adv-x="536" 
d="M208 432h3q33 48 69 71.5t91 23.5q38 0 67.5 -15t48 -41.5t25 -64t-2.5 -82.5l-62 -324h-134l60 308q10 51 -8.5 78t-61.5 27q-24 0 -44 -10t-35.5 -28t-26.5 -42.5t-16 -52.5l-54 -280h-134l99 513h131zM380 577h-105l74 141h157z" />
    <glyph glyph-name="Ncommaaccent" unicode="&#x145;" horiz-adv-x="661" 
d="M142 715h143l146 -399q6 -17 11 -34.5t9 -33.5q4 -18 9 -36h2q3 21 7 43q3 19 6.5 40.5t7.5 40.5l73 379h139l-138 -715h-136l-153 398q-7 17 -12.5 35.5t-9.5 32.5q-4 17 -8 32h-2q-3 -22 -7 -44q-3 -19 -6.5 -40.5t-7.5 -40.5l-72 -373h-139zM192 -217q26 5 47 19.5
t26 44.5h-59l21 107h122l-20 -102q-6 -29 -19.5 -49.5t-32.5 -33.5t-43 -20t-51 -10z" />
    <glyph glyph-name="ncommaaccent" unicode="&#x146;" horiz-adv-x="536" 
d="M208 432h3q33 48 69 71.5t91 23.5q38 0 67.5 -15t48 -41.5t25 -64t-2.5 -82.5l-62 -324h-134l60 308q10 51 -8.5 78t-61.5 27q-24 0 -44 -10t-35.5 -28t-26.5 -42.5t-16 -52.5l-54 -280h-134l99 513h131zM119 -219q26 5 47 19.5t26 44.5h-59l21 107h122l-20 -102
q-6 -29 -19.5 -49.5t-32.5 -33.5t-43 -20t-51 -10z" />
    <glyph glyph-name="Ncaron" unicode="&#x147;" horiz-adv-x="661" 
d="M142 715h143l146 -399q6 -17 11 -34.5t9 -33.5q4 -18 9 -36h2q3 21 7 43q3 19 6.5 40.5t7.5 40.5l73 379h139l-138 -715h-136l-153 398q-7 17 -12.5 35.5t-9.5 32.5q-4 17 -8 32h-2q-3 -22 -7 -44q-3 -19 -6.5 -40.5t-7.5 -40.5l-72 -373h-139zM502 753h-144l-75 114h113
l37 -59h2l58 59h120z" />
    <glyph glyph-name="ncaron" unicode="&#x148;" horiz-adv-x="536" 
d="M208 432h3q33 48 69 71.5t91 23.5q38 0 67.5 -15t48 -41.5t25 -64t-2.5 -82.5l-62 -324h-134l60 308q10 51 -8.5 78t-61.5 27q-24 0 -44 -10t-35.5 -28t-26.5 -42.5t-16 -52.5l-54 -280h-134l99 513h131zM397 576h-142l-76 126h113l37 -69h2l58 69h120z" />
    <glyph glyph-name="napostrophe" unicode="&#x149;" horiz-adv-x="536" 
d="M18 566q29 2 47 13t22 35h-58l19 101h122l-17 -91q-11 -55 -48 -78t-96 -24zM208 432h3q33 48 69 71.5t91 23.5q38 0 67.5 -15t48 -41.5t25 -64t-2.5 -82.5l-62 -324h-134l60 308q10 51 -8.5 78t-61.5 27q-24 0 -44 -10t-35.5 -28t-26.5 -42.5t-16 -52.5l-54 -280h-134
l99 513h131z" />
    <glyph glyph-name="Eng" unicode="&#x14a;" horiz-adv-x="661" 
d="M344 -175q-17 0 -37.5 2t-37.5 7l22 121q10 -2 20.5 -3.5t22.5 -1.5q66 0 84 57l-150 391q-7 17 -12.5 35.5t-9.5 32.5q-4 17 -8 32h-2q-3 -22 -7 -44q-3 -19 -6.5 -40.5t-7.5 -40.5l-72 -373h-139l138 715h143l146 -399q6 -17 11 -34.5t9 -33.5q4 -18 9 -36h2q3 21 7 43
q3 19 6.5 40.5t7.5 40.5l73 379h139l-133 -689q-9 -47 -23 -84t-38.5 -63t-62 -40t-94.5 -14z" />
    <glyph glyph-name="eng" unicode="&#x14b;" horiz-adv-x="536" 
d="M373 308q10 51 -8.5 78t-61.5 27q-24 0 -44 -10t-35.5 -28t-26.5 -42.5t-16 -52.5l-54 -280h-134l99 513h131l-15 -81h3q33 48 69 71.5t91 23.5q38 0 67.5 -15t48 -41.5t25 -64t-2.5 -82.5l-68 -356q-9 -45 -21.5 -68.5t-31.5 -38.5q-39 -30 -100 -30q-18 0 -39 2t-43 8
l18 96q18 -1 33 0t25.5 6t17.5 14t10 25z" />
    <glyph glyph-name="Omacron" unicode="&#x14c;" horiz-adv-x="713" 
d="M346 -16q-69 0 -126 21t-98.5 60.5t-64 96.5t-22.5 129q0 86 24.5 165.5t72 140t117 96.5t159.5 36q69 0 126 -22t97.5 -63t62.5 -98.5t22 -128.5q0 -84 -23.5 -162.5t-70 -138.5t-116 -96t-160.5 -36zM181 294q0 -40 9.5 -75t30 -61t53 -41t78.5 -15q60 0 102 29
t67.5 74.5t37 100.5t11.5 107q0 42 -10 78t-31 62.5t-53 42t-77 15.5q-59 0 -100.5 -29.5t-67.5 -75t-38 -102t-12 -110.5zM303 857h280l-18 -95h-280z" />
    <glyph glyph-name="omacron" unicode="&#x14d;" horiz-adv-x="561" 
d="M258 -15q-50 0 -94 15.5t-76.5 45.5t-51.5 74.5t-19 103.5q0 61 20.5 116t58.5 96.5t91 66t119 24.5q49 0 92 -15t75.5 -45t51 -73.5t18.5 -100.5q0 -62 -20 -117.5t-57 -98t-89.5 -67.5t-118.5 -25zM151 216q0 -26 6 -49.5t19.5 -41.5t34 -28.5t50.5 -10.5q39 0 67 19
t46 49.5t26.5 68t8.5 74.5q0 25 -6 48.5t-19.5 41.5t-34 28.5t-50.5 10.5q-39 0 -67 -19t-46 -49t-26.5 -67.5t-8.5 -74.5zM193 687h280l-18 -95h-280z" />
    <glyph glyph-name="Obreve" unicode="&#x14e;" horiz-adv-x="713" 
d="M346 -16q-69 0 -126 21t-98.5 60.5t-64 96.5t-22.5 129q0 86 24.5 165.5t72 140t117 96.5t159.5 36q69 0 126 -22t97.5 -63t62.5 -98.5t22 -128.5q0 -84 -23.5 -162.5t-70 -138.5t-116 -96t-160.5 -36zM181 294q0 -40 9.5 -75t30 -61t53 -41t78.5 -15q60 0 102 29
t67.5 74.5t37 100.5t11.5 107q0 42 -10 78t-31 62.5t-53 42t-77 15.5q-59 0 -100.5 -29.5t-67.5 -75t-38 -102t-12 -110.5zM431 749q-66 0 -101 38t-36 95h76q2 -22 17.5 -35t46.5 -13q29 0 47 13.5t25 34.5h77q-11 -58 -50.5 -95.5t-101.5 -37.5z" />
    <glyph glyph-name="obreve" unicode="&#x14f;" horiz-adv-x="561" 
d="M258 -15q-50 0 -94 15.5t-76.5 45.5t-51.5 74.5t-19 103.5q0 61 20.5 116t58.5 96.5t91 66t119 24.5q49 0 92 -15t75.5 -45t51 -73.5t18.5 -100.5q0 -62 -20 -117.5t-57 -98t-89.5 -67.5t-118.5 -25zM151 216q0 -26 6 -49.5t19.5 -41.5t34 -28.5t50.5 -10.5q39 0 67 19
t46 49.5t26.5 68t8.5 74.5q0 25 -6 48.5t-19.5 41.5t-34 28.5t-50.5 10.5q-39 0 -67 -19t-46 -49t-26.5 -67.5t-8.5 -74.5zM320 573q-66 0 -101 38t-36 95h76q2 -22 17.5 -35t46.5 -13q29 0 47 13.5t25 34.5h77q-11 -58 -50.5 -95.5t-101.5 -37.5z" />
    <glyph glyph-name="Ohungarumlaut" unicode="&#x150;" horiz-adv-x="713" 
d="M346 -16q-69 0 -126 21t-98.5 60.5t-64 96.5t-22.5 129q0 86 24.5 165.5t72 140t117 96.5t159.5 36q69 0 126 -22t97.5 -63t62.5 -98.5t22 -128.5q0 -84 -23.5 -162.5t-70 -138.5t-116 -96t-160.5 -36zM181 294q0 -40 9.5 -75t30 -61t53 -41t78.5 -15q60 0 102 29
t67.5 74.5t37 100.5t11.5 107q0 42 -10 78t-31 62.5t-53 42t-77 15.5q-59 0 -100.5 -29.5t-67.5 -75t-38 -102t-12 -110.5zM509 878h127l-93 -125h-82zM338 878h126l-92 -125h-82z" />
    <glyph glyph-name="ohungarumlaut" unicode="&#x151;" horiz-adv-x="561" 
d="M258 -15q-50 0 -94 15.5t-76.5 45.5t-51.5 74.5t-19 103.5q0 61 20.5 116t58.5 96.5t91 66t119 24.5q49 0 92 -15t75.5 -45t51 -73.5t18.5 -100.5q0 -62 -20 -117.5t-57 -98t-89.5 -67.5t-118.5 -25zM151 216q0 -26 6 -49.5t19.5 -41.5t34 -28.5t50.5 -10.5q39 0 67 19
t46 49.5t26.5 68t8.5 74.5q0 25 -6 48.5t-19.5 41.5t-34 28.5t-50.5 10.5q-39 0 -67 -19t-46 -49t-26.5 -67.5t-8.5 -74.5zM410 718h127l-101 -141h-82zM239 718h126l-100 -141h-82z" />
    <glyph glyph-name="OE" unicode="&#x152;" horiz-adv-x="1033" 
d="M298 -16q-55 0 -103 20t-83.5 59t-56 96t-20.5 132q0 84 24.5 162.5t70.5 140t112.5 98.5t150.5 37q58 0 106 -18t80 -62l13 66h488l-23 -121h-345l-31 -161h302l-23 -118h-302l-38 -195h353l-23 -120h-486l10 52q-38 -32 -82.5 -50t-93.5 -18zM181 294q0 -94 38 -143
t109 -49q53 0 92.5 20.5t67.5 54.5l65 338q-19 46 -59 71t-98 25q-57 0 -98 -28.5t-67 -74.5t-38 -102.5t-12 -111.5z" />
    <glyph glyph-name="oe" unicode="&#x153;" horiz-adv-x="917" 
d="M260 -15q-51 0 -95.5 15.5t-77.5 45.5t-51.5 74.5t-18.5 103.5q0 61 20.5 116t58 96.5t89.5 66t115 24.5q65 0 113 -25.5t74 -76.5q31 45 78 73.5t111 28.5q42 0 72.5 -8t56.5 -25q58 -38 79 -110t7 -165h-357q0 -61 23 -95.5t82 -34.5q35 0 63 15.5t42 48.5h132
q-24 -72 -79 -115q-65 -51 -160 -53q-66 0 -112 23t-71 73q-32 -44 -80 -70t-114 -26zM151 216q0 -26 6 -49.5t19.5 -41.5t34 -28.5t50.5 -10.5q39 0 67 19t46 49.5t26.5 68t8.5 74.5q0 25 -6.5 48.5t-20 41.5t-34 28.5t-49.5 10.5q-39 0 -67 -19t-46 -49t-26.5 -67.5
t-8.5 -74.5zM673 423q-53 0 -83.5 -33t-43.5 -78h221q1 22 -4 42.5t-16.5 35.5t-29.5 24t-44 9z" />
    <glyph glyph-name="Racute" unicode="&#x154;" horiz-adv-x="637" 
d="M142 715h288q53 0 93.5 -14t67.5 -39t41 -60t14 -77q0 -78 -42.5 -124t-114.5 -64v-3q43 -14 65.5 -43t22.5 -80q0 -31 -4 -73.5t-4 -84.5q0 -17 3 -29.5t11 -16.5v-7h-138q-6 7 -8.5 21t-2.5 32q0 34 3 70.5t3 67.5q0 96 -108 96h-130l-55 -287h-143zM224 398h149
q26 0 49.5 6t41.5 19.5t28.5 34.5t10.5 51q0 44 -23.5 67t-71.5 23h-145zM434 753h-104l60 125h155z" />
    <glyph glyph-name="racute" unicode="&#x155;" horiz-adv-x="348" 
d="M205 431h3q23 38 55 63t80 25q14 0 23.5 -1t14.5 -3l-23 -118h-3q-70 9 -116.5 -25t-63.5 -122l-48 -250h-134l99 513h129zM303 577h-105l74 141h157z" />
    <glyph glyph-name="Rcommaaccent" unicode="&#x156;" horiz-adv-x="637" 
d="M142 715h288q53 0 93.5 -14t67.5 -39t41 -60t14 -77q0 -78 -42.5 -124t-114.5 -64v-3q43 -14 65.5 -43t22.5 -80q0 -31 -4 -73.5t-4 -84.5q0 -17 3 -29.5t11 -16.5v-7h-138q-6 7 -8.5 21t-2.5 32q0 34 3 70.5t3 67.5q0 96 -108 96h-130l-55 -287h-143zM224 398h149
q26 0 49.5 6t41.5 19.5t28.5 34.5t10.5 51q0 44 -23.5 67t-71.5 23h-145zM193 -219q26 5 47 19.5t26 44.5h-59l21 107h122l-20 -102q-6 -29 -19.5 -49.5t-32.5 -33.5t-43 -20t-51 -10z" />
    <glyph glyph-name="rcommaaccent" unicode="&#x157;" horiz-adv-x="348" 
d="M205 431h3q23 38 55 63t80 25q14 0 23.5 -1t14.5 -3l-23 -118h-3q-70 9 -116.5 -25t-63.5 -122l-48 -250h-134l99 513h129zM-48 -219q26 5 47 19.5t26 44.5h-59l21 107h122l-20 -102q-6 -29 -19.5 -49.5t-32.5 -33.5t-43 -20t-51 -10z" />
    <glyph glyph-name="Rcaron" unicode="&#x158;" horiz-adv-x="637" 
d="M142 715h288q53 0 93.5 -14t67.5 -39t41 -60t14 -77q0 -78 -42.5 -124t-114.5 -64v-3q43 -14 65.5 -43t22.5 -80q0 -31 -4 -73.5t-4 -84.5q0 -17 3 -29.5t11 -16.5v-7h-138q-6 7 -8.5 21t-2.5 32q0 34 3 70.5t3 67.5q0 96 -108 96h-130l-55 -287h-143zM224 398h149
q26 0 49.5 6t41.5 19.5t28.5 34.5t10.5 51q0 44 -23.5 67t-71.5 23h-145zM458 753h-144l-75 114h113l37 -59h2l58 59h120z" />
    <glyph glyph-name="rcaron" unicode="&#x159;" horiz-adv-x="348" 
d="M205 431h3q23 38 55 63t80 25q14 0 23.5 -1t14.5 -3l-23 -118h-3q-70 9 -116.5 -25t-63.5 -122l-48 -250h-134l99 513h129zM323 576h-142l-76 126h113l37 -69h2l58 69h120z" />
    <glyph glyph-name="Sacute" unicode="&#x15a;" horiz-adv-x="612" 
d="M292 -16q-62 0 -116.5 14t-94 43t-61 73.5t-18.5 106.5h139q-2 -34 9 -57t32 -37.5t50 -20.5t64 -6q27 0 51.5 5t43.5 16.5t30.5 29t11.5 42.5q0 19 -7 33t-25 27t-48 26t-75 30q-48 17 -85.5 35t-63.5 41t-39.5 53.5t-13.5 72.5q0 51 18.5 91.5t53 68.5t82.5 42.5
t107 14.5q55 0 104.5 -12t86 -39t57.5 -69.5t18 -102.5h-137q2 53 -32.5 81t-101.5 28q-20 0 -41 -4t-38.5 -14t-29 -26t-11.5 -40q0 -18 6.5 -30.5t23 -23.5t45 -21.5t70.5 -25.5q53 -18 94 -38.5t68.5 -46t41.5 -57.5t14 -75q0 -57 -21.5 -99.5t-59 -71t-89.5 -43
t-113 -14.5zM408 753h-104l60 125h155z" />
    <glyph glyph-name="sacute" unicode="&#x15b;" horiz-adv-x="472" 
d="M224 -15q-47 0 -87.5 10t-71.5 32t-50.5 56.5t-22.5 82.5h127q4 -33 28 -58t77 -25q37 0 60.5 13.5t23.5 42.5q0 28 -31 42.5t-88 33.5q-29 10 -56 21.5t-47 29t-32 41.5t-12 58q0 39 15 69t41.5 51t63 31.5t80.5 10.5q43 0 80 -11t64.5 -32t45 -53t20.5 -74h-123
q-5 30 -26.5 52t-64.5 22q-14 0 -27.5 -2.5t-24.5 -8.5t-18 -15.5t-7 -24.5q0 -13 8.5 -22t24.5 -16t39 -14.5t53 -17.5q28 -9 54 -21.5t46 -30.5t32.5 -42.5t12.5 -58.5q0 -83 -54.5 -127.5t-152.5 -44.5zM314 577h-105l74 141h157z" />
    <glyph glyph-name="Scircumflex" unicode="&#x15c;" horiz-adv-x="612" 
d="M292 -16q-62 0 -116.5 14t-94 43t-61 73.5t-18.5 106.5h139q-2 -34 9 -57t32 -37.5t50 -20.5t64 -6q27 0 51.5 5t43.5 16.5t30.5 29t11.5 42.5q0 19 -7 33t-25 27t-48 26t-75 30q-48 17 -85.5 35t-63.5 41t-39.5 53.5t-13.5 72.5q0 51 18.5 91.5t53 68.5t82.5 42.5
t107 14.5q55 0 104.5 -12t86 -39t57.5 -69.5t18 -102.5h-137q2 53 -32.5 81t-101.5 28q-20 0 -41 -4t-38.5 -14t-29 -26t-11.5 -40q0 -18 6.5 -30.5t23 -23.5t45 -21.5t70.5 -25.5q53 -18 94 -38.5t68.5 -46t41.5 -57.5t14 -75q0 -57 -21.5 -99.5t-59 -71t-89.5 -43
t-113 -14.5zM308 867h144l75 -114h-113l-37 59h-2l-58 -59h-120z" />
    <glyph glyph-name="scircumflex" unicode="&#x15d;" horiz-adv-x="472" 
d="M224 -15q-47 0 -87.5 10t-71.5 32t-50.5 56.5t-22.5 82.5h127q4 -33 28 -58t77 -25q37 0 60.5 13.5t23.5 42.5q0 28 -31 42.5t-88 33.5q-29 10 -56 21.5t-47 29t-32 41.5t-12 58q0 39 15 69t41.5 51t63 31.5t80.5 10.5q43 0 80 -11t64.5 -32t45 -53t20.5 -74h-123
q-5 30 -26.5 52t-64.5 22q-14 0 -27.5 -2.5t-24.5 -8.5t-18 -15.5t-7 -24.5q0 -13 8.5 -22t24.5 -16t39 -14.5t53 -17.5q28 -9 54 -21.5t46 -30.5t32.5 -42.5t12.5 -58.5q0 -83 -54.5 -127.5t-152.5 -44.5zM211 707h142l76 -126h-113l-37 69h-2l-58 -69h-120z" />
    <glyph glyph-name="Scedilla" unicode="&#x15e;" horiz-adv-x="612" 
d="M228 -192q-40 0 -64 7.5t-44 21.5l21 32q14 -7 32 -11t36 -4q8 0 18 1t19 5t15 11t6 18q0 12 -10.5 18.5t-25.5 6.5q-11 0 -20 -2t-18 -5l-12 22l59 58q-53 5 -97.5 21.5t-77 45t-49.5 70t-14 97.5h139q-2 -34 9 -57t32 -37.5t50 -20.5t64 -6q27 0 51.5 5t43.5 16.5
t30.5 29t11.5 42.5q0 19 -7 33t-25 27t-48 26t-75 30q-48 17 -85.5 35t-63.5 41t-39.5 53.5t-13.5 72.5q0 51 18.5 91.5t53 68.5t82.5 42.5t107 14.5q55 0 104.5 -12t86 -39t57.5 -69.5t18 -102.5h-137q2 53 -32.5 81t-101.5 28q-20 0 -41 -4t-38.5 -14t-29 -26t-11.5 -40
q0 -18 6.5 -30.5t23 -23.5t45 -21.5t70.5 -25.5q53 -18 94 -38.5t68.5 -46t41.5 -57.5t14 -75q0 -57 -21.5 -99.5t-59 -71t-89.5 -43t-113 -14.5l-41 -34v-2q37 5 66 -9.5t30 -49.5q0 -22 -10.5 -37.5t-27.5 -25t-38 -14t-43 -4.5z" />
    <glyph glyph-name="scedilla" unicode="&#x15f;" horiz-adv-x="472" 
d="M138 -192q-40 0 -64 7.5t-44 21.5l21 32q14 -7 32 -11t36 -4q8 0 18 1t19 5t15 11t6 18q0 12 -10.5 18.5t-25.5 6.5q-11 0 -20 -2t-18 -5l-12 22l64 62q-68 13 -112.5 55t-50.5 120h127q4 -33 28 -58t77 -25q37 0 60.5 13.5t23.5 42.5q0 28 -31 42.5t-88 33.5
q-29 10 -56 21.5t-47 29t-32 41.5t-12 58q0 39 15 69t41.5 51t63 31.5t80.5 10.5q43 0 80 -11t64.5 -32t45 -53t20.5 -74h-123q-5 30 -26.5 52t-64.5 22q-14 0 -27.5 -2.5t-24.5 -8.5t-18 -15.5t-7 -24.5q0 -13 8.5 -22t24.5 -16t39 -14.5t53 -17.5q28 -9 54 -21.5t46 -30.5
t32.5 -42.5t12.5 -58.5q0 -83 -54.5 -127.5t-152.5 -44.5h-21l-42 -35v-2q37 5 66 -9.5t30 -49.5q0 -22 -10.5 -37.5t-27.5 -25t-38 -14t-43 -4.5z" />
    <glyph glyph-name="Scaron" unicode="&#x160;" horiz-adv-x="612" 
d="M292 -16q-62 0 -116.5 14t-94 43t-61 73.5t-18.5 106.5h139q-2 -34 9 -57t32 -37.5t50 -20.5t64 -6q27 0 51.5 5t43.5 16.5t30.5 29t11.5 42.5q0 19 -7 33t-25 27t-48 26t-75 30q-48 17 -85.5 35t-63.5 41t-39.5 53.5t-13.5 72.5q0 51 18.5 91.5t53 68.5t82.5 42.5
t107 14.5q55 0 104.5 -12t86 -39t57.5 -69.5t18 -102.5h-137q2 53 -32.5 81t-101.5 28q-20 0 -41 -4t-38.5 -14t-29 -26t-11.5 -40q0 -18 6.5 -30.5t23 -23.5t45 -21.5t70.5 -25.5q53 -18 94 -38.5t68.5 -46t41.5 -57.5t14 -75q0 -57 -21.5 -99.5t-59 -71t-89.5 -43
t-113 -14.5zM438 753h-144l-75 114h113l37 -59h2l58 59h120z" />
    <glyph glyph-name="scaron" unicode="&#x161;" horiz-adv-x="472" 
d="M224 -15q-47 0 -87.5 10t-71.5 32t-50.5 56.5t-22.5 82.5h127q4 -33 28 -58t77 -25q37 0 60.5 13.5t23.5 42.5q0 28 -31 42.5t-88 33.5q-29 10 -56 21.5t-47 29t-32 41.5t-12 58q0 39 15 69t41.5 51t63 31.5t80.5 10.5q43 0 80 -11t64.5 -32t45 -53t20.5 -74h-123
q-5 30 -26.5 52t-64.5 22q-14 0 -27.5 -2.5t-24.5 -8.5t-18 -15.5t-7 -24.5q0 -13 8.5 -22t24.5 -16t39 -14.5t53 -17.5q28 -9 54 -21.5t46 -30.5t32.5 -42.5t12.5 -58.5q0 -83 -54.5 -127.5t-152.5 -44.5zM337 576h-142l-76 126h113l37 -69h2l58 69h120z" />
    <glyph glyph-name="uni0162" unicode="&#x162;" horiz-adv-x="585" 
d="M103 715h556l-23 -121h-207l-115 -594h-143l115 594h-206zM137 -219q26 5 47 19.5t26 44.5h-59l21 107h122l-20 -102q-6 -29 -19.5 -49.5t-32.5 -33.5t-43 -20t-51 -10z" />
    <glyph glyph-name="uni0163" unicode="&#x163;" horiz-adv-x="322" 
d="M63 513h65l31 160h131l-31 -160h86l-17 -90h-86l-52 -267q-6 -30 3.5 -43t34.5 -13h12.5t13.5 1q7 0 14 1l-19 -100q-9 -1 -20 -2q-9 -1 -20 -1h-21q-39 0 -67.5 7.5t-45.5 24.5t-22 44.5t3 67.5l55 280h-65zM35 -219q26 5 47 19.5t26 44.5h-59l21 107h122l-20 -102
q-6 -29 -19.5 -49.5t-32.5 -33.5t-43 -20t-51 -10z" />
    <glyph glyph-name="Tcaron" unicode="&#x164;" horiz-adv-x="585" 
d="M103 715h556l-23 -121h-207l-115 -594h-143l115 594h-206zM457 753h-144l-75 114h113l37 -59h2l58 59h120z" />
    <glyph glyph-name="tcaron" unicode="&#x165;" horiz-adv-x="322" 
d="M313 583q29 2 47 12.5t21 29.5h-58l17 90h122l-15 -80q-9 -48 -46.5 -71.5t-96.5 -24.5zM63 513h65l31 160h131l-31 -160h86l-17 -90h-86l-52 -267q-6 -30 3.5 -43t34.5 -13h12.5t13.5 1q7 0 14 1l-19 -100q-9 -1 -20 -2q-9 -1 -20 -1h-21q-39 0 -67.5 7.5t-45.5 24.5
t-22 44.5t3 67.5l55 280h-65z" />
    <glyph glyph-name="Tbar" unicode="&#x166;" horiz-adv-x="585" 
d="M103 715h556l-23 -121h-207l-37 -192h140l-17 -85h-140l-61 -317h-143l61 317h-135l17 85h135l37 192h-206z" />
    <glyph glyph-name="tbar" unicode="&#x167;" horiz-adv-x="322" 
d="M63 513h65l31 160h131l-31 -160h86l-17 -90h-86l-15 -73h87l-16 -78h-86l-22 -116q-6 -30 3.5 -43t34.5 -13h12.5t13.5 1q7 0 14 1l-19 -100q-9 -1 -20 -2q-9 -1 -20 -1h-21q-39 0 -67.5 7.5t-45.5 24.5t-22 44.5t3 67.5l25 129h-66l16 78h65l15 73h-65z" />
    <glyph glyph-name="Utilde" unicode="&#x168;" horiz-adv-x="642" 
d="M299 -12q-66 0 -118.5 16t-86.5 48.5t-47.5 82t-0.5 116.5l90 464h143l-92 -475q-13 -64 13.5 -100.5t101.5 -36.5q34 0 58.5 9t41.5 24.5t27.5 37.5t15.5 48l95 493h142l-98 -506q-21 -107 -91 -164t-194 -57zM478 755q-18 0 -33.5 5t-29 11.5t-25 11.5t-21.5 5
q-23 0 -30 -31h-71q9 59 36 88.5t64 29.5q18 0 33.5 -5.5t29 -12t25 -12t21.5 -5.5q14 0 21 8.5t12 22.5h71q-8 -51 -34 -83.5t-69 -32.5z" />
    <glyph glyph-name="utilde" unicode="&#x169;" horiz-adv-x="530" 
d="M320 73h-3q-30 -42 -66 -64.5t-87 -22.5q-81 0 -119.5 54t-20.5 149l62 324h134l-60 -308q-21 -106 64 -106q48 0 79 36t43 98l54 280h134l-99 -513h-129zM381 575q-18 0 -32.5 5t-27.5 11.5t-23.5 11.5t-20.5 5q-23 0 -30 -31h-71q10 59 36.5 88.5t63.5 29.5
q18 0 33 -5.5t27.5 -12t23 -12t20.5 -5.5q14 0 21 8.5t12 22.5h71q-9 -51 -34.5 -83.5t-68.5 -32.5z" />
    <glyph glyph-name="Umacron" unicode="&#x16a;" horiz-adv-x="642" 
d="M299 -12q-66 0 -118.5 16t-86.5 48.5t-47.5 82t-0.5 116.5l90 464h143l-92 -475q-13 -64 13.5 -100.5t101.5 -36.5q34 0 58.5 9t41.5 24.5t27.5 37.5t15.5 48l95 493h142l-98 -506q-21 -107 -91 -164t-194 -57zM295 857h280l-18 -95h-280z" />
    <glyph glyph-name="umacron" unicode="&#x16b;" horiz-adv-x="530" 
d="M320 73h-3q-30 -42 -66 -64.5t-87 -22.5q-81 0 -119.5 54t-20.5 149l62 324h134l-60 -308q-21 -106 64 -106q48 0 79 36t43 98l54 280h134l-99 -513h-129zM200 687h280l-18 -95h-280z" />
    <glyph glyph-name="Ubreve" unicode="&#x16c;" horiz-adv-x="642" 
d="M299 -12q-66 0 -118.5 16t-86.5 48.5t-47.5 82t-0.5 116.5l90 464h143l-92 -475q-13 -64 13.5 -100.5t101.5 -36.5q34 0 58.5 9t41.5 24.5t27.5 37.5t15.5 48l95 493h142l-98 -506q-21 -107 -91 -164t-194 -57zM414 749q-66 0 -101 38t-36 95h76q2 -22 17.5 -35t46.5 -13
q29 0 47 13.5t25 34.5h77q-11 -58 -50.5 -95.5t-101.5 -37.5z" />
    <glyph glyph-name="ubreve" unicode="&#x16d;" horiz-adv-x="530" 
d="M320 73h-3q-30 -42 -66 -64.5t-87 -22.5q-81 0 -119.5 54t-20.5 149l62 324h134l-60 -308q-21 -106 64 -106q48 0 79 36t43 98l54 280h134l-99 -513h-129zM321 573q-66 0 -101 38t-36 95h76q2 -22 17.5 -35t46.5 -13q29 0 47 13.5t25 34.5h77q-11 -58 -50.5 -95.5
t-101.5 -37.5z" />
    <glyph glyph-name="Uring" unicode="&#x16e;" horiz-adv-x="642" 
d="M299 -12q-66 0 -118.5 16t-86.5 48.5t-47.5 82t-0.5 116.5l90 464h143l-92 -475q-13 -64 13.5 -100.5t101.5 -36.5q34 0 58.5 9t41.5 24.5t27.5 37.5t15.5 48l95 493h142l-98 -506q-21 -107 -91 -164t-194 -57zM413 742q-40 0 -68.5 27t-28.5 67q0 19 7.5 36.5t21 30
t31 20t37.5 7.5t37.5 -7.5t31 -20t21 -30t7.5 -36.5q0 -40 -28.5 -67t-68.5 -27zM413 789q20 0 32.5 13.5t12.5 33.5t-12.5 33.5t-32.5 13.5t-32.5 -13.5t-12.5 -33.5t12.5 -33.5t32.5 -13.5z" />
    <glyph glyph-name="uring" unicode="&#x16f;" horiz-adv-x="530" 
d="M320 73h-3q-30 -42 -66 -64.5t-87 -22.5q-81 0 -119.5 54t-20.5 149l62 324h134l-60 -308q-21 -106 64 -106q48 0 79 36t43 98l54 280h134l-99 -513h-129zM322 561q-40 0 -68.5 27t-28.5 67q0 19 7.5 36.5t21 30t31 20t37.5 7.5t37.5 -7.5t31 -20t21 -30t7.5 -36.5
q0 -40 -28.5 -67t-68.5 -27zM322 608q20 0 32.5 13.5t12.5 33.5t-12.5 33.5t-32.5 13.5t-32.5 -13.5t-12.5 -33.5t12.5 -33.5t32.5 -13.5z" />
    <glyph glyph-name="Uhungarumlaut" unicode="&#x170;" horiz-adv-x="642" 
d="M299 -12q-66 0 -118.5 16t-86.5 48.5t-47.5 82t-0.5 116.5l90 464h143l-92 -475q-13 -64 13.5 -100.5t101.5 -36.5q34 0 58.5 9t41.5 24.5t27.5 37.5t15.5 48l95 493h142l-98 -506q-21 -107 -91 -164t-194 -57zM495 878h127l-93 -125h-82zM324 878h126l-92 -125h-82z" />
    <glyph glyph-name="uhungarumlaut" unicode="&#x171;" horiz-adv-x="530" 
d="M320 73h-3q-30 -42 -66 -64.5t-87 -22.5q-81 0 -119.5 54t-20.5 149l62 324h134l-60 -308q-21 -106 64 -106q48 0 79 36t43 98l54 280h134l-99 -513h-129zM408 718h127l-101 -141h-82zM237 718h126l-100 -141h-82z" />
    <glyph glyph-name="Uogonek" unicode="&#x172;" horiz-adv-x="642" 
d="M308 -174q-20 0 -38.5 4.5t-32.5 14t-23 24t-9 34.5q0 31 18.5 51.5t44.5 34.5q-59 4 -105.5 21.5t-76.5 50t-41 80t1 110.5l90 464h143l-92 -475q-13 -64 13.5 -100.5t101.5 -36.5q34 0 58.5 9t41.5 24.5t27.5 37.5t15.5 48l95 493h142l-98 -506q-16 -83 -55.5 -128
t-96.5 -70q-17 -8 -38 -15t-39.5 -16.5t-31 -22t-12.5 -30.5q0 -23 31 -23q8 0 15 2t13 4h2l-15 -76q-8 -3 -20 -5.5t-29 -2.5z" />
    <glyph glyph-name="uogonek" unicode="&#x173;" horiz-adv-x="530" 
d="M320 73h-3q-30 -42 -66 -64.5t-87 -22.5q-81 0 -119.5 54t-20.5 149l62 324h134l-60 -308q-21 -106 64 -106q48 0 79 36t43 98l54 280h134l-98 -509q-9 -6 -21.5 -14.5t-24 -18.5t-19.5 -21.5t-8 -22.5q0 -23 31 -23q8 0 15 2t13 4h2l-15 -76q-8 -3 -20 -5.5t-29 -2.5
q-20 0 -38.5 4.5t-32.5 14t-23 24t-9 34.5q0 18 7 33t19 26.5t27.5 20.5t31.5 17h-36z" />
    <glyph glyph-name="Wcircumflex" unicode="&#x174;" horiz-adv-x="892" 
d="M88 715h145l21 -355q2 -26 2.5 -53.5t0.5 -50.5v-54h2q9 26 20 53q9 23 19 50.5t21 53.5l142 356h135l17 -355q1 -24 1.5 -52t1.5 -51q1 -28 1 -55h2q10 27 21 55q9 24 20 51.5t22 52.5l148 354h141l-320 -715h-133l-21 385q-2 21 -2.5 44t-0.5 43v45h-2q-7 -21 -15 -44
q-7 -20 -15 -43t-17 -45l-155 -385h-131zM476 867h144l75 -114h-113l-37 59h-2l-58 -59h-120z" />
    <glyph glyph-name="wcircumflex" unicode="&#x175;" horiz-adv-x="728" 
d="M53 513h130l19 -238q1 -16 2 -33.5t2 -31.5q1 -17 1 -33h2q6 16 13 34q6 14 13 31.5t14 33.5l103 237h114l28 -237q2 -17 3 -34.5t2 -31.5q1 -17 2 -33h2q6 16 13 33q6 14 12.5 31.5t13.5 33.5l96 238h132l-229 -513h-120l-27 252q-2 15 -3 32.5t-3 32.5q-2 18 -3 35h-2
q-6 -17 -13 -35l-13 -32.5t-14 -32.5l-111 -252h-121zM358 707h142l76 -126h-113l-37 69h-2l-58 -69h-120z" />
    <glyph glyph-name="Ycircumflex" unicode="&#x176;" horiz-adv-x="607" 
d="M230 280l-140 435h147l61 -205q5 -17 9.5 -35.5t8.5 -34.5q4 -18 8 -37h2l21 35q9 15 20.5 33t23.5 35l145 209h155l-319 -439l-53 -276h-143zM332 867h144l75 -114h-113l-37 59h-2l-58 -59h-120z" />
    <glyph glyph-name="ycircumflex" unicode="&#x177;" horiz-adv-x="488" 
d="M8 -62h43q43 0 66 23.5t23 71.5q0 35 -17 115l-74 365h140l35 -233q2 -18 5 -38.5t5 -37.5q3 -20 5 -40h2q7 20 15 40q7 17 15.5 37.5t16.5 38.5l106 233h136l-265 -538q-19 -39 -38 -66t-41 -44t-50 -25t-65 -8h-84zM236 707h142l76 -126h-113l-37 69h-2l-58 -69h-120z
" />
    <glyph glyph-name="Ydieresis" unicode="&#x178;" horiz-adv-x="607" 
d="M230 280l-140 435h147l61 -205q5 -17 9.5 -35.5t8.5 -34.5q4 -18 8 -37h2l21 35q9 15 20.5 33t23.5 35l145 209h155l-319 -439l-53 -276h-143zM449 867h126l-23 -114h-126zM250 867h126l-23 -114h-126z" />
    <glyph glyph-name="Zacute" unicode="&#x179;" horiz-adv-x="606" 
d="M-3 105l468 490v3h-348l22 117h519l-22 -117l-453 -476v-3h365l-22 -119h-549zM451 753h-104l60 125h155z" />
    <glyph glyph-name="zacute" unicode="&#x17a;" horiz-adv-x="461" 
d="M-7 102l303 303v3h-228l21 105h387l-21 -107l-297 -296v-3h256l-21 -107h-420zM341 577h-105l74 141h157z" />
    <glyph glyph-name="Zdotaccent" unicode="&#x17b;" horiz-adv-x="606" 
d="M-3 105l468 490v3h-348l22 117h519l-22 -117l-453 -476v-3h365l-22 -119h-549zM355 871h134l-24 -118h-134z" />
    <glyph glyph-name="zdotaccent" unicode="&#x17c;" horiz-adv-x="461" 
d="M-7 102l303 303v3h-228l21 105h387l-21 -107l-297 -296v-3h256l-21 -107h-420zM247 715h134l-23 -122h-134z" />
    <glyph glyph-name="Zcaron" unicode="&#x17d;" horiz-adv-x="606" 
d="M-3 105l468 490v3h-348l22 117h519l-22 -117l-453 -476v-3h365l-22 -119h-549zM476 753h-144l-75 114h113l37 -59h2l58 59h120z" />
    <glyph glyph-name="zcaron" unicode="&#x17e;" horiz-adv-x="461" 
d="M-7 102l303 303v3h-228l21 105h387l-21 -107l-297 -296v-3h256l-21 -107h-420zM362 576h-142l-76 126h113l37 -69h2l58 69h120z" />
    <glyph glyph-name="florin" unicode="&#x192;" horiz-adv-x="392" 
d="M149 413l32 143q8 38 23.5 64.5t36.5 43.5q35 28 84 33t111 -3l-19 -99q-24 2 -41.5 1.5t-30 -5.5t-20.5 -17t-12 -32l-29 -129h102l-18 -90h-104l-75 -341q-13 -58 -42 -90q-32 -36 -81.5 -43t-111.5 1l18 93q17 -1 31 -0.5t24.5 5.5t17.5 16t12 32l72 327h-85l18 90h87
z" />
    <glyph glyph-name="AEacute" unicode="&#x1fc;" horiz-adv-x="941" 
d="M388 153h-212l-76 -153h-146l368 715h666l-23 -121h-348l-31 -161h305l-23 -118h-305l-38 -195h356l-23 -120h-499zM228 258h181l64 336h-78zM725 753h-104l60 125h155z" />
    <glyph glyph-name="aeacute" unicode="&#x1fd;" horiz-adv-x="855" 
d="M289 526q54 0 96.5 -14.5t66.5 -46.5q32 29 73 45.5t89 16.5q42 0 72.5 -8t56.5 -25q58 -38 79 -110t7 -165h-357q0 -61 23 -95.5t82 -34.5q35 0 63 15.5t42 48.5h132q-24 -72 -79 -115q-65 -51 -160 -53q-66 0 -117 24t-80 75q-15 -21 -33 -38.5t-42 -30t-55 -20
t-70 -7.5q-38 0 -70.5 8.5t-57 27t-38.5 47t-14 68.5q0 51 19 82.5t51 49.5t74 25.5t89 11.5q36 3 61.5 6.5t41 10t23 18t7.5 30.5q0 28 -21 42.5t-59 14.5q-42 0 -69 -17.5t-36 -55.5h-120q13 79 71.5 124t158.5 45zM127 151q0 -35 21.5 -52.5t55.5 -17.5q53 0 85.5 28
t41.5 72l14 70q-20 -9 -42.5 -14.5t-55.5 -11.5q-18 -3 -39 -5.5t-39 -9t-30 -20t-12 -39.5zM611 423q-53 0 -83.5 -33t-43.5 -78h221q1 22 -4 42.5t-16.5 35.5t-29.5 24t-44 9zM535 577h-105l74 141h157z" />
    <glyph glyph-name="Oslashacute" unicode="&#x1fe;" horiz-adv-x="713" 
d="M346 -16q-64 0 -117.5 18t-94.5 52l-72 -76l-44 43l73 79q-27 37 -41.5 85t-14.5 106q0 86 24 165.5t71.5 140t116.5 96.5t159 36q63 0 115.5 -18t92.5 -52l62 67l46 -43l-65 -70q29 -38 44 -87.5t15 -108.5q0 -84 -23.5 -162.5t-70 -138.5t-116 -96t-160.5 -36zM571 413
q0 56 -13 94l-336 -358q42 -47 130 -47q60 0 102 29t68 74.5t37.5 100.5t11.5 107zM180 294q0 -25 2.5 -47t8.5 -41l334 358q-42 47 -126 47q-59 0 -101 -29.5t-68 -75t-38 -102t-12 -110.5zM478 753h-104l60 125h155z" />
    <glyph glyph-name="oslashacute" unicode="&#x1ff;" horiz-adv-x="561" 
d="M259 -15q-44 0 -82.5 11t-69.5 33l-62 -65l-39 37l62 65q-24 29 -37.5 68.5t-13.5 89.5q0 61 20.5 116t58.5 96.5t91 66t119 24.5q44 0 82.5 -12t69.5 -35l58 61l39 -37l-59 -62q23 -29 35 -66t12 -83q0 -62 -20 -117.5t-57 -98t-89.5 -67.5t-117.5 -25zM149 216
q0 -34 7 -56l223 236q-30 30 -80 30q-39 0 -67 -19t-46.5 -49t-27.5 -67.5t-9 -74.5zM411 297q0 27 -6 48l-221 -234q28 -25 77 -25q39 0 67.5 19t46.5 49.5t27 68t9 74.5zM368 577h-105l74 141h157z" />
    <glyph glyph-name="Scommaaccent" unicode="&#x218;" horiz-adv-x="612" 
d="M292 -16q-62 0 -116.5 14t-94 43t-61 73.5t-18.5 106.5h139q-2 -34 9 -57t32 -37.5t50 -20.5t64 -6q27 0 51.5 5t43.5 16.5t30.5 29t11.5 42.5q0 19 -7 33t-25 27t-48 26t-75 30q-48 17 -85.5 35t-63.5 41t-39.5 53.5t-13.5 72.5q0 51 18.5 91.5t53 68.5t82.5 42.5
t107 14.5q55 0 104.5 -12t86 -39t57.5 -69.5t18 -102.5h-137q2 53 -32.5 81t-101.5 28q-20 0 -41 -4t-38.5 -14t-29 -26t-11.5 -40q0 -18 6.5 -30.5t23 -23.5t45 -21.5t70.5 -25.5q53 -18 94 -38.5t68.5 -46t41.5 -57.5t14 -75q0 -57 -21.5 -99.5t-59 -71t-89.5 -43
t-113 -14.5zM177 -219q26 5 47 19.5t26 44.5h-59l21 107h122l-20 -102q-6 -29 -19.5 -49.5t-32.5 -33.5t-43 -20t-51 -10z" />
    <glyph glyph-name="scommaaccent" unicode="&#x219;" horiz-adv-x="472" 
d="M224 -15q-47 0 -87.5 10t-71.5 32t-50.5 56.5t-22.5 82.5h127q4 -33 28 -58t77 -25q37 0 60.5 13.5t23.5 42.5q0 28 -31 42.5t-88 33.5q-29 10 -56 21.5t-47 29t-32 41.5t-12 58q0 39 15 69t41.5 51t63 31.5t80.5 10.5q43 0 80 -11t64.5 -32t45 -53t20.5 -74h-123
q-5 30 -26.5 52t-64.5 22q-14 0 -27.5 -2.5t-24.5 -8.5t-18 -15.5t-7 -24.5q0 -13 8.5 -22t24.5 -16t39 -14.5t53 -17.5q28 -9 54 -21.5t46 -30.5t32.5 -42.5t12.5 -58.5q0 -83 -54.5 -127.5t-152.5 -44.5zM104 -219q26 5 47 19.5t26 44.5h-59l21 107h122l-20 -102
q-6 -29 -19.5 -49.5t-32.5 -33.5t-43 -20t-51 -10z" />
    <glyph glyph-name="uni021A" unicode="&#x21a;" horiz-adv-x="585" 
d="M103 715h556l-23 -121h-207l-115 -594h-143l115 594h-206zM137 -219q26 5 47 19.5t26 44.5h-59l21 107h122l-20 -102q-6 -29 -19.5 -49.5t-32.5 -33.5t-43 -20t-51 -10z" />
    <glyph glyph-name="uni021B" unicode="&#x21b;" horiz-adv-x="322" 
d="M63 513h65l31 160h131l-31 -160h86l-17 -90h-86l-52 -267q-6 -30 3.5 -43t34.5 -13h12.5t13.5 1q7 0 14 1l-19 -100q-9 -1 -20 -2q-9 -1 -20 -1h-21q-39 0 -67.5 7.5t-45.5 24.5t-22 44.5t3 67.5l55 280h-65zM35 -219q26 5 47 19.5t26 44.5h-59l21 107h122l-20 -102
q-6 -29 -19.5 -49.5t-32.5 -33.5t-43 -20t-51 -10z" />
    <glyph glyph-name="uni0237" unicode="&#x237;" horiz-adv-x="220" 
d="M-33 -169q-18 0 -39 2t-43 8l18 96q18 -1 33 0t25.5 6t17.5 14t10 25l103 531h134l-106 -545q-9 -45 -21.5 -68.5t-31.5 -38.5q-39 -30 -100 -30z" />
    <glyph glyph-name="circumflex" unicode="&#x2c6;" 
d="M257 707h142l76 -126h-113l-37 69h-2l-58 -69h-120z" />
    <glyph glyph-name="caron" unicode="&#x2c7;" 
d="M382 576h-142l-76 126h113l37 -69h2l58 69h120z" />
    <glyph glyph-name="uni02C9" unicode="&#x2c9;" 
d="M196 687h280l-18 -95h-280z" />
    <glyph glyph-name="breve" unicode="&#x2d8;" 
d="M338 573q-66 0 -101 38t-36 95h76q2 -22 17.5 -35t46.5 -13q29 0 47 13.5t25 34.5h77q-11 -58 -50.5 -95.5t-101.5 -37.5z" />
    <glyph glyph-name="dotaccent" unicode="&#x2d9;" 
d="M267 715h134l-23 -122h-134z" />
    <glyph glyph-name="ring" unicode="&#x2da;" 
d="M323 561q-40 0 -68.5 27t-28.5 67q0 19 7.5 36.5t21 30t31 20t37.5 7.5t37.5 -7.5t31 -20t21 -30t7.5 -36.5q0 -40 -28.5 -67t-68.5 -27zM323 608q20 0 32.5 13.5t12.5 33.5t-12.5 33.5t-32.5 13.5t-32.5 -13.5t-12.5 -33.5t12.5 -33.5t32.5 -13.5z" />
    <glyph glyph-name="ogonek" unicode="&#x2db;" 
d="M235 -174q-20 0 -38.5 4.5t-32.5 14t-23 24t-9 34.5q0 18 7 33t19 26.5t27.5 20.5t31.5 17h88q-6 -4 -17.5 -12t-22.5 -17.5t-19 -21t-8 -22.5q0 -23 31 -23q8 0 15 2t13 4h2l-15 -76q-8 -3 -20 -5.5t-29 -2.5z" />
    <glyph glyph-name="tilde" unicode="&#x2dc;" 
d="M370 575q-18 0 -32.5 5t-27.5 11.5t-23.5 11.5t-20.5 5q-23 0 -30 -31h-71q10 59 36.5 88.5t63.5 29.5q18 0 33 -5.5t27.5 -12t23 -12t20.5 -5.5q14 0 21 8.5t12 22.5h71q-9 -51 -34.5 -83.5t-68.5 -32.5z" />
    <glyph glyph-name="hungarumlaut" unicode="&#x2dd;" 
d="M401 718h127l-101 -141h-82zM230 718h126l-100 -141h-82z" />
    <glyph glyph-name="uni0394" unicode="&#x394;" horiz-adv-x="647" 
d="M-10 98l336 617h146l123 -616l-18 -99h-606zM137 111h315l-62 341q-3 16 -5.5 38t-4.5 43q-3 24 -4 50h-2q-10 -24 -20 -47q-8 -20 -17.5 -40.5t-17.5 -34.5z" />
    <glyph glyph-name="uni03A9" unicode="&#x3a9;" horiz-adv-x="725" 
d="M578 427q0 39 -9 72.5t-29.5 58.5t-52 39t-76.5 14q-64 0 -108.5 -29t-72.5 -74.5t-40.5 -102.5t-12.5 -113q0 -73 27 -121t85 -65l-21 -106h-284l21 109h116v2q-40 29 -61.5 82.5t-21.5 115.5q0 79 25 154.5t73.5 134.5t119.5 95t164 36q66 0 121.5 -20t96.5 -58.5
t64 -94t23 -126.5q0 -101 -39.5 -185t-115.5 -134v-2h99l-21 -109h-298l20 107q55 8 94 39t64.5 75.5t37.5 98t12 107.5z" />
    <glyph glyph-name="uni03BC" unicode="&#x3bc;" horiz-adv-x="535" 
d="M188 -14q-22 0 -36 6t-22 15h-3l-34 -175h-133l131 681h134l-60 -308q-21 -106 64 -106q48 0 79 36t43 98l54 280h134l-99 -513h-129l14 73h-3q-30 -42 -61 -64.5t-73 -22.5z" />
    <glyph glyph-name="pi" unicode="&#x3c0;" horiz-adv-x="601" 
d="M171 0h-130l82 425h-76l17 88h566l-17 -88h-79l-52 -269q-8 -37 7.5 -48.5t49.5 -6.5l-19 -99q-8 -1 -23 -2t-25 -1q-35 0 -61.5 7.5t-43 24.5t-22 44.5t2.5 66.5l55 283h-150z" />
    <glyph glyph-name="Wgrave" unicode="&#x1e80;" horiz-adv-x="892" 
d="M88 715h145l21 -355q2 -26 2.5 -53.5t0.5 -50.5v-54h2q9 26 20 53q9 23 19 50.5t21 53.5l142 356h135l17 -355q1 -24 1.5 -52t1.5 -51q1 -28 1 -55h2q10 27 21 55q9 24 20 51.5t22 52.5l148 354h141l-320 -715h-133l-21 385q-2 21 -2.5 44t-0.5 43v45h-2q-7 -21 -15 -44
q-7 -20 -15 -43t-17 -45l-155 -385h-131zM408 878h145l29 -125h-102z" />
    <glyph glyph-name="wgrave" unicode="&#x1e81;" horiz-adv-x="728" 
d="M53 513h130l19 -238q1 -16 2 -33.5t2 -31.5q1 -17 1 -33h2q6 16 13 34q6 14 13 31.5t14 33.5l103 237h114l28 -237q2 -17 3 -34.5t2 -31.5q1 -17 2 -33h2q6 16 13 33q6 14 12.5 31.5t13.5 33.5l96 238h132l-229 -513h-120l-27 252q-2 15 -3 32.5t-3 32.5q-2 18 -3 35h-2
q-6 -17 -13 -35l-13 -32.5t-14 -32.5l-111 -252h-121zM275 718h146l41 -141h-102z" />
    <glyph glyph-name="Wacute" unicode="&#x1e82;" horiz-adv-x="892" 
d="M88 715h145l21 -355q2 -26 2.5 -53.5t0.5 -50.5v-54h2q9 26 20 53q9 23 19 50.5t21 53.5l142 356h135l17 -355q1 -24 1.5 -52t1.5 -51q1 -28 1 -55h2q10 27 21 55q9 24 20 51.5t22 52.5l148 354h141l-320 -715h-133l-21 385q-2 21 -2.5 44t-0.5 43v45h-2q-7 -21 -15 -44
q-7 -20 -15 -43t-17 -45l-155 -385h-131zM587 753h-104l60 125h155z" />
    <glyph glyph-name="wacute" unicode="&#x1e83;" horiz-adv-x="728" 
d="M53 513h130l19 -238q1 -16 2 -33.5t2 -31.5q1 -17 1 -33h2q6 16 13 34q6 14 13 31.5t14 33.5l103 237h114l28 -237q2 -17 3 -34.5t2 -31.5q1 -17 2 -33h2q6 16 13 33q6 14 12.5 31.5t13.5 33.5l96 238h132l-229 -513h-120l-27 252q-2 15 -3 32.5t-3 32.5q-2 18 -3 35h-2
q-6 -17 -13 -35l-13 -32.5t-14 -32.5l-111 -252h-121zM473 577h-105l74 141h157z" />
    <glyph glyph-name="Wdieresis" unicode="&#x1e84;" horiz-adv-x="892" 
d="M88 715h145l21 -355q2 -26 2.5 -53.5t0.5 -50.5v-54h2q9 26 20 53q9 23 19 50.5t21 53.5l142 356h135l17 -355q1 -24 1.5 -52t1.5 -51q1 -28 1 -55h2q10 27 21 55q9 24 20 51.5t22 52.5l148 354h141l-320 -715h-133l-21 385q-2 21 -2.5 44t-0.5 43v45h-2q-7 -21 -15 -44
q-7 -20 -15 -43t-17 -45l-155 -385h-131zM589 867h126l-23 -114h-126zM390 867h126l-23 -114h-126z" />
    <glyph glyph-name="wdieresis" unicode="&#x1e85;" horiz-adv-x="728" 
d="M53 513h130l19 -238q1 -16 2 -33.5t2 -31.5q1 -17 1 -33h2q6 16 13 34q6 14 13 31.5t14 33.5l103 237h114l28 -237q2 -17 3 -34.5t2 -31.5q1 -17 2 -33h2q6 16 13 33q6 14 12.5 31.5t13.5 33.5l96 238h132l-229 -513h-120l-27 252q-2 15 -3 32.5t-3 32.5q-2 18 -3 35h-2
q-6 -17 -13 -35l-13 -32.5t-14 -32.5l-111 -252h-121zM485 695h124l-23 -114h-124zM268 695h124l-23 -114h-124z" />
    <glyph glyph-name="Ygrave" unicode="&#x1ef2;" horiz-adv-x="607" 
d="M230 280l-140 435h147l61 -205q5 -17 9.5 -35.5t8.5 -34.5q4 -18 8 -37h2l21 35q9 15 20.5 33t23.5 35l145 209h155l-319 -439l-53 -276h-143zM274 878h145l29 -125h-102z" />
    <glyph glyph-name="ygrave" unicode="&#x1ef3;" horiz-adv-x="488" 
d="M8 -62h43q43 0 66 23.5t23 71.5q0 35 -17 115l-74 365h140l35 -233q2 -18 5 -38.5t5 -37.5q3 -20 5 -40h2q7 20 15 40q7 17 15.5 37.5t16.5 38.5l106 233h136l-265 -538q-19 -39 -38 -66t-41 -44t-50 -25t-65 -8h-84zM161 718h146l41 -141h-102z" />
    <glyph glyph-name="uni2009" unicode="&#x2009;" horiz-adv-x="55" 
 />
    <glyph glyph-name="endash" unicode="&#x2013;" horiz-adv-x="500" 
d="M53 312h414l-22 -115h-414z" />
    <glyph glyph-name="emdash" unicode="&#x2014;" horiz-adv-x="1000" 
d="M109 312h801l-22 -115h-801z" />
    <glyph glyph-name="quoteleft" unicode="&#x2018;" horiz-adv-x="198" 
d="M245 671q-29 -7 -53 -28t-30 -63h64l-25 -130h-133l24 127q7 36 23 61.5t38.5 42t48.5 25.5t53 12z" />
    <glyph glyph-name="quoteright" unicode="&#x2019;" horiz-adv-x="198" 
d="M77 494q29 7 53 28t30 63h-64l25 130h133l-24 -127q-7 -36 -23 -61.5t-38.5 -42t-48.5 -25.5t-53 -12z" />
    <glyph glyph-name="quotesinglbase" unicode="&#x201a;" horiz-adv-x="198" 
d="M-36 -91q29 7 53 28t30 63h-64l25 130h133l-24 -127q-7 -36 -23 -61.5t-38.5 -42t-48.5 -25.5t-53 -12z" />
    <glyph glyph-name="quotedblleft" unicode="&#x201c;" horiz-adv-x="393" 
d="M440 671q-29 -7 -53 -28t-30 -63h64l-25 -130h-133l24 127q7 36 23 61.5t38.5 42t48.5 25.5t53 12zM245 671q-29 -7 -53 -28t-30 -63h64l-25 -130h-133l24 127q7 36 23 61.5t38.5 42t48.5 25.5t53 12z" />
    <glyph glyph-name="quotedblright" unicode="&#x201d;" horiz-adv-x="393" 
d="M77 494q29 7 53 28t30 63h-64l25 130h133l-24 -127q-7 -36 -23 -61.5t-38.5 -42t-48.5 -25.5t-53 -12zM272 494q29 7 53 28t30 63h-64l25 130h133l-24 -127q-7 -36 -23 -61.5t-38.5 -42t-48.5 -25.5t-53 -12z" />
    <glyph glyph-name="quotedblbase" unicode="&#x201e;" horiz-adv-x="393" 
d="M-36 -91q29 7 53 28t30 63h-64l25 130h133l-24 -127q-7 -36 -23 -61.5t-38.5 -42t-48.5 -25.5t-53 -12zM159 -91q29 7 53 28t30 63h-64l25 130h133l-24 -127q-7 -36 -23 -61.5t-38.5 -42t-48.5 -25.5t-53 -12z" />
    <glyph glyph-name="dagger" unicode="&#x2020;" horiz-adv-x="556" 
d="M83 518h181l38 197h128l-38 -197h181l-20 -105h-181l-103 -530h-128l103 530h-181z" />
    <glyph glyph-name="daggerdbl" unicode="&#x2021;" horiz-adv-x="556" 
d="M83 518h181l38 197h128l-38 -197h181l-20 -105h-181l-44 -228h181l-20 -105h-182l-38 -197h-128l38 197h-180l20 105h181l44 228h-181z" />
    <glyph glyph-name="bullet" unicode="&#x2022;" horiz-adv-x="345" 
d="M185 182q-29 0 -54.5 11t-44.5 30t-30 44t-11 54t11 54.5t30 44.5t44.5 30t54.5 11q28 0 53.5 -11t44.5 -30t30 -44.5t11 -54.5t-11 -54t-30 -44t-44.5 -30t-53.5 -11z" />
    <glyph glyph-name="ellipsis" unicode="&#x2026;" horiz-adv-x="711" 
d="M509 145h144l-28 -145h-144zM13 145h144l-28 -145h-144zM261 145h144l-28 -145h-144z" />
    <glyph glyph-name="perthousand" unicode="&#x2030;" horiz-adv-x="1174" 
d="M620 686h86l-496 -686h-86zM209 301q-38 0 -67 13t-48.5 34.5t-29.5 50.5t-10 62q0 49 13.5 92.5t39 76t61.5 51.5t80 19q39 0 68 -13t48.5 -35t29.5 -51t10 -61q0 -49 -13.5 -92.5t-38.5 -76t-61 -51.5t-82 -19zM157 455q0 -15 2 -29t8 -25t16.5 -17.5t27.5 -6.5
q23 0 40 15t28 39.5t16.5 55t5.5 61.5q0 13 -2.5 26.5t-9 24.5t-17 18t-26.5 7q-23 0 -39.5 -15t-27.5 -39.5t-16.5 -54.5t-5.5 -60zM580 -16q-38 0 -67 13t-48.5 34.5t-29.5 50.5t-10 62q0 49 13.5 92.5t39 76t61.5 51.5t80 19q39 0 68 -13t48.5 -35t29.5 -51t10 -61
q0 -49 -13.5 -92.5t-38.5 -76t-61 -51.5t-82 -19zM528 138q0 -15 2 -29t8 -25t16.5 -17.5t27.5 -6.5q23 0 40 15t28 39.5t16.5 55t5.5 61.5q0 13 -2.5 26.5t-9 24.5t-17 18t-26.5 7q-23 0 -39.5 -15t-27.5 -39.5t-16.5 -54.5t-5.5 -60zM957 -16q-38 0 -67 13t-48.5 34.5
t-29.5 50.5t-10 62q0 49 13.5 92.5t39 76t61.5 51.5t80 19q39 0 68 -13t48.5 -35t29.5 -51t10 -61q0 -49 -13.5 -92.5t-38.5 -76t-61 -51.5t-82 -19zM905 138q0 -15 2 -29t8 -25t16.5 -17.5t27.5 -6.5q23 0 40 15t28 39.5t16.5 55t5.5 61.5q0 13 -2.5 26.5t-9 24.5t-17 18
t-26.5 7q-23 0 -39.5 -15t-27.5 -39.5t-16.5 -54.5t-5.5 -60z" />
    <glyph glyph-name="uni2032" unicode="&#x2032;" horiz-adv-x="198" 
d="M147 715h117l-85 -251h-117z" />
    <glyph glyph-name="uni2033" unicode="&#x2033;" horiz-adv-x="376" 
d="M325 715h117l-85 -251h-117zM147 715h117l-85 -251h-117z" />
    <glyph glyph-name="guilsinglleft" unicode="&#x2039;" horiz-adv-x="273" 
d="M40 199l25 125l189 137l-26 -135l-103 -73v-2l75 -72l-24 -124z" />
    <glyph glyph-name="guilsinglright" unicode="&#x203a;" horiz-adv-x="273" 
d="M233 317l-25 -125l-189 -137l26 135l103 73v2l-75 72l24 124z" />
    <glyph glyph-name="fraction" unicode="&#x2044;" horiz-adv-x="240" 
d="M396 715h90l-604 -715h-90z" />
    <glyph glyph-name="zero.superior" unicode="&#x2070;" horiz-adv-x="390" 
d="M226 309q-73 0 -117.5 42.5t-44.5 121.5q0 46 13.5 90.5t39.5 80t64.5 57.5t88.5 22q70 0 114 -43t44 -122q0 -46 -12.5 -90.5t-38 -80t-63.5 -57t-88 -21.5zM229 388q27 0 45 18.5t29.5 45.5t16 57t4.5 54q0 16 -2.5 31t-9 26.5t-17.5 18.5t-29 7q-27 0 -46 -19
t-30 -46.5t-16 -58t-5 -53.5q0 -16 2.5 -30.5t9.5 -26t18.5 -18t29.5 -6.5z" />
    <glyph glyph-name="four.superior" unicode="&#x2074;" horiz-adv-x="373" 
d="M232 402h-186l17 91l227 226h102l-47 -242h59l-14 -75h-60l-16 -84h-98zM141 477h106l26 132h-2l-130 -130v-2z" />
    <glyph glyph-name="five.superior" unicode="&#x2075;" horiz-adv-x="351" 
d="M200 309q-33 0 -61 8.5t-49 25t-33.5 39.5t-13.5 53h97q4 -23 20 -36t42 -13q30 0 49 20.5t19 53.5q0 28 -15 43t-40 15q-37 0 -58 -26h-87l67 223h253l-17 -81h-178l-22 -71h1q14 11 34.5 19.5t46.5 8.5q54 0 86 -34.5t32 -89.5q0 -38 -13.5 -67.5t-36.5 -49.5
t-55 -30.5t-68 -10.5z" />
    <glyph glyph-name="six.superior" unicode="&#x2076;" horiz-adv-x="359" 
d="M214 309q-72 0 -115 42.5t-42 120.5q0 26 5 54t14.5 55t24.5 51.5t36 43.5q26 23 55.5 35t73.5 12q25 0 48 -6t41 -18.5t29.5 -33t14.5 -50.5h-97q-2 19 -12 27.5t-31 8.5q-33 0 -57.5 -29.5t-35.5 -75.5h1q17 19 40.5 29.5t51.5 10.5q24 0 46.5 -7.5t39.5 -22.5
t27 -37.5t10 -52.5q0 -35 -13 -64t-35.5 -49.5t-53 -32t-66.5 -11.5zM215 383q29 0 49 20t20 54q0 26 -15 43t-44 17t-49.5 -20.5t-20.5 -54.5q0 -27 16.5 -43t43.5 -16z" />
    <glyph glyph-name="seven.superior" unicode="&#x2077;" horiz-adv-x="331" 
d="M87 318q11 51 31.5 97t46 85.5t54 72t56.5 56.5v1h-191l16 85h298l-15 -77q-31 -27 -60 -60.5t-53.5 -74t-43.5 -87t-29 -98.5h-110v0z" />
    <glyph glyph-name="eight.superior" unicode="&#x2078;" horiz-adv-x="366" 
d="M211 309q-30 0 -59.5 6t-52.5 20t-37.5 35.5t-14.5 53.5q1 45 26.5 71t63.5 38v2q-21 12 -31.5 30.5t-10.5 40.5q0 31 14 53t36.5 36t50.5 21t55 7q29 0 56.5 -5.5t48.5 -18.5t33 -33t12 -48q-1 -32 -20.5 -55.5t-48.5 -35.5v-2q55 -25 55 -86q0 -35 -15 -59.5
t-39.5 -40.5t-56.5 -23t-65 -7zM215 381q29 0 49 16t20 46q0 27 -19 40t-44 13q-27 0 -48.5 -15t-21.5 -46q0 -27 19.5 -40.5t44.5 -13.5zM244 559q25 0 42 12.5t17 37.5q0 23 -15.5 35t-37.5 12q-24 0 -41 -14t-17 -37t14.5 -34.5t37.5 -11.5z" />
    <glyph glyph-name="nine.superior" unicode="&#x2079;" horiz-adv-x="363" 
d="M192 308q-27 0 -52 6.5t-44.5 19.5t-31.5 33.5t-15 49.5h98q3 -17 15 -26.5t35 -9.5q71 0 90 101h-1q-18 -19 -40.5 -30.5t-49.5 -11.5t-50 8.5t-40 25t-27 39.5t-10 52q0 35 13 64t36 50t54.5 32.5t67.5 11.5q71 0 113.5 -39.5t42.5 -120.5q0 -26 -4 -53.5t-12 -54.5
t-21 -51.5t-31 -43.5q-49 -52 -136 -52zM228 513q29 0 49.5 21t20.5 55q0 27 -15.5 43t-43.5 16q-30 0 -50.5 -20.5t-20.5 -53.5q-1 -27 15 -44t45 -17z" />
    <glyph glyph-name="zero.inferior" unicode="&#x2080;" horiz-adv-x="390" 
d="M140 -159q-73 0 -117.5 42.5t-44.5 121.5q0 46 13.5 90.5t39.5 80t64.5 57.5t88.5 22q70 0 114 -43t44 -122q0 -46 -12.5 -90.5t-38 -80t-63.5 -57t-88 -21.5zM143 -80q27 0 45 18.5t29.5 45.5t16 57t4.5 54q0 16 -2.5 31t-9 26.5t-17.5 18.5t-29 7q-27 0 -46 -19
t-30 -46.5t-16 -58t-5 -53.5q0 -16 2.5 -30.5t9.5 -26t18.5 -18t29.5 -6.5z" />
    <glyph glyph-name="one.inferior" unicode="&#x2081;" horiz-adv-x="247" 
d="M64 100h-89l13 69q46 2 78.5 20.5t47.5 60.5h82l-78 -400h-103z" />
    <glyph glyph-name="two.inferior" unicode="&#x2082;" horiz-adv-x="350" 
d="M-54 -150q9 56 37 90t62 57q35 23 64.5 39t54.5 33q19 13 29.5 26t10.5 36q0 20 -11.5 31.5t-32.5 11.5q-26 0 -43.5 -19t-25.5 -55h-97q11 76 59 115.5t117 39.5q27 0 52 -7.5t44 -22t30.5 -36.5t11.5 -50q0 -24 -7.5 -43.5t-20 -35.5t-29 -28.5t-33.5 -23.5
t-34.5 -20.5t-34 -18.5t-31 -18.5t-23.5 -19.5h180l-16 -81h-313v0z" />
    <glyph glyph-name="three.inferior" unicode="&#x2083;" horiz-adv-x="355" 
d="M120 -159q-36 0 -65.5 9.5t-51 28t-33 45.5t-9.5 61h98q-1 -31 14.5 -49.5t48.5 -18.5q27 0 43 15t16 41q0 49 -59 49h-22l14 69h26q26 0 43.5 12t17.5 36q0 20 -13.5 31t-34.5 11q-28 0 -44 -17t-21 -41h-96q9 58 53.5 95t114.5 37q62 0 102 -28t40 -79q-1 -34 -22 -57
t-53 -34v-1q24 -10 41 -30.5t17 -54.5q0 -32 -13.5 -56t-36.5 -40.5t-52.5 -25t-62.5 -8.5z" />
    <glyph glyph-name="four.inferior" unicode="&#x2084;" horiz-adv-x="373" 
d="M145 -66h-186l17 91l227 226h102l-47 -242h59l-14 -75h-60l-16 -84h-98zM54 9h106l26 132h-2l-130 -130v-2z" />
    <glyph glyph-name="five.inferior" unicode="&#x2085;" horiz-adv-x="351" 
d="M113 -159q-33 0 -61 8.5t-49 25t-33.5 39.5t-13.5 53h97q4 -23 20 -36t42 -13q30 0 49 20.5t19 53.5q0 28 -15 43t-40 15q-37 0 -58 -26h-87l67 223h253l-17 -81h-178l-22 -71h1q14 11 34.5 19.5t46.5 8.5q54 0 86 -34.5t32 -89.5q0 -38 -13.5 -67.5t-36.5 -49.5
t-55 -30.5t-68 -10.5z" />
    <glyph glyph-name="six.inferior" unicode="&#x2086;" horiz-adv-x="359" 
d="M127 -159q-72 0 -115 42.5t-42 120.5q0 26 5 54t14.5 55t24.5 51.5t36 43.5q26 23 55.5 35t73.5 12q25 0 48 -6t41 -18.5t29.5 -33t14.5 -50.5h-97q-2 19 -12 27.5t-31 8.5q-33 0 -57.5 -29.5t-35.5 -75.5h1q17 19 40.5 29.5t51.5 10.5q24 0 46.5 -7.5t39.5 -22.5
t27 -37.5t10 -52.5q0 -35 -13 -64t-35.5 -49.5t-53 -32t-66.5 -11.5zM128 -85q29 0 49 20t20 54q0 26 -15 43t-44 17t-49.5 -20.5t-20.5 -54.5q0 -27 16.5 -43t43.5 -16z" />
    <glyph glyph-name="seven.inferior" unicode="&#x2087;" horiz-adv-x="331" 
d="M0 -150q11 51 31.5 97t46 85.5t54 72t56.5 56.5v1h-191l16 85h298l-15 -77q-31 -27 -60 -60.5t-53.5 -74t-43.5 -87t-29 -98.5h-110v0z" />
    <glyph glyph-name="eight.inferior" unicode="&#x2088;" horiz-adv-x="366" 
d="M124 -159q-30 0 -59.5 6t-52.5 20t-37.5 35.5t-14.5 53.5q1 45 26.5 71t63.5 38v2q-21 12 -31.5 30.5t-10.5 40.5q0 31 14 53t36.5 36t50.5 21t55 7q29 0 56.5 -5.5t48.5 -18.5t33 -33t12 -48q-1 -32 -20.5 -55.5t-48.5 -35.5v-2q55 -25 55 -86q0 -35 -15 -59.5
t-39.5 -40.5t-56.5 -23t-65 -7zM128 -87q29 0 49 16t20 46q0 27 -19 40t-44 13q-27 0 -48.5 -15t-21.5 -46q0 -27 19.5 -40.5t44.5 -13.5zM157 91q25 0 42 12.5t17 37.5q0 23 -15.5 35t-37.5 12q-24 0 -41 -14t-17 -37t14.5 -34.5t37.5 -11.5z" />
    <glyph glyph-name="nine.inferior" unicode="&#x2089;" horiz-adv-x="363" 
d="M105 -160q-27 0 -52 6.5t-44.5 19.5t-31.5 33.5t-15 49.5h98q3 -17 15 -26.5t35 -9.5q71 0 90 101h-1q-18 -19 -40.5 -30.5t-49.5 -11.5t-50 8.5t-40 25t-27 39.5t-10 52q0 35 13 64t36 50t54.5 32.5t67.5 11.5q71 0 113.5 -39.5t42.5 -120.5q0 -26 -4 -53.5t-12 -54.5
t-21 -51.5t-31 -43.5q-49 -52 -136 -52zM141 45q29 0 49.5 21t20.5 55q0 27 -15.5 43t-43.5 16q-30 0 -50.5 -20.5t-20.5 -53.5q-1 -27 15 -44t45 -17z" />
    <glyph glyph-name="Euro" unicode="&#x20ac;" horiz-adv-x="620" 
d="M222 369q-6 -32 -9 -63h181l-11 -58h-171q1 -31 7 -58t20.5 -47.5t37 -32.5t56.5 -12q54 -1 91.5 36.5t54.5 103.5h131q-12 -59 -37 -106t-61 -80t-82.5 -50.5t-100.5 -17.5q-116 0 -184.5 67.5t-73.5 196.5h-55l11 58h45q3 31 9 63h-42l11 58h45q18 59 48.5 109t71 86.5
t90 57t105.5 20.5q114 0 171 -60t59 -172h-132q-1 22 -5.5 43.5t-16 38.5t-32 27t-51.5 10q-58 0 -100.5 -44.5t-65.5 -115.5h180l-11 -58h-184z" />
    <glyph glyph-name="afii61289" unicode="&#x2113;" horiz-adv-x="377" 
d="M14 262q14 4 28 7.5t28 8.5l60 306q17 77 60 108t102 31q71 0 100.5 -34t29.5 -95q0 -57 -17 -108.5t-47 -96.5t-72 -82.5t-92 -65.5l-14 -72q-7 -35 4 -52t46 -17q7 0 16.5 0.5t18.5 2.5q11 1 21 3l-20 -100q-12 -2 -23 -4q-20 -3 -46 -3q-95 0 -131 38t-19 123l4 24
q-14 -4 -27 -6.5t-27 -4.5zM215 352q7 6 13.5 11.5t12.5 12.5q22 24 38 52.5t26.5 58.5t15.5 58t5 50q0 16 -6 26t-21 10t-24 -12.5t-16 -43.5z" />
    <glyph glyph-name="trademark" unicode="&#x2122;" horiz-adv-x="668" 
d="M397 715h104l15 -176h2l83 176h108l-54 -279h-71l35 181h-2l-89 -181h-60l-18 181h-2l-35 -181h-70zM119 715h238l-12 -64h-81l-42 -215h-77l42 215h-80z" />
    <glyph glyph-name="Omega" unicode="&#x2126;" horiz-adv-x="725" 
d="M578 427q0 39 -9 72.5t-29.5 58.5t-52 39t-76.5 14q-64 0 -108.5 -29t-72.5 -74.5t-40.5 -102.5t-12.5 -113q0 -73 27 -121t85 -65l-21 -106h-284l21 109h116v2q-40 29 -61.5 82.5t-21.5 115.5q0 79 25 154.5t73.5 134.5t119.5 95t164 36q66 0 121.5 -20t96.5 -58.5
t64 -94t23 -126.5q0 -101 -39.5 -185t-115.5 -134v-2h99l-21 -109h-298l20 107q55 8 94 39t64.5 75.5t37.5 98t12 107.5z" />
    <glyph glyph-name="estimated" unicode="&#x212e;" horiz-adv-x="635" 
d="M186 301v-213q27 -24 65.5 -37.5t91.5 -13.5q88 0 136.5 39.5t72.5 109.5h51q-10 -43 -31 -79t-53.5 -62.5t-76.5 -41t-99 -14.5q-71 0 -126.5 23.5t-93.5 66t-58 101t-20 129.5q0 70 21.5 128.5t60.5 100.5t92.5 65.5t118.5 23.5q54 0 97 -15.5t76 -43.5
q55 -47 76 -113.5t20 -153.5h-421zM338 582q-49 0 -87.5 -14.5t-64.5 -37.5v-185h283v197q-23 18 -56 29t-75 11z" />
    <glyph glyph-name="onethird" unicode="&#x2153;" horiz-adv-x="804" 
d="M161 568h-89l13 69q46 2 78.5 20.5t47.5 60.5h82l-78 -400h-103zM647 715h90l-604 -715h-90zM605 -9q-36 0 -65.5 9.5t-51 28t-33 45.5t-9.5 61h98q-1 -31 14.5 -49.5t48.5 -18.5q27 0 43 15t16 41q0 49 -59 49h-22l14 69h26q26 0 43.5 12t17.5 36q0 20 -13.5 31
t-34.5 11q-28 0 -44 -17t-21 -41h-96q9 58 53.5 95t114.5 37q62 0 102 -28t40 -79q-1 -34 -22 -57t-53 -34v-1q24 -10 41 -30.5t17 -54.5q0 -32 -13.5 -56t-36.5 -40.5t-52.5 -25t-62.5 -8.5z" />
    <glyph glyph-name="twothirds" unicode="&#x2154;" horiz-adv-x="885" 
d="M42 318q9 56 37 90t62 57q35 23 64.5 39t54.5 33q19 13 29.5 26t10.5 36q0 20 -11.5 31.5t-32.5 11.5q-26 0 -43.5 -19t-25.5 -55h-97q11 76 59 115.5t117 39.5q27 0 52 -7.5t44 -22t30.5 -36.5t11.5 -50q0 -24 -7.5 -43.5t-20 -35.5t-29 -28.5t-33.5 -23.5t-34.5 -20.5
t-34 -18.5t-31 -18.5t-23.5 -19.5h180l-16 -81h-313zM740 715h90l-604 -715h-90zM686 -9q-36 0 -65.5 9.5t-51 28t-33 45.5t-9.5 61h98q-1 -31 14.5 -49.5t48.5 -18.5q27 0 43 15t16 41q0 49 -59 49h-22l14 69h26q26 0 43.5 12t17.5 36q0 20 -13.5 31t-34.5 11
q-28 0 -44 -17t-21 -41h-96q9 58 53.5 95t114.5 37q62 0 102 -28t40 -79q-1 -34 -22 -57t-53 -34v-1q24 -10 41 -30.5t17 -54.5q0 -32 -13.5 -56t-36.5 -40.5t-52.5 -25t-62.5 -8.5z" />
    <glyph glyph-name="oneeighth" unicode="&#x215b;" horiz-adv-x="812" 
d="M161 568h-89l13 69q46 2 78.5 20.5t47.5 60.5h82l-78 -400h-103zM647 715h90l-604 -715h-90zM606 -9q-30 0 -59.5 6t-52.5 20t-37.5 35.5t-14.5 53.5q1 45 26.5 71t63.5 38v2q-21 12 -31.5 30.5t-10.5 40.5q0 31 14 53t36.5 36t50.5 21t55 7q29 0 56.5 -5.5t48.5 -18.5
t33 -33t12 -48q-1 -32 -20.5 -55.5t-48.5 -35.5v-2q55 -25 55 -86q0 -35 -15 -59.5t-39.5 -40.5t-56.5 -23t-65 -7zM610 63q29 0 49 16t20 46q0 27 -19 40t-44 13q-27 0 -48.5 -15t-21.5 -46q0 -27 19.5 -40.5t44.5 -13.5zM639 241q25 0 42 12.5t17 37.5q0 23 -15.5 35
t-37.5 12q-24 0 -41 -14t-17 -37t14.5 -34.5t37.5 -11.5z" />
    <glyph glyph-name="threeeighths" unicode="&#x215c;" horiz-adv-x="858" 
d="M210 309q-36 0 -65.5 9.5t-51 28t-33 45.5t-9.5 61h98q-1 -31 14.5 -49.5t48.5 -18.5q27 0 43 15t16 41q0 49 -59 49h-22l14 69h26q26 0 43.5 12t17.5 36q0 20 -13.5 31t-34.5 11q-28 0 -44 -17t-21 -41h-96q9 58 53.5 95t114.5 37q62 0 102 -28t40 -79q-1 -34 -22 -57
t-53 -34v-1q24 -10 41 -30.5t17 -54.5q0 -32 -13.5 -56t-36.5 -40.5t-52.5 -25t-62.5 -8.5zM708 715h90l-604 -715h-90zM652 -9q-30 0 -59.5 6t-52.5 20t-37.5 35.5t-14.5 53.5q1 45 26.5 71t63.5 38v2q-21 12 -31.5 30.5t-10.5 40.5q0 31 14 53t36.5 36t50.5 21t55 7
q29 0 56.5 -5.5t48.5 -18.5t33 -33t12 -48q-1 -32 -20.5 -55.5t-48.5 -35.5v-2q55 -25 55 -86q0 -35 -15 -59.5t-39.5 -40.5t-56.5 -23t-65 -7zM656 63q29 0 49 16t20 46q0 27 -19 40t-44 13q-27 0 -48.5 -15t-21.5 -46q0 -27 19.5 -40.5t44.5 -13.5zM685 241q25 0 42 12.5
t17 37.5q0 23 -15.5 35t-37.5 12q-24 0 -41 -14t-17 -37t14.5 -34.5t37.5 -11.5z" />
    <glyph glyph-name="fiveeighths" unicode="&#x215d;" horiz-adv-x="848" 
d="M203 309q-33 0 -61 8.5t-49 25t-33.5 39.5t-13.5 53h97q4 -23 20 -36t42 -13q30 0 49 20.5t19 53.5q0 28 -15 43t-40 15q-37 0 -58 -26h-87l67 223h253l-17 -81h-178l-22 -71h1q14 11 34.5 19.5t46.5 8.5q54 0 86 -34.5t32 -89.5q0 -38 -13.5 -67.5t-36.5 -49.5
t-55 -30.5t-68 -10.5zM699 715h90l-604 -715h-90zM642 -9q-30 0 -59.5 6t-52.5 20t-37.5 35.5t-14.5 53.5q1 45 26.5 71t63.5 38v2q-21 12 -31.5 30.5t-10.5 40.5q0 31 14 53t36.5 36t50.5 21t55 7q29 0 56.5 -5.5t48.5 -18.5t33 -33t12 -48q-1 -32 -20.5 -55.5t-48.5 -35.5
v-2q55 -25 55 -86q0 -35 -15 -59.5t-39.5 -40.5t-56.5 -23t-65 -7zM646 63q29 0 49 16t20 46q0 27 -19 40t-44 13q-27 0 -48.5 -15t-21.5 -46q0 -27 19.5 -40.5t44.5 -13.5zM675 241q25 0 42 12.5t17 37.5q0 23 -15.5 35t-37.5 12q-24 0 -41 -14t-17 -37t14.5 -34.5
t37.5 -11.5z" />
    <glyph glyph-name="seveneighths" unicode="&#x215e;" horiz-adv-x="787" 
d="M90 318q11 51 31.5 97t46 85.5t54 72t56.5 56.5v1h-191l16 85h298l-15 -77q-31 -27 -60 -60.5t-53.5 -74t-43.5 -87t-29 -98.5h-110zM624 715h90l-604 -715h-90zM581 -9q-30 0 -59.5 6t-52.5 20t-37.5 35.5t-14.5 53.5q1 45 26.5 71t63.5 38v2q-21 12 -31.5 30.5
t-10.5 40.5q0 31 14 53t36.5 36t50.5 21t55 7q29 0 56.5 -5.5t48.5 -18.5t33 -33t12 -48q-1 -32 -20.5 -55.5t-48.5 -35.5v-2q55 -25 55 -86q0 -35 -15 -59.5t-39.5 -40.5t-56.5 -23t-65 -7zM585 63q29 0 49 16t20 46q0 27 -19 40t-44 13q-27 0 -48.5 -15t-21.5 -46
q0 -27 19.5 -40.5t44.5 -13.5zM614 241q25 0 42 12.5t17 37.5q0 23 -15.5 35t-37.5 12q-24 0 -41 -14t-17 -37t14.5 -34.5t37.5 -11.5z" />
    <glyph glyph-name="partialdiff" unicode="&#x2202;" horiz-adv-x="572" 
d="M394 417q-9 45 -31 77.5t-55 54.5t-75.5 35t-90.5 19v119q94 -5 168.5 -35.5t126 -84t78.5 -129t27 -169.5q0 -72 -16.5 -131t-49.5 -100.5t-84 -64t-120 -22.5q-60 0 -105 16.5t-75 46.5t-45 72.5t-15 93.5q0 55 17.5 101t49 78.5t74.5 50.5t94 18q45 0 76.5 -13
t50.5 -33zM274 92q31 0 55 12.5t40 33.5t24 49t8 59q0 59 -30 86.5t-76 27.5q-55 0 -91.5 -36.5t-36.5 -110.5q0 -65 30.5 -93t76.5 -28z" />
    <glyph glyph-name="Delta" unicode="&#x2206;" horiz-adv-x="647" 
d="M-10 98l336 617h146l123 -616l-18 -99h-606zM137 111h315l-62 341q-3 16 -5.5 38t-4.5 43q-3 24 -4 50h-2q-10 -24 -20 -47q-8 -20 -17.5 -40.5t-17.5 -34.5z" />
    <glyph glyph-name="product" unicode="&#x220f;" horiz-adv-x="715" 
d="M667 715v-815h-145v693h-295v-693h-145v815h585z" />
    <glyph glyph-name="summation" unicode="&#x2211;" horiz-adv-x="636" 
d="M67 -100v125l282 290v2l-282 273v125h524v-118h-362v-2l262 -246v-60l-269 -270v-2h379v-117h-534z" />
    <glyph glyph-name="minus" unicode="&#x2212;" horiz-adv-x="560" 
d="M57 377h491l-19 -98h-491z" />
    <glyph glyph-name="uni2215" unicode="&#x2215;" horiz-adv-x="240" 
d="M396 715h90l-604 -715h-90z" />
    <glyph glyph-name="uni2219" unicode="&#x2219;" horiz-adv-x="215" 
d="M60 388h144l-28 -145h-144z" />
    <glyph glyph-name="radical" unicode="&#x221a;" horiz-adv-x="591" 
d="M19 333h174l55 -139q8 -22 16 -42t13 -36q6 -18 11 -35h2q4 17 8 35q4 16 9.5 36.5t13.5 42.5l167 520h130l-264 -815h-119l-131 315h-85v118z" />
    <glyph glyph-name="infinity" unicode="&#x221e;" horiz-adv-x="725" 
d="M189 124q-39 0 -68.5 14.5t-49 39.5t-29.5 58t-10 69t10 68.5t30 57.5t49 39.5t68 14.5q31 0 57 -8.5t48 -24t40.5 -37t35.5 -46.5q34 51 74.5 83.5t100.5 32.5q36 0 65 -13t49.5 -37t32 -57t11.5 -73q0 -41 -11.5 -74t-32 -57t-49.5 -37t-65 -13q-60 0 -100.5 32.5
t-74.5 83.5q-17 -25 -35.5 -46.5t-40.5 -37t-48 -24t-57 -8.5zM201 385q-33 0 -47.5 -23.5t-14.5 -56.5q0 -34 14.5 -57.5t47.5 -23.5q32 0 55 24.5t42 55.5q-19 32 -42 56.5t-55 24.5zM534 224q33 0 48 23.5t15 57.5q0 33 -15 56.5t-48 23.5q-30 0 -52 -24.5t-41 -56.5
q19 -31 41 -55.5t52 -24.5z" />
    <glyph glyph-name="integral" unicode="&#x222b;" horiz-adv-x="337" 
d="M106 595q0 40 8.5 64t24.5 41q23 23 53 32t80 9q30 0 50.5 -3t36.5 -8v-102h-3q-8 3 -21 5.5t-32 2.5q-30 0 -45.5 -11t-15.5 -43v-612q0 -40 -8.5 -64t-24.5 -41q-23 -23 -53 -32t-80 -9q-30 0 -50.5 3t-36.5 8v102h3q8 -3 21 -5.5t32 -2.5q30 0 45.5 11t15.5 43v612z
" />
    <glyph glyph-name="approxequal" unicode="&#x2248;" horiz-adv-x="553" 
d="M65 339q8 72 46 107t95 35q24 0 53 -5t58.5 -11.5t55 -11.5t42.5 -5t25.5 8t11.5 24h94q-8 -61 -40 -99.5t-95 -38.5q-28 0 -59 5t-60.5 11t-54.5 11t-40 5q-29 0 -38 -35h-94zM36 145q8 72 45.5 107t94.5 35q24 0 53 -5t58.5 -11.5t55 -11.5t42.5 -5t25.5 8t11.5 24h94
q-8 -61 -40 -99.5t-95 -38.5q-28 0 -59 5t-60.5 11t-54.5 11t-40 5q-29 0 -37 -35h-94z" />
    <glyph glyph-name="notequal" unicode="&#x2260;" horiz-adv-x="553" 
d="M88 455h239l50 88h91l-51 -88h128l-19 -96h-164l-56 -97h202l-19 -96h-238l-50 -88h-90l50 88h-129l19 96h165l56 97h-203z" />
    <glyph glyph-name="lessequal" unicode="&#x2264;" 
d="M47 274l24 123l432 144l-22 -111l-231 -72q-13 -5 -30 -9.5t-32 -8.5l-36 -9v-2q17 -5 33 -9q14 -4 29 -9t26 -9l202 -71l-20 -107zM13 96h404l-19 -96h-404z" />
    <glyph glyph-name="greaterequal" unicode="&#x2265;" 
d="M398 0h-404l19 96h404zM474 391l-24 -123l-432 -144l22 111l231 72q13 4 30 9t32 9l36 9v2q-17 5 -33 9q-14 4 -29 8.5t-26 9.5l-202 71l20 107z" />
    <glyph glyph-name="uni24C5" unicode="&#x24c5;" horiz-adv-x="815" 
d="M424 -17q-77 0 -144.5 28t-117 77.5t-78 118t-28.5 148.5t28.5 148.5t78 118.5t117 78t144.5 28t144 -28t116.5 -78t78 -118.5t28.5 -148.5t-28.5 -148.5t-78 -118t-116.5 -77.5t-144 -28zM424 32q66 0 122.5 24.5t98 67.5t65 102.5t23.5 128.5t-23.5 128.5t-65 102.5
t-98 67.5t-122.5 24.5t-123 -24.5t-98.5 -67.5t-65 -102.5t-23.5 -128.5t23.5 -128.5t65 -102.5t98.5 -67.5t123 -24.5zM278 557h188q38 0 66 -10.5t47 -28.5q40 -37 40 -100q0 -30 -10 -54.5t-28 -42.5t-44 -28t-57 -10h-98v-139h-104v413zM382 363h74q29 0 44 14t15 40
q0 55 -59 55h-74v-109z" />
    <glyph glyph-name="lozenge" unicode="&#x25ca;" horiz-adv-x="560" 
d="M567 357l-201 -357h-121l-202 358l201 357h121zM181 360l124 -238h2l121 232l-123 239h-2z" />
    <glyph glyph-name="f_i" unicode="&#xf001;" horiz-adv-x="539" 
d="M62 513h67l12 61q15 77 62 109.5t115 33.5q34 0 72 -6l-20 -104q-21 3 -38 3q-28 0 -41.5 -12t-19.5 -42l-9 -43h89l-18 -94h-89l-81 -419h-133l81 419h-67zM411 513h134l-99 -513h-134zM450 715h134l-23 -122h-134z" />
    <glyph glyph-name="f_l" unicode="&#xf002;" horiz-adv-x="543" 
d="M62 513h67l12 61q15 77 62 109.5t115 33.5q34 0 72 -6l-20 -104q-21 3 -38 3q-28 0 -41.5 -12t-19.5 -42l-9 -43h89l-18 -94h-89l-81 -419h-133l81 419h-67zM452 715h134l-138 -715h-134z" />
    <glyph glyph-name="uniF8FF" unicode="&#xf8ff;" horiz-adv-x="856" 
d="M92 716h716v-716h-716v716zM210 287h168v-169h144v169h168v144h-168v163h-144v-163h-168v-144z" />
    <glyph glyph-name="dotlessj" horiz-adv-x="220" 
d="M-33 -169q-18 0 -39 2t-43 8l18 96q18 -1 33 0t25.5 6t17.5 14t10 25l103 531h134l-106 -545q-9 -45 -21.5 -68.5t-31.5 -38.5q-39 -30 -100 -30z" />
    <glyph glyph-name="commaaccent" 
d="M131 -219q26 5 47 19.5t26 44.5h-59l21 107h122l-20 -102q-6 -29 -19.5 -49.5t-32.5 -33.5t-43 -20t-51 -10z" />
    <glyph glyph-name="zero.denominator" horiz-adv-x="390" 
d="M169 -9q-73 0 -117.5 42.5t-44.5 121.5q0 46 13.5 90.5t39.5 80t64.5 57.5t88.5 22q70 0 114 -43t44 -122q0 -46 -12.5 -90.5t-38 -80t-63.5 -57t-88 -21.5zM172 70q27 0 45 18.5t29.5 45.5t16 57t4.5 54q0 16 -2.5 31t-9 26.5t-17.5 18.5t-29 7q-27 0 -46 -19t-30 -46.5
t-16 -58t-5 -53.5q0 -16 2.5 -30.5t9.5 -26t18.5 -18t29.5 -6.5z" />
    <glyph glyph-name="one.denominator" horiz-adv-x="247" 
d="M93 250h-89l13 69q46 2 78.5 20.5t47.5 60.5h82l-78 -400h-103z" />
    <glyph glyph-name="two.denominator" horiz-adv-x="350" 
d="M-25 0q9 56 37 90t62 57q35 23 64.5 39t54.5 33q19 13 29.5 26t10.5 36q0 20 -11.5 31.5t-32.5 11.5q-26 0 -43.5 -19t-25.5 -55h-97q11 76 59 115.5t117 39.5q27 0 52 -7.5t44 -22t30.5 -36.5t11.5 -50q0 -24 -7.5 -43.5t-20 -35.5t-29 -28.5t-33.5 -23.5t-34.5 -20.5
t-34 -18.5t-31 -18.5t-23.5 -19.5h180l-16 -81h-313v0z" />
    <glyph glyph-name="three.denominator" horiz-adv-x="355" 
d="M149 -9q-36 0 -65.5 9.5t-51 28t-33 45.5t-9.5 61h98q-1 -31 14.5 -49.5t48.5 -18.5q27 0 43 15t16 41q0 49 -59 49h-22l14 69h26q26 0 43.5 12t17.5 36q0 20 -13.5 31t-34.5 11q-28 0 -44 -17t-21 -41h-96q9 58 53.5 95t114.5 37q62 0 102 -28t40 -79q-1 -34 -22 -57
t-53 -34v-1q24 -10 41 -30.5t17 -54.5q0 -32 -13.5 -56t-36.5 -40.5t-52.5 -25t-62.5 -8.5z" />
    <glyph glyph-name="four.denominator" horiz-adv-x="373" 
d="M174 84h-186l17 91l227 226h102l-47 -242h59l-14 -75h-60l-16 -84h-98zM83 159h106l26 132h-2l-130 -130v-2z" />
    <glyph glyph-name="five.denominator" horiz-adv-x="351" 
d="M142 -9q-33 0 -61 8.5t-49 25t-33.5 39.5t-13.5 53h97q4 -23 20 -36t42 -13q30 0 49 20.5t19 53.5q0 28 -15 43t-40 15q-37 0 -58 -26h-87l67 223h253l-17 -81h-178l-22 -71h1q14 11 34.5 19.5t46.5 8.5q54 0 86 -34.5t32 -89.5q0 -38 -13.5 -67.5t-36.5 -49.5t-55 -30.5
t-68 -10.5z" />
    <glyph glyph-name="six.denominator" horiz-adv-x="359" 
d="M156 -9q-72 0 -115 42.5t-42 120.5q0 26 5 54t14.5 55t24.5 51.5t36 43.5q26 23 55.5 35t73.5 12q25 0 48 -6t41 -18.5t29.5 -33t14.5 -50.5h-97q-2 19 -12 27.5t-31 8.5q-33 0 -57.5 -29.5t-35.5 -75.5h1q17 19 40.5 29.5t51.5 10.5q24 0 46.5 -7.5t39.5 -22.5t27 -37.5
t10 -52.5q0 -35 -13 -64t-35.5 -49.5t-53 -32t-66.5 -11.5zM157 65q29 0 49 20t20 54q0 26 -15 43t-44 17t-49.5 -20.5t-20.5 -54.5q0 -27 16.5 -43t43.5 -16z" />
    <glyph glyph-name="seven.denominator" horiz-adv-x="331" 
d="M29 0q11 51 31.5 97t46 85.5t54 72t56.5 56.5v1h-191l16 85h298l-15 -77q-31 -27 -60 -60.5t-53.5 -74t-43.5 -87t-29 -98.5h-110v0z" />
    <glyph glyph-name="eight.denominator" horiz-adv-x="366" 
d="M153 -9q-30 0 -59.5 6t-52.5 20t-37.5 35.5t-14.5 53.5q1 45 26.5 71t63.5 38v2q-21 12 -31.5 30.5t-10.5 40.5q0 31 14 53t36.5 36t50.5 21t55 7q29 0 56.5 -5.5t48.5 -18.5t33 -33t12 -48q-1 -32 -20.5 -55.5t-48.5 -35.5v-2q55 -25 55 -86q0 -35 -15 -59.5
t-39.5 -40.5t-56.5 -23t-65 -7zM157 63q29 0 49 16t20 46q0 27 -19 40t-44 13q-27 0 -48.5 -15t-21.5 -46q0 -27 19.5 -40.5t44.5 -13.5zM186 241q25 0 42 12.5t17 37.5q0 23 -15.5 35t-37.5 12q-24 0 -41 -14t-17 -37t14.5 -34.5t37.5 -11.5z" />
    <glyph glyph-name="nine.denominator" horiz-adv-x="363" 
d="M134 -10q-27 0 -52 6.5t-44.5 19.5t-31.5 33.5t-15 49.5h98q3 -17 15 -26.5t35 -9.5q71 0 90 101h-1q-18 -19 -40.5 -30.5t-49.5 -11.5t-50 8.5t-40 25t-27 39.5t-10 52q0 35 13 64t36 50t54.5 32.5t67.5 11.5q71 0 113.5 -39.5t42.5 -120.5q0 -26 -4 -53.5t-12 -54.5
t-21 -51.5t-31 -43.5q-49 -52 -136 -52zM170 195q29 0 49.5 21t20.5 55q0 27 -15.5 43t-43.5 16q-30 0 -50.5 -20.5t-20.5 -53.5q-1 -27 15 -44t45 -17z" />
    <glyph glyph-name="zero.numerator" horiz-adv-x="390" 
d="M226 309q-73 0 -117.5 42.5t-44.5 121.5q0 46 13.5 90.5t39.5 80t64.5 57.5t88.5 22q70 0 114 -43t44 -122q0 -46 -12.5 -90.5t-38 -80t-63.5 -57t-88 -21.5zM229 388q27 0 45 18.5t29.5 45.5t16 57t4.5 54q0 16 -2.5 31t-9 26.5t-17.5 18.5t-29 7q-27 0 -46 -19
t-30 -46.5t-16 -58t-5 -53.5q0 -16 2.5 -30.5t9.5 -26t18.5 -18t29.5 -6.5z" />
    <glyph glyph-name="one.numerator" horiz-adv-x="247" 
d="M155 568h-89l13 69q46 2 78.5 20.5t47.5 60.5h82l-78 -400h-103z" />
    <glyph glyph-name="two.numerator" horiz-adv-x="350" 
d="M32 318q9 56 37 90t62 57q35 23 64.5 39t54.5 33q19 13 29.5 26t10.5 36q0 20 -11.5 31.5t-32.5 11.5q-26 0 -43.5 -19t-25.5 -55h-97q11 76 59 115.5t117 39.5q27 0 52 -7.5t44 -22t30.5 -36.5t11.5 -50q0 -24 -7.5 -43.5t-20 -35.5t-29 -28.5t-33.5 -23.5t-34.5 -20.5
t-34 -18.5t-31 -18.5t-23.5 -19.5h180l-16 -81h-313v0z" />
    <glyph glyph-name="three.numerator" horiz-adv-x="355" 
d="M207 309q-36 0 -65.5 9.5t-51 28t-33 45.5t-9.5 61h98q-1 -31 14.5 -49.5t48.5 -18.5q27 0 43 15t16 41q0 49 -59 49h-22l14 69h26q26 0 43.5 12t17.5 36q0 20 -13.5 31t-34.5 11q-28 0 -44 -17t-21 -41h-96q9 58 53.5 95t114.5 37q62 0 102 -28t40 -79q-1 -34 -22 -57
t-53 -34v-1q24 -10 41 -30.5t17 -54.5q0 -32 -13.5 -56t-36.5 -40.5t-52.5 -25t-62.5 -8.5z" />
    <glyph glyph-name="four.numerator" horiz-adv-x="373" 
d="M232 402h-186l17 91l227 226h102l-47 -242h59l-14 -75h-60l-16 -84h-98zM141 477h106l26 132h-2l-130 -130v-2z" />
    <glyph glyph-name="five.numerator" horiz-adv-x="351" 
d="M200 309q-33 0 -61 8.5t-49 25t-33.5 39.5t-13.5 53h97q4 -23 20 -36t42 -13q30 0 49 20.5t19 53.5q0 28 -15 43t-40 15q-37 0 -58 -26h-87l67 223h253l-17 -81h-178l-22 -71h1q14 11 34.5 19.5t46.5 8.5q54 0 86 -34.5t32 -89.5q0 -38 -13.5 -67.5t-36.5 -49.5
t-55 -30.5t-68 -10.5z" />
    <glyph glyph-name="six.numerator" horiz-adv-x="359" 
d="M214 309q-72 0 -115 42.5t-42 120.5q0 26 5 54t14.5 55t24.5 51.5t36 43.5q26 23 55.5 35t73.5 12q25 0 48 -6t41 -18.5t29.5 -33t14.5 -50.5h-97q-2 19 -12 27.5t-31 8.5q-33 0 -57.5 -29.5t-35.5 -75.5h1q17 19 40.5 29.5t51.5 10.5q24 0 46.5 -7.5t39.5 -22.5
t27 -37.5t10 -52.5q0 -35 -13 -64t-35.5 -49.5t-53 -32t-66.5 -11.5zM215 383q29 0 49 20t20 54q0 26 -15 43t-44 17t-49.5 -20.5t-20.5 -54.5q0 -27 16.5 -43t43.5 -16z" />
    <glyph glyph-name="seven.numerator" horiz-adv-x="331" 
d="M87 318q11 51 31.5 97t46 85.5t54 72t56.5 56.5v1h-191l16 85h298l-15 -77q-31 -27 -60 -60.5t-53.5 -74t-43.5 -87t-29 -98.5h-110v0z" />
    <glyph glyph-name="eight.numerator" horiz-adv-x="366" 
d="M211 309q-30 0 -59.5 6t-52.5 20t-37.5 35.5t-14.5 53.5q1 45 26.5 71t63.5 38v2q-21 12 -31.5 30.5t-10.5 40.5q0 31 14 53t36.5 36t50.5 21t55 7q29 0 56.5 -5.5t48.5 -18.5t33 -33t12 -48q-1 -32 -20.5 -55.5t-48.5 -35.5v-2q55 -25 55 -86q0 -35 -15 -59.5
t-39.5 -40.5t-56.5 -23t-65 -7zM215 381q29 0 49 16t20 46q0 27 -19 40t-44 13q-27 0 -48.5 -15t-21.5 -46q0 -27 19.5 -40.5t44.5 -13.5zM244 559q25 0 42 12.5t17 37.5q0 23 -15.5 35t-37.5 12q-24 0 -41 -14t-17 -37t14.5 -34.5t37.5 -11.5z" />
    <glyph glyph-name="nine.numerator" horiz-adv-x="363" 
d="M192 308q-27 0 -52 6.5t-44.5 19.5t-31.5 33.5t-15 49.5h98q3 -17 15 -26.5t35 -9.5q71 0 90 101h-1q-18 -19 -40.5 -30.5t-49.5 -11.5t-50 8.5t-40 25t-27 39.5t-10 52q0 35 13 64t36 50t54.5 32.5t67.5 11.5q71 0 113.5 -39.5t42.5 -120.5q0 -26 -4 -53.5t-12 -54.5
t-21 -51.5t-31 -43.5q-49 -52 -136 -52zM228 513q29 0 49.5 21t20.5 55q0 27 -15.5 43t-43.5 16q-30 0 -50.5 -20.5t-20.5 -53.5q-1 -27 15 -44t45 -17z" />
    <glyph glyph-name="acute.cap" 
d="M380 753h-104l60 125h155z" />
    <glyph glyph-name="breve.cap" 
d="M376 749q-66 0 -101 38t-36 95h76q2 -22 17.5 -35t46.5 -13q29 0 47 13.5t25 34.5h77q-11 -58 -50.5 -95.5t-101.5 -37.5z" />
    <glyph glyph-name="caron.alt" 
d="M244 566q29 2 47 13t22 35h-58l19 101h122l-17 -91q-11 -55 -48 -78t-96 -24z" />
    <glyph glyph-name="caron.cap" 
d="M418 753h-144l-75 114h113l37 -59h2l58 59h120z" />
    <glyph glyph-name="circumflex.cap" 
d="M288 867h144l75 -114h-113l-37 59h-2l-58 -59h-120z" />
    <glyph glyph-name="commaaccent.alt" 
d="M131 -219q26 5 47 19.5t26 44.5h-59l21 107h122l-20 -102q-6 -29 -19.5 -49.5t-32.5 -33.5t-43 -20t-51 -10z" />
    <glyph glyph-name="dieresis.cap" 
d="M400 867h126l-23 -114h-126zM201 867h126l-23 -114h-126z" />
    <glyph glyph-name="dotaccent.cap" 
d="M299 871h134l-24 -118h-134z" />
    <glyph glyph-name="grave.cap" 
d="M233 878h145l29 -125h-102z" />
    <glyph glyph-name="hungarumlaut.cap" 
d="M428 878h127l-93 -125h-82zM257 878h126l-92 -125h-82z" />
    <glyph glyph-name="macron.cap" 
d="M227 857h280l-18 -95h-280z" />
    <glyph glyph-name="ring.cap" 
d="M358 742q-40 0 -68.5 27t-28.5 67q0 19 7.5 36.5t21 30t31 20t37.5 7.5t37.5 -7.5t31 -20t21 -30t7.5 -36.5q0 -40 -28.5 -67t-68.5 -27zM358 789q20 0 32.5 13.5t12.5 33.5t-12.5 33.5t-32.5 13.5t-32.5 -13.5t-12.5 -33.5t12.5 -33.5t32.5 -13.5z" />
    <glyph glyph-name="tilde.cap" 
d="M405 755q-18 0 -33.5 5t-29 11.5t-25 11.5t-21.5 5q-23 0 -30 -31h-71q9 59 36 88.5t64 29.5q18 0 33.5 -5.5t29 -12t25 -12t21.5 -5.5q14 0 21 8.5t12 22.5h71q-8 -51 -34 -83.5t-69 -32.5z" />
    <glyph glyph-name="R.alt" horiz-adv-x="651" 
d="M648 510q0 -42 -13 -77.5t-36.5 -63t-55.5 -47.5t-70 -31l118 -291h-152l-108 276h-126l-53 -276h-148l138 715h271q54 0 97 -13t74 -38.5t47.5 -64t16.5 -89.5zM228 393h140q27 0 51 5t42 18t29 33.5t11 52.5q0 42 -26 65t-74 23h-135z" />
    <glyph glyph-name="Racute.alt" horiz-adv-x="651" 
d="M648 510q0 -42 -13 -77.5t-36.5 -63t-55.5 -47.5t-70 -31l118 -291h-152l-108 276h-126l-53 -276h-148l138 715h271q54 0 97 -13t74 -38.5t47.5 -64t16.5 -89.5zM228 393h140q27 0 51 5t42 18t29 33.5t11 52.5q0 42 -26 65t-74 23h-135zM448 753h-104l60 125h155z" />
    <glyph glyph-name="Rcaron.alt" horiz-adv-x="651" 
d="M648 510q0 -42 -13 -77.5t-36.5 -63t-55.5 -47.5t-70 -31l118 -291h-152l-108 276h-126l-53 -276h-148l138 715h271q54 0 97 -13t74 -38.5t47.5 -64t16.5 -89.5zM228 393h140q27 0 51 5t42 18t29 33.5t11 52.5q0 42 -26 65t-74 23h-135zM460 753h-144l-75 114h113l37 -59
h2l58 59h120z" />
    <glyph glyph-name="Rcommaaccent.alt" horiz-adv-x="651" 
d="M648 510q0 -42 -13 -77.5t-36.5 -63t-55.5 -47.5t-70 -31l118 -291h-152l-108 276h-126l-53 -276h-148l138 715h271q54 0 97 -13t74 -38.5t47.5 -64t16.5 -89.5zM228 393h140q27 0 51 5t42 18t29 33.5t11 52.5q0 42 -26 65t-74 23h-135zM195 -219q26 5 47 19.5t26 44.5
h-59l21 107h122l-20 -102q-6 -29 -19.5 -49.5t-32.5 -33.5t-43 -20t-51 -10z" />
    <glyph glyph-name="Tcommaaccent" horiz-adv-x="585" 
d="M103 715h556l-23 -121h-207l-115 -594h-143l115 594h-206zM137 -219q26 5 47 19.5t26 44.5h-59l21 107h122l-20 -102q-6 -29 -19.5 -49.5t-32.5 -33.5t-43 -20t-51 -10z" />
    <glyph glyph-name="idotaccent" horiz-adv-x="220" 
d="M92 513h134l-99 -513h-134zM131 715h134l-23 -122h-134z" />
    <glyph glyph-name="tcommaaccent" horiz-adv-x="322" 
d="M63 513h65l31 160h131l-31 -160h86l-17 -90h-86l-52 -267q-6 -30 3.5 -43t34.5 -13h12.5t13.5 1q7 0 14 1l-19 -100q-9 -1 -20 -2q-9 -1 -20 -1h-21q-39 0 -67.5 7.5t-45.5 24.5t-22 44.5t3 67.5l55 280h-65zM35 -219q26 5 47 19.5t26 44.5h-59l21 107h122l-20 -102
q-6 -29 -19.5 -49.5t-32.5 -33.5t-43 -20t-51 -10z" />
    <glyph glyph-name="space_uni0326" 
d="M91 -219q26 5 47 19.5t26 44.5h-59l21 107h122l-20 -102q-6 -29 -19.5 -49.5t-32.5 -33.5t-43 -20t-51 -10z" />
    <glyph glyph-name="space_uni0326.alt" 
d="M408 772q-26 -5 -47 -19.5t-26 -44.5h59l-21 -107h-122l20 102q6 29 19.5 49.5t32.5 33.5t43 20t51 10z" />
    <glyph glyph-name="a.alt" horiz-adv-x="517" 
d="M127 151q0 -35 21.5 -52.5t55.5 -17.5q26 0 47.5 7.5t37.5 20.5t26 29t14 34l16 81q-20 -9 -42.5 -14.5t-55.5 -11.5q-18 -3 -39 -5.5t-39 -9.5t-30 -21t-12 -40zM315 61q-25 -30 -61 -51.5t-97 -21.5q-28 0 -56.5 8.5t-51 27t-37 47t-14.5 68.5q0 51 19 82.5t51 50
t74 26.5t89 12q36 3 61.5 6t41 9.5t23 17.5t7.5 30q0 28 -21 42.5t-59 14.5q-42 0 -69 -17.5t-36 -55.5h-120q13 79 71.5 124t158.5 45q48 0 88.5 -11t67.5 -35t38.5 -63t0.5 -95l-40 -205q-3 -16 2.5 -25t27.5 -5h3l-16 -83q-7 -4 -22 -8t-35 -4q-24 0 -39 4.5t-24.5 13.5
t-15.5 21.5t-10 29.5z" />
    <glyph glyph-name="agrave.alt" horiz-adv-x="517" 
d="M127 151q0 -35 21.5 -52.5t55.5 -17.5q26 0 47.5 7.5t37.5 20.5t26 29t14 34l16 81q-20 -9 -42.5 -14.5t-55.5 -11.5q-18 -3 -39 -5.5t-39 -9.5t-30 -21t-12 -40zM315 61q-25 -30 -61 -51.5t-97 -21.5q-28 0 -56.5 8.5t-51 27t-37 47t-14.5 68.5q0 51 19 82.5t51 50
t74 26.5t89 12q36 3 61.5 6t41 9.5t23 17.5t7.5 30q0 28 -21 42.5t-59 14.5q-42 0 -69 -17.5t-36 -55.5h-120q13 79 71.5 124t158.5 45q48 0 88.5 -11t67.5 -35t38.5 -63t0.5 -95l-40 -205q-3 -16 2.5 -25t27.5 -5h3l-16 -83q-7 -4 -22 -8t-35 -4q-24 0 -39 4.5t-24.5 13.5
t-15.5 21.5t-10 29.5zM178 718h146l41 -141h-102z" />
    <glyph glyph-name="aacute.alt" horiz-adv-x="517" 
d="M127 151q0 -35 21.5 -52.5t55.5 -17.5q26 0 47.5 7.5t37.5 20.5t26 29t14 34l16 81q-20 -9 -42.5 -14.5t-55.5 -11.5q-18 -3 -39 -5.5t-39 -9.5t-30 -21t-12 -40zM315 61q-25 -30 -61 -51.5t-97 -21.5q-28 0 -56.5 8.5t-51 27t-37 47t-14.5 68.5q0 51 19 82.5t51 50
t74 26.5t89 12q36 3 61.5 6t41 9.5t23 17.5t7.5 30q0 28 -21 42.5t-59 14.5q-42 0 -69 -17.5t-36 -55.5h-120q13 79 71.5 124t158.5 45q48 0 88.5 -11t67.5 -35t38.5 -63t0.5 -95l-40 -205q-3 -16 2.5 -25t27.5 -5h3l-16 -83q-7 -4 -22 -8t-35 -4q-24 0 -39 4.5t-24.5 13.5
t-15.5 21.5t-10 29.5zM358 577h-105l74 141h157z" />
    <glyph glyph-name="acircumflex.alt" horiz-adv-x="517" 
d="M127 151q0 -35 21.5 -52.5t55.5 -17.5q26 0 47.5 7.5t37.5 20.5t26 29t14 34l16 81q-20 -9 -42.5 -14.5t-55.5 -11.5q-18 -3 -39 -5.5t-39 -9.5t-30 -21t-12 -40zM315 61q-25 -30 -61 -51.5t-97 -21.5q-28 0 -56.5 8.5t-51 27t-37 47t-14.5 68.5q0 51 19 82.5t51 50
t74 26.5t89 12q36 3 61.5 6t41 9.5t23 17.5t7.5 30q0 28 -21 42.5t-59 14.5q-42 0 -69 -17.5t-36 -55.5h-120q13 79 71.5 124t158.5 45q48 0 88.5 -11t67.5 -35t38.5 -63t0.5 -95l-40 -205q-3 -16 2.5 -25t27.5 -5h3l-16 -83q-7 -4 -22 -8t-35 -4q-24 0 -39 4.5t-24.5 13.5
t-15.5 21.5t-10 29.5zM251 707h142l76 -126h-113l-37 69h-2l-58 -69h-120z" />
    <glyph glyph-name="atilde.alt" horiz-adv-x="517" 
d="M127 151q0 -35 21.5 -52.5t55.5 -17.5q26 0 47.5 7.5t37.5 20.5t26 29t14 34l16 81q-20 -9 -42.5 -14.5t-55.5 -11.5q-18 -3 -39 -5.5t-39 -9.5t-30 -21t-12 -40zM315 61q-25 -30 -61 -51.5t-97 -21.5q-28 0 -56.5 8.5t-51 27t-37 47t-14.5 68.5q0 51 19 82.5t51 50
t74 26.5t89 12q36 3 61.5 6t41 9.5t23 17.5t7.5 30q0 28 -21 42.5t-59 14.5q-42 0 -69 -17.5t-36 -55.5h-120q13 79 71.5 124t158.5 45q48 0 88.5 -11t67.5 -35t38.5 -63t0.5 -95l-40 -205q-3 -16 2.5 -25t27.5 -5h3l-16 -83q-7 -4 -22 -8t-35 -4q-24 0 -39 4.5t-24.5 13.5
t-15.5 21.5t-10 29.5zM364 575q-18 0 -32.5 5t-27.5 11.5t-23.5 11.5t-20.5 5q-23 0 -30 -31h-71q10 59 36.5 88.5t63.5 29.5q18 0 33 -5.5t27.5 -12t23 -12t20.5 -5.5q14 0 21 8.5t12 22.5h71q-9 -51 -34.5 -83.5t-68.5 -32.5z" />
    <glyph glyph-name="adieresis.alt" horiz-adv-x="517" 
d="M127 151q0 -35 21.5 -52.5t55.5 -17.5q26 0 47.5 7.5t37.5 20.5t26 29t14 34l16 81q-20 -9 -42.5 -14.5t-55.5 -11.5q-18 -3 -39 -5.5t-39 -9.5t-30 -21t-12 -40zM315 61q-25 -30 -61 -51.5t-97 -21.5q-28 0 -56.5 8.5t-51 27t-37 47t-14.5 68.5q0 51 19 82.5t51 50
t74 26.5t89 12q36 3 61.5 6t41 9.5t23 17.5t7.5 30q0 28 -21 42.5t-59 14.5q-42 0 -69 -17.5t-36 -55.5h-120q13 79 71.5 124t158.5 45q48 0 88.5 -11t67.5 -35t38.5 -63t0.5 -95l-40 -205q-3 -16 2.5 -25t27.5 -5h3l-16 -83q-7 -4 -22 -8t-35 -4q-24 0 -39 4.5t-24.5 13.5
t-15.5 21.5t-10 29.5zM380 695h124l-23 -114h-124zM163 695h124l-23 -114h-124z" />
    <glyph glyph-name="amacron.alt" horiz-adv-x="517" 
d="M127 151q0 -35 21.5 -52.5t55.5 -17.5q26 0 47.5 7.5t37.5 20.5t26 29t14 34l16 81q-20 -9 -42.5 -14.5t-55.5 -11.5q-18 -3 -39 -5.5t-39 -9.5t-30 -21t-12 -40zM315 61q-25 -30 -61 -51.5t-97 -21.5q-28 0 -56.5 8.5t-51 27t-37 47t-14.5 68.5q0 51 19 82.5t51 50
t74 26.5t89 12q36 3 61.5 6t41 9.5t23 17.5t7.5 30q0 28 -21 42.5t-59 14.5q-42 0 -69 -17.5t-36 -55.5h-120q13 79 71.5 124t158.5 45q48 0 88.5 -11t67.5 -35t38.5 -63t0.5 -95l-40 -205q-3 -16 2.5 -25t27.5 -5h3l-16 -83q-7 -4 -22 -8t-35 -4q-24 0 -39 4.5t-24.5 13.5
t-15.5 21.5t-10 29.5zM188 687h280l-18 -95h-280z" />
    <glyph glyph-name="abreve.alt" horiz-adv-x="517" 
d="M127 151q0 -35 21.5 -52.5t55.5 -17.5q26 0 47.5 7.5t37.5 20.5t26 29t14 34l16 81q-20 -9 -42.5 -14.5t-55.5 -11.5q-18 -3 -39 -5.5t-39 -9.5t-30 -21t-12 -40zM315 61q-25 -30 -61 -51.5t-97 -21.5q-28 0 -56.5 8.5t-51 27t-37 47t-14.5 68.5q0 51 19 82.5t51 50
t74 26.5t89 12q36 3 61.5 6t41 9.5t23 17.5t7.5 30q0 28 -21 42.5t-59 14.5q-42 0 -69 -17.5t-36 -55.5h-120q13 79 71.5 124t158.5 45q48 0 88.5 -11t67.5 -35t38.5 -63t0.5 -95l-40 -205q-3 -16 2.5 -25t27.5 -5h3l-16 -83q-7 -4 -22 -8t-35 -4q-24 0 -39 4.5t-24.5 13.5
t-15.5 21.5t-10 29.5zM314 573q-66 0 -101 38t-36 95h76q2 -22 17.5 -35t46.5 -13q29 0 47 13.5t25 34.5h77q-11 -58 -50.5 -95.5t-101.5 -37.5z" />
    <glyph glyph-name="aring.alt" horiz-adv-x="517" 
d="M127 151q0 -35 21.5 -52.5t55.5 -17.5q26 0 47.5 7.5t37.5 20.5t26 29t14 34l16 81q-20 -9 -42.5 -14.5t-55.5 -11.5q-18 -3 -39 -5.5t-39 -9.5t-30 -21t-12 -40zM315 61q-25 -30 -61 -51.5t-97 -21.5q-28 0 -56.5 8.5t-51 27t-37 47t-14.5 68.5q0 51 19 82.5t51 50
t74 26.5t89 12q36 3 61.5 6t41 9.5t23 17.5t7.5 30q0 28 -21 42.5t-59 14.5q-42 0 -69 -17.5t-36 -55.5h-120q13 79 71.5 124t158.5 45q48 0 88.5 -11t67.5 -35t38.5 -63t0.5 -95l-40 -205q-3 -16 2.5 -25t27.5 -5h3l-16 -83q-7 -4 -22 -8t-35 -4q-24 0 -39 4.5t-24.5 13.5
t-15.5 21.5t-10 29.5zM318 561q-40 0 -68.5 27t-28.5 67q0 19 7.5 36.5t21 30t31 20t37.5 7.5t37.5 -7.5t31 -20t21 -30t7.5 -36.5q0 -40 -28.5 -67t-68.5 -27zM318 608q20 0 32.5 13.5t12.5 33.5t-12.5 33.5t-32.5 13.5t-32.5 -13.5t-12.5 -33.5t12.5 -33.5t32.5 -13.5z
" />
    <glyph glyph-name="aogonek.alt" horiz-adv-x="517" 
d="M378 -174q-20 0 -38.5 4.5t-32.5 14t-23 24t-9 34.5q0 36 25.5 58.5t57.5 37.5q-20 8 -28.5 23.5t-14.5 38.5q-25 -30 -61 -51.5t-97 -21.5q-28 0 -56.5 8.5t-51 27t-37 47t-14.5 68.5q0 51 19 82.5t51 50t74 26.5t89 12q36 3 61.5 6t41 9.5t23 17.5t7.5 30
q0 28 -21 42.5t-59 14.5q-42 0 -69 -17.5t-36 -55.5h-120q13 79 71.5 124t158.5 45q48 0 88.5 -11t67.5 -35t38.5 -63t0.5 -95l-40 -205q-3 -16 2.5 -25t27.5 -5h3l-16 -83q-10 -4 -24 -12t-26.5 -18t-21 -22t-8.5 -25q0 -23 31 -23q8 0 15 2t13 4h2l-15 -76q-8 -3 -20 -5.5
t-29 -2.5zM127 151q0 -35 21.5 -52.5t55.5 -17.5q26 0 47.5 7.5t37.5 20.5t26 29t14 34l16 81q-20 -9 -42.5 -14.5t-55.5 -11.5q-18 -3 -39 -5.5t-39 -9.5t-30 -21t-12 -40z" />
    <glyph glyph-name="Ccedilla.alt" horiz-adv-x="673" 
d="M235 -140q23 2 39.5 11t20.5 31h-50l15 73h106l-11 -56q-5 -26 -16.5 -43t-28 -27t-37 -13.5t-43.5 -3.5zM331 -15q-71 0 -126.5 22.5t-93 63t-57 96.5t-19.5 122q0 82 25.5 161t74.5 141t120 100t162 38q54 0 101 -14t81.5 -43.5t56 -75t24.5 -108.5h-141
q-10 120 -133 120q-59 0 -101 -28.5t-70 -74.5t-41 -102.5t-13 -111.5q0 -37 8 -71t27 -60t50 -41.5t76 -15.5q63 0 105.5 33.5t61.5 93.5h141q-15 -57 -42.5 -104t-69.5 -79q-45 -34 -93 -48t-114 -14z" />
    <glyph glyph-name="Scedilla.alt" horiz-adv-x="612" 
d="M203 -140q23 2 39.5 11t20.5 31h-50l15 73h106l-11 -56q-5 -26 -16.5 -43t-28 -27t-37 -13.5t-43.5 -3.5zM292 -16q-62 0 -116.5 14t-94 43t-61 73.5t-18.5 106.5h139q-2 -34 9 -57t32 -37.5t50 -20.5t64 -6q27 0 51.5 5t43.5 16.5t30.5 29t11.5 42.5q0 19 -7 33t-25 27
t-48 26t-75 30q-48 17 -85.5 35t-63.5 41t-39.5 53.5t-13.5 72.5q0 51 18.5 91.5t53 68.5t82.5 42.5t107 14.5q55 0 104.5 -12t86 -39t57.5 -69.5t18 -102.5h-137q2 53 -32.5 81t-101.5 28q-20 0 -41 -4t-38.5 -14t-29 -26t-11.5 -40q0 -18 6.5 -30.5t23 -23.5t45 -21.5
t70.5 -25.5q53 -18 94 -38.5t68.5 -46t41.5 -57.5t14 -75q0 -57 -21.5 -99.5t-59 -71t-89.5 -43t-113 -14.5z" />
    <glyph glyph-name="ccedilla.alt" horiz-adv-x="514" 
d="M152 -140q23 2 39.5 11t20.5 31h-50l15 73h106l-11 -56q-5 -26 -16.5 -43t-28 -27t-37 -13.5t-43.5 -3.5zM245 -15q-47 0 -88.5 13.5t-73 41t-49.5 70.5t-18 102t19 115.5t55 101t88 71.5t118 27q43 0 80.5 -10.5t66 -33t46 -58.5t20.5 -86h-131q-4 37 -24.5 58.5
t-61.5 21.5q-37 0 -64 -19t-44 -49.5t-25.5 -68t-8.5 -74.5q0 -25 5.5 -46t18 -36.5t32 -24t47.5 -8.5q38 0 65.5 21t41.5 67h130q-21 -93 -85.5 -144.5t-159.5 -51.5z" />
    <glyph glyph-name="scedilla.alt" horiz-adv-x="470" 
d="M132 -140q23 2 39.5 11t20.5 31h-50l15 73h106l-11 -56q-5 -26 -16.5 -43t-28 -27t-37 -13.5t-43.5 -3.5zM222 -15q-47 0 -87.5 10t-71.5 32t-50.5 56.5t-22.5 82.5h127q4 -33 28 -58t77 -25q37 0 60.5 13.5t23.5 42.5q0 28 -31 42.5t-88 33.5q-29 10 -56 21.5t-47 29
t-32 41.5t-12 58q0 39 15 69t41.5 51t63 31.5t80.5 10.5q43 0 80 -11t64.5 -32t45 -53t20.5 -74h-123q-5 30 -26.5 52t-64.5 22q-14 0 -27.5 -2.5t-24.5 -8.5t-18 -15.5t-7 -24.5q0 -13 8.5 -22t24.5 -16t39 -14.5t53 -17.5q28 -9 54 -21.5t46 -30.5t32.5 -42.5t12.5 -58.5
q0 -83 -54.5 -127.5t-152.5 -44.5z" />
    <glyph glyph-name="hyphen.cap" horiz-adv-x="337" 
d="M50 376h281l-24 -121h-281z" />
    <glyph glyph-name="endash.cap" horiz-adv-x="500" 
d="M66 379h414l-22 -113h-414z" />
    <glyph glyph-name="emdash.cap" horiz-adv-x="1000" 
d="M122 379h802l-22 -113h-802z" />
    <glyph glyph-name="questiondown.cap" horiz-adv-x="517" 
d="M381 506q-9 -47 -22.5 -77.5t-31 -51.5t-39.5 -35.5t-47 -29.5q-19 -10 -37.5 -20.5t-33.5 -25t-24.5 -33.5t-9.5 -46q0 -43 26 -64.5t70 -21.5q51 0 90 30.5t50 95.5h130q-10 -55 -33.5 -99t-59.5 -75.5t-82 -48.5t-101 -17q-47 0 -88 12t-71.5 36t-48.5 59.5t-18 82.5
q0 69 33.5 114.5t97.5 84.5q32 19 54 31.5t37 25.5t24 29.5t14 43.5h121zM404 570h-144l28 145h144z" />
    <glyph glyph-name="exclamdown.cap" horiz-adv-x="250" 
d="M175 158l-30 -158h-140l32 168l104 338h65zM256 570h-144l28 145h144z" />
    <glyph glyph-name="parenleft.cap" horiz-adv-x="340" 
d="M145 -101q-33 67 -54.5 146.5t-21.5 170.5q0 83 17.5 160t49.5 148t77.5 136t102.5 124h121q-52 -61 -95.5 -129.5t-74.5 -143t-48 -153t-17 -159.5q0 -89 14 -160t39 -140h-110v0z" />
    <glyph glyph-name="parenright.cap" horiz-adv-x="340" 
d="M226 784q33 -67 54.5 -146.5t21.5 -170.5q0 -83 -17.5 -160t-49.5 -148t-77.5 -136t-102.5 -124h-121q52 61 95.5 129.5t74.5 142.5t48 153t17 160q0 89 -14 160t-39 140h110v0z" />
    <glyph glyph-name="bracketleft.cap" horiz-adv-x="371" 
d="M165 784h281l-21 -104h-152l-131 -677h152l-20 -104h-281z" />
    <glyph glyph-name="bracketright.cap" horiz-adv-x="371" 
d="M-24 3h153l131 677h-153l21 104h282l-172 -885h-282z" />
    <glyph glyph-name="braceleft.cap" horiz-adv-x="371" 
d="M254 -101q-53 0 -91.5 10.5t-62 34t-31 61t3.5 91.5l25 123q8 38 -5 58t-61 23l19 97q48 2 68.5 18.5t27.5 54.5l25 135q10 57 28.5 92.5t44 54.5t59 25.5t74.5 6.5h67l-21 -106h-41q-20 0 -34 -4t-23.5 -13.5t-16 -25.5t-10.5 -40l-29 -157q-8 -45 -28.5 -64t-52.5 -30
v-3q28 -14 38.5 -39t1.5 -70l-29 -146q-9 -47 10 -64t61 -17h23l-21 -106h-19z" />
    <glyph glyph-name="braceright.cap" horiz-adv-x="371" 
d="M147 784q52 0 91 -10.5t62.5 -34t31 -61t-3.5 -91.5l-24 -119q-8 -38 5 -58t61 -23l-19 -97q-48 -2 -68.5 -18.5t-27.5 -54.5l-26 -139q-10 -55 -28 -90t-44 -54.5t-59.5 -27t-74.5 -7.5h-67l21 106h41q20 0 34 4t23.5 13.5t15.5 25.5t11 40l30 161q8 45 28.5 64t52.5 30
v3q-28 14 -38.5 39t-1.5 70l28 142q9 47 -10 64t-61 17h-23l21 106h19z" />
    <glyph glyph-name="guillemotleft.cap" horiz-adv-x="440" 
d="M239 251l25 132l167 129l-26 -132l-93 -71v-2l65 -71l-23 -122zM52 251l25 132l167 129l-26 -132l-93 -71v-2l65 -71l-23 -122z" />
    <glyph glyph-name="guillemotright.cap" horiz-adv-x="440" 
d="M222 375l-25 -132l-167 -129l26 132l93 71v2l-65 71l23 122zM409 375l-25 -132l-167 -129l26 132l93 71v2l-65 71l23 122z" />
    <glyph glyph-name="guilsinglleft.cap" horiz-adv-x="273" 
d="M51 254l25 125l189 137l-26 -135l-103 -73v-2l75 -72l-24 -124z" />
    <glyph glyph-name="guilsinglright.cap" horiz-adv-x="273" 
d="M244 372l-25 -125l-189 -137l26 135l103 73v2l-75 72l24 124z" />
    <glyph glyph-name="registered.alt" horiz-adv-x="815" 
d="M424 -17q-77 0 -144.5 28t-117 77.5t-78 118t-28.5 148.5t28.5 148.5t78 118.5t117 78t144.5 28t144 -28t116.5 -78t78 -118.5t28.5 -148.5t-28.5 -148.5t-78 -118t-116.5 -77.5t-144 -28zM424 32q66 0 122.5 24.5t98 67.5t65 102.5t23.5 128.5t-23.5 128.5t-65 102.5
t-98 67.5t-122.5 24.5t-123 -24.5t-98.5 -67.5t-65 -102.5t-23.5 -128.5t23.5 -128.5t65 -102.5t98.5 -67.5t123 -24.5zM263 559h197q30 0 57 -7.5t46.5 -22.5t31 -37t11.5 -51q0 -35 -18 -60t-53 -38v-2q28 -9 41 -27.5t18 -50.5q6 -40 7 -69t12 -34v-8h-102q-8 5 -9.5 33
t-6.5 61q-4 30 -19 43.5t-47 13.5h-64v-151h-102v407zM365 379h75q63 0 63 50q0 23 -14.5 36.5t-46.5 13.5h-77v-100z" />
    <glyph glyph-name="dollar.cap" horiz-adv-x="605" 
d="M222 -4q-49 6 -90.5 23t-71 45t-45.5 68t-13 93h136q-3 -59 25.5 -85.5t79.5 -33.5l40 205q-46 16 -82.5 34t-62 41t-39 54t-13.5 74q0 51 19.5 90.5t54 67t82.5 41.5t106 14h15l13 65h60l-14 -71q42 -7 78 -22.5t61.5 -41.5t39.5 -63.5t12 -86.5h-134q3 83 -78 104
l-36 -185q52 -17 91 -36t65 -44t39 -57t13 -75q0 -55 -21.5 -96.5t-59.5 -69.5t-90 -42t-113 -14h-8l-18 -93h-60zM432 198q0 15 -4 27t-14.5 22.5t-28.5 20.5t-47 22l-36 -187q56 2 93 25t37 70zM222 532q-1 -29 17.5 -48t69.5 -38l33 171q-21 0 -42 -4.5t-38.5 -14.5
t-28.5 -26t-11 -40z" />
    <glyph glyph-name="Euro.cap" horiz-adv-x="649" 
d="M228 386q-6 -33 -9 -68h189l-12 -60h-179q1 -32 7.5 -60.5t21.5 -50t39 -34t59 -12.5q56 -1 95.5 38.5t56.5 108.5h136q-12 -62 -38 -110.5t-63.5 -82.5t-85.5 -52t-105 -18q-121 0 -190.5 69t-74.5 204h-60l11 60h50q3 35 9 68h-45l11 60h48q19 61 50 113t73 89.5
t93 58.5t109 21q118 0 177.5 -62t62.5 -178h-138q-1 23 -6 45.5t-17 40t-32.5 28t-53.5 10.5q-60 0 -104.5 -46.5t-68.5 -119.5h189l-12 -60h-193z" />
    <glyph glyph-name="sterling.cap" horiz-adv-x="593" 
d="M102 393q-8 24 -14.5 49t-6.5 53q0 55 20.5 98.5t56.5 73.5t84 46t103 16q62 0 109 -15t78 -46q33 -32 48.5 -77.5t10.5 -116.5h-140q2 39 -4.5 65.5t-20.5 43.5t-35 24.5t-47 7.5q-50 0 -82 -31t-32 -91q0 -24 5 -49t11 -51h156l-17 -88h-121q0 -5 0.5 -10.5t0.5 -10.5
q0 -24 -9 -46.5t-23.5 -42t-33 -36.5t-37.5 -30l1 -2l36 12t42 6t43 -5t36 -10.5t35 -10.5t39 -5q30 0 57.5 14t47.5 31l54 -107q-31 -29 -72.5 -48t-89.5 -19q-34 0 -61 7.5t-51.5 17t-49.5 17t-55 7.5q-32 0 -58.5 -13.5t-52.5 -28.5l-59 108q21 13 43.5 31t41 40t30 48
t11.5 55q0 16 -3 31h-92l18 88h49z" />
    <glyph glyph-name="yen.cap" horiz-adv-x="623" 
d="M76 335h154l-144 378h155l67 -207q5 -15 9 -30.5t8 -29.5q4 -16 8 -31h2q8 14 18 30q8 14 18.5 29.5t21.5 30.5l149 208h159l-289 -378h153l-12 -60h-178l-13 -67h178l-12 -60h-178l-28 -148h-136l28 148h-174l11 60h175l13 67h-175z" />
    <glyph glyph-name="zero.cap" horiz-adv-x="647" 
d="M302 -16q-63 0 -112 21t-82.5 59t-50.5 92t-17 119q0 78 21 158.5t63.5 146t107.5 107.5t153 42q61 0 108.5 -21t80.5 -59.5t50 -92.5t17 -120q0 -51 -8.5 -104.5t-26 -103.5t-45 -94.5t-65 -77.5t-86 -52.5t-108.5 -19.5zM184 269q0 -32 5.5 -62.5t19 -53.5t37.5 -37
t61 -14q54 0 90.5 35t58 86.5t31 111t9.5 107.5q0 32 -5.5 62.5t-19 54t-37 38t-59.5 14.5q-54 0 -90.5 -36.5t-59 -89.5t-32 -112t-9.5 -104z" />
    <glyph glyph-name="one.cap" horiz-adv-x="391" 
d="M219 502h-157l18 89q37 1 69 7.5t57.5 21t44.5 38.5t31 59h121l-139 -717h-141z" />
    <glyph glyph-name="two.cap" horiz-adv-x="560" 
d="M-22 0q9 55 29.5 98t48 76.5t61 60t69.5 48.5q57 36 101 62.5t74 51.5t45.5 53.5t15.5 69.5q0 39 -22.5 65t-66.5 26q-51 0 -85 -34.5t-48 -112.5h-136q15 127 89 195.5t191 68.5q48 0 89 -14t71 -40t47 -64t17 -87q0 -54 -18 -95t-47 -73t-67 -57.5t-78 -48.5
q-28 -16 -57 -32t-55 -32.5t-47 -34t-31 -35.5h335l-22 -115h-503z" />
    <glyph glyph-name="three.cap" horiz-adv-x="580" 
d="M274 -13q-66 0 -116.5 19.5t-83.5 53.5t-47.5 80.5t-9.5 100.5h137q-4 -66 28 -105t98 -39q61 0 92.5 32.5t31.5 87.5q0 51 -31 80t-93 29h-31l20 105h45q24 0 45 6t37.5 19t26 32.5t9.5 45.5q0 38 -24.5 63t-70.5 25q-59 0 -91.5 -37t-41.5 -91h-135q6 51 27.5 94
t56.5 74.5t82 49t106 17.5q54 0 97 -13t73 -37t46 -57.5t16 -74.5q0 -67 -38.5 -110.5t-102.5 -61.5v-2q23 -7 44 -19.5t37 -31.5t25.5 -45.5t9.5 -61.5q0 -51 -20 -93t-56 -72t-86.5 -46.5t-111.5 -16.5z" />
    <glyph glyph-name="four.cap" horiz-adv-x="608" 
d="M325 157h-324l29 148l400 415h140l-87 -452h107l-23 -111h-106l-30 -157h-136zM141 268h206l53 274h-2l-257 -271v-3z" />
    <glyph glyph-name="five.cap" horiz-adv-x="581" 
d="M260 -16q-54 0 -101 14.5t-82 43t-55.5 70t-20.5 95.5h137q4 -46 36 -76t89 -30q30 0 56 10t45.5 29.5t31 48t11.5 64.5q0 55 -30 87t-87 32q-69 0 -111 -47h-127l114 390h430l-23 -116h-324l-48 -164h2q26 23 62 37t82 14q45 0 83 -15t65.5 -43.5t43 -70t15.5 -93.5
q0 -64 -22.5 -115.5t-62 -88t-93.5 -56.5t-116 -20z" />
    <glyph glyph-name="six.cap" horiz-adv-x="598" 
d="M296 -16q-62 0 -110 20.5t-81 58t-50 90t-17 116.5q0 49 8.5 102.5t25.5 104t43 95.5t62 79q41 38 91 58.5t118 20.5q41 0 78 -10t66.5 -32t48.5 -57t24 -85h-135q-5 38 -27 57t-64 19q-36 0 -65 -15.5t-51.5 -43.5t-38.5 -65.5t-26 -81.5h2q29 34 71 54.5t97 20.5
q42 0 80.5 -16t67.5 -45.5t46 -72t17 -95.5q0 -59 -21 -110t-58.5 -88t-89 -58t-112.5 -21zM175 222q0 -57 32.5 -92.5t89.5 -35.5q63 0 102 42t39 114q0 54 -28.5 90.5t-88.5 36.5q-32 0 -58.5 -11t-46 -31.5t-30.5 -49t-11 -63.5z" />
    <glyph glyph-name="seven.cap" horiz-adv-x="543" 
d="M78 0q19 98 58 187t88 165t102 137.5t100 105.5v2h-343l23 118h499l-22 -113q-57 -50 -112 -113.5t-102 -139.5t-83.5 -163.5t-56.5 -185.5h-151v0z" />
    <glyph glyph-name="eight.cap" horiz-adv-x="610" 
d="M287 -16q-49 0 -98.5 11.5t-89 37t-64.5 66t-25 98.5q1 78 45.5 127t116.5 70v3q-38 20 -57 54t-19 74q0 50 22 88t58.5 64t84 39t98.5 13q46 0 90.5 -10t79 -32t55.5 -57t21 -85q0 -52 -33 -96t-93 -67v-3q48 -20 73 -62.5t25 -94.5q0 -60 -23.5 -104.5t-63 -74
t-92.5 -44.5t-111 -15zM154 207q0 -54 39 -82t98 -28q29 0 54.5 7.5t45 23.5t31 39.5t11.5 56.5q0 27 -10.5 48t-28.5 35t-42.5 21t-51.5 7q-26 0 -52 -7.5t-47 -23.5t-34 -40t-13 -57zM234 523q-1 -48 30.5 -70t80.5 -22q25 0 46.5 5.5t38 17.5t26 30.5t9.5 44.5
q0 45 -30 69.5t-78 24.5q-49 0 -85.5 -24.5t-37.5 -75.5z" />
    <glyph glyph-name="nine.cap" horiz-adv-x="610" 
d="M268 -16q-44 0 -86 11t-75.5 34t-55 58t-25.5 84h140q5 -32 32 -55.5t76 -23.5q37 0 65.5 15t49 42.5t35 66t24.5 86.5h-2q-35 -33 -71 -53t-87 -20t-93 14.5t-72 42.5t-47 67.5t-17 90.5q0 64 23 116.5t62 90t91.5 58t111.5 20.5t107.5 -18t82.5 -53.5t52.5 -88
t18.5 -122.5q0 -45 -7 -95.5t-21 -100t-35 -94t-48 -77.5q-41 -48 -96.5 -72t-132.5 -24zM201 463q-1 -59 32 -91t90 -32q30 0 57 9.5t47 28.5t31.5 47t11.5 65q0 57 -32.5 93.5t-89.5 36.5q-31 0 -58 -11.5t-46.5 -32.5t-31 -50t-11.5 -63z" />
    <glyph glyph-name="percent.cap" horiz-adv-x="813" 
d="M642 715h86l-521 -715h-86zM222 330q-38 0 -67 13t-48.5 34.5t-29.5 50.5t-10 62q0 49 13.5 92.5t39 76t61.5 51.5t80 19q39 0 68 -13t48.5 -35t29.5 -51t10 -61q0 -49 -13.5 -92.5t-38.5 -76t-61 -51.5t-82 -19zM170 484q0 -15 2 -29t8 -25t16.5 -17.5t27.5 -6.5
q23 0 40 15t28 39.5t16.5 55t5.5 61.5q0 13 -2.5 26.5t-9 24.5t-17 18t-26.5 7q-23 0 -39.5 -15t-27.5 -39.5t-16.5 -54.5t-5.5 -60zM590 -16q-38 0 -67 13t-48.5 34.5t-29.5 50.5t-10 62q0 49 13.5 92.5t39 76t61.5 51.5t80 19q39 0 68 -13t48.5 -35t29.5 -51t10 -61
q0 -49 -13.5 -92.5t-38.5 -76t-61 -51.5t-82 -19zM538 138q0 -15 2 -29t8 -25t16.5 -17.5t27.5 -6.5q23 0 40 15t28 39.5t16.5 55t5.5 61.5q0 13 -2.5 26.5t-9 24.5t-17 18t-26.5 7q-23 0 -39.5 -15t-27.5 -39.5t-16.5 -54.5t-5.5 -60z" />
    <glyph glyph-name="perthousand.cap" horiz-adv-x="1187" 
d="M643 715h86l-526 -715h-86zM222 330q-38 0 -67 13t-48.5 34.5t-29.5 50.5t-10 62q0 49 13.5 92.5t39 76t61.5 51.5t80 19q39 0 68 -13t48.5 -35t29.5 -51t10 -61q0 -49 -13.5 -92.5t-38.5 -76t-61 -51.5t-82 -19zM170 484q0 -15 2 -29t8 -25t16.5 -17.5t27.5 -6.5
q23 0 40 15t28 39.5t16.5 55t5.5 61.5q0 13 -2.5 26.5t-9 24.5t-17 18t-26.5 7q-23 0 -39.5 -15t-27.5 -39.5t-16.5 -54.5t-5.5 -60zM583 -16q-38 0 -67 13t-48.5 34.5t-29.5 50.5t-10 62q0 49 13.5 92.5t39 76t61.5 51.5t80 19q39 0 68 -13t48.5 -35t29.5 -51t10 -61
q0 -49 -13.5 -92.5t-38.5 -76t-61 -51.5t-82 -19zM531 138q0 -15 2 -29t8 -25t16.5 -17.5t27.5 -6.5q23 0 40 15t28 39.5t16.5 55t5.5 61.5q0 13 -2.5 26.5t-9 24.5t-17 18t-26.5 7q-23 0 -39.5 -15t-27.5 -39.5t-16.5 -54.5t-5.5 -60zM964 -16q-38 0 -67 13t-48.5 34.5
t-29.5 50.5t-10 62q0 49 13.5 92.5t39 76t61.5 51.5t80 19q39 0 68 -13t48.5 -35t29.5 -51t10 -61q0 -49 -13.5 -92.5t-38.5 -76t-61 -51.5t-82 -19zM912 138q0 -15 2 -29t8 -25t16.5 -17.5t27.5 -6.5q23 0 40 15t28 39.5t16.5 55t5.5 61.5q0 13 -2.5 26.5t-9 24.5t-17 18
t-26.5 7q-23 0 -39.5 -15t-27.5 -39.5t-16.5 -54.5t-5.5 -60z" />
    </font>
</defs>
</svg>
