<?xml version="1.0" standalone="no"?>
<!DOCTYPE svg PUBLIC "-//W3C//DTD SVG 1.1//EN" "http://www.w3.org/Graphics/SVG/1.1/DTD/svg11.dtd" >
<svg xmlns="http://www.w3.org/2000/svg" xmlns:xlink="http://www.w3.org/1999/xlink" version="1.1">
<metadata>
Created by FontForge 20170731 at Tue Jan 17 17:53:44 2012
 By Aleksey,,,
Copyright (c) 2011 - 2012 Linotype Corp., www.linotype.com. All rights reserved. This font software may not be reproduced, modified, disclosed or transferred without the express written approval of Linotype Corp. Neue Haas Grotesk is a trademark of Linotype Corp. registered in the U.S. Patent and Trademark Office and may be registered in certain other jurisdictions in the name of Linotype Corp. or its licensee Linotype GmbH. This typeface is original artwork of Christian Schwartz. The design may be protected in certain jurisdictions.
</metadata>
<defs>
<font id="NHaasGroteskDSPro-96BlkIt" horiz-adv-x="492" >
  <font-face 
    font-family="NeueHaasGroteskDisp Pro Blk"
    font-weight="900"
    font-style="italic"
    font-stretch="normal"
    units-per-em="1000"
    panose-1="2 11 10 4 2 2 2 9 2 4"
    ascent="769"
    descent="-231"
    x-height="509"
    cap-height="715"
    bbox="-208 -263 1256 940"
    underline-thickness="20"
    underline-position="-153"
    slope="-11"
    unicode-range="U+000D-FB04"
  />
<missing-glyph 
 />
    <glyph glyph-name="f_f" unicode="ff" horiz-adv-x="674" 
d="M205 0h-186l77 397h-63l23 113h62l6 30q8 39 24 73t41 54q32 26 74 35t96 8q19 0 35.5 -1.5t31.5 -3.5l-24 -124q-6 1 -9.5 1h-6.5q-29 0 -51 -11.5t-29 -49.5l-2 -11h126l7 36q8 42 24.5 74t41.5 52q32 26 74 35t96 8q19 0 38.5 -1.5t40.5 -3.5l-24 -124q-8 1 -13.5 1
h-11.5q-32 0 -55 -11t-29 -48l-3 -18h98l-23 -113h-98l-76 -397h-186l77 397h-127z" />
    <glyph glyph-name="fi" unicode="fi" horiz-adv-x="616" 
d="M56 510h62l7 36q8 42 24 74t41 52q32 26 72.5 34.5t85.5 8.5q26 0 48.5 -2t43.5 -5l-24 -122q-8 1 -14 1h-12q-32 0 -54.5 -11t-28.5 -48l-3 -18h98l-23 -113h-98l-76 -397h-186l77 397h-63zM445 510h186l-99 -510h-186zM484 715h186l-27 -143h-186z" />
    <glyph glyph-name="fl" unicode="fl" horiz-adv-x="621" 
d="M56 510h62l7 36q8 42 24 74t41 52q32 26 72.5 34.5t85.5 8.5q26 0 48.5 -2t43.5 -5l-24 -122q-8 1 -14 1h-12q-32 0 -54.5 -11t-28.5 -48l-3 -18h98l-23 -113h-98l-76 -397h-186l77 397h-63zM484 715h191l-138 -715h-191z" />
    <glyph glyph-name="f_f_i" unicode="ffi" horiz-adv-x="927" 
d="M205 0h-186l77 397h-63l23 113h62l6 30q8 39 24 73t41 54q32 26 74 35t96 8q19 0 35.5 -1.5t31.5 -3.5l-24 -124q-6 1 -9.5 1h-6.5q-29 0 -51 -11.5t-29 -49.5l-2 -11h126l7 36q8 42 24.5 74t41.5 52q32 26 74 35t96 8q19 0 38.5 -1.5t40.5 -3.5l-24 -124q-8 1 -13.5 1
h-11.5q-32 0 -55 -11t-29 -48l-3 -18h98l-23 -113h-98l-76 -397h-186l77 397h-127zM756 510h186l-99 -510h-186zM795 715h186l-27 -143h-186z" />
    <glyph glyph-name="f_f_l" unicode="ffl" horiz-adv-x="932" 
d="M205 0h-186l77 397h-63l23 113h62l6 30q8 39 24 73t41 54q32 26 74 35t96 8q19 0 35.5 -1.5t31.5 -3.5l-24 -124q-6 1 -9.5 1h-6.5q-29 0 -51 -11.5t-29 -49.5l-2 -11h126l7 36q8 42 24.5 74t41.5 52q32 26 74 35t96 8q19 0 38.5 -1.5t40.5 -3.5l-24 -124q-8 1 -13.5 1
h-11.5q-32 0 -55 -11t-29 -48l-3 -18h98l-23 -113h-98l-76 -397h-186l77 397h-127zM795 715h191l-138 -715h-191z" />
    <glyph glyph-name=".notdef" 
 />
    <glyph glyph-name=".null" horiz-adv-x="0" 
 />
    <glyph glyph-name=".null" horiz-adv-x="0" 
 />
    <glyph glyph-name="nonmarkingreturn" unicode="&#xd;" horiz-adv-x="0" 
 />
    <glyph glyph-name="space" unicode=" " horiz-adv-x="149" 
 />
    <glyph glyph-name="exclam" unicode="!" horiz-adv-x="269" 
d="M93 541l33 174h192l-36 -186l-101 -271h-99zM25 191h192l-37 -191h-192z" />
    <glyph glyph-name="quotedbl" unicode="&#x22;" horiz-adv-x="460" 
d="M347 715h161l-55 -287h-161zM127 715h162l-55 -287h-162z" />
    <glyph glyph-name="numbersign" unicode="#" horiz-adv-x="596" 
d="M122 536h87l41 150h113l-41 -150h96l41 150h114l-41 -150h88l-41 -146h-88l-22 -82h86l-41 -146h-86l-45 -162h-113l45 162h-97l-44 -162h-113l44 162h-88l41 146h88l22 82h-87zM259 308h96l22 82h-96z" />
    <glyph glyph-name="dollar" unicode="$" horiz-adv-x="622" 
d="M224 -11q-50 7 -92 24.5t-72 47t-46.5 71t-13.5 95.5h196q0 -32 13.5 -55t43.5 -33l25 129q-55 24 -94 45.5t-64 45t-36.5 52t-11.5 67.5q0 55 22 96.5t60.5 69t90 41t111.5 13.5h6l12 62h61l-13 -67q40 -6 76.5 -20.5t64.5 -39.5t44.5 -62t16.5 -88h-182q-2 26 -15.5 41
t-33.5 22l-22 -116q50 -21 88.5 -43.5t65 -48t40.5 -55.5t14 -68q0 -62 -23.5 -105.5t-62.5 -71.5t-90 -41t-107 -13h-12l-18 -93h-61zM386 188q0 16 -10 27t-42 27l-21 -109q27 2 50 14t23 41zM261 505q0 -7 1.5 -12.5t7 -11t16 -12t28.5 -14.5l20 99q-11 0 -23.5 -3
t-23.5 -8.5t-18.5 -15t-7.5 -22.5z" />
    <glyph glyph-name="percent" unicode="%" horiz-adv-x="888" 
d="M232 297q-37 0 -68 12t-53 34t-34.5 53t-12.5 70q0 45 14.5 87.5t42 74.5t66.5 51.5t88 19.5q35 0 65.5 -10.5t53.5 -31.5t36.5 -53t13.5 -74q0 -46 -14.5 -88t-42 -74.5t-67 -51.5t-88.5 -19zM666 686h103l-518 -686h-103zM198 454q0 -11 1.5 -22t6 -20t12.5 -14.5
t22 -5.5q19 0 32.5 18t21 42.5t11 50.5t3.5 42q0 28 -9 44.5t-30 16.5q-20 0 -33.5 -17.5t-22 -42t-12 -50.5t-3.5 -42zM640 -17q-37 0 -68 12t-53 34t-34.5 53t-12.5 70q0 45 14.5 87.5t42 74.5t66.5 51.5t88 19.5q35 0 65.5 -10.5t53.5 -31.5t36.5 -53t13.5 -74
q0 -46 -14.5 -88t-42 -74.5t-67 -51.5t-88.5 -19zM606 140q0 -11 1.5 -22t6 -20t12.5 -14.5t22 -5.5q19 0 32.5 18t21 42.5t11 50.5t3.5 42q0 28 -9 44.5t-30 16.5q-20 0 -33.5 -17.5t-22 -42t-12 -50.5t-3.5 -42z" />
    <glyph glyph-name="ampersand" unicode="&#x26;" horiz-adv-x="725" 
d="M260 -9q-45 0 -89 10.5t-78.5 34.5t-55.5 62.5t-21 94.5q0 47 15 84t41.5 65t62 48t76.5 34q-14 23 -23 51.5t-9 63.5q0 45 18 80.5t49 59.5t71 36.5t84 12.5q41 0 79 -10t67 -31.5t46 -54.5t17 -79q0 -32 -12 -59t-34 -49t-52 -39.5t-67 -30.5l62 -101q24 32 38 75h162
q-17 -59 -48 -108t-74 -94l91 -147h-224l-23 41q-34 -23 -77 -36.5t-92 -13.5zM207 216q-2 -38 20.5 -58.5t61.5 -20.5q22 0 39.5 7t31.5 15l-86 148q-27 -12 -46.5 -34t-20.5 -57zM402 601q-24 0 -39 -16.5t-15 -45.5q0 -21 10 -40t24 -33q11 5 23 12.5t22 18t16.5 23.5
t6.5 29q0 21 -11.5 36.5t-36.5 15.5z" />
    <glyph glyph-name="quotesingle" unicode="'" horiz-adv-x="240" 
d="M127 715h162l-55 -287h-162z" />
    <glyph glyph-name="parenleft" unicode="(" horiz-adv-x="330" 
d="M81 -144q-22 57 -35.5 124.5t-13.5 146.5q0 97 16 185.5t44.5 167t68.5 147t89 127.5h163q-46 -71 -84 -145.5t-65 -154t-42 -164.5t-15 -177q0 -77 8 -142.5t19 -114.5h-153v0z" />
    <glyph glyph-name="parenright" unicode=")" horiz-adv-x="330" 
d="M267 754q22 -57 35.5 -124.5t13.5 -146.5q0 -98 -16 -186t-44.5 -166.5t-68.5 -147t-89 -127.5h-163q46 71 84 145.5t65 154t42 164.5t15 177q0 77 -8 142.5t-19 114.5h153v0z" />
    <glyph glyph-name="asterisk" unicode="*" horiz-adv-x="472" 
d="M97 385l96 101l-114 51l51 93l111 -50l26 135h108l-26 -137l123 35l21 -97l-134 -37l64 -109l-93 -56l-63 112l-98 -107z" />
    <glyph glyph-name="plus" unicode="+" horiz-adv-x="554" 
d="M74 411h146l32 165h172l-32 -165h148l-32 -161h-147l-32 -167h-172l32 167h-147z" />
    <glyph glyph-name="comma" unicode="," horiz-adv-x="247" 
d="M-40 -102q44 5 69 28.5t33 73.5h-84l37 191h191l-34 -173q-10 -51 -24.5 -87.5t-40.5 -62.5q-56 -56 -164 -59z" />
    <glyph glyph-name="hyphen" unicode="-" horiz-adv-x="326" 
d="M44 335h268l-31 -160h-268z" />
    <glyph glyph-name="period" unicode="." horiz-adv-x="247" 
d="M15 191h191l-37 -191h-191z" />
    <glyph glyph-name="slash" unicode="/" horiz-adv-x="452" 
d="M344 715h174l-384 -715h-174z" />
    <glyph glyph-name="zero" unicode="0" horiz-adv-x="663" 
d="M313 -16q-63 0 -115.5 20t-90 58t-58.5 93t-21 125q0 78 23.5 153.5t68.5 134.5t111.5 95t152.5 36q61 0 113.5 -19t90 -56.5t59 -92.5t21.5 -127q0 -80 -23.5 -155.5t-69 -134t-111.5 -94.5t-151 -36zM226 256q0 -24 4 -46.5t14 -40t28 -28t45 -10.5q29 0 51.5 14.5
t39.5 38.5t28.5 54.5t19 63t10.5 64t3 57.5q0 22 -3.5 45.5t-13.5 42.5t-27.5 31t-44.5 12q-44 0 -73.5 -32t-47.5 -78.5t-25.5 -98t-7.5 -89.5z" />
    <glyph glyph-name="one" unicode="1" horiz-adv-x="406" 
d="M181 398h-137l26 137q78 3 133 39.5t86 116.5h146l-134 -691h-197z" />
    <glyph glyph-name="two" unicode="2" horiz-adv-x="604" 
d="M-33 0q8 42 19 74.5t26 58t34 46.5t43 40q28 22 60.5 43t65 39.5t63 35.5t56.5 32q46 27 67 52.5t21 57.5q0 64 -65 64q-44 1 -74 -29q-17 -17 -26 -38.5t-15 -57.5h-187q5 33 11 58.5t14 46t18 37.5t23 34q35 45 98 75t149 30q47 0 92 -11t80 -35.5t56.5 -63t21.5 -92.5
q0 -73 -31 -120t-82 -79q-59 -38 -118.5 -66.5t-113.5 -64.5v-2h278l-32 -165h-552v0z" />
    <glyph glyph-name="three" unicode="3" horiz-adv-x="620" 
d="M298 -17q-62 0 -117 15t-95.5 46.5t-62.5 80t-18 115.5h188q0 -22 5.5 -42t17.5 -35t32 -23.5t50 -8.5q19 0 36.5 5.5t31 16t21.5 25.5t8 34q1 35 -26.5 54t-81.5 19h-29l25 130h45q18 0 35 3.5t30.5 11.5t22 22t8.5 35q1 30 -21 47.5t-56 17.5q-46 0 -72 -23.5
t-34 -65.5h-185q7 55 32.5 99t64.5 74.5t90.5 46.5t111.5 16q45 0 91 -9t83.5 -30.5t61.5 -58.5t24 -92q0 -54 -28.5 -93t-84.5 -61v-2q36 -17 63.5 -51.5t27.5 -89.5q0 -57 -25 -100t-66 -71.5t-94 -43t-110 -14.5z" />
    <glyph glyph-name="four" unicode="4" horiz-adv-x="634" 
d="M314 154h-317l32 163l391 374h189l-76 -390h93l-29 -147h-93l-29 -154h-190zM176 301h167l38 196h-2l-203 -194v-2z" />
    <glyph glyph-name="five" unicode="5" horiz-adv-x="617" 
d="M291 -17q-55 0 -105.5 11.5t-90 38.5t-64.5 70.5t-28 107.5h191q3 -34 30 -54t67 -20q49 0 77.5 34t28.5 82q1 36 -21 62t-66 26q-26 0 -48.5 -11t-36.5 -30h-182l114 385h463l-31 -157h-308l-29 -96h3q17 14 50.5 26.5t84.5 12.5q97 0 151 -56.5t54 -155.5
q0 -60 -21.5 -111t-61 -87.5t-95.5 -57t-126 -20.5z" />
    <glyph glyph-name="six" unicode="6" horiz-adv-x="631" 
d="M307 -16q-61 0 -112.5 16.5t-89 50t-58.5 85t-21 121.5q0 45 8 93.5t25.5 95.5t44 90t63.5 78q44 41 102.5 63t127.5 22q46 0 88.5 -10t76.5 -32.5t56 -59t27 -88.5h-188q-2 27 -22.5 40.5t-49.5 13.5q-48 0 -86 -38t-58 -114h2q29 26 65.5 43.5t86.5 17.5q40 0 79 -14
t69 -41t48.5 -66.5t18.5 -90.5q0 -65 -23.5 -116.5t-65 -86.5t-96.5 -54t-118 -19zM213 216q0 -40 25.5 -64.5t68.5 -24.5q24 0 45 8.5t36.5 23.5t25 37t9.5 49q0 38 -25.5 63t-68.5 25q-23 0 -44 -8.5t-37 -24t-25.5 -37t-9.5 -47.5z" />
    <glyph glyph-name="seven" unicode="7" horiz-adv-x="550" 
d="M67 0q21 91 56.5 170t77.5 144t87.5 115t86.5 84v2h-310l33 170h517l-29 -148q-53 -44 -102.5 -102.5t-91.5 -127.5t-74 -147t-49 -160h-202v0z" />
    <glyph glyph-name="eight" unicode="8" horiz-adv-x="611" 
d="M284 -17q-50 0 -100 10.5t-90.5 34.5t-66 61.5t-25.5 91.5q0 73 39 115.5t102 65.5v3q-32 22 -46.5 53t-14.5 67q0 50 22.5 90t60.5 67.5t87.5 42t102.5 14.5q46 0 92.5 -11t83 -34t59.5 -58t23 -83q0 -61 -28 -97t-80 -62v-3q43 -22 63 -58.5t20 -81.5q0 -59 -26 -101.5
t-69 -71t-97.5 -42t-111.5 -13.5zM196 202q0 -38 27 -59t69 -21q21 0 40 7t34 19.5t23.5 31t8.5 41.5q-1 36 -27 57t-67 21q-20 0 -39.5 -6t-34.5 -18.5t-24.5 -30.5t-9.5 -42zM257 485q0 -35 24 -51.5t61 -16.5q18 0 34.5 4.5t30 14t21 25t7.5 37.5q-1 33 -24.5 52.5
t-59.5 19.5q-16 0 -33 -5.5t-30.5 -16t-22 -26t-8.5 -37.5z" />
    <glyph glyph-name="nine" unicode="9" horiz-adv-x="626" 
d="M351 699q61 0 112.5 -16.5t89 -50t58.5 -84t21 -117.5q0 -111 -32 -205.5t-106 -163.5q-44 -41 -103 -59.5t-130 -18.5q-46 0 -89.5 9.5t-78 32t-57 59t-26.5 91.5h188q4 -29 24 -42.5t50 -13.5q52 0 88.5 35t56.5 113h-2q-29 -26 -65.5 -43.5t-86.5 -17.5
q-41 0 -79.5 13.5t-68.5 40.5t-48 66t-18 90q0 65 23.5 117t64.5 88.5t96 56.5t118 20zM447 465q0 40 -26.5 65.5t-69.5 25.5q-24 0 -44.5 -8.5t-36 -24.5t-24.5 -38t-9 -49q0 -38 25.5 -64t68.5 -26q23 0 44 8.5t37 24.5t25.5 38t9.5 48z" />
    <glyph glyph-name="colon" unicode=":" horiz-adv-x="253" 
d="M80 510h191l-37 -191h-191zM18 191h191l-37 -191h-191z" />
    <glyph glyph-name="semicolon" unicode=";" horiz-adv-x="253" 
d="M80 510h191l-37 -191h-191zM-37 -102q44 5 69 28.5t33 73.5h-84l37 191h191l-34 -173q-10 -51 -24.5 -87.5t-40.5 -62.5q-56 -56 -164 -59z" />
    <glyph glyph-name="less" unicode="&#x3c;" horiz-adv-x="495" 
d="M37 239l35 177l434 150l-32 -169l-155 -52q-17 -6 -35.5 -11.5t-33.5 -10.5q-18 -5 -35 -9v-2l30 -10q14 -5 29.5 -10t31.5 -11l134 -53l-34 -181z" />
    <glyph glyph-name="equal" unicode="=" horiz-adv-x="554" 
d="M91 501h466l-30 -154h-466zM46 269h466l-30 -154h-466z" />
    <glyph glyph-name="greater" unicode="&#x3e;" horiz-adv-x="495" 
d="M476 375l-35 -177l-434 -150l32 169l155 52q17 6 35.5 11t33.5 10q18 5 35 10v2q-14 4 -30 9q-14 5 -30 10.5t-31 11.5l-134 53l34 181z" />
    <glyph glyph-name="question" unicode="?" horiz-adv-x="559" 
d="M182 258q6 31 11.5 54t12.5 39.5t16.5 29.5t23.5 25q19 16 44 28.5t47 25t37 27.5t15 36q0 26 -16.5 38t-42.5 12q-32 0 -55.5 -19.5t-31.5 -62.5h-191q10 62 35.5 106.5t64.5 73.5t89 43t109 14q39 0 81.5 -8t78 -28t59 -56t23.5 -91q0 -60 -29.5 -104.5t-85.5 -71.5
q-42 -21 -64 -32.5t-36 -22.5q-15 -11 -20 -25t-8 -31h-167zM153 191h192l-37 -191h-192z" />
    <glyph glyph-name="at" unicode="@" horiz-adv-x="911" 
d="M374 84q-72 0 -108 46.5t-36 131.5q0 46 13 91.5t39 82t66 59t93 22.5q42 0 67 -18.5t37 -52.5h2l13 59h149l-60 -267q-13 -65 29 -65q31 0 51.5 16t33.5 41.5t18.5 56t5.5 60.5q0 68 -21.5 119t-60 85t-92 51t-118.5 17q-70 0 -132.5 -24t-110 -69t-75 -110t-27.5 -147
q0 -62 19.5 -113.5t57.5 -89t93.5 -58.5t127.5 -21q45 0 91 10t87 25l32 -90q-50 -22 -104.5 -31.5t-112.5 -9.5q-87 0 -161 26.5t-128 75.5t-84.5 118.5t-30.5 156.5q0 96 35 178t96.5 141.5t146 93t183.5 33.5q82 0 155 -24.5t127.5 -71t86 -114t31.5 -154.5
q0 -53 -15 -102.5t-45.5 -87.5t-76.5 -61t-108 -23q-55 0 -93.5 20t-51.5 63h-2q-24 -35 -56 -55t-76 -20zM433 202q22 0 38.5 12t27.5 31.5t16.5 42.5t5.5 46q0 29 -11.5 47.5t-34.5 18.5t-39 -12.5t-27 -32t-16 -43t-5 -46.5q0 -27 11 -45.5t34 -18.5z" />
    <glyph glyph-name="A" unicode="A" horiz-adv-x="718" 
d="M445 106h-239l-53 -106h-208l389 715h209l132 -715h-215zM278 248h147l-20 143q-2 13 -3.5 29t-3.5 30q-2 17 -3 33h-2q-7 -16 -15 -33q-7 -14 -14.5 -30t-13.5 -29z" />
    <glyph glyph-name="B" unicode="B" horiz-adv-x="674" 
d="M130 715h324q60 0 101 -12.5t68 -32.5q26 -20 43.5 -52.5t17.5 -78.5q0 -56 -32 -95.5t-86 -59.5v-3q40 -19 66 -54.5t26 -88.5q0 -54 -24.5 -106.5t-76.5 -86.5q-35 -23 -75 -34t-95 -11h-395zM377 162q33 0 58.5 18.5t25.5 60.5q0 30 -20.5 46.5t-49.5 16.5h-139
l-27 -142h152zM413 436q12 0 24.5 3.5t23 11t17.5 20t7 31.5q0 24 -17 38.5t-44 14.5h-123l-23 -119h135z" />
    <glyph glyph-name="C" unicode="C" horiz-adv-x="706" 
d="M359 -17q-74 0 -135 20t-104.5 60t-67.5 99.5t-24 138.5q0 86 27.5 163.5t78.5 136t122.5 93t160.5 34.5q69 0 119.5 -13.5t87.5 -41.5q51 -38 75.5 -94.5t27.5 -128.5h-207q-1 47 -26 77t-80 30q-47 0 -80 -22.5t-54.5 -58.5t-31.5 -80.5t-10 -89.5q0 -30 6.5 -58
t21 -49t37.5 -33.5t57 -12.5q50 0 85.5 28t48.5 85h210q-14 -73 -46.5 -126.5t-79 -88t-103 -51.5t-116.5 -17z" />
    <glyph glyph-name="D" unicode="D" horiz-adv-x="718" 
d="M130 715h284q70 0 127.5 -21t99 -60.5t64 -96.5t22.5 -129q0 -91 -26.5 -166t-77 -129t-123.5 -83.5t-165 -29.5h-343zM333 171q43 0 77 16.5t58 46t36.5 70.5t12.5 89q0 75 -35.5 113t-103.5 38h-75l-72 -373h102z" />
    <glyph glyph-name="E" unicode="E" horiz-adv-x="623" 
d="M130 715h540l-33 -168h-334l-18 -100h280l-30 -155h-281l-22 -115h348l-34 -177h-554z" />
    <glyph glyph-name="F" unicode="F" horiz-adv-x="595" 
d="M130 715h537l-34 -174h-331l-22 -120h276l-31 -160h-277l-50 -261h-206z" />
    <glyph glyph-name="G" unicode="G" horiz-adv-x="728" 
d="M512 71h-2q-29 -39 -80.5 -63.5t-109.5 -24.5q-81 0 -141.5 30t-99.5 87q-26 38 -39.5 86t-13.5 110q0 82 27.5 160t79 138.5t126.5 97t170 36.5q59 0 112.5 -14.5t94 -45.5t65 -79.5t25.5 -116.5h-202q-5 40 -30.5 62.5t-69.5 22.5q-47 0 -82 -22t-58 -57.5t-34.5 -81
t-11.5 -93.5q0 -33 7 -61t23 -48.5t41.5 -31.5t61.5 -11q53 0 84.5 23.5t44.5 65.5h-94l29 148h291l-75 -388h-137z" />
    <glyph glyph-name="H" unicode="H" horiz-adv-x="707" 
d="M285 452h211l51 263h206l-138 -715h-206l54 281h-211l-54 -281h-206l138 715h206z" />
    <glyph glyph-name="I" unicode="I" horiz-adv-x="290" 
d="M130 715h206l-138 -715h-206z" />
    <glyph glyph-name="J" unicode="J" horiz-adv-x="562" 
d="M237 -13q-59 0 -107.5 15.5t-81.5 48t-46 82t1 117.5l8 40h190l-10 -53q-7 -35 5 -56t50 -21q30 0 45 17.5t21 47.5l95 490h205l-99 -512q-9 -48 -25.5 -83.5t-47.5 -63.5q-35 -32 -84.5 -50.5t-118.5 -18.5z" />
    <glyph glyph-name="K" unicode="K" horiz-adv-x="702" 
d="M306 283l-65 -61l-43 -222h-206l138 715h206l-47 -243l253 243h239l-316 -294l194 -421h-227z" />
    <glyph glyph-name="L" unicode="L" horiz-adv-x="556" 
d="M130 715h206l-104 -538h296l-34 -177h-502z" />
    <glyph glyph-name="M" unicode="M" horiz-adv-x="840" 
d="M130 715h265l33 -400h2l183 400h273l-138 -715h-186l87 448h-2l-202 -448h-151l-32 448h-2l-87 -448h-181z" />
    <glyph glyph-name="N" unicode="N" horiz-adv-x="713" 
d="M130 715h207l141 -410h2l80 410h199l-138 -715h-214l-134 413h-2l-80 -413h-199z" />
    <glyph glyph-name="O" unicode="O" horiz-adv-x="740" 
d="M362 -17q-70 0 -131 19.5t-106 58.5t-71 98.5t-25 139.5q1 87 29.5 165t80 136.5t123.5 93t161 34.5q74 0 134 -21t103 -62t66 -101.5t23 -139.5q0 -86 -28 -162.5t-78.5 -133.5t-122 -91t-158.5 -34zM236 299q0 -30 7 -57.5t23 -48t40 -32.5t59 -12q46 0 79.5 23.5
t55 60.5t32 82.5t10.5 89.5q0 33 -6.5 61.5t-21.5 50t-39 33.5t-59 12q-47 0 -81 -25t-56 -63.5t-32.5 -85t-10.5 -89.5z" />
    <glyph glyph-name="P" unicode="P" horiz-adv-x="652" 
d="M130 715h287q79 0 128 -17t80 -49q27 -28 43.5 -67t16.5 -90q0 -63 -21 -114t-58 -86t-88 -54t-111 -19h-167l-42 -219h-206zM271 379h113q39 0 67.5 24t28.5 72q0 69 -76 69h-101z" />
    <glyph glyph-name="Q" unicode="Q" horiz-adv-x="740" 
d="M362 -17q-70 0 -131 19.5t-106 58.5t-71 98.5t-25 139.5q1 87 29 165t79 136.5t122.5 93t160.5 34.5q75 0 136 -21t103.5 -62t66 -101.5t23.5 -139.5q0 -91 -30.5 -170.5t-87.5 -137.5l71 -72l-95 -91l-84 85q-73 -34 -161 -35zM506 224q19 34 27.5 79.5t8.5 101.5
q0 33 -6.5 61.5t-21.5 50t-39 33.5t-59 12q-47 0 -81 -25t-56 -63.5t-32.5 -85t-10.5 -89.5q0 -30 7 -57.5t23 -48.5t40 -33.5t59 -12.5h15t15 2l-63 64l96 91z" />
    <glyph glyph-name="R" unicode="R" horiz-adv-x="680" 
d="M246 250l-48 -250h-206l138 715h303q52 0 98.5 -11.5t81 -35t54.5 -60t20 -85.5q0 -80 -37 -125.5t-107 -69.5v-3q40 -17 60.5 -52.5t20.5 -93.5q0 -24 -1 -57.5t0 -61.5q0 -39 14 -49v-11h-208q-5 7 -6.5 19.5t-1.5 26.5q0 21 1.5 51t1.5 59q0 45 -18.5 69.5t-69.5 24.5
h-90zM275 397h110q39 0 67.5 20.5t28.5 66.5q0 32 -19.5 50.5t-60.5 18.5h-96z" />
    <glyph glyph-name="S" unicode="S" horiz-adv-x="642" 
d="M310 -17q-56 0 -113 11t-103 38.5t-74.5 75t-27.5 120.5h211q1 -42 32 -63.5t81 -21.5q18 0 34.5 2.5t29.5 9.5t21 19t8 30q0 13 -9.5 23t-26 18.5t-40 16.5t-51.5 18q-48 17 -88 35.5t-68.5 43t-44 57t-15.5 77.5q0 59 22 103t61 73.5t91 44t112 14.5q50 0 101.5 -10
t93.5 -34.5t67.5 -67t22.5 -106.5h-203q-2 32 -25.5 48.5t-62.5 16.5q-14 0 -28.5 -3t-26 -9t-18.5 -16t-7 -23q0 -15 9 -24.5t28.5 -17.5t49.5 -17.5t73 -24.5q38 -13 73.5 -29.5t62.5 -40t43.5 -56.5t16.5 -79q0 -65 -26.5 -112.5t-70 -78.5t-99.5 -46t-116 -15z" />
    <glyph glyph-name="T" unicode="T" horiz-adv-x="630" 
d="M103 715h600l-34 -176h-199l-104 -539h-205l104 539h-196z" />
    <glyph glyph-name="U" unicode="U" horiz-adv-x="703" 
d="M338 -13q-72 0 -133 17t-102 54t-58 96t-1 142l81 419h206l-86 -444q-11 -55 14.5 -86.5t86.5 -31.5q93 0 113 104l89 458h205l-89 -463q-25 -130 -104.5 -197.5t-221.5 -67.5z" />
    <glyph glyph-name="V" unicode="V" horiz-adv-x="673" 
d="M84 715h209l33 -336q2 -23 3.5 -47.5t3.5 -44.5q2 -24 3 -47h1q8 23 19 47q8 20 19 44.5t22 47.5l153 336h212l-354 -715h-231z" />
    <glyph glyph-name="W" unicode="W" horiz-adv-x="950" 
d="M85 715h204l7 -245q1 -29 1 -64.5t-1 -66.5l-2 -72h2q11 33 23 66q11 29 23.5 62.5t24.5 64.5l98 255h186l10 -253q1 -32 1.5 -66t0.5 -63q0 -33 -1 -66h2q13 36 25 72q11 31 23.5 67t23.5 66l90 243h212l-306 -715h-208l-10 303q-1 23 -1 48.5v46.5v48h-2
q-7 -23 -15 -48q-7 -21 -16 -46.5t-17 -48.5l-114 -303h-211z" />
    <glyph glyph-name="X" unicode="X" horiz-adv-x="723" 
d="M259 382l-159 333h230l81 -195h2l148 195h237l-285 -347l169 -368h-238l-87 224h-2l-169 -224h-244z" />
    <glyph glyph-name="Y" unicode="Y" horiz-adv-x="673" 
d="M232 253l-151 462h220l42 -159q6 -21 10.5 -41.5t7.5 -37.5q4 -19 7 -37h2q11 18 22 37q10 17 22.5 37.5t26.5 41.5l103 159h222l-329 -470l-47 -245h-206z" />
    <glyph glyph-name="Z" unicode="Z" horiz-adv-x="652" 
d="M3 169l324 313q11 11 22.5 21.5t21.5 18.5q11 10 23 19v3l-22 -2t-24 -1h-27h-220l33 174h567l-29 -154l-322 -311q-15 -14 -30.5 -27.5t-28.5 -24.5q-15 -12 -28 -23v-3q13 0 27 1q12 0 27 0.5t32 0.5h266l-33 -174h-611z" />
    <glyph glyph-name="bracketleft" unicode="[" horiz-adv-x="407" 
d="M146 754h323l-28 -144h-149l-119 -612h149l-27 -142h-323z" />
    <glyph glyph-name="backslash" unicode="\" horiz-adv-x="539" 
d="M88 715h163l230 -715h-163z" />
    <glyph glyph-name="bracketright" unicode="]" horiz-adv-x="407" 
d="M-17 -2h149l119 612h-149l28 144h323l-174 -898h-323z" />
    <glyph glyph-name="asciicircum" unicode="^" horiz-adv-x="476" 
d="M260 715h122l123 -293h-159l-50 130h-1l-97 -130h-163z" />
    <glyph glyph-name="underscore" unicode="_" horiz-adv-x="430" 
d="M-63 -53h435l-22 -116h-435z" />
    <glyph glyph-name="grave" unicode="`" 
d="M148 721h203l45 -155h-140z" />
    <glyph glyph-name="a" unicode="a" horiz-adv-x="542" 
d="M296 0q-4 9 -6 24t-2 32h-2q-29 -35 -65.5 -52t-71.5 -17q-75 0 -116.5 39t-41.5 105q0 85 54 124t147 44q40 2 68.5 5.5t47 10t27.5 18t9 30.5q0 16 -11 28t-37 12q-63 0 -78 -61h-177q7 40 26.5 74t51.5 58.5t78.5 38t109.5 13.5q42 0 82 -7t72 -28q35 -23 53.5 -66.5
t4.5 -115.5l-44 -225q-7 -32 -6 -50t9 -26l-1 -8h-181zM226 100q29 0 53.5 17.5t34.5 65.5l9 45q-28 -12 -76 -20q-13 -2 -26.5 -5t-25 -9.5t-18.5 -17.5t-7 -29q0 -26 15 -36.5t41 -10.5z" />
    <glyph glyph-name="b" unicode="b" horiz-adv-x="592" 
d="M332 -17q-49 0 -91.5 21.5t-63.5 72.5h-2l-14 -77h-178l138 715h186l-49 -254h3q30 31 63.5 48t78.5 17q43 0 76.5 -17t56 -47t34 -71t11.5 -89q0 -54 -15 -110.5t-46 -103t-77.5 -76t-110.5 -29.5zM211 230q0 -20 3.5 -38.5t12.5 -33.5t23.5 -24t36.5 -9q29 0 49.5 16
t33 40.5t18.5 54t6 56.5q0 17 -3 34.5t-10.5 32t-20.5 23.5t-34 9q-29 0 -50.5 -15t-36 -38.5t-21.5 -52t-7 -55.5z" />
    <glyph glyph-name="c" unicode="c" horiz-adv-x="550" 
d="M269 -16q-51 0 -98 12t-83 39t-57.5 70t-21.5 105q0 66 21.5 123.5t61 100t95.5 67t124 24.5q50 0 92.5 -12t74 -37t49.5 -63.5t19 -91.5h-176q-2 31 -15 52t-48 21q-30 0 -51 -18.5t-34.5 -46.5t-19.5 -60.5t-6 -60.5q0 -18 3.5 -35t11.5 -29.5t22 -20t34 -7.5
q32 0 57 22t36 68h175q-9 -54 -33 -95t-59.5 -69t-80 -43t-93.5 -15z" />
    <glyph glyph-name="d" unicode="d" horiz-adv-x="601" 
d="M202 -17q-44 0 -79.5 15.5t-61 45t-39 70.5t-13.5 92q0 59 17 116.5t50 102.5t81.5 73t113.5 28q52 0 86.5 -20.5t57.5 -57.5h3l52 267h186l-138 -715h-177l11 61h-2q-23 -32 -62 -55t-86 -23zM203 222q0 -18 3.5 -35.5t12.5 -31.5t23 -22.5t35 -8.5q28 0 49 15.5t35 40
t21 53.5t7 56q0 18 -4 36.5t-13 33.5t-23.5 24t-35.5 9q-29 0 -49.5 -16.5t-34 -41.5t-20 -55t-6.5 -57z" />
    <glyph glyph-name="e" unicode="e" horiz-adv-x="553" 
d="M186 209q0 -18 4.5 -35.5t14 -31t26 -21.5t42.5 -8q23 0 43 9t30 30h180q-13 -42 -37.5 -72.5t-57.5 -50.5q-37 -23 -75.5 -33t-82.5 -10q-56 0 -104.5 15t-84 45t-55.5 74t-20 101q0 65 21.5 121t60 97t92 64.5t117.5 23.5q48 0 82.5 -9.5t62.5 -26.5q63 -40 85 -112
t8 -170h-352zM299 401q-29 0 -57.5 -20.5t-42.5 -71.5h173q1 19 -3 35.5t-12.5 29t-23 20t-34.5 7.5z" />
    <glyph glyph-name="f" unicode="f" horiz-adv-x="362" 
d="M56 510h62l7 36q8 42 24 74t41 52q32 26 72.5 34.5t85.5 8.5q26 0 48.5 -2t43.5 -5l-24 -122q-8 1 -14 1h-12q-32 0 -54.5 -11t-28.5 -48l-3 -18h98l-23 -113h-98l-76 -397h-186l77 397h-63z" />
    <glyph glyph-name="g" unicode="g" horiz-adv-x="573" 
d="M219 -178q-44 0 -85.5 9.5t-75 30t-55.5 52.5t-27 77h178q5 -22 23.5 -33t47.5 -11q40 0 59.5 22t27.5 60l10 52h-4q-22 -24 -53 -39.5t-69 -16.5q-39 0 -72.5 14.5t-59 41.5t-40 64t-14.5 82q0 53 16.5 106.5t47.5 96t76 69.5t102 27q46 0 83 -18t62 -61h3l12 63h177
l-92 -470q-13 -67 -38.5 -108.5t-64.5 -67.5q-35 -23 -79.5 -32.5t-95.5 -9.5zM193 245q0 -17 4 -33.5t12 -29t21.5 -20t33.5 -7.5q26 0 45.5 13t33 34t20.5 47t7 52q0 17 -4 33.5t-12 29t-22 20.5t-33 8q-27 0 -46.5 -13.5t-33 -34.5t-20 -47.5t-6.5 -51.5z" />
    <glyph glyph-name="h" unicode="h" horiz-adv-x="575" 
d="M253 442h3q27 35 66 59.5t94 24.5q39 0 69.5 -14.5t49.5 -42t24 -68.5t-5 -95l-59 -306h-186l58 297q7 34 -3.5 57t-47.5 23q-35 0 -60 -27.5t-33 -68.5l-54 -281h-186l138 715h185z" />
    <glyph glyph-name="i" unicode="i" horiz-adv-x="253" 
d="M82 510h186l-99 -510h-186zM121 715h186l-27 -143h-186z" />
    <glyph glyph-name="j" unicode="j" horiz-adv-x="253" 
d="M-43 -174q-29 0 -51 2.5t-39 7.5l25 129q21 -1 36.5 -1t26.5 4t18 14t11 29l98 499h186l-101 -517q-8 -44 -26 -76t-41 -51q-29 -23 -66.5 -31.5t-76.5 -8.5zM121 715h186l-27 -143h-186z" />
    <glyph glyph-name="k" unicode="k" horiz-adv-x="557" 
d="M234 352l150 158h208l-202 -191l123 -319h-202l-66 186l-53 -49l-26 -137h-183l138 715h183z" />
    <glyph glyph-name="l" unicode="l" horiz-adv-x="258" 
d="M121 715h191l-138 -715h-191z" />
    <glyph glyph-name="m" unicode="m" horiz-adv-x="877" 
d="M82 510h178l-15 -79h3q32 43 70 69t95 26q51 0 82.5 -24.5t46.5 -67.5h3q35 49 78 70.5t92 21.5q46 0 77.5 -17t48.5 -46.5t20.5 -70.5t-5.5 -89l-59 -303h-186l57 295q7 35 -1 58.5t-43 23.5t-57 -27t-31 -75l-53 -275h-186l57 295q7 34 -0.5 58t-43.5 24
q-35 0 -57 -28.5t-31 -73.5l-53 -275h-186z" />
    <glyph glyph-name="n" unicode="n" horiz-adv-x="575" 
d="M244 430h3q29 42 71.5 69t97.5 27q39 0 69.5 -14.5t49.5 -42t24 -68.5t-5 -95l-59 -306h-186l58 297q7 34 -3.5 57t-47.5 23q-35 0 -60 -27.5t-33 -68.5l-54 -281h-186l99 510h178z" />
    <glyph glyph-name="o" unicode="o" horiz-adv-x="572" 
d="M262 -16q-47 0 -92.5 13.5t-81 41.5t-57.5 71.5t-22 103.5q0 65 21 121.5t59.5 98.5t93.5 66.5t123 24.5q49 0 95 -13.5t81.5 -42t57.5 -72.5t22 -104q0 -66 -21 -122.5t-60 -98t-94.5 -65t-124.5 -23.5zM196 207q0 -20 3.5 -37.5t11.5 -30.5t21 -21t33 -8
q31 0 51.5 19.5t33.5 48.5t18 62t5 59q0 19 -3.5 36.5t-12 31.5t-22 22.5t-33.5 8.5q-30 0 -50.5 -20.5t-33 -50.5t-17.5 -63t-5 -57z" />
    <glyph glyph-name="p" unicode="p" horiz-adv-x="594" 
d="M82 510h177l-13 -68h2q29 38 68 61t88 23q42 0 75.5 -17t56.5 -46.5t35 -70t12 -87.5q0 -59 -15 -116.5t-46 -103.5t-77.5 -74t-110.5 -28q-104 0 -150 78h-3l-45 -230h-186zM207 219q0 -18 4 -36.5t13 -33.5t24 -24.5t37 -9.5q29 0 49.5 17t33 42.5t18.5 55t6 55.5
q0 17 -3 34.5t-11 31.5t-21.5 22.5t-34.5 8.5q-27 0 -48.5 -15.5t-36 -39.5t-22.5 -52.5t-8 -55.5z" />
    <glyph glyph-name="q" unicode="q" horiz-adv-x="597" 
d="M337 52h-3q-25 -31 -61 -50t-79 -19q-42 0 -76.5 15t-59 43t-37.5 66.5t-13 86.5q0 61 18 120.5t52.5 106.5t84 76t113.5 29q47 0 84.5 -23.5t57.5 -68.5h3l15 76h177l-132 -679h-186zM198 214q0 -18 3.5 -35t11.5 -30.5t21.5 -21.5t33.5 -8q28 0 50 14.5t37 37.5
t22.5 52.5t7.5 58.5q0 19 -4 37t-12.5 32.5t-23 23.5t-35.5 9q-29 0 -50 -15.5t-35 -40t-20.5 -54.5t-6.5 -60z" />
    <glyph glyph-name="r" unicode="r" horiz-adv-x="404" 
d="M243 425h3q33 51 72.5 73.5t87.5 22.5q25 0 35 -5l-31 -161h-4q-85 14 -132.5 -23t-66.5 -134l-38 -198h-186l99 510h178z" />
    <glyph glyph-name="s" unicode="s" horiz-adv-x="510" 
d="M234 -17q-44 0 -88 8t-79 28.5t-57 55.5t-22 90h176q1 -30 17.5 -48.5t58.5 -18.5q26 0 42.5 9.5t16.5 32.5q0 13 -8.5 21.5t-23 14.5t-34.5 10.5t-43 10.5q-35 9 -64 20.5t-50 29t-32.5 41.5t-11.5 59q0 44 18.5 77.5t51 56t76.5 34t95 11.5q42 0 82 -7.5t72 -25.5
t51.5 -48.5t21.5 -76.5h-171q-2 25 -19.5 35.5t-44.5 10.5q-22 0 -40 -8.5t-18 -26.5q0 -19 22.5 -29.5t72.5 -21.5q32 -8 63.5 -18.5t56 -27.5t40 -43t15.5 -64q0 -96 -66 -144t-177 -48z" />
    <glyph glyph-name="t" unicode="t" horiz-adv-x="364" 
d="M56 510h65l32 165h182l-32 -165h95l-23 -113h-95l-40 -211q-5 -30 5 -41.5t42 -11.5q8 0 18 0.5t18 1.5l-26 -132q-17 -5 -39.5 -9t-53.5 -4q-94 0 -131 43t-20 128l45 236h-65z" />
    <glyph glyph-name="u" unicode="u" horiz-adv-x="572" 
d="M327 81h-3q-27 -43 -66.5 -70t-96.5 -27q-40 0 -71.5 13.5t-51.5 40.5t-26.5 66.5t3.5 90.5l61 315h186l-56 -287q-3 -17 -3 -33t5 -28t16.5 -19.5t29.5 -7.5q35 0 60 22.5t33 67.5l55 285h186l-99 -510h-177z" />
    <glyph glyph-name="v" unicode="v" horiz-adv-x="554" 
d="M45 510h190l21 -198q2 -20 3.5 -41.5t3.5 -39.5l4 -42h1q9 21 19 42q8 18 17.5 39.5t19.5 41.5l93 198h190l-264 -510h-218z" />
    <glyph glyph-name="w" unicode="w" horiz-adv-x="809" 
d="M45 510h189l11 -185q1 -16 1.5 -34.5t1.5 -35.5q1 -19 1 -39h2q7 21 15 41q6 17 13.5 36.5t14.5 35.5l79 181h157l8 -181q1 -17 1.5 -37t1.5 -37q1 -20 1 -41h2l16 40q7 17 14.5 36t14.5 35l82 185h191l-251 -510h-178l-15 214q-2 16 -2 33.5t-1 32.5q-1 18 -1 34h-2
q-6 -17 -12 -35q-5 -15 -12 -32.5l-13 -32.5l-92 -214h-177z" />
    <glyph glyph-name="x" unicode="x" horiz-adv-x="576" 
d="M175 271l-107 239h208l37 -131h2l87 131h210l-204 -250l115 -260h-208l-47 149h-2l-104 -149h-215z" />
    <glyph glyph-name="y" unicode="y" horiz-adv-x="553" 
d="M11 -23h66q25 0 43 10t18 39q0 12 -2.5 28t-6.5 34l-82 422h194l21 -199q2 -20 3.5 -42.5t2.5 -42.5l2 -46h2q8 21 17 43q8 19 17 40.5t19 41.5l96 205h187l-275 -537q-37 -72 -89.5 -107t-128.5 -35h-132z" />
    <glyph glyph-name="z" unicode="z" horiz-adv-x="505" 
d="M-6 134l212 190q11 9 21 17.5t18 15.5q10 8 19 14v3q-12 -1 -24 -1q-11 -1 -23 -1h-24h-135l26 137h434l-24 -127l-199 -181q-14 -13 -27.5 -24t-24.5 -19q-13 -10 -25 -19v-3q11 0 24 1q11 0 26 0.5t32 0.5h163l-26 -138h-468z" />
    <glyph glyph-name="braceleft" unicode="{" horiz-adv-x="407" 
d="M287 -144q-64 0 -110 11t-73.5 36t-36 65.5t2.5 99.5l21 110q7 35 -7.5 54t-60.5 23l27 139q49 0 69 15t27 51l22 113q10 51 28.5 85.5t47 56t67 30.5t88.5 9h70l-28 -145h-22q-37 0 -56 -13t-26 -49l-26 -133q-5 -26 -13 -43.5t-19 -29.5t-25.5 -19.5t-32.5 -13.5v-3
q15 -8 26.5 -17.5t17.5 -22.5t7 -31t-4 -44l-27 -134q-8 -36 10 -46.5t57 -10.5h14l-27 -143h-8z" />
    <glyph glyph-name="bar" unicode="|" horiz-adv-x="230" 
d="M79 754h113v-898h-113v898z" />
    <glyph glyph-name="braceright" unicode="}" horiz-adv-x="407" 
d="M138 754q64 0 110 -11t73.5 -36t36 -65.5t-2.5 -99.5l-21 -110q-7 -35 7.5 -54t60.5 -23l-27 -139q-49 0 -69 -15t-27 -51l-22 -115q-10 -51 -28.5 -85.5t-47 -55.5t-67 -29.5t-88.5 -8.5h-70l27 143h22q37 0 56.5 14t26.5 50l26 133q5 26 13 43.5t19 29.5t25.5 19.5
t32.5 13.5v3q-15 8 -26.5 17.5t-17.5 22.5t-7 31t4 44l26 132q7 35 -10.5 46t-56.5 11h-14l28 145h8z" />
    <glyph glyph-name="asciitilde" unicode="~" horiz-adv-x="452" 
d="M15 227q5 50 19.5 86.5t35.5 60.5t47 36t53 12t46 -7.5t34 -16t28 -16t29 -7.5q20 0 28.5 13t13.5 34h113q-10 -88 -47 -138t-99 -50q-28 0 -47.5 7t-35.5 15.5t-30.5 15.5t-32.5 7q-16 0 -27 -14.5t-16 -37.5h-112v0z" />
    <glyph glyph-name="uni00A0" unicode="&#xa0;" horiz-adv-x="149" 
 />
    <glyph glyph-name="exclamdown" unicode="&#xa1;" horiz-adv-x="269" 
d="M188 47l-33 -174h-192l36 186l101 271h99zM256 397h-192l37 191h192z" />
    <glyph glyph-name="cent" unicode="&#xa2;" horiz-adv-x="550" 
d="M362 522q39 -5 72.5 -19t58 -39t38.5 -60.5t14 -82.5h-173q-1 25 -9 42.5t-27 25.5l-54 -274q28 6 48 28t31 63h170q-18 -108 -91.5 -164t-182.5 -58l-19 -98h-61l20 103q-38 6 -72 21.5t-60 41.5t-41 64.5t-15 89.5q0 64 21.5 121t60 99.5t92 68.5t118.5 29l14 70h61z
M187 203q0 -27 8 -49t28 -33l52 269q-24 -9 -40.5 -30t-27 -47.5t-15.5 -55.5t-5 -54z" />
    <glyph glyph-name="sterling" unicode="&#xa3;" horiz-adv-x="607" 
d="M305 288q-5 -38 -27.5 -64.5t-54.5 -50.5l2 -3q12 4 23 6t28 2q21 0 39.5 -3.5t36.5 -7l36 -7t36 -3.5q23 0 44 8.5t35 19.5l60 -154q-29 -20 -67.5 -33.5t-79.5 -13.5q-37 0 -67.5 8t-57.5 17t-52 17t-50 8q-32 0 -59 -11.5t-58 -30.5l-68 138q45 22 79 63.5t38 94.5
h-82l20 98h42q-8 22 -14.5 44.5t-6.5 49.5q0 57 23.5 98t62.5 68t88.5 40t101.5 13q55 0 105.5 -12.5t87.5 -42t57 -78.5t14 -122h-187q2 21 -0.5 39.5t-11.5 33t-25 22.5t-41 8q-34 0 -54 -21t-20 -61q0 -20 4 -39t9 -40h133l-20 -98h-102z" />
    <glyph glyph-name="currency" unicode="&#xa4;" horiz-adv-x="504" 
d="M269 146q-53 0 -92 19l-66 -67l-84 82l64 64q-25 47 -25 105q0 57 25 104l-64 66l84 82l65 -68q42 20 93 20q50 0 92 -20l66 68l84 -82l-66 -66q26 -46 26 -104q0 -57 -25 -104l65 -65l-84 -82l-66 67q-43 -19 -92 -19zM269 238q42 0 64 30t22 81t-22 81.5t-64 30.5
q-43 0 -66 -30.5t-23 -81.5t23 -81t66 -30z" />
    <glyph glyph-name="yen" unicode="&#xa5;" horiz-adv-x="663" 
d="M82 305h136l-137 381h211l40 -138q6 -23 11.5 -44t9.5 -38q4 -19 8 -37h2q8 16 19 34q8 15 19.5 34t24.5 38l103 151h213l-285 -381h136l-14 -70h-161l-10 -51h161l-13 -70h-161l-22 -114h-190l22 114h-160l13 70h160l10 51h-160z" />
    <glyph glyph-name="brokenbar" unicode="&#xa6;" horiz-adv-x="217" 
d="M51 229h115v-373h-115v373zM51 754h115v-362h-115v362z" />
    <glyph glyph-name="section" unicode="&#xa7;" horiz-adv-x="647" 
d="M461 523q2 32 -12.5 51t-53.5 19q-25 0 -42.5 -12.5t-17.5 -37.5q0 -13 8 -24t25 -23t44.5 -26.5t65.5 -35.5q34 -18 61 -36.5t45.5 -39.5t28.5 -46t10 -56q0 -33 -11 -58t-29 -42.5t-41 -29.5t-48 -19q31 -36 31 -100q0 -49 -19.5 -86t-52.5 -61.5t-77 -37.5t-93 -13
q-47 0 -91.5 11.5t-78.5 36.5t-53 65t-16 96h165q-2 -35 19.5 -52t57.5 -17q23 0 44 12.5t21 37.5q0 16 -10 29t-29.5 25.5t-50 27.5t-70.5 35q-38 19 -66.5 37.5t-48 40t-29.5 46t-10 55.5q0 68 39.5 106.5t102.5 56.5q-8 10 -14.5 28.5t-6.5 42.5q0 48 19.5 85t52.5 62.5
t76 38.5t90 13q46 0 88.5 -11t73.5 -35.5t48 -63.5t13 -95h-158zM348 308q-25 14 -51.5 29t-50.5 30q-14 -3 -28 -11.5t-14 -28.5q0 -10 6.5 -18.5t20 -18.5t34.5 -22t50 -28q18 -11 41 -24t44 -27q7 1 15 3.5t15.5 7t12.5 11.5t5 17q0 20 -24.5 36t-75.5 44z" />
    <glyph glyph-name="dieresis" unicode="&#xa8;" 
d="M359 715h175l-27 -143h-175zM134 715h175l-27 -143h-175z" />
    <glyph glyph-name="copyright" unicode="&#xa9;" horiz-adv-x="805" 
d="M424 -17q-77 0 -144.5 28t-117.5 77.5t-78.5 118t-28.5 148.5t28.5 148.5t78.5 118.5t117.5 78t144.5 28t144.5 -28t117.5 -78t78.5 -118.5t28.5 -148.5t-28.5 -148.5t-78.5 -118t-117.5 -77.5t-144.5 -28zM424 37q65 0 121 24t97 66.5t64 101t23 126.5t-23 126.5
t-64 101t-97 66.5t-121 24t-121 -24t-97 -66.5t-64 -101t-23 -126.5t23 -126.5t64 -101t97 -66.5t121 -24zM428 136q-49 0 -89 17t-68.5 46.5t-44 70.5t-15.5 89t16 89t44.5 71t68.5 47t88 17q35 0 65.5 -9t54.5 -25q34 -23 52.5 -57t23.5 -76h-132q-4 21 -20 36.5t-44 15.5
q-40 0 -58.5 -30.5t-18.5 -78.5t20.5 -78t58.5 -30q29 0 46 16t20 39h133q-3 -36 -18 -66.5t-38 -52.5q-28 -26 -62.5 -38.5t-82.5 -12.5z" />
    <glyph glyph-name="ordfeminine" unicode="&#xaa;" horiz-adv-x="514" 
d="M320 236q-7 19 -7 49h-2q-25 -33 -58.5 -46.5t-63.5 -13.5q-66 0 -103.5 32.5t-37.5 90.5q0 77 51.5 111.5t146.5 40.5q62 4 89 14t27 41q0 14 -8.5 25.5t-30.5 11.5q-29 1 -44.5 -14t-22.5 -41h-158q7 36 23.5 65.5t45 51t69.5 33.5t96 12q37 0 71.5 -6.5t63.5 -24.5
q31 -20 47.5 -59t3.5 -101l-38 -198q-6 -29 -5.5 -44.5t7.5 -22.5l-1 -7h-161zM258 321q26 0 47.5 17t30.5 59l8 41q-14 -6 -30 -10.5t-37 -7.5q-11 -2 -23.5 -4.5t-22.5 -8.5t-16.5 -16t-6.5 -26q0 -23 14 -33.5t36 -10.5z" />
    <glyph glyph-name="guillemotleft" unicode="&#xab;" horiz-adv-x="425" 
d="M14 160l35 180l185 125l-31 -160l-93 -64v-2l68 -64l-29 -151zM208 160l35 180l181 125l-31 -160l-89 -64v-2l64 -64l-29 -151z" />
    <glyph glyph-name="logicalnot" unicode="&#xac;" horiz-adv-x="526" 
d="M79 442h428l-62 -319h-172l31 158h-256z" />
    <glyph glyph-name="uni00AD" unicode="&#xad;" horiz-adv-x="326" 
d="M44 335h268l-31 -160h-268z" />
    <glyph glyph-name="registered" unicode="&#xae;" horiz-adv-x="523" 
d="M307 244q-50 0 -94 18.5t-76.5 50.5t-51 76.5t-18.5 96.5t18.5 96.5t51 76.5t76.5 50.5t94 18.5t94 -18.5t76.5 -50.5t51 -76.5t18.5 -96.5t-18.5 -96.5t-51 -76.5t-76.5 -50.5t-94 -18.5zM307 285q41 0 76.5 15t61 42t40 63.5t14.5 80.5q0 43 -14.5 79.5t-40 63.5
t-61 42t-76.5 15t-76.5 -15t-61 -42t-40 -63.5t-14.5 -79.5q0 -44 14.5 -80.5t40 -63.5t61 -42t76.5 -15zM198 615h128q40 0 70.5 -18.5t30.5 -57.5q0 -45 -42 -61v-2q17 -6 24.5 -17t11.5 -26q5 -23 5 -43t8 -24v-6h-81q-5 3 -5.5 22t-4.5 37q-3 15 -10.5 21t-24.5 6h-28
v-86h-82v255zM280 503h34q32 0 32 25q0 24 -32 24h-34v-49z" />
    <glyph glyph-name="macron" unicode="&#xaf;" 
d="M187 687h284l-21 -106h-284z" />
    <glyph glyph-name="degree" unicode="&#xb0;" horiz-adv-x="388" 
d="M245 381q-34 0 -64 12t-52.5 33t-36 50t-13.5 63t13.5 63t36 50.5t52.5 34t64 12.5q33 0 63.5 -12.5t53 -34t36 -50.5t13.5 -63t-13.5 -63t-36 -50t-53 -33t-63.5 -12zM245 474q29 0 46 19.5t17 45.5t-17 46.5t-46 20.5q-30 0 -46.5 -20.5t-16.5 -46.5t16.5 -45.5
t46.5 -19.5z" />
    <glyph glyph-name="plusminus" unicode="&#xb1;" horiz-adv-x="554" 
d="M83 458h151l22 118h164l-22 -118h151l-31 -157h-151l-23 -120h-164l23 120h-151zM22 146h466l-28 -146h-466z" />
    <glyph glyph-name="twosuperior" unicode="&#xb2;" horiz-adv-x="388" 
d="M300 592q0 17 -11 25t-28 8q-23 0 -39.5 -18t-22.5 -47h-122q6 41 24 71.5t44 51t59 30.5t69 10q28 0 55.5 -7t49.5 -21t35 -37t13 -54q0 -36 -15.5 -63t-40.5 -45q-18 -13 -37 -23t-37.5 -19t-35 -17.5t-29.5 -17.5v-1h164l-20 -100h-346q8 51 30 83t52 54
q35 28 71 45.5t69 34.5q22 11 35.5 22.5t13.5 34.5z" />
    <glyph glyph-name="threesuperior" unicode="&#xb3;" horiz-adv-x="387" 
d="M81 590q6 29 21.5 53.5t39.5 42t55.5 27.5t68.5 10q30 0 57.5 -6.5t49.5 -20.5t34.5 -35.5t12.5 -50.5q-1 -31 -19.5 -54t-46.5 -34v-1q23 -11 38 -31.5t15 -49.5q0 -35 -16 -60t-41.5 -41t-57.5 -23.5t-63 -7.5q-35 0 -67 8.5t-57 26t-39.5 44.5t-14.5 65h122
q1 -25 15 -39t41 -14q21 0 37 11t16 32q0 39 -54 39h-26l16 80h27q24 0 39.5 9t15.5 29t-13.5 27.5t-30.5 7.5q-23 0 -37.5 -13t-19.5 -31h-118z" />
    <glyph glyph-name="acute" unicode="&#xb4;" 
d="M294 721h212l-150 -155h-140z" />
    <glyph glyph-name="mu" unicode="&#xb5;" horiz-adv-x="580" 
d="M82 510h186l-56 -287q-17 -84 51 -84q37 0 60 25t31 66l54 280h186l-99 -510h-177l14 75h-3q-25 -42 -56 -64t-66 -22q-14 0 -24.5 3.5t-16.5 8.5h-1l-33 -170h-182z" />
    <glyph glyph-name="paragraph" unicode="&#xb6;" horiz-adv-x="617" 
d="M249 329q-41 0 -73.5 12t-55 34t-34 51.5t-11.5 65.5q0 46 16 91.5t58 80.5q58 51 156 51h349l-138 -715h-115l117 603h-58l-117 -603h-116l63 329h-41z" />
    <glyph glyph-name="periodcentered" unicode="&#xb7;" horiz-adv-x="247" 
d="M58 415h191l-37 -191h-191z" />
    <glyph glyph-name="cedilla" unicode="&#xb8;" 
d="M149 -193q-36 0 -64.5 7.5t-48.5 21.5l22 37q14 -7 31.5 -11t35.5 -4q20 0 36 6.5t16 23.5q0 13 -8 17.5t-23 4.5q-16 0 -32 -7l-16 26l74 71h66l-53 -43v-2q45 2 70.5 -13.5t25.5 -49.5q0 -22 -11 -38t-29 -26.5t-42 -15.5t-50 -5z" />
    <glyph glyph-name="onesuperior" unicode="&#xb9;" horiz-adv-x="277" 
d="M329 719l-78 -401h-136l43 220h-89l18 90q102 5 136 91h106z" />
    <glyph glyph-name="ordmasculine" unicode="&#xba;" horiz-adv-x="510" 
d="M268 223q-42 0 -81.5 11.5t-71 35.5t-50.5 62t-19 91q0 57 19 107.5t53.5 88t83 59t108.5 21.5q43 0 83 -11.5t71.5 -35.5t50.5 -62t19 -91q0 -58 -19 -108.5t-54 -87.5t-84 -58.5t-109 -21.5zM213 412q0 -15 2.5 -29t9.5 -25.5t18 -18.5t29 -7q27 0 45 17.5t29 43.5
t15 56t4 55q0 15 -3 30t-9.5 27.5t-18.5 20t-30 7.5q-27 0 -44.5 -18.5t-28 -46t-14.5 -58t-4 -54.5z" />
    <glyph glyph-name="guillemotright" unicode="&#xbb;" horiz-adv-x="425" 
d="M405 329l-35 -180l-185 -125l31 160l93 64v2l-68 64l29 151zM211 329l-35 -180l-181 -125l31 160l89 64v2l-64 64l29 151z" />
    <glyph glyph-name="onequarter" unicode="&#xbc;" horiz-adv-x="797" 
d="M614 401h129l-45 -232h57l-18 -85h-56l-16 -84h-127l16 84h-192l19 94zM687 715h111l-660 -715h-112zM332 719l-78 -401h-136l43 220h-89l18 90q102 5 136 91h106zM593 282h-1l-117 -112v-1h96z" />
    <glyph glyph-name="onehalf" unicode="&#xbd;" horiz-adv-x="861" 
d="M332 719l-78 -401h-136l43 220h-89l18 90q102 5 136 91h106zM693 715h111l-660 -715h-112zM684 274q0 17 -11 25t-28 8q-23 0 -39.5 -18t-22.5 -47h-122q6 41 24 71.5t44 51t59 30.5t69 10q28 0 55.5 -7t49.5 -21t35 -37t13 -54q0 -36 -15.5 -63t-40.5 -45
q-18 -13 -37 -23t-37.5 -19t-35 -17.5t-29.5 -17.5v-1h164l-20 -100h-346q8 51 30 83t52 54q35 28 71 45.5t69 34.5q22 11 35.5 22.5t13.5 34.5z" />
    <glyph glyph-name="threequarters" unicode="&#xbe;" horiz-adv-x="888" 
d="M704 401h129l-45 -232h57l-18 -85h-56l-16 -84h-127l16 84h-192l19 94zM84 590q6 29 21.5 53.5t39.5 42t55.5 27.5t68.5 10q30 0 57.5 -6.5t49.5 -20.5t34.5 -35.5t12.5 -50.5q-1 -31 -19.5 -54t-46.5 -34v-1q23 -11 38 -31.5t15 -49.5q0 -35 -16 -60t-41.5 -41
t-57.5 -23.5t-63 -7.5q-35 0 -67 8.5t-57 26t-39.5 44.5t-14.5 65h122q1 -25 15 -39t41 -14q21 0 37 11t16 32q0 39 -54 39h-26l16 80h27q24 0 39.5 9t15.5 29t-13.5 27.5t-30.5 7.5q-23 0 -37.5 -13t-19.5 -31h-118zM776 715h111l-660 -715h-112zM683 282h-1l-117 -112v-1
h96z" />
    <glyph glyph-name="questiondown" unicode="&#xbf;" horiz-adv-x="559" 
d="M387 330q-6 -32 -11.5 -54.5t-12.5 -39t-16.5 -29.5t-23.5 -25q-19 -16 -44 -28.5t-47 -25t-37 -27.5t-15 -36q0 -26 16.5 -38t42.5 -12q32 0 55.5 19.5t31.5 62.5h191q-10 -62 -35.5 -106.5t-64.5 -73.5t-89 -43t-109 -14q-39 0 -81.5 8t-78 28t-59 55.5t-23.5 91.5
q0 60 29.5 104.5t85.5 71.5q42 21 64 32.5t36 22.5q15 11 20 25t8 31h167zM416 397h-192l37 191h192z" />
    <glyph glyph-name="Agrave" unicode="&#xc0;" horiz-adv-x="718" 
d="M445 106h-239l-53 -106h-208l389 715h209l132 -715h-215zM296 881h204l30 -135h-140zM278 248h147l-20 143q-2 13 -3.5 29t-3.5 30q-2 17 -3 33h-2q-7 -16 -15 -33q-7 -14 -14.5 -30t-13.5 -29z" />
    <glyph glyph-name="Aacute" unicode="&#xc1;" horiz-adv-x="718" 
d="M445 106h-239l-53 -106h-208l389 715h209l132 -715h-215zM509 746h-140l64 135h208zM278 248h147l-20 143q-2 13 -3.5 29t-3.5 30q-2 17 -3 33h-2q-7 -16 -15 -33q-7 -14 -14.5 -30t-13.5 -29z" />
    <glyph glyph-name="Acircumflex" unicode="&#xc2;" horiz-adv-x="718" 
d="M445 106h-239l-53 -106h-208l389 715h209l132 -715h-215zM374 883h165l93 -137h-149l-35 51h-2l-47 -51h-164zM278 248h147l-20 143q-2 13 -3.5 29t-3.5 30q-2 17 -3 33h-2q-7 -16 -15 -33q-7 -14 -14.5 -30t-13.5 -29z" />
    <glyph glyph-name="Atilde" unicode="&#xc3;" horiz-adv-x="718" 
d="M445 106h-239l-53 -106h-208l389 715h209l132 -715h-215zM247 744q13 78 52 115t87 37q22 0 38.5 -6t30 -13t25.5 -13t24 -6q17 0 25.5 10.5t13.5 27.5h94q-11 -66 -44 -106.5t-87 -40.5q-24 0 -41.5 6t-32 12.5t-26.5 12.5t-24 6q-30 0 -41 -42h-94zM278 248h147
l-20 143q-2 13 -3.5 29t-3.5 30q-2 17 -3 33h-2q-7 -16 -15 -33q-7 -14 -14.5 -30t-13.5 -29z" />
    <glyph glyph-name="Adieresis" unicode="&#xc4;" horiz-adv-x="718" 
d="M445 106h-239l-53 -106h-208l389 715h209l132 -715h-215zM493 895h175l-27 -143h-175zM268 895h175l-27 -143h-175zM278 248h147l-20 143q-2 13 -3.5 29t-3.5 30q-2 17 -3 33h-2q-7 -16 -15 -33q-7 -14 -14.5 -30t-13.5 -29z" />
    <glyph glyph-name="Aring" unicode="&#xc5;" horiz-adv-x="718" 
d="M445 106h-239l-53 -106h-208l389 715h209l132 -715h-215zM447 735q-22 0 -41.5 8t-34 21.5t-23 32t-8.5 40.5t8.5 40.5t23 32.5t34 22t41.5 8t41.5 -8t34 -22t23 -32.5t8.5 -40.5t-8.5 -40.5t-23 -32t-34 -21.5t-41.5 -8zM278 248h147l-20 143q-2 13 -3.5 29t-3.5 30
q-2 17 -3 33h-2q-7 -16 -15 -33q-7 -14 -14.5 -30t-13.5 -29zM447 799q17 0 27.5 11.5t10.5 26.5t-10.5 27t-27.5 12t-27.5 -12t-10.5 -27t10.5 -26.5t27.5 -11.5z" />
    <glyph glyph-name="AE" unicode="&#xc6;" horiz-adv-x="1001" 
d="M399 100h-200l-51 -100h-203l378 715h725l-33 -168h-324l-18 -100h270l-30 -155h-271l-22 -115h338l-34 -177h-544zM270 238h156l59 307h-57z" />
    <glyph glyph-name="Ccedilla" unicode="&#xc7;" horiz-adv-x="706" 
d="M282 -193q-36 0 -64.5 7.5t-48.5 21.5l22 37q14 -7 31.5 -11t35.5 -4q20 0 36 6.5t16 23.5q0 13 -8 17.5t-23 4.5q-16 0 -32 -7l-16 26l61 59q-60 8 -109 32t-83.5 63.5t-53 94t-18.5 123.5q0 86 27.5 163.5t78.5 136t122.5 93t160.5 34.5q69 0 119.5 -13.5t87.5 -41.5
q51 -38 75.5 -94.5t27.5 -128.5h-207q-1 47 -26 77t-80 30q-47 0 -80 -22.5t-54.5 -58.5t-31.5 -80.5t-10 -89.5q0 -30 6.5 -58t21 -49t37.5 -33.5t57 -12.5q50 0 85.5 28t48.5 85h210q-14 -73 -46.5 -126.5t-79 -88t-103 -51.5t-116.5 -17h-9l-32 -26v-2q45 2 70.5 -13.5
t25.5 -49.5q0 -22 -11 -38t-29 -26.5t-42 -15.5t-50 -5z" />
    <glyph glyph-name="Egrave" unicode="&#xc8;" horiz-adv-x="623" 
d="M130 715h540l-33 -168h-334l-18 -100h280l-30 -155h-281l-22 -115h348l-34 -177h-554zM262 881h204l30 -135h-140z" />
    <glyph glyph-name="Eacute" unicode="&#xc9;" horiz-adv-x="623" 
d="M130 715h540l-33 -168h-334l-18 -100h280l-30 -155h-281l-22 -115h348l-34 -177h-554zM476 746h-140l64 135h208z" />
    <glyph glyph-name="Ecircumflex" unicode="&#xca;" horiz-adv-x="623" 
d="M130 715h540l-33 -168h-334l-18 -100h280l-30 -155h-281l-22 -115h348l-34 -177h-554zM346 883h165l93 -137h-149l-35 51h-2l-47 -51h-164z" />
    <glyph glyph-name="Edieresis" unicode="&#xcb;" horiz-adv-x="623" 
d="M130 715h540l-33 -168h-334l-18 -100h280l-30 -155h-281l-22 -115h348l-34 -177h-554zM463 895h175l-27 -143h-175zM238 895h175l-27 -143h-175z" />
    <glyph glyph-name="Igrave" unicode="&#xcc;" horiz-adv-x="290" 
d="M130 715h206l-138 -715h-206zM82 881h204l30 -135h-140z" />
    <glyph glyph-name="Iacute" unicode="&#xcd;" horiz-adv-x="290" 
d="M130 715h206l-138 -715h-206zM294 746h-140l64 135h208z" />
    <glyph glyph-name="Icircumflex" unicode="&#xce;" horiz-adv-x="290" 
d="M130 715h206l-138 -715h-206zM170 883h165l93 -137h-149l-35 51h-2l-47 -51h-164z" />
    <glyph glyph-name="Idieresis" unicode="&#xcf;" horiz-adv-x="290" 
d="M130 715h206l-138 -715h-206zM291 895h175l-27 -143h-175zM66 895h175l-27 -143h-175z" />
    <glyph glyph-name="Eth" unicode="&#xd0;" horiz-adv-x="730" 
d="M60 289h-45l29 153h45l53 273h284q70 0 127.5 -21t99 -60.5t64 -96.5t22.5 -129q0 -91 -26.5 -166t-77 -129t-123.5 -83.5t-165 -29.5h-343zM345 171q43 0 77 16.5t58 46t36.5 70.5t12.5 89q0 75 -35.5 113t-103.5 38h-75l-20 -102h141l-29 -153h-141l-23 -118h102z" />
    <glyph glyph-name="Ntilde" unicode="&#xd1;" horiz-adv-x="713" 
d="M130 715h207l141 -410h2l80 410h199l-138 -715h-214l-134 413h-2l-80 -413h-199zM272 744q13 78 52 115t87 37q22 0 38.5 -6t30 -13t25.5 -13t24 -6q17 0 25.5 10.5t13.5 27.5h94q-11 -66 -44 -106.5t-87 -40.5q-24 0 -41.5 6t-32 12.5t-26.5 12.5t-24 6q-30 0 -41 -42
h-94z" />
    <glyph glyph-name="Ograve" unicode="&#xd2;" horiz-adv-x="740" 
d="M362 -17q-70 0 -131 19.5t-106 58.5t-71 98.5t-25 139.5q1 87 29.5 165t80 136.5t123.5 93t161 34.5q74 0 134 -21t103 -62t66 -101.5t23 -139.5q0 -86 -28 -162.5t-78.5 -133.5t-122 -91t-158.5 -34zM236 299q0 -30 7 -57.5t23 -48t40 -32.5t59 -12q46 0 79.5 23.5
t55 60.5t32 82.5t10.5 89.5q0 33 -6.5 61.5t-21.5 50t-39 33.5t-59 12q-47 0 -81 -25t-56 -63.5t-32.5 -85t-10.5 -89.5zM286 881h204l30 -135h-140z" />
    <glyph glyph-name="Oacute" unicode="&#xd3;" horiz-adv-x="740" 
d="M362 -17q-70 0 -131 19.5t-106 58.5t-71 98.5t-25 139.5q1 87 29.5 165t80 136.5t123.5 93t161 34.5q74 0 134 -21t103 -62t66 -101.5t23 -139.5q0 -86 -28 -162.5t-78.5 -133.5t-122 -91t-158.5 -34zM236 299q0 -30 7 -57.5t23 -48t40 -32.5t59 -12q46 0 79.5 23.5
t55 60.5t32 82.5t10.5 89.5q0 33 -6.5 61.5t-21.5 50t-39 33.5t-59 12q-47 0 -81 -25t-56 -63.5t-32.5 -85t-10.5 -89.5zM509 746h-140l64 135h208z" />
    <glyph glyph-name="Ocircumflex" unicode="&#xd4;" horiz-adv-x="740" 
d="M362 -17q-70 0 -131 19.5t-106 58.5t-71 98.5t-25 139.5q1 87 29.5 165t80 136.5t123.5 93t161 34.5q74 0 134 -21t103 -62t66 -101.5t23 -139.5q0 -86 -28 -162.5t-78.5 -133.5t-122 -91t-158.5 -34zM236 299q0 -30 7 -57.5t23 -48t40 -32.5t59 -12q46 0 79.5 23.5
t55 60.5t32 82.5t10.5 89.5q0 33 -6.5 61.5t-21.5 50t-39 33.5t-59 12q-47 0 -81 -25t-56 -63.5t-32.5 -85t-10.5 -89.5zM383 883h165l93 -137h-149l-35 51h-2l-47 -51h-164z" />
    <glyph glyph-name="Otilde" unicode="&#xd5;" horiz-adv-x="740" 
d="M362 -17q-70 0 -131 19.5t-106 58.5t-71 98.5t-25 139.5q1 87 29.5 165t80 136.5t123.5 93t161 34.5q74 0 134 -21t103 -62t66 -101.5t23 -139.5q0 -86 -28 -162.5t-78.5 -133.5t-122 -91t-158.5 -34zM236 299q0 -30 7 -57.5t23 -48t40 -32.5t59 -12q46 0 79.5 23.5
t55 60.5t32 82.5t10.5 89.5q0 33 -6.5 61.5t-21.5 50t-39 33.5t-59 12q-47 0 -81 -25t-56 -63.5t-32.5 -85t-10.5 -89.5zM247 744q13 78 52 115t87 37q22 0 38.5 -6t30 -13t25.5 -13t24 -6q17 0 25.5 10.5t13.5 27.5h94q-11 -66 -44 -106.5t-87 -40.5q-24 0 -41.5 6
t-32 12.5t-26.5 12.5t-24 6q-30 0 -41 -42h-94z" />
    <glyph glyph-name="Odieresis" unicode="&#xd6;" horiz-adv-x="740" 
d="M362 -17q-70 0 -131 19.5t-106 58.5t-71 98.5t-25 139.5q1 87 29.5 165t80 136.5t123.5 93t161 34.5q74 0 134 -21t103 -62t66 -101.5t23 -139.5q0 -86 -28 -162.5t-78.5 -133.5t-122 -91t-158.5 -34zM236 299q0 -30 7 -57.5t23 -48t40 -32.5t59 -12q46 0 79.5 23.5
t55 60.5t32 82.5t10.5 89.5q0 33 -6.5 61.5t-21.5 50t-39 33.5t-59 12q-47 0 -81 -25t-56 -63.5t-32.5 -85t-10.5 -89.5zM496 895h175l-27 -143h-175zM271 895h175l-27 -143h-175z" />
    <glyph glyph-name="multiply" unicode="&#xd7;" horiz-adv-x="554" 
d="M271 215l-154 -136l-101 112l160 142l-109 135l125 111l109 -135l152 135l102 -111l-159 -141l110 -135l-126 -111z" />
    <glyph glyph-name="Oslash" unicode="&#xd8;" horiz-adv-x="740" 
d="M362 -17q-58 0 -110 13t-94 40l-75 -84l-61 56l73 83q-32 38 -49.5 90t-16.5 118q1 87 29.5 165t80 136.5t123.5 93t161 34.5q113 0 193 -49l70 79l61 -56l-69 -78q34 -41 52.5 -95.5t18.5 -124.5q0 -86 -28 -162.5t-78.5 -133.5t-122 -91t-158.5 -34zM547 405
q0 35 -7 63l-260 -294q33 -25 85 -25q48 0 82.5 23.5t56.5 60.5t32.5 82.5t10.5 89.5zM231 299q0 -13 1 -25.5t4 -23.5l257 291q-14 10 -33.5 15.5t-43.5 5.5q-49 0 -84 -25t-57.5 -63t-33 -85t-10.5 -90z" />
    <glyph glyph-name="Ugrave" unicode="&#xd9;" horiz-adv-x="703" 
d="M338 -13q-72 0 -133 17t-102 54t-58 96t-1 142l81 419h206l-86 -444q-11 -55 14.5 -86.5t86.5 -31.5q93 0 113 104l89 458h205l-89 -463q-25 -130 -104.5 -197.5t-221.5 -67.5zM284 881h204l30 -135h-140z" />
    <glyph glyph-name="Uacute" unicode="&#xda;" horiz-adv-x="703" 
d="M338 -13q-72 0 -133 17t-102 54t-58 96t-1 142l81 419h206l-86 -444q-11 -55 14.5 -86.5t86.5 -31.5q93 0 113 104l89 458h205l-89 -463q-25 -130 -104.5 -197.5t-221.5 -67.5zM507 746h-140l64 135h208z" />
    <glyph glyph-name="Ucircumflex" unicode="&#xdb;" horiz-adv-x="703" 
d="M338 -13q-72 0 -133 17t-102 54t-58 96t-1 142l81 419h206l-86 -444q-11 -55 14.5 -86.5t86.5 -31.5q93 0 113 104l89 458h205l-89 -463q-25 -130 -104.5 -197.5t-221.5 -67.5zM372 883h165l93 -137h-149l-35 51h-2l-47 -51h-164z" />
    <glyph glyph-name="Udieresis" unicode="&#xdc;" horiz-adv-x="703" 
d="M338 -13q-72 0 -133 17t-102 54t-58 96t-1 142l81 419h206l-86 -444q-11 -55 14.5 -86.5t86.5 -31.5q93 0 113 104l89 458h205l-89 -463q-25 -130 -104.5 -197.5t-221.5 -67.5zM489 895h175l-27 -143h-175zM264 895h175l-27 -143h-175z" />
    <glyph glyph-name="Yacute" unicode="&#xdd;" horiz-adv-x="673" 
d="M232 253l-151 462h220l42 -159q6 -21 10.5 -41.5t7.5 -37.5q4 -19 7 -37h2q11 18 22 37q10 17 22.5 37.5t26.5 41.5l103 159h222l-329 -470l-47 -245h-206zM486 746h-140l64 135h208z" />
    <glyph glyph-name="Thorn" unicode="&#xde;" horiz-adv-x="654" 
d="M130 715h206l-17 -90h80q79 0 128 -17t80 -49q27 -28 43.5 -67t16.5 -90q0 -63 -21 -114t-58 -86t-88 -54t-111 -19h-167l-24 -129h-206zM253 289h113q39 0 67.5 24t28.5 72q0 69 -76 69h-101z" />
    <glyph glyph-name="germandbls" unicode="&#xdf;" horiz-adv-x="594" 
d="M329 -9q-60 0 -107 16l26 136q8 -2 18 -3t26 -1q20 0 39 6.5t33.5 20.5t23.5 36t9 52q0 40 -23 62t-72 22h-13l20 103h2q21 0 40.5 3t35 11.5t24.5 24t9 41.5q0 29 -19 45.5t-49 16.5q-32 0 -55 -19.5t-31 -62.5l-97 -501h-186l98 510q20 107 93.5 162.5t185.5 55.5
q36 0 77 -8t75.5 -28.5t57 -55.5t23.5 -88q1 -50 -26.5 -92.5t-82.5 -63.5v-3q38 -17 66.5 -54.5t28.5 -99.5q0 -58 -19 -103t-52 -76.5t-79 -48t-100 -16.5z" />
    <glyph glyph-name="agrave" unicode="&#xe0;" horiz-adv-x="542" 
d="M296 0q-4 9 -6 24t-2 32h-2q-29 -35 -65.5 -52t-71.5 -17q-75 0 -116.5 39t-41.5 105q0 85 54 124t147 44q40 2 68.5 5.5t47 10t27.5 18t9 30.5q0 16 -11 28t-37 12q-63 0 -78 -61h-177q7 40 26.5 74t51.5 58.5t78.5 38t109.5 13.5q42 0 82 -7t72 -28q35 -23 53.5 -66.5
t4.5 -115.5l-44 -225q-7 -32 -6 -50t9 -26l-1 -8h-181zM226 100q29 0 53.5 17.5t34.5 65.5l9 45q-28 -12 -76 -20q-13 -2 -26.5 -5t-25 -9.5t-18.5 -17.5t-7 -29q0 -26 15 -36.5t41 -10.5zM162 721h203l45 -155h-140z" />
    <glyph glyph-name="aacute" unicode="&#xe1;" horiz-adv-x="542" 
d="M296 0q-4 9 -6 24t-2 32h-2q-29 -35 -65.5 -52t-71.5 -17q-75 0 -116.5 39t-41.5 105q0 85 54 124t147 44q40 2 68.5 5.5t47 10t27.5 18t9 30.5q0 16 -11 28t-37 12q-63 0 -78 -61h-177q7 40 26.5 74t51.5 58.5t78.5 38t109.5 13.5q42 0 82 -7t72 -28q35 -23 53.5 -66.5
t4.5 -115.5l-44 -225q-7 -32 -6 -50t9 -26l-1 -8h-181zM226 100q29 0 53.5 17.5t34.5 65.5l9 45q-28 -12 -76 -20q-13 -2 -26.5 -5t-25 -9.5t-18.5 -17.5t-7 -29q0 -26 15 -36.5t41 -10.5zM338 721h212l-150 -155h-140z" />
    <glyph glyph-name="acircumflex" unicode="&#xe2;" horiz-adv-x="542" 
d="M296 0q-4 9 -6 24t-2 32h-2q-29 -35 -65.5 -52t-71.5 -17q-75 0 -116.5 39t-41.5 105q0 85 54 124t147 44q40 2 68.5 5.5t47 10t27.5 18t9 30.5q0 16 -11 28t-37 12q-63 0 -78 -61h-177q7 40 26.5 74t51.5 58.5t78.5 38t109.5 13.5q42 0 82 -7t72 -28q35 -23 53.5 -66.5
t4.5 -115.5l-44 -225q-7 -32 -6 -50t9 -26l-1 -8h-181zM226 100q29 0 53.5 17.5t34.5 65.5l9 45q-28 -12 -76 -20q-13 -2 -26.5 -5t-25 -9.5t-18.5 -17.5t-7 -29q0 -26 15 -36.5t41 -10.5zM270 715h165l90 -149h-151l-31 63h-2l-51 -63h-162z" />
    <glyph glyph-name="atilde" unicode="&#xe3;" horiz-adv-x="542" 
d="M296 0q-4 9 -6 24t-2 32h-2q-29 -35 -65.5 -52t-71.5 -17q-75 0 -116.5 39t-41.5 105q0 85 54 124t147 44q40 2 68.5 5.5t47 10t27.5 18t9 30.5q0 16 -11 28t-37 12q-63 0 -78 -61h-177q7 40 26.5 74t51.5 58.5t78.5 38t109.5 13.5q42 0 82 -7t72 -28q35 -23 53.5 -66.5
t4.5 -115.5l-44 -225q-7 -32 -6 -50t9 -26l-1 -8h-181zM226 100q29 0 53.5 17.5t34.5 65.5l9 45q-28 -12 -76 -20q-13 -2 -26.5 -5t-25 -9.5t-18.5 -17.5t-7 -29q0 -26 15 -36.5t41 -10.5zM149 564q13 78 52 115t87 37q22 0 37.5 -6t28 -13t23.5 -13t23 -6q17 0 25.5 10.5
t13.5 27.5h94q-11 -66 -44 -106.5t-87 -40.5q-24 0 -41 6t-30 12.5t-24 12.5t-23 6q-30 0 -41 -42h-94z" />
    <glyph glyph-name="adieresis" unicode="&#xe4;" horiz-adv-x="542" 
d="M296 0q-4 9 -6 24t-2 32h-2q-29 -35 -65.5 -52t-71.5 -17q-75 0 -116.5 39t-41.5 105q0 85 54 124t147 44q40 2 68.5 5.5t47 10t27.5 18t9 30.5q0 16 -11 28t-37 12q-63 0 -78 -61h-177q7 40 26.5 74t51.5 58.5t78.5 38t109.5 13.5q42 0 82 -7t72 -28q35 -23 53.5 -66.5
t4.5 -115.5l-44 -225q-7 -32 -6 -50t9 -26l-1 -8h-181zM226 100q29 0 53.5 17.5t34.5 65.5l9 45q-28 -12 -76 -20q-13 -2 -26.5 -5t-25 -9.5t-18.5 -17.5t-7 -29q0 -26 15 -36.5t41 -10.5zM384 715h175l-27 -143h-175zM159 715h175l-27 -143h-175z" />
    <glyph glyph-name="aring" unicode="&#xe5;" horiz-adv-x="542" 
d="M296 0q-4 9 -6 24t-2 32h-2q-29 -35 -65.5 -52t-71.5 -17q-75 0 -116.5 39t-41.5 105q0 85 54 124t147 44q40 2 68.5 5.5t47 10t27.5 18t9 30.5q0 16 -11 28t-37 12q-63 0 -78 -61h-177q7 40 26.5 74t51.5 58.5t78.5 38t109.5 13.5q42 0 82 -7t72 -28q35 -23 53.5 -66.5
t4.5 -115.5l-44 -225q-7 -32 -6 -50t9 -26l-1 -8h-181zM226 100q29 0 53.5 17.5t34.5 65.5l9 45q-28 -12 -76 -20q-13 -2 -26.5 -5t-25 -9.5t-18.5 -17.5t-7 -29q0 -26 15 -36.5t41 -10.5zM327 555q-22 0 -41.5 8t-34 21.5t-23 32t-8.5 40.5t8.5 40.5t23 32.5t34 22t41.5 8
t41.5 -8t34 -22t23 -32.5t8.5 -40.5t-8.5 -40.5t-23 -32t-34 -21.5t-41.5 -8zM327 619q17 0 27.5 11.5t10.5 26.5t-10.5 27t-27.5 12t-27.5 -12t-10.5 -27t10.5 -26.5t27.5 -11.5z" />
    <glyph glyph-name="ae" unicode="&#xe6;" horiz-adv-x="863" 
d="M307 526q110 0 155 -49q59 50 151 50q44 0 79 -9.5t63 -26.5q63 -40 85 -112t8 -170h-348q0 -18 3.5 -35.5t13 -31t26 -21.5t42.5 -8q22 0 41.5 9t29.5 30h180q-13 -42 -37 -72t-57 -50q-37 -23 -78.5 -33.5t-85.5 -10.5q-66 0 -116.5 21t-81.5 64q-25 -35 -70.5 -59.5
t-123.5 -24.5q-99 0 -147 40.5t-48 106.5q0 83 54 121.5t147 43.5q40 2 68.5 5.5t47 10.5t27.5 18.5t9 29.5q0 16 -11 28t-37 12q-33 0 -51.5 -15.5t-26.5 -45.5h-177q7 40 26.5 74t51.5 58.5t78.5 38t109.5 13.5zM226 100q29 0 53.5 17.5t34.5 65.5l9 45q-28 -12 -76 -20
q-13 -2 -26.5 -5t-25 -9.5t-18.5 -17.5t-7 -29q0 -26 15 -36.5t41 -10.5zM608 401q-29 0 -55 -20.5t-40 -71.5h169q2 38 -15.5 65t-58.5 27z" />
    <glyph glyph-name="ccedilla" unicode="&#xe7;" horiz-adv-x="550" 
d="M192 -193q-36 0 -64.5 7.5t-48.5 21.5l22 37q14 -7 31.5 -11t35.5 -4q20 0 36 6.5t16 23.5q0 13 -8 17.5t-23 4.5q-16 0 -32 -7l-16 26l63 60q-41 6 -76.5 22t-62 43t-41.5 65.5t-15 90.5q0 66 21.5 123.5t61 100t95.5 67t124 24.5q50 0 92.5 -12t74 -37t49.5 -63.5
t19 -91.5h-176q-2 31 -15 52t-48 21q-30 0 -51 -18.5t-34.5 -46.5t-19.5 -60.5t-6 -60.5q0 -18 3.5 -35t11.5 -29.5t22 -20t34 -7.5q32 0 57 22t36 68h175q-9 -54 -33 -95t-59.5 -69t-80 -43t-93.5 -15h-8l-33 -27v-2q45 2 70.5 -13.5t25.5 -49.5q0 -22 -11 -38t-29 -26.5
t-42 -15.5t-50 -5z" />
    <glyph glyph-name="egrave" unicode="&#xe8;" horiz-adv-x="553" 
d="M186 209q0 -18 4.5 -35.5t14 -31t26 -21.5t42.5 -8q23 0 43 9t30 30h180q-13 -42 -37.5 -72.5t-57.5 -50.5q-37 -23 -75.5 -33t-82.5 -10q-56 0 -104.5 15t-84 45t-55.5 74t-20 101q0 65 21.5 121t60 97t92 64.5t117.5 23.5q48 0 82.5 -9.5t62.5 -26.5q63 -40 85 -112
t8 -170h-352zM141 721h203l45 -155h-140zM299 401q-29 0 -57.5 -20.5t-42.5 -71.5h173q1 19 -3 35.5t-12.5 29t-23 20t-34.5 7.5z" />
    <glyph glyph-name="eacute" unicode="&#xe9;" horiz-adv-x="553" 
d="M186 209q0 -18 4.5 -35.5t14 -31t26 -21.5t42.5 -8q23 0 43 9t30 30h180q-13 -42 -37.5 -72.5t-57.5 -50.5q-37 -23 -75.5 -33t-82.5 -10q-56 0 -104.5 15t-84 45t-55.5 74t-20 101q0 65 21.5 121t60 97t92 64.5t117.5 23.5q48 0 82.5 -9.5t62.5 -26.5q63 -40 85 -112
t8 -170h-352zM319 721h212l-150 -155h-140zM299 401q-29 0 -57.5 -20.5t-42.5 -71.5h173q1 19 -3 35.5t-12.5 29t-23 20t-34.5 7.5z" />
    <glyph glyph-name="ecircumflex" unicode="&#xea;" horiz-adv-x="553" 
d="M186 209q0 -18 4.5 -35.5t14 -31t26 -21.5t42.5 -8q23 0 43 9t30 30h180q-13 -42 -37.5 -72.5t-57.5 -50.5q-37 -23 -75.5 -33t-82.5 -10q-56 0 -104.5 15t-84 45t-55.5 74t-20 101q0 65 21.5 121t60 97t92 64.5t117.5 23.5q48 0 82.5 -9.5t62.5 -26.5q63 -40 85 -112
t8 -170h-352zM253 715h165l90 -149h-151l-31 63h-2l-51 -63h-162zM299 401q-29 0 -57.5 -20.5t-42.5 -71.5h173q1 19 -3 35.5t-12.5 29t-23 20t-34.5 7.5z" />
    <glyph glyph-name="edieresis" unicode="&#xeb;" horiz-adv-x="553" 
d="M186 209q0 -18 4.5 -35.5t14 -31t26 -21.5t42.5 -8q23 0 43 9t30 30h180q-13 -42 -37.5 -72.5t-57.5 -50.5q-37 -23 -75.5 -33t-82.5 -10q-56 0 -104.5 15t-84 45t-55.5 74t-20 101q0 65 21.5 121t60 97t92 64.5t117.5 23.5q48 0 82.5 -9.5t62.5 -26.5q63 -40 85 -112
t8 -170h-352zM142 715h175l-27 -143h-175zM367 715h175l-27 -143h-175zM299 401q-29 0 -57.5 -20.5t-42.5 -71.5h173q1 19 -3 35.5t-12.5 29t-23 20t-34.5 7.5z" />
    <glyph glyph-name="igrave" unicode="&#xec;" horiz-adv-x="253" 
d="M82 510h186l-99 -510h-186zM18 721h203l45 -155h-140z" />
    <glyph glyph-name="iacute" unicode="&#xed;" horiz-adv-x="253" 
d="M82 510h186l-99 -510h-186zM182 721h212l-150 -155h-140z" />
    <glyph glyph-name="icircumflex" unicode="&#xee;" horiz-adv-x="253" 
d="M82 510h186l-99 -510h-186zM123 715h165l90 -149h-151l-31 63h-2l-51 -63h-162z" />
    <glyph glyph-name="idieresis" unicode="&#xef;" horiz-adv-x="253" 
d="M82 510h186l-99 -510h-186zM235 715h139l-27 -143h-139zM54 715h139l-27 -143h-139z" />
    <glyph glyph-name="eth" unicode="&#xf0;" horiz-adv-x="579" 
d="M146 589l102 32q-29 26 -60 50t-60 44h222q32 -19 59 -42l104 33l17 -57l-73 -23q47 -53 78.5 -124.5t31.5 -159.5q0 -69 -18 -133.5t-55.5 -114.5t-94.5 -80t-135 -30q-59 0 -106 15.5t-80 45.5t-51 73.5t-18 100.5q0 59 16.5 112.5t48.5 94t78 64t106 23.5
q68 0 109 -38h2q-12 23 -31 48t-43 51l-131 -42zM195 207q0 -19 3 -36.5t11 -31t21.5 -21.5t33.5 -8q31 0 52 19.5t34 48.5t19 62.5t6 62.5q0 18 -3.5 34t-12 28t-22.5 19t-35 7q-30 0 -50.5 -19t-33 -47t-18 -60t-5.5 -58z" />
    <glyph glyph-name="ntilde" unicode="&#xf1;" horiz-adv-x="575" 
d="M244 430h3q29 42 71.5 69t97.5 27q39 0 69.5 -14.5t49.5 -42t24 -68.5t-5 -95l-59 -306h-186l58 297q7 34 -3.5 57t-47.5 23q-35 0 -60 -27.5t-33 -68.5l-54 -281h-186l99 510h178zM164 564q13 78 52 115t87 37q22 0 37.5 -6t28 -13t23.5 -13t23 -6q17 0 25.5 10.5
t13.5 27.5h94q-11 -66 -44 -106.5t-87 -40.5q-24 0 -41 6t-30 12.5t-24 12.5t-23 6q-30 0 -41 -42h-94z" />
    <glyph glyph-name="ograve" unicode="&#xf2;" horiz-adv-x="572" 
d="M262 -16q-47 0 -92.5 13.5t-81 41.5t-57.5 71.5t-22 103.5q0 65 21 121.5t59.5 98.5t93.5 66.5t123 24.5q49 0 95 -13.5t81.5 -42t57.5 -72.5t22 -104q0 -66 -21 -122.5t-60 -98t-94.5 -65t-124.5 -23.5zM196 207q0 -20 3.5 -37.5t11.5 -30.5t21 -21t33 -8
q31 0 51.5 19.5t33.5 48.5t18 62t5 59q0 19 -3.5 36.5t-12 31.5t-22 22.5t-33.5 8.5q-30 0 -50.5 -20.5t-33 -50.5t-17.5 -63t-5 -57zM153 721h203l45 -155h-140z" />
    <glyph glyph-name="oacute" unicode="&#xf3;" horiz-adv-x="572" 
d="M262 -16q-47 0 -92.5 13.5t-81 41.5t-57.5 71.5t-22 103.5q0 65 21 121.5t59.5 98.5t93.5 66.5t123 24.5q49 0 95 -13.5t81.5 -42t57.5 -72.5t22 -104q0 -66 -21 -122.5t-60 -98t-94.5 -65t-124.5 -23.5zM196 207q0 -20 3.5 -37.5t11.5 -30.5t21 -21t33 -8
q31 0 51.5 19.5t33.5 48.5t18 62t5 59q0 19 -3.5 36.5t-12 31.5t-22 22.5t-33.5 8.5q-30 0 -50.5 -20.5t-33 -50.5t-17.5 -63t-5 -57zM328 721h212l-150 -155h-140z" />
    <glyph glyph-name="ocircumflex" unicode="&#xf4;" horiz-adv-x="572" 
d="M262 -16q-47 0 -92.5 13.5t-81 41.5t-57.5 71.5t-22 103.5q0 65 21 121.5t59.5 98.5t93.5 66.5t123 24.5q49 0 95 -13.5t81.5 -42t57.5 -72.5t22 -104q0 -66 -21 -122.5t-60 -98t-94.5 -65t-124.5 -23.5zM196 207q0 -20 3.5 -37.5t11.5 -30.5t21 -21t33 -8
q31 0 51.5 19.5t33.5 48.5t18 62t5 59q0 19 -3.5 36.5t-12 31.5t-22 22.5t-33.5 8.5q-30 0 -50.5 -20.5t-33 -50.5t-17.5 -63t-5 -57zM266 715h165l90 -149h-151l-31 63h-2l-51 -63h-162z" />
    <glyph glyph-name="otilde" unicode="&#xf5;" horiz-adv-x="572" 
d="M262 -16q-47 0 -92.5 13.5t-81 41.5t-57.5 71.5t-22 103.5q0 65 21 121.5t59.5 98.5t93.5 66.5t123 24.5q49 0 95 -13.5t81.5 -42t57.5 -72.5t22 -104q0 -66 -21 -122.5t-60 -98t-94.5 -65t-124.5 -23.5zM196 207q0 -20 3.5 -37.5t11.5 -30.5t21 -21t33 -8
q31 0 51.5 19.5t33.5 48.5t18 62t5 59q0 19 -3.5 36.5t-12 31.5t-22 22.5t-33.5 8.5q-30 0 -50.5 -20.5t-33 -50.5t-17.5 -63t-5 -57zM144 564q13 78 52 115t87 37q22 0 37.5 -6t28 -13t23.5 -13t23 -6q17 0 25.5 10.5t13.5 27.5h94q-11 -66 -44 -106.5t-87 -40.5
q-24 0 -41 6t-30 12.5t-24 12.5t-23 6q-30 0 -41 -42h-94z" />
    <glyph glyph-name="odieresis" unicode="&#xf6;" horiz-adv-x="572" 
d="M262 -16q-47 0 -92.5 13.5t-81 41.5t-57.5 71.5t-22 103.5q0 65 21 121.5t59.5 98.5t93.5 66.5t123 24.5q49 0 95 -13.5t81.5 -42t57.5 -72.5t22 -104q0 -66 -21 -122.5t-60 -98t-94.5 -65t-124.5 -23.5zM196 207q0 -20 3.5 -37.5t11.5 -30.5t21 -21t33 -8
q31 0 51.5 19.5t33.5 48.5t18 62t5 59q0 19 -3.5 36.5t-12 31.5t-22 22.5t-33.5 8.5q-30 0 -50.5 -20.5t-33 -50.5t-17.5 -63t-5 -57zM379 715h175l-27 -143h-175zM154 715h175l-27 -143h-175z" />
    <glyph glyph-name="divide" unicode="&#xf7;" horiz-adv-x="554" 
d="M73 407h466l-30 -153h-466zM250 617h192l-32 -165h-192zM171 209h192l-32 -165h-192z" />
    <glyph glyph-name="oslash" unicode="&#xf8;" horiz-adv-x="572" 
d="M61 64q-24 27 -38 64.5t-14 85.5q0 65 21.5 122t60.5 99t94 66t123 24q41 0 79 -9.5t71 -29.5l54 58l47 -45l-51 -54q25 -28 39 -65.5t15 -86.5q0 -66 -21 -122.5t-61 -98t-95.5 -65t-124.5 -23.5q-40 0 -78.5 9.5t-70.5 28.5l-54 -57l-47 45zM265 110q31 0 52.5 20
t35 49t19 63t5.5 62v1l-164 -174q19 -21 52 -21zM302 398q-30 0 -51 -20t-34 -49.5t-19 -63.5t-6 -62l162 172q-9 11 -22 17t-30 6z" />
    <glyph glyph-name="ugrave" unicode="&#xf9;" horiz-adv-x="572" 
d="M327 81h-3q-27 -43 -66.5 -70t-96.5 -27q-40 0 -71.5 13.5t-51.5 40.5t-26.5 66.5t3.5 90.5l61 315h186l-56 -287q-3 -17 -3 -33t5 -28t16.5 -19.5t29.5 -7.5q35 0 60 22.5t33 67.5l55 285h186l-99 -510h-177zM166 721h203l45 -155h-140z" />
    <glyph glyph-name="uacute" unicode="&#xfa;" horiz-adv-x="572" 
d="M327 81h-3q-27 -43 -66.5 -70t-96.5 -27q-40 0 -71.5 13.5t-51.5 40.5t-26.5 66.5t3.5 90.5l61 315h186l-56 -287q-3 -17 -3 -33t5 -28t16.5 -19.5t29.5 -7.5q35 0 60 22.5t33 67.5l55 285h186l-99 -510h-177zM346 721h212l-150 -155h-140z" />
    <glyph glyph-name="ucircumflex" unicode="&#xfb;" horiz-adv-x="572" 
d="M327 81h-3q-27 -43 -66.5 -70t-96.5 -27q-40 0 -71.5 13.5t-51.5 40.5t-26.5 66.5t3.5 90.5l61 315h186l-56 -287q-3 -17 -3 -33t5 -28t16.5 -19.5t29.5 -7.5q35 0 60 22.5t33 67.5l55 285h186l-99 -510h-177zM284 715h165l90 -149h-151l-31 63h-2l-51 -63h-162z" />
    <glyph glyph-name="udieresis" unicode="&#xfc;" horiz-adv-x="572" 
d="M327 81h-3q-27 -43 -66.5 -70t-96.5 -27q-40 0 -71.5 13.5t-51.5 40.5t-26.5 66.5t3.5 90.5l61 315h186l-56 -287q-3 -17 -3 -33t5 -28t16.5 -19.5t29.5 -7.5q35 0 60 22.5t33 67.5l55 285h186l-99 -510h-177zM395 715h175l-27 -143h-175zM170 715h175l-27 -143h-175z
" />
    <glyph glyph-name="yacute" unicode="&#xfd;" horiz-adv-x="553" 
d="M11 -23h66q25 0 43 10t18 39q0 12 -2.5 28t-6.5 34l-82 422h194l21 -199q2 -20 3.5 -42.5t2.5 -42.5l2 -46h2q8 21 17 43q8 19 17 40.5t19 41.5l96 205h187l-275 -537q-37 -72 -89.5 -107t-128.5 -35h-132zM341 721h212l-150 -155h-140z" />
    <glyph glyph-name="thorn" unicode="&#xfe;" horiz-adv-x="594" 
d="M121 715h186l-49 -254h3q27 28 60.5 46.5t82.5 18.5q42 0 75.5 -17t56.5 -46.5t35 -70t12 -87.5q0 -59 -16 -116.5t-47.5 -103.5t-79 -74t-111.5 -28q-52 0 -90 19.5t-56 54.5h-3l-44 -226h-186zM207 219q0 -18 4 -36t13.5 -32t24.5 -22.5t37 -8.5q29 0 49 16t33 41
t18.5 55t5.5 59q0 17 -3.5 33.5t-11.5 29.5t-21.5 21t-34.5 8q-27 0 -48 -15.5t-35.5 -39.5t-22.5 -53t-8 -56z" />
    <glyph glyph-name="ydieresis" unicode="&#xff;" horiz-adv-x="553" 
d="M11 -23h66q25 0 43 10t18 39q0 12 -2.5 28t-6.5 34l-82 422h194l21 -199q2 -20 3.5 -42.5t2.5 -42.5l2 -46h2q8 21 17 43q8 19 17 40.5t19 41.5l96 205h187l-275 -537q-37 -72 -89.5 -107t-128.5 -35h-132zM387 715h175l-27 -143h-175zM162 715h175l-27 -143h-175z" />
    <glyph glyph-name="Amacron" unicode="&#x100;" horiz-adv-x="718" 
d="M445 106h-239l-53 -106h-208l389 715h209l132 -715h-215zM317 867h284l-21 -106h-284zM278 248h147l-20 143q-2 13 -3.5 29t-3.5 30q-2 17 -3 33h-2q-7 -16 -15 -33q-7 -14 -14.5 -30t-13.5 -29z" />
    <glyph glyph-name="amacron" unicode="&#x101;" horiz-adv-x="542" 
d="M296 0q-4 9 -6 24t-2 32h-2q-29 -35 -65.5 -52t-71.5 -17q-75 0 -116.5 39t-41.5 105q0 85 54 124t147 44q40 2 68.5 5.5t47 10t27.5 18t9 30.5q0 16 -11 28t-37 12q-63 0 -78 -61h-177q7 40 26.5 74t51.5 58.5t78.5 38t109.5 13.5q42 0 82 -7t72 -28q35 -23 53.5 -66.5
t4.5 -115.5l-44 -225q-7 -32 -6 -50t9 -26l-1 -8h-181zM226 100q29 0 53.5 17.5t34.5 65.5l9 45q-28 -12 -76 -20q-13 -2 -26.5 -5t-25 -9.5t-18.5 -17.5t-7 -29q0 -26 15 -36.5t41 -10.5zM205 687h284l-21 -106h-284z" />
    <glyph glyph-name="Abreve" unicode="&#x102;" horiz-adv-x="718" 
d="M445 106h-239l-53 -106h-208l389 715h209l132 -715h-215zM443 738q-77 0 -119.5 42t-44.5 116h104q2 -20 17 -33t47 -13t51 14.5t23 31.5h104q-10 -76 -61 -117t-121 -41zM278 248h147l-20 143q-2 13 -3.5 29t-3.5 30q-2 17 -3 33h-2q-7 -16 -15 -33q-7 -14 -14.5 -30
t-13.5 -29z" />
    <glyph glyph-name="abreve" unicode="&#x103;" horiz-adv-x="542" 
d="M296 0q-4 9 -6 24t-2 32h-2q-29 -35 -65.5 -52t-71.5 -17q-75 0 -116.5 39t-41.5 105q0 85 54 124t147 44q40 2 68.5 5.5t47 10t27.5 18t9 30.5q0 16 -11 28t-37 12q-63 0 -78 -61h-177q7 40 26.5 74t51.5 58.5t78.5 38t109.5 13.5q42 0 82 -7t72 -28q35 -23 53.5 -66.5
t4.5 -115.5l-44 -225q-7 -32 -6 -50t9 -26l-1 -8h-181zM226 100q29 0 53.5 17.5t34.5 65.5l9 45q-28 -12 -76 -20q-13 -2 -26.5 -5t-25 -9.5t-18.5 -17.5t-7 -29q0 -26 15 -36.5t41 -10.5zM333 558q-77 0 -122.5 41.5t-44.5 116.5h104q2 -20 17 -33t47 -13t51 14.5t23 31.5
h104q-5 -39 -20.5 -68.5t-39 -49.5t-54.5 -30t-65 -10z" />
    <glyph glyph-name="Aogonek" unicode="&#x104;" horiz-adv-x="718" 
d="M574 -179q-66 0 -94.5 23.5t-28.5 58.5t24.5 59t55.5 38h-71l-15 106h-239l-53 -106h-208l389 715h209l131 -709q-26 -13 -43 -30.5t-17 -34.5q0 -21 22 -21q8 0 18 2l-18 -92q-11 -4 -27 -6.5t-35 -2.5zM278 248h147l-20 143q-2 13 -3.5 29t-3.5 30q-2 17 -3 33h-2
q-7 -16 -15 -33q-7 -14 -14.5 -30t-13.5 -29z" />
    <glyph glyph-name="aogonek" unicode="&#x105;" horiz-adv-x="542" 
d="M296 0q-4 9 -6 24t-2 32h-2q-29 -35 -65.5 -52t-71.5 -17q-75 0 -116.5 39t-41.5 105q0 85 54 124t147 44q40 2 68.5 5.5t47 10t27.5 18t9 30.5q0 16 -11 28t-37 12q-63 0 -78 -61h-177q7 40 26.5 74t51.5 58.5t78.5 38t109.5 13.5q42 0 83 -7t73 -28q35 -23 52.5 -66.5
t3.5 -115.5l-44 -225q-7 -32 -6 -50t9 -26l-1 -8q-29 -11 -52 -28t-23 -36q0 -21 27 -21q17 0 31 7h2l-18 -92q-11 -4 -27 -6.5t-35 -2.5q-66 0 -94.5 23.5t-28.5 58.5q0 19 8 33.5t21 26.5t29.5 21t33.5 16h-55zM226 100q29 0 53.5 17.5t34.5 65.5l9 45q-28 -12 -76 -20
q-13 -2 -26.5 -5t-25 -9.5t-18.5 -17.5t-7 -29q0 -26 15 -36.5t41 -10.5z" />
    <glyph glyph-name="Cacute" unicode="&#x106;" horiz-adv-x="706" 
d="M359 -17q-74 0 -135 20t-104.5 60t-67.5 99.5t-24 138.5q0 86 27.5 163.5t78.5 136t122.5 93t160.5 34.5q69 0 119.5 -13.5t87.5 -41.5q51 -38 75.5 -94.5t27.5 -128.5h-207q-1 47 -26 77t-80 30q-47 0 -80 -22.5t-54.5 -58.5t-31.5 -80.5t-10 -89.5q0 -30 6.5 -58
t21 -49t37.5 -33.5t57 -12.5q50 0 85.5 28t48.5 85h210q-14 -73 -46.5 -126.5t-79 -88t-103 -51.5t-116.5 -17zM495 746h-140l64 135h208z" />
    <glyph glyph-name="cacute" unicode="&#x107;" horiz-adv-x="550" 
d="M269 -16q-51 0 -98 12t-83 39t-57.5 70t-21.5 105q0 66 21.5 123.5t61 100t95.5 67t124 24.5q50 0 92.5 -12t74 -37t49.5 -63.5t19 -91.5h-176q-2 31 -15 52t-48 21q-30 0 -51 -18.5t-34.5 -46.5t-19.5 -60.5t-6 -60.5q0 -18 3.5 -35t11.5 -29.5t22 -20t34 -7.5
q32 0 57 22t36 68h175q-9 -54 -33 -95t-59.5 -69t-80 -43t-93.5 -15zM336 721h212l-150 -155h-140z" />
    <glyph glyph-name="Ccircumflex" unicode="&#x108;" horiz-adv-x="706" 
d="M359 -17q-74 0 -135 20t-104.5 60t-67.5 99.5t-24 138.5q0 86 27.5 163.5t78.5 136t122.5 93t160.5 34.5q69 0 119.5 -13.5t87.5 -41.5q51 -38 75.5 -94.5t27.5 -128.5h-207q-1 47 -26 77t-80 30q-47 0 -80 -22.5t-54.5 -58.5t-31.5 -80.5t-10 -89.5q0 -30 6.5 -58
t21 -49t37.5 -33.5t57 -12.5q50 0 85.5 28t48.5 85h210q-14 -73 -46.5 -126.5t-79 -88t-103 -51.5t-116.5 -17zM369 883h165l93 -137h-149l-35 51h-2l-47 -51h-164z" />
    <glyph glyph-name="ccircumflex" unicode="&#x109;" horiz-adv-x="550" 
d="M269 -16q-51 0 -98 12t-83 39t-57.5 70t-21.5 105q0 66 21.5 123.5t61 100t95.5 67t124 24.5q50 0 92.5 -12t74 -37t49.5 -63.5t19 -91.5h-176q-2 31 -15 52t-48 21q-30 0 -51 -18.5t-34.5 -46.5t-19.5 -60.5t-6 -60.5q0 -18 3.5 -35t11.5 -29.5t22 -20t34 -7.5
q32 0 57 22t36 68h175q-9 -54 -33 -95t-59.5 -69t-80 -43t-93.5 -15zM268 715h165l90 -149h-151l-31 63h-2l-51 -63h-162z" />
    <glyph glyph-name="Cdotaccent" unicode="&#x10a;" horiz-adv-x="706" 
d="M359 -17q-74 0 -135 20t-104.5 60t-67.5 99.5t-24 138.5q0 86 27.5 163.5t78.5 136t122.5 93t160.5 34.5q69 0 119.5 -13.5t87.5 -41.5q51 -38 75.5 -94.5t27.5 -128.5h-207q-1 47 -26 77t-80 30q-47 0 -80 -22.5t-54.5 -58.5t-31.5 -80.5t-10 -89.5q0 -30 6.5 -58
t21 -49t37.5 -33.5t57 -12.5q50 0 85.5 28t48.5 85h210q-14 -73 -46.5 -126.5t-79 -88t-103 -51.5t-116.5 -17zM369 895h186l-27 -143h-186z" />
    <glyph glyph-name="cdotaccent" unicode="&#x10b;" horiz-adv-x="550" 
d="M269 -16q-51 0 -98 12t-83 39t-57.5 70t-21.5 105q0 66 21.5 123.5t61 100t95.5 67t124 24.5q50 0 92.5 -12t74 -37t49.5 -63.5t19 -91.5h-176q-2 31 -15 52t-48 21q-30 0 -51 -18.5t-34.5 -46.5t-19.5 -60.5t-6 -60.5q0 -18 3.5 -35t11.5 -29.5t22 -20t34 -7.5
q32 0 57 22t36 68h175q-9 -54 -33 -95t-59.5 -69t-80 -43t-93.5 -15zM261 715h186l-27 -143h-186z" />
    <glyph glyph-name="Ccaron" unicode="&#x10c;" horiz-adv-x="706" 
d="M359 -17q-74 0 -135 20t-104.5 60t-67.5 99.5t-24 138.5q0 86 27.5 163.5t78.5 136t122.5 93t160.5 34.5q69 0 119.5 -13.5t87.5 -41.5q51 -38 75.5 -94.5t27.5 -128.5h-207q-1 47 -26 77t-80 30q-47 0 -80 -22.5t-54.5 -58.5t-31.5 -80.5t-10 -89.5q0 -30 6.5 -58
t21 -49t37.5 -33.5t57 -12.5q50 0 85.5 28t48.5 85h210q-14 -73 -46.5 -126.5t-79 -88t-103 -51.5t-116.5 -17zM518 746h-165l-93 137h149l35 -51h2l47 51h164z" />
    <glyph glyph-name="ccaron" unicode="&#x10d;" horiz-adv-x="550" 
d="M269 -16q-51 0 -98 12t-83 39t-57.5 70t-21.5 105q0 66 21.5 123.5t61 100t95.5 67t124 24.5q50 0 92.5 -12t74 -37t49.5 -63.5t19 -91.5h-176q-2 31 -15 52t-48 21q-30 0 -51 -18.5t-34.5 -46.5t-19.5 -60.5t-6 -60.5q0 -18 3.5 -35t11.5 -29.5t22 -20t34 -7.5
q32 0 57 22t36 68h175q-9 -54 -33 -95t-59.5 -69t-80 -43t-93.5 -15zM405 566h-165l-90 149h151l31 -63h2l51 63h162z" />
    <glyph glyph-name="Dcaron" unicode="&#x10e;" horiz-adv-x="725" 
d="M130 715h284q70 0 127.5 -21t99 -60.5t64 -96.5t22.5 -129q0 -91 -26.5 -166t-77 -129t-123.5 -83.5t-165 -29.5h-343zM333 171q43 0 77 16.5t58 46t36.5 70.5t12.5 89q0 75 -35.5 113t-103.5 38h-75l-72 -373h102zM496 746h-165l-93 137h149l35 -51h2l47 51h164z" />
    <glyph glyph-name="dcaron" unicode="&#x10f;" horiz-adv-x="601" 
d="M202 -17q-44 0 -79.5 15.5t-61 45t-39 70.5t-13.5 92q0 59 17 116.5t50 102.5t81.5 73t113.5 28q52 0 86.5 -20.5t57.5 -57.5h3l52 267h186l-138 -715h-177l11 61h-2q-23 -32 -62 -55t-86 -23zM203 222q0 -18 3.5 -35.5t12.5 -31.5t23 -22.5t35 -8.5q28 0 49 15.5t35 40
t21 53.5t7 56q0 18 -4 36.5t-13 33.5t-23.5 24t-35.5 9q-29 0 -49.5 -16.5t-34 -41.5t-20 -55t-6.5 -57zM655 576q29 2 43 11t18 27h-53l19 101h124l-16 -83q-10 -51 -43 -77.5t-101 -28.5z" />
    <glyph glyph-name="Dcroat" unicode="&#x110;" horiz-adv-x="718" 
d="M48 289h-45l29 153h45l53 273h284q70 0 127.5 -21t99 -60.5t64 -96.5t22.5 -129q0 -91 -26.5 -166t-77 -129t-123.5 -83.5t-165 -29.5h-343zM333 171q43 0 77 16.5t58 46t36.5 70.5t12.5 89q0 75 -35.5 113t-103.5 38h-75l-20 -102h141l-29 -153h-141l-23 -118h102z" />
    <glyph glyph-name="dcroat" unicode="&#x111;" horiz-adv-x="601" 
d="M202 -17q-44 0 -79.5 15.5t-61 45t-39 70.5t-13.5 92q0 59 17 116.5t50 102.5t81.5 73t113.5 28q52 0 86.5 -20.5t57.5 -57.5h3l22 115h-106l16 83h106l14 69h186l-14 -69h50l-16 -83h-50l-108 -563h-177l11 61h-2q-23 -32 -62 -55t-86 -23zM203 222q0 -18 3.5 -35.5
t12.5 -31.5t23 -22.5t35 -8.5q28 0 49 15.5t35 40t21 53.5t7 56q0 18 -4 36.5t-13 33.5t-23.5 24t-35.5 9q-29 0 -49.5 -16.5t-34 -41.5t-20 -55t-6.5 -57z" />
    <glyph glyph-name="Emacron" unicode="&#x112;" horiz-adv-x="627" 
d="M130 715h540l-33 -168h-334l-18 -100h280l-30 -155h-281l-22 -115h348l-34 -177h-554zM291 867h284l-21 -106h-284z" />
    <glyph glyph-name="emacron" unicode="&#x113;" horiz-adv-x="553" 
d="M186 209q0 -18 4.5 -35.5t14 -31t26 -21.5t42.5 -8q23 0 43 9t30 30h180q-13 -42 -37.5 -72.5t-57.5 -50.5q-37 -23 -75.5 -33t-82.5 -10q-56 0 -104.5 15t-84 45t-55.5 74t-20 101q0 65 21.5 121t60 97t92 64.5t117.5 23.5q48 0 82.5 -9.5t62.5 -26.5q63 -40 85 -112
t8 -170h-352zM194 687h284l-21 -106h-284zM299 401q-29 0 -57.5 -20.5t-42.5 -71.5h173q1 19 -3 35.5t-12.5 29t-23 20t-34.5 7.5z" />
    <glyph glyph-name="Ebreve" unicode="&#x114;" horiz-adv-x="623" 
d="M130 715h540l-33 -168h-334l-18 -100h280l-30 -155h-281l-22 -115h348l-34 -177h-554zM414 738q-77 0 -119.5 42t-44.5 116h104q2 -20 17 -33t47 -13t51 14.5t23 31.5h104q-10 -76 -61 -117t-121 -41z" />
    <glyph glyph-name="ebreve" unicode="&#x115;" horiz-adv-x="553" 
d="M186 209q0 -18 4.5 -35.5t14 -31t26 -21.5t42.5 -8q23 0 43 9t30 30h180q-13 -42 -37.5 -72.5t-57.5 -50.5q-37 -23 -75.5 -33t-82.5 -10q-56 0 -104.5 15t-84 45t-55.5 74t-20 101q0 65 21.5 121t60 97t92 64.5t117.5 23.5q48 0 82.5 -9.5t62.5 -26.5q63 -40 85 -112
t8 -170h-352zM327 558q-77 0 -122.5 41.5t-44.5 116.5h104q2 -20 17 -33t47 -13t51 14.5t23 31.5h104q-5 -39 -20.5 -68.5t-39 -49.5t-54.5 -30t-65 -10zM299 401q-29 0 -57.5 -20.5t-42.5 -71.5h173q1 19 -3 35.5t-12.5 29t-23 20t-34.5 7.5z" />
    <glyph glyph-name="Edotaccent" unicode="&#x116;" horiz-adv-x="623" 
d="M130 715h540l-33 -168h-334l-18 -100h280l-30 -155h-281l-22 -115h348l-34 -177h-554zM352 895h186l-27 -143h-186z" />
    <glyph glyph-name="edotaccent" unicode="&#x117;" horiz-adv-x="553" 
d="M186 209q0 -18 4.5 -35.5t14 -31t26 -21.5t42.5 -8q23 0 43 9t30 30h180q-13 -42 -37.5 -72.5t-57.5 -50.5q-37 -23 -75.5 -33t-82.5 -10q-56 0 -104.5 15t-84 45t-55.5 74t-20 101q0 65 21.5 121t60 97t92 64.5t117.5 23.5q48 0 82.5 -9.5t62.5 -26.5q63 -40 85 -112
t8 -170h-352zM263 715h186l-27 -143h-186zM299 401q-29 0 -57.5 -20.5t-42.5 -71.5h173q1 19 -3 35.5t-12.5 29t-23 20t-34.5 7.5z" />
    <glyph glyph-name="Eogonek" unicode="&#x118;" horiz-adv-x="623" 
d="M130 715h540l-33 -168h-334l-18 -100h280l-30 -155h-281l-22 -115h348l-34 -177h-36q-16 -11 -31.5 -26.5t-15.5 -32.5q0 -21 22 -21q8 0 18 2l-18 -92q-11 -4 -27 -6.5t-35 -2.5q-66 0 -94.5 23.5t-28.5 58.5t24.5 59t55.5 38h-388z" />
    <glyph glyph-name="eogonek" unicode="&#x119;" horiz-adv-x="553" 
d="M241 -13q-52 4 -95 20.5t-73.5 46t-47 71.5t-16.5 96q0 65 21.5 121t60 97t92 64.5t117.5 23.5q48 0 82.5 -9.5t62.5 -26.5q63 -40 85 -112t8 -170h-352q0 -18 4.5 -35.5t14 -31t26 -21.5t42.5 -8q23 0 43 9t30 30h180q-14 -43 -38 -72t-56 -50q-9 -6 -27.5 -16t-37 -23
t-32.5 -27t-14 -28q0 -21 27 -21q17 0 31 7h2l-18 -92q-11 -4 -27 -6.5t-35 -2.5q-66 0 -94.5 23.5t-28.5 58.5q0 30 18.5 50t44.5 34zM299 401q-29 0 -57.5 -20.5t-42.5 -71.5h173q1 19 -3 35.5t-12.5 29t-23 20t-34.5 7.5z" />
    <glyph glyph-name="Ecaron" unicode="&#x11a;" horiz-adv-x="623" 
d="M130 715h540l-33 -168h-334l-18 -100h280l-30 -155h-281l-22 -115h348l-34 -177h-554zM492 746h-165l-93 137h149l35 -51h2l47 51h164z" />
    <glyph glyph-name="ecaron" unicode="&#x11b;" horiz-adv-x="553" 
d="M186 209q0 -18 4.5 -35.5t14 -31t26 -21.5t42.5 -8q23 0 43 9t30 30h180q-13 -42 -37.5 -72.5t-57.5 -50.5q-37 -23 -75.5 -33t-82.5 -10q-56 0 -104.5 15t-84 45t-55.5 74t-20 101q0 65 21.5 121t60 97t92 64.5t117.5 23.5q48 0 82.5 -9.5t62.5 -26.5q63 -40 85 -112
t8 -170h-352zM394 566h-165l-90 149h151l31 -63h2l51 63h162zM299 401q-29 0 -57.5 -20.5t-42.5 -71.5h173q1 19 -3 35.5t-12.5 29t-23 20t-34.5 7.5z" />
    <glyph glyph-name="Gcircumflex" unicode="&#x11c;" horiz-adv-x="728" 
d="M512 71h-2q-29 -39 -80.5 -63.5t-109.5 -24.5q-81 0 -141.5 30t-99.5 87q-26 38 -39.5 86t-13.5 110q0 82 27.5 160t79 138.5t126.5 97t170 36.5q59 0 112.5 -14.5t94 -45.5t65 -79.5t25.5 -116.5h-202q-5 40 -30.5 62.5t-69.5 22.5q-47 0 -82 -22t-58 -57.5t-34.5 -81
t-11.5 -93.5q0 -33 7 -61t23 -48.5t41.5 -31.5t61.5 -11q53 0 84.5 23.5t44.5 65.5h-94l29 148h291l-75 -388h-137zM370 883h165l93 -137h-149l-35 51h-2l-47 -51h-164z" />
    <glyph glyph-name="gcircumflex" unicode="&#x11d;" horiz-adv-x="573" 
d="M219 -178q-44 0 -85.5 9.5t-75 30t-55.5 52.5t-27 77h178q5 -22 23.5 -33t47.5 -11q40 0 59.5 22t27.5 60l10 52h-4q-22 -24 -53 -39.5t-69 -16.5q-39 0 -72.5 14.5t-59 41.5t-40 64t-14.5 82q0 53 16.5 106.5t47.5 96t76 69.5t102 27q46 0 83 -18t62 -61h3l12 63h177
l-92 -470q-13 -67 -38.5 -108.5t-64.5 -67.5q-35 -23 -79.5 -32.5t-95.5 -9.5zM193 245q0 -17 4 -33.5t12 -29t21.5 -20t33.5 -7.5q26 0 45.5 13t33 34t20.5 47t7 52q0 17 -4 33.5t-12 29t-22 20.5t-33 8q-27 0 -46.5 -13.5t-33 -34.5t-20 -47.5t-6.5 -51.5zM287 715h165
l90 -149h-151l-31 63h-2l-51 -63h-162z" />
    <glyph glyph-name="Gbreve" unicode="&#x11e;" horiz-adv-x="728" 
d="M512 71h-2q-29 -39 -80.5 -63.5t-109.5 -24.5q-81 0 -141.5 30t-99.5 87q-26 38 -39.5 86t-13.5 110q0 82 27.5 160t79 138.5t126.5 97t170 36.5q59 0 112.5 -14.5t94 -45.5t65 -79.5t25.5 -116.5h-202q-5 40 -30.5 62.5t-69.5 22.5q-47 0 -82 -22t-58 -57.5t-34.5 -81
t-11.5 -93.5q0 -33 7 -61t23 -48.5t41.5 -31.5t61.5 -11q53 0 84.5 23.5t44.5 65.5h-94l29 148h291l-75 -388h-137zM442 738q-77 0 -119.5 42t-44.5 116h104q2 -20 17 -33t47 -13t51 14.5t23 31.5h104q-10 -76 -61 -117t-121 -41z" />
    <glyph glyph-name="gbreve" unicode="&#x11f;" horiz-adv-x="573" 
d="M219 -178q-44 0 -85.5 9.5t-75 30t-55.5 52.5t-27 77h178q5 -22 23.5 -33t47.5 -11q40 0 59.5 22t27.5 60l10 52h-4q-22 -24 -53 -39.5t-69 -16.5q-39 0 -72.5 14.5t-59 41.5t-40 64t-14.5 82q0 53 16.5 106.5t47.5 96t76 69.5t102 27q46 0 83 -18t62 -61h3l12 63h177
l-92 -470q-13 -67 -38.5 -108.5t-64.5 -67.5q-35 -23 -79.5 -32.5t-95.5 -9.5zM193 245q0 -17 4 -33.5t12 -29t21.5 -20t33.5 -7.5q26 0 45.5 13t33 34t20.5 47t7 52q0 17 -4 33.5t-12 29t-22 20.5t-33 8q-27 0 -46.5 -13.5t-33 -34.5t-20 -47.5t-6.5 -51.5zM351 558
q-77 0 -122.5 41.5t-44.5 116.5h104q2 -20 17 -33t47 -13t51 14.5t23 31.5h104q-5 -39 -20.5 -68.5t-39 -49.5t-54.5 -30t-65 -10z" />
    <glyph glyph-name="Gdotaccent" unicode="&#x120;" horiz-adv-x="728" 
d="M512 71h-2q-29 -39 -80.5 -63.5t-109.5 -24.5q-81 0 -141.5 30t-99.5 87q-26 38 -39.5 86t-13.5 110q0 82 27.5 160t79 138.5t126.5 97t170 36.5q59 0 112.5 -14.5t94 -45.5t65 -79.5t25.5 -116.5h-202q-5 40 -30.5 62.5t-69.5 22.5q-47 0 -82 -22t-58 -57.5t-34.5 -81
t-11.5 -93.5q0 -33 7 -61t23 -48.5t41.5 -31.5t61.5 -11q53 0 84.5 23.5t44.5 65.5h-94l29 148h291l-75 -388h-137zM362 895h186l-27 -143h-186z" />
    <glyph glyph-name="gdotaccent" unicode="&#x121;" horiz-adv-x="573" 
d="M219 -178q-44 0 -85.5 9.5t-75 30t-55.5 52.5t-27 77h178q5 -22 23.5 -33t47.5 -11q40 0 59.5 22t27.5 60l10 52h-4q-22 -24 -53 -39.5t-69 -16.5q-39 0 -72.5 14.5t-59 41.5t-40 64t-14.5 82q0 53 16.5 106.5t47.5 96t76 69.5t102 27q46 0 83 -18t62 -61h3l12 63h177
l-92 -470q-13 -67 -38.5 -108.5t-64.5 -67.5q-35 -23 -79.5 -32.5t-95.5 -9.5zM193 245q0 -17 4 -33.5t12 -29t21.5 -20t33.5 -7.5q26 0 45.5 13t33 34t20.5 47t7 52q0 17 -4 33.5t-12 29t-22 20.5t-33 8q-27 0 -46.5 -13.5t-33 -34.5t-20 -47.5t-6.5 -51.5zM279 715h186
l-27 -143h-186z" />
    <glyph glyph-name="Gcommaaccent" unicode="&#x122;" horiz-adv-x="728" 
d="M512 71h-2q-29 -39 -80.5 -63.5t-109.5 -24.5q-81 0 -141.5 30t-99.5 87q-26 38 -39.5 86t-13.5 110q0 82 27.5 160t79 138.5t126.5 97t170 36.5q59 0 112.5 -14.5t94 -45.5t65 -79.5t25.5 -116.5h-202q-5 40 -30.5 62.5t-69.5 22.5q-47 0 -82 -22t-58 -57.5t-34.5 -81
t-11.5 -93.5q0 -33 7 -61t23 -48.5t41.5 -31.5t61.5 -11q53 0 84.5 23.5t44.5 65.5h-94l29 148h291l-75 -388h-137zM213 -210q34 5 55 16.5t26 39.5h-66l21 109h149l-18 -93q-13 -66 -59.5 -93.5t-118.5 -31.5z" />
    <glyph glyph-name="gcommaaccent" unicode="&#x123;" horiz-adv-x="573" 
d="M219 -178q-44 0 -85.5 9.5t-75 30t-55.5 52.5t-27 77h178q5 -22 23.5 -33t47.5 -11q40 0 59.5 22t27.5 60l10 52h-4q-22 -24 -53 -39.5t-69 -16.5q-39 0 -72.5 14.5t-59 41.5t-40 64t-14.5 82q0 53 16.5 106.5t47.5 96t76 69.5t102 27q46 0 83 -18t62 -61h3l12 63h177
l-92 -470q-13 -67 -38.5 -108.5t-64.5 -67.5q-35 -23 -79.5 -32.5t-95.5 -9.5zM193 245q0 -17 4 -33.5t12 -29t21.5 -20t33.5 -7.5q26 0 45.5 13t33 34t20.5 47t7 52q0 17 -4 33.5t-12 29t-22 20.5t-33 8q-27 0 -46.5 -13.5t-33 -34.5t-20 -47.5t-6.5 -51.5zM453 737
q-34 -5 -55 -16.5t-26 -39.5h66l-21 -109h-149l18 93q13 66 59.5 93.5t118.5 31.5z" />
    <glyph glyph-name="Hcircumflex" unicode="&#x124;" horiz-adv-x="707" 
d="M285 452h211l51 263h206l-138 -715h-206l54 281h-211l-54 -281h-206l138 715h206zM371 883h165l93 -137h-149l-35 51h-2l-47 -51h-164z" />
    <glyph glyph-name="hcircumflex" unicode="&#x125;" horiz-adv-x="575" 
d="M253 442h3q27 35 66 59.5t94 24.5q39 0 69.5 -14.5t49.5 -42t24 -68.5t-5 -95l-59 -306h-186l58 297q7 34 -3.5 57t-47.5 23q-35 0 -60 -27.5t-33 -68.5l-54 -281h-186l138 715h185zM308 883h165l93 -137h-149l-35 51h-2l-47 -51h-164z" />
    <glyph glyph-name="Hbar" unicode="&#x126;" horiz-adv-x="707" 
d="M463 281h-211l-54 -281h-206l102 530h-48l16 85h49l19 100h206l-20 -100h211l20 100h206l-19 -100h49l-16 -85h-50l-102 -530h-206zM285 452h211l15 78h-211z" />
    <glyph glyph-name="hbar" unicode="&#x127;" horiz-adv-x="575" 
d="M292 646h111l-16 -83h-111l-23 -121h3q27 35 66 59.5t94 24.5q39 0 69.5 -14.5t49.5 -42t24 -68.5t-5 -95l-59 -306h-186l58 297q7 34 -3.5 57t-47.5 23q-35 0 -60 -27.5t-33 -68.5l-54 -281h-186l108 563h-47l16 83h47l14 69h185z" />
    <glyph glyph-name="Itilde" unicode="&#x128;" horiz-adv-x="290" 
d="M130 715h206l-138 -715h-206zM50 744q13 78 52 115t87 37q22 0 38.5 -6t30 -13t25.5 -13t24 -6q17 0 25.5 10.5t13.5 27.5h94q-11 -66 -44 -106.5t-87 -40.5q-24 0 -41.5 6t-32 12.5t-26.5 12.5t-24 6q-30 0 -41 -42h-94z" />
    <glyph glyph-name="itilde" unicode="&#x129;" horiz-adv-x="253" 
d="M82 510h186l-99 -510h-186zM1 564q13 78 52 115t87 37q22 0 37.5 -6t28 -13t23.5 -13t23 -6q17 0 25.5 10.5t13.5 27.5h94q-11 -66 -44 -106.5t-87 -40.5q-24 0 -41 6t-30 12.5t-24 12.5t-23 6q-30 0 -41 -42h-94z" />
    <glyph glyph-name="Imacron" unicode="&#x12a;" horiz-adv-x="290" 
d="M130 715h206l-138 -715h-206zM116 867h284l-21 -106h-284z" />
    <glyph glyph-name="imacron" unicode="&#x12b;" horiz-adv-x="253" 
d="M82 510h186l-99 -510h-186zM73 687h274l-21 -106h-274z" />
    <glyph glyph-name="Ibreve" unicode="&#x12c;" horiz-adv-x="290" 
d="M130 715h206l-138 -715h-206zM249 738q-77 0 -119.5 42t-44.5 116h104q2 -20 17 -33t47 -13t51 14.5t23 31.5h104q-10 -76 -61 -117t-121 -41z" />
    <glyph glyph-name="ibreve" unicode="&#x12d;" horiz-adv-x="253" 
d="M82 510h186l-99 -510h-186zM196 558q-77 0 -122.5 41.5t-44.5 116.5h104q2 -20 17 -33t47 -13t51 14.5t23 31.5h104q-5 -39 -20.5 -68.5t-39 -49.5t-54.5 -30t-65 -10z" />
    <glyph glyph-name="Iogonek" unicode="&#x12e;" horiz-adv-x="290" 
d="M130 715h206l-138 -711q-23 -12 -40 -29t-17 -34q0 -21 22 -21q8 0 18 2l-18 -92q-11 -4 -27 -6.5t-35 -2.5q-66 0 -94.5 23.5t-28.5 58.5t24.5 59t55.5 38h-66z" />
    <glyph glyph-name="iogonek" unicode="&#x12f;" horiz-adv-x="253" 
d="M82 510h186l-98 -505q-31 -15 -54 -32.5t-23 -36.5q0 -21 27 -21q17 0 31 7h2l-18 -92q-11 -4 -27 -6.5t-35 -2.5q-66 0 -94.5 23.5t-28.5 58.5q0 19 8 33.5t21 26.5t29.5 21t33.5 16h-59zM121 715h186l-27 -143h-186z" />
    <glyph glyph-name="Idotaccent" unicode="&#x130;" horiz-adv-x="290" 
d="M130 715h206l-138 -715h-206zM174 895h186l-27 -143h-186z" />
    <glyph glyph-name="dotlessi" unicode="&#x131;" horiz-adv-x="253" 
d="M82 510h186l-99 -510h-186z" />
    <glyph glyph-name="IJ" unicode="&#x132;" horiz-adv-x="841" 
d="M130 715h206l-138 -715h-206zM517 -13q-59 0 -107.5 15.5t-81.5 48t-46 82t1 117.5l8 40h190l-10 -53q-7 -35 5 -56t50 -21q30 0 45 17.5t21 47.5l95 490h205l-99 -512q-9 -48 -25.5 -83.5t-47.5 -63.5q-35 -32 -84.5 -50.5t-118.5 -18.5z" />
    <glyph glyph-name="ij" unicode="&#x133;" horiz-adv-x="506" 
d="M82 510h186l-99 -510h-186zM121 715h186l-27 -143h-186zM210 -174q-29 0 -51 2.5t-39 7.5l25 129q21 -1 36.5 -1t26.5 4t18 14t11 29l98 499h186l-101 -517q-8 -44 -26 -76t-41 -51q-29 -23 -66.5 -31.5t-76.5 -8.5zM374 715h186l-27 -143h-186z" />
    <glyph glyph-name="Jcircumflex" unicode="&#x134;" horiz-adv-x="562" 
d="M237 -13q-59 0 -107.5 15.5t-81.5 48t-46 82t1 117.5l8 40h190l-10 -53q-7 -35 5 -56t50 -21q30 0 45 17.5t21 47.5l95 490h205l-99 -512q-9 -48 -25.5 -83.5t-47.5 -63.5q-35 -32 -84.5 -50.5t-118.5 -18.5zM447 883h165l93 -137h-149l-35 51h-2l-47 -51h-164z" />
    <glyph glyph-name="jcircumflex" unicode="&#x135;" horiz-adv-x="253" 
d="M-43 -174q-29 0 -51 2.5t-39 7.5l25 129q21 -1 36.5 -1t26.5 4t18 14t11 29l98 499h186l-101 -517q-8 -44 -26 -76t-41 -51q-29 -23 -66.5 -31.5t-76.5 -8.5zM120 715h165l90 -149h-151l-31 63h-2l-51 -63h-162z" />
    <glyph glyph-name="Kcommaaccent" unicode="&#x136;" horiz-adv-x="702" 
d="M306 283l-65 -61l-43 -222h-206l138 715h206l-47 -243l253 243h239l-316 -294l194 -421h-227zM190 -210q34 5 55 16.5t26 39.5h-66l21 109h149l-18 -93q-13 -66 -59.5 -93.5t-118.5 -31.5z" />
    <glyph glyph-name="kcommaaccent" unicode="&#x137;" horiz-adv-x="557" 
d="M234 352l150 158h208l-202 -191l123 -319h-202l-66 186l-53 -49l-26 -137h-183l138 715h183zM117 -210q34 5 55 16.5t26 39.5h-66l21 109h149l-18 -93q-13 -66 -59.5 -93.5t-118.5 -31.5z" />
    <glyph glyph-name="kgreenlandic" unicode="&#x138;" horiz-adv-x="557" 
d="M234 352l150 158h208l-202 -191l123 -319h-202l-66 186l-53 -49l-26 -137h-183l99 510h183z" />
    <glyph glyph-name="Lacute" unicode="&#x139;" horiz-adv-x="556" 
d="M130 715h206l-104 -538h296l-34 -177h-502zM297 746h-140l64 135h208z" />
    <glyph glyph-name="lacute" unicode="&#x13a;" horiz-adv-x="258" 
d="M121 715h191l-138 -715h-191zM282 746h-140l64 135h208z" />
    <glyph glyph-name="Lcommaaccent" unicode="&#x13b;" horiz-adv-x="561" 
d="M130 715h206l-104 -538h296l-34 -177h-502zM138 -210q34 5 55 16.5t26 39.5h-66l21 109h149l-18 -93q-13 -66 -59.5 -93.5t-118.5 -31.5z" />
    <glyph glyph-name="lcommaaccent" unicode="&#x13c;" horiz-adv-x="258" 
d="M121 715h191l-138 -715h-191zM-42 -210q34 5 55 16.5t26 39.5h-66l21 109h149l-18 -93q-13 -66 -59.5 -93.5t-118.5 -31.5z" />
    <glyph glyph-name="Lcaron" unicode="&#x13d;" horiz-adv-x="556" 
d="M130 715h206l-104 -538h296l-34 -177h-502zM397 561q32 2 47 12t20 30h-59l21 112h137l-17 -92q-11 -56 -48 -85.5t-111 -31.5z" />
    <glyph glyph-name="lcaron" unicode="&#x13e;" horiz-adv-x="258" 
d="M121 715h191l-138 -715h-191zM312 576q29 2 43 11t18 27h-53l19 101h124l-16 -83q-10 -51 -43 -77.5t-101 -28.5z" />
    <glyph glyph-name="Ldot" unicode="&#x13f;" horiz-adv-x="561" 
d="M130 715h206l-104 -538h296l-34 -177h-502zM390 487h191l-37 -191h-191z" />
    <glyph glyph-name="ldot" unicode="&#x140;" horiz-adv-x="428" 
d="M121 715h191l-138 -715h-191zM299 481h172l-36 -185h-172z" />
    <glyph glyph-name="Lslash" unicode="&#x141;" horiz-adv-x="571" 
d="M42 207l-61 -26l27 143l61 27l71 364h206l-52 -266l200 87l-28 -143l-199 -87l-25 -129h296l-34 -177h-502z" />
    <glyph glyph-name="lslash" unicode="&#x142;" horiz-adv-x="297" 
d="M259 338l-65 -338h-191l40 211l-53 -32l27 137l53 31l71 368h191l-46 -239l59 35l-26 -137z" />
    <glyph glyph-name="Nacute" unicode="&#x143;" horiz-adv-x="713" 
d="M130 715h207l141 -410h2l80 410h199l-138 -715h-214l-134 413h-2l-80 -413h-199zM518 746h-140l64 135h208z" />
    <glyph glyph-name="nacute" unicode="&#x144;" horiz-adv-x="575" 
d="M244 430h3q29 42 71.5 69t97.5 27q39 0 69.5 -14.5t49.5 -42t24 -68.5t-5 -95l-59 -306h-186l58 297q7 34 -3.5 57t-47.5 23q-35 0 -60 -27.5t-33 -68.5l-54 -281h-186l99 510h178zM351 721h212l-150 -155h-140z" />
    <glyph glyph-name="Ncommaaccent" unicode="&#x145;" horiz-adv-x="713" 
d="M130 715h207l141 -410h2l80 410h199l-138 -715h-214l-134 413h-2l-80 -413h-199zM190 -210q34 5 55 16.5t26 39.5h-66l21 109h149l-18 -93q-13 -66 -59.5 -93.5t-118.5 -31.5z" />
    <glyph glyph-name="ncommaaccent" unicode="&#x146;" horiz-adv-x="575" 
d="M244 430h3q29 42 71.5 69t97.5 27q39 0 69.5 -14.5t49.5 -42t24 -68.5t-5 -95l-59 -306h-186l58 297q7 34 -3.5 57t-47.5 23q-35 0 -60 -27.5t-33 -68.5l-54 -281h-186l99 510h178zM125 -210q34 5 55 16.5t26 39.5h-66l21 109h149l-18 -93q-13 -66 -59.5 -93.5
t-118.5 -31.5z" />
    <glyph glyph-name="Ncaron" unicode="&#x147;" horiz-adv-x="713" 
d="M130 715h207l141 -410h2l80 410h199l-138 -715h-214l-134 413h-2l-80 -413h-199zM539 746h-165l-93 137h149l35 -51h2l47 51h164z" />
    <glyph glyph-name="ncaron" unicode="&#x148;" horiz-adv-x="575" 
d="M244 430h3q29 42 71.5 69t97.5 27q39 0 69.5 -14.5t49.5 -42t24 -68.5t-5 -95l-59 -306h-186l58 297q7 34 -3.5 57t-47.5 23q-35 0 -60 -27.5t-33 -68.5l-54 -281h-186l99 510h178zM425 566h-165l-90 149h151l31 -63h2l51 63h162z" />
    <glyph glyph-name="napostrophe" unicode="&#x149;" horiz-adv-x="575" 
d="M20 567q30 2 45 13t19 28h-56l20 107h132l-18 -95q-10 -50 -46.5 -77t-106.5 -29zM244 430h3q29 42 71.5 69t97.5 27q39 0 69.5 -14.5t49.5 -42t24 -68.5t-5 -95l-59 -306h-186l58 297q7 34 -3.5 57t-47.5 23q-35 0 -60 -27.5t-33 -68.5l-54 -281h-186l99 510h178z" />
    <glyph glyph-name="Eng" unicode="&#x14a;" horiz-adv-x="713" 
d="M371 -178q-28 0 -51.5 3t-44.5 8l31 160q16 -3 26.5 -4t22.5 -1q35 0 53 12l-135 413h-2l-80 -413h-199l138 715h207l141 -410h2l80 410h199l-130 -677q-11 -56 -29 -97t-48 -67.5t-74 -39t-107 -12.5z" />
    <glyph glyph-name="eng" unicode="&#x14b;" horiz-adv-x="575" 
d="M367 297q7 34 -3.5 57t-47.5 23q-35 0 -60 -27.5t-33 -68.5l-54 -281h-186l99 510h178l-16 -80h3q29 42 71.5 69t97.5 27q39 0 69.5 -14.5t49.5 -42t24 -68.5t-5 -95l-61 -313q-8 -44 -26 -76t-41 -51q-29 -23 -66.5 -31.5t-76.5 -8.5q-29 0 -51 2.5t-39 7.5l25 129
q21 -1 36.5 -1t27 4t18.5 14t11 29z" />
    <glyph glyph-name="Omacron" unicode="&#x14c;" horiz-adv-x="740" 
d="M362 -17q-70 0 -131 19.5t-106 58.5t-71 98.5t-25 139.5q1 87 29.5 165t80 136.5t123.5 93t161 34.5q74 0 134 -21t103 -62t66 -101.5t23 -139.5q0 -86 -28 -162.5t-78.5 -133.5t-122 -91t-158.5 -34zM236 299q0 -30 7 -57.5t23 -48t40 -32.5t59 -12q46 0 79.5 23.5
t55 60.5t32 82.5t10.5 89.5q0 33 -6.5 61.5t-21.5 50t-39 33.5t-59 12q-47 0 -81 -25t-56 -63.5t-32.5 -85t-10.5 -89.5zM317 867h284l-21 -106h-284z" />
    <glyph glyph-name="omacron" unicode="&#x14d;" horiz-adv-x="572" 
d="M262 -16q-47 0 -92.5 13.5t-81 41.5t-57.5 71.5t-22 103.5q0 65 21 121.5t59.5 98.5t93.5 66.5t123 24.5q49 0 95 -13.5t81.5 -42t57.5 -72.5t22 -104q0 -66 -21 -122.5t-60 -98t-94.5 -65t-124.5 -23.5zM196 207q0 -20 3.5 -37.5t11.5 -30.5t21 -21t33 -8
q31 0 51.5 19.5t33.5 48.5t18 62t5 59q0 19 -3.5 36.5t-12 31.5t-22 22.5t-33.5 8.5q-30 0 -50.5 -20.5t-33 -50.5t-17.5 -63t-5 -57zM203 687h284l-21 -106h-284z" />
    <glyph glyph-name="Obreve" unicode="&#x14e;" horiz-adv-x="740" 
d="M362 -17q-70 0 -131 19.5t-106 58.5t-71 98.5t-25 139.5q1 87 29.5 165t80 136.5t123.5 93t161 34.5q74 0 134 -21t103 -62t66 -101.5t23 -139.5q0 -86 -28 -162.5t-78.5 -133.5t-122 -91t-158.5 -34zM236 299q0 -30 7 -57.5t23 -48t40 -32.5t59 -12q46 0 79.5 23.5
t55 60.5t32 82.5t10.5 89.5q0 33 -6.5 61.5t-21.5 50t-39 33.5t-59 12q-47 0 -81 -25t-56 -63.5t-32.5 -85t-10.5 -89.5zM453 738q-77 0 -119.5 42t-44.5 116h104q2 -20 17 -33t47 -13t51 14.5t23 31.5h104q-10 -76 -61 -117t-121 -41z" />
    <glyph glyph-name="obreve" unicode="&#x14f;" horiz-adv-x="572" 
d="M262 -16q-47 0 -92.5 13.5t-81 41.5t-57.5 71.5t-22 103.5q0 65 21 121.5t59.5 98.5t93.5 66.5t123 24.5q49 0 95 -13.5t81.5 -42t57.5 -72.5t22 -104q0 -66 -21 -122.5t-60 -98t-94.5 -65t-124.5 -23.5zM196 207q0 -20 3.5 -37.5t11.5 -30.5t21 -21t33 -8
q31 0 51.5 19.5t33.5 48.5t18 62t5 59q0 19 -3.5 36.5t-12 31.5t-22 22.5t-33.5 8.5q-30 0 -50.5 -20.5t-33 -50.5t-17.5 -63t-5 -57zM338 558q-77 0 -122.5 41.5t-44.5 116.5h104q2 -20 17 -33t47 -13t51 14.5t23 31.5h104q-5 -39 -20.5 -68.5t-39 -49.5t-54.5 -30t-65 -10
z" />
    <glyph glyph-name="Ohungarumlaut" unicode="&#x150;" horiz-adv-x="740" 
d="M362 -17q-70 0 -131 19.5t-106 58.5t-71 98.5t-25 139.5q1 87 29.5 165t80 136.5t123.5 93t161 34.5q74 0 134 -21t103 -62t66 -101.5t23 -139.5q0 -86 -28 -162.5t-78.5 -133.5t-122 -91t-158.5 -34zM236 299q0 -30 7 -57.5t23 -48t40 -32.5t59 -12q46 0 79.5 23.5
t55 60.5t32 82.5t10.5 89.5q0 33 -6.5 61.5t-21.5 50t-39 33.5t-59 12q-47 0 -81 -25t-56 -63.5t-32.5 -85t-10.5 -89.5zM550 901h184l-134 -155h-117zM337 901h184l-134 -155h-117z" />
    <glyph glyph-name="ohungarumlaut" unicode="&#x151;" horiz-adv-x="572" 
d="M262 -16q-47 0 -92.5 13.5t-81 41.5t-57.5 71.5t-22 103.5q0 65 21 121.5t59.5 98.5t93.5 66.5t123 24.5q49 0 95 -13.5t81.5 -42t57.5 -72.5t22 -104q0 -66 -21 -122.5t-60 -98t-94.5 -65t-124.5 -23.5zM196 207q0 -20 3.5 -37.5t11.5 -30.5t21 -21t33 -8
q31 0 51.5 19.5t33.5 48.5t18 62t5 59q0 19 -3.5 36.5t-12 31.5t-22 22.5t-33.5 8.5q-30 0 -50.5 -20.5t-33 -50.5t-17.5 -63t-5 -57zM438 721h184l-138 -155h-117zM225 721h184l-138 -155h-117z" />
    <glyph glyph-name="OE" unicode="&#x152;" horiz-adv-x="1083" 
d="M326 -17q-61 0 -115.5 19.5t-95 58.5t-64 98.5t-22.5 139.5q1 87 28.5 165t78 136.5t122 93t158.5 34.5q118 0 179 -70l11 57h524l-33 -168h-318l-18 -100h264l-30 -155h-265l-22 -115h332l-34 -177h-496l10 52q-39 -32 -87.5 -50.5t-106.5 -18.5zM236 299
q0 -30 6.5 -57.5t21.5 -48t38.5 -32.5t58.5 -12q46 0 79 23.5t54.5 60.5t31.5 82.5t10 89.5q0 33 -6.5 62t-21 50t-38 33t-58.5 12q-46 0 -79 -25t-54.5 -63.5t-32 -85t-10.5 -89.5z" />
    <glyph glyph-name="oe" unicode="&#x153;" horiz-adv-x="904" 
d="M255 -16q-47 0 -91.5 13t-79 40.5t-55 70.5t-20.5 103q0 65 20.5 122.5t58.5 100t92.5 67t122.5 24.5q57 0 102 -15.5t74 -48.5q35 31 79.5 48.5t98.5 17.5q44 0 77.5 -9.5t61.5 -26.5q63 -40 85 -112t8 -170h-347q0 -18 4 -35.5t13 -31t25 -21.5t42 -8q23 0 42 9t29 30
h180q-13 -42 -37 -72t-57 -50q-37 -23 -76 -33.5t-86 -10.5q-56 0 -102 16.5t-78 49.5q-35 -32 -81 -50t-105 -18zM196 199q0 -17 3.5 -32.5t11.5 -28.5t21 -20.5t33 -7.5q31 0 51 20t31.5 49t16 63t4.5 62q0 17 -2.5 33.5t-10 30t-20.5 22t-33 8.5q-30 0 -50.5 -21
t-33 -51.5t-17.5 -65t-5 -61.5zM649 401q-29 0 -54.5 -20.5t-39.5 -71.5h168q2 38 -15.5 65t-58.5 27z" />
    <glyph glyph-name="Racute" unicode="&#x154;" horiz-adv-x="680" 
d="M246 250l-48 -250h-206l138 715h303q52 0 98.5 -11.5t81 -35t54.5 -60t20 -85.5q0 -80 -37 -125.5t-107 -69.5v-3q40 -17 60.5 -52.5t20.5 -93.5q0 -24 -1 -57.5t0 -61.5q0 -39 14 -49v-11h-208q-5 7 -6.5 19.5t-1.5 26.5q0 21 1.5 51t1.5 59q0 45 -18.5 69.5t-69.5 24.5
h-90zM275 397h110q39 0 67.5 20.5t28.5 66.5q0 32 -19.5 50.5t-60.5 18.5h-96zM467 746h-140l64 135h208z" />
    <glyph glyph-name="racute" unicode="&#x155;" horiz-adv-x="404" 
d="M243 425h3q33 51 72.5 73.5t87.5 22.5q25 0 35 -5l-31 -161h-4q-85 14 -132.5 -23t-66.5 -134l-38 -198h-186l99 510h178zM282 721h212l-150 -155h-140z" />
    <glyph glyph-name="Rcommaaccent" unicode="&#x156;" horiz-adv-x="680" 
d="M246 250l-48 -250h-206l138 715h303q52 0 98.5 -11.5t81 -35t54.5 -60t20 -85.5q0 -80 -37 -125.5t-107 -69.5v-3q40 -17 60.5 -52.5t20.5 -93.5q0 -24 -1 -57.5t0 -61.5q0 -39 14 -49v-11h-208q-5 7 -6.5 19.5t-1.5 26.5q0 21 1.5 51t1.5 59q0 45 -18.5 69.5t-69.5 24.5
h-90zM275 397h110q39 0 67.5 20.5t28.5 66.5q0 32 -19.5 50.5t-60.5 18.5h-96zM191 -210q34 5 55 16.5t26 39.5h-66l21 109h149l-18 -93q-13 -66 -59.5 -93.5t-118.5 -31.5z" />
    <glyph glyph-name="rcommaaccent" unicode="&#x157;" horiz-adv-x="404" 
d="M243 425h3q33 51 72.5 73.5t87.5 22.5q25 0 35 -5l-31 -161h-4q-85 14 -132.5 -23t-66.5 -134l-38 -198h-186l99 510h178zM-46 -210q34 5 55 16.5t26 39.5h-66l21 109h149l-18 -93q-13 -66 -59.5 -93.5t-118.5 -31.5z" />
    <glyph glyph-name="Rcaron" unicode="&#x158;" horiz-adv-x="680" 
d="M246 250l-48 -250h-206l138 715h303q52 0 98.5 -11.5t81 -35t54.5 -60t20 -85.5q0 -80 -37 -125.5t-107 -69.5v-3q40 -17 60.5 -52.5t20.5 -93.5q0 -24 -1 -57.5t0 -61.5q0 -39 14 -49v-11h-208q-5 7 -6.5 19.5t-1.5 26.5q0 21 1.5 51t1.5 59q0 45 -18.5 69.5t-69.5 24.5
h-90zM275 397h110q39 0 67.5 20.5t28.5 66.5q0 32 -19.5 50.5t-60.5 18.5h-96zM486 746h-165l-93 137h149l35 -51h2l47 51h164z" />
    <glyph glyph-name="rcaron" unicode="&#x159;" horiz-adv-x="404" 
d="M243 425h3q33 51 72.5 73.5t87.5 22.5q25 0 35 -5l-31 -161h-4q-85 14 -132.5 -23t-66.5 -134l-38 -198h-186l99 510h178zM359 566h-165l-90 149h151l31 -63h2l51 63h162z" />
    <glyph glyph-name="Sacute" unicode="&#x15a;" horiz-adv-x="642" 
d="M310 -17q-56 0 -113 11t-103 38.5t-74.5 75t-27.5 120.5h211q1 -42 32 -63.5t81 -21.5q18 0 34.5 2.5t29.5 9.5t21 19t8 30q0 13 -9.5 23t-26 18.5t-40 16.5t-51.5 18q-48 17 -88 35.5t-68.5 43t-44 57t-15.5 77.5q0 59 22 103t61 73.5t91 44t112 14.5q50 0 101.5 -10
t93.5 -34.5t67.5 -67t22.5 -106.5h-203q-2 32 -25.5 48.5t-62.5 16.5q-14 0 -28.5 -3t-26 -9t-18.5 -16t-7 -23q0 -15 9 -24.5t28.5 -17.5t49.5 -17.5t73 -24.5q38 -13 73.5 -29.5t62.5 -40t43.5 -56.5t16.5 -79q0 -65 -26.5 -112.5t-70 -78.5t-99.5 -46t-116 -15zM445 746
h-140l64 135h208z" />
    <glyph glyph-name="sacute" unicode="&#x15b;" horiz-adv-x="510" 
d="M234 -17q-44 0 -88 8t-79 28.5t-57 55.5t-22 90h176q1 -30 17.5 -48.5t58.5 -18.5q26 0 42.5 9.5t16.5 32.5q0 13 -8.5 21.5t-23 14.5t-34.5 10.5t-43 10.5q-35 9 -64 20.5t-50 29t-32.5 41.5t-11.5 59q0 44 18.5 77.5t51 56t76.5 34t95 11.5q42 0 82 -7.5t72 -25.5
t51.5 -48.5t21.5 -76.5h-171q-2 25 -19.5 35.5t-44.5 10.5q-22 0 -40 -8.5t-18 -26.5q0 -19 22.5 -29.5t72.5 -21.5q32 -8 63.5 -18.5t56 -27.5t40 -43t15.5 -64q0 -96 -66 -144t-177 -48zM288 721h212l-150 -155h-140z" />
    <glyph glyph-name="Scircumflex" unicode="&#x15c;" horiz-adv-x="642" 
d="M310 -17q-56 0 -113 11t-103 38.5t-74.5 75t-27.5 120.5h211q1 -42 32 -63.5t81 -21.5q18 0 34.5 2.5t29.5 9.5t21 19t8 30q0 13 -9.5 23t-26 18.5t-40 16.5t-51.5 18q-48 17 -88 35.5t-68.5 43t-44 57t-15.5 77.5q0 59 22 103t61 73.5t91 44t112 14.5q50 0 101.5 -10
t93.5 -34.5t67.5 -67t22.5 -106.5h-203q-2 32 -25.5 48.5t-62.5 16.5q-14 0 -28.5 -3t-26 -9t-18.5 -16t-7 -23q0 -15 9 -24.5t28.5 -17.5t49.5 -17.5t73 -24.5q38 -13 73.5 -29.5t62.5 -40t43.5 -56.5t16.5 -79q0 -65 -26.5 -112.5t-70 -78.5t-99.5 -46t-116 -15zM312 883
h165l93 -137h-149l-35 51h-2l-47 -51h-164z" />
    <glyph glyph-name="scircumflex" unicode="&#x15d;" horiz-adv-x="510" 
d="M234 -17q-44 0 -88 8t-79 28.5t-57 55.5t-22 90h176q1 -30 17.5 -48.5t58.5 -18.5q26 0 42.5 9.5t16.5 32.5q0 13 -8.5 21.5t-23 14.5t-34.5 10.5t-43 10.5q-35 9 -64 20.5t-50 29t-32.5 41.5t-11.5 59q0 44 18.5 77.5t51 56t76.5 34t95 11.5q42 0 82 -7.5t72 -25.5
t51.5 -48.5t21.5 -76.5h-171q-2 25 -19.5 35.5t-44.5 10.5q-22 0 -40 -8.5t-18 -26.5q0 -19 22.5 -29.5t72.5 -21.5q32 -8 63.5 -18.5t56 -27.5t40 -43t15.5 -64q0 -96 -66 -144t-177 -48zM230 715h165l90 -149h-151l-31 63h-2l-51 -63h-162z" />
    <glyph glyph-name="Scedilla" unicode="&#x15e;" horiz-adv-x="642" 
d="M253 -193q-36 0 -64.5 7.5t-48.5 21.5l22 37q14 -7 31.5 -11t35.5 -4q20 0 36 6.5t16 23.5q0 13 -8 17.5t-23 4.5q-16 0 -32 -7l-16 26l58 56q-50 4 -98.5 18t-86.5 42.5t-61 73t-22 109.5h211q1 -42 32 -63.5t81 -21.5q18 0 34.5 2.5t29.5 9.5t21 19t8 30q0 13 -9.5 23
t-26 18.5t-40 16.5t-51.5 18q-48 17 -88 35.5t-68.5 43t-44 57t-15.5 77.5q0 59 22 103t61 73.5t91 44t112 14.5q50 0 101.5 -10t93.5 -34.5t67.5 -67t22.5 -106.5h-203q-2 32 -25.5 48.5t-62.5 16.5q-14 0 -28.5 -3t-26 -9t-18.5 -16t-7 -23q0 -15 9 -24.5t28.5 -17.5
t49.5 -17.5t73 -24.5q38 -13 73.5 -29.5t62.5 -40t43.5 -56.5t16.5 -79q0 -63 -25 -110t-67 -78t-96.5 -47t-112.5 -17l-32 -26v-2q45 2 70.5 -13.5t25.5 -49.5q0 -22 -11 -38t-29 -26.5t-42 -15.5t-50 -5z" />
    <glyph glyph-name="scedilla" unicode="&#x15f;" horiz-adv-x="510" 
d="M165 -193q-36 0 -64.5 7.5t-48.5 21.5l22 37q14 -7 31.5 -11t35.5 -4q20 0 36 6.5t16 23.5q0 13 -8 17.5t-23 4.5q-16 0 -32 -7l-16 26l60 58q-36 4 -70 15.5t-60 32.5t-41 53t-15 77h176q1 -30 17.5 -48.5t58.5 -18.5q26 0 42.5 9.5t16.5 32.5q0 13 -8.5 21.5t-23 14.5
t-34.5 10.5t-43 10.5q-35 9 -64 20.5t-50 29t-32.5 41.5t-11.5 59q0 44 18.5 77.5t51 56t76.5 34t95 11.5q42 0 82 -7.5t72 -25.5t51.5 -48.5t21.5 -76.5h-171q-2 25 -19.5 35.5t-44.5 10.5q-22 0 -40 -8.5t-18 -26.5q0 -19 22.5 -29.5t72.5 -21.5q32 -8 63.5 -18.5
t56 -27.5t40 -43t15.5 -64q0 -96 -66 -144t-178 -48l-32 -26v-2q45 2 70.5 -13.5t25.5 -49.5q0 -22 -11 -38t-29 -26.5t-42 -15.5t-50 -5z" />
    <glyph glyph-name="Scaron" unicode="&#x160;" horiz-adv-x="642" 
d="M310 -17q-56 0 -113 11t-103 38.5t-74.5 75t-27.5 120.5h211q1 -42 32 -63.5t81 -21.5q18 0 34.5 2.5t29.5 9.5t21 19t8 30q0 13 -9.5 23t-26 18.5t-40 16.5t-51.5 18q-48 17 -88 35.5t-68.5 43t-44 57t-15.5 77.5q0 59 22 103t61 73.5t91 44t112 14.5q50 0 101.5 -10
t93.5 -34.5t67.5 -67t22.5 -106.5h-203q-2 32 -25.5 48.5t-62.5 16.5q-14 0 -28.5 -3t-26 -9t-18.5 -16t-7 -23q0 -15 9 -24.5t28.5 -17.5t49.5 -17.5t73 -24.5q38 -13 73.5 -29.5t62.5 -40t43.5 -56.5t16.5 -79q0 -65 -26.5 -112.5t-70 -78.5t-99.5 -46t-116 -15zM458 746
h-165l-93 137h149l35 -51h2l47 51h164z" />
    <glyph glyph-name="scaron" unicode="&#x161;" horiz-adv-x="510" 
d="M234 -17q-44 0 -88 8t-79 28.5t-57 55.5t-22 90h176q1 -30 17.5 -48.5t58.5 -18.5q26 0 42.5 9.5t16.5 32.5q0 13 -8.5 21.5t-23 14.5t-34.5 10.5t-43 10.5q-35 9 -64 20.5t-50 29t-32.5 41.5t-11.5 59q0 44 18.5 77.5t51 56t76.5 34t95 11.5q42 0 82 -7.5t72 -25.5
t51.5 -48.5t21.5 -76.5h-171q-2 25 -19.5 35.5t-44.5 10.5q-22 0 -40 -8.5t-18 -26.5q0 -19 22.5 -29.5t72.5 -21.5q32 -8 63.5 -18.5t56 -27.5t40 -43t15.5 -64q0 -96 -66 -144t-177 -48zM367 566h-165l-90 149h151l31 -63h2l51 63h162z" />
    <glyph glyph-name="uni0162" unicode="&#x162;" horiz-adv-x="630" 
d="M103 715h600l-34 -176h-199l-104 -539h-205l104 539h-196zM144 -210q34 5 55 16.5t26 39.5h-66l21 109h149l-18 -93q-13 -66 -59.5 -93.5t-118.5 -31.5z" />
    <glyph glyph-name="uni0163" unicode="&#x163;" horiz-adv-x="364" 
d="M56 510h65l32 165h182l-32 -165h95l-23 -113h-95l-40 -211q-5 -30 5 -41.5t42 -11.5q8 0 18 0.5t18 1.5l-26 -132q-17 -5 -39.5 -9t-53.5 -4q-94 0 -131 43t-20 128l45 236h-65zM27 -210q34 5 55 16.5t26 39.5h-66l21 109h149l-18 -93q-13 -66 -59.5 -93.5t-118.5 -31.5z
" />
    <glyph glyph-name="Tcaron" unicode="&#x164;" horiz-adv-x="630" 
d="M103 715h600l-34 -176h-199l-104 -539h-205l104 539h-196zM480 746h-165l-93 137h149l35 -51h2l47 51h164z" />
    <glyph glyph-name="tcaron" unicode="&#x165;" horiz-adv-x="364" 
d="M56 510h65l32 165h182l-32 -165h95l-23 -113h-95l-40 -211q-5 -30 5 -41.5t42 -11.5q8 0 18 0.5t18 1.5l-26 -132q-17 -5 -39.5 -9t-53.5 -4q-94 0 -131 43t-20 128l45 236h-65zM343 576q29 2 43 11t18 27h-53l19 101h124l-16 -83q-10 -51 -43 -77.5t-101 -28.5z" />
    <glyph glyph-name="Tbar" unicode="&#x166;" horiz-adv-x="630" 
d="M103 715h600l-34 -176h-199l-28 -142h126l-24 -122h-125l-53 -275h-205l53 275h-122l24 122h121l28 142h-196z" />
    <glyph glyph-name="tbar" unicode="&#x167;" horiz-adv-x="364" 
d="M56 510h65l32 165h182l-32 -165h95l-23 -113h-95l-10 -49h96l-16 -83h-95l-15 -79q-5 -30 5 -41.5t42 -11.5q8 0 18 0.5t18 1.5l-26 -132q-17 -5 -39.5 -9t-53.5 -4q-94 0 -131 43t-20 128l20 104h-65l16 83h64l10 49h-65z" />
    <glyph glyph-name="Utilde" unicode="&#x168;" horiz-adv-x="703" 
d="M338 -13q-72 0 -133 17t-102 54t-58 96t-1 142l81 419h206l-86 -444q-11 -55 14.5 -86.5t86.5 -31.5q93 0 113 104l89 458h205l-89 -463q-25 -130 -104.5 -197.5t-221.5 -67.5zM259 744q13 78 52 115t87 37q22 0 38.5 -6t30 -13t25.5 -13t24 -6q17 0 25.5 10.5t13.5 27.5
h94q-11 -66 -44 -106.5t-87 -40.5q-24 0 -41.5 6t-32 12.5t-26.5 12.5t-24 6q-30 0 -41 -42h-94z" />
    <glyph glyph-name="utilde" unicode="&#x169;" horiz-adv-x="572" 
d="M327 81h-3q-27 -43 -66.5 -70t-96.5 -27q-40 0 -71.5 13.5t-51.5 40.5t-26.5 66.5t3.5 90.5l61 315h186l-56 -287q-3 -17 -3 -33t5 -28t16.5 -19.5t29.5 -7.5q35 0 60 22.5t33 67.5l55 285h186l-99 -510h-177zM166 564q13 78 52 115t87 37q22 0 37.5 -6t28 -13t23.5 -13
t23 -6q17 0 25.5 10.5t13.5 27.5h94q-11 -66 -44 -106.5t-87 -40.5q-24 0 -41 6t-30 12.5t-24 12.5t-23 6q-30 0 -41 -42h-94z" />
    <glyph glyph-name="Umacron" unicode="&#x16a;" horiz-adv-x="703" 
d="M338 -13q-72 0 -133 17t-102 54t-58 96t-1 142l81 419h206l-86 -444q-11 -55 14.5 -86.5t86.5 -31.5q93 0 113 104l89 458h205l-89 -463q-25 -130 -104.5 -197.5t-221.5 -67.5zM319 867h284l-21 -106h-284z" />
    <glyph glyph-name="umacron" unicode="&#x16b;" horiz-adv-x="572" 
d="M327 81h-3q-27 -43 -66.5 -70t-96.5 -27q-40 0 -71.5 13.5t-51.5 40.5t-26.5 66.5t3.5 90.5l61 315h186l-56 -287q-3 -17 -3 -33t5 -28t16.5 -19.5t29.5 -7.5q35 0 60 22.5t33 67.5l55 285h186l-99 -510h-177zM222 687h284l-21 -106h-284z" />
    <glyph glyph-name="Ubreve" unicode="&#x16c;" horiz-adv-x="703" 
d="M338 -13q-72 0 -133 17t-102 54t-58 96t-1 142l81 419h206l-86 -444q-11 -55 14.5 -86.5t86.5 -31.5q93 0 113 104l89 458h205l-89 -463q-25 -130 -104.5 -197.5t-221.5 -67.5zM440 738q-77 0 -119.5 42t-44.5 116h104q2 -20 17 -33t47 -13t51 14.5t23 31.5h104
q-10 -76 -61 -117t-121 -41z" />
    <glyph glyph-name="ubreve" unicode="&#x16d;" horiz-adv-x="572" 
d="M327 81h-3q-27 -43 -66.5 -70t-96.5 -27q-40 0 -71.5 13.5t-51.5 40.5t-26.5 66.5t3.5 90.5l61 315h186l-56 -287q-3 -17 -3 -33t5 -28t16.5 -19.5t29.5 -7.5q35 0 60 22.5t33 67.5l55 285h186l-99 -510h-177zM351 558q-77 0 -122.5 41.5t-44.5 116.5h104q2 -20 17 -33
t47 -13t51 14.5t23 31.5h104q-5 -39 -20.5 -68.5t-39 -49.5t-54.5 -30t-65 -10z" />
    <glyph glyph-name="Uring" unicode="&#x16e;" horiz-adv-x="703" 
d="M338 -13q-72 0 -133 17t-102 54t-58 96t-1 142l81 419h206l-86 -444q-11 -55 14.5 -86.5t86.5 -31.5q93 0 113 104l89 458h205l-89 -463q-25 -130 -104.5 -197.5t-221.5 -67.5zM445 735q-22 0 -41.5 8t-34 21.5t-23 32t-8.5 40.5t8.5 40.5t23 32.5t34 22t41.5 8t41.5 -8
t34 -22t23 -32.5t8.5 -40.5t-8.5 -40.5t-23 -32t-34 -21.5t-41.5 -8zM445 799q17 0 27.5 11.5t10.5 26.5t-10.5 27t-27.5 12t-27.5 -12t-10.5 -27t10.5 -26.5t27.5 -11.5z" />
    <glyph glyph-name="uring" unicode="&#x16f;" horiz-adv-x="572" 
d="M327 81h-3q-27 -43 -66.5 -70t-96.5 -27q-40 0 -71.5 13.5t-51.5 40.5t-26.5 66.5t3.5 90.5l61 315h186l-56 -287q-3 -17 -3 -33t5 -28t16.5 -19.5t29.5 -7.5q35 0 60 22.5t33 67.5l55 285h186l-99 -510h-177zM344 555q-22 0 -41.5 8t-34 21.5t-23 32t-8.5 40.5t8.5 40.5
t23 32.5t34 22t41.5 8t41.5 -8t34 -22t23 -32.5t8.5 -40.5t-8.5 -40.5t-23 -32t-34 -21.5t-41.5 -8zM344 619q17 0 27.5 11.5t10.5 26.5t-10.5 27t-27.5 12t-27.5 -12t-10.5 -27t10.5 -26.5t27.5 -11.5z" />
    <glyph glyph-name="Uhungarumlaut" unicode="&#x170;" horiz-adv-x="703" 
d="M338 -13q-72 0 -133 17t-102 54t-58 96t-1 142l81 419h206l-86 -444q-11 -55 14.5 -86.5t86.5 -31.5q93 0 113 104l89 458h205l-89 -463q-25 -130 -104.5 -197.5t-221.5 -67.5zM548 901h184l-134 -155h-117zM335 901h184l-134 -155h-117z" />
    <glyph glyph-name="uhungarumlaut" unicode="&#x171;" horiz-adv-x="572" 
d="M327 81h-3q-27 -43 -66.5 -70t-96.5 -27q-40 0 -71.5 13.5t-51.5 40.5t-26.5 66.5t3.5 90.5l61 315h186l-56 -287q-3 -17 -3 -33t5 -28t16.5 -19.5t29.5 -7.5q35 0 60 22.5t33 67.5l55 285h186l-99 -510h-177zM454 721h184l-138 -155h-117zM241 721h184l-138 -155h-117z
" />
    <glyph glyph-name="Uogonek" unicode="&#x172;" horiz-adv-x="703" 
d="M318 -179q-66 0 -94.5 23.5t-28.5 58.5q0 32 21.5 53t50.5 35q-58 7 -105.5 28.5t-78.5 58.5t-42 91t3 127l81 419h206l-86 -444q-11 -55 14.5 -86.5t86.5 -31.5q93 0 113 104l89 458h205l-89 -463q-38 -199 -205 -249q-13 -4 -30.5 -8.5t-33 -11.5t-26.5 -17t-11 -25
q0 -21 22 -21q8 0 18 2l-18 -92q-11 -4 -27 -6.5t-35 -2.5z" />
    <glyph glyph-name="uogonek" unicode="&#x173;" horiz-adv-x="572" 
d="M326 75h-3q-26 -38 -67.5 -64.5t-98.5 -26.5q-39 0 -69.5 13.5t-50 40.5t-26 66.5t3.5 90.5l61 315h186l-56 -287q-3 -17 -3 -32t5.5 -26.5t17 -18.5t29.5 -7q35 0 59.5 22t32.5 64l55 285h186l-98 -505q-30 -12 -54.5 -31t-24.5 -38q0 -21 27 -21q17 0 31 7h2l-18 -92
q-11 -4 -27 -6.5t-35 -2.5q-66 0 -94.5 23.5t-28.5 58.5q0 19 8 33.5t21 26.5t29.5 21t33.5 16h-48z" />
    <glyph glyph-name="Wcircumflex" unicode="&#x174;" horiz-adv-x="950" 
d="M85 715h204l7 -245q1 -29 1 -64.5t-1 -66.5l-2 -72h2q11 33 23 66q11 29 23.5 62.5t24.5 64.5l98 255h186l10 -253q1 -32 1.5 -66t0.5 -63q0 -33 -1 -66h2q13 36 25 72q11 31 23.5 67t23.5 66l90 243h212l-306 -715h-208l-10 303q-1 23 -1 48.5v46.5v48h-2
q-7 -23 -15 -48q-7 -21 -16 -46.5t-17 -48.5l-114 -303h-211zM497 883h165l93 -137h-149l-35 51h-2l-47 -51h-164z" />
    <glyph glyph-name="wcircumflex" unicode="&#x175;" horiz-adv-x="809" 
d="M45 510h189l11 -185q1 -16 1.5 -34.5t1.5 -35.5q1 -19 1 -39h2q7 21 15 41q6 17 13.5 36.5t14.5 35.5l79 181h157l8 -181q1 -17 1.5 -37t1.5 -37q1 -20 1 -41h2l16 40q7 17 14.5 36t14.5 35l82 185h191l-251 -510h-178l-15 214q-2 16 -2 33.5t-1 32.5q-1 18 -1 34h-2
q-6 -17 -12 -35q-5 -15 -12 -32.5l-13 -32.5l-92 -214h-177zM392 715h165l90 -149h-151l-31 63h-2l-51 -63h-162z" />
    <glyph glyph-name="Ycircumflex" unicode="&#x176;" horiz-adv-x="673" 
d="M232 253l-151 462h220l42 -159q6 -21 10.5 -41.5t7.5 -37.5q4 -19 7 -37h2q11 18 22 37q10 17 22.5 37.5t26.5 41.5l103 159h222l-329 -470l-47 -245h-206zM355 883h165l93 -137h-149l-35 51h-2l-47 -51h-164z" />
    <glyph glyph-name="ycircumflex" unicode="&#x177;" horiz-adv-x="553" 
d="M11 -23h66q25 0 43 10t18 39q0 12 -2.5 28t-6.5 34l-82 422h194l21 -199q2 -20 3.5 -42.5t2.5 -42.5l2 -46h2q8 21 17 43q8 19 17 40.5t19 41.5l96 205h187l-275 -537q-37 -72 -89.5 -107t-128.5 -35h-132zM274 715h165l90 -149h-151l-31 63h-2l-51 -63h-162z" />
    <glyph glyph-name="Ydieresis" unicode="&#x178;" horiz-adv-x="673" 
d="M232 253l-151 462h220l42 -159q6 -21 10.5 -41.5t7.5 -37.5q4 -19 7 -37h2q11 18 22 37q10 17 22.5 37.5t26.5 41.5l103 159h222l-329 -470l-47 -245h-206zM474 895h175l-27 -143h-175zM249 895h175l-27 -143h-175z" />
    <glyph glyph-name="Zacute" unicode="&#x179;" horiz-adv-x="652" 
d="M3 169l324 313q11 11 22.5 21.5t21.5 18.5q11 10 23 19v3l-22 -2t-24 -1h-27h-220l33 174h567l-29 -154l-322 -311q-15 -14 -30.5 -27.5t-28.5 -24.5q-15 -12 -28 -23v-3q13 0 27 1q12 0 27 0.5t32 0.5h266l-33 -174h-611zM488 746h-140l64 135h208z" />
    <glyph glyph-name="zacute" unicode="&#x17a;" horiz-adv-x="505" 
d="M-6 134l212 190q11 9 21 17.5t18 15.5q10 8 19 14v3q-12 -1 -24 -1q-11 -1 -23 -1h-24h-135l26 137h434l-24 -127l-199 -181q-14 -13 -27.5 -24t-24.5 -19q-13 -10 -25 -19v-3q11 0 24 1q11 0 26 0.5t32 0.5h163l-26 -138h-468zM307 721h212l-150 -155h-140z" />
    <glyph glyph-name="Zdotaccent" unicode="&#x17b;" horiz-adv-x="652" 
d="M3 169l324 313q11 11 22.5 21.5t21.5 18.5q11 10 23 19v3l-22 -2t-24 -1h-27h-220l33 174h567l-29 -154l-322 -311q-15 -14 -30.5 -27.5t-28.5 -24.5q-15 -12 -28 -23v-3q13 0 27 1q12 0 27 0.5t32 0.5h266l-33 -174h-611zM361 895h186l-27 -143h-186z" />
    <glyph glyph-name="zdotaccent" unicode="&#x17c;" horiz-adv-x="505" 
d="M-6 134l212 190q11 9 21 17.5t18 15.5q10 8 19 14v3q-12 -1 -24 -1q-11 -1 -23 -1h-24h-135l26 137h434l-24 -127l-199 -181q-14 -13 -27.5 -24t-24.5 -19q-13 -10 -25 -19v-3q11 0 24 1q11 0 26 0.5t32 0.5h163l-26 -138h-468zM246 715h186l-27 -143h-186z" />
    <glyph glyph-name="Zcaron" unicode="&#x17d;" horiz-adv-x="652" 
d="M3 169l324 313q11 11 22.5 21.5t21.5 18.5q11 10 23 19v3l-22 -2t-24 -1h-27h-220l33 174h567l-29 -154l-322 -311q-15 -14 -30.5 -27.5t-28.5 -24.5q-15 -12 -28 -23v-3q13 0 27 1q12 0 27 0.5t32 0.5h266l-33 -174h-611zM510 746h-165l-93 137h149l35 -51h2l47 51h164z
" />
    <glyph glyph-name="zcaron" unicode="&#x17e;" horiz-adv-x="505" 
d="M-6 134l212 190q11 9 21 17.5t18 15.5q10 8 19 14v3q-12 -1 -24 -1q-11 -1 -23 -1h-24h-135l26 137h434l-24 -127l-199 -181q-14 -13 -27.5 -24t-24.5 -19q-13 -10 -25 -19v-3q11 0 24 1q11 0 26 0.5t32 0.5h163l-26 -138h-468zM392 566h-165l-90 149h151l31 -63h2l51 63
h162z" />
    <glyph glyph-name="florin" unicode="&#x192;" horiz-adv-x="444" 
d="M65 420h77l26 116q8 42 25 72t46 52q22 16 50 24.5t59.5 11t63.5 1t61 -5.5l-25 -129q-22 1 -37.5 1.5t-26.5 -4t-18 -15t-12 -30.5l-20 -94h100l-22 -114h-103l-66 -309q-9 -43 -23.5 -72.5t-42.5 -51.5q-21 -16 -48 -23t-56.5 -8.5t-59 1.5t-54.5 6l23 118q18 -1 30 0
t20 6t13.5 16t9.5 30l62 287h-74z" />
    <glyph glyph-name="AEacute" unicode="&#x1fc;" horiz-adv-x="1001" 
d="M399 100h-200l-51 -100h-203l378 715h725l-33 -168h-324l-18 -100h270l-30 -155h-271l-22 -115h338l-34 -177h-544zM270 238h156l59 307h-57zM740 746h-140l64 135h208z" />
    <glyph glyph-name="aeacute" unicode="&#x1fd;" horiz-adv-x="863" 
d="M307 526q110 0 155 -49q59 50 151 50q44 0 79 -9.5t63 -26.5q63 -40 85 -112t8 -170h-348q0 -18 3.5 -35.5t13 -31t26 -21.5t42.5 -8q22 0 41.5 9t29.5 30h180q-13 -42 -37 -72t-57 -50q-37 -23 -78.5 -33.5t-85.5 -10.5q-66 0 -116.5 21t-81.5 64q-25 -35 -70.5 -59.5
t-123.5 -24.5q-99 0 -147 40.5t-48 106.5q0 83 54 121.5t147 43.5q40 2 68.5 5.5t47 10.5t27.5 18.5t9 29.5q0 16 -11 28t-37 12q-33 0 -51.5 -15.5t-26.5 -45.5h-177q7 40 26.5 74t51.5 58.5t78.5 38t109.5 13.5zM478 721h212l-150 -155h-140zM226 100q29 0 53.5 17.5
t34.5 65.5l9 45q-28 -12 -76 -20q-13 -2 -26.5 -5t-25 -9.5t-18.5 -17.5t-7 -29q0 -26 15 -36.5t41 -10.5zM608 401q-29 0 -55 -20.5t-40 -71.5h169q2 38 -15.5 65t-58.5 27z" />
    <glyph glyph-name="Oslashacute" unicode="&#x1fe;" horiz-adv-x="740" 
d="M362 -17q-58 0 -110 13t-94 40l-75 -84l-61 56l73 83q-32 38 -49.5 90t-16.5 118q1 87 29.5 165t80 136.5t123.5 93t161 34.5q113 0 193 -49l70 79l61 -56l-69 -78q34 -41 52.5 -95.5t18.5 -124.5q0 -86 -28 -162.5t-78.5 -133.5t-122 -91t-158.5 -34zM547 405
q0 35 -7 63l-260 -294q33 -25 85 -25q48 0 82.5 23.5t56.5 60.5t32.5 82.5t10.5 89.5zM231 299q0 -13 1 -25.5t4 -23.5l257 291q-14 10 -33.5 15.5t-43.5 5.5q-49 0 -84 -25t-57.5 -63t-33 -85t-10.5 -90zM501 746h-140l64 135h208z" />
    <glyph glyph-name="oslashacute" unicode="&#x1ff;" horiz-adv-x="572" 
d="M61 64q-24 27 -38 64.5t-14 85.5q0 65 21.5 122t60.5 99t94 66t123 24q41 0 79 -9.5t71 -29.5l54 58l47 -45l-51 -54q25 -28 39 -65.5t15 -86.5q0 -66 -21 -122.5t-61 -98t-95.5 -65t-124.5 -23.5q-40 0 -78.5 9.5t-70.5 28.5l-54 -57l-47 45zM325 721h212l-150 -155
h-140zM265 110q31 0 52.5 20t35 49t19 63t5.5 62v1l-164 -174q19 -21 52 -21zM302 398q-30 0 -51 -20t-34 -49.5t-19 -63.5t-6 -62l162 172q-9 11 -22 17t-30 6z" />
    <glyph glyph-name="Scommaaccent" unicode="&#x218;" horiz-adv-x="642" 
d="M310 -17q-56 0 -113 11t-103 38.5t-74.5 75t-27.5 120.5h211q1 -42 32 -63.5t81 -21.5q18 0 34.5 2.5t29.5 9.5t21 19t8 30q0 13 -9.5 23t-26 18.5t-40 16.5t-51.5 18q-48 17 -88 35.5t-68.5 43t-44 57t-15.5 77.5q0 59 22 103t61 73.5t91 44t112 14.5q50 0 101.5 -10
t93.5 -34.5t67.5 -67t22.5 -106.5h-203q-2 32 -25.5 48.5t-62.5 16.5q-14 0 -28.5 -3t-26 -9t-18.5 -16t-7 -23q0 -15 9 -24.5t28.5 -17.5t49.5 -17.5t73 -24.5q38 -13 73.5 -29.5t62.5 -40t43.5 -56.5t16.5 -79q0 -65 -26.5 -112.5t-70 -78.5t-99.5 -46t-116 -15zM184 -210
q34 5 55 16.5t26 39.5h-66l21 109h149l-18 -93q-13 -66 -59.5 -93.5t-118.5 -31.5z" />
    <glyph glyph-name="scommaaccent" unicode="&#x219;" horiz-adv-x="510" 
d="M234 -17q-44 0 -88 8t-79 28.5t-57 55.5t-22 90h176q1 -30 17.5 -48.5t58.5 -18.5q26 0 42.5 9.5t16.5 32.5q0 13 -8.5 21.5t-23 14.5t-34.5 10.5t-43 10.5q-35 9 -64 20.5t-50 29t-32.5 41.5t-11.5 59q0 44 18.5 77.5t51 56t76.5 34t95 11.5q42 0 82 -7.5t72 -25.5
t51.5 -48.5t21.5 -76.5h-171q-2 25 -19.5 35.5t-44.5 10.5q-22 0 -40 -8.5t-18 -26.5q0 -19 22.5 -29.5t72.5 -21.5q32 -8 63.5 -18.5t56 -27.5t40 -43t15.5 -64q0 -96 -66 -144t-177 -48zM100 -210q34 5 55 16.5t26 39.5h-66l21 109h149l-18 -93q-13 -66 -59.5 -93.5
t-118.5 -31.5z" />
    <glyph glyph-name="uni021A" unicode="&#x21a;" horiz-adv-x="630" 
d="M103 715h600l-34 -176h-199l-104 -539h-205l104 539h-196zM144 -210q34 5 55 16.5t26 39.5h-66l21 109h149l-18 -93q-13 -66 -59.5 -93.5t-118.5 -31.5z" />
    <glyph glyph-name="uni021B" unicode="&#x21b;" horiz-adv-x="364" 
d="M56 510h65l32 165h182l-32 -165h95l-23 -113h-95l-40 -211q-5 -30 5 -41.5t42 -11.5q8 0 18 0.5t18 1.5l-26 -132q-17 -5 -39.5 -9t-53.5 -4q-94 0 -131 43t-20 128l45 236h-65zM27 -210q34 5 55 16.5t26 39.5h-66l21 109h149l-18 -93q-13 -66 -59.5 -93.5t-118.5 -31.5z
" />
    <glyph glyph-name="uni0237" unicode="&#x237;" horiz-adv-x="253" 
d="M-43 -174q-29 0 -51 2.5t-39 7.5l25 129q21 -1 36.5 -1t26.5 4t18 14t11 29l98 499h186l-101 -517q-8 -44 -26 -76t-41 -51q-29 -23 -66.5 -31.5t-76.5 -8.5z" />
    <glyph glyph-name="circumflex" unicode="&#x2c6;" 
d="M249 715h165l90 -149h-151l-31 63h-2l-51 -63h-162z" />
    <glyph glyph-name="caron" unicode="&#x2c7;" 
d="M391 566h-165l-90 149h151l31 -63h2l51 63h162z" />
    <glyph glyph-name="uni02C9" unicode="&#x2c9;" 
d="M187 687h284l-21 -106h-284z" />
    <glyph glyph-name="breve" unicode="&#x2d8;" 
d="M345 558q-77 0 -122.5 41.5t-44.5 116.5h104q2 -20 17 -33t47 -13t51 14.5t23 31.5h104q-5 -39 -20.5 -68.5t-39 -49.5t-54.5 -30t-65 -10z" />
    <glyph glyph-name="dotaccent" unicode="&#x2d9;" 
d="M241 715h186l-27 -143h-186z" />
    <glyph glyph-name="ring" unicode="&#x2da;" 
d="M324 555q-22 0 -41.5 8t-34 21.5t-23 32t-8.5 40.5t8.5 40.5t23 32.5t34 22t41.5 8t41.5 -8t34 -22t23 -32.5t8.5 -40.5t-8.5 -40.5t-23 -32t-34 -21.5t-41.5 -8zM324 619q17 0 27.5 11.5t10.5 26.5t-10.5 27t-27.5 12t-27.5 -12t-10.5 -27t10.5 -26.5t27.5 -11.5z" />
    <glyph glyph-name="ogonek" unicode="&#x2db;" 
d="M159 -179q-66 0 -94.5 23.5t-28.5 58.5q0 19 8 33.5t21 26.5t29.5 21t33.5 16h126q-29 -11 -52 -28t-23 -36q0 -21 27 -21q17 0 31 7h2l-18 -92q-11 -4 -27 -6.5t-35 -2.5z" />
    <glyph glyph-name="tilde" unicode="&#x2dc;" 
d="M127 564q13 78 52 115t87 37q22 0 37.5 -6t28 -13t23.5 -13t23 -6q17 0 25.5 10.5t13.5 27.5h94q-11 -66 -44 -106.5t-87 -40.5q-24 0 -41 6t-30 12.5t-24 12.5t-23 6q-30 0 -41 -42h-94v0z" />
    <glyph glyph-name="hungarumlaut" unicode="&#x2dd;" 
d="M420 721h184l-138 -155h-117zM207 721h184l-138 -155h-117z" />
    <glyph glyph-name="uni0394" unicode="&#x394;" horiz-adv-x="685" 
d="M-28 0l23 122l319 593h210l112 -593l-23 -122h-641zM209 153h223l-37 259q-2 13 -3.5 29t-3.5 30q-2 17 -4 33h-1q-8 -16 -15 -33q-7 -14 -14 -30t-14 -29z" />
    <glyph glyph-name="uni03A9" unicode="&#x3a9;" horiz-adv-x="732" 
d="M531 432q0 28 -6.5 51.5t-21 40.5t-36.5 27t-54 10q-51 0 -84.5 -27.5t-53.5 -69.5t-28.5 -91.5t-8.5 -92.5q0 -54 18.5 -87.5t59.5 -43.5l-28 -149h-311l30 155h105v3q-34 26 -54 72t-20 100q0 82 28.5 154.5t80.5 126.5t124 85.5t158 31.5q59 0 115.5 -17t100 -52
t70 -88.5t26.5 -126.5q0 -93 -34 -167.5t-108 -118.5v-3h87l-30 -155h-311l28 149q42 3 72 32.5t49.5 72t28 91t8.5 87.5z" />
    <glyph glyph-name="uni03BC" unicode="&#x3bc;" horiz-adv-x="580" 
d="M82 510h186l-56 -287q-17 -84 51 -84q37 0 60 25t31 66l54 280h186l-99 -510h-177l14 75h-3q-25 -42 -56 -64t-66 -22q-14 0 -24.5 3.5t-16.5 8.5h-1l-33 -170h-182z" />
    <glyph glyph-name="pi" unicode="&#x3c0;" horiz-adv-x="644" 
d="M210 0h-182l76 397h-64l23 113h604l-23 -113h-65l-44 -226q-5 -26 6 -35t42 -6l-25 -128q-17 -5 -32.5 -7.5t-44.5 -2.5q-35 0 -63 7.5t-46 27.5t-23.5 53.5t4.5 86.5l44 230h-111z" />
    <glyph glyph-name="Wgrave" unicode="&#x1e80;" horiz-adv-x="950" 
d="M85 715h204l7 -245q1 -29 1 -64.5t-1 -66.5l-2 -72h2q11 33 23 66q11 29 23.5 62.5t24.5 64.5l98 255h186l10 -253q1 -32 1.5 -66t0.5 -63q0 -33 -1 -66h2q13 36 25 72q11 31 23.5 67t23.5 66l90 243h212l-306 -715h-208l-10 303q-1 23 -1 48.5v46.5v48h-2
q-7 -23 -15 -48q-7 -21 -16 -46.5t-17 -48.5l-114 -303h-211zM407 881h204l30 -135h-140z" />
    <glyph glyph-name="wgrave" unicode="&#x1e81;" horiz-adv-x="809" 
d="M45 510h189l11 -185q1 -16 1.5 -34.5t1.5 -35.5q1 -19 1 -39h2q7 21 15 41q6 17 13.5 36.5t14.5 35.5l79 181h157l8 -181q1 -17 1.5 -37t1.5 -37q1 -20 1 -41h2l16 40q7 17 14.5 36t14.5 35l82 185h191l-251 -510h-178l-15 214q-2 16 -2 33.5t-1 32.5q-1 18 -1 34h-2
q-6 -17 -12 -35q-5 -15 -12 -32.5l-13 -32.5l-92 -214h-177zM285 721h203l45 -155h-140z" />
    <glyph glyph-name="Wacute" unicode="&#x1e82;" horiz-adv-x="950" 
d="M85 715h204l7 -245q1 -29 1 -64.5t-1 -66.5l-2 -72h2q11 33 23 66q11 29 23.5 62.5t24.5 64.5l98 255h186l10 -253q1 -32 1.5 -66t0.5 -63q0 -33 -1 -66h2q13 36 25 72q11 31 23.5 67t23.5 66l90 243h212l-306 -715h-208l-10 303q-1 23 -1 48.5v46.5v48h-2
q-7 -23 -15 -48q-7 -21 -16 -46.5t-17 -48.5l-114 -303h-211zM634 746h-140l64 135h208z" />
    <glyph glyph-name="wacute" unicode="&#x1e83;" horiz-adv-x="809" 
d="M45 510h189l11 -185q1 -16 1.5 -34.5t1.5 -35.5q1 -19 1 -39h2q7 21 15 41q6 17 13.5 36.5t14.5 35.5l79 181h157l8 -181q1 -17 1.5 -37t1.5 -37q1 -20 1 -41h2l16 40q7 17 14.5 36t14.5 35l82 185h191l-251 -510h-178l-15 214q-2 16 -2 33.5t-1 32.5q-1 18 -1 34h-2
q-6 -17 -12 -35q-5 -15 -12 -32.5l-13 -32.5l-92 -214h-177zM464 721h212l-150 -155h-140z" />
    <glyph glyph-name="Wdieresis" unicode="&#x1e84;" horiz-adv-x="950" 
d="M85 715h204l7 -245q1 -29 1 -64.5t-1 -66.5l-2 -72h2q11 33 23 66q11 29 23.5 62.5t24.5 64.5l98 255h186l10 -253q1 -32 1.5 -66t0.5 -63q0 -33 -1 -66h2q13 36 25 72q11 31 23.5 67t23.5 66l90 243h212l-306 -715h-208l-10 303q-1 23 -1 48.5v46.5v48h-2
q-7 -23 -15 -48q-7 -21 -16 -46.5t-17 -48.5l-114 -303h-211zM613 895h175l-27 -143h-175zM388 895h175l-27 -143h-175z" />
    <glyph glyph-name="wdieresis" unicode="&#x1e85;" horiz-adv-x="809" 
d="M45 510h189l11 -185q1 -16 1.5 -34.5t1.5 -35.5q1 -19 1 -39h2q7 21 15 41q6 17 13.5 36.5t14.5 35.5l79 181h157l8 -181q1 -17 1.5 -37t1.5 -37q1 -20 1 -41h2l16 40q7 17 14.5 36t14.5 35l82 185h191l-251 -510h-178l-15 214q-2 16 -2 33.5t-1 32.5q-1 18 -1 34h-2
q-6 -17 -12 -35q-5 -15 -12 -32.5l-13 -32.5l-92 -214h-177zM510 715h175l-27 -143h-175zM285 715h175l-27 -143h-175z" />
    <glyph glyph-name="Ygrave" unicode="&#x1ef2;" horiz-adv-x="673" 
d="M232 253l-151 462h220l42 -159q6 -21 10.5 -41.5t7.5 -37.5q4 -19 7 -37h2q11 18 22 37q10 17 22.5 37.5t26.5 41.5l103 159h222l-329 -470l-47 -245h-206zM262 881h204l30 -135h-140z" />
    <glyph glyph-name="ygrave" unicode="&#x1ef3;" horiz-adv-x="553" 
d="M11 -23h66q25 0 43 10t18 39q0 12 -2.5 28t-6.5 34l-82 422h194l21 -199q2 -20 3.5 -42.5t2.5 -42.5l2 -46h2q8 21 17 43q8 19 17 40.5t19 41.5l96 205h187l-275 -537q-37 -72 -89.5 -107t-128.5 -35h-132zM161 721h203l45 -155h-140z" />
    <glyph glyph-name="uni2009" unicode="&#x2009;" horiz-adv-x="55" 
 />
    <glyph glyph-name="endash" unicode="&#x2013;" horiz-adv-x="500" 
d="M56 335h417l-32 -161h-417z" />
    <glyph glyph-name="emdash" unicode="&#x2014;" horiz-adv-x="1000" 
d="M115 335h800l-32 -161h-800z" />
    <glyph glyph-name="quoteleft" unicode="&#x2018;" horiz-adv-x="230" 
d="M274 648q-37 -4 -60.5 -27.5t-29.5 -61.5h69l-32 -168h-160l29 148q8 44 21 74.5t35 52.5q24 24 60.5 37t81.5 15z" />
    <glyph glyph-name="quoteright" unicode="&#x2019;" horiz-adv-x="230" 
d="M70 458q37 4 60.5 27.5t29.5 61.5h-69l32 168h160l-29 -148q-8 -44 -21 -74.5t-35 -52.5q-24 -24 -60.5 -37t-81.5 -15z" />
    <glyph glyph-name="quotesinglbase" unicode="&#x201a;" horiz-adv-x="230" 
d="M-36 -89q37 4 60.5 27.5t29.5 61.5h-69l32 168h160l-29 -148q-8 -44 -21 -74.5t-35 -52.5q-24 -24 -60.5 -37t-81.5 -15z" />
    <glyph glyph-name="quotedblleft" unicode="&#x201c;" horiz-adv-x="449" 
d="M493 648q-37 -4 -60.5 -27.5t-29.5 -61.5h69l-32 -168h-160l29 148q8 44 21 74.5t35 52.5q24 24 60.5 37t81.5 15zM274 648q-37 -4 -60.5 -27.5t-29.5 -61.5h69l-32 -168h-160l29 148q8 44 21 74.5t35 52.5q24 24 60.5 37t81.5 15z" />
    <glyph glyph-name="quotedblright" unicode="&#x201d;" horiz-adv-x="449" 
d="M70 458q37 4 60.5 27.5t29.5 61.5h-69l32 168h160l-29 -148q-8 -44 -21 -74.5t-35 -52.5q-24 -24 -60.5 -37t-81.5 -15zM289 458q37 4 60.5 27.5t29.5 61.5h-69l32 168h160l-29 -148q-8 -44 -21 -74.5t-35 -52.5q-24 -24 -60.5 -37t-81.5 -15z" />
    <glyph glyph-name="quotedblbase" unicode="&#x201e;" horiz-adv-x="449" 
d="M-36 -89q37 4 60.5 27.5t29.5 61.5h-69l32 168h160l-29 -148q-8 -44 -21 -74.5t-35 -52.5q-24 -24 -60.5 -37t-81.5 -15zM183 -89q37 4 60.5 27.5t29.5 61.5h-69l32 168h160l-29 -148q-8 -44 -21 -74.5t-35 -52.5q-24 -24 -60.5 -37t-81.5 -15z" />
    <glyph glyph-name="dagger" unicode="&#x2020;" horiz-adv-x="603" 
d="M82 510h166l39 205h205l-39 -205h166l-32 -160h-166l-100 -519h-205l100 519h-166z" />
    <glyph glyph-name="daggerdbl" unicode="&#x2021;" horiz-adv-x="604" 
d="M82 510h166l39 205h205l-39 -205h166l-32 -160h-166l-29 -154h166l-32 -160h-166l-39 -205h-205l39 205h-166l32 160h166l29 154h-166z" />
    <glyph glyph-name="bullet" unicode="&#x2022;" horiz-adv-x="390" 
d="M205 158q-33 0 -62 12.5t-51 34.5t-34.5 51t-12.5 62t12.5 62t34.5 51t51 34.5t62 12.5t62 -12.5t51 -34.5t34.5 -51t12.5 -62t-12.5 -62t-34.5 -51t-51 -34.5t-62 -12.5z" />
    <glyph glyph-name="ellipsis" unicode="&#x2026;" horiz-adv-x="777" 
d="M545 191h192l-37 -191h-192zM280 191h192l-37 -191h-192zM15 191h191l-37 -191h-191z" />
    <glyph glyph-name="perthousand" unicode="&#x2030;" horiz-adv-x="1292" 
d="M232 297q-37 0 -68 12t-53 34t-34.5 53t-12.5 70q0 45 14.5 87.5t42 74.5t66.5 51.5t88 19.5q35 0 65.5 -10.5t53.5 -31.5t36.5 -53t13.5 -74q0 -46 -14.5 -88t-42 -74.5t-67 -51.5t-88.5 -19zM198 454q0 -11 1.5 -22t6 -20t12.5 -14.5t22 -5.5q19 0 32.5 18t21 42.5
t11 50.5t3.5 42q0 28 -9 44.5t-30 16.5q-20 0 -33.5 -17.5t-22 -42t-12 -50.5t-3.5 -42zM640 -17q-37 0 -68 12t-53 34t-34.5 53t-12.5 70q0 45 14.5 87.5t42 74.5t66.5 51.5t88 19.5q35 0 65.5 -10.5t53.5 -31.5t36.5 -53t13.5 -74q0 -46 -14.5 -88t-42 -74.5t-67 -51.5
t-88.5 -19zM606 140q0 -11 1.5 -22t6 -20t12.5 -14.5t22 -5.5q19 0 32.5 18t21 42.5t11 50.5t3.5 42q0 28 -9 44.5t-30 16.5q-20 0 -33.5 -17.5t-22 -42t-12 -50.5t-3.5 -42zM1044 -17q-37 0 -68 12t-53 34t-34.5 53t-12.5 70q0 45 14.5 87.5t42 74.5t66.5 51.5t88 19.5
q35 0 65.5 -10.5t53.5 -31.5t36.5 -53t13.5 -74q0 -46 -14.5 -88t-42 -74.5t-67 -51.5t-88.5 -19zM1010 140q0 -11 1.5 -22t6 -20t12.5 -14.5t22 -5.5q19 0 32.5 18t21 42.5t11 50.5t3.5 42q0 28 -9 44.5t-30 16.5q-20 0 -33.5 -17.5t-22 -42t-12 -50.5t-3.5 -42zM666 686
h103l-518 -686h-103z" />
    <glyph glyph-name="uni2032" unicode="&#x2032;" horiz-adv-x="240" 
d="M152 715h161l-104 -287h-161z" />
    <glyph glyph-name="uni2033" unicode="&#x2033;" horiz-adv-x="460" 
d="M371 715h162l-105 -287h-161zM152 715h161l-104 -287h-161z" />
    <glyph glyph-name="guilsinglleft" unicode="&#x2039;" horiz-adv-x="248" 
d="M14 158l35 182l200 137l-33 -173l-93 -64v-2l68 -64l-32 -162z" />
    <glyph glyph-name="guilsinglright" unicode="&#x203a;" horiz-adv-x="248" 
d="M228 331l-35 -182l-200 -137l33 173l93 64v2l-68 64l32 162z" />
    <glyph glyph-name="fraction" unicode="&#x2044;" horiz-adv-x="319" 
d="M453 715h111l-660 -715h-112z" />
    <glyph glyph-name="zero.superior" unicode="&#x2070;" horiz-adv-x="419" 
d="M241 309q-37 0 -69.5 10.5t-56.5 31.5t-38 52.5t-14 74.5q0 48 16 92.5t45 78.5t69.5 54t90.5 20q36 0 67.5 -11t55 -32.5t37 -53.5t13.5 -74q0 -49 -15 -93t-42.5 -77.5t-67.5 -53t-91 -19.5zM193 469q0 -27 10.5 -47.5t40.5 -20.5q24 1 40.5 18t26 41.5t14 52t4.5 48.5
q0 13 -2 26.5t-7 24t-15 17t-25 6.5q-24 0 -40.5 -18t-27 -44t-15 -54.5t-4.5 -49.5z" />
    <glyph glyph-name="four.superior" unicode="&#x2074;" horiz-adv-x="407" 
d="M295 719h129l-45 -232h57l-18 -85h-56l-16 -84h-127l16 84h-192l19 94zM274 600h-1l-117 -112v-1h96z" />
    <glyph glyph-name="five.superior" unicode="&#x2075;" horiz-adv-x="378" 
d="M75 486l70 229h267l-18 -92h-175l-19 -63h2q14 11 33 19t48 8q56 0 88 -34t32 -88q0 -40 -15 -69.5t-40.5 -49t-58 -29t-68.5 -9.5q-72 0 -119.5 34.5t-50.5 94.5h116q5 -20 19.5 -29t34.5 -9q28 0 42.5 18t14.5 44t-13.5 37t-32.5 11q-17 0 -30.5 -5.5t-22.5 -17.5h-104
z" />
    <glyph glyph-name="six.superior" unicode="&#x2076;" horiz-adv-x="386" 
d="M234 309q-75 0 -122 41.5t-47 124.5q0 51 18 104.5t62 92.5q28 25 60.5 38t75.5 13q62 0 104 -27.5t50 -87.5h-122q-2 15 -10.5 24t-26.5 9q-27 0 -49.5 -25t-33.5 -67h1q18 19 42.5 28.5t50.5 9.5q25 0 48 -7.5t40 -22.5t27.5 -37t10.5 -51q0 -37 -14 -66.5t-38 -50.5
t-56.5 -32t-70.5 -11zM186 442q0 -22 13 -34t36 -12t40.5 16.5t17.5 44.5q0 22 -13.5 35t-36.5 13t-40 -17.5t-17 -45.5z" />
    <glyph glyph-name="seven.superior" unicode="&#x2077;" horiz-adv-x="359" 
d="M280 612h-190l20 103h317l-18 -91q-63 -51 -109.5 -129.5t-66.5 -176.5h-140q23 97 73.5 169.5t113.5 123.5v1z" />
    <glyph glyph-name="eight.superior" unicode="&#x2078;" horiz-adv-x="392" 
d="M139 531q-20 12 -30.5 31t-10.5 40q0 34 16 57t40.5 37t54 20.5t55.5 6.5q32 0 61.5 -6t52 -19t36 -33.5t12.5 -49.5q-1 -36 -21.5 -58t-46.5 -34v-2q27 -13 42 -34t15 -51q0 -36 -17 -60.5t-44.5 -39.5t-61.5 -21.5t-68 -6.5q-33 0 -64.5 6t-56 19.5t-39 35t-14.5 52.5
q0 45 27 70.5t62 37.5v2zM258 560q21 0 35.5 12.5t14.5 32.5q0 23 -14 32.5t-31 9.5q-21 0 -34.5 -13.5t-13.5 -33.5t12.5 -30t30.5 -10zM229 390q25 0 42 14.5t17 39.5q0 23 -16 34t-36 11q-24 0 -41.5 -14t-17.5 -38t17.5 -35.5t34.5 -11.5z" />
    <glyph glyph-name="nine.superior" unicode="&#x2079;" horiz-adv-x="386" 
d="M256 723q75 0 121 -41t46 -124q0 -51 -17 -105.5t-59 -93.5q-27 -26 -63 -38t-79 -12q-62 0 -105.5 27.5t-50.5 87.5h122q5 -33 41 -33q27 0 50.5 22t32.5 70h-1q-18 -19 -42.5 -28.5t-50.5 -9.5q-25 0 -48 7.5t-40 22.5t-27.5 37.5t-10.5 51.5q0 36 14 65t38 50t57 32.5
t72 11.5zM302 590q0 22 -13 34t-36 12t-40.5 -16.5t-17.5 -44.5q0 -22 13.5 -35t36.5 -13t40 17.5t17 45.5z" />
    <glyph glyph-name="zero.inferior" unicode="&#x2080;" horiz-adv-x="419" 
d="M151 -159q-37 0 -69.5 10.5t-56.5 31.5t-38 52.5t-14 74.5q0 48 16 92.5t45 78.5t69.5 54t90.5 20q36 0 67.5 -11t55 -32.5t37 -53.5t13.5 -74q0 -49 -15 -93t-42.5 -77.5t-67.5 -53t-91 -19.5zM103 1q0 -27 10.5 -47.5t40.5 -20.5q24 1 40.5 18t26 41.5t14 52t4.5 48.5
q0 13 -2 26.5t-7 24t-15 17t-25 6.5q-24 0 -40.5 -18t-27 -44t-15 -54.5t-4.5 -49.5z" />
    <glyph glyph-name="one.inferior" unicode="&#x2081;" horiz-adv-x="277" 
d="M239 251l-78 -401h-136l43 220h-89l18 90q102 5 136 91h106z" />
    <glyph glyph-name="two.inferior" unicode="&#x2082;" horiz-adv-x="388" 
d="M210 124q0 17 -11 25t-28 8q-23 0 -39.5 -18t-22.5 -47h-122q6 41 24 71.5t44 51t59 30.5t69 10q28 0 55.5 -7t49.5 -21t35 -37t13 -54q0 -36 -15.5 -63t-40.5 -45q-18 -13 -37 -23t-37.5 -19t-35 -17.5t-29.5 -17.5v-1h164l-20 -100h-346q8 51 30 83t52 54
q35 28 71 45.5t69 34.5q22 11 35.5 22.5t13.5 34.5z" />
    <glyph glyph-name="three.inferior" unicode="&#x2083;" horiz-adv-x="387" 
d="M-11 122q6 29 21.5 53.5t39.5 42t55.5 27.5t68.5 10q30 0 57.5 -6.5t49.5 -20.5t34.5 -35.5t12.5 -50.5q-1 -31 -19.5 -54t-46.5 -34v-1q23 -11 38 -31.5t15 -49.5q0 -35 -16 -60t-41.5 -41t-57.5 -23.5t-63 -7.5q-35 0 -67 8.5t-57 26t-39.5 44.5t-14.5 65h122
q1 -25 15 -39t41 -14q21 0 37 11t16 32q0 39 -54 39h-26l16 80h27q24 0 39.5 9t15.5 29t-13.5 27.5t-30.5 7.5q-23 0 -37.5 -13t-19.5 -31h-118z" />
    <glyph glyph-name="four.inferior" unicode="&#x2084;" horiz-adv-x="407" 
d="M205 251h129l-45 -232h57l-18 -85h-56l-16 -84h-127l16 84h-192l19 94zM184 132h-1l-117 -112v-1h96z" />
    <glyph glyph-name="five.inferior" unicode="&#x2085;" horiz-adv-x="378" 
d="M-15 18l70 229h267l-18 -92h-175l-19 -63h2q14 11 33 19t48 8q56 0 88 -34t32 -88q0 -40 -15 -69.5t-40.5 -49t-58 -29t-68.5 -9.5q-72 0 -119.5 34.5t-50.5 94.5h116q5 -20 19.5 -29t34.5 -9q28 0 42.5 18t14.5 44t-13.5 37t-32.5 11q-17 0 -30.5 -5.5t-22.5 -17.5h-104
z" />
    <glyph glyph-name="six.inferior" unicode="&#x2086;" horiz-adv-x="386" 
d="M144 -159q-75 0 -122 41.5t-47 124.5q0 51 18 104.5t62 92.5q28 25 60.5 38t75.5 13q62 0 104 -27.5t50 -87.5h-122q-2 15 -10.5 24t-26.5 9q-27 0 -49.5 -25t-33.5 -67h1q18 19 42.5 28.5t50.5 9.5q25 0 48 -7.5t40 -22.5t27.5 -37t10.5 -51q0 -37 -14 -66.5t-38 -50.5
t-56.5 -32t-70.5 -11zM96 -26q0 -22 13 -34t36 -12t40.5 16.5t17.5 44.5q0 22 -13.5 35t-36.5 13t-40 -17.5t-17 -45.5z" />
    <glyph glyph-name="seven.inferior" unicode="&#x2087;" horiz-adv-x="359" 
d="M190 144h-190l20 103h317l-18 -91q-63 -51 -109.5 -129.5t-66.5 -176.5h-140q23 97 73.5 169.5t113.5 123.5v1z" />
    <glyph glyph-name="eight.inferior" unicode="&#x2088;" horiz-adv-x="392" 
d="M47 63q-20 12 -30.5 31t-10.5 40q0 34 16 57t40.5 37t54 20.5t55.5 6.5q32 0 61.5 -6t52 -19t36 -33.5t12.5 -49.5q-1 -36 -21.5 -58t-46.5 -34v-2q27 -13 42 -34t15 -51q0 -36 -17 -60.5t-44.5 -39.5t-61.5 -21.5t-68 -6.5q-33 0 -64.5 6t-56 19.5t-39 35t-14.5 52.5
q0 45 27 70.5t62 37.5v2zM166 92q21 0 35.5 12.5t14.5 32.5q0 23 -14 32.5t-31 9.5q-21 0 -34.5 -13.5t-13.5 -33.5t12.5 -30t30.5 -10zM137 -78q25 0 42 14.5t17 39.5q0 23 -16 34t-36 11q-24 0 -41.5 -14t-17.5 -38t17.5 -35.5t34.5 -11.5z" />
    <glyph glyph-name="nine.inferior" unicode="&#x2089;" horiz-adv-x="386" 
d="M166 255q75 0 121 -41t46 -124q0 -51 -17 -105.5t-59 -93.5q-27 -26 -63 -38t-79 -12q-62 0 -105.5 27.5t-50.5 87.5h122q5 -33 41 -33q27 0 50.5 22t32.5 70h-1q-18 -19 -42.5 -28.5t-50.5 -9.5q-25 0 -48 7.5t-40 22.5t-27.5 37.5t-10.5 51.5q0 36 14 65t38 50t57 32.5
t72 11.5zM212 122q0 22 -13 34t-36 12t-40.5 -16.5t-17.5 -44.5q0 -22 13.5 -35t36.5 -13t40 17.5t17 45.5z" />
    <glyph glyph-name="Euro" unicode="&#x20ac;" horiz-adv-x="661" 
d="M87 433q21 70 58 120t82 82.5t95 48t98 15.5q130 0 197 -66.5t65 -193.5h-190q1 21 -2.5 40.5t-12.5 34.5t-25 24t-40 9q-15 0 -32 -5.5t-33.5 -18.5t-31.5 -35t-27 -55h139l-14 -70h-142q-5 -24 -6 -51h138l-13 -70h-127q2 -49 23 -77t67 -28q45 0 73 30.5t42 80.5h192
q-28 -131 -109.5 -197t-203.5 -67q-60 0 -110 16.5t-87 49t-59 80.5t-26 112h-56l13 70h43q1 25 6 51h-39l14 70h41z" />
    <glyph glyph-name="afii61289" unicode="&#x2113;" horiz-adv-x="412" 
d="M49 269l56 289q17 88 68 126.5t132 38.5q67 0 108.5 -32t41.5 -111q0 -112 -64.5 -200t-173.5 -147l-5 -25q-8 -36 3.5 -53t45.5 -17q16 0 26.5 0.5t24.5 2.5l-27 -137q-23 -5 -48 -8.5t-57 -3.5q-41 0 -72.5 10t-52 31t-28 53.5t0.5 76.5q-11 -2 -21 -4t-21 -4l19 102z
M243 369l12 12q17 18 31 44t23.5 54.5t15 55.5t5.5 45q0 17 -4.5 23.5t-14.5 6.5q-11 0 -18.5 -10.5t-12.5 -39.5z" />
    <glyph glyph-name="trademark" unicode="&#x2122;" horiz-adv-x="707" 
d="M397 715h133l11 -134h2l62 134h132l-52 -272h-90l29 150h-2l-76 -150h-67l-15 150h-2l-29 -150h-88zM119 715h243l-15 -81h-73l-37 -191h-98l37 191h-72z" />
    <glyph glyph-name="Omega" unicode="&#x2126;" horiz-adv-x="732" 
d="M531 432q0 28 -6.5 51.5t-21 40.5t-36.5 27t-54 10q-51 0 -84.5 -27.5t-53.5 -69.5t-28.5 -91.5t-8.5 -92.5q0 -54 18.5 -87.5t59.5 -43.5l-28 -149h-311l30 155h105v3q-34 26 -54 72t-20 100q0 82 28.5 154.5t80.5 126.5t124 85.5t158 31.5q59 0 115.5 -17t100 -52
t70 -88.5t26.5 -126.5q0 -93 -34 -167.5t-108 -118.5v-3h87l-30 -155h-311l28 149q42 3 72 32.5t49.5 72t28 91t8.5 87.5z" />
    <glyph glyph-name="estimated" unicode="&#x212e;" horiz-adv-x="637" 
d="M203 301v-231q53 -33 136 -33q91 0 141 39.5t75 109.5h52q-10 -43 -31.5 -79t-55 -62.5t-79 -41t-102.5 -14.5q-73 0 -130 23.5t-96 66t-59.5 101t-20.5 129.5q0 70 22 128.5t62 100.5t95.5 65.5t121.5 23.5q55 0 101 -15t80 -44q56 -47 76.5 -113.5t19.5 -153.5h-408z
M334 582q-40 0 -73 -9t-58 -25v-203h241v212q-23 11 -50.5 18t-59.5 7z" />
    <glyph glyph-name="onethird" unicode="&#x2153;" horiz-adv-x="861" 
d="M332 719l-78 -401h-136l43 220h-89l18 90q102 5 136 91h106zM694 715h111l-660 -715h-112zM480 272q6 29 21.5 53.5t39.5 42t55.5 27.5t68.5 10q30 0 57.5 -6.5t49.5 -20.5t34.5 -35.5t12.5 -50.5q-1 -31 -19.5 -54t-46.5 -34v-1q23 -11 38 -31.5t15 -49.5q0 -35 -16 -60
t-41.5 -41t-57.5 -23.5t-63 -7.5q-35 0 -67 8.5t-57 26t-39.5 44.5t-14.5 65h122q1 -25 15 -39t41 -14q21 0 37 11t16 32q0 39 -54 39h-26l16 80h27q24 0 39.5 9t15.5 29t-13.5 27.5t-30.5 7.5q-23 0 -37.5 -13t-19.5 -31h-118z" />
    <glyph glyph-name="twothirds" unicode="&#x2154;" horiz-adv-x="949" 
d="M303 592q0 17 -11 25t-28 8q-23 0 -39.5 -18t-22.5 -47h-122q6 41 24 71.5t44 51t59 30.5t69 10q28 0 55.5 -7t49.5 -21t35 -37t13 -54q0 -36 -15.5 -63t-40.5 -45q-18 -13 -37 -23t-37.5 -19t-35 -17.5t-29.5 -17.5v-1h164l-20 -100h-346q8 51 30 83t52 54
q35 28 71 45.5t69 34.5q22 11 35.5 22.5t13.5 34.5zM800 715h111l-660 -715h-112zM567 272q6 29 21.5 53.5t39.5 42t55.5 27.5t68.5 10q30 0 57.5 -6.5t49.5 -20.5t34.5 -35.5t12.5 -50.5q-1 -31 -19.5 -54t-46.5 -34v-1q23 -11 38 -31.5t15 -49.5q0 -35 -16 -60t-41.5 -41
t-57.5 -23.5t-63 -7.5q-35 0 -67 8.5t-57 26t-39.5 44.5t-14.5 65h122q1 -25 15 -39t41 -14q21 0 37 11t16 32q0 39 -54 39h-26l16 80h27q24 0 39.5 9t15.5 29t-13.5 27.5t-30.5 7.5q-23 0 -37.5 -13t-19.5 -31h-118z" />
    <glyph glyph-name="oneeighth" unicode="&#x215b;" horiz-adv-x="863" 
d="M332 719l-78 -401h-136l43 220h-89l18 90q102 5 136 91h106zM697 715h111l-660 -715h-112zM540 213q-20 12 -30.5 31t-10.5 40q0 34 16 57t40.5 37t54 20.5t55.5 6.5q32 0 61.5 -6t52 -19t36 -33.5t12.5 -49.5q-1 -36 -21.5 -58t-46.5 -34v-2q27 -13 42 -34t15 -51
q0 -36 -17 -60.5t-44.5 -39.5t-61.5 -21.5t-68 -6.5q-33 0 -64.5 6t-56 19.5t-39 35t-14.5 52.5q0 45 27 70.5t62 37.5v2zM659 242q21 0 35.5 12.5t14.5 32.5q0 23 -14 32.5t-31 9.5q-21 0 -34.5 -13.5t-13.5 -33.5t12.5 -30t30.5 -10zM630 72q25 0 42 14.5t17 39.5
q0 23 -16 34t-36 11q-24 0 -41.5 -14t-17.5 -38t17.5 -35.5t34.5 -11.5z" />
    <glyph glyph-name="threeeighths" unicode="&#x215c;" horiz-adv-x="918" 
d="M84 590q6 29 21.5 53.5t39.5 42t55.5 27.5t68.5 10q30 0 57.5 -6.5t49.5 -20.5t34.5 -35.5t12.5 -50.5q-1 -31 -19.5 -54t-46.5 -34v-1q23 -11 38 -31.5t15 -49.5q0 -35 -16 -60t-41.5 -41t-57.5 -23.5t-63 -7.5q-35 0 -67 8.5t-57 26t-39.5 44.5t-14.5 65h122
q1 -25 15 -39t41 -14q21 0 37 11t16 32q0 39 -54 39h-26l16 80h27q24 0 39.5 9t15.5 29t-13.5 27.5t-30.5 7.5q-23 0 -37.5 -13t-19.5 -31h-118zM766 715h111l-660 -715h-112zM596 213q-20 12 -30.5 31t-10.5 40q0 34 16 57t40.5 37t54 20.5t55.5 6.5q32 0 61.5 -6t52 -19
t36 -33.5t12.5 -49.5q-1 -36 -21.5 -58t-46.5 -34v-2q27 -13 42 -34t15 -51q0 -36 -17 -60.5t-44.5 -39.5t-61.5 -21.5t-68 -6.5q-33 0 -64.5 6t-56 19.5t-39 35t-14.5 52.5q0 45 27 70.5t62 37.5v2zM715 242q21 0 35.5 12.5t14.5 32.5q0 23 -14 32.5t-31 9.5
q-21 0 -34.5 -13.5t-13.5 -33.5t12.5 -30t30.5 -10zM686 72q25 0 42 14.5t17 39.5q0 23 -16 34t-36 11q-24 0 -41.5 -14t-17.5 -38t17.5 -35.5t34.5 -11.5z" />
    <glyph glyph-name="fiveeighths" unicode="&#x215d;" horiz-adv-x="902" 
d="M78 486l70 229h267l-18 -92h-175l-19 -63h2q14 11 33 19t48 8q56 0 88 -34t32 -88q0 -40 -15 -69.5t-40.5 -49t-58 -29t-68.5 -9.5q-72 0 -119.5 34.5t-50.5 94.5h116q5 -20 19.5 -29t34.5 -9q28 0 42.5 18t14.5 44t-13.5 37t-32.5 11q-17 0 -30.5 -5.5t-22.5 -17.5h-104
zM741 715h111l-660 -715h-112zM580 213q-20 12 -30.5 31t-10.5 40q0 34 16 57t40.5 37t54 20.5t55.5 6.5q32 0 61.5 -6t52 -19t36 -33.5t12.5 -49.5q-1 -36 -21.5 -58t-46.5 -34v-2q27 -13 42 -34t15 -51q0 -36 -17 -60.5t-44.5 -39.5t-61.5 -21.5t-68 -6.5q-33 0 -64.5 6
t-56 19.5t-39 35t-14.5 52.5q0 45 27 70.5t62 37.5v2zM699 242q21 0 35.5 12.5t14.5 32.5q0 23 -14 32.5t-31 9.5q-21 0 -34.5 -13.5t-13.5 -33.5t12.5 -30t30.5 -10zM670 72q25 0 42 14.5t17 39.5q0 23 -16 34t-36 11q-24 0 -41.5 -14t-17.5 -38t17.5 -35.5t34.5 -11.5z
" />
    <glyph glyph-name="seveneighths" unicode="&#x215e;" horiz-adv-x="849" 
d="M283 612h-190l20 103h317l-18 -91q-63 -51 -109.5 -129.5t-66.5 -176.5h-140q23 97 73.5 169.5t113.5 123.5v1zM675 715h111l-660 -715h-112zM527 213q-20 12 -30.5 31t-10.5 40q0 34 16 57t40.5 37t54 20.5t55.5 6.5q32 0 61.5 -6t52 -19t36 -33.5t12.5 -49.5
q-1 -36 -21.5 -58t-46.5 -34v-2q27 -13 42 -34t15 -51q0 -36 -17 -60.5t-44.5 -39.5t-61.5 -21.5t-68 -6.5q-33 0 -64.5 6t-56 19.5t-39 35t-14.5 52.5q0 45 27 70.5t62 37.5v2zM646 242q21 0 35.5 12.5t14.5 32.5q0 23 -14 32.5t-31 9.5q-21 0 -34.5 -13.5t-13.5 -33.5
t12.5 -30t30.5 -10zM617 72q25 0 42 14.5t17 39.5q0 23 -16 34t-36 11q-24 0 -41.5 -14t-17.5 -38t17.5 -35.5t34.5 -11.5z" />
    <glyph glyph-name="partialdiff" unicode="&#x2202;" horiz-adv-x="588" 
d="M377 448q-16 47 -67.5 76t-147.5 40v158q211 -10 312 -108t101 -291q0 -161 -75 -250t-227 -89q-63 0 -111.5 17.5t-81 48.5t-49.5 73t-17 91q0 58 18.5 106.5t52.5 84t81.5 55t105.5 19.5q35 0 60.5 -7t44.5 -24zM275 110q26 0 44.5 13t30.5 34.5t17.5 48t5.5 53.5
q0 47 -17.5 72t-52.5 25q-47 0 -73 -39t-26 -101q0 -51 18 -78.5t53 -27.5z" />
    <glyph glyph-name="Delta" unicode="&#x2206;" horiz-adv-x="685" 
d="M-28 0l23 122l319 593h210l112 -593l-23 -122h-641zM209 153h223l-37 259q-2 13 -3.5 29t-3.5 30q-2 17 -4 33h-1q-8 -16 -15 -33q-7 -14 -14 -30t-14 -29z" />
    <glyph glyph-name="product" unicode="&#x220f;" horiz-adv-x="783" 
d="M732 715v-815h-203v647h-235v-647h-203v815h641z" />
    <glyph glyph-name="summation" unicode="&#x2211;" horiz-adv-x="694" 
d="M84 -100v165l222 250v2l-222 243v155h557v-158h-321v-2l185 -196v-80l-192 -210v-2h338v-167h-567z" />
    <glyph glyph-name="minus" unicode="&#x2212;" horiz-adv-x="554" 
d="M74 411h466l-32 -161h-466z" />
    <glyph glyph-name="uni2215" unicode="&#x2215;" horiz-adv-x="319" 
d="M453 715h111l-660 -715h-112z" />
    <glyph glyph-name="uni2219" unicode="&#x2219;" horiz-adv-x="247" 
d="M58 415h191l-37 -191h-191z" />
    <glyph glyph-name="radical" unicode="&#x221a;" horiz-adv-x="652" 
d="M31 343h199l44 -109q8 -22 15.5 -42t12.5 -35q6 -18 10 -34h2q4 16 8 34q4 16 9.5 36t13.5 42l155 480h194l-274 -815h-195l-129 285h-65v158z" />
    <glyph glyph-name="infinity" unicode="&#x221e;" horiz-adv-x="725" 
d="M190 113q-40 0 -71.5 15t-53 40.5t-33 60.5t-11.5 76q0 40 11.5 75t33 60.5t53 40.5t71.5 15q32 0 57.5 -7.5t46.5 -21t39.5 -32t35.5 -40.5q17 22 35 40.5t38 32t44.5 21t55.5 7.5q37 0 68 -13t53.5 -38t35.5 -60t13 -80t-13 -80.5t-35.5 -60.5t-53.5 -38t-68 -13
q-31 0 -55.5 7.5t-44.5 21t-38 32t-35 40.5q-17 -22 -35.5 -40.5t-39.5 -32t-46.5 -21t-57.5 -7.5zM207 359q-23 0 -33.5 -15.5t-10.5 -38.5t10.5 -39.5t33.5 -16.5q22 0 38 16.5t29 38.5q-13 22 -29 38.5t-38 16.5zM527 249q23 0 34 16.5t11 39.5t-11 38.5t-34 15.5
q-21 0 -36.5 -16.5t-28.5 -38.5q13 -22 28.5 -38.5t36.5 -16.5z" />
    <glyph glyph-name="integral" unicode="&#x222b;" horiz-adv-x="393" 
d="M112 553q0 57 11.5 89.5t31.5 52.5q45 46 143 46q20 0 48.5 -2.5t51.5 -7.5v-139q-24 1 -42 1t-30.5 -4.5t-18.5 -15.5t-6 -30v-530q0 -57 -11.5 -89.5t-31.5 -52.5q-45 -46 -141 -46q-22 0 -50.5 2.5t-51.5 7.5v139q24 -2 42 -1.5t30.5 5t18.5 15t6 30.5v530v0z" />
    <glyph glyph-name="approxequal" unicode="&#x2248;" horiz-adv-x="521" 
d="M33 328q6 54 20.5 91t35.5 60t48 33.5t58 10.5q27 0 54.5 -5.5t53 -11.5t48 -11.5t38.5 -5.5q20 0 27.5 8t11.5 26h117q-10 -95 -46.5 -141.5t-108.5 -46.5q-27 0 -54.5 5t-53.5 11t-49 11t-41 5q-31 0 -43 -39h-116zM-3 105q6 54 20 91t35 60t48 33.5t58 10.5
q27 0 54.5 -5.5t53 -11.5t47.5 -11.5t38 -5.5q20 0 28 8t12 26h117q-11 -95 -47.5 -141.5t-108.5 -46.5q-27 0 -54.5 5t-53.5 11t-49 11t-41 5q-32 0 -42 -39h-115z" />
    <glyph glyph-name="notequal" unicode="&#x2260;" horiz-adv-x="554" 
d="M91 501h264l51 82h112l-51 -82h90l-30 -154h-155l-48 -78h188l-30 -154h-254l-47 -77h-113l48 77h-100l30 154h165l49 78h-199z" />
    <glyph glyph-name="lessequal" unicode="&#x2264;" horiz-adv-x="495" 
d="M14 128h407l-24 -128h-407zM41 268l35 181l431 122l-29 -156l-154 -39q-16 -5 -34 -8.5t-33 -7.5q-18 -4 -35 -8v-2q15 -3 31 -7q14 -3 30.5 -7t31.5 -8l138 -39l-30 -153z" />
    <glyph glyph-name="greaterequal" unicode="&#x2265;" horiz-adv-x="495" 
d="M405 0h-407l24 128h407zM490 439l-35 -181l-431 -122l29 156l154 39q16 4 34 8t33 8q18 4 35 8v2q-16 3 -32 7q-14 3 -30 6.5t-31 8.5l-138 39l30 153z" />
    <glyph glyph-name="uni24C5" unicode="&#x24c5;" horiz-adv-x="805" 
d="M424 -17q-77 0 -144.5 28t-117.5 77.5t-78.5 118t-28.5 148.5t28.5 148.5t78.5 118.5t117.5 78t144.5 28t144.5 -28t117.5 -78t78.5 -118.5t28.5 -148.5t-28.5 -148.5t-78.5 -118t-117.5 -77.5t-144.5 -28zM424 37q65 0 121 24t97 66.5t64 101t23 126.5t-23 126.5
t-64 101t-97 66.5t-121 24t-121 -24t-97 -66.5t-64 -101t-23 -126.5t23 -126.5t64 -101t97 -66.5t121 -24zM264 560h197q40 0 69 -10.5t49 -27.5q47 -41 47 -110q0 -30 -10.5 -56t-29.5 -45t-45.5 -30t-57.5 -11h-92v-124h-127v414zM391 367h60q22 0 35 12t13 33t-13 33
t-36 12h-59v-90z" />
    <glyph glyph-name="lozenge" unicode="&#x25ca;" horiz-adv-x="632" 
d="M629 357l-201 -357h-201l-202 358l201 357h201zM220 360l107 -205h2l104 199l-106 206h-2z" />
    <glyph glyph-name="f_i" unicode="&#xf001;" horiz-adv-x="616" 
d="M56 510h62l7 36q8 42 24 74t41 52q32 26 72.5 34.5t85.5 8.5q26 0 48.5 -2t43.5 -5l-24 -122q-8 1 -14 1h-12q-32 0 -54.5 -11t-28.5 -48l-3 -18h98l-23 -113h-98l-76 -397h-186l77 397h-63zM445 510h186l-99 -510h-186zM484 715h186l-27 -143h-186z" />
    <glyph glyph-name="f_l" unicode="&#xf002;" horiz-adv-x="621" 
d="M56 510h62l7 36q8 42 24 74t41 52q32 26 72.5 34.5t85.5 8.5q26 0 48.5 -2t43.5 -5l-24 -122q-8 1 -14 1h-12q-32 0 -54.5 -11t-28.5 -48l-3 -18h98l-23 -113h-98l-76 -397h-186l77 397h-63zM484 715h191l-138 -715h-191z" />
    <glyph glyph-name="uniF8FF" unicode="&#xf8ff;" horiz-adv-x="846" 
d="M80 716h716v-716h-716v716zM198 287h168v-169h144v169h168v144h-168v163h-144v-163h-168v-144z" />
    <glyph glyph-name="dotlessj" horiz-adv-x="253" 
d="M-43 -174q-29 0 -51 2.5t-39 7.5l25 129q21 -1 36.5 -1t26.5 4t18 14t11 29l98 499h186l-101 -517q-8 -44 -26 -76t-41 -51q-29 -23 -66.5 -31.5t-76.5 -8.5z" />
    <glyph glyph-name="commaaccent" 
d="M58 -210q34 5 55 16.5t26 39.5h-66l21 109h149l-18 -93q-13 -66 -59.5 -93.5t-118.5 -31.5z" />
    <glyph glyph-name="zero.denominator" horiz-adv-x="419" 
d="M180 -9q-37 0 -69.5 10.5t-56.5 31.5t-38 52.5t-14 74.5q0 48 16 92.5t45 78.5t69.5 54t90.5 20q36 0 67.5 -11t55 -32.5t37 -53.5t13.5 -74q0 -49 -15 -93t-42.5 -77.5t-67.5 -53t-91 -19.5zM132 151q0 -27 10.5 -47.5t40.5 -20.5q24 1 40.5 18t26 41.5t14 52t4.5 48.5
q0 13 -2 26.5t-7 24t-15 17t-25 6.5q-24 0 -40.5 -18t-27 -44t-15 -54.5t-4.5 -49.5z" />
    <glyph glyph-name="one.denominator" horiz-adv-x="277" 
d="M268 401l-78 -401h-136l43 220h-89l18 90q102 5 136 91h106z" />
    <glyph glyph-name="two.denominator" horiz-adv-x="388" 
d="M239 274q0 17 -11 25t-28 8q-23 0 -39.5 -18t-22.5 -47h-122q6 41 24 71.5t44 51t59 30.5t69 10q28 0 55.5 -7t49.5 -21t35 -37t13 -54q0 -36 -15.5 -63t-40.5 -45q-18 -13 -37 -23t-37.5 -19t-35 -17.5t-29.5 -17.5v-1h164l-20 -100h-346q8 51 30 83t52 54
q35 28 71 45.5t69 34.5q22 11 35.5 22.5t13.5 34.5z" />
    <glyph glyph-name="three.denominator" horiz-adv-x="387" 
d="M20 272q6 29 21.5 53.5t39.5 42t55.5 27.5t68.5 10q30 0 57.5 -6.5t49.5 -20.5t34.5 -35.5t12.5 -50.5q-1 -31 -19.5 -54t-46.5 -34v-1q23 -11 38 -31.5t15 -49.5q0 -35 -16 -60t-41.5 -41t-57.5 -23.5t-63 -7.5q-35 0 -67 8.5t-57 26t-39.5 44.5t-14.5 65h122
q1 -25 15 -39t41 -14q21 0 37 11t16 32q0 39 -54 39h-26l16 80h27q24 0 39.5 9t15.5 29t-13.5 27.5t-30.5 7.5q-23 0 -37.5 -13t-19.5 -31h-118z" />
    <glyph glyph-name="four.denominator" horiz-adv-x="407" 
d="M234 401h129l-45 -232h57l-18 -85h-56l-16 -84h-127l16 84h-192l19 94zM213 282h-1l-117 -112v-1h96z" />
    <glyph glyph-name="five.denominator" horiz-adv-x="378" 
d="M14 168l70 229h267l-18 -92h-175l-19 -63h2q14 11 33 19t48 8q56 0 88 -34t32 -88q0 -40 -15 -69.5t-40.5 -49t-58 -29t-68.5 -9.5q-72 0 -119.5 34.5t-50.5 94.5h116q5 -20 19.5 -29t34.5 -9q28 0 42.5 18t14.5 44t-13.5 37t-32.5 11q-17 0 -30.5 -5.5t-22.5 -17.5h-104
z" />
    <glyph glyph-name="six.denominator" horiz-adv-x="386" 
d="M173 -9q-75 0 -122 41.5t-47 124.5q0 51 18 104.5t62 92.5q28 25 60.5 38t75.5 13q62 0 104 -27.5t50 -87.5h-122q-2 15 -10.5 24t-26.5 9q-27 0 -49.5 -25t-33.5 -67h1q18 19 42.5 28.5t50.5 9.5q25 0 48 -7.5t40 -22.5t27.5 -37t10.5 -51q0 -37 -14 -66.5t-38 -50.5
t-56.5 -32t-70.5 -11zM125 124q0 -22 13 -34t36 -12t40.5 16.5t17.5 44.5q0 22 -13.5 35t-36.5 13t-40 -17.5t-17 -45.5z" />
    <glyph glyph-name="seven.denominator" horiz-adv-x="359" 
d="M219 294h-190l20 103h317l-18 -91q-63 -51 -109.5 -129.5t-66.5 -176.5h-140q23 97 73.5 169.5t113.5 123.5v1z" />
    <glyph glyph-name="eight.denominator" horiz-adv-x="392" 
d="M78 213q-20 12 -30.5 31t-10.5 40q0 34 16 57t40.5 37t54 20.5t55.5 6.5q32 0 61.5 -6t52 -19t36 -33.5t12.5 -49.5q-1 -36 -21.5 -58t-46.5 -34v-2q27 -13 42 -34t15 -51q0 -36 -17 -60.5t-44.5 -39.5t-61.5 -21.5t-68 -6.5q-33 0 -64.5 6t-56 19.5t-39 35t-14.5 52.5
q0 45 27 70.5t62 37.5v2zM197 242q21 0 35.5 12.5t14.5 32.5q0 23 -14 32.5t-31 9.5q-21 0 -34.5 -13.5t-13.5 -33.5t12.5 -30t30.5 -10zM168 72q25 0 42 14.5t17 39.5q0 23 -16 34t-36 11q-24 0 -41.5 -14t-17.5 -38t17.5 -35.5t34.5 -11.5z" />
    <glyph glyph-name="nine.denominator" horiz-adv-x="386" 
d="M195 405q75 0 121 -41t46 -124q0 -51 -17 -105.5t-59 -93.5q-27 -26 -63 -38t-79 -12q-62 0 -105.5 27.5t-50.5 87.5h122q5 -33 41 -33q27 0 50.5 22t32.5 70h-1q-18 -19 -42.5 -28.5t-50.5 -9.5q-25 0 -48 7.5t-40 22.5t-27.5 37.5t-10.5 51.5q0 36 14 65t38 50t57 32.5
t72 11.5zM241 272q0 22 -13 34t-36 12t-40.5 -16.5t-17.5 -44.5q0 -22 13.5 -35t36.5 -13t40 17.5t17 45.5z" />
    <glyph glyph-name="zero.numerator" horiz-adv-x="419" 
d="M241 309q-37 0 -69.5 10.5t-56.5 31.5t-38 52.5t-14 74.5q0 48 16 92.5t45 78.5t69.5 54t90.5 20q36 0 67.5 -11t55 -32.5t37 -53.5t13.5 -74q0 -49 -15 -93t-42.5 -77.5t-67.5 -53t-91 -19.5zM193 469q0 -27 10.5 -47.5t40.5 -20.5q24 1 40.5 18t26 41.5t14 52t4.5 48.5
q0 13 -2 26.5t-7 24t-15 17t-25 6.5q-24 0 -40.5 -18t-27 -44t-15 -54.5t-4.5 -49.5z" />
    <glyph glyph-name="one.numerator" horiz-adv-x="277" 
d="M329 719l-78 -401h-136l43 220h-89l18 90q102 5 136 91h106z" />
    <glyph glyph-name="two.numerator" horiz-adv-x="388" 
d="M300 592q0 17 -11 25t-28 8q-23 0 -39.5 -18t-22.5 -47h-122q6 41 24 71.5t44 51t59 30.5t69 10q28 0 55.5 -7t49.5 -21t35 -37t13 -54q0 -36 -15.5 -63t-40.5 -45q-18 -13 -37 -23t-37.5 -19t-35 -17.5t-29.5 -17.5v-1h164l-20 -100h-346q8 51 30 83t52 54
q35 28 71 45.5t69 34.5q22 11 35.5 22.5t13.5 34.5z" />
    <glyph glyph-name="three.numerator" horiz-adv-x="387" 
d="M81 590q6 29 21.5 53.5t39.5 42t55.5 27.5t68.5 10q30 0 57.5 -6.5t49.5 -20.5t34.5 -35.5t12.5 -50.5q-1 -31 -19.5 -54t-46.5 -34v-1q23 -11 38 -31.5t15 -49.5q0 -35 -16 -60t-41.5 -41t-57.5 -23.5t-63 -7.5q-35 0 -67 8.5t-57 26t-39.5 44.5t-14.5 65h122
q1 -25 15 -39t41 -14q21 0 37 11t16 32q0 39 -54 39h-26l16 80h27q24 0 39.5 9t15.5 29t-13.5 27.5t-30.5 7.5q-23 0 -37.5 -13t-19.5 -31h-118z" />
    <glyph glyph-name="four.numerator" horiz-adv-x="407" 
d="M295 719h129l-45 -232h57l-18 -85h-56l-16 -84h-127l16 84h-192l19 94zM274 600h-1l-117 -112v-1h96z" />
    <glyph glyph-name="five.numerator" horiz-adv-x="378" 
d="M75 486l70 229h267l-18 -92h-175l-19 -63h2q14 11 33 19t48 8q56 0 88 -34t32 -88q0 -40 -15 -69.5t-40.5 -49t-58 -29t-68.5 -9.5q-72 0 -119.5 34.5t-50.5 94.5h116q5 -20 19.5 -29t34.5 -9q28 0 42.5 18t14.5 44t-13.5 37t-32.5 11q-17 0 -30.5 -5.5t-22.5 -17.5h-104
z" />
    <glyph glyph-name="six.numerator" horiz-adv-x="386" 
d="M234 309q-75 0 -122 41.5t-47 124.5q0 51 18 104.5t62 92.5q28 25 60.5 38t75.5 13q62 0 104 -27.5t50 -87.5h-122q-2 15 -10.5 24t-26.5 9q-27 0 -49.5 -25t-33.5 -67h1q18 19 42.5 28.5t50.5 9.5q25 0 48 -7.5t40 -22.5t27.5 -37t10.5 -51q0 -37 -14 -66.5t-38 -50.5
t-56.5 -32t-70.5 -11zM186 442q0 -22 13 -34t36 -12t40.5 16.5t17.5 44.5q0 22 -13.5 35t-36.5 13t-40 -17.5t-17 -45.5z" />
    <glyph glyph-name="seven.numerator" horiz-adv-x="359" 
d="M280 612h-190l20 103h317l-18 -91q-63 -51 -109.5 -129.5t-66.5 -176.5h-140q23 97 73.5 169.5t113.5 123.5v1z" />
    <glyph glyph-name="eight.numerator" horiz-adv-x="392" 
d="M139 531q-20 12 -30.5 31t-10.5 40q0 34 16 57t40.5 37t54 20.5t55.5 6.5q32 0 61.5 -6t52 -19t36 -33.5t12.5 -49.5q-1 -36 -21.5 -58t-46.5 -34v-2q27 -13 42 -34t15 -51q0 -36 -17 -60.5t-44.5 -39.5t-61.5 -21.5t-68 -6.5q-33 0 -64.5 6t-56 19.5t-39 35t-14.5 52.5
q0 45 27 70.5t62 37.5v2zM258 560q21 0 35.5 12.5t14.5 32.5q0 23 -14 32.5t-31 9.5q-21 0 -34.5 -13.5t-13.5 -33.5t12.5 -30t30.5 -10zM229 390q25 0 42 14.5t17 39.5q0 23 -16 34t-36 11q-24 0 -41.5 -14t-17.5 -38t17.5 -35.5t34.5 -11.5z" />
    <glyph glyph-name="nine.numerator" horiz-adv-x="386" 
d="M256 723q75 0 121 -41t46 -124q0 -51 -17 -105.5t-59 -93.5q-27 -26 -63 -38t-79 -12q-62 0 -105.5 27.5t-50.5 87.5h122q5 -33 41 -33q27 0 50.5 22t32.5 70h-1q-18 -19 -42.5 -28.5t-50.5 -9.5q-25 0 -48 7.5t-40 22.5t-27.5 37.5t-10.5 51.5q0 36 14 65t38 50t57 32.5
t72 11.5zM302 590q0 22 -13 34t-36 12t-40.5 -16.5t-17.5 -44.5q0 -22 13.5 -35t36.5 -13t40 17.5t17 45.5z" />
    <glyph glyph-name="acute.cap" 
d="M391 746h-140l64 135h208z" />
    <glyph glyph-name="breve.cap" 
d="M379 738q-77 0 -119.5 42t-44.5 116h104q2 -20 17 -33t47 -13t51 14.5t23 31.5h104q-10 -76 -61 -117t-121 -41z" />
    <glyph glyph-name="caron.alt" 
d="M239 576q29 2 43 11t18 27h-53l19 101h124l-16 -83q-10 -51 -43 -77.5t-101 -28.5z" />
    <glyph glyph-name="caron.cap" 
d="M427 746h-165l-93 137h149l35 -51h2l47 51h164z" />
    <glyph glyph-name="circumflex.cap" 
d="M281 883h165l93 -137h-149l-35 51h-2l-47 -51h-164z" />
    <glyph glyph-name="commaaccent.alt" 
d="M58 -210q34 5 55 16.5t26 39.5h-66l21 109h149l-18 -93q-13 -66 -59.5 -93.5t-118.5 -31.5z" />
    <glyph glyph-name="dieresis.cap" 
d="M394 895h175l-27 -143h-175zM169 895h175l-27 -143h-175z" />
    <glyph glyph-name="dotaccent.cap" 
d="M276 895h186l-27 -143h-186z" />
    <glyph glyph-name="grave.cap" 
d="M197 881h204l30 -135h-140z" />
    <glyph glyph-name="hungarumlaut.cap" 
d="M451 901h184l-134 -155h-117zM238 901h184l-134 -155h-117z" />
    <glyph glyph-name="macron.cap" 
d="M222 867h284l-21 -106h-284z" />
    <glyph glyph-name="ring.cap" 
d="M360 735q-22 0 -41.5 8t-34 21.5t-23 32t-8.5 40.5t8.5 40.5t23 32.5t34 22t41.5 8t41.5 -8t34 -22t23 -32.5t8.5 -40.5t-8.5 -40.5t-23 -32t-34 -21.5t-41.5 -8zM360 799q17 0 27.5 11.5t10.5 26.5t-10.5 27t-27.5 12t-27.5 -12t-10.5 -27t10.5 -26.5t27.5 -11.5z" />
    <glyph glyph-name="tilde.cap" 
d="M159 744q13 78 52 115t87 37q22 0 38.5 -6t30 -13t25.5 -13t24 -6q17 0 25.5 10.5t13.5 27.5h94q-11 -66 -44 -106.5t-87 -40.5q-24 0 -41.5 6t-32 12.5t-26.5 12.5t-24 6q-30 0 -41 -42h-94v0z" />
    <glyph glyph-name="R.alt" horiz-adv-x="676" 
d="M331 231h-89l-44 -231h-206l138 715h292q78 0 126.5 -16t80.5 -48q27 -28 42.5 -65t15.5 -83q0 -89 -45 -150.5t-117 -92.5l104 -260h-218zM273 389h115q38 0 65.5 21.5t27.5 69.5q0 30 -19.5 47t-55.5 17h-103z" />
    <glyph glyph-name="Racute.alt" horiz-adv-x="676" 
d="M331 231h-89l-44 -231h-206l138 715h292q78 0 126.5 -16t80.5 -48q27 -28 42.5 -65t15.5 -83q0 -89 -45 -150.5t-117 -92.5l104 -260h-218zM273 389h115q38 0 65.5 21.5t27.5 69.5q0 30 -19.5 47t-55.5 17h-103zM463 746h-140l64 135h208z" />
    <glyph glyph-name="Rcaron.alt" horiz-adv-x="676" 
d="M331 231h-89l-44 -231h-206l138 715h292q78 0 126.5 -16t80.5 -48q27 -28 42.5 -65t15.5 -83q0 -89 -45 -150.5t-117 -92.5l104 -260h-218zM480 746h-165l-93 137h149l35 -51h2l47 51h164zM273 389h115q38 0 65.5 21.5t27.5 69.5q0 30 -19.5 47t-55.5 17h-103z" />
    <glyph glyph-name="Rcommaaccent.alt" horiz-adv-x="676" 
d="M331 231h-89l-44 -231h-206l138 715h292q78 0 126.5 -16t80.5 -48q27 -28 42.5 -65t15.5 -83q0 -89 -45 -150.5t-117 -92.5l104 -260h-218zM273 389h115q38 0 65.5 21.5t27.5 69.5q0 30 -19.5 47t-55.5 17h-103zM183 -210q34 5 55 16.5t26 39.5h-66l21 109h149l-18 -93
q-13 -66 -59.5 -93.5t-118.5 -31.5z" />
    <glyph glyph-name="Tcommaaccent" horiz-adv-x="630" 
d="M103 715h600l-34 -176h-199l-104 -539h-205l104 539h-196zM144 -210q34 5 55 16.5t26 39.5h-66l21 109h149l-18 -93q-13 -66 -59.5 -93.5t-118.5 -31.5z" />
    <glyph glyph-name="idotaccent" horiz-adv-x="253" 
d="M82 510h186l-99 -510h-186zM121 715h186l-27 -143h-186z" />
    <glyph glyph-name="tcommaaccent" horiz-adv-x="364" 
d="M56 510h65l32 165h182l-32 -165h95l-23 -113h-95l-40 -211q-5 -30 5 -41.5t42 -11.5q8 0 18 0.5t18 1.5l-26 -132q-17 -5 -39.5 -9t-53.5 -4q-94 0 -131 43t-20 128l45 236h-65zM27 -210q34 5 55 16.5t26 39.5h-66l21 109h149l-18 -93q-13 -66 -59.5 -93.5t-118.5 -31.5z
" />
    <glyph glyph-name="space_uni0326" 
d="M78 -210q34 5 55 16.5t26 39.5h-66l21 109h149l-18 -93q-13 -66 -59.5 -93.5t-118.5 -31.5z" />
    <glyph glyph-name="space_uni0326.alt" 
d="M417 737q-34 -5 -55 -16.5t-26 -39.5h66l-21 -109h-149l18 93q13 66 59.5 93.5t118.5 31.5z" />
    <glyph glyph-name="a.alt" horiz-adv-x="545" 
d="M486 141q-4 -20 4.5 -25t20.5 -3h3l-20 -107q-11 -5 -32 -10t-47 -5q-56 0 -81.5 17.5t-33.5 50.5h-2q-13 -20 -31 -34t-37.5 -22.5t-39.5 -12t-38 -3.5q-79 0 -120 39t-41 105q0 86 56 124t162 45q33 2 58.5 5t42.5 10t25.5 18t8.5 30q0 16 -11 28t-37 12q-63 0 -78 -61
h-177q7 40 26.5 74t51.5 58.5t78.5 38t109.5 13.5q42 0 82 -7t72 -28q35 -23 53.5 -66.5t4.5 -115.5zM226 100q29 0 53.5 17.5t34.5 65.5l9 45q-28 -12 -76 -20q-13 -2 -26.5 -5t-25 -9.5t-18.5 -17.5t-7 -29q0 -26 15 -36.5t41 -10.5z" />
    <glyph glyph-name="agrave.alt" horiz-adv-x="545" 
d="M486 141q-4 -20 4.5 -25t20.5 -3h3l-20 -107q-11 -5 -32 -10t-47 -5q-56 0 -81.5 17.5t-33.5 50.5h-2q-13 -20 -31 -34t-37.5 -22.5t-39.5 -12t-38 -3.5q-79 0 -120 39t-41 105q0 86 56 124t162 45q33 2 58.5 5t42.5 10t25.5 18t8.5 30q0 16 -11 28t-37 12q-63 0 -78 -61
h-177q7 40 26.5 74t51.5 58.5t78.5 38t109.5 13.5q42 0 82 -7t72 -28q35 -23 53.5 -66.5t4.5 -115.5zM226 100q29 0 53.5 17.5t34.5 65.5l9 45q-28 -12 -76 -20q-13 -2 -26.5 -5t-25 -9.5t-18.5 -17.5t-7 -29q0 -26 15 -36.5t41 -10.5zM157 721h203l45 -155h-140z" />
    <glyph glyph-name="aacute.alt" horiz-adv-x="545" 
d="M486 141q-4 -20 4.5 -25t20.5 -3h3l-20 -107q-11 -5 -32 -10t-47 -5q-56 0 -81.5 17.5t-33.5 50.5h-2q-13 -20 -31 -34t-37.5 -22.5t-39.5 -12t-38 -3.5q-79 0 -120 39t-41 105q0 86 56 124t162 45q33 2 58.5 5t42.5 10t25.5 18t8.5 30q0 16 -11 28t-37 12q-63 0 -78 -61
h-177q7 40 26.5 74t51.5 58.5t78.5 38t109.5 13.5q42 0 82 -7t72 -28q35 -23 53.5 -66.5t4.5 -115.5zM226 100q29 0 53.5 17.5t34.5 65.5l9 45q-28 -12 -76 -20q-13 -2 -26.5 -5t-25 -9.5t-18.5 -17.5t-7 -29q0 -26 15 -36.5t41 -10.5zM325 721h212l-150 -155h-140z" />
    <glyph glyph-name="acircumflex.alt" horiz-adv-x="545" 
d="M486 141q-4 -20 4.5 -25t20.5 -3h3l-20 -107q-11 -5 -32 -10t-47 -5q-56 0 -81.5 17.5t-33.5 50.5h-2q-13 -20 -31 -34t-37.5 -22.5t-39.5 -12t-38 -3.5q-79 0 -120 39t-41 105q0 86 56 124t162 45q33 2 58.5 5t42.5 10t25.5 18t8.5 30q0 16 -11 28t-37 12q-63 0 -78 -61
h-177q7 40 26.5 74t51.5 58.5t78.5 38t109.5 13.5q42 0 82 -7t72 -28q35 -23 53.5 -66.5t4.5 -115.5zM226 100q29 0 53.5 17.5t34.5 65.5l9 45q-28 -12 -76 -20q-13 -2 -26.5 -5t-25 -9.5t-18.5 -17.5t-7 -29q0 -26 15 -36.5t41 -10.5zM264 715h165l90 -149h-151l-31 63h-2
l-51 -63h-162z" />
    <glyph glyph-name="atilde.alt" horiz-adv-x="545" 
d="M486 141q-4 -20 4.5 -25t20.5 -3h3l-20 -107q-11 -5 -32 -10t-47 -5q-56 0 -81.5 17.5t-33.5 50.5h-2q-13 -20 -31 -34t-37.5 -22.5t-39.5 -12t-38 -3.5q-79 0 -120 39t-41 105q0 86 56 124t162 45q33 2 58.5 5t42.5 10t25.5 18t8.5 30q0 16 -11 28t-37 12q-63 0 -78 -61
h-177q7 40 26.5 74t51.5 58.5t78.5 38t109.5 13.5q42 0 82 -7t72 -28q35 -23 53.5 -66.5t4.5 -115.5zM226 100q29 0 53.5 17.5t34.5 65.5l9 45q-28 -12 -76 -20q-13 -2 -26.5 -5t-25 -9.5t-18.5 -17.5t-7 -29q0 -26 15 -36.5t41 -10.5zM135 564q13 78 52 115t87 37
q22 0 37.5 -6t28 -13t23.5 -13t23 -6q17 0 25.5 10.5t13.5 27.5h94q-11 -66 -44 -106.5t-87 -40.5q-24 0 -41 6t-30 12.5t-24 12.5t-23 6q-30 0 -41 -42h-94z" />
    <glyph glyph-name="adieresis.alt" horiz-adv-x="545" 
d="M486 141q-4 -20 4.5 -25t20.5 -3h3l-20 -107q-11 -5 -32 -10t-47 -5q-56 0 -81.5 17.5t-33.5 50.5h-2q-13 -20 -31 -34t-37.5 -22.5t-39.5 -12t-38 -3.5q-79 0 -120 39t-41 105q0 86 56 124t162 45q33 2 58.5 5t42.5 10t25.5 18t8.5 30q0 16 -11 28t-37 12q-63 0 -78 -61
h-177q7 40 26.5 74t51.5 58.5t78.5 38t109.5 13.5q42 0 82 -7t72 -28q35 -23 53.5 -66.5t4.5 -115.5zM226 100q29 0 53.5 17.5t34.5 65.5l9 45q-28 -12 -76 -20q-13 -2 -26.5 -5t-25 -9.5t-18.5 -17.5t-7 -29q0 -26 15 -36.5t41 -10.5zM380 715h175l-27 -143h-175zM155 715
h175l-27 -143h-175z" />
    <glyph glyph-name="amacron.alt" horiz-adv-x="545" 
d="M486 141q-4 -20 4.5 -25t20.5 -3h3l-20 -107q-11 -5 -32 -10t-47 -5q-56 0 -81.5 17.5t-33.5 50.5h-2q-13 -20 -31 -34t-37.5 -22.5t-39.5 -12t-38 -3.5q-79 0 -120 39t-41 105q0 86 56 124t162 45q33 2 58.5 5t42.5 10t25.5 18t8.5 30q0 16 -11 28t-37 12q-63 0 -78 -61
h-177q7 40 26.5 74t51.5 58.5t78.5 38t109.5 13.5q42 0 82 -7t72 -28q35 -23 53.5 -66.5t4.5 -115.5zM226 100q29 0 53.5 17.5t34.5 65.5l9 45q-28 -12 -76 -20q-13 -2 -26.5 -5t-25 -9.5t-18.5 -17.5t-7 -29q0 -26 15 -36.5t41 -10.5zM196 687h284l-21 -106h-284z" />
    <glyph glyph-name="abreve.alt" horiz-adv-x="545" 
d="M486 141q-4 -20 4.5 -25t20.5 -3h3l-20 -107q-11 -5 -32 -10t-47 -5q-56 0 -81.5 17.5t-33.5 50.5h-2q-13 -20 -31 -34t-37.5 -22.5t-39.5 -12t-38 -3.5q-79 0 -120 39t-41 105q0 86 56 124t162 45q33 2 58.5 5t42.5 10t25.5 18t8.5 30q0 16 -11 28t-37 12q-63 0 -78 -61
h-177q7 40 26.5 74t51.5 58.5t78.5 38t109.5 13.5q42 0 82 -7t72 -28q35 -23 53.5 -66.5t4.5 -115.5zM226 100q29 0 53.5 17.5t34.5 65.5l9 45q-28 -12 -76 -20q-13 -2 -26.5 -5t-25 -9.5t-18.5 -17.5t-7 -29q0 -26 15 -36.5t41 -10.5zM329 558q-77 0 -122.5 41.5
t-44.5 116.5h104q2 -20 17 -33t47 -13t51 14.5t23 31.5h104q-5 -39 -20.5 -68.5t-39 -49.5t-54.5 -30t-65 -10z" />
    <glyph glyph-name="aring.alt" horiz-adv-x="545" 
d="M486 141q-4 -20 4.5 -25t20.5 -3h3l-20 -107q-11 -5 -32 -10t-47 -5q-56 0 -81.5 17.5t-33.5 50.5h-2q-13 -20 -31 -34t-37.5 -22.5t-39.5 -12t-38 -3.5q-79 0 -120 39t-41 105q0 86 56 124t162 45q33 2 58.5 5t42.5 10t25.5 18t8.5 30q0 16 -11 28t-37 12q-63 0 -78 -61
h-177q7 40 26.5 74t51.5 58.5t78.5 38t109.5 13.5q42 0 82 -7t72 -28q35 -23 53.5 -66.5t4.5 -115.5zM226 100q29 0 53.5 17.5t34.5 65.5l9 45q-28 -12 -76 -20q-13 -2 -26.5 -5t-25 -9.5t-18.5 -17.5t-7 -29q0 -26 15 -36.5t41 -10.5zM330 555q-22 0 -41.5 8t-34 21.5
t-23 32t-8.5 40.5t8.5 40.5t23 32.5t34 22t41.5 8t41.5 -8t34 -22t23 -32.5t8.5 -40.5t-8.5 -40.5t-23 -32t-34 -21.5t-41.5 -8zM330 619q17 0 27.5 11.5t10.5 26.5t-10.5 27t-27.5 12t-27.5 -12t-10.5 -27t10.5 -26.5t27.5 -11.5z" />
    <glyph glyph-name="aogonek.alt" horiz-adv-x="545" 
d="M486 141q-4 -20 4.5 -25t20.5 -3h3l-20 -107q-30 -13 -54.5 -32t-24.5 -38q0 -21 27 -21q17 0 31 7h2l-18 -92q-11 -4 -27 -6.5t-35 -2.5q-66 0 -94.5 23.5t-28.5 58.5q0 18 7.5 32.5t19.5 26t27.5 20.5t31.5 16q-26 8 -39.5 23t-18.5 38h-2q-13 -20 -31 -34t-37.5 -22.5
t-39.5 -12t-38 -3.5q-79 0 -120 39t-41 105q0 86 56 124t162 45q33 2 58.5 5t42.5 10t25.5 18t8.5 30q0 16 -11 28t-37 12q-63 0 -78 -61h-177q7 40 26.5 74t51.5 58.5t78.5 38t109.5 13.5q42 0 82 -7t72 -28q35 -23 53.5 -66.5t4.5 -115.5zM226 100q29 0 53.5 17.5
t34.5 65.5l9 45q-28 -12 -76 -20q-13 -2 -26.5 -5t-25 -9.5t-18.5 -17.5t-7 -29q0 -26 15 -36.5t41 -10.5z" />
    <glyph glyph-name="Ccedilla.alt" horiz-adv-x="706" 
d="M227 -124q42 2 61 11t24 29h-76l16 80q-103 25 -163.5 101.5t-60.5 203.5q0 86 27.5 163.5t78.5 136t122.5 93t160.5 34.5q69 0 119.5 -13.5t87.5 -41.5q51 -38 75.5 -94.5t27.5 -128.5h-207q-1 47 -26 77t-80 30q-47 0 -80 -22.5t-54.5 -58.5t-31.5 -80.5t-10 -89.5
q0 -30 6.5 -58t21 -49t37.5 -33.5t57 -12.5q50 0 85.5 28t48.5 85h210q-12 -66 -40.5 -116t-67.5 -84.5t-87.5 -54t-101.5 -25.5l-13 -63q-9 -43 -49.5 -67.5t-126.5 -25.5z" />
    <glyph glyph-name="Scedilla.alt" horiz-adv-x="642" 
d="M192 -124q42 2 61 11t24 29h-76l15 75q-45 7 -85.5 23t-71.5 44.5t-49.5 70t-17.5 99.5h211q1 -42 32 -63.5t81 -21.5q18 0 34.5 2.5t29.5 9.5t21 19t8 30q0 13 -9.5 23t-26 18.5t-40 16.5t-51.5 18q-48 17 -88 35.5t-68.5 43t-44 57t-15.5 77.5q0 59 22 103t61 73.5
t91 44t112 14.5q50 0 101.5 -10t93.5 -34.5t67.5 -67t22.5 -106.5h-203q-2 32 -25.5 48.5t-62.5 16.5q-14 0 -28.5 -3t-26 -9t-18.5 -16t-7 -23q0 -15 9 -24.5t28.5 -17.5t49.5 -17.5t73 -24.5q38 -13 73.5 -29.5t62.5 -40t43.5 -56.5t16.5 -79q0 -56 -20 -99.5t-54.5 -74
t-79.5 -49t-96 -25.5l-13 -64q-9 -43 -49.5 -67.5t-126.5 -25.5z" />
    <glyph glyph-name="ccedilla.alt" horiz-adv-x="550" 
d="M138 -124q38 2 55.5 12t22.5 28h-69l16 83q-33 10 -61.5 27t-49 43t-32 61t-11.5 80q0 66 21.5 123.5t61 100t95.5 67t124 24.5q50 0 92.5 -12t74 -37t49.5 -63.5t19 -91.5h-176q-2 31 -15 52t-48 21q-30 0 -51 -18.5t-34.5 -46.5t-19.5 -60.5t-6 -60.5q0 -18 3.5 -35
t11.5 -29.5t22 -20t34 -7.5q32 0 57 22t36 68h175q-17 -97 -78.5 -152.5t-147.5 -66.5l-12 -57q-9 -46 -48 -72.5t-120 -27.5z" />
    <glyph glyph-name="scedilla.alt" horiz-adv-x="515" 
d="M117 -124q38 2 55.5 12t22.5 28h-69l15 77q-30 7 -57 20t-47.5 33.5t-32 50t-11.5 68.5h176q1 -30 17.5 -48.5t58.5 -18.5q26 0 42.5 9.5t16.5 32.5q0 13 -8.5 21.5t-23 14.5t-34.5 10.5t-43 10.5q-35 9 -64 20.5t-50 29t-32.5 41.5t-11.5 59q0 44 18.5 77.5t51 56
t76.5 34t95 11.5q42 0 82 -7.5t72 -25.5t51.5 -48.5t21.5 -76.5h-171q-2 25 -19.5 35.5t-44.5 10.5q-22 0 -40 -8.5t-18 -26.5q0 -19 22.5 -29.5t72.5 -21.5q32 -8 63.5 -18.5t56 -27.5t40 -43t15.5 -64q0 -86 -52 -132.5t-142 -56.5l-12 -56q-9 -46 -48 -72.5t-120 -27.5z
" />
    <glyph glyph-name="hyphen.cap" horiz-adv-x="336" 
d="M50 417h298l-36 -181h-298z" />
    <glyph glyph-name="endash.cap" horiz-adv-x="500" 
d="M70 408h417l-32 -161h-417z" />
    <glyph glyph-name="emdash.cap" horiz-adv-x="1000" 
d="M129 408h800l-32 -161h-800z" />
    <glyph glyph-name="questiondown.cap" horiz-adv-x="559" 
d="M415 457q-6 -32 -11.5 -54.5t-12.5 -39t-16.5 -29.5t-23.5 -25q-19 -16 -44 -28.5t-47 -25t-37 -27.5t-15 -36q0 -26 16.5 -38t42.5 -12q32 0 55.5 19.5t31.5 62.5h191q-10 -62 -35.5 -106.5t-64.5 -73.5t-89 -43t-109 -14q-39 0 -81.5 8t-78 28t-59 55.5t-23.5 91.5
q0 60 29.5 104.5t85.5 71.5q42 21 64 32.5t36 22.5q15 11 20 25t8 31h167zM444 524h-192l37 191h192z" />
    <glyph glyph-name="exclamdown.cap" horiz-adv-x="269" 
d="M213 174l-33 -174h-192l36 186l101 271h99zM281 524h-192l37 191h192z" />
    <glyph glyph-name="parenleft.cap" horiz-adv-x="330" 
d="M89 -89q-18 49 -33.5 112.5t-15.5 152.5q0 92 16.5 178t44.5 162t65 140.5t79 112.5h163q-87 -128 -140 -278.5t-53 -322.5q0 -92 9 -153.5t18 -103.5h-153v0z" />
    <glyph glyph-name="parenright.cap" horiz-adv-x="330" 
d="M271 769q18 -49 33.5 -112.5t15.5 -152.5q0 -92 -16.5 -178t-44.5 -162t-65 -140.5t-79 -112.5h-163q87 127 140 278t53 323q0 92 -9 153.5t-18 103.5h153v0z" />
    <glyph glyph-name="bracketleft.cap" horiz-adv-x="407" 
d="M149 769h323l-28 -144h-149l-111 -572h149l-28 -142h-322z" />
    <glyph glyph-name="bracketright.cap" horiz-adv-x="407" 
d="M-6 53h149l111 572h-149l28 144h323l-166 -858h-324z" />
    <glyph glyph-name="braceleft.cap" horiz-adv-x="407" 
d="M297 -89q-64 0 -110 11t-73.5 36t-36 65.5t2.5 99.5l16 81q7 35 -7.5 54t-60.5 23l27 139q49 0 69 15t27 51l20 102q10 51 28.5 85.5t47 56t67 30.5t88.5 9h70l-28 -145h-22q-37 0 -56 -13t-26 -49l-24 -122q-5 -26 -13 -43.5t-19 -29.5t-25.5 -19.5t-32.5 -13.5v-3
q15 -8 26.5 -17.5t17.5 -22.5t7 -31t-4 -44l-22 -105q-8 -36 10 -46.5t57 -10.5h14l-27 -143h-8z" />
    <glyph glyph-name="braceright.cap" horiz-adv-x="407" 
d="M141 769q64 0 110 -11t73.5 -36t36 -65.5t-2.5 -99.5l-16 -81q-7 -35 7.5 -54t60.5 -23l-27 -139q-49 0 -69 -15t-27 -51l-20 -102q-10 -51 -28.5 -85.5t-47 -56t-67 -30.5t-88.5 -9h-70l27 143h23q37 0 56 13t26 49l24 124q5 26 13 43.5t19 29.5t25.5 19.5t32.5 13.5v3
q-15 8 -26.5 17.5t-17.5 22.5t-7 31t4 44l22 103q8 36 -10 46.5t-57 10.5h-15l28 145h8z" />
    <glyph glyph-name="guillemotleft.cap" horiz-adv-x="425" 
d="M27 230l35 180l185 125l-31 -160l-93 -64v-2l68 -64l-29 -151zM221 230l35 180l181 125l-31 -160l-89 -64v-2l64 -64l-29 -151z" />
    <glyph glyph-name="guillemotright.cap" horiz-adv-x="425" 
d="M419 399l-35 -180l-185 -125l31 160l93 64v2l-68 64l29 151zM225 399l-35 -180l-181 -125l31 160l89 64v2l-64 64l29 151z" />
    <glyph glyph-name="guilsinglleft.cap" horiz-adv-x="248" 
d="M27 228l35 182l200 137l-33 -173l-93 -64v-2l68 -64l-32 -162z" />
    <glyph glyph-name="guilsinglright.cap" horiz-adv-x="248" 
d="M242 401l-35 -182l-200 -137l33 173l93 64v2l-68 64l32 162z" />
    <glyph glyph-name="registered.alt" horiz-adv-x="805" 
d="M424 -17q-77 0 -144.5 28t-117.5 77.5t-78.5 118t-28.5 148.5t28.5 148.5t78.5 118.5t117.5 78t144.5 28t144.5 -28t117.5 -78t78.5 -118.5t28.5 -148.5t-28.5 -148.5t-78.5 -118t-117.5 -77.5t-144.5 -28zM424 37q65 0 121 24t97 66.5t64 101t23 126.5t-23 126.5
t-64 101t-97 66.5t-121 24t-121 -24t-97 -66.5t-64 -101t-23 -126.5t23 -126.5t64 -101t97 -66.5t121 -24zM254 558h202q32 0 60.5 -7t50.5 -22t34.5 -37.5t12.5 -53.5q0 -35 -17 -59t-49 -38v-2q26 -10 39 -26.5t18 -41.5q4 -18 5 -36t2 -32.5t3.5 -25t8.5 -13.5v-9h-125
q-5 3 -6.5 12.5t-2.5 23t-2.5 28.5t-4.5 29q-6 24 -17.5 34t-37.5 10h-49v-137h-125v403zM379 382h57q52 0 52 41q0 39 -50 39h-59v-80z" />
    <glyph glyph-name="dollar.cap" horiz-adv-x="640" 
d="M236 -12q-50 7 -93.5 25t-75 47.5t-49 71t-16.5 96.5h202q2 -30 16 -52.5t46 -32.5l26 134q-57 24 -97.5 47.5t-66.5 49.5t-38.5 56.5t-12.5 68.5q0 57 23 100.5t63 72t94 42.5t116 14h6l13 65h64l-14 -70q41 -6 79 -20.5t67 -40t46.5 -63t18.5 -89.5h-187q-3 26 -17 41
t-36 22l-24 -124q115 -47 166 -99.5t51 -125.5q0 -64 -24.5 -109.5t-65 -75t-94 -43t-111.5 -13.5h-13l-19 -97h-63zM407 196q0 17 -13 30t-43 27l-23 -115q14 1 28 5t25.5 11t18.5 17t7 25zM271 531q0 -17 13.5 -30.5t45.5 -28.5l21 109q-34 -2 -57 -13t-23 -37z" />
    <glyph glyph-name="Euro.cap" horiz-adv-x="696" 
d="M97 452q21 73 59 125.5t84.5 86.5t98.5 50t102 16q135 0 202.5 -69.5t65.5 -201.5h-198q1 21 -1.5 41.5t-11.5 36t-25 25t-41 9.5q-15 0 -32.5 -5.5t-34 -19.5t-31.5 -37t-27 -57h141l-15 -73h-143q-5 -26 -6 -53h140l-15 -73h-127q2 -51 21.5 -80.5t67.5 -29.5
q46 0 73.5 32t41.5 84h200q-29 -137 -111.5 -206t-210.5 -70q-62 0 -113.5 17.5t-89.5 51.5t-60 84.5t-26 116.5h-59l15 73h44q1 14 2.5 27t3.5 26h-41l15 73h42z" />
    <glyph glyph-name="sterling.cap" horiz-adv-x="620" 
d="M308 303q-4 -41 -27 -70.5t-57 -54.5l2 -4q13 5 24 7t29 2q21 0 40.5 -3.5t38.5 -7.5t37.5 -7.5t37.5 -3.5q25 0 46.5 9t36.5 20l62 -157q-30 -21 -70.5 -35t-82.5 -14q-38 0 -70 8t-60.5 18t-54.5 18t-52 8q-32 0 -61 -11.5t-61 -31.5l-70 140q24 12 45.5 29t38 38.5
t26.5 47.5t10 55h-83l19 98h42q-8 24 -14 49t-6 52q0 59 24.5 102t64.5 71t92 41.5t106 13.5q57 0 109.5 -13t91 -43.5t59 -82t14.5 -127.5h-195q2 22 -1 41.5t-12 34.5t-25.5 23.5t-42.5 8.5q-35 0 -56.5 -22t-21.5 -64q0 -21 5 -41.5t10 -43.5h137l-19 -98h-106z" />
    <glyph glyph-name="yen.cap" horiz-adv-x="693" 
d="M88 318h141l-143 397h220l42 -144q7 -24 12.5 -46.5t9.5 -39.5q4 -20 8 -38h2q8 18 19 36q9 16 21 35.5t26 39.5l107 157h222l-297 -397h142l-15 -73h-168l-10 -53h168l-15 -73h-167l-22 -119h-198l23 119h-167l15 73h165l10 53h-166z" />
    <glyph glyph-name="zero.cap" horiz-adv-x="693" 
d="M329 -16q-66 0 -121 21t-94 60.5t-61 97t-22 130.5q0 82 24.5 160.5t72 140t116.5 99t159 37.5q64 0 118.5 -20t94 -59t61.5 -96t22 -132q0 -83 -24.5 -162t-71.5 -140.5t-116 -99t-158 -37.5zM238 268q0 -25 4 -47.5t15 -40t29 -28t47 -10.5q30 0 53.5 15t41.5 39
t30 55.5t19.5 65t11 66t3.5 59.5q0 23 -4 46.5t-14 42.5t-28.5 31t-46.5 12q-31 0 -55 -15t-42 -40.5t-30 -57.5t-19.5 -66t-11 -67t-3.5 -60z" />
    <glyph glyph-name="one.cap" horiz-adv-x="424" 
d="M191 416h-143l28 143q166 4 227 162h154l-140 -721h-206z" />
    <glyph glyph-name="two.cap" horiz-adv-x="621" 
d="M-27 0q8 44 19.5 78t26.5 61t34.5 49t45.5 43q29 23 62 45t67 42.5t67.5 39t63.5 35.5q47 26 67.5 50.5t20.5 55.5q0 33 -19 50.5t-52 17.5q-47 1 -78 -30q-17 -17 -27.5 -39.5t-16.5 -60.5h-193q5 34 11.5 60.5t14.5 47.5t18.5 39t24.5 35q36 47 100 79t154 32
q49 0 95.5 -11.5t83 -36.5t59 -65.5t22.5 -97.5q0 -76 -34 -126.5t-94 -88.5q-54 -35 -115 -65t-120 -73v-2h301l-32 -164h-577v0z" />
    <glyph glyph-name="three.cap" horiz-adv-x="640" 
d="M315 -17q-65 0 -122 16t-99.5 49t-65.5 83.5t-19 119.5h196q0 -23 5.5 -44t18.5 -36.5t34 -25t52 -9.5q19 0 37.5 6t32.5 17t22.5 27t8.5 36q2 76 -113 76h-30l26 134h47q18 0 36 4t32.5 13t23 23.5t8.5 36.5q1 32 -22 50t-58 18q-48 0 -75.5 -25t-35.5 -68h-193
q8 57 34 103t67 77.5t94.5 48.5t116.5 17q47 0 95.5 -9.5t87.5 -32t64 -60.5t25 -96q0 -56 -30 -97t-88 -64v-2q38 -17 66.5 -53.5t28.5 -93.5q0 -60 -26 -104.5t-69 -74.5t-98.5 -45t-114.5 -15z" />
    <glyph glyph-name="four.cap" horiz-adv-x="661" 
d="M330 162h-330l32 164l408 395h198l-80 -412h98l-29 -147h-98l-31 -162h-199zM185 309h174l40 209h-2l-212 -207v-2z" />
    <glyph glyph-name="five.cap" horiz-adv-x="639" 
d="M305 -17q-57 0 -110 12t-94 39.5t-66.5 73t-29.5 112.5h199q3 -39 31 -59.5t70 -20.5q25 0 46 10t35 27t22 39.5t8 48.5q0 38 -22.5 66t-68.5 28q-26 0 -50.5 -13t-38.5 -33h-189l119 402h465l-31 -158h-309l-32 -106h3q17 14 55 27.5t91 13.5q102 0 158 -59t56 -162
q0 -63 -22.5 -116t-63.5 -91t-99.5 -59.5t-131.5 -21.5z" />
    <glyph glyph-name="six.cap" horiz-adv-x="661" 
d="M325 -17q-64 0 -118 17.5t-93 53.5t-61 90t-22 127q0 46 8.5 96.5t26.5 99t46 93.5t67 81q45 43 106.5 66t133.5 23q48 0 92.5 -10.5t80 -34t58.5 -61.5t28 -93h-198q-2 28 -22.5 43t-51.5 15q-50 0 -89.5 -40t-60.5 -120h2q31 28 69 46t90 18q42 0 83 -14.5t73 -42.5
t51.5 -69.5t19.5 -94.5q0 -68 -25 -121.5t-68.5 -90.5t-101.5 -57t-124 -20zM226 226q0 -42 27 -69t72 -27q25 0 47 9t39 25.5t27 40t10 51.5q0 40 -27.5 67.5t-72.5 27.5q-24 0 -46.5 -9.5t-39 -26t-26.5 -39.5t-10 -50z" />
    <glyph glyph-name="seven.cap" horiz-adv-x="575" 
d="M71 0q22 95 60.5 179t84 153.5t93.5 123.5t90 89v2h-328l33 168h540l-28 -145q-54 -46 -106 -109t-97 -137t-79 -156.5t-52 -167.5h-211v0z" />
    <glyph glyph-name="eight.cap" horiz-adv-x="635" 
d="M297 -18q-53 0 -106 11t-95 36t-68.5 64.5t-26.5 95.5q0 38 11 68t30.5 53t47 39.5t59.5 28.5v3q-33 23 -48.5 55.5t-15.5 70.5q0 52 23.5 93.5t63 70.5t91 44t108.5 15q50 0 98 -11.5t86 -35.5t61.5 -60.5t23.5 -86.5q0 -64 -30.5 -101.5t-84.5 -64.5v-3
q45 -23 67 -61.5t22 -85.5q0 -61 -27 -106t-71.5 -74t-101.5 -43.5t-117 -14.5zM207 211q0 -39 27 -61.5t71 -22.5q21 0 41 7.5t35 20.5t24 32.5t9 43.5q-1 38 -27.5 59.5t-69.5 21.5q-21 0 -40.5 -6.5t-35 -19t-25 -31.5t-9.5 -44zM270 507q0 -37 24.5 -55t62.5 -18
q18 0 35.5 5t31 15.5t21 26.5t7.5 39q-1 35 -24 55.5t-61 20.5q-17 0 -34 -5.5t-31 -16.5t-23 -28t-9 -39z" />
    <glyph glyph-name="nine.cap" horiz-adv-x="661" 
d="M369 730q64 0 118 -17.5t93 -52t61 -87.5t22 -123q0 -116 -32.5 -214t-110.5 -170q-45 -43 -108 -63t-137 -20q-48 0 -93.5 10t-81.5 33t-59.5 62t-28.5 96h197q4 -31 24.5 -45.5t52.5 -14.5q54 0 93 37t59 119h-2q-31 -28 -69 -46t-90 -18q-42 0 -82.5 14.5t-72 42.5
t-50.5 69t-19 94q0 68 24.5 122t67.5 92.5t100.5 59t123.5 20.5zM469 486q0 42 -27.5 69.5t-72.5 27.5q-25 0 -46.5 -9.5t-37.5 -26t-25.5 -40t-9.5 -51.5q0 -41 26.5 -69.5t71.5 -28.5q24 0 46 9.5t38.5 27t26.5 41t10 50.5z" />
    <glyph glyph-name="percent.cap" horiz-adv-x="874" 
d="M232 326q-37 0 -68 12t-53 34t-34.5 53t-12.5 70q0 45 14.5 87.5t42 74.5t66.5 51.5t88 19.5q35 0 65.5 -10.5t53.5 -31.5t36.5 -53t13.5 -74q0 -46 -14.5 -88t-42 -74.5t-67 -51.5t-88.5 -19zM677 715h103l-537 -715h-103zM198 483q0 -11 1.5 -22t6 -20t12.5 -14.5
t22 -5.5q19 0 32.5 18t21 42.5t11 50.5t3.5 42q0 28 -9 44.5t-30 16.5q-20 0 -33.5 -17.5t-22 -42t-12 -50.5t-3.5 -42zM637 -17q-37 0 -68 12t-53 34t-34.5 53t-12.5 70q0 45 14.5 87.5t42 74.5t66.5 51.5t88 19.5q35 0 65.5 -10.5t53.5 -31.5t36.5 -53t13.5 -74
q0 -46 -14.5 -88t-42 -74.5t-67 -51.5t-88.5 -19zM603 140q0 -11 1.5 -22t6 -20t12.5 -14.5t22 -5.5q19 0 32.5 18t21 42.5t11 50.5t3.5 42q0 28 -9 44.5t-30 16.5q-20 0 -33.5 -17.5t-22 -42t-12 -50.5t-3.5 -42z" />
    <glyph glyph-name="perthousand.cap" horiz-adv-x="1280" 
d="M232 326q-37 0 -68 12t-53 34t-34.5 53t-12.5 70q0 45 14.5 87.5t42 74.5t66.5 51.5t88 19.5q35 0 65.5 -10.5t53.5 -31.5t36.5 -53t13.5 -74q0 -46 -14.5 -88t-42 -74.5t-67 -51.5t-88.5 -19zM677 715h103l-537 -715h-103zM198 483q0 -11 1.5 -22t6 -20t12.5 -14.5
t22 -5.5q19 0 32.5 18t21 42.5t11 50.5t3.5 42q0 28 -9 44.5t-30 16.5q-20 0 -33.5 -17.5t-22 -42t-12 -50.5t-3.5 -42zM637 -17q-37 0 -68 12t-53 34t-34.5 53t-12.5 70q0 45 14.5 87.5t42 74.5t66.5 51.5t88 19.5q35 0 65.5 -10.5t53.5 -31.5t36.5 -53t13.5 -74
q0 -46 -14.5 -88t-42 -74.5t-67 -51.5t-88.5 -19zM603 140q0 -11 1.5 -22t6 -20t12.5 -14.5t22 -5.5q19 0 32.5 18t21 42.5t11 50.5t3.5 42q0 28 -9 44.5t-30 16.5q-20 0 -33.5 -17.5t-22 -42t-12 -50.5t-3.5 -42zM1043 -17q-37 0 -68 12t-53 34t-34.5 53t-12.5 70
q0 45 14.5 87.5t42 74.5t66.5 51.5t88 19.5q35 0 65.5 -10.5t53.5 -31.5t36.5 -53t13.5 -74q0 -46 -14.5 -88t-42 -74.5t-67 -51.5t-88.5 -19zM1009 140q0 -11 1.5 -22t6 -20t12.5 -14.5t22 -5.5q19 0 32.5 18t21 42.5t11 50.5t3.5 42q0 28 -9 44.5t-30 16.5
q-20 0 -33.5 -17.5t-22 -42t-12 -50.5t-3.5 -42z" />
    </font>
</defs>
</svg>
