<?xml version="1.0" standalone="no"?>
<!DOCTYPE svg PUBLIC "-//W3C//DTD SVG 1.1//EN" "http://www.w3.org/Graphics/SVG/1.1/DTD/svg11.dtd" >
<svg xmlns="http://www.w3.org/2000/svg" xmlns:xlink="http://www.w3.org/1999/xlink" version="1.1">
<metadata>
Created by FontForge 20170731 at Tue Jan 17 17:53:43 2012
 By Aleksey,,,
Copyright (c) 2011 - 2012 Linotype Corp., www.linotype.com. All rights reserved. This font software may not be reproduced, modified, disclosed or transferred without the express written approval of Linotype Corp. Neue Haas Grotesk is a trademark of Linotype Corp. registered in the U.S. Patent and Trademark Office and may be registered in certain other jurisdictions in the name of Linotype Corp. or its licensee Linotype GmbH. This typeface is original artwork of Christian Schwartz. The design may be protected in certain jurisdictions.
</metadata>
<defs>
<font id="NHaasGroteskDSPro-76BdIt" horiz-adv-x="492" >
  <font-face 
    font-family="NeueHaasGroteskDisp Pro"
    font-weight="700"
    font-style="italic"
    font-stretch="normal"
    units-per-em="1000"
    panose-1="2 11 8 4 2 2 2 9 2 4"
    ascent="770"
    descent="-230"
    x-height="511"
    cap-height="715"
    bbox="-208 -263 1207 935"
    underline-thickness="20"
    underline-position="-153"
    slope="-11"
    unicode-range="U+000D-FB04"
  />
<missing-glyph 
 />
    <glyph glyph-name="f_f" unicode="ff" horiz-adv-x="638" 
d="M104 408h-65l20 104h65l8 43q8 39 24 69.5t39 48.5q28 21 63.5 29.5t79.5 8.5q18 0 35.5 -1.5t34.5 -3.5l-22 -114q-8 1 -15 1.5t-12 0.5q-29 0 -46.5 -11.5t-24.5 -45.5l-5 -25h138l10 48q15 81 63 118q28 21 63.5 29.5t79.5 8.5q18 0 37 -1.5t39 -3.5l-22 -114
q-10 1 -17 1.5t-15 0.5q-30 0 -48 -11.5t-24 -45.5l-6 -30h93l-20 -104h-94l-78 -408h-160l79 408h-138l-79 -408h-159z" />
    <glyph glyph-name="fi" unicode="fi" horiz-adv-x="578" 
d="M428 512h160l-99 -512h-160zM467 715h160l-25 -132h-160zM104 408h-65l20 104h65l9 48q17 82 63 118q28 21 63 29.5t74 8.5q43 0 82 -6l-22 -113q-9 1 -16.5 1.5t-15.5 0.5q-29 0 -47.5 -11.5t-24.5 -45.5l-6 -30h94l-21 -104h-93l-79 -408h-159z" />
    <glyph glyph-name="fl" unicode="fl" horiz-adv-x="582" 
d="M468 715h163l-138 -715h-163zM104 408h-65l20 104h65l9 48q17 82 63 118q28 21 63 29.5t74 8.5q43 0 82 -6l-22 -113q-9 1 -16.5 1.5t-15.5 0.5q-29 0 -47.5 -11.5t-24.5 -45.5l-6 -30h94l-21 -104h-93l-79 -408h-159z" />
    <glyph glyph-name="f_f_i" unicode="ffi" horiz-adv-x="875" 
d="M725 512h160l-99 -512h-160zM764 715h160l-25 -132h-160zM104 408h-65l20 104h65l8 43q8 39 24 69.5t39 48.5q28 21 63.5 29.5t79.5 8.5q18 0 35.5 -1.5t34.5 -3.5l-22 -114q-8 1 -15 1.5t-12 0.5q-29 0 -46.5 -11.5t-24.5 -45.5l-5 -25h138l10 48q15 81 63 118
q28 21 63.5 29.5t79.5 8.5q18 0 37 -1.5t39 -3.5l-22 -114q-10 1 -17 1.5t-15 0.5q-30 0 -48 -11.5t-24 -45.5l-6 -30h93l-20 -104h-94l-78 -408h-160l79 408h-138l-79 -408h-159z" />
    <glyph glyph-name="f_f_l" unicode="ffl" horiz-adv-x="879" 
d="M104 408h-65l20 104h65l8 43q8 39 24 69.5t39 48.5q28 21 63.5 29.5t79.5 8.5q18 0 35.5 -1.5t34.5 -3.5l-22 -114q-8 1 -15 1.5t-12 0.5q-29 0 -46.5 -11.5t-24.5 -45.5l-5 -25h138l10 48q15 81 63 118q28 21 63.5 29.5t79.5 8.5q18 0 37 -1.5t39 -3.5l-22 -114
q-10 1 -17 1.5t-15 0.5q-30 0 -48 -11.5t-24 -45.5l-6 -30h93l-20 -104h-94l-78 -408h-160l79 408h-138l-79 -408h-159zM765 715h163l-138 -715h-163z" />
    <glyph glyph-name=".notdef" 
 />
    <glyph glyph-name=".null" horiz-adv-x="0" 
 />
    <glyph glyph-name=".null" horiz-adv-x="0" 
 />
    <glyph glyph-name="nonmarkingreturn" unicode="&#xd;" horiz-adv-x="0" 
 />
    <glyph glyph-name="tcommaaccent" horiz-adv-x="343" 
d="M32 -215q29 5 50.5 18t26.5 42h-63l21 108h136l-19 -97q-12 -62 -56 -88.5t-106 -30.5zM196 -6q-86 0 -122 38t-19 120l50 258h-65l20 102h65l31 162h157l-32 -162h91l-20 -102h-91l-46 -239q-5 -30 4.5 -42t38.5 -12q9 0 21 0.5t17 1.5l-23 -116q-8 -3 -29.5 -6
t-47.5 -3z" />
    <glyph glyph-name="space" unicode=" " horiz-adv-x="155" 
 />
    <glyph glyph-name="exclam" unicode="!" horiz-adv-x="260" 
d="M103 549l32 166h166l-34 -177l-103 -304h-82zM29 168h168l-33 -168h-168z" />
    <glyph glyph-name="quotedbl" unicode="&#x22;" horiz-adv-x="418" 
d="M128 715h139l-51 -269h-140zM327 715h139l-51 -269h-139z" />
    <glyph glyph-name="numbersign" unicode="#" horiz-adv-x="579" 
d="M106 173h-92l36 125h91l27 101h-91l36 126h91l45 161h102l-45 -161h101l45 161h103l-45 -161h92l-36 -126h-91l-28 -101h91l-36 -125h-90l-48 -173h-102l48 173h-102l-47 -173h-103zM345 298l27 101h-101l-28 -101h102z" />
    <glyph glyph-name="dollar" unicode="$" horiz-adv-x="602" 
d="M278 -14l-17 -89h-60l18 94q-49 6 -90 23t-70.5 45t-45 68.5t-12.5 93.5h164q-2 -43 18.5 -68.5t60.5 -33.5l31 164q-49 20 -86 39.5t-62 42.5t-37.5 52t-12.5 69q0 52 20 92t56 67t85.5 40.5t107.5 13.5h10l12 61h60l-13 -66q40 -6 75 -21t61.5 -40.5t41.5 -62t14 -85.5
h-156q-1 32 -17 52t-44 29l-28 -145q49 -19 87.5 -39.5t64 -45.5t39 -55.5t13.5 -70.5q0 -58 -22.5 -100t-61 -69.5t-90 -41t-108.5 -13.5h-6zM401 188q0 23 -13.5 38t-56.5 34l-28 -145q19 1 37 5.5t31.5 13.5t21.5 22t8 32zM237 509q-1 -21 13 -34.5t56 -31.5l26 131
q-16 0 -32.5 -3.5t-30.5 -11t-23 -20t-9 -30.5z" />
    <glyph glyph-name="percent" unicode="%" horiz-adv-x="846" 
d="M226 385q21 0 36 16.5t24.5 41t14 52.5t4.5 52q0 27 -10.5 47.5t-36.5 20.5q-21 0 -36.5 -16.5t-25 -40.5t-14 -52t-4.5 -51q0 -13 2 -25.5t7 -22.5t14.5 -16t24.5 -6zM221 299q-38 0 -68 12.5t-51 34.5t-32 52t-11 66q0 47 14.5 90t40.5 75.5t63.5 51.5t84.5 19
q37 0 67 -11.5t51 -33.5t32.5 -52.5t11.5 -67.5q0 -47 -14 -90t-40.5 -75.5t-64 -51.5t-84.5 -19zM645 686h95l-507 -686h-95zM619 69q21 0 36 16.5t24.5 41t14 52.5t4.5 52q0 27 -10 48t-37 21q-21 0 -36.5 -16.5t-25 -41t-14 -52.5t-4.5 -51q0 -12 2 -24.5t7 -22.5
t14.5 -16.5t24.5 -6.5zM614 -17q-38 0 -67.5 12.5t-50.5 34.5t-32 52t-11 66q0 47 14 90t40.5 75.5t63.5 51.5t84 19q75 0 119 -44.5t44 -119.5q0 -47 -14 -90t-40.5 -75.5t-64 -52t-85.5 -19.5z" />
    <glyph glyph-name="ampersand" unicode="&#x26;" horiz-adv-x="681" 
d="M246 -12q-46 0 -88.5 11.5t-75.5 35.5t-52.5 62t-19.5 91q0 45 15.5 81t42 63.5t61.5 47.5t74 34q-17 26 -26.5 56.5t-9.5 65.5q0 42 16.5 76t44.5 58t65.5 36.5t80.5 12.5q37 0 72 -9.5t62.5 -29.5t44 -51.5t16.5 -75.5q0 -34 -12 -61.5t-33 -50t-50 -40t-64 -31.5
l68 -114q13 20 24.5 46.5t19.5 55.5h140q-16 -66 -45.5 -120t-67.5 -99l85 -139h-190l-24 41q-33 -23 -76.5 -38t-97.5 -15zM267 116q27 0 49.5 8.5t42.5 22.5l-98 166q-33 -14 -58.5 -40.5t-26.5 -68.5t23.5 -65t67.5 -23zM352 456q27 13 50 34.5t23 56.5q0 22 -12 39.5
t-39 17.5q-25 0 -40 -18.5t-15 -47.5q0 -23 9 -43.5t24 -38.5z" />
    <glyph glyph-name="quotesingle" unicode="'" horiz-adv-x="219" 
d="M128 715h139l-51 -269h-140z" />
    <glyph glyph-name="parenleft" unicode="(" horiz-adv-x="335" 
d="M112 -138q-28 62 -45.5 136t-17.5 159q0 181 63.5 330t169.5 267h142q-49 -66 -89.5 -137.5t-70 -148.5t-45.5 -158.5t-16 -168.5q0 -83 11.5 -151t28.5 -128h-131v0z" />
    <glyph glyph-name="parenright" unicode=")" horiz-adv-x="335" 
d="M-70 -138q49 66 90 138t70 149t45 158.5t16 168.5q0 83 -11 151t-29 127h132q27 -62 44.5 -135.5t17.5 -158.5q0 -90 -16.5 -172.5t-47 -157.5t-73.5 -142t-95 -126h-143v0z" />
    <glyph glyph-name="asterisk" unicode="*" horiz-adv-x="428" 
d="M252 457l-92 -100l-62 57l91 96l-105 46l42 80l105 -47l24 126h92l-24 -129l115 31l17 -83l-123 -32l57 -102l-81 -48z" />
    <glyph glyph-name="plus" unicode="+" horiz-adv-x="557" 
d="M211 265h-171l26 129h170l35 185h138l-36 -185h171l-25 -129h-171l-36 -186h-137z" />
    <glyph glyph-name="comma" unicode="," horiz-adv-x="231" 
d="M-39 -109q41 9 65.5 34.5t32.5 74.5h-78l33 168h168l-31 -157q-18 -92 -65 -136q-25 -24 -59.5 -37t-78.5 -17z" />
    <glyph glyph-name="hyphen" unicode="-" horiz-adv-x="330" 
d="M43 320h267l-26 -137h-268z" />
    <glyph glyph-name="period" unicode="." horiz-adv-x="231" 
d="M14 168h168l-33 -168h-168z" />
    <glyph glyph-name="slash" unicode="/" horiz-adv-x="430" 
d="M358 715h143l-396 -715h-144z" />
    <glyph glyph-name="zero" unicode="0" horiz-adv-x="643" 
d="M306 115q48 0 80 32.5t51.5 79.5t27.5 101t8 96q0 27 -4.5 53t-15.5 46.5t-31 33.5t-51 13q-32 0 -57 -15.5t-44 -41.5t-32 -58.5t-21 -67.5t-11.5 -68.5t-3.5 -60.5t4.5 -53t16 -46t31.5 -32t52 -12zM302 -16q-62 0 -111.5 20t-84.5 57.5t-54 91t-19 120.5
q0 79 22.5 156t66.5 137t108.5 97t147.5 37q60 0 108.5 -20t83 -57t53.5 -90.5t19 -120.5q0 -79 -21 -156t-63 -137.5t-106 -97.5t-150 -37z" />
    <glyph glyph-name="one" unicode="1" horiz-adv-x="391" 
d="M196 438h-144l22 114q75 2 127.5 33.5t79.5 105.5h131l-134 -691h-166z" />
    <glyph glyph-name="two" unicode="2" horiz-adv-x="571" 
d="M-29 0q8 48 23.5 84.5t36.5 66t47 52.5t55 43q56 40 111 71t95 58q38 25 55.5 51.5t17.5 61.5t-19 55.5t-56 20.5q-45 0 -78 -31q-16 -17 -26.5 -41t-16.5 -61h-157q8 64 26 106.5t49 75.5q34 38 88.5 62t125.5 24q47 0 89 -12t74 -37t51 -62t19 -88q0 -44 -12.5 -78.5
t-34.5 -62t-50.5 -49.5t-60.5 -41q-28 -17 -56.5 -33t-56 -31.5t-51.5 -31.5t-43 -34v-1h300l-26 -138h-519v0z" />
    <glyph glyph-name="three" unicode="3" horiz-adv-x="589" 
d="M282 -16q-64 0 -115.5 17t-87.5 49.5t-54 79.5t-13 107h159q-1 -27 4.5 -49.5t19 -39.5t35.5 -26.5t54 -9.5q47 0 77 26.5t30 72.5q0 42 -28 65t-85 23h-29l22 116h44q21 0 40 4.5t33.5 15t23 26.5t8.5 39q0 33 -22.5 53.5t-61.5 20.5q-51 0 -79.5 -29.5t-36.5 -76.5
h-158q7 52 30 94.5t59.5 73t85 47t106.5 16.5q48 0 92 -11t77 -33t52.5 -56.5t19.5 -80.5q0 -60 -33 -100t-92 -60v-2q20 -8 38 -20t32 -30t22 -42t8 -54q0 -53 -22 -95t-59.5 -71t-88 -44.5t-107.5 -15.5z" />
    <glyph glyph-name="four" unicode="4" horiz-adv-x="610" 
d="M314 153h-315l31 154l387 385h162l-80 -412h98l-25 -127h-98l-29 -153h-160zM339 280l44 229h-2l-225 -227v-2h183z" />
    <glyph glyph-name="five" unicode="5" horiz-adv-x="588" 
d="M268 -16q-53 0 -100.5 12.5t-84 39.5t-58.5 69t-24 100h163q3 -39 31.5 -63t76.5 -24q53 0 87.5 35.5t34.5 94.5q0 45 -25 73t-74 28q-30 0 -55 -11.5t-42 -31.5h-152l112 379h438l-26 -135h-310l-38 -125h3q20 18 54 31t81 13q46 0 83.5 -14.5t64.5 -41.5t41.5 -66
t14.5 -87q0 -62 -22 -113t-61 -87t-93.5 -56t-119.5 -20z" />
    <glyph glyph-name="six" unicode="6" horiz-adv-x="603" 
d="M296 -16q-60 0 -109.5 18t-84 53t-53 86t-18.5 117q0 46 8 95.5t25.5 97.5t43.5 91.5t62 76.5q42 38 94 59t118 21q43 0 83 -10t71.5 -31.5t51.5 -56.5t24 -85h-158q-3 31 -24.5 47.5t-57.5 16.5q-58 0 -97.5 -47.5t-59.5 -127.5h2q29 29 67.5 47.5t89.5 18.5
q40 0 78 -14.5t67 -42t46 -67.5t17 -91q0 -61 -22 -111t-60.5 -85.5t-90.5 -55.5t-113 -20zM295 109q27 0 50.5 9.5t40.5 27t27 42t10 55.5q0 45 -26.5 75t-77.5 30q-27 0 -50.5 -9.5t-41 -27t-27.5 -42t-10 -54.5q0 -48 28.5 -77t76.5 -29z" />
    <glyph glyph-name="seven" unicode="7" horiz-adv-x="536" 
d="M71 0q20 93 56.5 175t81 151t92.5 123t91 92v2h-319l27 142h499l-25 -128q-53 -46 -104.5 -105.5t-95 -130.5t-77.5 -152t-52 -169h-174v0z" />
    <glyph glyph-name="eight" unicode="8" horiz-adv-x="599" 
d="M281 -16q-48 0 -97 11t-88.5 35t-64 62t-24.5 93q0 75 41 119.5t107 66.5v3q-35 20 -51 52t-16 69q0 49 22 87t58.5 64t84 39.5t98.5 13.5q45 0 89.5 -10t79.5 -32t56.5 -56t21.5 -82q0 -56 -30 -95t-84 -63v-3q44 -21 66 -59.5t22 -86.5q0 -58 -24 -100.5t-64.5 -71
t-93 -42.5t-109.5 -14zM287 108q24 0 46 7.5t38.5 21t26.5 34t10 47.5q-1 45 -32.5 68.5t-78.5 23.5q-23 0 -45 -6.5t-39.5 -20t-28.5 -34t-11 -48.5q0 -45 32.5 -69t81.5 -24zM338 416q21 0 39.5 5t33 15.5t23 27t8.5 40.5q-1 38 -27 58.5t-67 20.5q-20 0 -39 -5t-34 -16
t-24 -28t-9 -40q-1 -41 26.5 -59.5t69.5 -18.5z" />
    <glyph glyph-name="nine" unicode="9" horiz-adv-x="607" 
d="M260 -16q-44 0 -86 10t-75 32.5t-54 57.5t-25 86h160q4 -29 27 -47.5t61 -18.5q63 0 99.5 45t56.5 130h-2q-29 -27 -66 -46.5t-88 -19.5q-44 0 -83 14t-68.5 40.5t-46.5 65.5t-17 89q0 63 23 114.5t62 87.5t92 55.5t113 19.5q59 0 107.5 -16.5t83.5 -50t54.5 -84
t19.5 -117.5q0 -50 -7 -100t-22 -96.5t-38 -88.5t-55 -75q-84 -87 -226 -87zM321 337q27 0 50.5 9t41 26t27.5 41t10 55q0 48 -28 77.5t-79 29.5q-27 0 -50.5 -9.5t-41 -27.5t-27 -42.5t-9.5 -54.5q-1 -48 27.5 -76t78.5 -28z" />
    <glyph glyph-name="colon" unicode=":" horiz-adv-x="237" 
d="M17 168h168l-33 -168h-168zM77 478h168l-33 -168h-167z" />
    <glyph glyph-name="semicolon" unicode=";" horiz-adv-x="237" 
d="M-36 -109q41 9 65.5 34.5t32.5 74.5h-78l33 168h168l-31 -157q-18 -92 -65 -136q-25 -24 -59.5 -37t-78.5 -17zM77 478h168l-33 -168h-167z" />
    <glyph glyph-name="less" unicode="&#x3c;" horiz-adv-x="494" 
d="M40 247l29 147l436 160l-28 -144l-193 -67q-16 -6 -33.5 -11.5t-32.5 -10.5q-18 -5 -35 -10v-2l30 -10q13 -5 28.5 -10.5t29.5 -10.5l167 -68l-28 -147z" />
    <glyph glyph-name="equal" unicode="=" horiz-adv-x="554" 
d="M49 266h461l-24 -125h-462zM90 478h461l-24 -125h-462z" />
    <glyph glyph-name="greater" unicode="&#x3e;" horiz-adv-x="494" 
d="M36 207l193 68q16 5 33.5 10.5t32.5 10.5q18 5 35 10v2l-30 10q-13 5 -28.5 10t-29.5 11l-167 69l28 146l370 -184l-29 -146l-436 -160z" />
    <glyph glyph-name="question" unicode="?" horiz-adv-x="544" 
d="M181 234q7 39 16.5 65.5t22 45.5t28 32.5t35.5 27.5q19 13 40.5 24.5t40 25t31 30.5t12.5 41q0 34 -21.5 51t-56.5 17q-42 0 -73 -25t-40 -79h-161q20 117 96.5 177.5t190.5 60.5q43 0 85 -10t75 -32t53.5 -57.5t20.5 -86.5q0 -65 -31.5 -110t-91.5 -78
q-37 -20 -59.5 -32t-36.5 -24t-21 -27t-11 -37h-144zM155 168h168l-33 -168h-168z" />
    <glyph glyph-name="at" unicode="@" horiz-adv-x="899" 
d="M433 -109q-86 0 -158.5 25.5t-125 74t-82 118t-29.5 157.5q0 96 34 178t94 142t143 94t181 34q81 0 152.5 -23.5t125 -69.5t85 -112.5t31.5 -153.5q0 -49 -13 -98.5t-40.5 -89t-71 -64.5t-103.5 -25q-114 0 -140 81h-2q-26 -37 -60 -57.5t-75 -20.5q-72 0 -111.5 46
t-39.5 127q0 46 13.5 93t40.5 85t67.5 62t94.5 24q43 0 69 -19t39 -53h2l13 61h137l-61 -271q-17 -72 31 -72q31 0 52.5 17.5t35 45t19.5 61t6 64.5q0 69 -22 121t-61.5 86.5t-94.5 51.5t-121 17q-72 0 -135.5 -24.5t-111 -71t-75 -113.5t-27.5 -152q0 -64 19.5 -117.5
t57 -92t93.5 -60t129 -21.5q49 0 95 10t87 27l29 -79q-48 -23 -102 -33t-114 -10zM428 188q26 0 45 14t31 35.5t18 48t6 51.5q0 33 -14.5 54t-42.5 21q-26 0 -44.5 -14t-30.5 -35.5t-18 -48.5t-6 -53q0 -31 14 -52t42 -21z" />
    <glyph glyph-name="A" unicode="A" horiz-adv-x="676" 
d="M326 715h178l125 -715h-181l-18 130h-242l-63 -130h-177zM250 256h164l-23 172q-2 14 -3.5 32t-3.5 34q-2 18 -3 37h-2q-8 -20 -16 -38q-7 -16 -15 -33t-14 -31z" />
    <glyph glyph-name="B" unicode="B" horiz-adv-x="657" 
d="M136 715h306q52 0 91.5 -11.5t66.5 -32.5q26 -21 42.5 -53t16.5 -77q0 -60 -33.5 -101t-91.5 -60v-3q48 -17 74.5 -53.5t26.5 -92.5q0 -49 -20.5 -94t-63.5 -78q-36 -29 -81 -44t-109 -15h-363zM356 141q47 0 77.5 22.5t30.5 71.5q0 38 -24 57.5t-62 19.5h-147l-33 -171
h158zM396 431q17 0 33.5 4t30 13t22 25t8.5 40q0 29 -18.5 46.5t-54.5 17.5h-135l-28 -146h142z" />
    <glyph glyph-name="C" unicode="C" horiz-adv-x="690" 
d="M345 -16q-72 0 -130 21.5t-98.5 61.5t-62.5 98t-22 130q0 84 26.5 162.5t76.5 138.5t121 96.5t161 36.5q123 0 195 -57q43 -33 65.5 -84t26.5 -119h-174q-3 54 -32 84t-88 30q-53 0 -90.5 -25.5t-62 -66.5t-36 -91.5t-11.5 -100.5q0 -34 7.5 -65t24 -54.5t43.5 -37.5
t66 -14q57 0 96 31t55 89h175q-29 -130 -119 -199q-45 -34 -97.5 -49.5t-115.5 -15.5z" />
    <glyph glyph-name="D" unicode="D" horiz-adv-x="689" 
d="M136 715h256q68 0 123.5 -20t95.5 -58.5t61.5 -95.5t21.5 -131q0 -97 -26.5 -171.5t-77.5 -129.5q-49 -52 -120.5 -80.5t-159.5 -28.5h-312zM310 148q49 0 87.5 18t65 51t40 80t13.5 104q0 82 -38 124.5t-113 42.5h-83l-81 -420h109z" />
    <glyph glyph-name="E" unicode="E" horiz-adv-x="608" 
d="M136 715h519l-28 -144h-344l-25 -131h296l-26 -136h-297l-30 -155h356l-29 -149h-530z" />
    <glyph glyph-name="F" unicode="F" horiz-adv-x="582" 
d="M136 715h513l-28 -148h-339l-28 -146h289l-28 -142h-289l-53 -279h-175z" />
    <glyph glyph-name="G" unicode="G" horiz-adv-x="720" 
d="M320 -16q-78 0 -131 25t-92 73q-32 38 -49 90.5t-17 120.5q0 83 27.5 161.5t78.5 139.5t124.5 98t165.5 37q57 0 108 -14.5t90 -44.5t62.5 -77t26.5 -112h-171q-5 48 -37.5 75.5t-86.5 27.5q-52 0 -91 -24.5t-65.5 -65t-39.5 -92t-13 -105.5q0 -78 35.5 -124.5
t115.5 -46.5q66 0 108 34.5t55 94.5h-131l25 129h293l-74 -384h-122l5 80h-2q-32 -45 -83.5 -70.5t-114.5 -25.5z" />
    <glyph glyph-name="H" unicode="H" horiz-adv-x="682" 
d="M136 715h175l-53 -272h237l53 272h174l-138 -715h-174l57 299h-237l-57 -299h-175z" />
    <glyph glyph-name="I" unicode="I" horiz-adv-x="272" 
d="M137 715h174l-138 -715h-175z" />
    <glyph glyph-name="J" unicode="J" horiz-adv-x="534" 
d="M222 -13q-54 0 -99.5 14t-76 43.5t-43 75.5t0.5 110l10 48h159l-11 -55q-8 -43 7.5 -67t58.5 -24q38 0 56 21t25 58l98 504h173l-100 -521q-8 -44 -24 -78.5t-45 -61.5q-32 -31 -78 -49t-111 -18z" />
    <glyph glyph-name="K" unicode="K" horiz-adv-x="675" 
d="M298 314l-78 -71l-47 -243h-175l138 715h175l-51 -264l280 264h207l-314 -287l199 -428h-191z" />
    <glyph glyph-name="L" unicode="L" horiz-adv-x="546" 
d="M136 715h175l-110 -566h308l-28 -149h-483z" />
    <glyph glyph-name="M" unicode="M" horiz-adv-x="821" 
d="M136 715h232l23 -291q2 -31 4 -63.5t4 -60.5q2 -33 4 -63h1q11 27 23 57q11 25 24 56t27 62l140 303h240l-138 -715h-160l68 353q4 21 10 47t11 49q6 27 12 55h-2q-12 -26 -23 -52q-10 -22 -21 -47t-20 -45l-165 -360h-144l-28 361q-2 15 -3 39t-2 47q-1 27 -2 57h-2
q-5 -29 -10 -57q-5 -24 -9.5 -50t-7.5 -43l-68 -354h-156z" />
    <glyph glyph-name="N" unicode="N" horiz-adv-x="687" 
d="M136 715h175l125 -351q8 -21 13 -39t10 -32q4 -16 9 -30h2l88 452h169l-138 -715h-175l-122 341q-7 18 -13 38t-11 37q-6 19 -11 39h-2l-88 -455h-169z" />
    <glyph glyph-name="O" unicode="O" horiz-adv-x="727" 
d="M359 126q53 0 90.5 26t61 67.5t34.5 91.5t11 98q0 37 -8 69.5t-26 56.5t-46 38t-68 14q-53 0 -91 -27.5t-62 -69.5t-35 -93t-11 -100q0 -35 8 -66.5t26 -54.5t46.5 -36.5t69.5 -13.5zM354 -17q-69 0 -128.5 20.5t-102.5 60t-67 97.5t-24 134q0 87 27 165.5t76.5 138.5
t120.5 95t160 35q72 0 130.5 -21.5t100 -62.5t64 -100t22.5 -134q0 -85 -26 -162.5t-74.5 -136.5t-119 -94t-159.5 -35z" />
    <glyph glyph-name="P" unicode="P" horiz-adv-x="638" 
d="M136 715h281q69 0 116.5 -18t78.5 -51q53 -56 53 -148q0 -60 -20 -108t-56.5 -81.5t-86.5 -51.5t-110 -18h-171l-46 -239h-177zM377 378q22 0 42.5 6.5t36 20t24.5 33.5t9 48q0 81 -88 81h-116l-37 -189h129z" />
    <glyph glyph-name="Q" unicode="Q" horiz-adv-x="727" 
d="M521 22q-37 -18 -78.5 -28t-88.5 -11q-69 0 -128.5 20.5t-102.5 60t-67 97.5t-24 134q0 87 26.5 165.5t75.5 138.5t120 95t160 35q72 0 131 -21.5t101 -62.5t64.5 -100t22.5 -134q0 -91 -29 -172.5t-84 -141.5l66 -65l-88 -87zM359 125q28 0 52 6l-65 66l89 85l75 -75
q25 40 35.5 92.5t10.5 109.5q0 37 -8 69.5t-26 56.5t-46 38t-68 14q-53 0 -91 -27.5t-62 -69.5t-35 -93t-11 -100q0 -35 8 -66.5t26 -55t46.5 -37t69.5 -13.5z" />
    <glyph glyph-name="R" unicode="R" horiz-adv-x="659" 
d="M136 715h296q52 0 95.5 -12.5t74.5 -37t48 -60t17 -81.5q0 -79 -39.5 -124.5t-111.5 -66.5v-3q42 -15 63.5 -48t21.5 -87q0 -27 -2.5 -65t-2.5 -73q0 -39 14 -48v-9h-173q-5 7 -7 20.5t-2 29.5q0 27 2 60.5t2 63.5q0 46 -22.5 70.5t-75.5 24.5h-110l-51 -269h-175z
M250 398h129q23 0 43.5 5.5t36 17.5t24.5 31t9 45q0 38 -21.5 58.5t-65.5 20.5h-121z" />
    <glyph glyph-name="S" unicode="S" horiz-adv-x="627" 
d="M301 -17q-59 0 -114.5 12.5t-98.5 41t-68 74.5t-23 114h175q-1 -28 9 -47.5t28 -32t42.5 -18t54.5 -5.5q22 0 43 4t37 13t25.5 23.5t9.5 36.5q0 31 -34 50.5t-107 45.5q-48 17 -86.5 35t-66 42t-42 55t-14.5 75q0 55 20.5 97.5t57 71t86.5 43t110 14.5q52 0 102.5 -11
t89.5 -36.5t62.5 -68t20.5 -104.5h-170q1 42 -28 64.5t-83 22.5q-17 0 -34.5 -3.5t-32 -11.5t-24 -21t-9.5 -32q0 -16 8 -27t26 -20.5t47 -19.5t72 -25q45 -16 83 -34t65.5 -43t43 -57.5t15.5 -76.5q0 -61 -24 -106t-64.5 -75t-94.5 -45t-115 -15z" />
    <glyph glyph-name="T" unicode="T" horiz-adv-x="608" 
d="M276 567h-201l28 148h578l-28 -148h-203l-110 -567h-174z" />
    <glyph glyph-name="U" unicode="U" horiz-adv-x="673" 
d="M319 -13q-69 0 -126 16.5t-94.5 52t-52.5 89.5t-1 129l86 441h174l-89 -459q-11 -60 14.5 -94t93.5 -34q58 0 88 30t40 82l92 475h174l-94 -484q-23 -118 -97.5 -181t-207.5 -63z" />
    <glyph glyph-name="V" unicode="V" horiz-adv-x="635" 
d="M85 715h179l40 -370q2 -23 3.5 -45.5t3.5 -42.5q2 -23 3 -44h2q8 21 18 43q8 19 17.5 41t19.5 43l174 375h179l-358 -715h-180z" />
    <glyph glyph-name="W" unicode="W" horiz-adv-x="921" 
d="M87 715h174l14 -300q1 -27 1.5 -58.5t0.5 -58.5q0 -32 -1 -63h2q11 29 22 59q10 26 21 56.5t22 59.5l120 305h161l13 -304q1 -28 2 -58.5t1 -56.5v-61h2q12 32 23 64q10 27 21.5 58.5t22.5 59.5l119 298h177l-313 -715h-171l-15 344q-2 23 -2 47v44v47h-2q-7 -22 -15 -46
q-7 -20 -15.5 -44.5t-17.5 -47.5l-134 -344h-171z" />
    <glyph glyph-name="X" unicode="X" horiz-adv-x="673" 
d="M254 382l-148 333h192l83 -213h2l159 213h196l-275 -347l161 -368h-199l-89 245h-2l-181 -245h-204z" />
    <glyph glyph-name="Y" unicode="Y" horiz-adv-x="639" 
d="M231 267l-145 448h183l52 -182q5 -19 9.5 -38t8.5 -36q4 -19 7 -37h2l22 36q10 16 21.5 35t24.5 38l124 184h189l-324 -454l-50 -261h-175z" />
    <glyph glyph-name="Z" unicode="Z" horiz-adv-x="629" 
d="M0 137l367 371q5 5 15.5 15t21.5 20q12 11 26 25v3q-15 -1 -28 -1h-42h-251l28 145h543l-26 -135l-356 -361q-8 -8 -20.5 -20t-24.5 -23q-14 -13 -30 -27v-3h30q12 0 25 0.5t21 0.5h283l-28 -147h-580z" />
    <glyph glyph-name="bracketleft" unicode="[" horiz-adv-x="389" 
d="M153 754h302l-25 -124h-150l-125 -645h151l-24 -123h-303z" />
    <glyph glyph-name="backslash" unicode="\" horiz-adv-x="500" 
d="M86 715h132l230 -715h-132z" />
    <glyph glyph-name="bracketright" unicode="]" horiz-adv-x="389" 
d="M-23 -15h151l125 645h-151l24 124h303l-173 -892h-303z" />
    <glyph glyph-name="asciicircum" unicode="^" horiz-adv-x="458" 
d="M254 715h117l115 -290h-139l-55 151h-1l-109 -151h-143z" />
    <glyph glyph-name="underscore" unicode="_" horiz-adv-x="423" 
d="M-66 -69h428l-19 -100h-428z" />
    <glyph glyph-name="grave" unicode="`" 
d="M167 720h175l43 -148h-121z" />
    <glyph glyph-name="a" unicode="a" horiz-adv-x="528" 
d="M155 -13q-33 0 -62.5 9.5t-51.5 28.5t-34.5 46.5t-12.5 63.5q0 47 16.5 78t45.5 50.5t69 29t87 12.5q38 3 65 6t44 9.5t25 17.5t8 30q0 22 -16 35.5t-48 13.5q-75 0 -91 -67h-149q14 80 75 128t173 48q45 0 85 -9t70 -32q32 -23 46.5 -64.5t2.5 -104.5l-46 -236
q-6 -29 -5 -47t8 -26v-7h-154q-5 9 -6.5 24t-1.5 32h-2q-26 -30 -60.5 -49.5t-79.5 -19.5zM215 91q42 0 70 22.5t37 64.5l12 63q-17 -8 -37.5 -13t-49.5 -10q-15 -3 -32.5 -5.5t-32 -9.5t-24 -19.5t-9.5 -34.5q0 -30 18.5 -44t47.5 -14z" />
    <glyph glyph-name="b" unicode="b" horiz-adv-x="576" 
d="M313 -16q-49 0 -91.5 21t-63.5 71h-2l-14 -76h-154l138 715h160l-50 -258h3q28 32 63 51t82 19q43 0 76 -16.5t55.5 -46t34.5 -70t12 -87.5q0 -58 -15 -115.5t-46 -103.5t-77.5 -75t-110.5 -29zM281 112q33 0 55.5 17.5t36.5 44.5t20.5 59.5t6.5 63.5q0 20 -4 39.5
t-13 34.5t-25 24.5t-40 9.5q-33 0 -57 -17t-40 -44t-23.5 -59t-7.5 -62q0 -21 5 -41t15.5 -35.5t28 -25t42.5 -9.5z" />
    <glyph glyph-name="c" unicode="c" horiz-adv-x="532" 
d="M257 -16q-49 0 -93.5 13t-78 40.5t-53 70.5t-19.5 103q0 63 20.5 120t58 100.5t91.5 69t121 25.5q46 0 86 -11t70 -35t48 -61t20 -89h-154q-3 34 -19.5 55.5t-54.5 21.5q-33 0 -57 -19t-39.5 -48.5t-23 -64.5t-7.5 -67q0 -43 19.5 -73t67.5 -30q35 0 61.5 21.5t38.5 67.5
h153q-10 -50 -33 -89t-56.5 -65.5t-76 -41t-90.5 -14.5z" />
    <glyph glyph-name="d" unicode="d" horiz-adv-x="582" 
d="M205 -16q-44 0 -79 16t-60 45t-38.5 70.5t-13.5 92.5q0 59 17 116.5t50 102.5t81.5 72.5t110.5 27.5q52 0 87.5 -21.5t56.5 -59.5h3l52 269h160l-138 -715h-153l11 59h-2q-25 -33 -61 -54t-84 -21zM265 110q32 0 56 17t39.5 43t23.5 58t8 62q0 23 -5 44t-16 36.5t-28 25
t-41 9.5q-32 0 -55.5 -17.5t-38.5 -44.5t-22 -60t-7 -63q0 -22 4.5 -42t14.5 -35t26.5 -24t40.5 -9z" />
    <glyph glyph-name="e" unicode="e" horiz-adv-x="543" 
d="M171 214q0 -24 4.5 -44.5t15 -36t28.5 -24t45 -8.5q29 0 52.5 12.5t35.5 39.5h158q-12 -37 -34.5 -68t-54.5 -53t-73.5 -34.5t-90.5 -12.5q-52 0 -96.5 15t-77.5 44.5t-51.5 73.5t-18.5 103q0 60 20.5 115.5t57.5 98t89.5 67.5t115.5 25q45 0 77.5 -8.5t59.5 -25.5
q61 -38 82 -110.5t7 -168.5h-351zM294 412q-38 0 -67 -26.5t-43 -74.5h192q1 21 -3.5 39t-14 32t-25.5 22t-39 8z" />
    <glyph glyph-name="f" unicode="f" horiz-adv-x="341" 
d="M104 408h-65l20 104h65l9 48q17 82 63 118q28 21 63 29.5t74 8.5q43 0 82 -6l-22 -113q-9 1 -16.5 1.5t-15.5 0.5q-29 0 -47.5 -11.5t-24.5 -45.5l-6 -30h94l-21 -104h-93l-79 -408h-159z" />
    <glyph glyph-name="g" unicode="g" horiz-adv-x="562" 
d="M219 -177q-41 0 -80.5 9t-71 29t-52.5 51.5t-26 75.5h158q11 -51 76 -51q45 0 68 25.5t31 69.5l10 52h-3q-24 -25 -53 -40t-71 -16q-41 0 -76 15t-60.5 42t-39.5 65t-14 84q0 54 17 107t48.5 94t77 66.5t103.5 25.5q48 0 85.5 -19t59.5 -59h2l12 63h153l-93 -481
q-11 -57 -33 -94.5t-55 -63.5t-75 -38t-98 -12zM258 147q29 0 51.5 13.5t38 36t23.5 50t8 56.5q-1 42 -21.5 72.5t-65.5 30.5q-29 0 -51 -13.5t-37 -36t-23 -50.5t-8 -58q0 -41 20.5 -71t64.5 -30z" />
    <glyph glyph-name="h" unicode="h" horiz-adv-x="556" 
d="M126 715h160l-53 -273h3q29 39 66 62t92 23q39 0 68.5 -14.5t48.5 -42t24.5 -67t-3.5 -88.5l-61 -315h-160l59 303q8 42 -6 67t-54 25q-42 0 -70 -33t-38 -81l-54 -281h-160z" />
    <glyph glyph-name="i" unicode="i" horiz-adv-x="237" 
d="M87 512h160l-99 -512h-160zM126 715h160l-25 -132h-160z" />
    <glyph glyph-name="j" unicode="j" horiz-adv-x="237" 
d="M-38 -172q-49 0 -86 10l21 113q19 -1 34.5 -0.5t26.5 5t18 14t10 26.5l101 516h160l-103 -532q-9 -44 -24 -72t-36 -45q-25 -19 -56 -27t-66 -8zM126 715h160l-25 -132h-160z" />
    <glyph glyph-name="k" unicode="k" horiz-adv-x="540" 
d="M126 715h158l-74 -383l176 180h186l-208 -197l133 -315h-176l-82 209l-64 -60l-29 -149h-158z" />
    <glyph glyph-name="l" unicode="l" horiz-adv-x="241" 
d="M127 715h163l-138 -715h-163z" />
    <glyph glyph-name="m" unicode="m" horiz-adv-x="845" 
d="M87 512h154l-15 -77h3q29 42 65.5 67t89.5 25q51 0 81.5 -26t44.5 -69h2q35 51 77.5 73t92.5 22q40 0 70.5 -15t48.5 -43.5t23.5 -68.5t-4.5 -89l-60 -311h-160l59 305q8 42 -4.5 66t-47.5 24q-39 0 -64 -31t-35 -85l-54 -279h-160l59 305q8 42 -4.5 66t-47.5 24
q-39 0 -64 -31.5t-35 -84.5l-54 -279h-160z" />
    <glyph glyph-name="n" unicode="n" horiz-adv-x="556" 
d="M87 512h155l-16 -81h3q31 45 70.5 70.5t94.5 25.5q39 0 68.5 -14.5t48.5 -42t24.5 -67t-3.5 -88.5l-61 -315h-160l59 303q8 42 -6 67t-54 25q-42 0 -70 -33t-38 -81l-54 -281h-160z" />
    <glyph glyph-name="o" unicode="o" horiz-adv-x="567" 
d="M263 98q35 0 59.5 19.5t40 49t22 64.5t6.5 67q0 22 -5 42.5t-15.5 36.5t-27.5 25.5t-42 9.5q-35 0 -59 -19.5t-39.5 -49.5t-22 -65t-6.5 -66q0 -23 4.5 -43.5t15 -36.5t27.5 -25t42 -9zM260 -16q-49 0 -93.5 14.5t-78.5 43.5t-54.5 73.5t-20.5 103.5q0 63 20.5 119
t59 97.5t92.5 66t121 24.5q49 0 93.5 -14.5t78.5 -43.5t54.5 -72.5t20.5 -102.5q0 -64 -20.5 -120t-59 -98t-92.5 -66.5t-121 -24.5z" />
    <glyph glyph-name="p" unicode="p" horiz-adv-x="578" 
d="M87 512h153l-12 -66h2q29 36 67.5 58.5t89.5 22.5q43 0 76 -17t55.5 -47t34.5 -70.5t12 -88.5q0 -57 -15 -114t-45.5 -102.5t-78 -74.5t-112.5 -29q-50 0 -89 20.5t-61 62.5h-3l-46 -236h-160zM279 106q33 0 56.5 17.5t38 45t21 60.5t6.5 63q0 20 -4 39.5t-14 34.5
t-26 24.5t-40 9.5q-32 0 -56 -17t-40 -43.5t-24.5 -59t-8.5 -63.5q0 -21 5 -40.5t16 -35.5t28 -25.5t42 -9.5z" />
    <glyph glyph-name="q" unicode="q" horiz-adv-x="580" 
d="M342 56h-2q-24 -32 -60 -52t-80 -20q-87 0 -137 57.5t-50 160.5q0 60 17.5 118.5t51.5 104t82.5 74t111.5 28.5q49 0 87 -22.5t58 -64.5h3l14 72h153l-132 -681h-160zM259 109q31 0 55.5 15.5t41.5 41t25.5 57.5t8.5 65q0 24 -5 44.5t-15.5 36t-27.5 24.5t-40 9
q-33 0 -57 -17t-39 -44t-22.5 -60t-7.5 -64q0 -21 4 -40.5t13.5 -34.5t25.5 -24t40 -9z" />
    <glyph glyph-name="r" unicode="r" horiz-adv-x="376" 
d="M87 512h154l-17 -84h3q28 45 64 68.5t84 23.5q13 0 22 -1t14 -3l-28 -144h-3q-78 11 -124.5 -22t-64.5 -126l-43 -224h-160z" />
    <glyph glyph-name="s" unicode="s" horiz-adv-x="491" 
d="M229 -16q-45 0 -87.5 10.5t-75.5 32.5t-53.5 56.5t-22.5 82.5h152q2 -32 22.5 -53.5t67.5 -21.5q32 0 51.5 11.5t19.5 37.5q0 27 -31.5 38.5t-82.5 26.5q-32 9 -60 21t-48.5 29.5t-32 42t-11.5 58.5q0 42 16.5 73.5t46 53.5t70 33t88.5 11q42 0 80.5 -9.5t68 -29t48 -51
t21.5 -74.5h-147q-3 27 -22.5 43.5t-54.5 16.5q-25 0 -46 -10t-21 -33t28.5 -34t82.5 -26q30 -9 58.5 -20.5t50.5 -29t35.5 -43t13.5 -61.5q0 -90 -60 -136t-165 -46z" />
    <glyph glyph-name="t" unicode="t" horiz-adv-x="343" 
d="M196 -6q-86 0 -122 38t-19 120l50 258h-65l20 102h65l31 162h157l-32 -162h91l-20 -102h-91l-46 -239q-5 -30 4.5 -42t38.5 -12q9 0 21 0.5t17 1.5l-23 -116q-8 -3 -29.5 -6t-47.5 -3z" />
    <glyph glyph-name="u" unicode="u" horiz-adv-x="551" 
d="M163 -15q-41 0 -72 14t-50 40.5t-25 65t4 87.5l61 320h160l-58 -298q-8 -44 4 -70.5t52 -26.5q42 0 69.5 29.5t38.5 82.5l54 283h160l-99 -512h-153l15 77h-3q-29 -42 -66.5 -67t-91.5 -25z" />
    <glyph glyph-name="v" unicode="v" horiz-adv-x="516" 
d="M48 512h163l27 -229q2 -20 3.5 -39.5t3.5 -34.5q2 -18 3 -33h1q6 15 14 32q7 14 15 33t18 39l108 232h162l-262 -512h-173z" />
    <glyph glyph-name="w" unicode="w" horiz-adv-x="769" 
d="M49 512h160l15 -212q1 -16 1.5 -33.5t1.5 -33.5q1 -18 1 -36h2q7 19 14 37q6 16 13.5 34.5t14.5 34.5l91 209h135l18 -209q2 -17 2.5 -35.5t1.5 -34.5q1 -18 2 -37h2q8 19 15 37q6 16 13 33.5t14 33.5l89 212h161l-240 -512h-149l-21 233q-2 16 -3 33.5t-2 32.5
q-1 18 -1 34h-2q-7 -17 -13 -35q-6 -15 -12.5 -32.5t-13.5 -32.5l-101 -233h-149z" />
    <glyph glyph-name="x" unicode="x" horiz-adv-x="543" 
d="M177 273l-110 239h176l50 -144h2l98 144h178l-202 -252l120 -260h-178l-58 160h-2l-118 -160h-183z" />
    <glyph glyph-name="y" unicode="y" horiz-adv-x="521" 
d="M10 -43h54q34 0 54.5 17t20.5 56q0 15 -3.5 37t-9.5 51l-78 394h167l28 -216q2 -19 4 -40.5t4 -40.5q2 -22 4 -43h2q7 20 16 41q7 18 16 39t18 41l101 219h161l-270 -538q-19 -37 -39.5 -64t-45 -44.5t-54.5 -26t-67 -8.5h-108z" />
    <glyph glyph-name="z" unicode="z" horiz-adv-x="483" 
d="M-7 118l234 223q5 5 14.5 13t17.5 16q10 9 21 18v3q-14 -1 -26 -1h-37h-154l24 121h410l-22 -117l-221 -211q-11 -11 -22.5 -21t-21.5 -18q-11 -10 -22 -19v-3h26q11 0 23 0.5t21 0.5h181l-24 -123h-444z" />
    <glyph glyph-name="braceleft" unicode="{" horiz-adv-x="389" 
d="M268 -138q-58 0 -100.5 11t-68 35t-33.5 63t3 96l23 117q7 36 -6.5 55.5t-60.5 23.5l23 118q49 1 69 16.5t27 52.5l24 124q10 54 28.5 89t45.5 55.5t63 28t81 7.5h69l-25 -125h-31q-39 0 -57 -15t-26 -58l-28 -145q-9 -48 -30 -68t-55 -32v-3q29 -15 41 -39t2 -73
l-28 -140q-8 -41 10 -55t59 -14h19l-24 -125h-14v0z" />
    <glyph glyph-name="bar" unicode="|" horiz-adv-x="239" 
d="M91 754h97v-892h-97v892z" />
    <glyph glyph-name="braceright" unicode="}" horiz-adv-x="389" 
d="M-23 -13h32q38 0 56.5 15.5t26.5 58.5l28 147q10 48 30.5 68t55.5 32v3q-29 15 -41.5 39t-2.5 73l27 137q8 41 -10.5 55t-58.5 14h-18l24 125h14q58 0 100.5 -11t68 -35t33.5 -63t-3 -95l-23 -115q-7 -36 6.5 -55.5t60.5 -23.5l-23 -118q-48 -1 -68.5 -16.5t-27.5 -52.5
l-24 -127q-10 -54 -28.5 -88.5t-45.5 -55t-63 -28.5t-81 -8h-69z" />
    <glyph glyph-name="asciitilde" unicode="~" horiz-adv-x="436" 
d="M25 239q10 91 50.5 133t91.5 42q24 0 42.5 -6.5t34 -15t29.5 -15t28 -6.5q19 0 27.5 11t13.5 32h100q-9 -80 -42 -125t-91 -45q-24 0 -44 6.5t-37 14t-31.5 14t-29.5 6.5q-30 0 -41 -46h-101v0z" />
    <glyph glyph-name="uni00A0" unicode="&#xa0;" horiz-adv-x="155" 
 />
    <glyph glyph-name="exclamdown" unicode="&#xa1;" horiz-adv-x="260" 
d="M169 39l-32 -166h-166l34 177l103 304h82zM243 420h-168l33 168h168z" />
    <glyph glyph-name="cent" unicode="&#xa2;" horiz-adv-x="532" 
d="M192 -11q-37 7 -69.5 23t-57 43t-38.5 65t-14 89q0 61 20 117.5t57 100t89 70t117 28.5l14 69h60l-14 -72q36 -5 67 -19t53.5 -37.5t36 -57t14.5 -78.5h-152q-2 26 -12 45t-31 27l-58 -298q30 5 53 26.5t34 63.5h150q-20 -100 -89 -154t-171 -56l-18 -91h-60zM169 206
q0 -33 10.5 -58t36.5 -37l57 294q-28 -7 -47.5 -28t-32 -49.5t-18.5 -60.5t-6 -61z" />
    <glyph glyph-name="sterling" unicode="&#xa3;" horiz-adv-x="589" 
d="M55 381h45q-8 23 -14.5 46.5t-6.5 50.5q0 55 21.5 96t58.5 69t84.5 42t100.5 14q57 0 105 -13t82 -43t51 -76.5t12 -117.5h-160q8 119 -91 119q-41 0 -66.5 -24.5t-25.5 -73.5q0 -22 5 -44t11 -45h140l-18 -92h-107q0 -47 -28 -81t-64 -59l1 -3q15 5 29 9t34 4
q22 0 40.5 -4t36 -8.5t34.5 -8.5t37 -4q26 0 49.5 10.5t40.5 24.5l56 -128q-30 -24 -69 -40t-83 -16q-35 0 -63 7.5t-53.5 17t-50 17t-51.5 7.5q-31 0 -57.5 -12.5t-53.5 -29.5l-63 121q22 12 43.5 29.5t38.5 39t27.5 46.5t10.5 53v8h-87z" />
    <glyph glyph-name="currency" unicode="&#xa4;" horiz-adv-x="512" 
d="M30 180l64 64q-25 47 -25 105q0 57 25 104l-64 66l84 82l65 -68q42 20 93 20q50 0 92 -20l66 68l84 -82l-66 -66q26 -46 26 -104q0 -57 -25 -104l65 -65l-84 -82l-66 67q-43 -19 -92 -19q-53 0 -92 19l-66 -67zM272 238q42 0 64 30t22 81t-22 81.5t-64 30.5
q-43 0 -66 -30.5t-23 -81.5t23 -81t66 -30z" />
    <glyph glyph-name="yen" unicode="&#xa5;" horiz-adv-x="631" 
d="M206 128h-164l12 64h164l11 58h-164l13 64h142l-138 372h180l52 -168q5 -19 10 -37.5t9 -33.5q4 -18 8 -33h2q8 15 18 32q8 14 19 31l22 34l123 175h183l-281 -372h141l-12 -64h-166l-12 -58h166l-12 -64h-166l-24 -128h-161z" />
    <glyph glyph-name="brokenbar" unicode="&#xa6;" horiz-adv-x="214" 
d="M58 245h99v-383h-99v383zM58 754h99v-370h-99v370z" />
    <glyph glyph-name="section" unicode="&#xa7;" horiz-adv-x="615" 
d="M588 261q0 -32 -9.5 -56t-27 -42t-42 -31t-53.5 -23q35 -41 35 -101q0 -46 -17.5 -81.5t-48.5 -59.5t-72 -36t-88 -12q-50 0 -93 12.5t-74.5 38t-49 65t-15.5 92.5h147q-1 -41 21 -63t65 -22q28 0 49.5 14.5t21.5 43.5q0 15 -8.5 27.5t-26 25.5t-44.5 27t-65 34
q-78 40 -116 81.5t-38 101.5q0 64 37.5 101t100.5 54q-11 14 -17.5 34t-6.5 44q0 45 17.5 79.5t47.5 58t69.5 35t82.5 11.5t82.5 -10t69 -33t46.5 -59.5t16 -88.5h-140q0 34 -17.5 53.5t-56.5 19.5q-26 0 -45.5 -12.5t-19.5 -39.5q0 -12 6.5 -23t21.5 -22.5t39 -25t59 -32.5
q34 -18 63 -36.5t50 -39.5t32.5 -46.5t11.5 -57.5zM333 323q-25 14 -49 28t-45 28q-20 -5 -36 -18t-16 -36q0 -11 4.5 -20.5t16.5 -20t32.5 -23.5t52.5 -31q20 -13 42 -25.5t42 -25.5q22 5 40 17t18 34q0 26 -24 45t-78 48z" />
    <glyph glyph-name="dieresis" unicode="&#xa8;" 
d="M146 705h150l-25 -128h-150zM367 705h150l-25 -128h-150z" />
    <glyph glyph-name="copyright" unicode="&#xa9;" horiz-adv-x="810" 
d="M428 135q-49 0 -88.5 17t-68 47t-44 71t-15.5 89t15.5 89.5t44 71.5t68 47t88.5 17q38 0 70 -10.5t56 -28.5q29 -22 45.5 -53.5t21.5 -69.5h-120q-5 24 -23 41t-50 17q-45 0 -67 -34.5t-22 -86.5q0 -53 24 -87t66 -34q34 0 53 19t23 45h120q-2 -35 -16.5 -65t-37.5 -52
q-27 -26 -61.5 -38t-81.5 -12zM424 35q66 0 122 24.5t97 67t64.5 101t23.5 127.5t-23.5 128t-64.5 101.5t-97 67t-122 24.5t-122 -24.5t-97 -67t-64.5 -101.5t-23.5 -128t23.5 -127.5t64.5 -101t97 -67t122 -24.5zM424 -17q-77 0 -144.5 28t-117 77.5t-78 118t-28.5 148.5
t28.5 148.5t78 118.5t117 78t144.5 28t144.5 -28t117 -78t78 -118.5t28.5 -148.5t-28.5 -148.5t-78 -118t-117 -77.5t-144.5 -28z" />
    <glyph glyph-name="ordfeminine" unicode="&#xaa;" horiz-adv-x="494" 
d="M188 226q-61 0 -101.5 32t-40.5 94q0 41 14.5 69t40.5 45t63 26t82 12q62 4 90 13.5t28 41.5q0 18 -13 30.5t-40 12.5q-62 0 -77 -58h-136q13 70 66 112.5t154 42.5q38 0 71.5 -7t60.5 -24q30 -20 45.5 -57.5t3.5 -97.5l-40 -206q-10 -50 3 -65l-1 -6h-140
q-4 8 -5.5 21.5t-1.5 28.5h-2q-23 -29 -54.5 -44.5t-69.5 -15.5zM244 316q35 0 59.5 19t32.5 57l11 55q-15 -7 -33.5 -11t-42.5 -8q-14 -2 -28.5 -5t-27 -9.5t-20.5 -17.5t-8 -29q0 -26 16 -38.5t41 -12.5z" />
    <glyph glyph-name="guillemotleft" unicode="&#xab;" horiz-adv-x="433" 
d="M28 178l30 156l176 127l-29 -146l-93 -67v-2l67 -68l-26 -136zM218 178l30 156l174 127l-28 -146l-91 -67v-2l64 -68l-26 -136z" />
    <glyph glyph-name="logicalnot" unicode="&#xac;" horiz-adv-x="516" 
d="M332 301h-285l25 129h423l-58 -296h-137z" />
    <glyph glyph-name="uni00AD" unicode="&#xad;" horiz-adv-x="330" 
d="M43 320h267l-26 -137h-268z" />
    <glyph glyph-name="registered" unicode="&#xae;" horiz-adv-x="523" 
d="M201 616h126q39 0 68 -19t29 -57q0 -46 -43 -61v-2q17 -5 25 -16t12 -28q4 -23 4 -43t8 -24v-6h-74q-5 3 -6.5 22t-4.5 37q-4 31 -37 31h-31v-90h-76v256zM315 503q34 0 34 27t-34 27h-38v-54h38zM307 283q42 0 77 15.5t61 42.5t40.5 64t14.5 81q0 43 -14.5 80t-40.5 64
t-61 42.5t-77 15.5t-77.5 -15.5t-61.5 -42.5t-40.5 -64t-14.5 -80q0 -44 14.5 -81t40.5 -64t61.5 -42.5t77.5 -15.5zM307 244q-50 0 -94 18.5t-76.5 50.5t-51 76.5t-18.5 96.5t18.5 96.5t51 76.5t76.5 50.5t94 18.5t93.5 -18.5t76 -50.5t51 -76.5t18.5 -96.5t-18.5 -96.5
t-51 -76.5t-76 -50.5t-93.5 -18.5z" />
    <glyph glyph-name="macron" unicode="&#xaf;" 
d="M192 687h282l-20 -100h-282z" />
    <glyph glyph-name="degree" unicode="&#xb0;" horiz-adv-x="369" 
d="M239 478q32 0 50.5 21t18.5 50t-18.5 51t-50.5 22t-50 -22t-18 -51t18 -50t50 -21zM239 400q-32 0 -60 11.5t-49.5 31.5t-34 47t-12.5 59q0 31 12.5 59t34 48t49.5 32t60 12t60.5 -12t49.5 -32t33.5 -48t12.5 -59q0 -32 -12.5 -59t-33.5 -47t-49.5 -31.5t-60.5 -11.5z
" />
    <glyph glyph-name="plusminus" unicode="&#xb1;" horiz-adv-x="557" 
d="M221 310h-172l25 128h173l26 141h134l-27 -141h172l-25 -128h-172l-27 -142h-134zM13 122h478l-23 -122h-479z" />
    <glyph glyph-name="twosuperior" unicode="&#xb2;" horiz-adv-x="369" 
d="M31 318q8 54 33 86.5t57 55.5q35 26 68 42.5t62 33.5q20 12 32 24.5t12 35.5q0 18 -11 28t-30 10q-25 0 -42 -18.5t-24 -51.5h-109q6 39 22 69t41 50t56 30t67 10q28 0 54 -7t46 -21.5t32.5 -36.5t12.5 -52q0 -43 -21.5 -71.5t-51.5 -48.5q-34 -24 -71 -40.5t-60 -36.5
h172l-18 -91h-329v0z" />
    <glyph glyph-name="threesuperior" unicode="&#xb3;" horiz-adv-x="371" 
d="M218 309q-35 0 -66 9t-54 27t-36 45t-12 63h110q0 -28 14.5 -44.5t44.5 -16.5q24 0 40 13t16 37q0 44 -56 44h-24l15 74h26q25 0 41.5 10.5t16.5 32.5q0 20 -13.5 29.5t-32.5 9.5q-26 0 -41 -15t-20 -36h-107q11 58 58 95t119 37q30 0 57 -7t47 -20.5t32 -34.5t12 -48
q-1 -32 -21 -55t-50 -34v-1q23 -11 39.5 -31.5t16.5 -51.5q0 -33 -15 -58t-39 -41t-55 -24t-63 -8z" />
    <glyph glyph-name="acute" unicode="&#xb4;" 
d="M305 720h185l-138 -148h-123z" />
    <glyph glyph-name="mu" unicode="&#xb5;" horiz-adv-x="558" 
d="M87 512h160l-58 -298q-20 -95 57 -95q42 0 69.5 31t37.5 82l54 280h160l-99 -512h-153l14 74h-3q-28 -42 -59 -64.5t-69 -22.5q-18 0 -30 5t-20 12h-2l-33 -173h-158z" />
    <glyph glyph-name="paragraph" unicode="&#xb6;" horiz-adv-x="588" 
d="M283 335h-36q-84 0 -129 44.5t-45 116.5q0 47 17 91t57 78q56 50 157 50h320l-138 -715h-102l120 619h-63l-120 -619h-102z" />
    <glyph glyph-name="periodcentered" unicode="&#xb7;" horiz-adv-x="231" 
d="M59 402h168l-33 -168h-167z" />
    <glyph glyph-name="cedilla" unicode="&#xb8;" 
d="M148 -193q-38 0 -64.5 7.5t-46.5 21.5l22 35q14 -7 31.5 -11t35.5 -4q9 0 18.5 1.5t18 5t13.5 9.5t5 16q0 13 -9 18.5t-24 5.5q-18 0 -35 -7l-14 24l73 71h62l-57 -47v-2q42 4 69 -11t27 -50q0 -22 -10.5 -37.5t-28 -25.5t-40 -15t-46.5 -5z" />
    <glyph glyph-name="onesuperior" unicode="&#xb9;" horiz-adv-x="262" 
d="M157 553h-89l15 80q48 2 81.5 22.5t49.5 63.5h94l-78 -401h-119z" />
    <glyph glyph-name="ordmasculine" unicode="&#xba;" horiz-adv-x="507" 
d="M273 324q30 0 50.5 17t33.5 43.5t18.5 57.5t5.5 59q0 18 -4 35.5t-13 31t-23.5 22t-35.5 8.5q-30 0 -50 -18t-33 -45t-18.5 -58.5t-5.5 -59.5q0 -18 4 -35t12.5 -29.5t23 -20.5t35.5 -8zM270 223q-43 0 -82.5 12t-70 37.5t-48.5 63.5t-18 91q0 56 18.5 105.5t52.5 86.5
t81.5 58.5t105.5 21.5q43 0 82.5 -12t70 -37t49 -63t18.5 -90q0 -57 -18 -106.5t-52 -87t-82 -59t-107 -21.5z" />
    <glyph glyph-name="guillemotright" unicode="&#xbb;" horiz-adv-x="433" 
d="M36 188l91 67v2l-65 68l26 136l123 -136l-30 -156l-174 -127zM224 188l93 67v2l-66 68l26 136l125 -136l-30 -156l-176 -127z" />
    <glyph glyph-name="onequarter" unicode="&#xbc;" horiz-adv-x="786" 
d="M568 84h-189l18 93l230 224h116l-46 -237h58l-16 -80h-58l-16 -84h-113zM671 715h100l-632 -715h-101zM161 553h-89l15 80q48 2 81.5 22.5t49.5 63.5h94l-78 -401h-119zM483 164h101l24 123h-1l-124 -121v-2z" />
    <glyph glyph-name="onehalf" unicode="&#xbd;" horiz-adv-x="823" 
d="M417 0q9 54 34 86.5t57 55.5q35 26 68 42.5t62 33.5q20 12 32 24.5t12 35.5q0 18 -11 28t-30 10q-25 0 -42 -18.5t-24 -51.5h-109q6 39 22 69t41 50t56 30t67 10q28 0 54 -7t46 -21.5t32.5 -36.5t12.5 -52q0 -43 -21.5 -71.5t-51.5 -48.5q-34 -24 -71 -40.5t-60 -36.5
h172l-18 -91h-330zM666 715h100l-632 -715h-101zM161 553h-89l15 80q48 2 81.5 22.5t49.5 63.5h94l-78 -401h-119z" />
    <glyph glyph-name="threequarters" unicode="&#xbe;" horiz-adv-x="854" 
d="M636 84h-189l18 93l230 224h116l-46 -237h58l-16 -80h-58l-16 -84h-113zM221 309q-35 0 -66 9t-54 27t-36 45t-12 63h110q0 -28 14.5 -44.5t44.5 -16.5q24 0 40 13t16 37q0 44 -56 44h-24l15 74h26q25 0 41.5 10.5t16.5 32.5q0 20 -13.5 29.5t-32.5 9.5q-26 0 -41 -15
t-20 -36h-107q11 58 58 95t119 37q30 0 57 -7t47 -20.5t32 -34.5t12 -48q-1 -32 -21 -55t-50 -34v-1q23 -11 39.5 -31.5t16.5 -51.5q0 -33 -15 -58t-39 -41t-55 -24t-63 -8zM748 715h100l-632 -715h-101zM551 164h101l24 123h-1l-124 -121v-2z" />
    <glyph glyph-name="questiondown" unicode="&#xbf;" horiz-adv-x="538" 
d="M371 354q-8 -39 -17 -65.5t-21.5 -45.5t-28 -33t-35.5 -27q-19 -13 -40.5 -24.5t-40 -25t-31 -30.5t-12.5 -41q0 -34 21.5 -51t56.5 -17q42 0 73 25t40 79h161q-20 -117 -96.5 -177.5t-190.5 -60.5q-43 0 -85 10t-75 32t-53.5 57.5t-20.5 86.5q0 65 31.5 110t91.5 78
q37 20 59.5 32t36.5 24t21 27t11 37h144zM397 420h-168l33 168h168z" />
    <glyph glyph-name="Agrave" unicode="&#xc0;" horiz-adv-x="676" 
d="M326 715h178l125 -715h-181l-18 130h-242l-63 -130h-177zM250 256h164l-23 172q-2 14 -3.5 32t-3.5 34q-2 18 -3 37h-2q-8 -20 -16 -38q-7 -16 -15 -33t-14 -31zM286 880h175l29 -130h-121z" />
    <glyph glyph-name="Aacute" unicode="&#xc1;" horiz-adv-x="676" 
d="M326 715h178l125 -715h-181l-18 130h-242l-63 -130h-177zM250 256h164l-23 172q-2 14 -3.5 32t-3.5 34q-2 18 -3 37h-2q-8 -20 -16 -38q-7 -16 -15 -33t-14 -31zM418 880h181l-121 -130h-122z" />
    <glyph glyph-name="Acircumflex" unicode="&#xc2;" horiz-adv-x="676" 
d="M326 715h178l125 -715h-181l-18 130h-242l-63 -130h-177zM357 875h154l84 -125h-131l-36 55h-2l-52 -55h-142zM250 256h164l-23 172q-2 14 -3.5 32t-3.5 34q-2 18 -3 37h-2q-8 -20 -16 -38q-7 -16 -15 -33t-14 -31z" />
    <glyph glyph-name="Atilde" unicode="&#xc3;" horiz-adv-x="676" 
d="M326 715h178l125 -715h-181l-18 130h-242l-63 -130h-177zM482 752q-21 0 -37.5 5.5t-30.5 12t-26 12t-23 5.5q-12 0 -21.5 -9.5t-13.5 -26.5h-83q11 68 44.5 101.5t75.5 33.5q20 0 36 -6t29.5 -12.5t25 -12.5t22.5 -6q16 0 23.5 9.5t12.5 25.5h83q-10 -59 -39.5 -95.5
t-77.5 -36.5zM250 256h164l-23 172q-2 14 -3.5 32t-3.5 34q-2 18 -3 37h-2q-8 -20 -16 -38q-7 -16 -15 -33t-14 -31z" />
    <glyph glyph-name="Adieresis" unicode="&#xc4;" horiz-adv-x="676" 
d="M326 715h178l125 -715h-181l-18 130h-242l-63 -130h-177zM250 256h164l-23 172q-2 14 -3.5 32t-3.5 34q-2 18 -3 37h-2q-8 -20 -16 -38q-7 -16 -15 -33t-14 -31zM260 881h151l-25 -128h-151zM472 881h151l-25 -128h-151z" />
    <glyph glyph-name="Aring" unicode="&#xc5;" horiz-adv-x="676" 
d="M326 715h178l125 -715h-181l-18 130h-242l-63 -130h-177zM424 739q-21 0 -39.5 7.5t-32.5 20.5t-22 31t-8 39t8 38.5t22 31t32.5 21t39.5 7.5t39.5 -7.5t32.5 -21t22 -31t8 -38.5t-8 -39t-22 -31t-32.5 -20.5t-39.5 -7.5zM250 256h164l-23 172q-2 14 -3.5 32t-3.5 34
q-2 18 -3 37h-2q-8 -20 -16 -38q-7 -16 -15 -33t-14 -31zM424 794q19 0 30.5 13t11.5 30t-11.5 30t-30.5 13q-18 0 -29.5 -13t-11.5 -30t11.5 -30t29.5 -13z" />
    <glyph glyph-name="AE" unicode="&#xc6;" horiz-adv-x="971" 
d="M323 715h695l-28 -144h-336l-24 -131h287l-26 -136h-288l-30 -155h347l-29 -149h-521l24 127h-206l-64 -127h-175zM249 248h169l62 322h-68z" />
    <glyph glyph-name="Ccedilla" unicode="&#xc7;" horiz-adv-x="690" 
d="M276 -193q-38 0 -64.5 7.5t-46.5 21.5l22 35q14 -7 31.5 -11t35.5 -4q9 0 18.5 1.5t18 5t13.5 9.5t5 16q0 13 -9 18.5t-24 5.5q-18 0 -35 -7l-14 24l60 59q-120 16 -187.5 96t-67.5 211q0 84 26.5 162.5t76.5 138.5t121 96.5t161 36.5q123 0 195 -57q43 -33 65.5 -84
t26.5 -119h-174q-3 54 -32 84t-88 30q-53 0 -90.5 -25.5t-62 -66.5t-36 -91.5t-11.5 -100.5q0 -34 7.5 -65t24 -54.5t43.5 -37.5t66 -14q57 0 96 31t55 89h175q-29 -130 -119 -199q-45 -34 -97.5 -49.5t-115.5 -15.5h-3l-37 -31v-2q42 4 69 -11t27 -50q0 -22 -10.5 -37.5
t-28 -25.5t-40 -15t-46.5 -5z" />
    <glyph glyph-name="Egrave" unicode="&#xc8;" horiz-adv-x="608" 
d="M274 880h175l29 -130h-121zM136 715h519l-28 -144h-344l-25 -131h296l-26 -136h-297l-30 -155h356l-29 -149h-530z" />
    <glyph glyph-name="Eacute" unicode="&#xc9;" horiz-adv-x="608" 
d="M405 880h181l-121 -130h-122zM136 715h519l-28 -144h-344l-25 -131h296l-26 -136h-297l-30 -155h356l-29 -149h-530z" />
    <glyph glyph-name="Ecircumflex" unicode="&#xca;" horiz-adv-x="608" 
d="M136 715h519l-28 -144h-344l-25 -131h296l-26 -136h-297l-30 -155h356l-29 -149h-530zM349 875h154l84 -125h-131l-36 55h-2l-52 -55h-142z" />
    <glyph glyph-name="Edieresis" unicode="&#xcb;" horiz-adv-x="608" 
d="M249 881h151l-25 -128h-151zM461 881h151l-25 -128h-151zM136 715h519l-28 -144h-344l-25 -131h296l-26 -136h-297l-30 -155h356l-29 -149h-530z" />
    <glyph glyph-name="Igrave" unicode="&#xcc;" horiz-adv-x="272" 
d="M137 715h174l-138 -715h-175zM92 880h175l29 -130h-121z" />
    <glyph glyph-name="Iacute" unicode="&#xcd;" horiz-adv-x="272" 
d="M137 715h174l-138 -715h-175zM219 880h181l-121 -130h-122z" />
    <glyph glyph-name="Icircumflex" unicode="&#xce;" horiz-adv-x="272" 
d="M137 715h174l-138 -715h-175zM165 875h154l84 -125h-131l-36 55h-2l-52 -55h-142z" />
    <glyph glyph-name="Idieresis" unicode="&#xcf;" horiz-adv-x="272" 
d="M137 715h174l-138 -715h-175zM73 881h151l-25 -128h-151zM285 881h151l-25 -128h-151z" />
    <glyph glyph-name="Eth" unicode="&#xd0;" horiz-adv-x="700" 
d="M67 297h-54l25 134h54l55 284h256q68 0 123.5 -20t95.5 -58.5t61.5 -95.5t21.5 -131q0 -97 -26.5 -171.5t-77.5 -129.5q-49 -52 -120.5 -80.5t-159.5 -28.5h-312zM321 148q49 0 87.5 18t65 51t40 80t13.5 104q0 82 -38 124.5t-113 42.5h-83l-26 -137h151l-25 -134h-152
l-29 -149h109z" />
    <glyph glyph-name="Ntilde" unicode="&#xd1;" horiz-adv-x="687" 
d="M506 752q-21 0 -37.5 5.5t-30.5 12t-26 12t-23 5.5q-12 0 -21.5 -9.5t-13.5 -26.5h-83q11 68 44.5 101.5t75.5 33.5q20 0 36 -6t29.5 -12.5t25 -12.5t22.5 -6q16 0 23.5 9.5t12.5 25.5h83q-10 -59 -39.5 -95.5t-77.5 -36.5zM136 715h175l125 -351q8 -21 13 -39t10 -32
q4 -16 9 -30h2l88 452h169l-138 -715h-175l-122 341q-7 18 -13 38t-11 37q-6 19 -11 39h-2l-88 -455h-169z" />
    <glyph glyph-name="Ograve" unicode="&#xd2;" horiz-adv-x="727" 
d="M295 880h175l29 -130h-121zM359 126q53 0 90.5 26t61 67.5t34.5 91.5t11 98q0 37 -8 69.5t-26 56.5t-46 38t-68 14q-53 0 -91 -27.5t-62 -69.5t-35 -93t-11 -100q0 -35 8 -66.5t26 -54.5t46.5 -36.5t69.5 -13.5zM354 -17q-69 0 -128.5 20.5t-102.5 60t-67 97.5t-24 134
q0 87 27 165.5t76.5 138.5t120.5 95t160 35q72 0 130.5 -21.5t100 -62.5t64 -100t22.5 -134q0 -85 -26 -162.5t-74.5 -136.5t-119 -94t-159.5 -35z" />
    <glyph glyph-name="Oacute" unicode="&#xd3;" horiz-adv-x="727" 
d="M431 880h181l-121 -130h-122zM359 126q53 0 90.5 26t61 67.5t34.5 91.5t11 98q0 37 -8 69.5t-26 56.5t-46 38t-68 14q-53 0 -91 -27.5t-62 -69.5t-35 -93t-11 -100q0 -35 8 -66.5t26 -54.5t46.5 -36.5t69.5 -13.5zM354 -17q-69 0 -128.5 20.5t-102.5 60t-67 97.5t-24 134
q0 87 27 165.5t76.5 138.5t120.5 95t160 35q72 0 130.5 -21.5t100 -62.5t64 -100t22.5 -134q0 -85 -26 -162.5t-74.5 -136.5t-119 -94t-159.5 -35z" />
    <glyph glyph-name="Ocircumflex" unicode="&#xd4;" horiz-adv-x="727" 
d="M359 126q53 0 90.5 26t61 67.5t34.5 91.5t11 98q0 37 -8 69.5t-26 56.5t-46 38t-68 14q-53 0 -91 -27.5t-62 -69.5t-35 -93t-11 -100q0 -35 8 -66.5t26 -54.5t46.5 -36.5t69.5 -13.5zM354 -17q-69 0 -128.5 20.5t-102.5 60t-67 97.5t-24 134q0 87 27 165.5t76.5 138.5
t120.5 95t160 35q72 0 130.5 -21.5t100 -62.5t64 -100t22.5 -134q0 -85 -26 -162.5t-74.5 -136.5t-119 -94t-159.5 -35zM376 875h154l84 -125h-131l-36 55h-2l-52 -55h-142z" />
    <glyph glyph-name="Otilde" unicode="&#xd5;" horiz-adv-x="727" 
d="M494 752q-21 0 -37.5 5.5t-30.5 12t-26 12t-23 5.5q-12 0 -21.5 -9.5t-13.5 -26.5h-83q11 68 44.5 101.5t75.5 33.5q20 0 36 -6t29.5 -12.5t25 -12.5t22.5 -6q16 0 23.5 9.5t12.5 25.5h83q-10 -59 -39.5 -95.5t-77.5 -36.5zM359 126q53 0 90.5 26t61 67.5t34.5 91.5
t11 98q0 37 -8 69.5t-26 56.5t-46 38t-68 14q-53 0 -91 -27.5t-62 -69.5t-35 -93t-11 -100q0 -35 8 -66.5t26 -54.5t46.5 -36.5t69.5 -13.5zM354 -17q-69 0 -128.5 20.5t-102.5 60t-67 97.5t-24 134q0 87 27 165.5t76.5 138.5t120.5 95t160 35q72 0 130.5 -21.5t100 -62.5
t64 -100t22.5 -134q0 -85 -26 -162.5t-74.5 -136.5t-119 -94t-159.5 -35z" />
    <glyph glyph-name="Odieresis" unicode="&#xd6;" horiz-adv-x="727" 
d="M277 881h151l-25 -128h-151zM489 881h151l-25 -128h-151zM359 126q53 0 90.5 26t61 67.5t34.5 91.5t11 98q0 37 -8 69.5t-26 56.5t-46 38t-68 14q-53 0 -91 -27.5t-62 -69.5t-35 -93t-11 -100q0 -35 8 -66.5t26 -54.5t46.5 -36.5t69.5 -13.5zM354 -17q-69 0 -128.5 20.5
t-102.5 60t-67 97.5t-24 134q0 87 27 165.5t76.5 138.5t120.5 95t160 35q72 0 130.5 -21.5t100 -62.5t64 -100t22.5 -134q0 -85 -26 -162.5t-74.5 -136.5t-119 -94t-159.5 -35z" />
    <glyph glyph-name="multiply" unicode="&#xd7;" horiz-adv-x="557" 
d="M26 173l174 156l-122 153l101 87l121 -151l168 151l83 -90l-174 -156l122 -152l-101 -88l-121 150l-169 -151z" />
    <glyph glyph-name="Oslash" unicode="&#xd8;" horiz-adv-x="727" 
d="M20 15l73 80q-29 38 -45.5 88t-15.5 112q0 87 26.5 165.5t76 138.5t120.5 95t160 35q60 0 110.5 -15t90.5 -44l65 72l54 -49l-67 -73q32 -40 48.5 -92.5t16.5 -116.5q0 -85 -26 -162.5t-74.5 -136.5t-119 -94t-159.5 -35q-124 0 -209 61l-72 -79zM359 126q54 0 92 26
t62 67.5t35 91.5t11 98q0 46 -10 79l-297 -327q37 -35 107 -35zM206 297q0 -35 8 -69l296 325q-37 34 -102 34q-54 0 -92.5 -27t-62.5 -69t-35.5 -93.5t-11.5 -100.5z" />
    <glyph glyph-name="Ugrave" unicode="&#xd9;" horiz-adv-x="673" 
d="M291 880h175l29 -130h-121zM319 -13q-69 0 -126 16.5t-94.5 52t-52.5 89.5t-1 129l86 441h174l-89 -459q-11 -60 14.5 -94t93.5 -34q58 0 88 30t40 82l92 475h174l-94 -484q-23 -118 -97.5 -181t-207.5 -63z" />
    <glyph glyph-name="Uacute" unicode="&#xda;" horiz-adv-x="673" 
d="M426 880h181l-121 -130h-122zM319 -13q-69 0 -126 16.5t-94.5 52t-52.5 89.5t-1 129l86 441h174l-89 -459q-11 -60 14.5 -94t93.5 -34q58 0 88 30t40 82l92 475h174l-94 -484q-23 -118 -97.5 -181t-207.5 -63z" />
    <glyph glyph-name="Ucircumflex" unicode="&#xdb;" horiz-adv-x="673" 
d="M319 -13q-69 0 -126 16.5t-94.5 52t-52.5 89.5t-1 129l86 441h174l-89 -459q-11 -60 14.5 -94t93.5 -34q58 0 88 30t40 82l92 475h174l-94 -484q-23 -118 -97.5 -181t-207.5 -63zM367 875h154l84 -125h-131l-36 55h-2l-52 -55h-142z" />
    <glyph glyph-name="Udieresis" unicode="&#xdc;" horiz-adv-x="673" 
d="M268 881h151l-25 -128h-151zM480 881h151l-25 -128h-151zM319 -13q-69 0 -126 16.5t-94.5 52t-52.5 89.5t-1 129l86 441h174l-89 -459q-11 -60 14.5 -94t93.5 -34q58 0 88 30t40 82l92 475h174l-94 -484q-23 -118 -97.5 -181t-207.5 -63z" />
    <glyph glyph-name="Yacute" unicode="&#xdd;" horiz-adv-x="639" 
d="M231 267l-145 448h183l52 -182q5 -19 9.5 -38t8.5 -36q4 -19 7 -37h2l22 36q10 16 21.5 35t24.5 38l124 184h189l-324 -454l-50 -261h-175zM403 880h181l-121 -130h-122z" />
    <glyph glyph-name="Thorn" unicode="&#xde;" horiz-adv-x="637" 
d="M136 715h177l-19 -99h104q65 0 110.5 -16t75.5 -45q29 -28 45.5 -66.5t16.5 -89.5q0 -60 -20.5 -108t-56.5 -81.5t-86.5 -51.5t-110.5 -18h-170l-27 -140h-177zM358 279q22 0 42.5 6.5t36 20t24.5 34t9 48.5q0 81 -88 81h-116l-37 -190h129z" />
    <glyph glyph-name="germandbls" unicode="&#xdf;" horiz-adv-x="568" 
d="M303 -9q-29 0 -53.5 3.5t-48.5 11.5l23 116h1q24 -6 51 -6q50 0 82.5 35.5t32.5 104.5q0 47 -24.5 73.5t-75.5 26.5h-20l18 92h19q22 0 41.5 5t34 15.5t23 28t8.5 42.5q0 31 -20 49t-52 18q-77 0 -95 -91l-100 -515h-160l101 525q19 96 86 150t172 54q38 0 76.5 -9
t69.5 -29.5t51 -53.5t20 -81q1 -53 -28 -93.5t-84 -60.5v-3q42 -19 68.5 -58.5t26.5 -97.5q0 -56 -17.5 -102.5t-49.5 -79.5t-77 -51.5t-100 -18.5z" />
    <glyph glyph-name="agrave" unicode="&#xe0;" horiz-adv-x="528" 
d="M155 -13q-33 0 -62.5 9.5t-51.5 28.5t-34.5 46.5t-12.5 63.5q0 47 16.5 78t45.5 50.5t69 29t87 12.5q38 3 65 6t44 9.5t25 17.5t8 30q0 22 -16 35.5t-48 13.5q-75 0 -91 -67h-149q14 80 75 128t173 48q45 0 85 -9t70 -32q32 -23 46.5 -64.5t2.5 -104.5l-46 -236
q-6 -29 -5 -47t8 -26v-7h-154q-5 9 -6.5 24t-1.5 32h-2q-26 -30 -60.5 -49.5t-79.5 -19.5zM215 91q42 0 70 22.5t37 64.5l12 63q-17 -8 -37.5 -13t-49.5 -10q-15 -3 -32.5 -5.5t-32 -9.5t-24 -19.5t-9.5 -34.5q0 -30 18.5 -44t47.5 -14zM169 720h175l43 -148h-121z" />
    <glyph glyph-name="aacute" unicode="&#xe1;" horiz-adv-x="528" 
d="M155 -13q-33 0 -62.5 9.5t-51.5 28.5t-34.5 46.5t-12.5 63.5q0 47 16.5 78t45.5 50.5t69 29t87 12.5q38 3 65 6t44 9.5t25 17.5t8 30q0 22 -16 35.5t-48 13.5q-75 0 -91 -67h-149q14 80 75 128t173 48q45 0 85 -9t70 -32q32 -23 46.5 -64.5t2.5 -104.5l-46 -236
q-6 -29 -5 -47t8 -26v-7h-154q-5 9 -6.5 24t-1.5 32h-2q-26 -30 -60.5 -49.5t-79.5 -19.5zM215 91q42 0 70 22.5t37 64.5l12 63q-17 -8 -37.5 -13t-49.5 -10q-15 -3 -32.5 -5.5t-32 -9.5t-24 -19.5t-9.5 -34.5q0 -30 18.5 -44t47.5 -14zM333 720h185l-138 -148h-123z" />
    <glyph glyph-name="acircumflex" unicode="&#xe2;" horiz-adv-x="528" 
d="M155 -13q-33 0 -62.5 9.5t-51.5 28.5t-34.5 46.5t-12.5 63.5q0 47 16.5 78t45.5 50.5t69 29t87 12.5q38 3 65 6t44 9.5t25 17.5t8 30q0 22 -16 35.5t-48 13.5q-75 0 -91 -67h-149q14 80 75 128t173 48q45 0 85 -9t70 -32q32 -23 46.5 -64.5t2.5 -104.5l-46 -236
q-6 -29 -5 -47t8 -26v-7h-154q-5 9 -6.5 24t-1.5 32h-2q-26 -30 -60.5 -49.5t-79.5 -19.5zM215 91q42 0 70 22.5t37 64.5l12 63q-17 -8 -37.5 -13t-49.5 -10q-15 -3 -32.5 -5.5t-32 -9.5t-24 -19.5t-9.5 -34.5q0 -30 18.5 -44t47.5 -14zM263 711h154l83 -137h-132l-34 66h-2
l-55 -66h-141z" />
    <glyph glyph-name="atilde" unicode="&#xe3;" horiz-adv-x="528" 
d="M155 -13q-33 0 -62.5 9.5t-51.5 28.5t-34.5 46.5t-12.5 63.5q0 47 16.5 78t45.5 50.5t69 29t87 12.5q38 3 65 6t44 9.5t25 17.5t8 30q0 22 -16 35.5t-48 13.5q-75 0 -91 -67h-149q14 80 75 128t173 48q45 0 85 -9t70 -32q32 -23 46.5 -64.5t2.5 -104.5l-46 -236
q-6 -29 -5 -47t8 -26v-7h-154q-5 9 -6.5 24t-1.5 32h-2q-26 -30 -60.5 -49.5t-79.5 -19.5zM215 91q42 0 70 22.5t37 64.5l12 63q-17 -8 -37.5 -13t-49.5 -10q-15 -3 -32.5 -5.5t-32 -9.5t-24 -19.5t-9.5 -34.5q0 -30 18.5 -44t47.5 -14zM385 572q-21 0 -36.5 5.5t-28.5 12
l-24 12t-22 5.5q-12 0 -21.5 -9.5t-13.5 -26.5h-83q11 68 44.5 101.5t75.5 33.5q20 0 35 -6t28 -12.5t23.5 -12.5t21.5 -6q16 0 23.5 9.5t12.5 25.5h82q-10 -59 -39 -95.5t-78 -36.5z" />
    <glyph glyph-name="adieresis" unicode="&#xe4;" horiz-adv-x="528" 
d="M155 -13q-33 0 -62.5 9.5t-51.5 28.5t-34.5 46.5t-12.5 63.5q0 47 16.5 78t45.5 50.5t69 29t87 12.5q38 3 65 6t44 9.5t25 17.5t8 30q0 22 -16 35.5t-48 13.5q-75 0 -91 -67h-149q14 80 75 128t173 48q45 0 85 -9t70 -32q32 -23 46.5 -64.5t2.5 -104.5l-46 -236
q-6 -29 -5 -47t8 -26v-7h-154q-5 9 -6.5 24t-1.5 32h-2q-26 -30 -60.5 -49.5t-79.5 -19.5zM215 91q42 0 70 22.5t37 64.5l12 63q-17 -8 -37.5 -13t-49.5 -10q-15 -3 -32.5 -5.5t-32 -9.5t-24 -19.5t-9.5 -34.5q0 -30 18.5 -44t47.5 -14zM162 705h150l-25 -128h-150zM383 705
h150l-25 -128h-150z" />
    <glyph glyph-name="aring" unicode="&#xe5;" horiz-adv-x="528" 
d="M155 -13q-33 0 -62.5 9.5t-51.5 28.5t-34.5 46.5t-12.5 63.5q0 47 16.5 78t45.5 50.5t69 29t87 12.5q38 3 65 6t44 9.5t25 17.5t8 30q0 22 -16 35.5t-48 13.5q-75 0 -91 -67h-149q14 80 75 128t173 48q45 0 85 -9t70 -32q32 -23 46.5 -64.5t2.5 -104.5l-46 -236
q-6 -29 -5 -47t8 -26v-7h-154q-5 9 -6.5 24t-1.5 32h-2q-26 -30 -60.5 -49.5t-79.5 -19.5zM215 91q42 0 70 22.5t37 64.5l12 63q-17 -8 -37.5 -13t-49.5 -10q-15 -3 -32.5 -5.5t-32 -9.5t-24 -19.5t-9.5 -34.5q0 -30 18.5 -44t47.5 -14zM324 614q18 0 29.5 12.5t11.5 29.5
t-11.5 30t-29.5 13q-19 0 -30.5 -13t-11.5 -30t11.5 -29.5t30.5 -12.5zM324 558q-21 0 -39.5 7.5t-32.5 21t-22 31t-8 38.5t8 39t22 31.5t32.5 21t39.5 7.5t39.5 -7.5t32.5 -21t22 -31.5t8 -39t-8 -38.5t-22 -31t-32.5 -21t-39.5 -7.5z" />
    <glyph glyph-name="ae" unicode="&#xe6;" horiz-adv-x="859" 
d="M298 526q55 0 96 -13.5t64 -42.5q30 27 69 42t87 15q43 0 76 -8.5t59 -25.5q60 -39 82 -111t8 -168h-353q0 -24 5 -44.5t15.5 -36t29 -24t45.5 -8.5q29 0 52.5 12.5t35.5 39.5h156q-11 -36 -33 -67t-53.5 -53.5t-72.5 -35t-89 -12.5q-67 0 -118 23t-80 70
q-13 -19 -30.5 -35.5t-41.5 -29t-55 -19.5t-70 -7q-87 0 -137.5 38.5t-50.5 111.5q0 46 16.5 76.5t45.5 49.5t69 28.5t87 12.5q38 3 65 6t44 10t25 18t8 30q0 22 -16 35.5t-48 13.5q-75 0 -91 -67h-149q14 80 75 128t173 48zM149 149q0 -30 18.5 -44t47.5 -14q42 0 70 22.5
t38 68.5l11 58q-17 -8 -37.5 -13t-49.5 -10q-15 -3 -32.5 -5.5t-32 -9t-24 -19t-9.5 -34.5zM610 412q-42 0 -69.5 -27t-41.5 -74h195q1 21 -3.5 39t-15 32t-26.5 22t-39 8z" />
    <glyph glyph-name="ccedilla" unicode="&#xe7;" horiz-adv-x="532" 
d="M188 -193q-38 0 -64.5 7.5t-46.5 21.5l22 35q14 -7 31.5 -11t35.5 -4q9 0 18.5 1.5t18 5t13.5 9.5t5 16q0 13 -9 18.5t-24 5.5q-18 0 -35 -7l-14 24l61 60q-39 6 -73.5 22.5t-59.5 44t-39.5 66t-14.5 89.5q0 63 20.5 120t58 100.5t91.5 69t121 25.5q46 0 86 -11t70 -35
t48 -61t20 -89h-154q-3 34 -19.5 55.5t-54.5 21.5q-33 0 -57 -19t-39.5 -48.5t-23 -64.5t-7.5 -67q0 -43 19.5 -73t67.5 -30q35 0 61.5 21.5t38.5 67.5h153q-10 -50 -33 -89t-56.5 -65.5t-76 -41t-90.5 -14.5h-3l-37 -31v-2q42 4 69 -11t27 -50q0 -22 -10.5 -37.5t-28 -25.5
t-40 -15t-46.5 -5z" />
    <glyph glyph-name="egrave" unicode="&#xe8;" horiz-adv-x="543" 
d="M171 214q0 -24 4.5 -44.5t15 -36t28.5 -24t45 -8.5q29 0 52.5 12.5t35.5 39.5h158q-12 -37 -34.5 -68t-54.5 -53t-73.5 -34.5t-90.5 -12.5q-52 0 -96.5 15t-77.5 44.5t-51.5 73.5t-18.5 103q0 60 20.5 115.5t57.5 98t89.5 67.5t115.5 25q45 0 77.5 -8.5t59.5 -25.5
q61 -38 82 -110.5t7 -168.5h-351zM156 720h175l43 -148h-121zM294 412q-38 0 -67 -26.5t-43 -74.5h192q1 21 -3.5 39t-14 32t-25.5 22t-39 8z" />
    <glyph glyph-name="eacute" unicode="&#xe9;" horiz-adv-x="543" 
d="M171 214q0 -24 4.5 -44.5t15 -36t28.5 -24t45 -8.5q29 0 52.5 12.5t35.5 39.5h158q-12 -37 -34.5 -68t-54.5 -53t-73.5 -34.5t-90.5 -12.5q-52 0 -96.5 15t-77.5 44.5t-51.5 73.5t-18.5 103q0 60 20.5 115.5t57.5 98t89.5 67.5t115.5 25q45 0 77.5 -8.5t59.5 -25.5
q61 -38 82 -110.5t7 -168.5h-351zM321 720h185l-138 -148h-123zM294 412q-38 0 -67 -26.5t-43 -74.5h192q1 21 -3.5 39t-14 32t-25.5 22t-39 8z" />
    <glyph glyph-name="ecircumflex" unicode="&#xea;" horiz-adv-x="543" 
d="M171 214q0 -24 4.5 -44.5t15 -36t28.5 -24t45 -8.5q29 0 52.5 12.5t35.5 39.5h158q-12 -37 -34.5 -68t-54.5 -53t-73.5 -34.5t-90.5 -12.5q-52 0 -96.5 15t-77.5 44.5t-51.5 73.5t-18.5 103q0 60 20.5 115.5t57.5 98t89.5 67.5t115.5 25q45 0 77.5 -8.5t59.5 -25.5
q61 -38 82 -110.5t7 -168.5h-351zM251 711h154l83 -137h-132l-34 66h-2l-55 -66h-141zM294 412q-38 0 -67 -26.5t-43 -74.5h192q1 21 -3.5 39t-14 32t-25.5 22t-39 8z" />
    <glyph glyph-name="edieresis" unicode="&#xeb;" horiz-adv-x="543" 
d="M171 214q0 -24 4.5 -44.5t15 -36t28.5 -24t45 -8.5q29 0 52.5 12.5t35.5 39.5h158q-12 -37 -34.5 -68t-54.5 -53t-73.5 -34.5t-90.5 -12.5q-52 0 -96.5 15t-77.5 44.5t-51.5 73.5t-18.5 103q0 60 20.5 115.5t57.5 98t89.5 67.5t115.5 25q45 0 77.5 -8.5t59.5 -25.5
q61 -38 82 -110.5t7 -168.5h-351zM370 705h150l-25 -128h-150zM149 705h150l-25 -128h-150zM294 412q-38 0 -67 -26.5t-43 -74.5h192q1 21 -3.5 39t-14 32t-25.5 22t-39 8z" />
    <glyph glyph-name="igrave" unicode="&#xec;" horiz-adv-x="237" 
d="M87 512h160l-99 -512h-160zM28 720h175l43 -148h-121z" />
    <glyph glyph-name="iacute" unicode="&#xed;" horiz-adv-x="237" 
d="M188 720h185l-138 -148h-123zM87 512h160l-99 -512h-160z" />
    <glyph glyph-name="icircumflex" unicode="&#xee;" horiz-adv-x="237" 
d="M120 711h151l71 -137h-127l-27 64h-2l-47 -64h-135zM87 512h160l-99 -512h-160z" />
    <glyph glyph-name="idieresis" unicode="&#xef;" horiz-adv-x="237" 
d="M87 512h160l-99 -512h-160zM62 705h123l-25 -128h-123zM223 705h123l-25 -128h-123z" />
    <glyph glyph-name="eth" unicode="&#xf0;" horiz-adv-x="570" 
d="M268 626q-26 25 -53.5 47t-54.5 42h191q28 -20 57 -45l105 33l15 -55l-75 -24q44 -52 73 -123t29 -164q0 -76 -19 -140.5t-56 -112t-92 -74t-126 -26.5q-55 0 -100.5 15.5t-78.5 46t-51.5 75t-18.5 101.5q0 60 18.5 113.5t52.5 93.5t81 63.5t106 23.5q36 0 63.5 -12
t47.5 -35h2q-13 29 -31 57t-41 54l-138 -43l-16 55zM173 212q0 -23 4.5 -43.5t15 -36t27.5 -25t42 -9.5q35 0 59.5 19.5t40.5 49t23 65t7 68.5q0 21 -5 40.5t-16 34.5t-28.5 24t-42.5 9q-35 0 -59 -18.5t-39 -47.5t-22 -63.5t-7 -66.5z" />
    <glyph glyph-name="ntilde" unicode="&#xf1;" horiz-adv-x="556" 
d="M87 512h155l-16 -81h3q31 45 70.5 70.5t94.5 25.5q39 0 68.5 -14.5t48.5 -42t24.5 -67t-3.5 -88.5l-61 -315h-160l59 303q8 42 -6 67t-54 25q-42 0 -70 -33t-38 -81l-54 -281h-160zM400 572q-21 0 -36.5 5.5t-28.5 12l-24 12t-22 5.5q-12 0 -21.5 -9.5t-13.5 -26.5h-83
q11 68 44.5 101.5t75.5 33.5q20 0 35 -6t28 -12.5t23.5 -12.5t21.5 -6q16 0 23.5 9.5t12.5 25.5h82q-10 -59 -39 -95.5t-78 -36.5z" />
    <glyph glyph-name="ograve" unicode="&#xf2;" horiz-adv-x="567" 
d="M263 98q35 0 59.5 19.5t40 49t22 64.5t6.5 67q0 22 -5 42.5t-15.5 36.5t-27.5 25.5t-42 9.5q-35 0 -59 -19.5t-39.5 -49.5t-22 -65t-6.5 -66q0 -23 4.5 -43.5t15 -36.5t27.5 -25t42 -9zM260 -16q-49 0 -93.5 14.5t-78.5 43.5t-54.5 73.5t-20.5 103.5q0 63 20.5 119
t59 97.5t92.5 66t121 24.5q49 0 93.5 -14.5t78.5 -43.5t54.5 -72.5t20.5 -102.5q0 -64 -20.5 -120t-59 -98t-92.5 -66.5t-121 -24.5zM168 720h175l43 -148h-121z" />
    <glyph glyph-name="oacute" unicode="&#xf3;" horiz-adv-x="567" 
d="M335 720h185l-138 -148h-123zM263 98q35 0 59.5 19.5t40 49t22 64.5t6.5 67q0 22 -5 42.5t-15.5 36.5t-27.5 25.5t-42 9.5q-35 0 -59 -19.5t-39.5 -49.5t-22 -65t-6.5 -66q0 -23 4.5 -43.5t15 -36.5t27.5 -25t42 -9zM260 -16q-49 0 -93.5 14.5t-78.5 43.5t-54.5 73.5
t-20.5 103.5q0 63 20.5 119t59 97.5t92.5 66t121 24.5q49 0 93.5 -14.5t78.5 -43.5t54.5 -72.5t20.5 -102.5q0 -64 -20.5 -120t-59 -98t-92.5 -66.5t-121 -24.5z" />
    <glyph glyph-name="ocircumflex" unicode="&#xf4;" horiz-adv-x="567" 
d="M265 711h154l83 -137h-132l-34 66h-2l-55 -66h-141zM263 98q35 0 59.5 19.5t40 49t22 64.5t6.5 67q0 22 -5 42.5t-15.5 36.5t-27.5 25.5t-42 9.5q-35 0 -59 -19.5t-39.5 -49.5t-22 -65t-6.5 -66q0 -23 4.5 -43.5t15 -36.5t27.5 -25t42 -9zM260 -16q-49 0 -93.5 14.5
t-78.5 43.5t-54.5 73.5t-20.5 103.5q0 63 20.5 119t59 97.5t92.5 66t121 24.5q49 0 93.5 -14.5t78.5 -43.5t54.5 -72.5t20.5 -102.5q0 -64 -20.5 -120t-59 -98t-92.5 -66.5t-121 -24.5z" />
    <glyph glyph-name="otilde" unicode="&#xf5;" horiz-adv-x="567" 
d="M263 98q35 0 59.5 19.5t40 49t22 64.5t6.5 67q0 22 -5 42.5t-15.5 36.5t-27.5 25.5t-42 9.5q-35 0 -59 -19.5t-39.5 -49.5t-22 -65t-6.5 -66q0 -23 4.5 -43.5t15 -36.5t27.5 -25t42 -9zM260 -16q-49 0 -93.5 14.5t-78.5 43.5t-54.5 73.5t-20.5 103.5q0 63 20.5 119
t59 97.5t92.5 66t121 24.5q49 0 93.5 -14.5t78.5 -43.5t54.5 -72.5t20.5 -102.5q0 -64 -20.5 -120t-59 -98t-92.5 -66.5t-121 -24.5zM382 572q-21 0 -36.5 5.5t-28.5 12l-24 12t-22 5.5q-12 0 -21.5 -9.5t-13.5 -26.5h-83q11 68 44.5 101.5t75.5 33.5q20 0 35 -6t28 -12.5
t23.5 -12.5t21.5 -6q16 0 23.5 9.5t12.5 25.5h82q-10 -59 -39 -95.5t-78 -36.5z" />
    <glyph glyph-name="odieresis" unicode="&#xf6;" horiz-adv-x="567" 
d="M165 705h150l-25 -128h-150zM386 705h150l-25 -128h-150zM263 98q35 0 59.5 19.5t40 49t22 64.5t6.5 67q0 22 -5 42.5t-15.5 36.5t-27.5 25.5t-42 9.5q-35 0 -59 -19.5t-39.5 -49.5t-22 -65t-6.5 -66q0 -23 4.5 -43.5t15 -36.5t27.5 -25t42 -9zM260 -16q-49 0 -93.5 14.5
t-78.5 43.5t-54.5 73.5t-20.5 103.5q0 63 20.5 119t59 97.5t92.5 66t121 24.5q49 0 93.5 -14.5t78.5 -43.5t54.5 -72.5t20.5 -102.5q0 -64 -20.5 -120t-59 -98t-92.5 -66.5t-121 -24.5z" />
    <glyph glyph-name="divide" unicode="&#xf7;" horiz-adv-x="557" 
d="M185 208h167l-29 -149h-167zM65 392h479l-25 -125h-478zM261 600h167l-29 -149h-167z" />
    <glyph glyph-name="oslash" unicode="&#xf8;" horiz-adv-x="567" 
d="M8 6l56 59q-24 29 -37.5 67t-13.5 87q0 63 21 119t59.5 97.5t92.5 66t121 24.5q42 0 80.5 -10.5t70.5 -31.5l56 59l43 -41l-55 -58q23 -29 36.5 -66t14.5 -85q0 -64 -21 -120t-59 -98t-92 -66.5t-121 -24.5q-42 0 -80.5 10.5t-70.5 31.5l-58 -62zM171 208v-14.5t1 -12.5
l194 205q-24 26 -65 26q-35 0 -59.5 -20t-40.5 -50t-23 -66t-7 -68zM263 98q35 0 60 19.5t41 49.5t23 65.5t7 68.5q0 7 -0.5 13t-1.5 13l-193 -205q22 -24 64 -24z" />
    <glyph glyph-name="ugrave" unicode="&#xf9;" horiz-adv-x="551" 
d="M163 -15q-41 0 -72 14t-50 40.5t-25 65t4 87.5l61 320h160l-58 -298q-8 -44 4 -70.5t52 -26.5q42 0 69.5 29.5t38.5 82.5l54 283h160l-99 -512h-153l15 77h-3q-29 -42 -66.5 -67t-91.5 -25zM176 720h175l43 -148h-121z" />
    <glyph glyph-name="uacute" unicode="&#xfa;" horiz-adv-x="551" 
d="M342 720h185l-138 -148h-123zM163 -15q-41 0 -72 14t-50 40.5t-25 65t4 87.5l61 320h160l-58 -298q-8 -44 4 -70.5t52 -26.5q42 0 69.5 29.5t38.5 82.5l54 283h160l-99 -512h-153l15 77h-3q-29 -42 -66.5 -67t-91.5 -25z" />
    <glyph glyph-name="ucircumflex" unicode="&#xfb;" horiz-adv-x="551" 
d="M276 711h154l83 -137h-132l-34 66h-2l-55 -66h-141zM163 -15q-41 0 -72 14t-50 40.5t-25 65t4 87.5l61 320h160l-58 -298q-8 -44 4 -70.5t52 -26.5q42 0 69.5 29.5t38.5 82.5l54 283h160l-99 -512h-153l15 77h-3q-29 -42 -66.5 -67t-91.5 -25z" />
    <glyph glyph-name="udieresis" unicode="&#xfc;" horiz-adv-x="551" 
d="M173 705h150l-25 -128h-150zM394 705h150l-25 -128h-150zM163 -15q-41 0 -72 14t-50 40.5t-25 65t4 87.5l61 320h160l-58 -298q-8 -44 4 -70.5t52 -26.5q42 0 69.5 29.5t38.5 82.5l54 283h160l-99 -512h-153l15 77h-3q-29 -42 -66.5 -67t-91.5 -25z" />
    <glyph glyph-name="yacute" unicode="&#xfd;" horiz-adv-x="521" 
d="M10 -43h54q34 0 54.5 17t20.5 56q0 15 -3.5 37t-9.5 51l-78 394h167l28 -216q2 -19 4 -40.5t4 -40.5q2 -22 4 -43h2q7 20 16 41q7 18 16 39t18 41l101 219h161l-270 -538q-19 -37 -39.5 -64t-45 -44.5t-54.5 -26t-67 -8.5h-108zM328 720h185l-138 -148h-123z" />
    <glyph glyph-name="thorn" unicode="&#xfe;" horiz-adv-x="578" 
d="M126 715h160l-50 -258h3q27 30 62 50t86 20q43 0 76 -17t55.5 -47t34.5 -70.5t12 -88.5q0 -57 -15 -114t-46.5 -102.5t-79 -74.5t-113.5 -29q-49 0 -88.5 20.5t-59.5 60.5h-2l-46 -234h-160zM280 109q33 0 56.5 17t37.5 44t20.5 60t6.5 65q0 20 -4.5 39t-14 34t-26 24
t-40.5 9q-31 0 -55 -17t-40 -44t-24.5 -59.5t-8.5 -63.5q0 -21 5 -40.5t16 -34.5t28.5 -24t42.5 -9z" />
    <glyph glyph-name="ydieresis" unicode="&#xff;" horiz-adv-x="521" 
d="M10 -43h54q34 0 54.5 17t20.5 56q0 15 -3.5 37t-9.5 51l-78 394h167l28 -216q2 -19 4 -40.5t4 -40.5q2 -22 4 -43h2q7 20 16 41q7 18 16 39t18 41l101 219h161l-270 -538q-19 -37 -39.5 -64t-45 -44.5t-54.5 -26t-67 -8.5h-108zM156 705h150l-25 -128h-150zM377 705h150
l-25 -128h-150z" />
    <glyph glyph-name="Amacron" unicode="&#x100;" horiz-adv-x="676" 
d="M326 715h178l125 -715h-181l-18 130h-242l-63 -130h-177zM296 862h282l-20 -100h-282zM250 256h164l-23 172q-2 14 -3.5 32t-3.5 34q-2 18 -3 37h-2q-8 -20 -16 -38q-7 -16 -15 -33t-14 -31z" />
    <glyph glyph-name="amacron" unicode="&#x101;" horiz-adv-x="528" 
d="M155 -13q-33 0 -62.5 9.5t-51.5 28.5t-34.5 46.5t-12.5 63.5q0 47 16.5 78t45.5 50.5t69 29t87 12.5q38 3 65 6t44 9.5t25 17.5t8 30q0 22 -16 35.5t-48 13.5q-75 0 -91 -67h-149q14 80 75 128t173 48q45 0 85 -9t70 -32q32 -23 46.5 -64.5t2.5 -104.5l-46 -236
q-6 -29 -5 -47t8 -26v-7h-154q-5 9 -6.5 24t-1.5 32h-2q-26 -30 -60.5 -49.5t-79.5 -19.5zM215 91q42 0 70 22.5t37 64.5l12 63q-17 -8 -37.5 -13t-49.5 -10q-15 -3 -32.5 -5.5t-32 -9.5t-24 -19.5t-9.5 -34.5q0 -30 18.5 -44t47.5 -14zM199 687h282l-20 -100h-282z" />
    <glyph glyph-name="Abreve" unicode="&#x102;" horiz-adv-x="676" 
d="M326 715h178l125 -715h-181l-18 130h-242l-63 -130h-177zM424 744q-72 0 -112.5 39t-39.5 106h90q2 -21 17 -34t47 -13q30 0 49 14t24 33h91q-11 -68 -55.5 -106.5t-110.5 -38.5zM250 256h164l-23 172q-2 14 -3.5 32t-3.5 34q-2 18 -3 37h-2q-8 -20 -16 -38
q-7 -16 -15 -33t-14 -31z" />
    <glyph glyph-name="abreve" unicode="&#x103;" horiz-adv-x="528" 
d="M155 -13q-33 0 -62.5 9.5t-51.5 28.5t-34.5 46.5t-12.5 63.5q0 47 16.5 78t45.5 50.5t69 29t87 12.5q38 3 65 6t44 9.5t25 17.5t8 30q0 22 -16 35.5t-48 13.5q-75 0 -91 -67h-149q14 80 75 128t173 48q45 0 85 -9t70 -32q32 -23 46.5 -64.5t2.5 -104.5l-46 -236
q-6 -29 -5 -47t8 -26v-7h-154q-5 9 -6.5 24t-1.5 32h-2q-26 -30 -60.5 -49.5t-79.5 -19.5zM215 91q42 0 70 22.5t37 64.5l12 63q-17 -8 -37.5 -13t-49.5 -10q-15 -3 -32.5 -5.5t-32 -9.5t-24 -19.5t-9.5 -34.5q0 -30 18.5 -44t47.5 -14zM326 566q-71 0 -112.5 39t-39.5 106
h90q2 -21 17 -34t47 -13q30 0 49 14t24 33h90q-10 -68 -54.5 -106.5t-110.5 -38.5z" />
    <glyph glyph-name="Aogonek" unicode="&#x104;" horiz-adv-x="676" 
d="M540 -177q-52 0 -82.5 21t-30.5 59q0 34 23.5 58t53.5 39h-56l-18 130h-243l-62 -130h-177l378 715h178l124 -710q-12 -6 -25.5 -14t-25 -17.5t-18.5 -19.5t-7 -20q0 -23 26 -23q8 0 15.5 1.5t15.5 3.5h3l-16 -84q-10 -4 -24 -6.5t-32 -2.5zM413 256l-22 172
q-2 14 -3.5 32t-3.5 34q-2 18 -3 37h-2q-8 -20 -16 -38q-7 -16 -15 -33t-14 -31l-85 -173h164z" />
    <glyph glyph-name="aogonek" unicode="&#x105;" horiz-adv-x="528" 
d="M375 -177q-52 0 -82.5 21t-30.5 59q0 18 7.5 33t20.5 26.5t28.5 20.5t32.5 17h-46q-5 9 -6.5 24t-1.5 32h-2q-26 -30 -60.5 -49.5t-79.5 -19.5q-33 0 -62.5 9.5t-51.5 28.5t-34.5 46.5t-12.5 63.5q0 47 16.5 78t45.5 50.5t69 29t87 12.5q38 3 65 6t44 9.5t25 17.5t8 30
q0 22 -16 35.5t-48 13.5q-75 0 -91 -67h-149q14 80 75 128t173 48q48 0 90.5 -10.5t71.5 -36.5q28 -23 40.5 -63t1.5 -100l-46 -236q-6 -29 -5 -47t8 -26v-7q-11 -5 -23.5 -12t-23.5 -16t-18 -18.5t-7 -19.5q0 -23 26 -23q10 0 18 1.5t13 3.5h3l-16 -84q-10 -4 -24 -6.5
t-32 -2.5zM215 91q42 0 70 22.5t37 64.5l12 63q-17 -8 -37.5 -13t-49.5 -10q-15 -3 -32.5 -5.5t-32 -9.5t-24 -19.5t-9.5 -34.5q0 -30 18.5 -44t47.5 -14z" />
    <glyph glyph-name="Cacute" unicode="&#x106;" horiz-adv-x="690" 
d="M345 -16q-72 0 -130 21.5t-98.5 61.5t-62.5 98t-22 130q0 84 26.5 162.5t76.5 138.5t121 96.5t161 36.5q123 0 195 -57q43 -33 65.5 -84t26.5 -119h-174q-3 54 -32 84t-88 30q-53 0 -90.5 -25.5t-62 -66.5t-36 -91.5t-11.5 -100.5q0 -34 7.5 -65t24 -54.5t43.5 -37.5
t66 -14q57 0 96 31t55 89h175q-29 -130 -119 -199q-45 -34 -97.5 -49.5t-115.5 -15.5zM427 880h181l-121 -130h-122z" />
    <glyph glyph-name="cacute" unicode="&#x107;" horiz-adv-x="532" 
d="M333 720h185l-138 -148h-123zM257 -16q-49 0 -93.5 13t-78 40.5t-53 70.5t-19.5 103q0 63 20.5 120t58 100.5t91.5 69t121 25.5q46 0 86 -11t70 -35t48 -61t20 -89h-154q-3 34 -19.5 55.5t-54.5 21.5q-33 0 -57 -19t-39.5 -48.5t-23 -64.5t-7.5 -67q0 -43 19.5 -73
t67.5 -30q35 0 61.5 21.5t38.5 67.5h153q-10 -50 -33 -89t-56.5 -65.5t-76 -41t-90.5 -14.5z" />
    <glyph glyph-name="Ccircumflex" unicode="&#x108;" horiz-adv-x="690" 
d="M345 -16q-72 0 -130 21.5t-98.5 61.5t-62.5 98t-22 130q0 84 26.5 162.5t76.5 138.5t121 96.5t161 36.5q123 0 195 -57q43 -33 65.5 -84t26.5 -119h-174q-3 54 -32 84t-88 30q-53 0 -90.5 -25.5t-62 -66.5t-36 -91.5t-11.5 -100.5q0 -34 7.5 -65t24 -54.5t43.5 -37.5
t66 -14q57 0 96 31t55 89h175q-29 -130 -119 -199q-45 -34 -97.5 -49.5t-115.5 -15.5zM370 875h154l84 -125h-131l-36 55h-2l-52 -55h-142z" />
    <glyph glyph-name="ccircumflex" unicode="&#x109;" horiz-adv-x="532" 
d="M261 711h154l83 -137h-132l-34 66h-2l-55 -66h-141zM257 -16q-49 0 -93.5 13t-78 40.5t-53 70.5t-19.5 103q0 63 20.5 120t58 100.5t91.5 69t121 25.5q46 0 86 -11t70 -35t48 -61t20 -89h-154q-3 34 -19.5 55.5t-54.5 21.5q-33 0 -57 -19t-39.5 -48.5t-23 -64.5t-7.5 -67
q0 -43 19.5 -73t67.5 -30q35 0 61.5 21.5t38.5 67.5h153q-10 -50 -33 -89t-56.5 -65.5t-76 -41t-90.5 -14.5z" />
    <glyph glyph-name="Cdotaccent" unicode="&#x10a;" horiz-adv-x="690" 
d="M374 883h160l-26 -130h-160zM345 -16q-72 0 -130 21.5t-98.5 61.5t-62.5 98t-22 130q0 84 26.5 162.5t76.5 138.5t121 96.5t161 36.5q123 0 195 -57q43 -33 65.5 -84t26.5 -119h-174q-3 54 -32 84t-88 30q-53 0 -90.5 -25.5t-62 -66.5t-36 -91.5t-11.5 -100.5
q0 -34 7.5 -65t24 -54.5t43.5 -37.5t66 -14q57 0 96 31t55 89h175q-29 -130 -119 -199q-45 -34 -97.5 -49.5t-115.5 -15.5z" />
    <glyph glyph-name="cdotaccent" unicode="&#x10b;" horiz-adv-x="532" 
d="M257 -16q-49 0 -93.5 13t-78 40.5t-53 70.5t-19.5 103q0 63 20.5 120t58 100.5t91.5 69t121 25.5q46 0 86 -11t70 -35t48 -61t20 -89h-154q-3 34 -19.5 55.5t-54.5 21.5q-33 0 -57 -19t-39.5 -48.5t-23 -64.5t-7.5 -67q0 -43 19.5 -73t67.5 -30q35 0 61.5 21.5t38.5 67.5
h153q-10 -50 -33 -89t-56.5 -65.5t-76 -41t-90.5 -14.5zM262 715h160l-25 -132h-160z" />
    <glyph glyph-name="Ccaron" unicode="&#x10c;" horiz-adv-x="690" 
d="M345 -16q-72 0 -130 21.5t-98.5 61.5t-62.5 98t-22 130q0 84 26.5 162.5t76.5 138.5t121 96.5t161 36.5q123 0 195 -57q43 -33 65.5 -84t26.5 -119h-174q-3 54 -32 84t-88 30q-53 0 -90.5 -25.5t-62 -66.5t-36 -91.5t-11.5 -100.5q0 -34 7.5 -65t24 -54.5t43.5 -37.5
t66 -14q57 0 96 31t55 89h175q-29 -130 -119 -199q-45 -34 -97.5 -49.5t-115.5 -15.5zM268 875h131l36 -55h2l53 55h142l-125 -125h-155z" />
    <glyph glyph-name="ccaron" unicode="&#x10d;" horiz-adv-x="532" 
d="M156 709h132l34 -66h2l55 66h141l-127 -138h-154zM257 -16q-49 0 -93.5 13t-78 40.5t-53 70.5t-19.5 103q0 63 20.5 120t58 100.5t91.5 69t121 25.5q46 0 86 -11t70 -35t48 -61t20 -89h-154q-3 34 -19.5 55.5t-54.5 21.5q-33 0 -57 -19t-39.5 -48.5t-23 -64.5t-7.5 -67
q0 -43 19.5 -73t67.5 -30q35 0 61.5 21.5t38.5 67.5h153q-10 -50 -33 -89t-56.5 -65.5t-76 -41t-90.5 -14.5z" />
    <glyph glyph-name="Dcaron" unicode="&#x10e;" horiz-adv-x="692" 
d="M237 875h131l36 -55h2l53 55h142l-125 -125h-155zM136 715h256q68 0 123.5 -20t95.5 -58.5t61.5 -95.5t21.5 -131q0 -97 -26.5 -171.5t-77.5 -129.5q-49 -52 -120.5 -80.5t-159.5 -28.5h-312zM310 148q49 0 87.5 18t65 51t40 80t13.5 104q0 82 -38 124.5t-113 42.5h-83
l-81 -420h109z" />
    <glyph glyph-name="dcaron" unicode="&#x10f;" horiz-adv-x="582" 
d="M639 571q29 2 45 12t20 31h-56l19 101h123l-16 -87q-11 -53 -46 -77.5t-98 -26.5zM205 -16q-44 0 -79 16t-60 45t-38.5 70.5t-13.5 92.5q0 59 17 116.5t50 102.5t81.5 72.5t110.5 27.5q52 0 87.5 -21.5t56.5 -59.5h3l52 269h160l-138 -715h-153l11 59h-2q-25 -33 -61 -54
t-84 -21zM265 110q32 0 56 17t39.5 43t23.5 58t8 62q0 23 -5 44t-16 36.5t-28 25t-41 9.5q-32 0 -55.5 -17.5t-38.5 -44.5t-22 -60t-7 -63q0 -22 4.5 -42t14.5 -35t26.5 -24t40.5 -9z" />
    <glyph glyph-name="Dcroat" unicode="&#x110;" horiz-adv-x="700" 
d="M67 297h-54l25 134h54l55 284h256q68 0 123.5 -20t95.5 -58.5t61.5 -95.5t21.5 -131q0 -97 -26.5 -171.5t-77.5 -129.5q-49 -52 -120.5 -80.5t-159.5 -28.5h-312zM321 148q49 0 87.5 18t65 51t40 80t13.5 104q0 82 -38 124.5t-113 42.5h-83l-26 -137h151l-25 -134h-152
l-29 -149h109z" />
    <glyph glyph-name="dcroat" unicode="&#x111;" horiz-adv-x="582" 
d="M205 -16q-44 0 -79 16t-60 45t-38.5 70.5t-13.5 92.5q0 59 17 116.5t50 102.5t81.5 72.5t110.5 27.5q52 0 87.5 -21.5t56.5 -59.5h3l23 121h-117l15 81h118l13 67h160l-13 -67h51l-15 -81h-52l-109 -567h-153l11 59h-2q-25 -33 -61 -54t-84 -21zM179 220q0 -22 4.5 -42
t14.5 -35t26.5 -24t40.5 -9q32 0 56 17t39.5 43t23.5 58t8 62q0 23 -5 44t-16 36.5t-28 25t-41 9.5q-32 0 -55.5 -17.5t-38.5 -44.5t-22 -60t-7 -63z" />
    <glyph glyph-name="Emacron" unicode="&#x112;" horiz-adv-x="608" 
d="M290 862h282l-20 -100h-282zM136 715h519l-28 -144h-344l-25 -131h296l-26 -136h-297l-30 -155h356l-29 -149h-530z" />
    <glyph glyph-name="emacron" unicode="&#x113;" horiz-adv-x="543" 
d="M171 214q0 -24 4.5 -44.5t15 -36t28.5 -24t45 -8.5q29 0 52.5 12.5t35.5 39.5h158q-12 -37 -34.5 -68t-54.5 -53t-73.5 -34.5t-90.5 -12.5q-52 0 -96.5 15t-77.5 44.5t-51.5 73.5t-18.5 103q0 60 20.5 115.5t57.5 98t89.5 67.5t115.5 25q45 0 77.5 -8.5t59.5 -25.5
q61 -38 82 -110.5t7 -168.5h-351zM188 687h282l-20 -100h-282zM294 412q-38 0 -67 -26.5t-43 -74.5h192q1 21 -3.5 39t-14 32t-25.5 22t-39 8z" />
    <glyph glyph-name="Ebreve" unicode="&#x114;" horiz-adv-x="608" 
d="M417 744q-72 0 -112.5 39t-39.5 106h90q2 -21 17 -34t47 -13q30 0 49 14t24 33h91q-11 -68 -55.5 -106.5t-110.5 -38.5zM136 715h519l-28 -144h-344l-25 -131h296l-26 -136h-297l-30 -155h356l-29 -149h-530z" />
    <glyph glyph-name="ebreve" unicode="&#x115;" horiz-adv-x="543" 
d="M171 214q0 -24 4.5 -44.5t15 -36t28.5 -24t45 -8.5q29 0 52.5 12.5t35.5 39.5h158q-12 -37 -34.5 -68t-54.5 -53t-73.5 -34.5t-90.5 -12.5q-52 0 -96.5 15t-77.5 44.5t-51.5 73.5t-18.5 103q0 60 20.5 115.5t57.5 98t89.5 67.5t115.5 25q45 0 77.5 -8.5t59.5 -25.5
q61 -38 82 -110.5t7 -168.5h-351zM315 566q-71 0 -112.5 39t-39.5 106h90q2 -21 17 -34t47 -13q30 0 49 14t24 33h90q-10 -68 -54.5 -106.5t-110.5 -38.5zM294 412q-38 0 -67 -26.5t-43 -74.5h192q1 21 -3.5 39t-14 32t-25.5 22t-39 8z" />
    <glyph glyph-name="Edotaccent" unicode="&#x116;" horiz-adv-x="608" 
d="M356 883h160l-26 -130h-160zM136 715h519l-28 -144h-344l-25 -131h296l-26 -136h-297l-30 -155h356l-29 -149h-530z" />
    <glyph glyph-name="edotaccent" unicode="&#x117;" horiz-adv-x="543" 
d="M171 214q0 -24 4.5 -44.5t15 -36t28.5 -24t45 -8.5q29 0 52.5 12.5t35.5 39.5h158q-12 -37 -34.5 -68t-54.5 -53t-73.5 -34.5t-90.5 -12.5q-52 0 -96.5 15t-77.5 44.5t-51.5 73.5t-18.5 103q0 60 20.5 115.5t57.5 98t89.5 67.5t115.5 25q45 0 77.5 -8.5t59.5 -25.5
q61 -38 82 -110.5t7 -168.5h-351zM262 715h160l-25 -132h-160zM294 412q-38 0 -67 -26.5t-43 -74.5h192q1 21 -3.5 39t-14 32t-25.5 22t-39 8z" />
    <glyph glyph-name="Eogonek" unicode="&#x118;" horiz-adv-x="608" 
d="M406 -177q-52 0 -82.5 21t-30.5 59q0 17 7 31.5t18.5 26.5t26 21.5t29.5 17.5h-376l138 715h519l-28 -144h-344l-25 -131h296l-26 -136h-297l-30 -155h356l-29 -149h-38q-12 -5 -24.5 -12t-23 -16t-17.5 -18.5t-7 -19.5q0 -23 26 -23q16 0 31 5h3l-16 -84
q-10 -4 -24 -6.5t-32 -2.5z" />
    <glyph glyph-name="eogonek" unicode="&#x119;" horiz-adv-x="543" 
d="M510 153q-28 -83 -97 -126q-17 -11 -35.5 -22t-33.5 -23t-25 -24t-10 -24q0 -23 26 -23q16 0 31 5h3l-16 -84q-10 -4 -24 -6.5t-32 -2.5q-52 0 -82.5 21t-30.5 59q0 30 18 49.5t44 33.5q-51 2 -94 17.5t-73.5 44.5t-48 72.5t-17.5 100.5q0 60 20.5 115.5t57.5 98
t89.5 67.5t115.5 25q45 0 77.5 -8.5t59.5 -25.5q60 -39 81.5 -111t7.5 -168h-354q0 -24 5 -44.5t16 -36t29.5 -24t45.5 -8.5q29 0 53 12.5t36 39.5h157zM294 412q-42 0 -70.5 -27t-42.5 -74h196q1 21 -3.5 39t-14.5 32t-26 22t-39 8z" />
    <glyph glyph-name="Ecaron" unicode="&#x11a;" horiz-adv-x="608" 
d="M247 875h131l36 -55h2l53 55h142l-125 -125h-155zM136 715h519l-28 -144h-344l-25 -131h296l-26 -136h-297l-30 -155h356l-29 -149h-530z" />
    <glyph glyph-name="ecaron" unicode="&#x11b;" horiz-adv-x="543" 
d="M171 214q0 -24 4.5 -44.5t15 -36t28.5 -24t45 -8.5q29 0 52.5 12.5t35.5 39.5h158q-12 -37 -34.5 -68t-54.5 -53t-73.5 -34.5t-90.5 -12.5q-52 0 -96.5 15t-77.5 44.5t-51.5 73.5t-18.5 103q0 60 20.5 115.5t57.5 98t89.5 67.5t115.5 25q45 0 77.5 -8.5t59.5 -25.5
q61 -38 82 -110.5t7 -168.5h-351zM147 709h132l34 -66h2l55 66h141l-127 -138h-154zM294 412q-38 0 -67 -26.5t-43 -74.5h192q1 21 -3.5 39t-14 32t-25.5 22t-39 8z" />
    <glyph glyph-name="Gcircumflex" unicode="&#x11c;" horiz-adv-x="720" 
d="M320 -16q-78 0 -131 25t-92 73q-32 38 -49 90.5t-17 120.5q0 83 27.5 161.5t78.5 139.5t124.5 98t165.5 37q57 0 108 -14.5t90 -44.5t62.5 -77t26.5 -112h-171q-5 48 -37.5 75.5t-86.5 27.5q-52 0 -91 -24.5t-65.5 -65t-39.5 -92t-13 -105.5q0 -78 35.5 -124.5
t115.5 -46.5q66 0 108 34.5t55 94.5h-131l25 129h293l-74 -384h-122l5 80h-2q-32 -45 -83.5 -70.5t-114.5 -25.5zM372 875h154l84 -125h-131l-36 55h-2l-52 -55h-142z" />
    <glyph glyph-name="gcircumflex" unicode="&#x11d;" horiz-adv-x="562" 
d="M276 711h154l83 -137h-132l-34 66h-2l-55 -66h-141zM219 -177q-41 0 -80.5 9t-71 29t-52.5 51.5t-26 75.5h158q11 -51 76 -51q45 0 68 25.5t31 69.5l10 52h-3q-24 -25 -53 -40t-71 -16q-41 0 -76 15t-60.5 42t-39.5 65t-14 84q0 54 17 107t48.5 94t77 66.5t103.5 25.5
q48 0 85.5 -19t59.5 -59h2l12 63h153l-93 -481q-11 -57 -33 -94.5t-55 -63.5t-75 -38t-98 -12zM258 147q29 0 51.5 13.5t38 36t23.5 50t8 56.5q-1 42 -21.5 72.5t-65.5 30.5q-29 0 -51 -13.5t-37 -36t-23 -50.5t-8 -58q0 -41 20.5 -71t64.5 -30z" />
    <glyph glyph-name="Gbreve" unicode="&#x11e;" horiz-adv-x="720" 
d="M441 744q-72 0 -112.5 39t-39.5 106h90q2 -21 17 -34t47 -13q30 0 49 14t24 33h91q-11 -68 -55.5 -106.5t-110.5 -38.5zM320 -16q-78 0 -131 25t-92 73q-32 38 -49 90.5t-17 120.5q0 83 27.5 161.5t78.5 139.5t124.5 98t165.5 37q57 0 108 -14.5t90 -44.5t62.5 -77
t26.5 -112h-171q-5 48 -37.5 75.5t-86.5 27.5q-52 0 -91 -24.5t-65.5 -65t-39.5 -92t-13 -105.5q0 -78 35.5 -124.5t115.5 -46.5q66 0 108 34.5t55 94.5h-131l25 129h293l-74 -384h-122l5 80h-2q-32 -45 -83.5 -70.5t-114.5 -25.5z" />
    <glyph glyph-name="gbreve" unicode="&#x11f;" horiz-adv-x="562" 
d="M219 -177q-41 0 -80.5 9t-71 29t-52.5 51.5t-26 75.5h158q11 -51 76 -51q45 0 68 25.5t31 69.5l10 52h-3q-24 -25 -53 -40t-71 -16q-41 0 -76 15t-60.5 42t-39.5 65t-14 84q0 54 17 107t48.5 94t77 66.5t103.5 25.5q48 0 85.5 -19t59.5 -59h2l12 63h153l-93 -481
q-11 -57 -33 -94.5t-55 -63.5t-75 -38t-98 -12zM258 147q29 0 51.5 13.5t38 36t23.5 50t8 56.5q-1 42 -21.5 72.5t-65.5 30.5q-29 0 -51 -13.5t-37 -36t-23 -50.5t-8 -58q0 -41 20.5 -71t64.5 -30zM336 566q-71 0 -112.5 39t-39.5 106h90q2 -21 17 -34t47 -13q30 0 49 14
t24 33h90q-10 -68 -54.5 -106.5t-110.5 -38.5z" />
    <glyph glyph-name="Gdotaccent" unicode="&#x120;" horiz-adv-x="720" 
d="M374 883h160l-26 -130h-160zM320 -16q-78 0 -131 25t-92 73q-32 38 -49 90.5t-17 120.5q0 83 27.5 161.5t78.5 139.5t124.5 98t165.5 37q57 0 108 -14.5t90 -44.5t62.5 -77t26.5 -112h-171q-5 48 -37.5 75.5t-86.5 27.5q-52 0 -91 -24.5t-65.5 -65t-39.5 -92t-13 -105.5
q0 -78 35.5 -124.5t115.5 -46.5q66 0 108 34.5t55 94.5h-131l25 129h293l-74 -384h-122l5 80h-2q-32 -45 -83.5 -70.5t-114.5 -25.5z" />
    <glyph glyph-name="gdotaccent" unicode="&#x121;" horiz-adv-x="562" 
d="M219 -177q-41 0 -80.5 9t-71 29t-52.5 51.5t-26 75.5h158q11 -51 76 -51q45 0 68 25.5t31 69.5l10 52h-3q-24 -25 -53 -40t-71 -16q-41 0 -76 15t-60.5 42t-39.5 65t-14 84q0 54 17 107t48.5 94t77 66.5t103.5 25.5q48 0 85.5 -19t59.5 -59h2l12 63h153l-93 -481
q-11 -57 -33 -94.5t-55 -63.5t-75 -38t-98 -12zM258 147q29 0 51.5 13.5t38 36t23.5 50t8 56.5q-1 42 -21.5 72.5t-65.5 30.5q-29 0 -51 -13.5t-37 -36t-23 -50.5t-8 -58q0 -41 20.5 -71t64.5 -30zM278 715h160l-25 -132h-160z" />
    <glyph glyph-name="Gcommaaccent" unicode="&#x122;" horiz-adv-x="720" 
d="M215 -215q29 5 50.5 18t26.5 42h-63l21 108h136l-19 -97q-12 -62 -56 -88.5t-106 -30.5zM320 -16q-78 0 -131 25t-92 73q-32 38 -49 90.5t-17 120.5q0 83 27.5 161.5t78.5 139.5t124.5 98t165.5 37q57 0 108 -14.5t90 -44.5t62.5 -77t26.5 -112h-171q-5 48 -37.5 75.5
t-86.5 27.5q-52 0 -91 -24.5t-65.5 -65t-39.5 -92t-13 -105.5q0 -78 35.5 -124.5t115.5 -46.5q66 0 108 34.5t55 94.5h-131l25 129h293l-74 -384h-122l5 80h-2q-32 -45 -83.5 -70.5t-114.5 -25.5z" />
    <glyph glyph-name="gcommaaccent" unicode="&#x123;" horiz-adv-x="562" 
d="M282 684q6 31 20 52.5t35 35.5t48 21.5t59 9.5l-10 -48q-30 -5 -51 -18t-26 -42h62l-21 -108h-135zM219 -177q-41 0 -80.5 9t-71 29t-52.5 51.5t-26 75.5h158q11 -51 76 -51q45 0 68 25.5t31 69.5l10 52h-3q-24 -25 -53 -40t-71 -16q-41 0 -76 15t-60.5 42t-39.5 65
t-14 84q0 54 17 107t48.5 94t77 66.5t103.5 25.5q48 0 85.5 -19t59.5 -59h2l12 63h153l-93 -481q-11 -57 -33 -94.5t-55 -63.5t-75 -38t-98 -12zM258 147q29 0 51.5 13.5t38 36t23.5 50t8 56.5q-1 42 -21.5 72.5t-65.5 30.5q-29 0 -51 -13.5t-37 -36t-23 -50.5t-8 -58
q0 -41 20.5 -71t64.5 -30z" />
    <glyph glyph-name="Hcircumflex" unicode="&#x124;" horiz-adv-x="682" 
d="M136 715h175l-53 -272h237l53 272h174l-138 -715h-174l57 299h-237l-57 -299h-175zM367 875h154l84 -125h-131l-36 55h-2l-52 -55h-142z" />
    <glyph glyph-name="hcircumflex" unicode="&#x125;" horiz-adv-x="556" 
d="M126 715h160l-53 -273h3q29 39 66 62t92 23q39 0 68.5 -14.5t48.5 -42t24.5 -67t-3.5 -88.5l-61 -315h-160l59 303q8 42 -6 67t-54 25q-42 0 -70 -33t-38 -81l-54 -281h-160zM304 875h154l84 -125h-131l-36 55h-2l-52 -55h-142z" />
    <glyph glyph-name="Hbar" unicode="&#x126;" horiz-adv-x="682" 
d="M62 604h53l21 111h175l-22 -111h237l22 111h174l-21 -111h53l-16 -84h-54l-100 -520h-174l57 299h-237l-57 -299h-175l100 520h-52zM495 443l15 77h-237l-15 -77h237z" />
    <glyph glyph-name="hbar" unicode="&#x127;" horiz-adv-x="556" 
d="M273 648h120l-15 -81h-121l-24 -125h3q29 39 66 62t92 23q39 0 68.5 -14.5t48.5 -42t24.5 -67t-3.5 -88.5l-61 -315h-160l59 303q8 42 -6 67t-54 25q-42 0 -70 -33t-38 -81l-54 -281h-160l109 567h-49l16 81h49l13 67h160z" />
    <glyph glyph-name="Itilde" unicode="&#x128;" horiz-adv-x="272" 
d="M137 715h174l-138 -715h-175zM294 752q-21 0 -37.5 5.5t-30.5 12t-26 12t-23 5.5q-12 0 -21.5 -9.5t-13.5 -26.5h-83q11 68 44.5 101.5t75.5 33.5q20 0 36 -6t29.5 -12.5t25 -12.5t22.5 -6q16 0 23.5 9.5t12.5 25.5h83q-10 -59 -39.5 -95.5t-77.5 -36.5z" />
    <glyph glyph-name="itilde" unicode="&#x129;" horiz-adv-x="237" 
d="M238 572q-20 0 -35 5.5t-27.5 12t-22.5 12t-19 5.5q-26 0 -34 -36h-81q10 68 42 101.5t72 33.5q19 0 34 -6t27 -12.5t22 -12.5t20 -6q14 0 21.5 9.5t11.5 25.5h81q-8 -59 -36.5 -95.5t-75.5 -36.5zM87 512h160l-99 -512h-160z" />
    <glyph glyph-name="Imacron" unicode="&#x12a;" horiz-adv-x="272" 
d="M137 715h174l-138 -715h-175zM107 862h282l-20 -100h-282z" />
    <glyph glyph-name="imacron" unicode="&#x12b;" horiz-adv-x="237" 
d="M87 512h160l-99 -512h-160zM73 687h257l-19 -100h-257z" />
    <glyph glyph-name="Ibreve" unicode="&#x12c;" horiz-adv-x="272" 
d="M137 715h174l-138 -715h-175zM241 744q-72 0 -112.5 39t-39.5 106h90q2 -21 17 -34t47 -13q30 0 49 14t24 33h91q-11 -68 -55.5 -106.5t-110.5 -38.5z" />
    <glyph glyph-name="ibreve" unicode="&#x12d;" horiz-adv-x="237" 
d="M87 512h160l-99 -512h-160zM187 566q-71 0 -112.5 39t-39.5 106h90q2 -21 17 -34t47 -13q30 0 49 14t24 33h90q-10 -68 -54.5 -106.5t-110.5 -38.5z" />
    <glyph glyph-name="Iogonek" unicode="&#x12e;" horiz-adv-x="272" 
d="M86 -177q-53 0 -83.5 21t-30.5 59q0 34 24 58t54 39h-52l139 715h174l-137 -710q-12 -6 -26 -14t-25 -17.5t-18.5 -19.5t-7.5 -20q0 -23 27 -23q9 0 16 1.5t15 3.5h3l-17 -84q-9 -4 -23 -6.5t-32 -2.5z" />
    <glyph glyph-name="iogonek" unicode="&#x12f;" horiz-adv-x="237" 
d="M63 -177q-53 0 -83.5 21t-30.5 59q0 18 7.5 33t20.5 26.5t28.5 20.5t32.5 17h-50l99 512h160l-98 -507q-12 -6 -25 -14.5t-24 -17.5t-18.5 -19t-7.5 -20q0 -23 27 -23q14 0 31 5h3l-17 -84q-9 -4 -23 -6.5t-32 -2.5zM126 715h160l-25 -132h-160z" />
    <glyph glyph-name="Idotaccent" unicode="&#x130;" horiz-adv-x="272" 
d="M137 715h174l-138 -715h-175zM176 883h160l-26 -130h-160z" />
    <glyph glyph-name="dotlessi" unicode="&#x131;" horiz-adv-x="237" 
d="M87 512h160l-99 -512h-160z" />
    <glyph glyph-name="IJ" unicode="&#x132;" horiz-adv-x="798" 
d="M137 715h174l-138 -715h-175zM486 -13q-54 0 -99.5 14t-76 43.5t-43 75.5t0.5 110l10 48h159l-11 -55q-8 -43 7.5 -67t58.5 -24q38 0 56 21t25 58l98 504h173l-100 -521q-8 -44 -24 -78.5t-45 -61.5q-32 -31 -78 -49t-111 -18z" />
    <glyph glyph-name="ij" unicode="&#x133;" horiz-adv-x="473" 
d="M87 512h160l-99 -512h-160zM126 715h160l-25 -132h-160zM198 -172q-49 0 -86 10l21 113q19 -1 34.5 -0.5t26.5 5t18 14t10 26.5l101 516h160l-103 -532q-9 -44 -24 -72t-36 -45q-25 -19 -56 -27t-66 -8zM362 715h160l-25 -132h-160z" />
    <glyph glyph-name="Jcircumflex" unicode="&#x134;" horiz-adv-x="534" 
d="M222 -13q-54 0 -99.5 14t-76 43.5t-43 75.5t0.5 110l10 48h159l-11 -55q-8 -43 7.5 -67t58.5 -24q38 0 56 21t25 58l98 504h173l-100 -521q-8 -44 -24 -78.5t-45 -61.5q-32 -31 -78 -49t-111 -18zM436 875h154l84 -125h-131l-36 55h-2l-52 -55h-142z" />
    <glyph glyph-name="jcircumflex" unicode="&#x135;" horiz-adv-x="237" 
d="M119 711h150l72 -137h-128l-26 64h-2l-47 -64h-135zM-38 -172q-49 0 -86 10l21 113q19 -1 34.5 -0.5t26.5 5t18 14t10 26.5l101 516h160l-103 -532q-9 -44 -24 -72t-36 -45q-25 -19 -56 -27t-66 -8z" />
    <glyph glyph-name="Kcommaaccent" unicode="&#x136;" horiz-adv-x="675" 
d="M298 314l-78 -71l-47 -243h-175l138 715h175l-51 -264l280 264h207l-314 -287l199 -428h-191zM191 -215q29 5 50.5 18t26.5 42h-63l21 108h136l-19 -97q-12 -62 -56 -88.5t-106 -30.5z" />
    <glyph glyph-name="kcommaaccent" unicode="&#x137;" horiz-adv-x="540" 
d="M126 715h158l-74 -383l176 180h186l-208 -197l133 -315h-176l-82 209l-64 -60l-29 -149h-158zM124 -215q29 5 50.5 18t26.5 42h-63l21 108h136l-19 -97q-12 -62 -56 -88.5t-106 -30.5z" />
    <glyph glyph-name="kgreenlandic" unicode="&#x138;" horiz-adv-x="540" 
d="M87 512h158l-35 -180l176 180h186l-208 -197l133 -315h-176l-82 209l-64 -60l-29 -149h-158z" />
    <glyph glyph-name="Lacute" unicode="&#x139;" horiz-adv-x="546" 
d="M224 880h181l-121 -130h-122zM136 715h175l-110 -566h308l-28 -149h-483z" />
    <glyph glyph-name="lacute" unicode="&#x13a;" horiz-adv-x="241" 
d="M209 880h181l-121 -130h-122zM127 715h163l-138 -715h-163z" />
    <glyph glyph-name="Lcommaaccent" unicode="&#x13b;" horiz-adv-x="548" 
d="M137 -215q29 5 50.5 18t26.5 42h-63l21 108h136l-19 -97q-12 -62 -56 -88.5t-106 -30.5zM136 715h175l-110 -566h308l-28 -149h-483z" />
    <glyph glyph-name="lcommaaccent" unicode="&#x13c;" horiz-adv-x="241" 
d="M-42 -215q29 5 50.5 18t26.5 42h-63l21 108h136l-19 -97q-12 -62 -56 -88.5t-106 -30.5zM127 715h163l-138 -715h-163z" />
    <glyph glyph-name="Lcaron" unicode="&#x13d;" horiz-adv-x="546" 
d="M373 563q30 2 47.5 12.5t21.5 32.5h-59l20 107h129l-17 -92q-11 -55 -48 -81t-103 -28zM136 715h175l-110 -566h308l-28 -149h-483z" />
    <glyph glyph-name="lcaron" unicode="&#x13e;" horiz-adv-x="241" 
d="M297 571q29 2 45 12t20 31h-56l19 101h123l-16 -87q-11 -53 -46 -77.5t-98 -26.5zM127 715h163l-138 -715h-163z" />
    <glyph glyph-name="Ldot" unicode="&#x13f;" horiz-adv-x="546" 
d="M136 715h175l-110 -566h308l-28 -149h-483zM378 435h168l-33 -168h-167z" />
    <glyph glyph-name="ldot" unicode="&#x140;" horiz-adv-x="408" 
d="M127 715h163l-138 -715h-163zM278 432h158l-32 -165h-158z" />
    <glyph glyph-name="Lslash" unicode="&#x141;" horiz-adv-x="556" 
d="M6 311l65 28l73 376h174l-57 -293l209 91l-24 -122l-208 -91l-29 -151h308l-29 -149h-482l42 217l-66 -29z" />
    <glyph glyph-name="lslash" unicode="&#x142;" horiz-adv-x="276" 
d="M14 316l59 37l70 362h163l-48 -247l67 42l-23 -120l-67 -42l-67 -348h-163l45 233l-60 -37z" />
    <glyph glyph-name="Nacute" unicode="&#x143;" horiz-adv-x="687" 
d="M439 880h181l-121 -130h-122zM136 715h175l125 -351q8 -21 13 -39t10 -32q4 -16 9 -30h2l88 452h169l-138 -715h-175l-122 341q-7 18 -13 38t-11 37q-6 19 -11 39h-2l-88 -455h-169z" />
    <glyph glyph-name="nacute" unicode="&#x144;" horiz-adv-x="556" 
d="M350 720h185l-138 -148h-123zM87 512h155l-16 -81h3q31 45 70.5 70.5t94.5 25.5q39 0 68.5 -14.5t48.5 -42t24.5 -67t-3.5 -88.5l-61 -315h-160l59 303q8 42 -6 67t-54 25q-42 0 -70 -33t-38 -81l-54 -281h-160z" />
    <glyph glyph-name="Ncommaaccent" unicode="&#x145;" horiz-adv-x="687" 
d="M191 -214q29 5 50.5 18t26.5 42h-63l21 108h136l-19 -97q-12 -62 -56 -88.5t-106 -30.5zM136 715h175l125 -351q8 -21 13 -39t10 -32q4 -16 9 -30h2l88 452h169l-138 -715h-175l-122 341q-7 18 -13 38t-11 37q-6 19 -11 39h-2l-88 -455h-169z" />
    <glyph glyph-name="ncommaaccent" unicode="&#x146;" horiz-adv-x="556" 
d="M122 -215q29 5 50.5 18t26.5 42h-63l21 108h136l-19 -97q-12 -62 -56 -88.5t-106 -30.5zM87 512h155l-16 -81h3q31 45 70.5 70.5t94.5 25.5q39 0 68.5 -14.5t48.5 -42t24.5 -67t-3.5 -88.5l-61 -315h-160l59 303q8 42 -6 67t-54 25q-42 0 -70 -33t-38 -81l-54 -281h-160z
" />
    <glyph glyph-name="Ncaron" unicode="&#x147;" horiz-adv-x="687" 
d="M282 875h131l36 -55h2l53 55h142l-125 -125h-155zM136 715h175l125 -351q8 -21 13 -39t10 -32q4 -16 9 -30h2l88 452h169l-138 -715h-175l-122 341q-7 18 -13 38t-11 37q-6 19 -11 39h-2l-88 -455h-169z" />
    <glyph glyph-name="ncaron" unicode="&#x148;" horiz-adv-x="556" 
d="M174 709h132l34 -66h2l55 66h141l-127 -138h-154zM87 512h155l-16 -81h3q31 45 70.5 70.5t94.5 25.5q39 0 68.5 -14.5t48.5 -42t24.5 -67t-3.5 -88.5l-61 -315h-160l59 303q8 42 -6 67t-54 25q-42 0 -70 -33t-38 -81l-54 -281h-160z" />
    <glyph glyph-name="napostrophe" unicode="&#x149;" horiz-adv-x="556" 
d="M19 567q59 3 67 44h-57l19 104h127l-17 -93q-20 -101 -149 -104zM87 512h155l-16 -81h3q31 45 70.5 70.5t94.5 25.5q39 0 68.5 -14.5t48.5 -42t24.5 -67t-3.5 -88.5l-61 -315h-160l59 303q8 42 -6 67t-54 25q-42 0 -70 -33t-38 -81l-54 -281h-160z" />
    <glyph glyph-name="Eng" unicode="&#x14a;" horiz-adv-x="687" 
d="M363 -177q-25 0 -48.5 3t-41.5 9l25 139q15 -3 23.5 -4.5t19.5 -1.5q30 0 48 9t29 26l-125 338q-7 18 -13.5 38t-11.5 37q-6 19 -11 39h-2l-88 -455h-169l138 715h175l125 -351q8 -21 13 -39t10 -32q4 -16 9 -30h2l88 452h169l-132 -687q-9 -48 -24.5 -86.5t-42 -64.5
t-67 -40t-98.5 -14z" />
    <glyph glyph-name="eng" unicode="&#x14b;" horiz-adv-x="556" 
d="M467 -20q-9 -44 -24 -72t-36 -45q-25 -19 -56 -27t-66 -8q-49 0 -86 10l21 113q19 -1 34.5 -0.5t26.5 5t18.5 14t10.5 26.5l60 307q8 42 -6 67t-54 25q-42 0 -70 -33t-38 -81l-54 -281h-160l99 512h155l-16 -81h3q31 45 70.5 70.5t94.5 25.5q39 0 69 -14.5t48.5 -42
t24.5 -67t-4 -88.5z" />
    <glyph glyph-name="Omacron" unicode="&#x14c;" horiz-adv-x="727" 
d="M310 862h282l-20 -100h-282zM359 126q53 0 90.5 26t61 67.5t34.5 91.5t11 98q0 37 -8 69.5t-26 56.5t-46 38t-68 14q-53 0 -91 -27.5t-62 -69.5t-35 -93t-11 -100q0 -35 8 -66.5t26 -54.5t46.5 -36.5t69.5 -13.5zM354 -17q-69 0 -128.5 20.5t-102.5 60t-67 97.5t-24 134
q0 87 27 165.5t76.5 138.5t120.5 95t160 35q72 0 130.5 -21.5t100 -62.5t64 -100t22.5 -134q0 -85 -26 -162.5t-74.5 -136.5t-119 -94t-159.5 -35z" />
    <glyph glyph-name="omacron" unicode="&#x14d;" horiz-adv-x="567" 
d="M199 687h282l-20 -100h-282zM263 98q35 0 59.5 19.5t40 49t22 64.5t6.5 67q0 22 -5 42.5t-15.5 36.5t-27.5 25.5t-42 9.5q-35 0 -59 -19.5t-39.5 -49.5t-22 -65t-6.5 -66q0 -23 4.5 -43.5t15 -36.5t27.5 -25t42 -9zM260 -16q-49 0 -93.5 14.5t-78.5 43.5t-54.5 73.5
t-20.5 103.5q0 63 20.5 119t59 97.5t92.5 66t121 24.5q49 0 93.5 -14.5t78.5 -43.5t54.5 -72.5t20.5 -102.5q0 -64 -20.5 -120t-59 -98t-92.5 -66.5t-121 -24.5z" />
    <glyph glyph-name="Obreve" unicode="&#x14e;" horiz-adv-x="727" 
d="M443 744q-72 0 -112.5 39t-39.5 106h90q2 -21 17 -34t47 -13q30 0 49 14t24 33h91q-11 -68 -55.5 -106.5t-110.5 -38.5zM359 126q53 0 90.5 26t61 67.5t34.5 91.5t11 98q0 37 -8 69.5t-26 56.5t-46 38t-68 14q-53 0 -91 -27.5t-62 -69.5t-35 -93t-11 -100q0 -35 8 -66.5
t26 -54.5t46.5 -36.5t69.5 -13.5zM354 -17q-69 0 -128.5 20.5t-102.5 60t-67 97.5t-24 134q0 87 27 165.5t76.5 138.5t120.5 95t160 35q72 0 130.5 -21.5t100 -62.5t64 -100t22.5 -134q0 -85 -26 -162.5t-74.5 -136.5t-119 -94t-159.5 -35z" />
    <glyph glyph-name="obreve" unicode="&#x14f;" horiz-adv-x="567" 
d="M263 98q35 0 59.5 19.5t40 49t22 64.5t6.5 67q0 22 -5 42.5t-15.5 36.5t-27.5 25.5t-42 9.5q-35 0 -59 -19.5t-39.5 -49.5t-22 -65t-6.5 -66q0 -23 4.5 -43.5t15 -36.5t27.5 -25t42 -9zM260 -16q-49 0 -93.5 14.5t-78.5 43.5t-54.5 73.5t-20.5 103.5q0 63 20.5 119
t59 97.5t92.5 66t121 24.5q49 0 93.5 -14.5t78.5 -43.5t54.5 -72.5t20.5 -102.5q0 -64 -20.5 -120t-59 -98t-92.5 -66.5t-121 -24.5zM330 566q-71 0 -112.5 39t-39.5 106h90q2 -21 17 -34t47 -13q30 0 49 14t24 33h90q-10 -68 -54.5 -106.5t-110.5 -38.5z" />
    <glyph glyph-name="Ohungarumlaut" unicode="&#x150;" horiz-adv-x="727" 
d="M359 126q53 0 90.5 26t61 67.5t34.5 91.5t11 98q0 37 -8 69.5t-26 56.5t-46 38t-68 14q-53 0 -91 -27.5t-62 -69.5t-35 -93t-11 -100q0 -35 8 -66.5t26 -54.5t46.5 -36.5t69.5 -13.5zM354 -17q-69 0 -128.5 20.5t-102.5 60t-67 97.5t-24 134q0 87 27 165.5t76.5 138.5
t120.5 95t160 35q72 0 130.5 -21.5t100 -62.5t64 -100t22.5 -134q0 -85 -26 -162.5t-74.5 -136.5t-119 -94t-159.5 -35zM338 890h155l-113 -140h-100zM530 890h155l-113 -140h-100z" />
    <glyph glyph-name="ohungarumlaut" unicode="&#x151;" horiz-adv-x="567" 
d="M233 720h155l-119 -148h-100zM425 720h155l-119 -148h-100zM263 98q35 0 59.5 19.5t40 49t22 64.5t6.5 67q0 22 -5 42.5t-15.5 36.5t-27.5 25.5t-42 9.5q-35 0 -59 -19.5t-39.5 -49.5t-22 -65t-6.5 -66q0 -23 4.5 -43.5t15 -36.5t27.5 -25t42 -9zM260 -16
q-49 0 -93.5 14.5t-78.5 43.5t-54.5 73.5t-20.5 103.5q0 63 20.5 119t59 97.5t92.5 66t121 24.5q49 0 93.5 -14.5t78.5 -43.5t54.5 -72.5t20.5 -102.5q0 -64 -20.5 -120t-59 -98t-92.5 -66.5t-121 -24.5z" />
    <glyph glyph-name="OE" unicode="&#x152;" horiz-adv-x="1058" 
d="M317 -17q-67 0 -120 20t-89.5 59t-56 97.5t-19.5 135.5q0 85 27 163.5t76 138.5t118.5 96t155.5 36q118 0 177 -79l13 65h506l-28 -144h-331l-25 -131h283l-26 -136h-284l-30 -155h343l-29 -149h-494l10 53q-38 -33 -82.5 -51.5t-94.5 -18.5zM342 126q57 0 97 28t66 72
l47 244q-10 51 -45 84t-99 33q-51 0 -88.5 -27t-62 -69t-36.5 -93.5t-12 -100.5q0 -78 31.5 -124.5t101.5 -46.5z" />
    <glyph glyph-name="oe" unicode="&#x153;" horiz-adv-x="911" 
d="M258 -16q-49 0 -93.5 14.5t-78 43.5t-53.5 73t-20 103q0 63 21 119t58.5 98t90.5 66.5t119 24.5q60 0 106.5 -19.5t75.5 -60.5q33 37 78.5 59t104.5 22q43 0 75 -8.5t59 -25.5q60 -39 81.5 -111t7.5 -168h-352q0 -24 5 -44.5t15.5 -36t29 -24t45.5 -8.5q29 0 52.5 12.5
t35.5 39.5h156q-12 -37 -34.5 -68t-54.5 -53t-72 -34.5t-87 -12.5q-60 0 -106.5 19t-75.5 60q-33 -38 -80 -59t-109 -21zM174 208q0 -21 4.5 -41t15 -35.5t27.5 -24.5t42 -9q35 0 59 19.5t39 49.5t21.5 65.5t6.5 68.5q0 21 -4.5 41t-15 35.5t-27.5 25t-41 9.5q-35 0 -59 -20
t-39.5 -50t-22 -66t-6.5 -68zM661 412q-42 0 -69 -27t-41 -74h194q1 21 -3.5 39t-14.5 32t-26.5 22t-39.5 8z" />
    <glyph glyph-name="Racute" unicode="&#x154;" horiz-adv-x="659" 
d="M136 715h296q52 0 95.5 -12.5t74.5 -37t48 -60t17 -81.5q0 -79 -39.5 -124.5t-111.5 -66.5v-3q42 -15 63.5 -48t21.5 -87q0 -27 -2.5 -65t-2.5 -73q0 -39 14 -48v-9h-173q-5 7 -7 20.5t-2 29.5q0 27 2 60.5t2 63.5q0 46 -22.5 70.5t-75.5 24.5h-110l-51 -269h-175z
M250 398h129q23 0 43.5 5.5t36 17.5t24.5 31t9 45q0 38 -21.5 58.5t-65.5 20.5h-121zM391 880h181l-121 -130h-122z" />
    <glyph glyph-name="racute" unicode="&#x155;" horiz-adv-x="376" 
d="M277 720h185l-138 -148h-123zM87 512h154l-17 -84h3q28 45 64 68.5t84 23.5q13 0 22 -1t14 -3l-28 -144h-3q-78 11 -124.5 -22t-64.5 -126l-43 -224h-160z" />
    <glyph glyph-name="Rcommaaccent" unicode="&#x156;" horiz-adv-x="659" 
d="M192 -215q29 5 50.5 18t26.5 42h-63l21 108h136l-19 -97q-12 -62 -56 -88.5t-106 -30.5zM136 715h296q52 0 95.5 -12.5t74.5 -37t48 -60t17 -81.5q0 -79 -39.5 -124.5t-111.5 -66.5v-3q42 -15 63.5 -48t21.5 -87q0 -27 -2.5 -65t-2.5 -73q0 -39 14 -48v-9h-173
q-5 7 -7 20.5t-2 29.5q0 27 2 60.5t2 63.5q0 46 -22.5 70.5t-75.5 24.5h-110l-51 -269h-175zM250 398h129q23 0 43.5 5.5t36 17.5t24.5 31t9 45q0 38 -21.5 58.5t-65.5 20.5h-121z" />
    <glyph glyph-name="rcommaaccent" unicode="&#x157;" horiz-adv-x="376" 
d="M-46 -215q29 5 50.5 18t26.5 42h-63l21 108h136l-19 -97q-12 -62 -56 -88.5t-106 -30.5zM87 512h154l-17 -84h3q28 45 64 68.5t84 23.5q13 0 22 -1t14 -3l-28 -144h-3q-78 11 -124.5 -22t-64.5 -126l-43 -224h-160z" />
    <glyph glyph-name="Rcaron" unicode="&#x158;" horiz-adv-x="659" 
d="M233 875h131l36 -55h2l53 55h142l-125 -125h-155zM136 715h296q52 0 95.5 -12.5t74.5 -37t48 -60t17 -81.5q0 -79 -39.5 -124.5t-111.5 -66.5v-3q42 -15 63.5 -48t21.5 -87q0 -27 -2.5 -65t-2.5 -73q0 -39 14 -48v-9h-173q-5 7 -7 20.5t-2 29.5q0 27 2 60.5t2 63.5
q0 46 -22.5 70.5t-75.5 24.5h-110l-51 -269h-175zM250 398h129q23 0 43.5 5.5t36 17.5t24.5 31t9 45q0 38 -21.5 58.5t-65.5 20.5h-121z" />
    <glyph glyph-name="rcaron" unicode="&#x159;" horiz-adv-x="376" 
d="M105 709h132l34 -66h2l55 66h141l-127 -138h-154zM87 512h154l-17 -84h3q28 45 64 68.5t84 23.5q13 0 22 -1t14 -3l-28 -144h-3q-78 11 -124.5 -22t-64.5 -126l-43 -224h-160z" />
    <glyph glyph-name="Sacute" unicode="&#x15a;" horiz-adv-x="627" 
d="M301 -17q-59 0 -114.5 12.5t-98.5 41t-68 74.5t-23 114h175q-1 -28 9 -47.5t28 -32t42.5 -18t54.5 -5.5q22 0 43 4t37 13t25.5 23.5t9.5 36.5q0 31 -34 50.5t-107 45.5q-48 17 -86.5 35t-66 42t-42 55t-14.5 75q0 55 20.5 97.5t57 71t86.5 43t110 14.5q52 0 102.5 -11
t89.5 -36.5t62.5 -68t20.5 -104.5h-170q1 42 -28 64.5t-83 22.5q-17 0 -34.5 -3.5t-32 -11.5t-24 -21t-9.5 -32q0 -16 8 -27t26 -20.5t47 -19.5t72 -25q45 -16 83 -34t65.5 -43t43 -57.5t15.5 -76.5q0 -61 -24 -106t-64.5 -75t-94.5 -45t-115 -15zM367 880h181l-121 -130
h-122z" />
    <glyph glyph-name="sacute" unicode="&#x15b;" horiz-adv-x="491" 
d="M286 720h185l-138 -148h-123zM229 -16q-45 0 -87.5 10.5t-75.5 32.5t-53.5 56.5t-22.5 82.5h152q2 -32 22.5 -53.5t67.5 -21.5q32 0 51.5 11.5t19.5 37.5q0 27 -31.5 38.5t-82.5 26.5q-32 9 -60 21t-48.5 29.5t-32 42t-11.5 58.5q0 42 16.5 73.5t46 53.5t70 33t88.5 11
q42 0 80.5 -9.5t68 -29t48 -51t21.5 -74.5h-147q-3 27 -22.5 43.5t-54.5 16.5q-25 0 -46 -10t-21 -33t28.5 -34t82.5 -26q30 -9 58.5 -20.5t50.5 -29t35.5 -43t13.5 -61.5q0 -90 -60 -136t-165 -46z" />
    <glyph glyph-name="Scircumflex" unicode="&#x15c;" horiz-adv-x="627" 
d="M301 -17q-59 0 -114.5 12.5t-98.5 41t-68 74.5t-23 114h175q-1 -28 9 -47.5t28 -32t42.5 -18t54.5 -5.5q22 0 43 4t37 13t25.5 23.5t9.5 36.5q0 31 -34 50.5t-107 45.5q-48 17 -86.5 35t-66 42t-42 55t-14.5 75q0 55 20.5 97.5t57 71t86.5 43t110 14.5q52 0 102.5 -11
t89.5 -36.5t62.5 -68t20.5 -104.5h-170q1 42 -28 64.5t-83 22.5q-17 0 -34.5 -3.5t-32 -11.5t-24 -21t-9.5 -32q0 -16 8 -27t26 -20.5t47 -19.5t72 -25q45 -16 83 -34t65.5 -43t43 -57.5t15.5 -76.5q0 -61 -24 -106t-64.5 -75t-94.5 -45t-115 -15zM310 875h154l84 -125h-131
l-36 55h-2l-52 -55h-142z" />
    <glyph glyph-name="scircumflex" unicode="&#x15d;" horiz-adv-x="491" 
d="M221 711h154l83 -137h-132l-34 66h-2l-55 -66h-141zM229 -16q-45 0 -87.5 10.5t-75.5 32.5t-53.5 56.5t-22.5 82.5h152q2 -32 22.5 -53.5t67.5 -21.5q32 0 51.5 11.5t19.5 37.5q0 27 -31.5 38.5t-82.5 26.5q-32 9 -60 21t-48.5 29.5t-32 42t-11.5 58.5q0 42 16.5 73.5
t46 53.5t70 33t88.5 11q42 0 80.5 -9.5t68 -29t48 -51t21.5 -74.5h-147q-3 27 -22.5 43.5t-54.5 16.5q-25 0 -46 -10t-21 -33t28.5 -34t82.5 -26q30 -9 58.5 -20.5t50.5 -29t35.5 -43t13.5 -61.5q0 -90 -60 -136t-165 -46z" />
    <glyph glyph-name="Scedilla" unicode="&#x15e;" horiz-adv-x="627" 
d="M241 -193q-38 0 -64.5 7.5t-46.5 21.5l22 35q14 -7 31.5 -11t35.5 -4q9 0 18.5 1.5t18 5t13.5 9.5t5 16q0 13 -9 18.5t-24 5.5q-18 0 -35 -7l-14 24l58 57q-51 4 -98 19.5t-82 44.5t-55 72t-18 103h175q-1 -28 9 -47.5t28 -32t42.5 -18t54.5 -5.5q22 0 43 4t37 13
t25.5 23.5t9.5 36.5q0 31 -34 50.5t-107 45.5q-48 17 -86.5 35t-66 42t-42 55t-14.5 75q0 55 20.5 97.5t57 71t86.5 43t110 14.5q52 0 102.5 -11t89.5 -36.5t62.5 -68t20.5 -104.5h-170q1 42 -28 64.5t-83 22.5q-17 0 -34.5 -3.5t-32 -11.5t-24 -21t-9.5 -32q0 -16 8 -27
t26 -20.5t47 -19.5t72 -25q45 -16 83 -34t65.5 -43t43 -57.5t15.5 -76.5q0 -60 -23.5 -105t-63 -75t-93 -45t-113.5 -16l-36 -30v-2q42 4 69 -11t27 -50q0 -22 -10.5 -37.5t-28 -25.5t-40 -15t-46.5 -5z" />
    <glyph glyph-name="scedilla" unicode="&#x15f;" horiz-adv-x="491" 
d="M152 -193q-38 0 -64.5 7.5t-46.5 21.5l22 35q14 -7 31.5 -11t35.5 -4q9 0 18.5 1.5t18 5t13.5 9.5t5 16q0 13 -9 18.5t-24 5.5q-18 0 -35 -7l-14 24l62 61q-35 6 -66.5 19.5t-55 35t-38 52t-15.5 69.5h152q2 -32 22.5 -53.5t67.5 -21.5q32 0 51.5 11.5t19.5 37.5
q0 27 -31.5 38.5t-82.5 26.5q-32 9 -60 21t-48.5 29.5t-32 42t-11.5 58.5q0 42 16.5 73.5t46 53.5t70 33t88.5 11q42 0 80.5 -9.5t68 -29t48 -51t21.5 -74.5h-147q-3 27 -22.5 43.5t-54.5 16.5q-25 0 -46 -10t-21 -33t28.5 -34t82.5 -26q30 -9 58.5 -20.5t50.5 -29t35.5 -43
t13.5 -61.5q0 -90 -60 -136t-165 -46h-11l-37 -31v-2q42 4 69 -11t27 -50q0 -22 -10.5 -37.5t-28 -25.5t-40 -15t-46.5 -5z" />
    <glyph glyph-name="Scaron" unicode="&#x160;" horiz-adv-x="627" 
d="M301 -17q-59 0 -114.5 12.5t-98.5 41t-68 74.5t-23 114h175q-1 -28 9 -47.5t28 -32t42.5 -18t54.5 -5.5q22 0 43 4t37 13t25.5 23.5t9.5 36.5q0 31 -34 50.5t-107 45.5q-48 17 -86.5 35t-66 42t-42 55t-14.5 75q0 55 20.5 97.5t57 71t86.5 43t110 14.5q52 0 102.5 -11
t89.5 -36.5t62.5 -68t20.5 -104.5h-170q1 42 -28 64.5t-83 22.5q-17 0 -34.5 -3.5t-32 -11.5t-24 -21t-9.5 -32q0 -16 8 -27t26 -20.5t47 -19.5t72 -25q45 -16 83 -34t65.5 -43t43 -57.5t15.5 -76.5q0 -61 -24 -106t-64.5 -75t-94.5 -45t-115 -15zM209 875h131l36 -55h2
l53 55h142l-125 -125h-155z" />
    <glyph glyph-name="scaron" unicode="&#x161;" horiz-adv-x="491" 
d="M116 709h132l34 -66h2l55 66h141l-127 -138h-154zM229 -16q-45 0 -87.5 10.5t-75.5 32.5t-53.5 56.5t-22.5 82.5h152q2 -32 22.5 -53.5t67.5 -21.5q32 0 51.5 11.5t19.5 37.5q0 27 -31.5 38.5t-82.5 26.5q-32 9 -60 21t-48.5 29.5t-32 42t-11.5 58.5q0 42 16.5 73.5
t46 53.5t70 33t88.5 11q42 0 80.5 -9.5t68 -29t48 -51t21.5 -74.5h-147q-3 27 -22.5 43.5t-54.5 16.5q-25 0 -46 -10t-21 -33t28.5 -34t82.5 -26q30 -9 58.5 -20.5t50.5 -29t35.5 -43t13.5 -61.5q0 -90 -60 -136t-165 -46z" />
    <glyph glyph-name="uni0162" unicode="&#x162;" horiz-adv-x="608" 
d="M141 -215q29 5 50.5 18t26.5 42h-63l21 108h136l-19 -97q-12 -62 -56 -88.5t-106 -30.5zM276 567h-201l28 148h578l-28 -148h-203l-110 -567h-174z" />
    <glyph glyph-name="uni0163" unicode="&#x163;" horiz-adv-x="343" 
d="M32 -215q29 5 50.5 18t26.5 42h-63l21 108h136l-19 -97q-12 -62 -56 -88.5t-106 -30.5zM196 -6q-86 0 -122 38t-19 120l50 258h-65l20 102h65l31 162h157l-32 -162h91l-20 -102h-91l-46 -239q-5 -30 4.5 -42t38.5 -12q9 0 21 0.5t17 1.5l-23 -116q-8 -3 -29.5 -6
t-47.5 -3z" />
    <glyph glyph-name="Tcaron" unicode="&#x164;" horiz-adv-x="608" 
d="M230 875h131l36 -55h2l53 55h142l-125 -125h-155zM276 567h-201l28 148h578l-28 -148h-203l-110 -567h-174z" />
    <glyph glyph-name="tcaron" unicode="&#x165;" horiz-adv-x="343" 
d="M328 580q58 3 65 40h-56l18 95h123l-15 -81q-20 -98 -144 -101zM60 512h65l31 162h157l-32 -162h91l-20 -102h-91l-46 -239q-5 -30 4.5 -42t38.5 -12q9 0 21 0.5t17 1.5l-23 -116q-8 -3 -29.5 -6t-47.5 -3q-86 0 -122 38t-19 120l50 258h-65z" />
    <glyph glyph-name="Tbar" unicode="&#x166;" horiz-adv-x="608" 
d="M103 715h578l-28 -148h-203l-33 -167h133l-20 -104h-133l-57 -296h-174l57 296h-128l20 104h128l33 167h-201z" />
    <glyph glyph-name="tbar" unicode="&#x167;" horiz-adv-x="343" 
d="M28 349h65l12 61h-65l20 102h65l31 162h157l-32 -162h91l-20 -102h-91l-12 -61h91l-16 -80h-90l-19 -98q-5 -30 4.5 -42t38.5 -12q9 0 21 0.5t17 1.5l-23 -116q-8 -3 -29.5 -6t-47.5 -3q-86 0 -122 38t-19 120l22 117h-65z" />
    <glyph glyph-name="Utilde" unicode="&#x168;" horiz-adv-x="673" 
d="M498 752q-21 0 -37.5 5.5t-30.5 12t-26 12t-23 5.5q-12 0 -21.5 -9.5t-13.5 -26.5h-83q11 68 44.5 101.5t75.5 33.5q20 0 36 -6t29.5 -12.5t25 -12.5t22.5 -6q16 0 23.5 9.5t12.5 25.5h83q-10 -59 -39.5 -95.5t-77.5 -36.5zM319 -13q-69 0 -126 16.5t-94.5 52t-52.5 89.5
t-1 129l86 441h174l-89 -459q-11 -60 14.5 -94t93.5 -34q58 0 88 30t40 82l92 475h174l-94 -484q-23 -118 -97.5 -181t-207.5 -63z" />
    <glyph glyph-name="utilde" unicode="&#x169;" horiz-adv-x="551" 
d="M163 -15q-41 0 -72 14t-50 40.5t-25 65t4 87.5l61 320h160l-58 -298q-8 -44 4 -70.5t52 -26.5q42 0 69.5 29.5t38.5 82.5l54 283h160l-99 -512h-153l15 77h-3q-29 -42 -66.5 -67t-91.5 -25zM400 572q-21 0 -36.5 5.5t-28.5 12l-24 12t-22 5.5q-12 0 -21.5 -9.5
t-13.5 -26.5h-83q11 68 44.5 101.5t75.5 33.5q20 0 35 -6t28 -12.5t23.5 -12.5t21.5 -6q16 0 23.5 9.5t12.5 25.5h82q-10 -59 -39 -95.5t-78 -36.5z" />
    <glyph glyph-name="Umacron" unicode="&#x16a;" horiz-adv-x="673" 
d="M307 862h282l-20 -100h-282zM319 -13q-69 0 -126 16.5t-94.5 52t-52.5 89.5t-1 129l86 441h174l-89 -459q-11 -60 14.5 -94t93.5 -34q58 0 88 30t40 82l92 475h174l-94 -484q-23 -118 -97.5 -181t-207.5 -63z" />
    <glyph glyph-name="umacron" unicode="&#x16b;" horiz-adv-x="551" 
d="M163 -15q-41 0 -72 14t-50 40.5t-25 65t4 87.5l61 320h160l-58 -298q-8 -44 4 -70.5t52 -26.5q42 0 69.5 29.5t38.5 82.5l54 283h160l-99 -512h-153l15 77h-3q-29 -42 -66.5 -67t-91.5 -25zM211 687h282l-20 -100h-282z" />
    <glyph glyph-name="Ubreve" unicode="&#x16c;" horiz-adv-x="673" 
d="M428 744q-72 0 -112.5 39t-39.5 106h90q2 -21 17 -34t47 -13q30 0 49 14t24 33h91q-11 -68 -55.5 -106.5t-110.5 -38.5zM319 -13q-69 0 -126 16.5t-94.5 52t-52.5 89.5t-1 129l86 441h174l-89 -459q-11 -60 14.5 -94t93.5 -34q58 0 88 30t40 82l92 475h174l-94 -484
q-23 -118 -97.5 -181t-207.5 -63z" />
    <glyph glyph-name="ubreve" unicode="&#x16d;" horiz-adv-x="551" 
d="M163 -15q-41 0 -72 14t-50 40.5t-25 65t4 87.5l61 320h160l-58 -298q-8 -44 4 -70.5t52 -26.5q42 0 69.5 29.5t38.5 82.5l54 283h160l-99 -512h-153l15 77h-3q-29 -42 -66.5 -67t-91.5 -25zM337 566q-71 0 -112.5 39t-39.5 106h90q2 -21 17 -34t47 -13q30 0 49 14t24 33
h90q-10 -68 -54.5 -106.5t-110.5 -38.5z" />
    <glyph glyph-name="Uring" unicode="&#x16e;" horiz-adv-x="673" 
d="M319 -13q-69 0 -126 16.5t-94.5 52t-52.5 89.5t-1 129l86 441h174l-89 -459q-11 -60 14.5 -94t93.5 -34q58 0 88 30t40 82l92 475h174l-94 -484q-23 -118 -97.5 -181t-207.5 -63zM429 794q19 0 30.5 13t11.5 30t-11.5 30t-30.5 13q-18 0 -29.5 -13t-11.5 -30t11.5 -30
t29.5 -13zM429 739q-21 0 -39.5 7.5t-32.5 20.5t-22 31t-8 39t8 38.5t22 31t32.5 21t39.5 7.5t39.5 -7.5t32.5 -21t22 -31t8 -38.5t-8 -39t-22 -31t-32.5 -20.5t-39.5 -7.5z" />
    <glyph glyph-name="uring" unicode="&#x16f;" horiz-adv-x="551" 
d="M333 614q18 0 29.5 12.5t11.5 29.5t-11.5 30t-29.5 13q-19 0 -30.5 -13t-11.5 -30t11.5 -29.5t30.5 -12.5zM333 558q-21 0 -39.5 7.5t-32.5 21t-22 31t-8 38.5t8 39t22 31.5t32.5 21t39.5 7.5t39.5 -7.5t32.5 -21t22 -31.5t8 -39t-8 -38.5t-22 -31t-32.5 -21t-39.5 -7.5z
M163 -15q-41 0 -72 14t-50 40.5t-25 65t4 87.5l61 320h160l-58 -298q-8 -44 4 -70.5t52 -26.5q42 0 69.5 29.5t38.5 82.5l54 283h160l-99 -512h-153l15 77h-3q-29 -42 -66.5 -67t-91.5 -25z" />
    <glyph glyph-name="Uhungarumlaut" unicode="&#x170;" horiz-adv-x="673" 
d="M319 -13q-69 0 -126 16.5t-94.5 52t-52.5 89.5t-1 129l86 441h174l-89 -459q-11 -60 14.5 -94t93.5 -34q58 0 88 30t40 82l92 475h174l-94 -484q-23 -118 -97.5 -181t-207.5 -63zM330 890h155l-113 -140h-100zM522 890h155l-113 -140h-100z" />
    <glyph glyph-name="uhungarumlaut" unicode="&#x171;" horiz-adv-x="551" 
d="M163 -15q-41 0 -72 14t-50 40.5t-25 65t4 87.5l61 320h160l-58 -298q-8 -44 4 -70.5t52 -26.5q42 0 69.5 29.5t38.5 82.5l54 283h160l-99 -512h-153l15 77h-3q-29 -42 -66.5 -67t-91.5 -25zM239 720h155l-119 -148h-100zM431 720h155l-119 -148h-100z" />
    <glyph glyph-name="Uogonek" unicode="&#x172;" horiz-adv-x="673" 
d="M313 -177q-52 0 -82.5 21t-30.5 59q0 32 20 52.5t48 34.5q-59 6 -106 25.5t-77.5 54.5t-41.5 85.5t2 118.5l86 441h174l-89 -459q-11 -60 14.5 -94t93.5 -34q58 0 88 30t40 82l92 475h174l-94 -484q-17 -91 -62 -145.5t-116 -79.5q-17 -6 -37.5 -12.5t-39.5 -14.5
t-31.5 -19t-12.5 -26q0 -23 26 -23q16 0 31 5h3l-16 -84q-10 -4 -24 -6.5t-32 -2.5z" />
    <glyph glyph-name="uogonek" unicode="&#x173;" horiz-adv-x="551" 
d="M376 -177q-53 0 -83 21t-30 59q0 18 7.5 33t20 26.5t28 20.5t32.5 17h-42l14 74h-3q-28 -40 -66.5 -64.5t-92.5 -24.5q-40 0 -70.5 14t-49.5 40.5t-25 65t4 87.5l61 320h160l-58 -298q-8 -44 4.5 -69.5t52.5 -25.5q41 0 68.5 29t38.5 81l54 283h160l-98 -507
q-12 -6 -25 -14t-24.5 -17.5t-18.5 -19.5t-7 -20q0 -23 27 -23q13 0 30 5h3l-17 -84q-9 -4 -23 -6.5t-32 -2.5z" />
    <glyph glyph-name="Wcircumflex" unicode="&#x174;" horiz-adv-x="921" 
d="M86 715h174l14 -300q1 -27 1.5 -58.5t0.5 -58.5q0 -32 -1 -63h2q11 29 22 59q10 26 21 56.5t22 59.5l120 305h161l13 -304q1 -28 2 -58.5t1 -56.5v-61h2q12 32 23 64q10 27 21.5 58.5t22.5 59.5l119 298h177l-313 -715h-171l-15 344q-2 23 -2 47v44v47h-2q-7 -22 -15 -46
q-7 -20 -15.5 -44.5t-17.5 -47.5l-134 -344h-171zM487 875h154l84 -125h-131l-36 55h-2l-52 -55h-142z" />
    <glyph glyph-name="wcircumflex" unicode="&#x175;" horiz-adv-x="769" 
d="M375 711h154l83 -137h-132l-34 66h-2l-55 -66h-141zM49 512h160l15 -212q1 -16 1.5 -33.5t1.5 -33.5q1 -18 1 -36h2q7 19 14 37q6 16 13.5 34.5t14.5 34.5l91 209h135l18 -209q2 -17 2.5 -35.5t1.5 -34.5q1 -18 2 -37h2q8 19 15 37q6 16 13 33.5t14 33.5l89 212h161
l-240 -512h-149l-21 233q-2 16 -3 33.5t-2 32.5q-1 18 -1 34h-2q-7 -17 -13 -35q-6 -15 -12.5 -32.5t-13.5 -32.5l-101 -233h-149z" />
    <glyph glyph-name="Ycircumflex" unicode="&#x176;" horiz-adv-x="639" 
d="M231 267l-145 448h183l52 -182q5 -19 9.5 -38t8.5 -36q4 -19 7 -37h2l22 36q10 16 21.5 35t24.5 38l124 184h189l-324 -454l-50 -261h-175zM344 875h154l84 -125h-131l-36 55h-2l-52 -55h-142z" />
    <glyph glyph-name="ycircumflex" unicode="&#x177;" horiz-adv-x="521" 
d="M10 -43h54q34 0 54.5 17t20.5 56q0 15 -3.5 37t-9.5 51l-78 394h167l28 -216q2 -19 4 -40.5t4 -40.5q2 -22 4 -43h2q7 20 16 41q7 18 16 39t18 41l101 219h161l-270 -538q-19 -37 -39.5 -64t-45 -44.5t-54.5 -26t-67 -8.5h-108zM255 711h154l83 -137h-132l-34 66h-2
l-55 -66h-141z" />
    <glyph glyph-name="Ydieresis" unicode="&#x178;" horiz-adv-x="639" 
d="M231 267l-145 448h183l52 -182q5 -19 9.5 -38t8.5 -36q4 -19 7 -37h2l22 36q10 16 21.5 35t24.5 38l124 184h189l-324 -454l-50 -261h-175zM249 881h151l-25 -128h-151zM461 881h151l-25 -128h-151z" />
    <glyph glyph-name="Zacute" unicode="&#x179;" horiz-adv-x="629" 
d="M0 137l367 371q5 5 15.5 15t21.5 20q12 11 26 25v3q-15 -1 -28 -1h-42h-251l28 145h543l-26 -135l-356 -361q-8 -8 -20.5 -20t-24.5 -23q-14 -13 -30 -27v-3h30q12 0 25 0.5t21 0.5h283l-28 -147h-580zM410 880h181l-121 -130h-122z" />
    <glyph glyph-name="zacute" unicode="&#x17a;" horiz-adv-x="483" 
d="M308 720h185l-138 -148h-123zM-7 118l234 223q5 5 14.5 13t17.5 16q10 9 21 18v3q-14 -1 -26 -1h-37h-154l24 121h410l-22 -117l-221 -211q-11 -11 -22.5 -21t-21.5 -18q-11 -10 -22 -19v-3h26q11 0 23 0.5t21 0.5h181l-24 -123h-444z" />
    <glyph glyph-name="Zdotaccent" unicode="&#x17b;" horiz-adv-x="629" 
d="M358 883h160l-26 -130h-160zM0 137l367 371q5 5 15.5 15t21.5 20q12 11 26 25v3q-15 -1 -28 -1h-42h-251l28 145h543l-26 -135l-356 -361q-8 -8 -20.5 -20t-24.5 -23q-14 -13 -30 -27v-3h30q12 0 25 0.5t21 0.5h283l-28 -147h-580z" />
    <glyph glyph-name="zdotaccent" unicode="&#x17c;" horiz-adv-x="483" 
d="M-7 118l234 223q5 5 14.5 13t17.5 16q10 9 21 18v3q-14 -1 -26 -1h-37h-154l24 121h410l-22 -117l-221 -211q-11 -11 -22.5 -21t-21.5 -18q-11 -10 -22 -19v-3h26q11 0 23 0.5t21 0.5h181l-24 -123h-444zM247 715h160l-25 -132h-160z" />
    <glyph glyph-name="Zcaron" unicode="&#x17d;" horiz-adv-x="629" 
d="M254 875h131l36 -55h2l53 55h142l-125 -125h-155zM0 137l367 371q5 5 15.5 15t21.5 20q12 11 26 25v3q-15 -1 -28 -1h-42h-251l28 145h543l-26 -135l-356 -361q-8 -8 -20.5 -20t-24.5 -23q-14 -13 -30 -27v-3h30q12 0 25 0.5t21 0.5h283l-28 -147h-580z" />
    <glyph glyph-name="zcaron" unicode="&#x17e;" horiz-adv-x="483" 
d="M141 709h132l34 -66h2l55 66h141l-127 -138h-154zM-7 118l234 223q5 5 14.5 13t17.5 16q10 9 21 18v3q-14 -1 -26 -1h-37h-154l24 121h410l-22 -117l-221 -211q-11 -11 -22.5 -21t-21.5 -18q-11 -10 -22 -19v-3h26q11 0 23 0.5t21 0.5h181l-24 -123h-444z" />
    <glyph glyph-name="florin" unicode="&#x192;" horiz-adv-x="418" 
d="M146 417l29 129q16 77 65 116q19 15 44 23.5t53 11.5t58 1.5t60 -5.5l-22 -114q-23 1 -39.5 1t-28.5 -5t-19.5 -16t-11.5 -31l-25 -111h101l-20 -102h-103l-71 -326q-8 -36 -20.5 -62t-33.5 -45q-18 -17 -42 -25.5t-51 -11.5t-56 -1.5t-57 5.5l21 106q18 -1 31 -0.5
t22 5.5t15.5 16.5t10.5 31.5l67 307h-79l20 102h82z" />
    <glyph glyph-name="AEacute" unicode="&#x1fc;" horiz-adv-x="971" 
d="M323 715h695l-28 -144h-336l-24 -131h287l-26 -136h-288l-30 -155h347l-29 -149h-521l24 127h-206l-64 -127h-175zM249 248h169l62 322h-68zM673 880h181l-121 -130h-122z" />
    <glyph glyph-name="aeacute" unicode="&#x1fd;" horiz-adv-x="859" 
d="M298 526q55 0 96 -13.5t64 -42.5q30 27 69 42t87 15q43 0 76 -8.5t59 -25.5q60 -39 82 -111t8 -168h-353q0 -24 5 -44.5t15.5 -36t29 -24t45.5 -8.5q29 0 52.5 12.5t35.5 39.5h156q-11 -36 -33 -67t-53.5 -53.5t-72.5 -35t-89 -12.5q-67 0 -118 23t-80 70
q-13 -19 -30.5 -35.5t-41.5 -29t-55 -19.5t-70 -7q-87 0 -137.5 38.5t-50.5 111.5q0 46 16.5 76.5t45.5 49.5t69 28.5t87 12.5q38 3 65 6t44 10t25 18t8 30q0 22 -16 35.5t-48 13.5q-75 0 -91 -67h-149q14 80 75 128t173 48zM491 720h185l-138 -148h-123zM149 149
q0 -30 18.5 -44t47.5 -14q42 0 70 22.5t38 68.5l11 58q-17 -8 -37.5 -13t-49.5 -10q-15 -3 -32.5 -5.5t-32 -9t-24 -19t-9.5 -34.5zM610 412q-42 0 -69.5 -27t-41.5 -74h195q1 21 -3.5 39t-15 32t-26.5 22t-39 8z" />
    <glyph glyph-name="Oslashacute" unicode="&#x1fe;" horiz-adv-x="727" 
d="M20 15l73 80q-29 38 -45.5 88t-15.5 112q0 87 26.5 165.5t76 138.5t120.5 95t160 35q60 0 110.5 -15t90.5 -44l65 72l54 -49l-67 -73q32 -40 48.5 -92.5t16.5 -116.5q0 -85 -26 -162.5t-74.5 -136.5t-119 -94t-159.5 -35q-124 0 -209 61l-72 -79zM359 126q54 0 92 26
t62 67.5t35 91.5t11 98q0 46 -10 79l-297 -327q37 -35 107 -35zM206 297q0 -35 8 -69l296 325q-37 34 -102 34q-54 0 -92.5 -27t-62.5 -69t-35.5 -93.5t-11.5 -100.5zM430 880h181l-121 -130h-122z" />
    <glyph glyph-name="oslashacute" unicode="&#x1ff;" horiz-adv-x="567" 
d="M8 6l56 59q-24 29 -37.5 67t-13.5 87q0 63 21 119t59.5 97.5t92.5 66t121 24.5q42 0 80.5 -10.5t70.5 -31.5l56 59l43 -41l-55 -58q23 -29 36.5 -66t14.5 -85q0 -64 -21 -120t-59 -98t-92 -66.5t-121 -24.5q-42 0 -80.5 10.5t-70.5 31.5l-58 -62zM331 720h185l-138 -148
h-123zM171 208v-14.5t1 -12.5l194 205q-24 26 -65 26q-35 0 -59.5 -20t-40.5 -50t-23 -66t-7 -68zM263 98q35 0 60 19.5t41 49.5t23 65.5t7 68.5q0 7 -0.5 13t-1.5 13l-193 -205q22 -24 64 -24z" />
    <glyph glyph-name="Scommaaccent" unicode="&#x218;" horiz-adv-x="627" 
d="M181 -215q29 5 50.5 18t26.5 42h-63l21 108h136l-19 -97q-12 -62 -56 -88.5t-106 -30.5zM301 -17q-59 0 -114.5 12.5t-98.5 41t-68 74.5t-23 114h175q-1 -28 9 -47.5t28 -32t42.5 -18t54.5 -5.5q22 0 43 4t37 13t25.5 23.5t9.5 36.5q0 31 -34 50.5t-107 45.5
q-48 17 -86.5 35t-66 42t-42 55t-14.5 75q0 55 20.5 97.5t57 71t86.5 43t110 14.5q52 0 102.5 -11t89.5 -36.5t62.5 -68t20.5 -104.5h-170q1 42 -28 64.5t-83 22.5q-17 0 -34.5 -3.5t-32 -11.5t-24 -21t-9.5 -32q0 -16 8 -27t26 -20.5t47 -19.5t72 -25q45 -16 83 -34
t65.5 -43t43 -57.5t15.5 -76.5q0 -61 -24 -106t-64.5 -75t-94.5 -45t-115 -15z" />
    <glyph glyph-name="scommaaccent" unicode="&#x219;" horiz-adv-x="491" 
d="M102 -215q29 5 50.5 18t26.5 42h-63l21 108h136l-19 -97q-12 -62 -56 -88.5t-106 -30.5zM229 -16q-45 0 -87.5 10.5t-75.5 32.5t-53.5 56.5t-22.5 82.5h152q2 -32 22.5 -53.5t67.5 -21.5q32 0 51.5 11.5t19.5 37.5q0 27 -31.5 38.5t-82.5 26.5q-32 9 -60 21t-48.5 29.5
t-32 42t-11.5 58.5q0 42 16.5 73.5t46 53.5t70 33t88.5 11q42 0 80.5 -9.5t68 -29t48 -51t21.5 -74.5h-147q-3 27 -22.5 43.5t-54.5 16.5q-25 0 -46 -10t-21 -33t28.5 -34t82.5 -26q30 -9 58.5 -20.5t50.5 -29t35.5 -43t13.5 -61.5q0 -90 -60 -136t-165 -46z" />
    <glyph glyph-name="uni021A" unicode="&#x21a;" horiz-adv-x="608" 
d="M141 -215q29 5 50.5 18t26.5 42h-63l21 108h136l-19 -97q-12 -62 -56 -88.5t-106 -30.5zM276 567h-201l28 148h578l-28 -148h-203l-110 -567h-174z" />
    <glyph glyph-name="uni021B" unicode="&#x21b;" horiz-adv-x="343" 
d="M32 -215q29 5 50.5 18t26.5 42h-63l21 108h136l-19 -97q-12 -62 -56 -88.5t-106 -30.5zM196 -6q-86 0 -122 38t-19 120l50 258h-65l20 102h65l31 162h157l-32 -162h91l-20 -102h-91l-46 -239q-5 -30 4.5 -42t38.5 -12q9 0 21 0.5t17 1.5l-23 -116q-8 -3 -29.5 -6
t-47.5 -3z" />
    <glyph glyph-name="uni0237" unicode="&#x237;" horiz-adv-x="237" 
d="M-38 -172q-49 0 -86 10l21 113q19 -1 34.5 -0.5t26.5 5t18 14t10 26.5l101 516h160l-103 -532q-9 -44 -24 -72t-36 -45q-25 -19 -56 -27t-66 -8z" />
    <glyph glyph-name="circumflex" unicode="&#x2c6;" 
d="M253 711h154l83 -137h-132l-34 66h-2l-55 -66h-141z" />
    <glyph glyph-name="caron" unicode="&#x2c7;" 
d="M150 709h132l34 -66h2l55 66h141l-127 -138h-154z" />
    <glyph glyph-name="uni02C9" unicode="&#x2c9;" 
d="M192 687h282l-20 -100h-282z" />
    <glyph glyph-name="breve" unicode="&#x2d8;" 
d="M342 566q-71 0 -112.5 39t-39.5 106h90q2 -21 17 -34t47 -13q30 0 49 14t24 33h90q-10 -68 -54.5 -106.5t-110.5 -38.5z" />
    <glyph glyph-name="dotaccent" unicode="&#x2d9;" 
d="M254 715h160l-25 -132h-160z" />
    <glyph glyph-name="ring" unicode="&#x2da;" 
d="M324 614q18 0 29.5 12.5t11.5 29.5t-11.5 30t-29.5 13q-19 0 -30.5 -13t-11.5 -30t11.5 -29.5t30.5 -12.5zM324 558q-21 0 -39.5 7.5t-32.5 21t-22 31t-8 38.5t8 39t22 31.5t32.5 21t39.5 7.5t39.5 -7.5t32.5 -21t22 -31.5t8 -39t-8 -38.5t-22 -31t-32.5 -21t-39.5 -7.5z
" />
    <glyph glyph-name="ogonek" unicode="&#x2db;" 
d="M197 -177q-52 0 -82.5 21t-30.5 59q0 18 7.5 33t20.5 26.5t28.5 20.5t32.5 17h103q-9 -5 -20.5 -12t-22 -16t-17.5 -18.5t-7 -19.5q0 -23 26 -23q14 0 31 5h3l-16 -84q-10 -4 -24 -6.5t-32 -2.5z" />
    <glyph glyph-name="tilde" unicode="&#x2dc;" 
d="M375 572q-21 0 -36.5 5.5t-28.5 12l-24 12t-22 5.5q-12 0 -21.5 -9.5t-13.5 -26.5h-83q11 68 44.5 101.5t75.5 33.5q20 0 35 -6t28 -12.5t23.5 -12.5t21.5 -6q16 0 23.5 9.5t12.5 25.5h82q-10 -59 -39 -95.5t-78 -36.5z" />
    <glyph glyph-name="hungarumlaut" unicode="&#x2dd;" 
d="M219 720h155l-119 -148h-100zM411 720h155l-119 -148h-100z" />
    <glyph glyph-name="uni0394" unicode="&#x394;" horiz-adv-x="666" 
d="M442 132l-49 300q-3 14 -5 34t-4 37q-2 20 -4 41h-1q-8 -21 -17 -40q-8 -17 -16.5 -35t-15.5 -32l-157 -305h269zM-8 110l328 605h178l118 -604l-21 -111h-624z" />
    <glyph glyph-name="uni03A9" unicode="&#x3a9;" horiz-adv-x="729" 
d="M6 132h111v3q-37 27 -58 77t-21 108q0 80 27 154t77 130.5t121.5 90.5t161.5 34q62 0 118 -18.5t98 -55t67 -91.5t25 -127q0 -97 -36.5 -176t-111.5 -126v-3h93l-26 -132h-304l24 128q48 6 83 36.5t57 74t32.5 94t10.5 97.5q0 33 -8 61.5t-25 49.5t-44 33t-66 12
q-57 0 -96 -28.5t-63 -72t-34.5 -97t-10.5 -102.5q0 -63 22.5 -103.5t72.5 -54.5l-25 -128h-298z" />
    <glyph glyph-name="uni03BC" unicode="&#x3bc;" horiz-adv-x="558" 
d="M87 512h160l-58 -298q-20 -95 57 -95q42 0 69.5 31t37.5 82l54 280h160l-99 -512h-153l14 74h-3q-28 -42 -59 -64.5t-69 -22.5q-18 0 -30 5t-20 12h-2l-33 -173h-158z" />
    <glyph glyph-name="pi" unicode="&#x3c0;" horiz-adv-x="623" 
d="M477 -5q-35 0 -62.5 7.5t-44.5 26t-22.5 49.5t3.5 77l49 256h-130l-79 -411h-156l79 411h-70l20 101h585l-20 -101h-72l-48 -247q-7 -32 6.5 -42t45.5 -6l-22 -114q-13 -3 -27.5 -5t-34.5 -2z" />
    <glyph glyph-name="Wgrave" unicode="&#x1e80;" horiz-adv-x="921" 
d="M407 880h175l29 -130h-121zM86 715h174l14 -300q1 -27 1.5 -58.5t0.5 -58.5q0 -32 -1 -63h2q11 29 22 59q10 26 21 56.5t22 59.5l120 305h161l13 -304q1 -28 2 -58.5t1 -56.5v-61h2q12 32 23 64q10 27 21.5 58.5t22.5 59.5l119 298h177l-313 -715h-171l-15 344
q-2 23 -2 47v44v47h-2q-7 -22 -15 -46q-7 -20 -15.5 -44.5t-17.5 -47.5l-134 -344h-171z" />
    <glyph glyph-name="wgrave" unicode="&#x1e81;" horiz-adv-x="769" 
d="M49 512h160l15 -212q1 -16 1.5 -33.5t1.5 -33.5q1 -18 1 -36h2q7 19 14 37q6 16 13.5 34.5t14.5 34.5l91 209h135l18 -209q2 -17 2.5 -35.5t1.5 -34.5q1 -18 2 -37h2q8 19 15 37q6 16 13 33.5t14 33.5l89 212h161l-240 -512h-149l-21 233q-2 16 -3 33.5t-2 32.5
q-1 18 -1 34h-2q-7 -17 -13 -35q-6 -15 -12.5 -32.5t-13.5 -32.5l-101 -233h-149zM280 720h175l43 -148h-121z" />
    <glyph glyph-name="Wacute" unicode="&#x1e82;" horiz-adv-x="921" 
d="M551 880h181l-121 -130h-122zM86 715h174l14 -300q1 -27 1.5 -58.5t0.5 -58.5q0 -32 -1 -63h2q11 29 22 59q10 26 21 56.5t22 59.5l120 305h161l13 -304q1 -28 2 -58.5t1 -56.5v-61h2q12 32 23 64q10 27 21.5 58.5t22.5 59.5l119 298h177l-313 -715h-171l-15 344
q-2 23 -2 47v44v47h-2q-7 -22 -15 -46q-7 -20 -15.5 -44.5t-17.5 -47.5l-134 -344h-171z" />
    <glyph glyph-name="wacute" unicode="&#x1e83;" horiz-adv-x="769" 
d="M453 720h185l-138 -148h-123zM49 512h160l15 -212q1 -16 1.5 -33.5t1.5 -33.5q1 -18 1 -36h2q7 19 14 37q6 16 13.5 34.5t14.5 34.5l91 209h135l18 -209q2 -17 2.5 -35.5t1.5 -34.5q1 -18 2 -37h2q8 19 15 37q6 16 13 33.5t14 33.5l89 212h161l-240 -512h-149l-21 233
q-2 16 -3 33.5t-2 32.5q-1 18 -1 34h-2q-7 -17 -13 -35q-6 -15 -12.5 -32.5t-13.5 -32.5l-101 -233h-149z" />
    <glyph glyph-name="Wdieresis" unicode="&#x1e84;" horiz-adv-x="921" 
d="M389 881h151l-25 -128h-151zM601 881h151l-25 -128h-151zM86 715h174l14 -300q1 -27 1.5 -58.5t0.5 -58.5q0 -32 -1 -63h2q11 29 22 59q10 26 21 56.5t22 59.5l120 305h161l13 -304q1 -28 2 -58.5t1 -56.5v-61h2q12 32 23 64q10 27 21.5 58.5t22.5 59.5l119 298h177
l-313 -715h-171l-15 344q-2 23 -2 47v44v47h-2q-7 -22 -15 -46q-7 -20 -15.5 -44.5t-17.5 -47.5l-134 -344h-171z" />
    <glyph glyph-name="wdieresis" unicode="&#x1e85;" horiz-adv-x="769" 
d="M276 705h150l-25 -128h-150zM497 705h150l-25 -128h-150zM49 512h160l15 -212q1 -16 1.5 -33.5t1.5 -33.5q1 -18 1 -36h2q7 19 14 37q6 16 13.5 34.5t14.5 34.5l91 209h135l18 -209q2 -17 2.5 -35.5t1.5 -34.5q1 -18 2 -37h2q8 19 15 37q6 16 13 33.5t14 33.5l89 212h161
l-240 -512h-149l-21 233q-2 16 -3 33.5t-2 32.5q-1 18 -1 34h-2q-7 -17 -13 -35q-6 -15 -12.5 -32.5t-13.5 -32.5l-101 -233h-149z" />
    <glyph glyph-name="Ygrave" unicode="&#x1ef2;" horiz-adv-x="639" 
d="M231 267l-145 448h183l52 -182q5 -19 9.5 -38t8.5 -36q4 -19 7 -37h2l22 36q10 16 21.5 35t24.5 38l124 184h189l-324 -454l-50 -261h-175zM268 880h175l29 -130h-121z" />
    <glyph glyph-name="ygrave" unicode="&#x1ef3;" horiz-adv-x="521" 
d="M10 -43h54q34 0 54.5 17t20.5 56q0 15 -3.5 37t-9.5 51l-78 394h167l28 -216q2 -19 4 -40.5t4 -40.5q2 -22 4 -43h2q7 20 16 41q7 18 16 39t18 41l101 219h161l-270 -538q-19 -37 -39.5 -64t-45 -44.5t-54.5 -26t-67 -8.5h-108zM161 720h175l43 -148h-121z" />
    <glyph glyph-name="uni2009" unicode="&#x2009;" horiz-adv-x="55" 
 />
    <glyph glyph-name="endash" unicode="&#x2013;" horiz-adv-x="500" 
d="M55 324h415l-27 -138h-415z" />
    <glyph glyph-name="emdash" unicode="&#x2014;" horiz-adv-x="1000" 
d="M112 324h801l-27 -138h-801z" />
    <glyph glyph-name="quoteleft" unicode="&#x2018;" horiz-adv-x="214" 
d="M91 558q14 77 59 115q23 21 54.5 32t67.5 13l-12 -58q-33 -5 -57 -28t-30 -62h67l-29 -149h-146z" />
    <glyph glyph-name="quoteright" unicode="&#x2019;" horiz-adv-x="214" 
d="M74 476q32 5 56 28t30 62h-66l28 149h147l-27 -137q-15 -78 -59 -116q-23 -20 -54.5 -31t-66.5 -13z" />
    <glyph glyph-name="quotesinglbase" unicode="&#x201a;" horiz-adv-x="214" 
d="M-36 -90q33 5 57 27.5t30 62.5h-67l29 149h146l-26 -137q-8 -40 -22.5 -68t-36.5 -48q-23 -20 -55 -31.5t-67 -13.5z" />
    <glyph glyph-name="quotedblleft" unicode="&#x201c;" horiz-adv-x="421" 
d="M91 558q14 77 59 115q23 21 54.5 32t67.5 13l-12 -58q-33 -5 -57 -28t-30 -62h67l-29 -149h-146zM298 558q14 77 59 115q23 21 54.5 32t67.5 13l-12 -58q-33 -5 -57 -28t-30 -62h67l-29 -149h-146z" />
    <glyph glyph-name="quotedblright" unicode="&#x201d;" horiz-adv-x="421" 
d="M74 476q32 5 56 28t30 62h-66l28 149h147l-27 -137q-15 -78 -59 -116q-23 -20 -54.5 -31t-66.5 -13zM281 476q32 5 56 28t30 62h-66l28 149h147l-27 -137q-15 -78 -59 -116q-23 -20 -54.5 -31t-66.5 -13z" />
    <glyph glyph-name="quotedblbase" unicode="&#x201e;" horiz-adv-x="421" 
d="M-36 -90q33 5 57 27.5t30 62.5h-67l29 149h146l-26 -137q-8 -40 -22.5 -68t-36.5 -48q-23 -20 -55 -31.5t-67 -13.5zM171 -90q33 5 57 27.5t30 62.5h-67l29 149h146l-26 -137q-8 -40 -22.5 -68t-36.5 -48q-23 -20 -55 -31.5t-67 -13.5z" />
    <glyph glyph-name="dagger" unicode="&#x2020;" horiz-adv-x="580" 
d="M230 382h-173l26 132h173l39 201h166l-38 -201h173l-26 -132h-173l-102 -525h-166z" />
    <glyph glyph-name="daggerdbl" unicode="&#x2021;" horiz-adv-x="580" 
d="M167 58h-173l26 133h174l36 191h-173l26 132h173l39 201h166l-38 -201h173l-26 -132h-173l-37 -191h174l-26 -133h-174l-39 -201h-166z" />
    <glyph glyph-name="bullet" unicode="&#x2022;" horiz-adv-x="368" 
d="M195 170q-31 0 -58 12t-47.5 32.5t-32.5 47.5t-12 58t12 58t32.5 47.5t47.5 32.5t58 12t58 -12t47.5 -32.5t32.5 -47.5t12 -58t-12 -58t-32.5 -47.5t-47.5 -32.5t-58 -12z" />
    <glyph glyph-name="ellipsis" unicode="&#x2026;" horiz-adv-x="744" 
d="M14 168h168l-33 -168h-168zM271 168h168l-33 -168h-168zM527 168h168l-32 -168h-168z" />
    <glyph glyph-name="perthousand" unicode="&#x2030;" horiz-adv-x="1233" 
d="M226 385q21 0 36 16.5t24.5 41t14 52.5t4.5 52q0 27 -10.5 47.5t-36.5 20.5q-21 0 -36.5 -16.5t-25 -40.5t-14 -52t-4.5 -51q0 -13 2 -25.5t7 -22.5t14.5 -16t24.5 -6zM221 299q-38 0 -68 12.5t-51 34.5t-32 52t-11 66q0 47 14.5 90t40.5 75.5t63.5 51.5t84.5 19
q37 0 67 -11.5t51 -33.5t32.5 -52.5t11.5 -67.5q0 -47 -14 -90t-40.5 -75.5t-64 -51.5t-84.5 -19zM643 686h95l-507 -686h-95zM615 69q21 0 36 16.5t24.5 41t14 52.5t4.5 52q0 27 -10 48t-37 21q-21 0 -36.5 -16.5t-25 -41t-14 -52.5t-4.5 -51q0 -12 2 -24.5t7 -22.5
t14.5 -16.5t24.5 -6.5zM610 -17q-38 0 -67.5 12.5t-50.5 34.5t-32 52t-11 66q0 47 14 90t40.5 75.5t63.5 51.5t84 19q75 0 119 -44.5t44 -119.5q0 -47 -14 -90t-40.5 -75.5t-64 -52t-85.5 -19.5zM1006 69q21 0 36 16.5t24.5 41t14 52.5t4.5 52q0 27 -10.5 48t-36.5 21
q-21 0 -36.5 -16.5t-25 -41t-14 -52.5t-4.5 -51q0 -12 2 -24.5t7 -22.5t14.5 -16.5t24.5 -6.5zM1001 -17q-38 0 -68 12.5t-51 34.5t-32 52t-11 66q0 47 14.5 90t40.5 75.5t63.5 51.5t84.5 19q74 0 118 -44.5t44 -119.5q0 -47 -14 -90t-40.5 -75.5t-64 -52t-84.5 -19.5z" />
    <glyph glyph-name="uni2032" unicode="&#x2032;" horiz-adv-x="219" 
d="M150 715h139l-95 -269h-139z" />
    <glyph glyph-name="uni2033" unicode="&#x2033;" horiz-adv-x="418" 
d="M150 715h139l-95 -269h-139zM348 715h140l-95 -269h-139z" />
    <glyph glyph-name="guilsinglleft" unicode="&#x2039;" horiz-adv-x="261" 
d="M27 179l30 153l195 137l-30 -154l-98 -68v-2l72 -68l-28 -143z" />
    <glyph glyph-name="guilsinglright" unicode="&#x203a;" horiz-adv-x="261" 
d="M36 188l98 68v2l-72 68l28 143l141 -145l-30 -153l-195 -137z" />
    <glyph glyph-name="fraction" unicode="&#x2044;" horiz-adv-x="280" 
d="M425 715h100l-632 -715h-101z" />
    <glyph glyph-name="zero.superior" unicode="&#x2070;" horiz-adv-x="405" 
d="M237 395q25 0 42.5 18t28 43.5t15 54t4.5 51.5q0 15 -2.5 29t-8.5 25t-16.5 18t-26.5 7q-26 0 -43.5 -18.5t-28 -45.5t-15.5 -56.5t-5 -51.5q0 -29 11.5 -51.5t44.5 -22.5zM234 309q-37 0 -68 10.5t-53.5 31.5t-35.5 52.5t-13 72.5q0 47 14.5 91.5t42 79t67 55.5t89.5 21
q36 0 66 -11t52.5 -32t35 -52.5t12.5 -72.5q0 -47 -14 -91.5t-40.5 -79t-65.5 -55t-89 -20.5z" />
    <glyph glyph-name="four.superior" unicode="&#x2074;" horiz-adv-x="390" 
d="M234 402h-189l18 93l230 224h115l-46 -237h58l-16 -80h-58l-16 -84h-112zM149 482h101l24 123h-2l-123 -121v-2z" />
    <glyph glyph-name="five.superior" unicode="&#x2075;" horiz-adv-x="365" 
d="M211 309q-35 0 -64 8.5t-51 25t-35 40t-14 53.5h107q4 -21 19.5 -32t38.5 -11q29 0 45.5 19t16.5 49q0 26 -14 39.5t-36 13.5q-37 0 -56 -25h-95l68 226h260l-17 -86h-177l-20 -67h1q14 11 34 19t47 8q55 0 87 -34t32 -89q0 -39 -14 -68.5t-38.5 -49t-56.5 -29.5t-68 -10
z" />
    <glyph glyph-name="six.superior" unicode="&#x2076;" horiz-adv-x="373" 
d="M224 309q-74 0 -118.5 42t-44.5 123q0 25 4.5 52.5t14.5 54t25 50.5t36 43q27 24 58 36.5t75 12.5q28 0 52.5 -6t43.5 -19.5t31.5 -34.5t15.5 -51h-109q-2 17 -11 25.5t-29 8.5q-30 0 -53.5 -27t-34.5 -71h1q36 39 92 39q25 0 47.5 -7.5t39.5 -22.5t27.5 -37.5
t10.5 -51.5q0 -36 -13.5 -65.5t-36.5 -50t-55 -32t-69 -11.5zM225 390q26 0 45 18t19 49q0 24 -14.5 39t-40.5 15t-44.5 -19t-18.5 -50q0 -24 14.5 -38t39.5 -14z" />
    <glyph glyph-name="seven.superior" unicode="&#x2077;" horiz-adv-x="345" 
d="M90 318q23 100 75.5 176t112.5 126v1h-191l18 94h308l-17 -84q-63 -52 -111.5 -132t-69.5 -181h-125v0z" />
    <glyph glyph-name="eight.superior" unicode="&#x2078;" horiz-adv-x="379" 
d="M218 309q-32 0 -62.5 6t-54 19.5t-38 35.5t-14.5 53q0 45 26.5 70.5t62.5 37.5v2q-20 12 -30.5 31t-10.5 40q0 32 15 54.5t38.5 37t52 21t55.5 6.5q31 0 59 -5.5t50 -18.5t34.5 -33t12.5 -49q-1 -35 -21 -57.5t-48 -34.5v-2q56 -25 56 -85q0 -36 -16 -60.5t-42 -39.5
t-59 -22t-66 -7zM222 386q27 0 45.5 15t18.5 43q0 25 -17.5 37t-39.5 12q-26 0 -45.5 -14.5t-19.5 -42.5q0 -26 18.5 -38t39.5 -12zM251 560q23 0 39 12t16 35t-15 34t-34 11q-23 0 -38 -14t-15 -35q0 -22 13.5 -32.5t33.5 -10.5z" />
    <glyph glyph-name="nine.superior" unicode="&#x2079;" horiz-adv-x="375" 
d="M199 309q-29 0 -55 6.5t-46 20t-33 35t-16 50.5h110q6 -35 46 -35q31 0 54 23.5t32 73.5h-1q-18 -19 -41.5 -29.5t-49.5 -10.5t-49 8t-40.5 23.5t-27.5 38.5t-10 52q0 35 13.5 64t37 50t55.5 32.5t70 11.5q73 0 117.5 -40.5t44.5 -121.5q0 -26 -4 -53t-12.5 -53.5
t-22.5 -51t-33 -43.5q-51 -51 -139 -51zM237 520q26 0 44.5 19.5t18.5 50.5q0 24 -14 38t-40 14t-45 -18.5t-19 -48.5q-1 -25 14 -40t41 -15z" />
    <glyph glyph-name="zero.inferior" unicode="&#x2080;" horiz-adv-x="405" 
d="M149 -73q25 0 42.5 18t28 43.5t15 54t4.5 51.5q0 15 -2.5 29t-8.5 25t-16.5 18t-26.5 7q-26 0 -43.5 -18.5t-28 -45.5t-15.5 -56.5t-5 -51.5q0 -29 11.5 -51.5t44.5 -22.5zM146 -159q-37 0 -68 10.5t-53.5 31.5t-35.5 52.5t-13 72.5q0 47 14.5 91.5t42 79t67 55.5
t89.5 21q36 0 66 -11t52.5 -32t35 -52.5t12.5 -72.5q0 -47 -14 -91.5t-40.5 -79t-65.5 -55t-89 -20.5z" />
    <glyph glyph-name="one.inferior" unicode="&#x2081;" horiz-adv-x="262" 
d="M66 85h-89l16 80q48 2 81 22.5t50 63.5h94l-78 -401h-120z" />
    <glyph glyph-name="two.inferior" unicode="&#x2082;" horiz-adv-x="369" 
d="M-58 -150q9 54 34 86.5t57 55.5q35 26 68 42.5t62 33.5q20 12 32 24.5t12 35.5q0 18 -11 28t-30 10q-25 0 -42 -18.5t-24 -51.5h-109q6 39 22 69t41 50t56 30t67 10q28 0 54 -7t46 -21.5t32.5 -36.5t12.5 -52q0 -43 -21.5 -71.5t-51.5 -48.5q-34 -24 -71 -40.5t-60 -36.5
h172l-18 -91h-330v0z" />
    <glyph glyph-name="three.inferior" unicode="&#x2083;" horiz-adv-x="371" 
d="M130 -160q-35 0 -66 9t-54.5 27.5t-36.5 45.5t-12 63h110q0 -28 15 -44.5t45 -16.5q24 0 40 13t16 37q0 44 -57 44h-24l15 74h27q25 0 41.5 10.5t16.5 32.5q0 20 -13.5 29.5t-32.5 9.5q-26 0 -41 -15t-20 -36h-107q10 58 57 95t119 37q30 0 57 -7t47.5 -20.5t32 -34.5
t11.5 -48q-1 -32 -21 -55t-49 -34v-1q23 -11 39 -31.5t16 -51.5q0 -33 -15 -58t-39 -41.5t-54.5 -24.5t-62.5 -8z" />
    <glyph glyph-name="four.inferior" unicode="&#x2084;" horiz-adv-x="390" 
d="M145 -66h-189l18 93l230 224h116l-46 -237h58l-16 -80h-58l-16 -84h-113zM60 14h101l24 123h-1l-124 -121v-2z" />
    <glyph glyph-name="five.inferior" unicode="&#x2085;" horiz-adv-x="365" 
d="M122 -160q-34 0 -63.5 9t-51 25.5t-35 40t-14.5 53.5h107q9 -43 58 -43q29 0 46 19t17 49q0 26 -14.5 39.5t-36.5 13.5q-36 0 -55 -25h-96l69 226h260l-18 -86h-176l-21 -67h2q14 11 33.5 19t47.5 8q54 0 86.5 -34t32.5 -89q0 -39 -14.5 -68.5t-38.5 -49.5t-56.5 -30
t-68.5 -10z" />
    <glyph glyph-name="six.inferior" unicode="&#x2086;" horiz-adv-x="373" 
d="M136 -159q-37 0 -67 10.5t-51.5 31.5t-33 52t-11.5 71q0 25 4.5 52.5t14 54t25 50.5t36.5 43q26 24 57.5 36.5t74.5 12.5q28 0 53 -6t44 -19.5t31.5 -34.5t15.5 -51h-110q-2 17 -11 25.5t-29 8.5q-30 0 -53.5 -27t-34.5 -71h1q17 19 41.5 29t51.5 10q25 0 47.5 -7.5
t39.5 -22.5t27 -37.5t10 -51.5q0 -36 -13.5 -65.5t-36.5 -50t-54.5 -32t-68.5 -11.5zM137 -78q26 0 44.5 18t18.5 49q0 24 -14 39t-40 15t-45 -19t-19 -50q0 -24 15 -38t40 -14z" />
    <glyph glyph-name="seven.inferior" unicode="&#x2087;" horiz-adv-x="345" 
d="M2 -150q23 100 75 176t112 126v1h-190l18 94h307l-16 -84q-63 -52 -112 -132t-69 -181h-125v0z" />
    <glyph glyph-name="eight.inferior" unicode="&#x2088;" horiz-adv-x="379" 
d="M129 -160q-32 0 -62 6.5t-54 20t-38.5 35.5t-14.5 53q0 45 26.5 70.5t63.5 37.5v2q-21 12 -31.5 31t-10.5 40q0 32 15 54.5t38.5 37t52 21t55.5 6.5q31 0 59.5 -5.5t50 -18.5t34.5 -33t12 -49q-1 -35 -20.5 -57.5t-47.5 -34.5v-2q26 -12 41 -34t15 -51q0 -36 -16 -60.5
t-42 -40t-59 -22.5t-67 -7zM134 -82q26 0 45 15t19 43q0 25 -17.5 37t-40.5 12q-26 0 -45 -14.5t-19 -42.5q0 -26 18.5 -38t39.5 -12zM163 92q23 0 38.5 12t15.5 35t-14.5 34t-34.5 11q-23 0 -38 -14t-15 -35q0 -22 14 -32.5t34 -10.5z" />
    <glyph glyph-name="nine.inferior" unicode="&#x2089;" horiz-adv-x="375" 
d="M110 -160q-29 0 -55 6.5t-46 20.5t-33 35.5t-16 50.5h111q5 -35 45 -35q31 0 54 23.5t33 73.5h-1q-18 -19 -41.5 -29.5t-50.5 -10.5q-26 0 -49 8t-40 23.5t-27 38.5t-10 52q0 35 13.5 64t37 50t55.5 32.5t70 11.5q73 0 117 -40.5t44 -121.5q0 -26 -4 -53t-12.5 -53.5
t-22.5 -51t-33 -43.5q-51 -52 -139 -52zM148 52q26 0 45 19.5t19 50.5q0 24 -14.5 38t-39.5 14q-27 0 -46 -18.5t-19 -48.5q0 -25 14.5 -40t40.5 -15z" />
    <glyph glyph-name="Euro" unicode="&#x20ac;" horiz-adv-x="641" 
d="M48 430h43q20 64 53.5 114.5t76 85t92.5 52.5t102 18q122 0 184 -63.5t62 -182.5h-161q0 21 -3.5 41.5t-14 36.5t-28.5 25.5t-46 9.5q-45 0 -83.5 -34t-61.5 -103h159l-12 -64h-163l-4 -28t-3 -29h159l-12 -64h-149q1 -55 25 -91t80 -36q49 -1 82.5 33t48.5 92h161
q-26 -125 -103.5 -192t-193.5 -67q-59 0 -107.5 17t-83.5 50t-55.5 81.5t-23.5 112.5h-55l12 64h44q2 14 3.5 28.5t3.5 28.5h-40z" />
    <glyph glyph-name="afii61289" unicode="&#x2113;" horiz-adv-x="395" 
d="M189 -5q-89 0 -128.5 40t-22.5 128l2 11q-12 -3 -24.5 -5.5t-24.5 -4.5l19 96q13 3 25 6.5t24 7.5l59 297q17 83 64 117.5t117 34.5q69 0 104.5 -32.5t35.5 -103.5q0 -56 -17 -107t-47.5 -95.5t-74 -82t-95.5 -65.5l-9 -48q-7 -36 4 -53t46 -17q15 0 30.5 2t22.5 3
l-23 -119q-11 -2 -35 -6t-52 -4zM230 362l18 17q20 21 35 48.5t25 56.5t15 56.5t5 47.5q0 33 -23 33q-13 0 -21 -12t-14 -41z" />
    <glyph glyph-name="trademark" unicode="&#x2122;" horiz-adv-x="688" 
d="M397 715h119l13 -155h2l72 155h120l-53 -275h-80l32 165h-2l-83 -165h-63l-17 165h-2l-32 -165h-79zM182 643h-76l13 72h241l-14 -72h-77l-39 -203h-88z" />
    <glyph glyph-name="Omega" unicode="&#x2126;" horiz-adv-x="729" 
d="M6 132h111v3q-37 27 -58 77t-21 108q0 80 27 154t77 130.5t121.5 90.5t161.5 34q62 0 118 -18.5t98 -55t67 -91.5t25 -127q0 -97 -36.5 -176t-111.5 -126v-3h93l-26 -132h-304l24 128q48 6 83 36.5t57 74t32.5 94t10.5 97.5q0 33 -8 61.5t-25 49.5t-44 33t-66 12
q-57 0 -96 -28.5t-63 -72t-34.5 -97t-10.5 -102.5q0 -63 22.5 -103.5t72.5 -54.5l-25 -128h-298z" />
    <glyph glyph-name="estimated" unicode="&#x212e;" horiz-adv-x="636" 
d="M341 -11q-72 0 -128 23.5t-95 66t-59 101t-20 129.5q0 70 22 128.5t61.5 100.5t94 65.5t119.5 23.5q109 0 177 -59q56 -47 76.5 -113.5t19.5 -153.5h-414v-222q26 -20 62 -31t84 -11q90 0 139 39.5t74 109.5h51q-10 -43 -31.5 -79t-54.5 -62.5t-77.5 -41t-100.5 -14.5z
M457 345v205q-23 14 -53.5 23t-67.5 9q-45 0 -80.5 -11.5t-60.5 -31.5v-194h262z" />
    <glyph glyph-name="onethird" unicode="&#x2153;" horiz-adv-x="833" 
d="M161 553h-89l15 80q48 2 81.5 22.5t49.5 63.5h94l-78 -401h-119zM671 715h100l-632 -715h-101zM617 -10q-35 0 -66 9t-54.5 27.5t-36.5 45.5t-12 63h110q0 -28 15 -44.5t45 -16.5q24 0 40 13t16 37q0 44 -57 44h-24l15 74h27q25 0 41.5 10.5t16.5 32.5q0 20 -13.5 29.5
t-32.5 9.5q-26 0 -41 -15t-20 -36h-107q10 58 57 95t119 37q30 0 57 -7t47.5 -20.5t32 -34.5t11.5 -48q-1 -32 -21 -55t-49 -34v-1q23 -11 39 -31.5t16 -51.5q0 -33 -15 -58t-39 -41.5t-54.5 -24.5t-62.5 -8z" />
    <glyph glyph-name="twothirds" unicode="&#x2154;" horiz-adv-x="917" 
d="M37 318q8 54 33 86.5t57 55.5q35 26 68 42.5t62 33.5q20 12 32 24.5t12 35.5q0 18 -11 28t-30 10q-25 0 -42 -18.5t-24 -51.5h-109q6 39 22 69t41 50t56 30t67 10q28 0 54 -7t46 -21.5t32.5 -36.5t12.5 -52q0 -43 -21.5 -71.5t-51.5 -48.5q-34 -24 -71 -40.5t-60 -36.5
h172l-18 -91h-329zM701 -10q-35 0 -66 9t-54.5 27.5t-36.5 45.5t-12 63h110q0 -28 15 -44.5t45 -16.5q24 0 40 13t16 37q0 44 -57 44h-24l15 74h27q25 0 41.5 10.5t16.5 32.5q0 20 -13.5 29.5t-32.5 9.5q-26 0 -41 -15t-20 -36h-107q10 58 57 95t119 37q30 0 57 -7
t47.5 -20.5t32 -34.5t11.5 -48q-1 -32 -21 -55t-49 -34v-1q23 -11 39 -31.5t16 -51.5q0 -33 -15 -58t-39 -41.5t-54.5 -24.5t-62.5 -8zM770 715h100l-632 -715h-101z" />
    <glyph glyph-name="oneeighth" unicode="&#x215b;" horiz-adv-x="838" 
d="M161 553h-89l15 80q48 2 81.5 22.5t49.5 63.5h94l-78 -401h-119zM672 715h100l-632 -715h-101zM615 -10q-32 0 -62 6.5t-54 20t-38.5 35.5t-14.5 53q0 45 26.5 70.5t63.5 37.5v2q-21 12 -31.5 31t-10.5 40q0 32 15 54.5t38.5 37t52 21t55.5 6.5q31 0 59.5 -5.5t50 -18.5
t34.5 -33t12 -49q-1 -35 -20.5 -57.5t-47.5 -34.5v-2q26 -12 41 -34t15 -51q0 -36 -16 -60.5t-42 -40t-59 -22.5t-67 -7zM620 68q26 0 45 15t19 43q0 25 -17.5 37t-40.5 12q-26 0 -45 -14.5t-19 -42.5q0 -26 18.5 -38t39.5 -12zM649 242q23 0 38.5 12t15.5 35t-14.5 34
t-34.5 11q-23 0 -38 -14t-15 -35q0 -22 14 -32.5t34 -10.5z" />
    <glyph glyph-name="threeeighths" unicode="&#x215c;" horiz-adv-x="888" 
d="M221 309q-35 0 -66 9t-54 27t-36 45t-12 63h110q0 -28 14.5 -44.5t44.5 -16.5q24 0 40 13t16 37q0 44 -56 44h-24l15 74h26q25 0 41.5 10.5t16.5 32.5q0 20 -13.5 29.5t-32.5 9.5q-26 0 -41 -15t-20 -36h-107q11 58 58 95t119 37q30 0 57 -7t47 -20.5t32 -34.5t12 -48
q-1 -32 -21 -55t-50 -34v-1q23 -11 39.5 -31.5t16.5 -51.5q0 -33 -15 -58t-39 -41t-55 -24t-63 -8zM737 715h100l-632 -715h-101zM666 -10q-32 0 -62 6.5t-54 20t-38.5 35.5t-14.5 53q0 45 26.5 70.5t63.5 37.5v2q-21 12 -31.5 31t-10.5 40q0 32 15 54.5t38.5 37t52 21
t55.5 6.5q31 0 59.5 -5.5t50 -18.5t34.5 -33t12 -49q-1 -35 -20.5 -57.5t-47.5 -34.5v-2q26 -12 41 -34t15 -51q0 -36 -16 -60.5t-42 -40t-59 -22.5t-67 -7zM671 68q26 0 45 15t19 43q0 25 -17.5 37t-40.5 12q-26 0 -45 -14.5t-19 -42.5q0 -26 18.5 -38t39.5 -12zM700 242
q23 0 38.5 12t15.5 35t-14.5 34t-34.5 11q-23 0 -38 -14t-15 -35q0 -22 14 -32.5t34 -10.5z" />
    <glyph glyph-name="fiveeighths" unicode="&#x215d;" horiz-adv-x="875" 
d="M214 309q-35 0 -64 8.5t-51 25t-35 40t-14 53.5h107q4 -21 19.5 -32t38.5 -11q29 0 45.5 19t16.5 49q0 26 -14 39.5t-36 13.5q-37 0 -56 -25h-95l68 226h260l-17 -86h-177l-20 -67h1q14 11 34 19t47 8q55 0 87 -34t32 -89q0 -39 -14 -68.5t-38.5 -49t-56.5 -29.5t-68 -10
zM720 715h100l-632 -715h-101zM653 -10q-32 0 -62 6.5t-54 20t-38.5 35.5t-14.5 53q0 45 26.5 70.5t63.5 37.5v2q-21 12 -31.5 31t-10.5 40q0 32 15 54.5t38.5 37t52 21t55.5 6.5q31 0 59.5 -5.5t50 -18.5t34.5 -33t12 -49q-1 -35 -20.5 -57.5t-47.5 -34.5v-2q26 -12 41 -34
t15 -51q0 -36 -16 -60.5t-42 -40t-59 -22.5t-67 -7zM658 68q26 0 45 15t19 43q0 25 -17.5 37t-40.5 12q-26 0 -45 -14.5t-19 -42.5q0 -26 18.5 -38t39.5 -12zM687 242q23 0 38.5 12t15.5 35t-14.5 34t-34.5 11q-23 0 -38 -14t-15 -35q0 -22 14 -32.5t34 -10.5z" />
    <glyph glyph-name="seveneighths" unicode="&#x215e;" horiz-adv-x="818" 
d="M650 715h100l-632 -715h-101zM596 -10q-32 0 -62 6.5t-54 20t-38.5 35.5t-14.5 53q0 45 26.5 70.5t63.5 37.5v2q-21 12 -31.5 31t-10.5 40q0 32 15 54.5t38.5 37t52 21t55.5 6.5q31 0 59.5 -5.5t50 -18.5t34.5 -33t12 -49q-1 -35 -20.5 -57.5t-47.5 -34.5v-2
q26 -12 41 -34t15 -51q0 -36 -16 -60.5t-42 -40t-59 -22.5t-67 -7zM601 68q26 0 45 15t19 43q0 25 -17.5 37t-40.5 12q-26 0 -45 -14.5t-19 -42.5q0 -26 18.5 -38t39.5 -12zM630 242q23 0 38.5 12t15.5 35t-14.5 34t-34.5 11q-23 0 -38 -14t-15 -35q0 -22 14 -32.5t34 -10.5
zM93 318q23 100 75.5 176t112.5 126v1h-191l18 94h308l-17 -84q-63 -52 -111.5 -132t-69.5 -181h-125z" />
    <glyph glyph-name="partialdiff" unicode="&#x2202;" horiz-adv-x="580" 
d="M273 -15q-62 0 -108.5 17t-78 47.5t-47.5 73t-16 92.5q0 57 18 104t51 80.5t78.5 52.5t99.5 19q40 0 68.5 -10t47.5 -28q-17 69 -77 104.5t-157 46.5v138q201 -10 304 -113t103 -295q0 -77 -17.5 -137.5t-53 -103.5t-89.5 -65.5t-126 -22.5zM275 101q28 0 49.5 13t35 34
t20.5 48.5t7 56.5q0 53 -23.5 79t-64.5 26q-51 0 -82 -37.5t-31 -105.5q0 -58 24 -86t65 -28z" />
    <glyph glyph-name="Delta" unicode="&#x2206;" horiz-adv-x="666" 
d="M442 132l-49 300q-3 14 -5 34t-4 37q-2 20 -4 41h-1q-8 -21 -17 -40q-8 -17 -16.5 -35t-15.5 -32l-157 -305h269zM-8 110l328 605h178l118 -604l-21 -111h-624z" />
    <glyph glyph-name="product" unicode="&#x220f;" horiz-adv-x="749" 
d="M87 715h613v-815h-174v670h-265v-670h-174v815z" />
    <glyph glyph-name="summation" unicode="&#x2211;" horiz-adv-x="665" 
d="M76 45l252 270v2l-252 258v140h540v-138h-341v-2l223 -221v-70l-230 -240v-2h358v-142h-550v145z" />
    <glyph glyph-name="minus" unicode="&#x2212;" horiz-adv-x="557" 
d="M66 394h478l-25 -129h-479z" />
    <glyph glyph-name="uni2215" unicode="&#x2215;" horiz-adv-x="280" 
d="M425 715h100l-632 -715h-101z" />
    <glyph glyph-name="uni2219" unicode="&#x2219;" horiz-adv-x="231" 
d="M59 402h168l-33 -168h-167z" />
    <glyph glyph-name="radical" unicode="&#x221a;" horiz-adv-x="622" 
d="M100 200h-75v138h187l49 -124q8 -22 15.5 -42t12.5 -36q6 -18 11 -34h2q4 17 8 35q4 16 9.5 36t13.5 42l161 500h162l-269 -815h-157z" />
    <glyph glyph-name="infinity" unicode="&#x221e;" horiz-adv-x="725" 
d="M190 119q-40 0 -70.5 14.5t-51 40t-31 59.5t-10.5 72t10.5 72t31.5 59.5t51.5 40t69.5 14.5q63 0 104 -30.5t76 -78.5q17 24 35 44t38.5 34.5t45.5 22.5t55 8q36 0 66 -13t52 -37.5t34 -59t12 -76.5q0 -43 -12 -77.5t-34 -58.5t-52 -37t-66 -13q-30 0 -55 8t-45.5 22.5
t-38.5 34t-35 43.5q-35 -48 -76 -78t-104 -30zM204 237q27 0 46.5 20.5t35.5 46.5q-16 27 -35.5 47.5t-46.5 20.5q-28 0 -40.5 -19.5t-12.5 -47.5q0 -29 12.5 -48.5t40.5 -19.5zM531 237q28 0 41 19.5t13 48.5q0 28 -13 47.5t-41 19.5q-26 0 -44.5 -20.5t-34.5 -47.5
q16 -26 34.5 -46.5t44.5 -20.5z" />
    <glyph glyph-name="integral" unicode="&#x222b;" horiz-adv-x="365" 
d="M97 -176q-54 0 -95 11v120h2q9 -2 19.5 -3t24.5 -1q30 0 45.5 10t15.5 42v571q0 49 10.5 77t27.5 47q23 23 55.5 33t82.5 10q26 0 50 -2.5t44 -7.5v-121h-2q-18 5 -42 5q-32 0 -47.5 -10t-15.5 -42v-572q0 -48 -10.5 -76.5t-27.5 -46.5q-23 -23 -55.5 -33.5t-81.5 -10.5z
" />
    <glyph glyph-name="approxequal" unicode="&#x2248;" horiz-adv-x="537" 
d="M17 125q9 89 50 129t100 40q25 0 54 -5.5t56 -11.5t51 -11.5t40 -5.5q19 0 27 8t12 25h105q-9 -78 -43.5 -120.5t-101.5 -42.5q-27 0 -56.5 5t-57.5 11t-52 11t-40 5q-31 0 -40 -37h-104zM49 334q11 90 51.5 129t100.5 39q25 0 53.5 -5t56 -11.5t51.5 -11.5t40 -5
q19 0 27 8t11 25h106q-9 -78 -43.5 -120.5t-101.5 -42.5q-27 0 -56.5 5t-57.5 11t-52 11t-40 5q-31 0 -41 -37h-105z" />
    <glyph glyph-name="notequal" unicode="&#x2260;" horiz-adv-x="554" 
d="M90 478h251l51 85h101l-51 -85h109l-24 -125h-160l-52 -87h195l-24 -125h-246l-49 -83h-101l49 83h-115l25 125h165l52 87h-201z" />
    <glyph glyph-name="lessequal" unicode="&#x2264;" horiz-adv-x="494" 
d="M44 271l30 152l431 133l-25 -133l-193 -56q-14 -5 -31.5 -9t-32.5 -8l-36 -8v-2l32 -8q14 -4 29.5 -8.5t29.5 -8.5l170 -55l-25 -130zM14 112h405l-21 -112h-406z" />
    <glyph glyph-name="greaterequal" unicode="&#x2265;" horiz-adv-x="494" 
d="M47 264l192 55q14 4 31.5 8.5t32.5 8.5l36 9v2l-32 8q-14 4 -29.5 7.5t-28.5 8.5l-170 55l25 130l378 -141l-29 -152l-432 -133zM18 112h405l-21 -112h-406z" />
    <glyph glyph-name="uni24C5" unicode="&#x24c5;" horiz-adv-x="810" 
d="M271 559h193q39 0 67 -10.5t48 -28.5q44 -39 44 -105q0 -30 -10.5 -55t-29 -43.5t-44.5 -29t-57 -10.5h-95v-132h-116v414zM454 365q25 0 39 13.5t14 36.5t-14 36.5t-40 13.5h-66v-100h67zM424 35q66 0 122 24.5t97 67t64.5 101t23.5 127.5t-23.5 128t-64.5 101.5t-97 67
t-122 24.5t-122 -24.5t-97 -67t-64.5 -101.5t-23.5 -128t23.5 -127.5t64.5 -101t97 -67t122 -24.5zM424 -17q-77 0 -144.5 28t-117 77.5t-78 118t-28.5 148.5t28.5 148.5t78 118.5t117 78t144.5 28t144.5 -28t117 -78t78 -118.5t28.5 -148.5t-28.5 -148.5t-78 -118
t-117 -77.5t-144.5 -28z" />
    <glyph glyph-name="lozenge" unicode="&#x25ca;" horiz-adv-x="596" 
d="M318 139l113 215l-115 223h-2l-113 -217l115 -221h2zM34 358l201 357h161l202 -358l-201 -357h-161z" />
    <glyph glyph-name="f_i" unicode="&#xf001;" horiz-adv-x="578" 
d="M428 512h160l-99 -512h-160zM467 715h160l-25 -132h-160zM104 408h-65l20 104h65l9 48q17 82 63 118q28 21 63 29.5t74 8.5q43 0 82 -6l-22 -113q-9 1 -16.5 1.5t-15.5 0.5q-29 0 -47.5 -11.5t-24.5 -45.5l-6 -30h94l-21 -104h-93l-79 -408h-159z" />
    <glyph glyph-name="f_l" unicode="&#xf002;" horiz-adv-x="582" 
d="M468 715h163l-138 -715h-163zM104 408h-65l20 104h65l9 48q17 82 63 118q28 21 63 29.5t74 8.5q43 0 82 -6l-22 -113q-9 1 -16.5 1.5t-15.5 0.5q-29 0 -47.5 -11.5t-24.5 -45.5l-6 -30h94l-21 -104h-93l-79 -408h-159z" />
    <glyph glyph-name="uniF8FF" unicode="&#xf8ff;" horiz-adv-x="851" 
d="M516 118v169h168v144h-168v163h-144v-163h-168v-144h168v-169h144zM86 716h716v-716h-716v716z" />
    <glyph glyph-name="dotlessj" horiz-adv-x="237" 
d="M-38 -172q-49 0 -86 10l21 113q19 -1 34.5 -0.5t26.5 5t18 14t10 26.5l101 516h160l-103 -532q-9 -44 -24 -72t-36 -45q-25 -19 -56 -27t-66 -8z" />
    <glyph glyph-name="commaaccent" 
d="M91 -215q29 5 50.5 18t26.5 42h-63l21 108h136l-19 -97q-12 -62 -56 -88.5t-106 -30.5z" />
    <glyph glyph-name="zero.denominator" horiz-adv-x="405" 
d="M178 77q25 0 42.5 18t28 43.5t15 54t4.5 51.5q0 15 -2.5 29t-8.5 25t-16.5 18t-26.5 7q-26 0 -43.5 -18.5t-28 -45.5t-15.5 -56.5t-5 -51.5q0 -29 11.5 -51.5t44.5 -22.5zM175 -9q-37 0 -68 10.5t-53.5 31.5t-35.5 52.5t-13 72.5q0 47 14.5 91.5t42 79t67 55.5t89.5 21
q36 0 66 -11t52.5 -32t35 -52.5t12.5 -72.5q0 -47 -14 -91.5t-40.5 -79t-65.5 -55t-89 -20.5z" />
    <glyph glyph-name="one.denominator" horiz-adv-x="262" 
d="M95 235h-89l16 80q48 2 81 22.5t50 63.5h94l-78 -401h-120z" />
    <glyph glyph-name="two.denominator" horiz-adv-x="369" 
d="M-29 0q9 54 34 86.5t57 55.5q35 26 68 42.5t62 33.5q20 12 32 24.5t12 35.5q0 18 -11 28t-30 10q-25 0 -42 -18.5t-24 -51.5h-109q6 39 22 69t41 50t56 30t67 10q28 0 54 -7t46 -21.5t32.5 -36.5t12.5 -52q0 -43 -21.5 -71.5t-51.5 -48.5q-34 -24 -71 -40.5t-60 -36.5
h172l-18 -91h-330v0z" />
    <glyph glyph-name="three.denominator" horiz-adv-x="371" 
d="M159 -10q-35 0 -66 9t-54.5 27.5t-36.5 45.5t-12 63h110q0 -28 15 -44.5t45 -16.5q24 0 40 13t16 37q0 44 -57 44h-24l15 74h27q25 0 41.5 10.5t16.5 32.5q0 20 -13.5 29.5t-32.5 9.5q-26 0 -41 -15t-20 -36h-107q10 58 57 95t119 37q30 0 57 -7t47.5 -20.5t32 -34.5
t11.5 -48q-1 -32 -21 -55t-49 -34v-1q23 -11 39 -31.5t16 -51.5q0 -33 -15 -58t-39 -41.5t-54.5 -24.5t-62.5 -8z" />
    <glyph glyph-name="four.denominator" horiz-adv-x="390" 
d="M174 84h-189l18 93l230 224h116l-46 -237h58l-16 -80h-58l-16 -84h-113zM89 164h101l24 123h-1l-124 -121v-2z" />
    <glyph glyph-name="five.denominator" horiz-adv-x="365" 
d="M151 -10q-34 0 -63.5 9t-51 25.5t-35 40t-14.5 53.5h107q9 -43 58 -43q29 0 46 19t17 49q0 26 -14.5 39.5t-36.5 13.5q-36 0 -55 -25h-96l69 226h260l-18 -86h-176l-21 -67h2q14 11 33.5 19t47.5 8q54 0 86.5 -34t32.5 -89q0 -39 -14.5 -68.5t-38.5 -49.5t-56.5 -30
t-68.5 -10z" />
    <glyph glyph-name="six.denominator" horiz-adv-x="373" 
d="M165 -9q-37 0 -67 10.5t-51.5 31.5t-33 52t-11.5 71q0 25 4.5 52.5t14 54t25 50.5t36.5 43q26 24 57.5 36.5t74.5 12.5q28 0 53 -6t44 -19.5t31.5 -34.5t15.5 -51h-110q-2 17 -11 25.5t-29 8.5q-30 0 -53.5 -27t-34.5 -71h1q17 19 41.5 29t51.5 10q25 0 47.5 -7.5
t39.5 -22.5t27 -37.5t10 -51.5q0 -36 -13.5 -65.5t-36.5 -50t-54.5 -32t-68.5 -11.5zM166 72q26 0 44.5 18t18.5 49q0 24 -14 39t-40 15t-45 -19t-19 -50q0 -24 15 -38t40 -14z" />
    <glyph glyph-name="seven.denominator" horiz-adv-x="345" 
d="M31 0q23 100 75 176t112 126v1h-190l18 94h307l-16 -84q-63 -52 -112 -132t-69 -181h-125v0z" />
    <glyph glyph-name="eight.denominator" horiz-adv-x="379" 
d="M158 -10q-32 0 -62 6.5t-54 20t-38.5 35.5t-14.5 53q0 45 26.5 70.5t63.5 37.5v2q-21 12 -31.5 31t-10.5 40q0 32 15 54.5t38.5 37t52 21t55.5 6.5q31 0 59.5 -5.5t50 -18.5t34.5 -33t12 -49q-1 -35 -20.5 -57.5t-47.5 -34.5v-2q26 -12 41 -34t15 -51q0 -36 -16 -60.5
t-42 -40t-59 -22.5t-67 -7zM163 68q26 0 45 15t19 43q0 25 -17.5 37t-40.5 12q-26 0 -45 -14.5t-19 -42.5q0 -26 18.5 -38t39.5 -12zM192 242q23 0 38.5 12t15.5 35t-14.5 34t-34.5 11q-23 0 -38 -14t-15 -35q0 -22 14 -32.5t34 -10.5z" />
    <glyph glyph-name="nine.denominator" horiz-adv-x="375" 
d="M139 -10q-29 0 -55 6.5t-46 20.5t-33 35.5t-16 50.5h111q5 -35 45 -35q31 0 54 23.5t33 73.5h-1q-18 -19 -41.5 -29.5t-50.5 -10.5q-26 0 -49 8t-40 23.5t-27 38.5t-10 52q0 35 13.5 64t37 50t55.5 32.5t70 11.5q73 0 117 -40.5t44 -121.5q0 -26 -4 -53t-12.5 -53.5
t-22.5 -51t-33 -43.5q-51 -52 -139 -52zM177 202q26 0 45 19.5t19 50.5q0 24 -14.5 38t-39.5 14q-27 0 -46 -18.5t-19 -48.5q0 -25 14.5 -40t40.5 -15z" />
    <glyph glyph-name="zero.numerator" horiz-adv-x="405" 
d="M237 395q25 0 42.5 18t28 43.5t15 54t4.5 51.5q0 15 -2.5 29t-8.5 25t-16.5 18t-26.5 7q-26 0 -43.5 -18.5t-28 -45.5t-15.5 -56.5t-5 -51.5q0 -29 11.5 -51.5t44.5 -22.5zM234 309q-37 0 -68 10.5t-53.5 31.5t-35.5 52.5t-13 72.5q0 47 14.5 91.5t42 79t67 55.5t89.5 21
q36 0 66 -11t52.5 -32t35 -52.5t12.5 -72.5q0 -47 -14 -91.5t-40.5 -79t-65.5 -55t-89 -20.5z" />
    <glyph glyph-name="one.numerator" horiz-adv-x="262" 
d="M157 553h-89l15 80q48 2 81.5 22.5t49.5 63.5h94l-78 -401h-119z" />
    <glyph glyph-name="two.numerator" horiz-adv-x="369" 
d="M31 318q8 54 33 86.5t57 55.5q35 26 68 42.5t62 33.5q20 12 32 24.5t12 35.5q0 18 -11 28t-30 10q-25 0 -42 -18.5t-24 -51.5h-109q6 39 22 69t41 50t56 30t67 10q28 0 54 -7t46 -21.5t32.5 -36.5t12.5 -52q0 -43 -21.5 -71.5t-51.5 -48.5q-34 -24 -71 -40.5t-60 -36.5
h172l-18 -91h-329v0z" />
    <glyph glyph-name="three.numerator" horiz-adv-x="371" 
d="M218 309q-35 0 -66 9t-54 27t-36 45t-12 63h110q0 -28 14.5 -44.5t44.5 -16.5q24 0 40 13t16 37q0 44 -56 44h-24l15 74h26q25 0 41.5 10.5t16.5 32.5q0 20 -13.5 29.5t-32.5 9.5q-26 0 -41 -15t-20 -36h-107q11 58 58 95t119 37q30 0 57 -7t47 -20.5t32 -34.5t12 -48
q-1 -32 -21 -55t-50 -34v-1q23 -11 39.5 -31.5t16.5 -51.5q0 -33 -15 -58t-39 -41t-55 -24t-63 -8z" />
    <glyph glyph-name="four.numerator" horiz-adv-x="390" 
d="M234 402h-189l18 93l230 224h115l-46 -237h58l-16 -80h-58l-16 -84h-112zM149 482h101l24 123h-2l-123 -121v-2z" />
    <glyph glyph-name="five.numerator" horiz-adv-x="365" 
d="M211 309q-35 0 -64 8.5t-51 25t-35 40t-14 53.5h107q4 -21 19.5 -32t38.5 -11q29 0 45.5 19t16.5 49q0 26 -14 39.5t-36 13.5q-37 0 -56 -25h-95l68 226h260l-17 -86h-177l-20 -67h1q14 11 34 19t47 8q55 0 87 -34t32 -89q0 -39 -14 -68.5t-38.5 -49t-56.5 -29.5t-68 -10
z" />
    <glyph glyph-name="six.numerator" horiz-adv-x="373" 
d="M224 309q-74 0 -118.5 42t-44.5 123q0 25 4.5 52.5t14.5 54t25 50.5t36 43q27 24 58 36.5t75 12.5q28 0 52.5 -6t43.5 -19.5t31.5 -34.5t15.5 -51h-109q-2 17 -11 25.5t-29 8.5q-30 0 -53.5 -27t-34.5 -71h1q36 39 92 39q25 0 47.5 -7.5t39.5 -22.5t27.5 -37.5
t10.5 -51.5q0 -36 -13.5 -65.5t-36.5 -50t-55 -32t-69 -11.5zM225 390q26 0 45 18t19 49q0 24 -14.5 39t-40.5 15t-44.5 -19t-18.5 -50q0 -24 14.5 -38t39.5 -14z" />
    <glyph glyph-name="seven.numerator" horiz-adv-x="345" 
d="M90 318q23 100 75.5 176t112.5 126v1h-191l18 94h308l-17 -84q-63 -52 -111.5 -132t-69.5 -181h-125v0z" />
    <glyph glyph-name="eight.numerator" horiz-adv-x="379" 
d="M218 309q-32 0 -62.5 6t-54 19.5t-38 35.5t-14.5 53q0 45 26.5 70.5t62.5 37.5v2q-20 12 -30.5 31t-10.5 40q0 32 15 54.5t38.5 37t52 21t55.5 6.5q31 0 59 -5.5t50 -18.5t34.5 -33t12.5 -49q-1 -35 -21 -57.5t-48 -34.5v-2q56 -25 56 -85q0 -36 -16 -60.5t-42 -39.5
t-59 -22t-66 -7zM222 386q27 0 45.5 15t18.5 43q0 25 -17.5 37t-39.5 12q-26 0 -45.5 -14.5t-19.5 -42.5q0 -26 18.5 -38t39.5 -12zM251 560q23 0 39 12t16 35t-15 34t-34 11q-23 0 -38 -14t-15 -35q0 -22 13.5 -32.5t33.5 -10.5z" />
    <glyph glyph-name="nine.numerator" horiz-adv-x="375" 
d="M199 309q-29 0 -55 6.5t-46 20t-33 35t-16 50.5h110q6 -35 46 -35q31 0 54 23.5t32 73.5h-1q-18 -19 -41.5 -29.5t-49.5 -10.5t-49 8t-40.5 23.5t-27.5 38.5t-10 52q0 35 13.5 64t37 50t55.5 32.5t70 11.5q73 0 117.5 -40.5t44.5 -121.5q0 -26 -4 -53t-12.5 -53.5
t-22.5 -51t-33 -43.5q-51 -51 -139 -51zM237 520q26 0 44.5 19.5t18.5 50.5q0 24 -14 38t-40 14t-45 -18.5t-19 -48.5q-1 -25 14 -40t41 -15z" />
    <glyph glyph-name="acute.cap" 
d="M326 880h181l-121 -130h-122z" />
    <glyph glyph-name="breve.cap" 
d="M379 744q-72 0 -112.5 39t-39.5 106h90q2 -21 17 -34t47 -13q30 0 49 14t24 33h91q-11 -68 -55.5 -106.5t-110.5 -38.5z" />
    <glyph glyph-name="caron.alt" 
d="M242 571q29 2 45 12t20 31h-56l19 101h123l-16 -87q-11 -53 -46 -77.5t-98 -26.5z" />
    <glyph glyph-name="caron.cap" 
d="M184 875h131l36 -55h2l53 55h142l-125 -125h-155z" />
    <glyph glyph-name="circumflex.cap" 
d="M285 875h154l84 -125h-131l-36 55h-2l-52 -55h-142z" />
    <glyph glyph-name="commaaccent.alt" 
d="M91 -215q29 5 50.5 18t26.5 42h-63l21 108h136l-19 -97q-12 -62 -56 -88.5t-106 -30.5z" />
    <glyph glyph-name="dieresis.cap" 
d="M185 881h151l-25 -128h-151zM397 881h151l-25 -128h-151z" />
    <glyph glyph-name="dotaccent.cap" 
d="M288 883h160l-26 -130h-160z" />
    <glyph glyph-name="grave.cap" 
d="M215 880h175l29 -130h-121z" />
    <glyph glyph-name="hungarumlaut.cap" 
d="M248 890h155l-113 -140h-100zM440 890h155l-113 -140h-100z" />
    <glyph glyph-name="macron.cap" 
d="M225 862h282l-20 -100h-282z" />
    <glyph glyph-name="ring.cap" 
d="M359 794q19 0 30.5 13t11.5 30t-11.5 30t-30.5 13q-18 0 -29.5 -13t-11.5 -30t11.5 -30t29.5 -13zM359 739q-21 0 -39.5 7.5t-32.5 20.5t-22 31t-8 39t8 38.5t22 31t32.5 21t39.5 7.5t39.5 -7.5t32.5 -21t22 -31t8 -38.5t-8 -39t-22 -31t-32.5 -20.5t-39.5 -7.5z" />
    <glyph glyph-name="tilde.cap" 
d="M412 752q-21 0 -37.5 5.5t-30.5 12t-26 12t-23 5.5q-12 0 -21.5 -9.5t-13.5 -26.5h-83q11 68 44.5 101.5t75.5 33.5q20 0 36 -6t29.5 -12.5t25 -12.5t22.5 -6q16 0 23.5 9.5t12.5 25.5h83q-10 -59 -39.5 -95.5t-77.5 -36.5z" />
    <glyph glyph-name="R.alt" horiz-adv-x="662" 
d="M331 254h-107l-49 -254h-177l138 715h282q69 0 116.5 -16t78.5 -48q26 -26 40.5 -62.5t14.5 -81.5q0 -44 -12.5 -81t-35 -66t-53.5 -50.5t-68 -34.5l111 -275h-185zM378 391q23 0 43.5 5t36 17t24.5 31t9 47q0 36 -22.5 56t-64.5 20h-119l-34 -176h127z" />
    <glyph glyph-name="Racute.alt" horiz-adv-x="662" 
d="M331 254h-107l-49 -254h-177l138 715h282q69 0 116.5 -16t78.5 -48q26 -26 40.5 -62.5t14.5 -81.5q0 -44 -12.5 -81t-35 -66t-53.5 -50.5t-68 -34.5l111 -275h-185zM378 391q23 0 43.5 5t36 17t24.5 31t9 47q0 36 -22.5 56t-64.5 20h-119l-34 -176h127zM396 880h181
l-121 -130h-122z" />
    <glyph glyph-name="Rcaron.alt" horiz-adv-x="662" 
d="M331 254h-107l-49 -254h-177l138 715h282q69 0 116.5 -16t78.5 -48q26 -26 40.5 -62.5t14.5 -81.5q0 -44 -12.5 -81t-35 -66t-53.5 -50.5t-68 -34.5l111 -275h-185zM378 391q23 0 43.5 5t36 17t24.5 31t9 47q0 36 -22.5 56t-64.5 20h-119l-34 -176h127zM231 875h131
l36 -55h2l53 55h142l-125 -125h-155z" />
    <glyph glyph-name="Rcommaaccent.alt" horiz-adv-x="662" 
d="M331 254h-107l-49 -254h-177l138 715h282q69 0 116.5 -16t78.5 -48q26 -26 40.5 -62.5t14.5 -81.5q0 -44 -12.5 -81t-35 -66t-53.5 -50.5t-68 -34.5l111 -275h-185zM378 391q23 0 43.5 5t36 17t24.5 31t9 47q0 36 -22.5 56t-64.5 20h-119l-34 -176h127zM189 -215
q29 5 50.5 18t26.5 42h-63l21 108h136l-19 -97q-12 -62 -56 -88.5t-106 -30.5z" />
    <glyph glyph-name="Tcommaaccent" horiz-adv-x="608" 
d="M141 -215q29 5 50.5 18t26.5 42h-63l21 108h136l-19 -97q-12 -62 -56 -88.5t-106 -30.5zM276 567h-201l28 148h578l-28 -148h-203l-110 -567h-174z" />
    <glyph glyph-name="idotaccent" horiz-adv-x="237" 
d="M87 512h160l-99 -512h-160zM126 715h160l-25 -132h-160z" />
    <glyph glyph-name="space_uni0326" 
d="M85 -215q29 5 50.5 18t26.5 42h-63l21 108h136l-19 -97q-12 -62 -56 -88.5t-106 -30.5z" />
    <glyph glyph-name="space_uni0326.alt" 
d="M261 684q6 31 20 52.5t35 35.5t48 21.5t59 9.5l-10 -48q-30 -5 -51 -18t-26 -42h62l-21 -108h-135z" />
    <glyph glyph-name="a.alt" horiz-adv-x="531" 
d="M155 -13q-34 0 -63.5 9.5t-51 28.5t-34 46.5t-12.5 63.5q0 47 16.5 78t46.5 50.5t71.5 29t91.5 12.5q35 3 60 6t41.5 9.5t24.5 17.5t8 30q0 22 -16 35.5t-48 13.5q-75 0 -91 -67h-149q14 80 75 128t173 48q47 0 88.5 -10t70.5 -35q29 -24 43 -64t2 -101l-37 -187
q-6 -35 28 -29h3l-18 -95q-9 -5 -27 -9.5t-41 -4.5q-52 0 -73 18t-29 51h-1q-26 -35 -65 -54t-87 -19zM215 91q42 0 70 22.5t37 64.5l12 63q-17 -8 -37.5 -13t-49.5 -10q-15 -3 -32.5 -5.5t-32 -9.5t-24 -19.5t-9.5 -34.5q0 -30 18.5 -44t47.5 -14z" />
    <glyph glyph-name="agrave.alt" horiz-adv-x="531" 
d="M155 -13q-34 0 -63.5 9.5t-51 28.5t-34 46.5t-12.5 63.5q0 47 16.5 78t46.5 50.5t71.5 29t91.5 12.5q35 3 60 6t41.5 9.5t24.5 17.5t8 30q0 22 -16 35.5t-48 13.5q-75 0 -91 -67h-149q14 80 75 128t173 48q47 0 88.5 -10t70.5 -35q29 -24 43 -64t2 -101l-37 -187
q-6 -35 28 -29h3l-18 -95q-9 -5 -27 -9.5t-41 -4.5q-52 0 -73 18t-29 51h-1q-26 -35 -65 -54t-87 -19zM215 91q42 0 70 22.5t37 64.5l12 63q-17 -8 -37.5 -13t-49.5 -10q-15 -3 -32.5 -5.5t-32 -9.5t-24 -19.5t-9.5 -34.5q0 -30 18.5 -44t47.5 -14zM167 720h175l43 -148
h-121z" />
    <glyph glyph-name="aacute.alt" horiz-adv-x="531" 
d="M326 720h185l-138 -148h-123zM155 -13q-34 0 -63.5 9.5t-51 28.5t-34 46.5t-12.5 63.5q0 47 16.5 78t46.5 50.5t71.5 29t91.5 12.5q35 3 60 6t41.5 9.5t24.5 17.5t8 30q0 22 -16 35.5t-48 13.5q-75 0 -91 -67h-149q14 80 75 128t173 48q47 0 88.5 -10t70.5 -35
q29 -24 43 -64t2 -101l-37 -187q-6 -35 28 -29h3l-18 -95q-9 -5 -27 -9.5t-41 -4.5q-52 0 -73 18t-29 51h-1q-26 -35 -65 -54t-87 -19zM215 91q42 0 70 22.5t37 64.5l12 63q-17 -8 -37.5 -13t-49.5 -10q-15 -3 -32.5 -5.5t-32 -9.5t-24 -19.5t-9.5 -34.5q0 -30 18.5 -44
t47.5 -14z" />
    <glyph glyph-name="acircumflex.alt" horiz-adv-x="531" 
d="M257 711h154l83 -137h-132l-34 66h-2l-55 -66h-141zM155 -13q-34 0 -63.5 9.5t-51 28.5t-34 46.5t-12.5 63.5q0 47 16.5 78t46.5 50.5t71.5 29t91.5 12.5q35 3 60 6t41.5 9.5t24.5 17.5t8 30q0 22 -16 35.5t-48 13.5q-75 0 -91 -67h-149q14 80 75 128t173 48
q47 0 88.5 -10t70.5 -35q29 -24 43 -64t2 -101l-37 -187q-6 -35 28 -29h3l-18 -95q-9 -5 -27 -9.5t-41 -4.5q-52 0 -73 18t-29 51h-1q-26 -35 -65 -54t-87 -19zM215 91q42 0 70 22.5t37 64.5l12 63q-17 -8 -37.5 -13t-49.5 -10q-15 -3 -32.5 -5.5t-32 -9.5t-24 -19.5
t-9.5 -34.5q0 -30 18.5 -44t47.5 -14z" />
    <glyph glyph-name="atilde.alt" horiz-adv-x="531" 
d="M155 -13q-34 0 -63.5 9.5t-51 28.5t-34 46.5t-12.5 63.5q0 47 16.5 78t46.5 50.5t71.5 29t91.5 12.5q35 3 60 6t41.5 9.5t24.5 17.5t8 30q0 22 -16 35.5t-48 13.5q-75 0 -91 -67h-149q14 80 75 128t173 48q47 0 88.5 -10t70.5 -35q29 -24 43 -64t2 -101l-37 -187
q-6 -35 28 -29h3l-18 -95q-9 -5 -27 -9.5t-41 -4.5q-52 0 -73 18t-29 51h-1q-26 -35 -65 -54t-87 -19zM215 91q42 0 70 22.5t37 64.5l12 63q-17 -8 -37.5 -13t-49.5 -10q-15 -3 -32.5 -5.5t-32 -9.5t-24 -19.5t-9.5 -34.5q0 -30 18.5 -44t47.5 -14zM376 572q-21 0 -36.5 5.5
t-28.5 12l-24 12t-22 5.5q-12 0 -21.5 -9.5t-13.5 -26.5h-83q11 68 44.5 101.5t75.5 33.5q20 0 35 -6t28 -12.5t23.5 -12.5t21.5 -6q16 0 23.5 9.5t12.5 25.5h82q-10 -59 -39 -95.5t-78 -36.5z" />
    <glyph glyph-name="adieresis.alt" horiz-adv-x="531" 
d="M159 705h150l-25 -128h-150zM380 705h150l-25 -128h-150zM155 -13q-34 0 -63.5 9.5t-51 28.5t-34 46.5t-12.5 63.5q0 47 16.5 78t46.5 50.5t71.5 29t91.5 12.5q35 3 60 6t41.5 9.5t24.5 17.5t8 30q0 22 -16 35.5t-48 13.5q-75 0 -91 -67h-149q14 80 75 128t173 48
q47 0 88.5 -10t70.5 -35q29 -24 43 -64t2 -101l-37 -187q-6 -35 28 -29h3l-18 -95q-9 -5 -27 -9.5t-41 -4.5q-52 0 -73 18t-29 51h-1q-26 -35 -65 -54t-87 -19zM215 91q42 0 70 22.5t37 64.5l12 63q-17 -8 -37.5 -13t-49.5 -10q-15 -3 -32.5 -5.5t-32 -9.5t-24 -19.5
t-9.5 -34.5q0 -30 18.5 -44t47.5 -14z" />
    <glyph glyph-name="amacron.alt" horiz-adv-x="531" 
d="M155 -13q-34 0 -63.5 9.5t-51 28.5t-34 46.5t-12.5 63.5q0 47 16.5 78t46.5 50.5t71.5 29t91.5 12.5q35 3 60 6t41.5 9.5t24.5 17.5t8 30q0 22 -16 35.5t-48 13.5q-75 0 -91 -67h-149q14 80 75 128t173 48q47 0 88.5 -10t70.5 -35q29 -24 43 -64t2 -101l-37 -187
q-6 -35 28 -29h3l-18 -95q-9 -5 -27 -9.5t-41 -4.5q-52 0 -73 18t-29 51h-1q-26 -35 -65 -54t-87 -19zM215 91q42 0 70 22.5t37 64.5l12 63q-17 -8 -37.5 -13t-49.5 -10q-15 -3 -32.5 -5.5t-32 -9.5t-24 -19.5t-9.5 -34.5q0 -30 18.5 -44t47.5 -14zM192 687h282l-20 -100
h-282z" />
    <glyph glyph-name="abreve.alt" horiz-adv-x="531" 
d="M155 -13q-34 0 -63.5 9.5t-51 28.5t-34 46.5t-12.5 63.5q0 47 16.5 78t46.5 50.5t71.5 29t91.5 12.5q35 3 60 6t41.5 9.5t24.5 17.5t8 30q0 22 -16 35.5t-48 13.5q-75 0 -91 -67h-149q14 80 75 128t173 48q47 0 88.5 -10t70.5 -35q29 -24 43 -64t2 -101l-37 -187
q-6 -35 28 -29h3l-18 -95q-9 -5 -27 -9.5t-41 -4.5q-52 0 -73 18t-29 51h-1q-26 -35 -65 -54t-87 -19zM215 91q42 0 70 22.5t37 64.5l12 63q-17 -8 -37.5 -13t-49.5 -10q-15 -3 -32.5 -5.5t-32 -9.5t-24 -19.5t-9.5 -34.5q0 -30 18.5 -44t47.5 -14zM322 566q-71 0 -112.5 39
t-39.5 106h90q2 -21 17 -34t47 -13q30 0 49 14t24 33h90q-10 -68 -54.5 -106.5t-110.5 -38.5z" />
    <glyph glyph-name="aring.alt" horiz-adv-x="531" 
d="M324 614q18 0 29.5 12.5t11.5 29.5t-11.5 30t-29.5 13q-19 0 -30.5 -13t-11.5 -30t11.5 -29.5t30.5 -12.5zM324 558q-21 0 -39.5 7.5t-32.5 21t-22 31t-8 38.5t8 39t22 31.5t32.5 21t39.5 7.5t39.5 -7.5t32.5 -21t22 -31.5t8 -39t-8 -38.5t-22 -31t-32.5 -21t-39.5 -7.5z
M155 -13q-34 0 -63.5 9.5t-51 28.5t-34 46.5t-12.5 63.5q0 47 16.5 78t46.5 50.5t71.5 29t91.5 12.5q35 3 60 6t41.5 9.5t24.5 17.5t8 30q0 22 -16 35.5t-48 13.5q-75 0 -91 -67h-149q14 80 75 128t173 48q47 0 88.5 -10t70.5 -35q29 -24 43 -64t2 -101l-37 -187
q-6 -35 28 -29h3l-18 -95q-9 -5 -27 -9.5t-41 -4.5q-52 0 -73 18t-29 51h-1q-26 -35 -65 -54t-87 -19zM215 91q42 0 70 22.5t37 64.5l12 63q-17 -8 -37.5 -13t-49.5 -10q-15 -3 -32.5 -5.5t-32 -9.5t-24 -19.5t-9.5 -34.5q0 -30 18.5 -44t47.5 -14z" />
    <glyph glyph-name="aogonek.alt" horiz-adv-x="531" 
d="M387 -177q-53 0 -83 21t-30 59q0 18 7 32.5t19 26t27 20.5t31 16q-23 8 -34 23.5t-16 38.5h-1q-26 -35 -65 -54t-87 -19q-34 0 -63.5 9.5t-51 28.5t-34 46.5t-12.5 63.5q0 47 16.5 78t46.5 50.5t71.5 29t91.5 12.5q35 3 60 6t41.5 9.5t24.5 17.5t8 30q0 22 -16 35.5
t-48 13.5q-75 0 -91 -67h-149q14 80 75 128t173 48q47 0 88.5 -10t71.5 -35q29 -24 42.5 -64t1.5 -101l-37 -187q-6 -35 28 -29h3l-18 -95q-13 -6 -27 -13.5t-25.5 -17t-19 -20t-7.5 -20.5q0 -23 27 -23q9 0 17 1.5t13 3.5h3l-17 -84q-9 -4 -23 -6.5t-32 -2.5zM215 91
q42 0 70 22.5t37 64.5l12 63q-17 -8 -37.5 -13t-49.5 -10q-15 -3 -32.5 -5.5t-32 -9.5t-24 -19.5t-9.5 -34.5q0 -30 18.5 -44t47.5 -14z" />
    <glyph glyph-name="Ccedilla.alt" horiz-adv-x="690" 
d="M231 -132q32 2 50 11t23 30h-63l17 84q-106 23 -166 101t-60 201q0 84 26.5 162.5t76.5 138.5t121 96.5t161 36.5q123 0 195 -57q43 -33 65.5 -84t26.5 -119h-174q-3 54 -32 84t-88 30q-53 0 -90.5 -25.5t-62 -66.5t-36 -91.5t-11.5 -100.5q0 -34 7.5 -65t24 -54.5
t43.5 -37.5t66 -14q57 0 96 31t55 89h175q-29 -130 -119 -199q-73 -54 -170 -63l-13 -65q-10 -48 -47 -69t-104 -21z" />
    <glyph glyph-name="Scedilla.alt" horiz-adv-x="627" 
d="M198 -132q32 2 50 11t22 30h-63l16 80q-47 7 -89 23.5t-73 45t-48.5 69.5t-15.5 98h175q-1 -28 9 -47.5t28 -32t42.5 -18t54.5 -5.5q22 0 43 4t37 13t25.5 23.5t9.5 36.5q0 31 -34 50.5t-107 45.5q-48 17 -86.5 35t-66 42t-42 55t-14.5 75q0 55 20.5 97.5t57 71t86.5 43
t110 14.5q52 0 102.5 -11t89.5 -36.5t62.5 -68t20.5 -104.5h-170q1 42 -28 64.5t-83 22.5q-17 0 -34.5 -3.5t-32 -11.5t-24 -21t-9.5 -32q0 -16 8 -27t26 -20.5t47 -19.5t72 -25q45 -16 83 -34t65.5 -43t43 -57.5t15.5 -76.5q0 -54 -19 -95.5t-52 -71.5t-77.5 -47.5
t-95.5 -23.5l-14 -65q-10 -48 -47 -69t-103 -21z" />
    <glyph glyph-name="ccedilla.alt" horiz-adv-x="532" 
d="M145 -132q62 3 69 41h-59l17 85q-69 18 -114 71t-45 146q0 63 20.5 120t58 100.5t91.5 69t121 25.5q46 0 86 -11t70 -35t48 -61t20 -89h-154q-3 34 -19.5 55.5t-54.5 21.5q-33 0 -57 -19t-39.5 -48.5t-23 -64.5t-7.5 -67q0 -43 19.5 -73t67.5 -30q35 0 61.5 21.5
t38.5 67.5h153q-17 -90 -75 -143t-140 -64l-13 -63q-10 -49 -46.5 -71t-100.5 -22z" />
    <glyph glyph-name="scedilla.alt" horiz-adv-x="493" 
d="M125 -132q61 3 69 41h-60l16 83q-33 7 -61 21t-49.5 35.5t-34.5 50.5t-15 67h152q2 -32 22.5 -53.5t67.5 -21.5q32 0 51.5 11.5t19.5 37.5q0 27 -31.5 38.5t-82.5 26.5q-32 9 -60 21t-48.5 29.5t-32 42t-11.5 58.5q0 42 16.5 73.5t46 53.5t70 33t88.5 11q42 0 80.5 -9.5
t68 -29t48 -51t21.5 -74.5h-147q-3 27 -22.5 43.5t-54.5 16.5q-25 0 -46 -10t-21 -33t28.5 -34t82.5 -26q30 -9 58.5 -20.5t50.5 -29t35.5 -43t13.5 -61.5q0 -79 -47 -124t-130 -55l-13 -63q-10 -49 -46 -71t-100 -22z" />
    <glyph glyph-name="hyphen.cap" horiz-adv-x="337" 
d="M50 397h290l-30 -151h-290z" />
    <glyph glyph-name="endash.cap" horiz-adv-x="500" 
d="M68 394h416l-27 -137h-416z" />
    <glyph glyph-name="emdash.cap" horiz-adv-x="1000" 
d="M125 394h802l-27 -137h-802z" />
    <glyph glyph-name="questiondown.cap" horiz-adv-x="538" 
d="M397 481q-8 -39 -17 -65.5t-21.5 -45.5t-28 -33t-35.5 -27q-19 -13 -40.5 -24.5t-40 -25t-31 -30.5t-12.5 -41q0 -34 21.5 -51t56.5 -17q42 0 73 25t40 79h161q-20 -117 -96.5 -177.5t-190.5 -60.5q-43 0 -85 10t-75 32t-53.5 57.5t-20.5 86.5q0 65 31.5 110t91.5 78
q37 20 59.5 32t36.5 24t21 27t11 37h144zM423 547h-168l33 168h168z" />
    <glyph glyph-name="exclamdown.cap" horiz-adv-x="260" 
d="M194 166l-32 -166h-166l34 177l103 304h82zM268 547h-168l33 168h168z" />
    <glyph glyph-name="parenleft.cap" horiz-adv-x="335" 
d="M117 -95q-26 58 -44 129.5t-18 161.5q0 88 17 169.5t47 155t71.5 138t90.5 118.5h142q-48 -62 -87.5 -131.5t-67.5 -144t-43.5 -154.5t-15.5 -163q0 -91 11.5 -157.5t28.5 -121.5h-132v0z" />
    <glyph glyph-name="parenright.cap" horiz-adv-x="335" 
d="M-57 -95q48 62 87.5 131.5t67.5 144t43.5 154.5t15.5 163q0 91 -11.5 157t-28.5 122h132q26 -58 44 -129.5t18 -161.5q0 -88 -17 -169.5t-47 -155t-71.5 -138t-90.5 -118.5h-142v0z" />
    <glyph glyph-name="bracketleft.cap" horiz-adv-x="389" 
d="M157 777h302l-24 -124h-151l-121 -625h151l-24 -123h-302z" />
    <glyph glyph-name="bracketright.cap" horiz-adv-x="389" 
d="M-15 28h151l121 625h-151l25 124h302l-169 -872h-303z" />
    <glyph glyph-name="braceleft.cap" horiz-adv-x="389" 
d="M276 -95q-58 0 -100.5 11t-68 35t-33.5 63t3 96l20 102q7 36 -6.5 55.5t-60.5 23.5l23 118q49 1 69 16.5t27 52.5l23 119q10 54 28.5 89t45.5 55t63 28t81 8h69l-25 -126h-31q-39 0 -57 -15t-26 -57l-27 -140q-9 -48 -30 -68t-55 -32v-3q29 -15 41 -39t2 -73l-25 -125
q-8 -42 10 -55.5t59 -13.5h18l-24 -125h-13v0z" />
    <glyph glyph-name="braceright.cap" horiz-adv-x="389" 
d="M-15 30h32q39 0 57 15t26 57l27 143q10 48 30.5 68t55.5 32v3q-29 15 -41.5 39t-2.5 73l25 122q8 42 -10 55.5t-59 13.5h-19l25 126h13q58 0 100.5 -11t68 -35t33.5 -63t-3 -96l-20 -100q-7 -36 6.5 -55.5t60.5 -23.5l-23 -118q-48 -1 -68.5 -16.5t-27.5 -52.5l-23 -121
q-10 -53 -28 -88t-45 -55.5t-63.5 -28.5t-81.5 -8h-69z" />
    <glyph glyph-name="guillemotleft.cap" horiz-adv-x="433" 
d="M40 241l30 156l176 127l-29 -146l-93 -68v-2l67 -67l-26 -137zM230 241l30 156l174 127l-28 -146l-91 -68v-2l64 -67l-26 -137z" />
    <glyph glyph-name="guillemotright.cap" horiz-adv-x="433" 
d="M48 250l91 68v2l-64 67l26 137l123 -137l-30 -156l-174 -127zM237 250l93 68v2l-67 67l26 137l125 -137l-30 -156l-176 -127z" />
    <glyph glyph-name="guilsinglleft.cap" horiz-adv-x="261" 
d="M39 241l30 154l195 137l-30 -154l-98 -69v-2l72 -68l-28 -143z" />
    <glyph glyph-name="guilsinglright.cap" horiz-adv-x="261" 
d="M48 250l98 69v2l-71 68l28 143l140 -145l-30 -154l-194 -137z" />
    <glyph glyph-name="registered.alt" horiz-adv-x="810" 
d="M259 559h199q31 0 58.5 -7.5t48.5 -22t33 -37t12 -52.5q0 -70 -68 -98v-2q26 -9 39.5 -26.5t18.5 -46.5q3 -19 4.5 -36.5t3 -32t3.5 -24t8 -12.5v-8h-114q-4 3 -6 12t-3 22t-2.5 28.5t-4.5 30.5q-5 27 -18 39t-42 12h-57v-144h-113v405zM438 381q58 0 58 45
q0 21 -13.5 33t-42.5 12h-68v-90h66zM424 35q66 0 122 24.5t97 67t64.5 101t23.5 127.5t-23.5 128t-64.5 101.5t-97 67t-122 24.5t-122 -24.5t-97 -67t-64.5 -101.5t-23.5 -128t23.5 -127.5t64.5 -101t97 -67t122 -24.5zM424 -17q-77 0 -144.5 28t-117 77.5t-78 118
t-28.5 148.5t28.5 148.5t78 118.5t117 78t144.5 28t144.5 -28t117 -78t78 -118.5t28.5 -148.5t-28.5 -148.5t-78 -118t-117 -77.5t-144.5 -28z" />
    <glyph glyph-name="dollar.cap" horiz-adv-x="623" 
d="M229 -8q-50 7 -92 24t-73 46t-47.5 70t-14.5 95h169q0 -87 84 -102l32 169q-51 20 -89.5 40.5t-64 45.5t-38.5 55.5t-13 71.5q0 54 21 95.5t58.5 69t88.5 42t111 14.5h10l13 65h62l-14 -71q42 -6 78.5 -21.5t64 -41t43 -62.5t15.5 -88h-160q-1 33 -18 53.5t-48 29.5
l-30 -154q109 -41 161 -90.5t52 -128.5q0 -59 -23 -103t-62.5 -72.5t-92 -42.5t-112.5 -14h-11l-18 -95h-61zM420 197q0 24 -16 40t-60 35l-29 -151q21 1 40 6t33.5 14.5t23 23t8.5 32.5zM247 532q-1 -23 15 -39.5t57 -32.5l27 139q-19 -1 -37 -4.5t-31.5 -11.5t-22 -20.5
t-8.5 -30.5z" />
    <glyph glyph-name="Euro.cap" horiz-adv-x="673" 
d="M53 449h46q20 66 54 118t78.5 88t96 55t105.5 19q127 0 190 -65.5t64 -189.5h-168q0 22 -4 43.5t-14.5 38t-28.5 26.5t-47 10q-46 0 -86 -36t-63 -107h165l-14 -66h-168q-2 -14 -4 -29.5t-3 -31.5h164l-13 -66h-153q1 -29 6.5 -53.5t18.5 -42.5t33 -28t50 -10
q51 0 84 35.5t49 96.5h168q-26 -131 -106 -200.5t-201 -69.5q-61 0 -111 17.5t-86 51.5t-56.5 85t-23.5 118h-59l13 66h47q2 16 3.5 31t4.5 30h-44z" />
    <glyph glyph-name="sterling.cap" horiz-adv-x="607" 
d="M53 397h46q-8 24 -14.5 49t-6.5 53q0 57 22.5 100t60.5 72t87.5 44t104.5 15q60 0 109.5 -14t84.5 -45q36 -32 53.5 -80t12.5 -122h-167q4 61 -19 93t-75 32q-43 0 -69.5 -26.5t-26.5 -77.5q0 -23 5 -46t11 -47h146l-18 -93h-113v-3q0 -24 -7.5 -45t-20.5 -39t-30 -34
t-36 -29l2 -3q15 5 29.5 9t35.5 4q23 0 42.5 -4t37.5 -9t36 -9t38 -4q27 0 51.5 11.5t42.5 25.5l58 -132q-31 -25 -72 -42t-86 -17q-36 0 -65.5 8t-56 17.5t-52 17.5t-53.5 8q-32 0 -59.5 -12.5t-56.5 -30.5l-65 125q23 12 45 29.5t39.5 39.5t28 48t10.5 55q0 10 -1 15h-88z
" />
    <glyph glyph-name="yen.cap" horiz-adv-x="658" 
d="M215 134h-170l13 66h170l11 60h-170l13 67h148l-144 387h188l54 -175q5 -20 10.5 -38.5t9.5 -34.5q4 -18 8 -35h2q8 15 19 33q8 14 19.5 32.5t23.5 35.5l128 182h190l-293 -387h148l-14 -67h-173l-11 -60h173l-14 -66h-172l-25 -134h-167z" />
    <glyph glyph-name="zero.cap" horiz-adv-x="670" 
d="M320 122q50 0 83.5 33.5t53.5 82.5t28.5 104.5t8.5 99.5q0 28 -4.5 55t-16.5 48.5t-32.5 34.5t-53.5 13q-34 0 -60 -16t-45.5 -42.5t-33 -61t-22 -70.5t-12 -71t-3.5 -63q0 -29 5 -55.5t17 -46.5t33 -32.5t54 -12.5zM316 -16q-65 0 -117 21t-88 60t-55.5 94.5
t-19.5 124.5q0 80 22.5 159.5t67.5 143.5t112 103.5t156 39.5q63 0 114 -20.5t87 -59.5t55.5 -94.5t19.5 -125.5q0 -80 -22 -159.5t-66 -143.5t-110.5 -103.5t-155.5 -39.5z" />
    <glyph glyph-name="one.cap" horiz-adv-x="408" 
d="M205 459h-150l23 116q80 2 134 35.5t81 108.5h137l-139 -719h-174z" />
    <glyph glyph-name="two.cap" horiz-adv-x="591" 
d="M-25 0q9 50 24.5 88.5t37.5 68.5t48.5 54.5t57.5 45.5q57 42 114.5 75.5t102.5 62.5q38 26 56.5 52.5t18.5 62.5t-21 57.5t-59 21.5q-51 1 -83 -34q-17 -17 -27.5 -42t-17.5 -62h-164q9 66 28 110t51 78q36 41 92 65.5t130 24.5q49 0 93 -12.5t77 -38t52.5 -65
t19.5 -92.5q0 -46 -13.5 -82t-36.5 -65t-53.5 -52.5t-65.5 -44.5q-27 -17 -56.5 -33t-57 -32t-53 -33.5t-45.5 -37.5v-1h318l-27 -140h-541v0z" />
    <glyph glyph-name="three.cap" horiz-adv-x="610" 
d="M295 -15q-66 0 -120 17.5t-91.5 51t-56.5 82t-14 110.5h167q-2 -56 26 -92.5t92 -36.5q50 0 81 27.5t31 75.5q1 44 -29 68t-89 24h-31l23 120h46q21 0 40.5 5t35 16t24.5 28t9 41q1 35 -22.5 56.5t-64.5 21.5q-54 0 -84 -31t-38 -80h-164q7 54 31 98.5t61.5 76t88 49
t111.5 17.5q50 0 96 -11.5t80.5 -34.5t55 -59t20.5 -85q0 -62 -34.5 -104t-95.5 -63v-2q21 -8 40 -21t34 -31.5t23.5 -43.5t8.5 -56q0 -55 -23 -98.5t-62.5 -73.5t-92.5 -46t-113 -16z" />
    <glyph glyph-name="four.cap" horiz-adv-x="635" 
d="M328 160h-327l30 156l404 405h169l-83 -432h102l-26 -129h-102l-30 -160h-168zM353 289l47 241h-2l-235 -239v-2h190z" />
    <glyph glyph-name="five.cap" horiz-adv-x="610" 
d="M283 -17q-56 0 -105.5 13.5t-88 41.5t-61.5 72t-25 104h168q4 -43 34 -68t79 -25q56 0 92 38t36 100q0 47 -26.5 77t-77.5 30q-31 0 -57 -12.5t-43 -34.5h-158l116 396h448l-27 -137h-317l-40 -135h3q21 19 58 32.5t87 13.5q48 0 87 -15t66 -43.5t42 -69.5t15 -93
q0 -63 -22.5 -115.5t-62.5 -90t-96.5 -58.5t-123.5 -21z" />
    <glyph glyph-name="six.cap" horiz-adv-x="630" 
d="M311 -17q-63 0 -114 19t-87 56t-55.5 90.5t-19.5 121.5q0 48 8.5 99.5t26 101.5t44.5 95t64 80q43 41 99 62.5t126 21.5q45 0 85.5 -10.5t73 -33t53.5 -59.5t26 -89h-167q-8 67 -82 67q-61 0 -103.5 -49t-62.5 -134h2q30 31 70 50.5t94 19.5q42 0 81.5 -15.5t70 -44.5
t49 -70.5t18.5 -94.5q0 -64 -23.5 -116t-63.5 -89.5t-95 -58t-118 -20.5zM311 112q28 0 52 10t42 28.5t28 44.5t10 58q0 48 -28 79.5t-80 31.5q-28 0 -52.5 -10t-42.5 -28.5t-28.5 -44.5t-10.5 -57q0 -49 29.5 -80.5t80.5 -31.5z" />
    <glyph glyph-name="seven.cap" horiz-adv-x="559" 
d="M75 0q21 97 59.5 183.5t86 159t98 130.5t94.5 97v2h-336l28 143h520l-25 -129q-56 -48 -109.5 -111t-99.5 -138t-81 -160t-54 -177h-181v0z" />
    <glyph glyph-name="eight.cap" horiz-adv-x="623" 
d="M292 -17q-51 0 -102 11.5t-92 36.5t-66.5 65t-25.5 97q0 39 11.5 69.5t32 54.5t49 41t62.5 28v3q-36 22 -53 55.5t-17 71.5q0 51 22.5 91t60.5 67.5t87.5 41.5t103.5 14q48 0 94.5 -11t83 -34t58.5 -58.5t22 -85.5q0 -58 -32 -98.5t-89 -66.5v-3q47 -22 70.5 -62
t23.5 -90q0 -60 -25.5 -105t-67.5 -74.5t-97 -44t-114 -14.5zM298 112q25 0 48 7.5t40 22t27.5 36t10.5 50.5q-1 46 -33.5 71t-81.5 25q-24 0 -47 -7t-41 -21.5t-29 -36t-11 -50.5q0 -47 33 -72t84 -25zM351 433q22 0 41.5 5t34.5 16.5t23.5 29t8.5 41.5q-1 40 -27.5 62.5
t-69.5 22.5q-21 0 -40.5 -6t-35 -18t-25 -29.5t-9.5 -41.5q0 -42 27.5 -62t71.5 -20z" />
    <glyph glyph-name="nine.cap" horiz-adv-x="636" 
d="M272 -17q-46 0 -89.5 10.5t-78.5 33.5t-58 60.5t-27 90.5h169q5 -32 28.5 -51t63.5 -19q65 0 104 47t59 136h-2q-32 -30 -69.5 -49t-88.5 -19q-47 0 -88 14.5t-72 42t-49 68t-18 92.5q0 66 23.5 119.5t64.5 91t96 58.5t118 21q61 0 112.5 -17.5t88 -53t57 -88
t20.5 -122.5q0 -51 -7.5 -103.5t-23 -101.5t-39.5 -93t-57 -78q-86 -90 -237 -90zM336 349q27 0 51.5 10t43 28t29 43.5t10.5 57.5q0 50 -30 82t-81 32q-28 0 -52.5 -10.5t-42.5 -29.5t-28 -45t-10 -57q-1 -50 29 -80.5t81 -30.5z" />
    <glyph glyph-name="percent.cap" horiz-adv-x="844" 
d="M232 414q21 0 36 16.5t24.5 41t14 52.5t4.5 52q0 27 -10 47.5t-37 20.5q-21 0 -36.5 -16.5t-25 -40.5t-14 -52t-4.5 -51q0 -13 2 -25.5t7 -22.5t14.5 -16t24.5 -6zM227 328q-38 0 -67.5 12.5t-50.5 34.5t-32 52t-11 66q0 47 14 90t40.5 75.5t63.5 51.5t84 19
q37 0 67 -11.5t51.5 -33.5t33 -52.5t11.5 -67.5q0 -47 -14 -90t-40.5 -75.5t-64 -51.5t-85.5 -19zM660 715h94l-529 -715h-94zM619 69q21 0 36 16.5t24.5 41t14 52.5t4.5 52q0 27 -10.5 48t-36.5 21q-21 0 -36.5 -16.5t-25 -41t-14 -52.5t-4.5 -51q0 -12 2 -24.5t7 -22.5
t14.5 -16.5t24.5 -6.5zM614 -17q-38 0 -68 12.5t-51 34.5t-32 52t-11 66q0 47 14.5 90t40.5 75.5t63.5 51.5t84.5 19q74 0 118 -44.5t44 -119.5q0 -47 -14 -90t-40.5 -75.5t-64 -52t-84.5 -19.5z" />
    <glyph glyph-name="perthousand.cap" horiz-adv-x="1234" 
d="M232 414q21 0 36 16.5t24.5 41t14 52.5t4.5 52q0 27 -10 47.5t-37 20.5q-21 0 -36.5 -16.5t-25 -40.5t-14 -52t-4.5 -51q0 -13 2 -25.5t7 -22.5t14.5 -16t24.5 -6zM227 328q-38 0 -67.5 12.5t-50.5 34.5t-32 52t-11 66q0 47 14 90t40.5 75.5t63.5 51.5t84 19
q37 0 67 -11.5t51.5 -33.5t33 -52.5t11.5 -67.5q0 -47 -14 -90t-40.5 -75.5t-64 -51.5t-85.5 -19zM660 715h95l-532 -715h-94zM615 69q21 0 36 16.5t24.5 41t14 52.5t4.5 52q0 27 -10 48t-37 21q-21 0 -36.5 -16.5t-25 -41t-14 -52.5t-4.5 -51q0 -12 2 -24.5t7 -22.5
t14.5 -16.5t24.5 -6.5zM610 -17q-38 0 -67.5 12.5t-50.5 34.5t-32 52t-11 66q0 47 14 90t40.5 75.5t63.5 51.5t84 19q75 0 119 -44.5t44 -119.5q0 -47 -14 -90t-40.5 -75.5t-64 -52t-85.5 -19.5zM1009 69q21 0 36 16.5t24.5 41t14 52.5t4.5 52q0 27 -10.5 48t-36.5 21
q-21 0 -36.5 -16.5t-25 -41t-14 -52.5t-4.5 -51q0 -12 2 -24.5t7 -22.5t14.5 -16.5t24.5 -6.5zM1004 -17q-38 0 -68 12.5t-51 34.5t-32 52t-11 66q0 47 14.5 90t40.5 75.5t63.5 51.5t84.5 19q74 0 118 -44.5t44 -119.5q0 -47 -14 -90t-40.5 -75.5t-64 -52t-84.5 -19.5z" />
    </font>
</defs>
</svg>
